G75*
G70*
%OFA0B0*%
%FSLAX24Y24*%
%IPPOS*%
%LPD*%
%AMOC8*
5,1,8,0,0,1.08239X$1,22.5*
%
%ADD10C,0.1330*%
%ADD11C,0.0600*%
%ADD12C,0.0680*%
%ADD13OC8,0.0680*%
%ADD14O,0.0680X0.1280*%
%ADD15O,0.0740X0.1400*%
%ADD16C,0.1380*%
%ADD17O,0.1497X0.0789*%
%ADD18C,0.0400*%
D10*
X003012Y001964D03*
X035012Y001964D03*
X035012Y033964D03*
X003012Y033964D03*
D11*
X018062Y011314D03*
X019962Y011314D03*
D12*
X024512Y012964D03*
D13*
X024512Y013964D03*
X025512Y013964D03*
X026512Y013964D03*
X026512Y012964D03*
X025512Y012964D03*
X034512Y010114D03*
X035512Y010114D03*
X035512Y009114D03*
X034512Y009114D03*
X034512Y008114D03*
X035512Y008114D03*
X035512Y007114D03*
X035512Y006114D03*
X034512Y006114D03*
X034512Y007114D03*
X003512Y006964D03*
X003512Y007964D03*
X003512Y008964D03*
X003512Y009964D03*
X002512Y009964D03*
X002512Y008964D03*
X002512Y007964D03*
X002512Y006964D03*
X002512Y005964D03*
X003512Y005964D03*
X003512Y013964D03*
X003512Y014964D03*
X003512Y015964D03*
X003512Y016964D03*
X003512Y017964D03*
X003512Y018964D03*
X003512Y019964D03*
X003512Y020964D03*
X003512Y021964D03*
X003512Y022964D03*
X002512Y022964D03*
X002512Y021964D03*
X002512Y020964D03*
X002512Y019964D03*
X002512Y018964D03*
X002512Y017964D03*
X002512Y016964D03*
X002512Y015964D03*
X002512Y014964D03*
X002512Y013964D03*
X002512Y026964D03*
X002512Y027964D03*
X002512Y028964D03*
X002512Y029964D03*
X003512Y029964D03*
X003512Y028964D03*
X003512Y027964D03*
X003512Y026964D03*
D14*
X015012Y003964D03*
X016012Y003964D03*
X017012Y003964D03*
X021512Y003964D03*
X022512Y003964D03*
X023512Y003964D03*
X028012Y003964D03*
X029012Y003964D03*
X030012Y003964D03*
D15*
X011562Y014014D03*
X010562Y014014D03*
X009562Y014014D03*
D16*
X010562Y019914D03*
D17*
X035012Y019964D03*
X035012Y018964D03*
X035012Y017964D03*
X035012Y016964D03*
X035012Y015964D03*
X035012Y014964D03*
X035012Y013964D03*
X035012Y022464D03*
X035012Y023464D03*
X035012Y024464D03*
X035012Y025464D03*
X035012Y027464D03*
X035012Y028464D03*
X035012Y029464D03*
X035012Y030464D03*
D18*
X033812Y029964D03*
X033812Y028864D03*
X033812Y028064D03*
X032562Y028164D03*
X032562Y027764D03*
X032712Y026514D03*
X032312Y026114D03*
X032662Y025114D03*
X033712Y024864D03*
X033712Y023064D03*
X032212Y021714D03*
X031712Y022214D03*
X031362Y021664D03*
X031112Y022014D03*
X031112Y020564D03*
X029762Y020064D03*
X028212Y020514D03*
X027012Y020214D03*
X028062Y021814D03*
X027012Y022114D03*
X026312Y022114D03*
X025812Y022514D03*
X025662Y022914D03*
X024862Y021514D03*
X023812Y021514D03*
X023662Y021114D03*
X022912Y020414D03*
X022762Y021314D03*
X022912Y022114D03*
X023062Y023414D03*
X023062Y024514D03*
X022662Y025314D03*
X021612Y024114D03*
X021862Y023414D03*
X021362Y023414D03*
X021312Y022964D03*
X020612Y023414D03*
X019962Y023064D03*
X020062Y022064D03*
X019612Y022114D03*
X019212Y022114D03*
X020112Y021014D03*
X019562Y020514D03*
X019612Y019414D03*
X018862Y019464D03*
X018812Y018564D03*
X017912Y018214D03*
X017262Y017614D03*
X017262Y017214D03*
X016662Y018214D03*
X015462Y019264D03*
X015162Y019864D03*
X015162Y020314D03*
X014262Y019864D03*
X014562Y019264D03*
X014662Y018714D03*
X014962Y017414D03*
X014962Y017014D03*
X014662Y016414D03*
X014962Y016114D03*
X016012Y015464D03*
X016612Y016164D03*
X016012Y014814D03*
X015862Y014014D03*
X014612Y013614D03*
X014012Y013914D03*
X014012Y013014D03*
X012562Y013314D03*
X011662Y013064D03*
X010162Y012464D03*
X010062Y013364D03*
X007662Y012864D03*
X006012Y012464D03*
X005612Y013214D03*
X005112Y013964D03*
X005262Y014514D03*
X006012Y014714D03*
X006362Y015064D03*
X006962Y015464D03*
X005262Y016964D03*
X006712Y018114D03*
X005262Y021114D03*
X006362Y021714D03*
X006012Y022214D03*
X007262Y022464D03*
X007962Y023014D03*
X008812Y022814D03*
X009362Y023964D03*
X010962Y025614D03*
X011712Y027014D03*
X011712Y027714D03*
X010862Y028014D03*
X009562Y028114D03*
X009562Y028514D03*
X009262Y027814D03*
X009262Y027314D03*
X008912Y027014D03*
X007412Y027064D03*
X007412Y027714D03*
X007012Y029514D03*
X007362Y029914D03*
X006512Y030014D03*
X006862Y030814D03*
X005312Y029264D03*
X004862Y028564D03*
X005262Y028164D03*
X005562Y027864D03*
X004662Y027814D03*
X004662Y027414D03*
X004112Y025964D03*
X004662Y025164D03*
X005262Y025014D03*
X005562Y024514D03*
X004662Y023914D03*
X003512Y025164D03*
X007112Y025264D03*
X009562Y029364D03*
X009862Y030064D03*
X009162Y030164D03*
X009162Y030664D03*
X010762Y029314D03*
X011262Y029614D03*
X012162Y030414D03*
X012562Y029814D03*
X012862Y030714D03*
X011962Y031514D03*
X012062Y031914D03*
X013962Y031714D03*
X014862Y031114D03*
X015012Y030164D03*
X014712Y029864D03*
X015462Y029814D03*
X015762Y030114D03*
X016062Y030414D03*
X017012Y030114D03*
X017412Y030114D03*
X016912Y031714D03*
X015162Y032264D03*
X014712Y029064D03*
X015362Y028414D03*
X014762Y027764D03*
X014212Y028014D03*
X013812Y027614D03*
X013212Y027564D03*
X012612Y027214D03*
X013862Y026914D03*
X014262Y026914D03*
X014012Y024964D03*
X014462Y024514D03*
X014862Y024514D03*
X015462Y024814D03*
X016462Y024514D03*
X016862Y024514D03*
X017862Y025314D03*
X018762Y024514D03*
X019812Y025014D03*
X020362Y025014D03*
X020462Y025664D03*
X019662Y026314D03*
X019462Y026914D03*
X020112Y026864D03*
X020112Y027564D03*
X020762Y027514D03*
X020112Y028364D03*
X019262Y028014D03*
X019362Y027614D03*
X018362Y027514D03*
X018362Y028014D03*
X017962Y027814D03*
X017212Y027114D03*
X016662Y027114D03*
X018562Y026914D03*
X019212Y025614D03*
X017362Y023514D03*
X016912Y023064D03*
X015762Y022814D03*
X015762Y023464D03*
X015012Y023014D03*
X014612Y023014D03*
X014462Y023414D03*
X013362Y023514D03*
X013362Y024114D03*
X012862Y024514D03*
X014712Y022114D03*
X014262Y021764D03*
X014562Y021464D03*
X015762Y021564D03*
X016662Y019914D03*
X016462Y019514D03*
X017912Y020764D03*
X020762Y021014D03*
X020762Y020414D03*
X021562Y020214D03*
X021262Y019464D03*
X020762Y019164D03*
X021362Y018564D03*
X021412Y017364D03*
X020762Y015914D03*
X021562Y014914D03*
X022112Y014414D03*
X022262Y014014D03*
X021862Y014014D03*
X021062Y014014D03*
X020562Y013914D03*
X019862Y014014D03*
X019812Y014914D03*
X018862Y014014D03*
X018162Y014164D03*
X017862Y014464D03*
X017912Y014864D03*
X018612Y016064D03*
X018512Y016464D03*
X019012Y016064D03*
X018912Y012914D03*
X018062Y012914D03*
X017612Y012514D03*
X017212Y012764D03*
X016362Y012164D03*
X015662Y012914D03*
X014962Y011264D03*
X014312Y011264D03*
X013712Y011214D03*
X014312Y010214D03*
X014962Y010164D03*
X016062Y009514D03*
X016012Y007064D03*
X016012Y005964D03*
X019862Y005464D03*
X021012Y008564D03*
X022512Y010714D03*
X022762Y011314D03*
X022312Y011664D03*
X021862Y012614D03*
X021012Y012614D03*
X020462Y012914D03*
X019862Y012914D03*
X018812Y010114D03*
X022912Y012714D03*
X023562Y013264D03*
X022912Y014414D03*
X022912Y014814D03*
X022762Y015214D03*
X023962Y014964D03*
X024012Y015914D03*
X023112Y016764D03*
X023062Y017914D03*
X023662Y018264D03*
X023662Y018664D03*
X024262Y018564D03*
X025462Y018964D03*
X024912Y020314D03*
X022562Y019314D03*
X024862Y017214D03*
X025312Y015964D03*
X026112Y015914D03*
X025562Y014964D03*
X027062Y013414D03*
X028712Y013264D03*
X028712Y012864D03*
X028712Y012114D03*
X028712Y011714D03*
X028012Y011314D03*
X029212Y010014D03*
X029212Y008914D03*
X027562Y008114D03*
X026962Y009314D03*
X026362Y008714D03*
X025512Y010714D03*
X023512Y010714D03*
X023512Y011814D03*
X027862Y016114D03*
X027662Y016514D03*
X028712Y015814D03*
X029012Y015514D03*
X029262Y014214D03*
X030512Y013864D03*
X030812Y013564D03*
X032362Y015614D03*
X033512Y014964D03*
X034262Y016414D03*
X032362Y017364D03*
X032662Y018014D03*
X033512Y018464D03*
X029962Y017214D03*
X029012Y017214D03*
X028712Y017514D03*
X029012Y017814D03*
X026512Y017114D03*
X026212Y017414D03*
X028912Y021614D03*
X027762Y022664D03*
X027762Y023364D03*
X026012Y024464D03*
X026012Y025364D03*
X024862Y024514D03*
X024562Y025414D03*
X025712Y027114D03*
X025362Y028364D03*
X024612Y028314D03*
X025362Y029314D03*
X024762Y029614D03*
X024762Y030364D03*
X024612Y031864D03*
X023362Y031514D03*
X021762Y031764D03*
X021762Y031014D03*
X020412Y031714D03*
X022612Y029664D03*
X021262Y029364D03*
X021712Y026914D03*
X021312Y022114D03*
X020762Y022114D03*
X027462Y025714D03*
X028062Y026314D03*
X027462Y027114D03*
X028362Y027414D03*
X028362Y028314D03*
X027062Y029214D03*
X027962Y029614D03*
X027062Y030414D03*
X026812Y033364D03*
X026312Y033864D03*
X028262Y033414D03*
X028262Y034464D03*
X031012Y030664D03*
X030562Y029614D03*
X030412Y028264D03*
X030412Y026064D03*
X030412Y025664D03*
X030412Y023764D03*
X029962Y023714D03*
X019462Y034664D03*
X006862Y033714D03*
X013562Y014714D03*
X010262Y010514D03*
X009862Y009064D03*
X010012Y008664D03*
X009312Y008514D03*
X008512Y009464D03*
X007462Y010514D03*
X006962Y009464D03*
X005712Y008564D03*
X005562Y009064D03*
X005112Y010114D03*
X005112Y010514D03*
X004012Y011064D03*
X003162Y011964D03*
X003662Y013214D03*
X006812Y007914D03*
X007712Y006514D03*
X006512Y004964D03*
X005962Y005514D03*
X007012Y002964D03*
X008312Y003164D03*
X008562Y003714D03*
X008912Y002564D03*
X007362Y001564D03*
X006862Y001264D03*
X006562Y001564D03*
X005562Y001264D03*
X009762Y005314D03*
X010162Y004914D03*
X010262Y006964D03*
X010712Y008964D03*
X012312Y010164D03*
X011362Y002714D03*
X022762Y002264D03*
X023062Y002564D03*
X026962Y006064D03*
X027862Y002914D03*
X032962Y009564D03*
X032362Y009714D03*
X032962Y010314D03*
X033262Y011364D03*
X033562Y011964D03*
X034462Y011664D03*
X034262Y010864D03*
X031212Y010014D03*
M02*
