G75*
G70*
%OFA0B0*%
%FSLAX24Y24*%
%IPPOS*%
%LPD*%
%AMOC8*
5,1,8,0,0,1.08239X$1,22.5*
%
%ADD10R,0.6500X0.7000*%
%ADD11R,0.0220X0.0470*%
%ADD12R,0.0470X0.0220*%
%ADD13R,0.0512X0.0591*%
%ADD14C,0.0520*%
%ADD15R,0.0394X0.0394*%
%ADD16C,0.0600*%
%ADD17OC8,0.0600*%
%ADD18R,0.0260X0.0800*%
%ADD19O,0.0600X0.1200*%
%ADD20R,0.0984X0.1004*%
%ADD21R,0.0472X0.0472*%
%ADD22O,0.0660X0.1320*%
%ADD23R,0.0300X0.0600*%
%ADD24R,0.0236X0.0866*%
%ADD25R,0.0276X0.0591*%
%ADD26R,0.0866X0.0236*%
%ADD27R,0.0217X0.0472*%
%ADD28R,0.0250X0.0500*%
%ADD29R,0.0500X0.0250*%
%ADD30R,0.0240X0.0870*%
%ADD31O,0.1417X0.0709*%
%ADD32C,0.0148*%
%ADD33C,0.0160*%
%ADD34C,0.0320*%
%ADD35C,0.0070*%
D10*
X010762Y018464D03*
D11*
X016650Y021534D03*
X016965Y021534D03*
X017280Y021534D03*
X017594Y021534D03*
X017909Y021534D03*
X018224Y021534D03*
X018539Y021534D03*
X018854Y021534D03*
X019169Y021534D03*
X019484Y021534D03*
X019799Y021534D03*
X020114Y021534D03*
X020429Y021534D03*
X020744Y021534D03*
X021059Y021534D03*
X021374Y021534D03*
X021374Y015393D03*
X021059Y015393D03*
X020744Y015393D03*
X020429Y015393D03*
X020114Y015393D03*
X019799Y015393D03*
X019484Y015393D03*
X019169Y015393D03*
X018854Y015393D03*
X018539Y015393D03*
X018224Y015393D03*
X017909Y015393D03*
X017594Y015393D03*
X017280Y015393D03*
X016965Y015393D03*
X016650Y015393D03*
D12*
X015941Y016101D03*
X015941Y016416D03*
X015941Y016731D03*
X015941Y017046D03*
X015941Y017361D03*
X015941Y017676D03*
X015941Y017991D03*
X015941Y018306D03*
X015941Y018621D03*
X015941Y018936D03*
X015941Y019251D03*
X015941Y019566D03*
X015941Y019881D03*
X015941Y020196D03*
X015941Y020511D03*
X015941Y020826D03*
X022083Y020826D03*
X022083Y020511D03*
X022083Y020196D03*
X022083Y019881D03*
X022083Y019566D03*
X022083Y019251D03*
X022083Y018936D03*
X022083Y018621D03*
X022083Y018306D03*
X022083Y017991D03*
X022083Y017676D03*
X022083Y017361D03*
X022083Y017046D03*
X022083Y016731D03*
X022083Y016416D03*
X022083Y016101D03*
D13*
X024177Y016464D03*
X024846Y016464D03*
X026177Y016464D03*
X026846Y016464D03*
X026846Y017964D03*
X026177Y017964D03*
X024846Y017964D03*
X024177Y017964D03*
X024177Y020964D03*
X024846Y020964D03*
X024846Y023964D03*
X024177Y023964D03*
X022846Y023964D03*
X022177Y023964D03*
X020846Y023964D03*
X020177Y023964D03*
X018846Y023964D03*
X018177Y023964D03*
X016846Y023964D03*
X016177Y023964D03*
X014846Y023964D03*
X014177Y023964D03*
X012846Y023964D03*
X012177Y023964D03*
X008846Y023964D03*
X008177Y023964D03*
X008346Y030964D03*
X007677Y030964D03*
X006346Y030964D03*
X005677Y030964D03*
X005677Y032464D03*
X006346Y032464D03*
X007677Y032464D03*
X008346Y032464D03*
X009677Y032464D03*
X010346Y032464D03*
X011677Y032464D03*
X012346Y032464D03*
X013677Y032464D03*
X014346Y032464D03*
X014346Y033964D03*
X013677Y033964D03*
X012346Y033964D03*
X011677Y033964D03*
X010346Y033964D03*
X009677Y033964D03*
X008346Y033964D03*
X007677Y033964D03*
X006346Y033964D03*
X005677Y033964D03*
X009677Y030964D03*
X010346Y030964D03*
X011677Y030964D03*
X012346Y030964D03*
X013677Y030964D03*
X014346Y030964D03*
X016177Y030964D03*
X016846Y030964D03*
X018177Y030964D03*
X018846Y030964D03*
X020177Y030964D03*
X020846Y030964D03*
X020846Y032464D03*
X020177Y032464D03*
X018846Y032464D03*
X018177Y032464D03*
X016846Y032464D03*
X016177Y032464D03*
X016177Y033964D03*
X016846Y033964D03*
X018177Y033964D03*
X018846Y033964D03*
X020177Y033964D03*
X020846Y033964D03*
X022677Y030964D03*
X023346Y030964D03*
X024677Y030964D03*
X025346Y030964D03*
X027177Y030964D03*
X027846Y030964D03*
X029177Y030964D03*
X029846Y030964D03*
X029846Y032464D03*
X029177Y032464D03*
X027846Y032464D03*
X027177Y032464D03*
X027177Y033964D03*
X027846Y033964D03*
X029177Y033964D03*
X029846Y033964D03*
X031677Y032464D03*
X032346Y032464D03*
X032346Y030964D03*
X031677Y030964D03*
X021846Y013464D03*
X021177Y013464D03*
X019846Y013464D03*
X019177Y013464D03*
X017846Y013464D03*
X017177Y013464D03*
X015846Y013464D03*
X015177Y013464D03*
X011346Y011464D03*
X010677Y011464D03*
X010677Y009964D03*
X011346Y009964D03*
X011346Y004964D03*
X010677Y004964D03*
X010677Y003464D03*
X011346Y003464D03*
X011346Y001964D03*
X010677Y001964D03*
X018677Y005464D03*
X019346Y005464D03*
X022477Y007364D03*
X023146Y007364D03*
X023146Y008764D03*
X022477Y008764D03*
X022477Y010164D03*
X023146Y010164D03*
X024677Y010164D03*
X025346Y010164D03*
X026877Y010164D03*
X027546Y010164D03*
X027546Y008764D03*
X026877Y008764D03*
X026877Y007464D03*
X027546Y007464D03*
X029177Y007964D03*
X029846Y007964D03*
X031177Y007964D03*
X031846Y007964D03*
X031846Y009464D03*
X031177Y009464D03*
X029846Y009464D03*
X029177Y009464D03*
X026146Y005464D03*
X025477Y005464D03*
D14*
X019962Y011314D03*
X018062Y011314D03*
D15*
X010906Y023964D03*
X010118Y023964D03*
D16*
X024512Y012964D03*
D17*
X024512Y013964D03*
X025512Y013964D03*
X026512Y013964D03*
X026512Y012964D03*
X025512Y012964D03*
X034512Y010114D03*
X035512Y010114D03*
X035512Y009114D03*
X034512Y009114D03*
X034512Y008114D03*
X035512Y008114D03*
X035512Y007114D03*
X035512Y006114D03*
X034512Y006114D03*
X034512Y007114D03*
X003512Y006964D03*
X003512Y007964D03*
X003512Y008964D03*
X003512Y009964D03*
X002512Y009964D03*
X002512Y008964D03*
X002512Y007964D03*
X002512Y006964D03*
X002512Y005964D03*
X003512Y005964D03*
X003512Y013964D03*
X003512Y014964D03*
X003512Y015964D03*
X003512Y016964D03*
X003512Y017964D03*
X003512Y018964D03*
X003512Y019964D03*
X003512Y020964D03*
X003512Y021964D03*
X003512Y022964D03*
X002512Y022964D03*
X002512Y021964D03*
X002512Y020964D03*
X002512Y019964D03*
X002512Y018964D03*
X002512Y017964D03*
X002512Y016964D03*
X002512Y015964D03*
X002512Y014964D03*
X002512Y013964D03*
X002512Y026964D03*
X002512Y027964D03*
X002512Y028964D03*
X002512Y029964D03*
X003512Y029964D03*
X003512Y028964D03*
X003512Y027964D03*
X003512Y026964D03*
D18*
X010762Y026254D03*
X011262Y026254D03*
X011762Y026254D03*
X012262Y026254D03*
X012762Y026254D03*
X013262Y026254D03*
X013762Y026254D03*
X014262Y026254D03*
X015762Y026254D03*
X016262Y026254D03*
X016762Y026254D03*
X017262Y026254D03*
X017762Y026254D03*
X018262Y026254D03*
X018762Y026254D03*
X019262Y026254D03*
X019262Y028674D03*
X018762Y028674D03*
X018262Y028674D03*
X017762Y028674D03*
X017262Y028674D03*
X016762Y028674D03*
X016262Y028674D03*
X015762Y028674D03*
X014262Y028674D03*
X013762Y028674D03*
X013262Y028674D03*
X012762Y028674D03*
X012262Y028674D03*
X011762Y028674D03*
X011262Y028674D03*
X010762Y028674D03*
X012662Y011924D03*
X013162Y011924D03*
X013662Y011924D03*
X014162Y011924D03*
X014662Y011924D03*
X015162Y011924D03*
X015662Y011924D03*
X015662Y009504D03*
X015162Y009504D03*
X014662Y009504D03*
X014162Y009504D03*
X013662Y009504D03*
X013162Y009504D03*
X012662Y009504D03*
X028762Y011034D03*
X029262Y011034D03*
X029762Y011034D03*
X030262Y011034D03*
X030762Y011034D03*
X031262Y011034D03*
X031762Y011034D03*
X032262Y011034D03*
X032262Y014894D03*
X031762Y014894D03*
X031262Y014894D03*
X030762Y014894D03*
X030262Y014894D03*
X029762Y014894D03*
X029262Y014894D03*
X028762Y014894D03*
D19*
X029012Y003964D03*
X030012Y003964D03*
X028012Y003964D03*
X023512Y003964D03*
X022512Y003964D03*
X021512Y003964D03*
X017012Y003964D03*
X016012Y003964D03*
X015012Y003964D03*
D20*
X006012Y013970D03*
X006012Y015958D03*
X006012Y017470D03*
X006012Y019458D03*
X006012Y020970D03*
X006012Y022958D03*
X027012Y022958D03*
X027012Y020970D03*
X032012Y020970D03*
X032012Y022958D03*
D21*
X024925Y022464D03*
X024098Y022464D03*
X024098Y019464D03*
X024925Y019464D03*
D22*
X011562Y014014D03*
X010562Y014014D03*
X009562Y014014D03*
D23*
X028762Y025084D03*
X029262Y025084D03*
X029762Y025084D03*
X030262Y025084D03*
X030762Y025084D03*
X031262Y025084D03*
X031762Y025084D03*
X032262Y025084D03*
X032262Y028844D03*
X031762Y028844D03*
X031262Y028844D03*
X030762Y028844D03*
X030262Y028844D03*
X029762Y028844D03*
X029262Y028844D03*
X028762Y028844D03*
D24*
X028762Y022987D03*
X029262Y022987D03*
X029762Y022987D03*
X030262Y022987D03*
X030262Y020940D03*
X029762Y020940D03*
X029262Y020940D03*
X028762Y020940D03*
X008512Y012157D03*
X008012Y012157D03*
X007512Y012157D03*
X007012Y012157D03*
X006512Y012157D03*
X006512Y008771D03*
X007012Y008771D03*
X007512Y008771D03*
X008012Y008771D03*
X008512Y008771D03*
X008512Y005657D03*
X008012Y005657D03*
X007512Y005657D03*
X007012Y005657D03*
X006512Y005657D03*
X006512Y002271D03*
X007012Y002271D03*
X007512Y002271D03*
X008012Y002271D03*
X008512Y002271D03*
D25*
X028762Y016646D03*
X029262Y016646D03*
X029762Y016646D03*
X030262Y016646D03*
X030762Y016646D03*
X031262Y016646D03*
X031762Y016646D03*
X032262Y016646D03*
X032262Y019281D03*
X031762Y019281D03*
X031262Y019281D03*
X030762Y019281D03*
X030262Y019281D03*
X029762Y019281D03*
X029262Y019281D03*
X028762Y019281D03*
X024262Y026146D03*
X023762Y026146D03*
X023262Y026146D03*
X022762Y026146D03*
X022262Y026146D03*
X021762Y026146D03*
X021262Y026146D03*
X020762Y026146D03*
X020762Y028781D03*
X021262Y028781D03*
X021762Y028781D03*
X022262Y028781D03*
X022762Y028781D03*
X023262Y028781D03*
X023762Y028781D03*
X024262Y028781D03*
X009162Y028731D03*
X008662Y028731D03*
X008162Y028731D03*
X007662Y028731D03*
X007162Y028731D03*
X006662Y028731D03*
X006162Y028731D03*
X005662Y028731D03*
X005662Y026096D03*
X006162Y026096D03*
X006662Y026096D03*
X007162Y026096D03*
X007662Y026096D03*
X008162Y026096D03*
X008662Y026096D03*
X009162Y026096D03*
D26*
X009205Y011464D03*
X009205Y010964D03*
X009205Y010464D03*
X009205Y009964D03*
X009205Y009464D03*
X005819Y009464D03*
X005819Y009964D03*
X005819Y010464D03*
X005819Y010964D03*
X005819Y011464D03*
X005819Y004964D03*
X005819Y004464D03*
X005819Y003964D03*
X005819Y003464D03*
X005819Y002964D03*
X009205Y002964D03*
X009205Y003464D03*
X009205Y003964D03*
X009205Y004464D03*
X009205Y004964D03*
D27*
X010638Y006952D03*
X011012Y006952D03*
X011386Y006952D03*
X011386Y007975D03*
X010638Y007975D03*
D28*
X023012Y032564D03*
X023512Y032564D03*
X024012Y032564D03*
X024012Y034364D03*
X023512Y034364D03*
X023012Y034364D03*
D29*
X022612Y033464D03*
X024412Y033464D03*
D30*
X025762Y028494D03*
X026262Y028494D03*
X026762Y028494D03*
X027262Y028494D03*
X027262Y026434D03*
X026762Y026434D03*
X026262Y026434D03*
X025762Y026434D03*
D31*
X035012Y025464D03*
X035012Y024464D03*
X035012Y023464D03*
X035012Y022464D03*
X035012Y019964D03*
X035012Y018964D03*
X035012Y017964D03*
X035012Y016964D03*
X035012Y015964D03*
X035012Y014964D03*
X035012Y013964D03*
X035012Y027464D03*
X035012Y028464D03*
X035012Y029464D03*
X035012Y030464D03*
D32*
X025666Y008985D02*
X025618Y008985D01*
X025618Y009033D01*
X025666Y009033D01*
X025666Y008985D01*
X025351Y008985D02*
X025303Y008985D01*
X025303Y009033D01*
X025351Y009033D01*
X025351Y008985D01*
X025351Y008670D02*
X025303Y008670D01*
X025303Y008718D01*
X025351Y008718D01*
X025351Y008670D01*
X025036Y008670D02*
X024988Y008670D01*
X024988Y008718D01*
X025036Y008718D01*
X025036Y008670D01*
X025036Y008985D02*
X024988Y008985D01*
X024988Y009033D01*
X025036Y009033D01*
X025036Y008985D01*
X024721Y008985D02*
X024673Y008985D01*
X024673Y009033D01*
X024721Y009033D01*
X024721Y008985D01*
X024721Y008670D02*
X024673Y008670D01*
X024673Y008718D01*
X024721Y008718D01*
X024721Y008670D01*
X024406Y008355D02*
X024358Y008355D01*
X024358Y008403D01*
X024406Y008403D01*
X024406Y008355D01*
X024406Y008040D02*
X024358Y008040D01*
X024358Y008088D01*
X024406Y008088D01*
X024406Y008040D01*
X024406Y007725D02*
X024358Y007725D01*
X024358Y007773D01*
X024406Y007773D01*
X024406Y007725D01*
X024091Y007725D02*
X024043Y007725D01*
X024043Y007773D01*
X024091Y007773D01*
X024091Y007725D01*
X024091Y007410D02*
X024043Y007410D01*
X024043Y007458D01*
X024091Y007458D01*
X024091Y007410D01*
X024358Y007095D02*
X024406Y007095D01*
X024358Y007095D02*
X024358Y007143D01*
X024406Y007143D01*
X024406Y007095D01*
X024673Y007095D02*
X024721Y007095D01*
X024673Y007095D02*
X024673Y007143D01*
X024721Y007143D01*
X024721Y007095D01*
X024988Y007095D02*
X025036Y007095D01*
X024988Y007095D02*
X024988Y007143D01*
X025036Y007143D01*
X025036Y007095D01*
X025303Y007095D02*
X025351Y007095D01*
X025303Y007095D02*
X025303Y007143D01*
X025351Y007143D01*
X025351Y007095D01*
X025618Y007095D02*
X025666Y007095D01*
X025618Y007095D02*
X025618Y007143D01*
X025666Y007143D01*
X025666Y007095D01*
X025933Y007410D02*
X025981Y007410D01*
X025933Y007410D02*
X025933Y007458D01*
X025981Y007458D01*
X025981Y007410D01*
X025981Y007725D02*
X025933Y007725D01*
X025933Y007773D01*
X025981Y007773D01*
X025981Y007725D01*
X025981Y008040D02*
X025933Y008040D01*
X025933Y008088D01*
X025981Y008088D01*
X025981Y008040D01*
X025981Y008355D02*
X025933Y008355D01*
X025933Y008403D01*
X025981Y008403D01*
X025981Y008355D01*
X025981Y008670D02*
X025933Y008670D01*
X025933Y008718D01*
X025981Y008718D01*
X025981Y008670D01*
X025666Y008355D02*
X025618Y008355D01*
X025618Y008403D01*
X025666Y008403D01*
X025666Y008355D01*
X025666Y008040D02*
X025618Y008040D01*
X025618Y008088D01*
X025666Y008088D01*
X025666Y008040D01*
X025666Y007725D02*
X025618Y007725D01*
X025618Y007773D01*
X025666Y007773D01*
X025666Y007725D01*
X025351Y007410D02*
X025303Y007410D01*
X025303Y007458D01*
X025351Y007458D01*
X025351Y007410D01*
X025036Y007410D02*
X024988Y007410D01*
X024988Y007458D01*
X025036Y007458D01*
X025036Y007410D01*
X024721Y007410D02*
X024673Y007410D01*
X024673Y007458D01*
X024721Y007458D01*
X024721Y007410D01*
X024091Y008040D02*
X024043Y008040D01*
X024043Y008088D01*
X024091Y008088D01*
X024091Y008040D01*
X024091Y008355D02*
X024043Y008355D01*
X024043Y008403D01*
X024091Y008403D01*
X024091Y008355D01*
X024091Y008670D02*
X024043Y008670D01*
X024043Y008718D01*
X024091Y008718D01*
X024091Y008670D01*
X024358Y008985D02*
X024406Y008985D01*
X024358Y008985D02*
X024358Y009033D01*
X024406Y009033D01*
X024406Y008985D01*
D33*
X004762Y002614D02*
X003012Y004364D01*
X003012Y006364D01*
X002662Y006714D01*
X002512Y006964D01*
X002662Y007214D01*
X003012Y007564D01*
X003012Y009364D01*
X003362Y009714D01*
X003512Y009964D01*
X003662Y010214D01*
X004612Y011164D01*
X004612Y014514D01*
X005562Y015464D01*
X006012Y015958D01*
X006462Y015464D01*
X007262Y014664D01*
X007312Y014714D01*
X007312Y022014D01*
X007612Y022314D01*
X007612Y023364D01*
X007962Y023714D01*
X008177Y023964D01*
X008412Y023714D01*
X008412Y023464D01*
X009362Y023464D01*
X009712Y023814D01*
X009962Y023814D01*
X010118Y023964D01*
X010312Y024114D01*
X010362Y024164D01*
X010362Y028014D01*
X010662Y028314D01*
X010762Y028674D01*
X010662Y028914D01*
X010412Y029164D01*
X010412Y030014D01*
X009912Y030514D01*
X009912Y030714D01*
X009677Y030964D01*
X009512Y030714D01*
X009512Y029814D01*
X007712Y029814D01*
X007712Y030714D01*
X007677Y030964D01*
X006512Y030014D02*
X007012Y029514D01*
X006562Y029064D02*
X006562Y029014D01*
X006662Y028731D01*
X006762Y028764D01*
X007062Y028764D01*
X007162Y028731D01*
X007262Y028764D01*
X007562Y028764D01*
X007662Y028731D01*
X007712Y029014D01*
X007712Y029814D01*
X007762Y028764D02*
X007662Y028731D01*
X007762Y028764D02*
X008062Y028764D01*
X008162Y028731D01*
X007412Y027714D02*
X007412Y027064D01*
X006562Y029064D02*
X005912Y029714D01*
X005912Y030714D01*
X005677Y030964D01*
X006562Y033714D02*
X006346Y033964D01*
X006562Y034214D01*
X006562Y034464D01*
X008012Y034464D01*
X008112Y034364D01*
X008112Y034214D01*
X008346Y033964D01*
X006862Y033714D02*
X006562Y033714D01*
X010346Y033964D02*
X010562Y033714D01*
X011462Y032814D01*
X011462Y032714D01*
X011677Y032464D01*
X012562Y033714D02*
X012346Y033964D01*
X012112Y034214D01*
X012112Y034464D01*
X011362Y034464D01*
X011212Y034314D01*
X011212Y034214D01*
X010562Y034214D01*
X010346Y033964D01*
X012346Y033964D02*
X012562Y034214D01*
X012562Y034464D01*
X014012Y034464D01*
X014112Y034364D01*
X014112Y034214D01*
X014346Y033964D01*
X014562Y034214D01*
X014562Y034464D01*
X016512Y034464D01*
X016612Y034364D01*
X016612Y034214D01*
X016846Y033964D01*
X017062Y034214D01*
X017712Y034214D01*
X017712Y034314D01*
X017862Y034464D01*
X018612Y034464D01*
X018612Y034214D01*
X018846Y033964D01*
X018862Y033714D01*
X018862Y032714D01*
X018846Y032464D01*
X018862Y032214D01*
X018862Y031214D01*
X018846Y030964D01*
X020177Y030964D02*
X020412Y031214D01*
X020412Y031714D01*
X020412Y031864D01*
X020612Y032064D01*
X020612Y032214D01*
X020846Y032464D01*
X020862Y032714D01*
X020862Y033714D01*
X020846Y033964D01*
X021762Y031764D02*
X021762Y031014D01*
X023346Y030964D02*
X023362Y031214D01*
X023362Y031514D01*
X024112Y032364D02*
X024012Y032564D01*
X024112Y032364D02*
X024612Y031864D01*
X025112Y031364D01*
X025112Y031214D01*
X025346Y030964D01*
X025762Y028494D02*
X025662Y028364D01*
X025362Y028364D01*
X024612Y028314D02*
X022362Y028314D01*
X022362Y028514D01*
X022262Y028781D01*
X022162Y028514D01*
X022062Y028414D01*
X022062Y026664D01*
X021862Y026464D01*
X021862Y026414D01*
X021762Y026146D01*
X021662Y025864D01*
X021662Y025814D01*
X020412Y024564D01*
X020412Y024214D01*
X020177Y023964D01*
X020262Y023714D01*
X020262Y023264D01*
X020212Y023314D01*
X019962Y023064D01*
X020262Y023264D02*
X020412Y023114D01*
X020412Y021764D01*
X020429Y021534D01*
X020114Y021534D02*
X020112Y021314D01*
X020112Y021014D01*
X021312Y022114D02*
X021312Y022964D01*
X021712Y023064D02*
X022612Y023064D01*
X022612Y023714D01*
X022846Y023964D01*
X022177Y023964D02*
X021962Y024214D01*
X021962Y025764D01*
X021862Y025864D01*
X021762Y026146D01*
X020762Y026146D02*
X020662Y025864D01*
X020462Y025664D01*
X020762Y026146D02*
X020762Y027514D01*
X020112Y027564D02*
X020112Y026864D01*
X019462Y026914D02*
X019462Y026714D01*
X019362Y026614D01*
X019262Y026254D01*
X019162Y026264D01*
X018862Y026264D01*
X018762Y026254D01*
X018762Y024514D01*
X018762Y024214D01*
X018846Y023964D01*
X018612Y023714D01*
X018612Y023564D01*
X016962Y021914D01*
X016962Y021764D01*
X016965Y021534D01*
X016912Y023064D02*
X016412Y023564D01*
X016412Y023714D01*
X016177Y023964D01*
X015962Y024214D01*
X015962Y025264D01*
X015462Y025764D01*
X015462Y028014D01*
X015712Y028264D01*
X015712Y028314D01*
X015762Y028674D01*
X014262Y026914D02*
X014262Y026254D01*
X014262Y025214D01*
X014012Y024964D01*
X014862Y024514D02*
X014862Y024214D01*
X014846Y023964D01*
X016846Y023964D02*
X016862Y024214D01*
X016862Y024514D01*
X018262Y026254D02*
X018362Y026264D01*
X018662Y026264D01*
X018762Y026254D01*
X020846Y023964D02*
X021062Y023714D01*
X021362Y023414D01*
X021712Y023064D01*
X021862Y023414D02*
X021612Y023664D01*
X021612Y024114D01*
X024846Y023964D02*
X024862Y024214D01*
X024862Y024514D01*
X026012Y024464D02*
X026012Y025364D01*
X027262Y026434D02*
X027362Y026864D01*
X027462Y026964D01*
X027462Y027114D01*
X028362Y028314D02*
X029312Y028314D01*
X030712Y026914D01*
X030762Y026914D01*
X030762Y028844D01*
X030762Y026914D02*
X030762Y025084D01*
X030762Y019281D01*
X030862Y019314D01*
X031162Y019314D01*
X031262Y019281D01*
X031362Y019014D01*
X031362Y018014D01*
X032662Y018014D01*
X033512Y018464D02*
X033512Y014964D01*
X033912Y017014D02*
X034512Y017614D01*
X035012Y017964D01*
X035512Y018314D01*
X035912Y018714D01*
X035912Y019214D01*
X035512Y019614D01*
X035012Y019964D01*
X033912Y017014D02*
X033912Y009814D01*
X034362Y009364D01*
X034512Y009114D01*
X031177Y009464D02*
X031212Y009714D01*
X031212Y010014D01*
X029846Y007964D02*
X029612Y007714D01*
X029612Y007464D01*
X028362Y007464D01*
X028362Y014214D01*
X028662Y014514D01*
X028762Y014894D01*
X028662Y015264D01*
X028362Y015564D01*
X028362Y017664D01*
X029512Y018814D01*
X030162Y018814D01*
X030162Y019014D01*
X030262Y019281D01*
X030362Y019314D01*
X030662Y019314D01*
X030762Y019281D01*
X029762Y019281D02*
X029762Y020064D01*
X029762Y020940D01*
X029662Y020964D01*
X029362Y020964D01*
X029262Y020940D01*
X029262Y022987D01*
X029362Y023014D01*
X029662Y023014D01*
X029762Y022987D01*
X028762Y022987D02*
X028662Y023014D01*
X027462Y023014D01*
X027012Y022958D01*
X026562Y022514D01*
X025812Y022514D01*
X024862Y021514D02*
X024862Y021214D01*
X024846Y020964D01*
X024862Y020714D01*
X024862Y020314D01*
X024912Y020314D01*
X027012Y020214D02*
X027012Y020970D01*
X027012Y022114D01*
X028762Y019281D02*
X028862Y019314D01*
X029162Y019314D01*
X029262Y019281D01*
X029362Y019314D01*
X029662Y019314D01*
X029762Y019281D01*
X032012Y020970D02*
X031562Y021464D01*
X031362Y021664D01*
X032212Y021714D02*
X032212Y021464D01*
X032012Y020970D01*
X033712Y023064D02*
X033712Y024864D01*
X032662Y025114D02*
X032362Y025114D01*
X032262Y025084D01*
X033812Y028064D02*
X033812Y028864D01*
X033812Y029964D01*
X029177Y033964D02*
X028962Y034214D01*
X028962Y034464D01*
X028262Y034464D01*
X027512Y034464D01*
X027412Y034364D01*
X027412Y034214D01*
X027177Y033964D01*
X021262Y029364D02*
X021262Y028781D01*
X016846Y030964D02*
X016862Y031214D01*
X016862Y031714D01*
X016912Y031714D01*
X016862Y031714D02*
X016862Y032214D01*
X016846Y032464D01*
X016862Y032714D01*
X016862Y033714D01*
X016846Y033964D01*
X013677Y032464D02*
X013462Y032714D01*
X013462Y032814D01*
X012562Y033714D01*
X013262Y026254D02*
X013362Y026264D01*
X013662Y026264D01*
X013762Y026254D01*
X013862Y026264D01*
X014162Y026264D01*
X014262Y026254D01*
X012862Y024514D02*
X012862Y024214D01*
X012846Y023964D01*
X009362Y023964D02*
X008846Y023964D01*
X007262Y022464D02*
X006712Y021914D01*
X006712Y020164D01*
X006462Y019914D01*
X006012Y019458D01*
X006462Y018964D01*
X007062Y018364D01*
X007062Y015564D01*
X006962Y015464D01*
X007262Y014664D02*
X008012Y013914D01*
X008012Y012157D01*
X010162Y012464D02*
X011312Y012464D01*
X011312Y011464D01*
X011346Y011464D01*
X011362Y011214D01*
X011362Y010214D01*
X011346Y009964D01*
X011362Y009714D01*
X011362Y008164D01*
X011386Y007975D01*
X011462Y007764D01*
X014462Y004764D01*
X015862Y004764D01*
X015862Y004514D01*
X016012Y003964D01*
X016512Y003164D02*
X016512Y005014D01*
X015662Y005014D01*
X011812Y008864D01*
X011812Y012314D01*
X011312Y012814D01*
X011312Y013214D01*
X011462Y013364D01*
X011562Y014014D01*
X011762Y013464D01*
X012262Y012964D01*
X012262Y012614D01*
X012562Y012314D01*
X012662Y011924D01*
X010677Y011464D02*
X010712Y011214D01*
X010712Y010214D01*
X010677Y009964D01*
X010462Y009714D01*
X010362Y009614D01*
X010362Y007364D01*
X010562Y007164D01*
X010638Y006952D01*
X010662Y006764D01*
X010662Y005214D01*
X010677Y004964D01*
X010862Y004714D01*
X010862Y004014D01*
X010912Y003964D01*
X015012Y003964D01*
X015162Y003414D01*
X015162Y003164D01*
X016512Y003164D01*
X017212Y003164D01*
X019012Y004964D01*
X018912Y005064D01*
X018912Y005214D01*
X018677Y005464D01*
X019346Y005464D02*
X019862Y005464D01*
X019012Y004964D02*
X019562Y004414D01*
X021262Y004414D01*
X021512Y003964D01*
X021662Y003414D01*
X021862Y003214D01*
X021862Y003114D01*
X022062Y002914D01*
X027862Y002914D01*
X028012Y003964D02*
X027862Y004514D01*
X027862Y004614D01*
X025962Y006514D01*
X025712Y006264D01*
X025712Y005714D01*
X025477Y005464D01*
X025912Y005214D02*
X026146Y005464D01*
X025912Y005214D02*
X025912Y005064D01*
X025812Y004964D01*
X025012Y004964D01*
X022512Y004964D01*
X022512Y003964D01*
X022512Y004964D02*
X022512Y007114D01*
X022477Y007364D01*
X024382Y007119D02*
X024412Y007064D01*
X024412Y006964D01*
X024562Y006814D01*
X024962Y006814D01*
X025012Y006764D01*
X025012Y004964D01*
X025962Y006514D02*
X026662Y007214D01*
X026877Y007464D01*
X026662Y007714D01*
X026012Y007714D01*
X025957Y007749D01*
X025642Y007119D02*
X025562Y007114D01*
X025412Y007114D01*
X025327Y007119D01*
X025262Y007114D01*
X025062Y007114D01*
X025012Y007119D01*
X024962Y007064D01*
X024962Y006814D01*
X024697Y009009D02*
X024662Y009064D01*
X024662Y009164D01*
X023912Y009914D01*
X023362Y009914D01*
X023146Y010164D01*
X023162Y010414D01*
X023162Y011314D01*
X022762Y011314D01*
X023162Y011314D02*
X023162Y012364D01*
X024362Y013564D01*
X024362Y013714D01*
X024512Y013964D01*
X024362Y014214D01*
X024362Y015064D01*
X023662Y015764D01*
X023662Y017414D01*
X023962Y017714D01*
X024177Y017964D01*
X024846Y017964D02*
X024862Y017714D01*
X024862Y017214D01*
X024862Y016714D01*
X024846Y016464D01*
X025062Y016214D01*
X025312Y015964D01*
X026112Y015914D02*
X026662Y015914D01*
X026662Y016214D01*
X026846Y016464D01*
X026862Y016714D01*
X026862Y017714D01*
X026846Y017964D01*
X026662Y015914D02*
X026662Y014214D01*
X026512Y013964D01*
X029262Y014214D02*
X029262Y014894D01*
X022912Y014414D02*
X022812Y014314D01*
X022812Y012814D01*
X022912Y012714D01*
X021862Y012614D02*
X021862Y013214D01*
X021846Y013464D01*
X021862Y013714D01*
X021862Y014014D01*
X021177Y013464D02*
X021362Y013214D01*
X021362Y011664D01*
X022312Y011664D01*
X021362Y011664D02*
X021362Y004514D01*
X021512Y003964D01*
X016012Y005964D02*
X016012Y007064D01*
X016062Y009514D02*
X015762Y009514D01*
X015662Y009504D01*
X018812Y010114D02*
X018812Y012814D01*
X018912Y012914D01*
X018062Y012914D02*
X018062Y013214D01*
X017846Y013464D01*
X018062Y013714D01*
X018262Y013914D01*
X018262Y014164D01*
X018162Y014164D01*
X018262Y014164D02*
X018262Y015164D01*
X018224Y015393D01*
X017909Y015393D02*
X017912Y015164D01*
X017912Y014864D01*
X016012Y014814D02*
X015412Y014214D01*
X015412Y013714D01*
X015177Y013464D01*
X015846Y013464D02*
X015862Y013214D01*
X015862Y013014D01*
X015762Y012914D01*
X015662Y012914D01*
X015846Y013464D02*
X015862Y013714D01*
X015862Y014014D01*
X019862Y014014D02*
X019862Y013714D01*
X019846Y013464D01*
X019862Y013214D01*
X019862Y012914D01*
X022512Y010714D02*
X022512Y010414D01*
X022477Y010164D01*
X027546Y008764D02*
X027562Y008514D01*
X027562Y008114D01*
X027562Y007714D01*
X027546Y007464D01*
X029612Y007464D02*
X029612Y005964D01*
X028162Y004514D01*
X028012Y003964D01*
X011362Y003214D02*
X011362Y002714D01*
X011362Y002214D01*
X011346Y001964D01*
X010677Y001964D02*
X010712Y002214D01*
X010712Y002564D01*
X008912Y002564D01*
X008312Y003164D02*
X008062Y003414D01*
X008062Y005264D01*
X008012Y005657D01*
X007012Y002964D02*
X007012Y002271D01*
X006562Y001564D02*
X005762Y001564D01*
X004762Y002564D01*
X004762Y002614D01*
X010712Y002564D02*
X010712Y003214D01*
X010677Y003464D01*
X010912Y003714D01*
X010912Y003964D01*
X011346Y003464D02*
X011362Y003214D01*
X011012Y006952D02*
X011112Y007164D01*
X011112Y007564D01*
X011312Y007764D01*
X011386Y007975D01*
X007012Y008771D02*
X006962Y009164D01*
X006962Y009464D01*
X006012Y012464D02*
X006012Y013970D01*
X006012Y014714D01*
X006012Y017470D02*
X005562Y017814D01*
X003762Y017814D01*
X003512Y017964D01*
X003862Y018464D02*
X002662Y018464D01*
X002662Y018214D01*
X002512Y017964D01*
X003512Y018964D02*
X003762Y019114D01*
X004162Y019114D01*
X005562Y020514D01*
X006012Y020970D01*
X006012Y022214D02*
X006012Y022958D01*
X006012Y019458D02*
X005562Y018964D01*
X004362Y018964D01*
X003862Y018464D01*
X010562Y014014D02*
X010412Y013414D01*
X010412Y012814D01*
X010162Y012564D01*
X010162Y012464D01*
D34*
X010162Y012464D03*
X010062Y013364D03*
X011662Y013064D03*
X012562Y013314D03*
X014012Y013014D03*
X014612Y013614D03*
X014012Y013914D03*
X013562Y014714D03*
X014962Y016114D03*
X014662Y016414D03*
X014962Y017014D03*
X014962Y017414D03*
X014662Y018714D03*
X014562Y019264D03*
X014262Y019864D03*
X015162Y019864D03*
X015162Y020314D03*
X015462Y019264D03*
X016462Y019514D03*
X016662Y019914D03*
X017912Y020764D03*
X018862Y019464D03*
X019612Y019414D03*
X019562Y020514D03*
X020112Y021014D03*
X020762Y021014D03*
X020762Y020414D03*
X021562Y020214D03*
X021262Y019464D03*
X020762Y019164D03*
X021362Y018564D03*
X021412Y017364D03*
X020762Y015914D03*
X021562Y014914D03*
X022112Y014414D03*
X022262Y014014D03*
X021862Y014014D03*
X021062Y014014D03*
X020562Y013914D03*
X019862Y014014D03*
X019812Y014914D03*
X018862Y014014D03*
X018162Y014164D03*
X017862Y014464D03*
X017912Y014864D03*
X018612Y016064D03*
X018512Y016464D03*
X019012Y016064D03*
X017262Y017214D03*
X017262Y017614D03*
X016662Y018214D03*
X017912Y018214D03*
X018812Y018564D03*
X016612Y016164D03*
X016012Y015464D03*
X016012Y014814D03*
X015862Y014014D03*
X015662Y012914D03*
X016362Y012164D03*
X017212Y012764D03*
X017612Y012514D03*
X018062Y012914D03*
X018912Y012914D03*
X019862Y012914D03*
X020462Y012914D03*
X021012Y012614D03*
X021862Y012614D03*
X022312Y011664D03*
X022762Y011314D03*
X022512Y010714D03*
X023512Y010714D03*
X023512Y011814D03*
X022912Y012714D03*
X023562Y013264D03*
X022912Y014414D03*
X022912Y014814D03*
X022762Y015214D03*
X023962Y014964D03*
X024012Y015914D03*
X023112Y016764D03*
X023062Y017914D03*
X023662Y018264D03*
X023662Y018664D03*
X024262Y018564D03*
X025462Y018964D03*
X024912Y020314D03*
X024862Y021514D03*
X023812Y021514D03*
X023662Y021114D03*
X022912Y020414D03*
X022762Y021314D03*
X022912Y022114D03*
X023062Y023414D03*
X023062Y024514D03*
X022662Y025314D03*
X021612Y024114D03*
X021862Y023414D03*
X021362Y023414D03*
X021312Y022964D03*
X020612Y023414D03*
X019962Y023064D03*
X020062Y022064D03*
X019612Y022114D03*
X019212Y022114D03*
X020762Y022114D03*
X021312Y022114D03*
X018762Y024514D03*
X019812Y025014D03*
X020362Y025014D03*
X020462Y025664D03*
X019662Y026314D03*
X019462Y026914D03*
X020112Y026864D03*
X020112Y027564D03*
X020762Y027514D03*
X020112Y028364D03*
X019262Y028014D03*
X019362Y027614D03*
X018362Y027514D03*
X018362Y028014D03*
X017962Y027814D03*
X017212Y027114D03*
X016662Y027114D03*
X015362Y028414D03*
X014762Y027764D03*
X014212Y028014D03*
X013812Y027614D03*
X013212Y027564D03*
X012612Y027214D03*
X011712Y027014D03*
X011712Y027714D03*
X010862Y028014D03*
X009562Y028114D03*
X009562Y028514D03*
X009262Y027814D03*
X009262Y027314D03*
X008912Y027014D03*
X007412Y027064D03*
X007412Y027714D03*
X007012Y029514D03*
X007362Y029914D03*
X006512Y030014D03*
X006862Y030814D03*
X005312Y029264D03*
X004862Y028564D03*
X005262Y028164D03*
X005562Y027864D03*
X004662Y027814D03*
X004662Y027414D03*
X004112Y025964D03*
X004662Y025164D03*
X005262Y025014D03*
X005562Y024514D03*
X004662Y023914D03*
X003512Y025164D03*
X007112Y025264D03*
X007962Y023014D03*
X007262Y022464D03*
X006362Y021714D03*
X006012Y022214D03*
X005262Y021114D03*
X006712Y018114D03*
X005262Y016964D03*
X006962Y015464D03*
X006362Y015064D03*
X006012Y014714D03*
X005262Y014514D03*
X005112Y013964D03*
X005612Y013214D03*
X006012Y012464D03*
X007662Y012864D03*
X007462Y010514D03*
X006962Y009464D03*
X005712Y008564D03*
X005562Y009064D03*
X005112Y010114D03*
X005112Y010514D03*
X004012Y011064D03*
X003162Y011964D03*
X003662Y013214D03*
X008512Y009464D03*
X009312Y008514D03*
X010012Y008664D03*
X009862Y009064D03*
X010712Y008964D03*
X012312Y010164D03*
X013712Y011214D03*
X014312Y011264D03*
X014962Y011264D03*
X014962Y010164D03*
X014312Y010214D03*
X016062Y009514D03*
X016012Y007064D03*
X016012Y005964D03*
X019862Y005464D03*
X021012Y008564D03*
X018812Y010114D03*
X025312Y015964D03*
X026112Y015914D03*
X025562Y014964D03*
X027062Y013414D03*
X028712Y013264D03*
X028712Y012864D03*
X028712Y012114D03*
X028712Y011714D03*
X028012Y011314D03*
X029212Y010014D03*
X029212Y008914D03*
X027562Y008114D03*
X026962Y009314D03*
X026362Y008714D03*
X025512Y010714D03*
X029262Y014214D03*
X030512Y013864D03*
X030812Y013564D03*
X032362Y015614D03*
X033512Y014964D03*
X034262Y016414D03*
X032362Y017364D03*
X032662Y018014D03*
X033512Y018464D03*
X031112Y020564D03*
X031362Y021664D03*
X031112Y022014D03*
X031712Y022214D03*
X032212Y021714D03*
X033712Y023064D03*
X033712Y024864D03*
X032662Y025114D03*
X032312Y026114D03*
X032712Y026514D03*
X032562Y027764D03*
X032562Y028164D03*
X033812Y028064D03*
X033812Y028864D03*
X033812Y029964D03*
X031012Y030664D03*
X030562Y029614D03*
X030412Y028264D03*
X028362Y028314D03*
X028362Y027414D03*
X027462Y027114D03*
X028062Y026314D03*
X027462Y025714D03*
X026012Y025364D03*
X026012Y024464D03*
X024862Y024514D03*
X024562Y025414D03*
X025712Y027114D03*
X025362Y028364D03*
X024612Y028314D03*
X025362Y029314D03*
X024762Y029614D03*
X024762Y030364D03*
X024612Y031864D03*
X023362Y031514D03*
X021762Y031764D03*
X021762Y031014D03*
X020412Y031714D03*
X022612Y029664D03*
X021262Y029364D03*
X021712Y026914D03*
X019212Y025614D03*
X018562Y026914D03*
X017862Y025314D03*
X016862Y024514D03*
X016462Y024514D03*
X015462Y024814D03*
X014862Y024514D03*
X014462Y024514D03*
X014012Y024964D03*
X013362Y024114D03*
X013362Y023514D03*
X014462Y023414D03*
X014612Y023014D03*
X015012Y023014D03*
X015762Y022814D03*
X015762Y023464D03*
X016912Y023064D03*
X017362Y023514D03*
X015762Y021564D03*
X014712Y022114D03*
X014262Y021764D03*
X014562Y021464D03*
X012862Y024514D03*
X010962Y025614D03*
X009362Y023964D03*
X008812Y022814D03*
X013862Y026914D03*
X014262Y026914D03*
X014712Y029064D03*
X015462Y029814D03*
X015762Y030114D03*
X016062Y030414D03*
X017012Y030114D03*
X017412Y030114D03*
X016912Y031714D03*
X015162Y032264D03*
X014862Y031114D03*
X015012Y030164D03*
X014712Y029864D03*
X013962Y031714D03*
X012862Y030714D03*
X012162Y030414D03*
X012562Y029814D03*
X011262Y029614D03*
X010762Y029314D03*
X009862Y030064D03*
X009162Y030164D03*
X009162Y030664D03*
X009562Y029364D03*
X011962Y031514D03*
X012062Y031914D03*
X006862Y033714D03*
X019462Y034664D03*
X026312Y033864D03*
X026812Y033364D03*
X028262Y033414D03*
X028262Y034464D03*
X027062Y030414D03*
X027962Y029614D03*
X027062Y029214D03*
X030412Y026064D03*
X030412Y025664D03*
X030412Y023764D03*
X029962Y023714D03*
X027762Y023364D03*
X027762Y022664D03*
X027012Y022114D03*
X026312Y022114D03*
X025812Y022514D03*
X025662Y022914D03*
X028062Y021814D03*
X028912Y021614D03*
X028212Y020514D03*
X027012Y020214D03*
X029762Y020064D03*
X029012Y017814D03*
X028712Y017514D03*
X029012Y017214D03*
X029962Y017214D03*
X028712Y015814D03*
X029012Y015514D03*
X027862Y016114D03*
X027662Y016514D03*
X026512Y017114D03*
X026212Y017414D03*
X024862Y017214D03*
X022562Y019314D03*
X031212Y010014D03*
X032362Y009714D03*
X032962Y009564D03*
X032962Y010314D03*
X033262Y011364D03*
X033562Y011964D03*
X034462Y011664D03*
X034262Y010864D03*
X026962Y006064D03*
X027862Y002914D03*
X023062Y002564D03*
X022762Y002264D03*
X011362Y002714D03*
X008912Y002564D03*
X008312Y003164D03*
X008562Y003714D03*
X007012Y002964D03*
X007362Y001564D03*
X006862Y001264D03*
X006562Y001564D03*
X005562Y001264D03*
X006512Y004964D03*
X005962Y005514D03*
X007712Y006514D03*
X006812Y007914D03*
X009762Y005314D03*
X010162Y004914D03*
X010262Y006964D03*
X010262Y010514D03*
D35*
X010262Y011364D01*
X009612Y011364D01*
X009205Y011464D01*
X009205Y010964D02*
X008812Y010864D01*
X008512Y010564D01*
X008512Y009464D01*
X008262Y009614D02*
X008112Y009464D01*
X008112Y009164D01*
X008012Y008771D01*
X008012Y006414D01*
X007762Y006164D01*
X007762Y002814D01*
X007912Y002664D01*
X008012Y002271D01*
X008512Y002271D02*
X008612Y001864D01*
X008612Y001514D01*
X011662Y001514D01*
X011762Y001614D01*
X011762Y002264D01*
X022762Y002264D01*
X023062Y002564D02*
X023062Y001264D01*
X007262Y001264D01*
X006762Y001764D01*
X006762Y002764D01*
X006712Y002814D01*
X006712Y003214D01*
X005312Y003214D01*
X005262Y003264D01*
X005262Y006364D01*
X004812Y006814D01*
X004812Y014064D01*
X005262Y014514D01*
X005112Y013964D02*
X005112Y010514D01*
X005112Y010114D02*
X005162Y009964D01*
X005162Y009064D01*
X005412Y008814D01*
X005412Y006064D01*
X005962Y005514D01*
X006262Y005114D02*
X006262Y007764D01*
X006762Y008264D01*
X006762Y009264D01*
X006412Y009614D01*
X006412Y011164D01*
X006212Y011364D01*
X005819Y011464D01*
X005612Y011564D01*
X005612Y013214D01*
X006612Y012564D02*
X006512Y012157D01*
X006612Y012564D02*
X006662Y012614D01*
X006662Y014764D01*
X006362Y015064D01*
X006712Y016814D02*
X005662Y016814D01*
X004412Y015564D01*
X004412Y011664D01*
X003062Y011664D01*
X002712Y012014D01*
X002712Y013664D01*
X002662Y013714D01*
X002512Y013964D01*
X002512Y014964D01*
X003062Y015114D02*
X003362Y015414D01*
X003362Y015714D01*
X003512Y015964D01*
X003962Y016414D02*
X003662Y016714D01*
X003512Y016964D01*
X003962Y016964D02*
X003962Y017114D01*
X003662Y017414D01*
X002062Y017414D01*
X002062Y012414D01*
X003412Y011064D01*
X004012Y011064D01*
X003162Y011964D02*
X003962Y012764D01*
X003962Y016414D01*
X003962Y016964D02*
X005262Y016964D01*
X006712Y016814D02*
X006712Y018114D01*
X003962Y020514D02*
X003662Y020214D01*
X003512Y019964D01*
X003562Y019414D02*
X002662Y019414D01*
X002662Y019214D01*
X002512Y018964D01*
X002512Y019964D02*
X002662Y020214D01*
X002962Y020514D01*
X002962Y022014D01*
X003112Y022164D01*
X003112Y022414D01*
X003562Y022414D01*
X004962Y023814D01*
X004962Y028264D01*
X005162Y028464D01*
X005162Y029114D01*
X005312Y029264D01*
X005612Y029364D02*
X005612Y029014D01*
X005662Y028731D01*
X005262Y028164D02*
X005262Y027664D01*
X006562Y026364D01*
X006662Y026096D01*
X007062Y026364D02*
X007162Y026096D01*
X007262Y026364D01*
X009012Y028114D01*
X009562Y028114D01*
X009562Y028514D02*
X009562Y029364D01*
X009862Y030064D02*
X009862Y025914D01*
X008362Y024414D01*
X006912Y024414D01*
X006912Y022414D01*
X006362Y021864D01*
X006362Y021714D01*
X005262Y021114D02*
X003562Y019414D01*
X003962Y020514D02*
X003962Y022114D01*
X005862Y024014D01*
X005862Y024564D01*
X008262Y024564D01*
X009562Y025864D01*
X009562Y027514D01*
X009262Y027814D01*
X009262Y027314D02*
X008712Y027314D01*
X007762Y026364D01*
X007662Y026096D01*
X008062Y025814D02*
X008162Y026096D01*
X008262Y026364D01*
X008912Y027014D01*
X008062Y025814D02*
X007212Y024964D01*
X005962Y024964D01*
X005962Y024914D01*
X005562Y024514D01*
X005262Y025014D02*
X005262Y023814D01*
X003662Y022214D01*
X003512Y021964D01*
X003062Y022614D02*
X003062Y023114D01*
X003862Y023914D01*
X004662Y023914D01*
X004662Y025114D02*
X002512Y022964D01*
X003062Y022614D02*
X002662Y022214D01*
X002512Y021964D01*
X002062Y021514D02*
X002362Y021214D01*
X002512Y020964D01*
X002062Y021514D02*
X002062Y030414D01*
X004562Y030414D01*
X005612Y029364D01*
X004862Y028564D02*
X003912Y029514D01*
X002662Y029514D01*
X002662Y029714D01*
X002512Y029964D01*
X002512Y028964D02*
X002662Y028714D01*
X002662Y028514D01*
X003962Y028514D01*
X004662Y027814D01*
X004662Y027414D02*
X003462Y027414D01*
X003062Y027814D01*
X002762Y027814D01*
X002512Y027964D01*
X004662Y025164D02*
X004662Y025114D01*
X005762Y025814D02*
X005662Y026096D01*
X005762Y025814D02*
X006312Y025264D01*
X007112Y025264D01*
X007062Y026364D02*
X005562Y027864D01*
X007362Y029914D02*
X006562Y030714D01*
X006346Y030964D01*
X006112Y031214D01*
X006062Y031264D01*
X006062Y031964D01*
X005912Y032114D01*
X005912Y032214D01*
X005677Y032464D01*
X005712Y032714D01*
X005712Y033714D01*
X005677Y033964D01*
X006346Y032464D02*
X006562Y032214D01*
X006862Y031914D01*
X006862Y030814D01*
X008062Y031264D02*
X008062Y031964D01*
X007912Y032114D01*
X007912Y032214D01*
X007677Y032464D01*
X007712Y032714D01*
X007712Y033714D01*
X007677Y033964D01*
X008346Y032464D02*
X008562Y032214D01*
X009162Y031614D01*
X009162Y030664D01*
X009162Y030164D02*
X008562Y030764D01*
X008346Y030964D01*
X008112Y031214D01*
X008062Y031264D01*
X009677Y032464D02*
X009712Y032714D01*
X009712Y033714D01*
X009677Y033964D01*
X009912Y034214D01*
X009912Y034664D01*
X018912Y034664D01*
X019262Y034314D01*
X019262Y030464D01*
X017862Y029064D01*
X017762Y028674D01*
X018262Y028674D02*
X018162Y028314D01*
X017962Y028114D01*
X017962Y027814D01*
X017662Y028014D02*
X017512Y028164D01*
X017512Y029164D01*
X016562Y030114D01*
X015762Y030114D01*
X015862Y029814D02*
X015462Y029814D01*
X015862Y029814D02*
X016512Y029164D01*
X016512Y028164D01*
X016262Y027914D01*
X016262Y026254D01*
X015762Y026254D02*
X015862Y025864D01*
X016462Y025264D01*
X016462Y024514D01*
X015762Y025164D02*
X015062Y025864D01*
X015062Y027864D01*
X014962Y027964D01*
X014962Y028014D01*
X015362Y028414D01*
X014962Y027964D02*
X014362Y028564D01*
X014262Y028674D01*
X013762Y028674D02*
X013862Y028314D01*
X014062Y028114D01*
X014062Y028014D01*
X014212Y028014D01*
X013962Y027614D02*
X013812Y027614D01*
X013962Y027614D02*
X014562Y027014D01*
X014562Y024614D01*
X014462Y024514D01*
X014177Y023964D02*
X014162Y023714D01*
X014162Y021864D01*
X014262Y021764D01*
X014562Y021864D02*
X014312Y022114D01*
X014312Y023264D01*
X014462Y023414D01*
X014612Y023014D02*
X014612Y022214D01*
X014712Y022114D01*
X014562Y021864D02*
X014562Y021464D01*
X015012Y020614D02*
X015012Y023014D01*
X015762Y022814D02*
X016712Y021864D01*
X016712Y021764D01*
X016650Y021534D01*
X016712Y021864D02*
X016712Y022464D01*
X017962Y023714D01*
X018177Y023964D01*
X018162Y024214D01*
X018162Y025414D01*
X018012Y025564D01*
X018012Y026764D01*
X018712Y027464D01*
X018712Y027614D01*
X019362Y027614D01*
X019662Y027514D02*
X019062Y026914D01*
X018562Y026914D01*
X018362Y027514D02*
X019012Y028164D01*
X019012Y029164D01*
X019412Y029564D01*
X019412Y033164D01*
X019962Y033714D01*
X020177Y033964D01*
X019462Y034664D02*
X022612Y034664D01*
X022612Y034814D01*
X022712Y034914D01*
X033312Y034914D01*
X033312Y028414D01*
X033462Y028264D01*
X033462Y027264D01*
X032712Y026514D01*
X032262Y026564D02*
X033212Y025614D01*
X033212Y024164D01*
X032462Y023414D01*
X032012Y022958D01*
X031562Y022464D01*
X031112Y022014D01*
X031712Y022214D02*
X033212Y022214D01*
X033212Y011364D01*
X033262Y011364D01*
X033712Y011814D02*
X033712Y009314D01*
X034462Y008564D01*
X035362Y008564D01*
X035362Y008364D01*
X035512Y008114D01*
X035962Y007664D02*
X035662Y007364D01*
X035512Y007114D01*
X035962Y007664D02*
X035962Y011664D01*
X034462Y011664D01*
X034162Y010964D02*
X034262Y010864D01*
X034162Y010964D02*
X034162Y016314D01*
X034262Y016414D01*
X032662Y017464D02*
X032662Y013264D01*
X031112Y011714D01*
X028712Y011714D01*
X028712Y012114D02*
X031262Y012114D01*
X031262Y013114D01*
X031662Y013514D01*
X031662Y014514D01*
X031762Y014894D01*
X032262Y014894D02*
X032162Y015264D01*
X032162Y015414D01*
X030812Y015414D01*
X030712Y015514D01*
X029012Y015514D01*
X028712Y015814D02*
X029162Y016264D01*
X029162Y016364D01*
X029262Y016646D01*
X029362Y016364D01*
X029362Y016214D01*
X030512Y016214D01*
X030662Y016364D01*
X030762Y016646D01*
X030862Y016364D01*
X030862Y015614D01*
X032362Y015614D01*
X031262Y014894D02*
X031262Y013364D01*
X030762Y012864D01*
X028712Y012864D01*
X028712Y013264D02*
X030912Y013264D01*
X031112Y013464D01*
X031112Y014264D01*
X030862Y014514D01*
X030762Y014894D01*
X030262Y014894D02*
X030362Y014514D01*
X030812Y014064D01*
X030812Y013564D01*
X030512Y013864D02*
X029862Y014514D01*
X029762Y014894D01*
X028162Y016414D02*
X028162Y013364D01*
X025512Y010714D01*
X025112Y010714D02*
X023512Y010714D01*
X022462Y011064D02*
X022462Y011414D01*
X022612Y011564D01*
X022612Y015064D01*
X022762Y015214D01*
X023062Y015314D02*
X023062Y014964D01*
X022912Y014814D01*
X023062Y015314D02*
X022812Y015564D01*
X022812Y017614D01*
X022312Y017614D01*
X022083Y017676D01*
X022083Y017361D02*
X022312Y017314D01*
X022462Y017314D01*
X022462Y014214D01*
X022262Y014014D01*
X022112Y014414D02*
X022112Y015464D01*
X021712Y015864D01*
X021712Y016664D01*
X021862Y016664D01*
X022083Y016731D01*
X022083Y017046D02*
X021862Y016964D01*
X021562Y016964D01*
X021562Y015764D01*
X021862Y015464D01*
X021862Y014814D01*
X021062Y014014D01*
X020562Y013914D02*
X021562Y014914D01*
X021374Y015393D02*
X021412Y015614D01*
X021412Y017364D01*
X022083Y017991D02*
X022312Y017914D01*
X023062Y017914D01*
X023212Y018364D02*
X022312Y018364D01*
X022083Y018306D01*
X022083Y018621D02*
X021862Y018564D01*
X021362Y018564D01*
X021062Y019264D02*
X020862Y019464D01*
X019612Y019464D01*
X019612Y019414D01*
X019312Y019714D02*
X019312Y016764D01*
X018612Y016064D01*
X018512Y015764D02*
X020762Y015764D01*
X020762Y015914D01*
X021062Y015614D02*
X021059Y015393D01*
X021062Y015614D02*
X021062Y019264D01*
X021262Y019464D02*
X021262Y019814D01*
X021862Y019814D01*
X022083Y019881D01*
X022083Y020196D02*
X021862Y020214D01*
X021562Y020214D01*
X021212Y020214D02*
X021212Y020514D01*
X021862Y020514D01*
X022083Y020511D01*
X022083Y020826D02*
X022312Y020914D01*
X022462Y021064D01*
X022462Y021414D01*
X022662Y021614D01*
X023062Y021614D01*
X023062Y020564D01*
X022912Y020414D01*
X022612Y021164D02*
X022612Y019614D01*
X022312Y019614D01*
X022083Y019566D01*
X022562Y019314D02*
X023212Y019314D01*
X023212Y018364D01*
X023662Y018264D02*
X023962Y018564D01*
X023962Y019264D01*
X024098Y019464D01*
X024462Y019764D02*
X024362Y019864D01*
X023662Y019864D01*
X023662Y018664D01*
X024262Y018564D02*
X025612Y018564D01*
X025612Y015314D01*
X025962Y014964D01*
X025962Y013664D01*
X025662Y013364D01*
X025662Y013214D01*
X025512Y012964D01*
X025662Y012514D02*
X025962Y012814D01*
X025962Y013414D01*
X027062Y013414D01*
X027362Y013214D02*
X025962Y011814D01*
X023512Y011814D01*
X022462Y011064D02*
X022062Y010664D01*
X022062Y009814D01*
X022062Y003214D01*
X029162Y003214D01*
X029462Y003514D01*
X029762Y003514D01*
X030012Y003964D01*
X032262Y005314D02*
X028062Y001114D01*
X006862Y001114D01*
X006862Y001264D01*
X007362Y001564D02*
X007412Y001614D01*
X007412Y001864D01*
X007512Y002271D01*
X007412Y002664D01*
X007412Y002964D01*
X007262Y003114D01*
X007262Y006164D01*
X007412Y006314D01*
X007412Y008364D01*
X007512Y008771D01*
X007262Y008264D02*
X007112Y008114D01*
X007112Y006064D01*
X007012Y005657D01*
X007512Y005657D02*
X007612Y006064D01*
X007612Y006414D01*
X007712Y006514D01*
X007762Y006664D01*
X007762Y011614D01*
X007612Y011764D01*
X007512Y012157D01*
X007012Y012157D02*
X007112Y011764D01*
X007112Y010864D01*
X007262Y010714D01*
X007262Y008264D01*
X006812Y007914D02*
X006612Y007714D01*
X006612Y006064D01*
X006512Y005657D01*
X006262Y005114D02*
X006212Y005064D01*
X005819Y004964D01*
X006512Y004964D02*
X006512Y003864D01*
X006212Y003564D01*
X005819Y003464D01*
X005819Y002964D02*
X005412Y003064D01*
X005112Y003064D01*
X005112Y006264D01*
X003662Y007714D01*
X003512Y007964D01*
X003512Y006964D02*
X003662Y006714D01*
X004962Y005414D01*
X004962Y002664D01*
X006412Y002664D01*
X006512Y002271D01*
X005562Y001264D02*
X005562Y000964D01*
X028162Y000964D01*
X032412Y005214D01*
X032412Y009014D01*
X032962Y009564D01*
X032662Y009864D02*
X033412Y009864D01*
X033412Y008314D01*
X034362Y007364D01*
X034512Y007114D01*
X034512Y008114D02*
X034362Y008364D01*
X033562Y009164D01*
X033562Y010014D01*
X032862Y010014D01*
X032662Y010214D01*
X032662Y010364D01*
X032362Y010664D01*
X032262Y011034D01*
X031762Y011034D02*
X031862Y010664D01*
X032662Y009864D01*
X032362Y009714D02*
X032262Y009614D01*
X032262Y005314D01*
X031846Y007964D02*
X031612Y008214D01*
X031562Y008264D01*
X031562Y008364D01*
X030912Y009014D01*
X030762Y009014D01*
X030762Y011034D01*
X030262Y011034D02*
X030362Y010664D01*
X030362Y008814D01*
X030962Y008214D01*
X031177Y007964D01*
X031846Y009464D02*
X031612Y009714D01*
X031562Y009764D01*
X031562Y010464D01*
X031362Y010664D01*
X031262Y011034D01*
X029862Y010664D02*
X029862Y009714D01*
X029846Y009464D01*
X029177Y009464D02*
X028962Y009714D01*
X028862Y009814D01*
X028862Y010664D01*
X028762Y011034D01*
X029262Y011034D02*
X029212Y010664D01*
X029212Y010014D01*
X029862Y010664D02*
X029762Y011034D01*
X028012Y011314D02*
X027962Y011264D01*
X027962Y007064D01*
X026962Y006064D01*
X026662Y008114D02*
X026012Y008114D01*
X025957Y008064D01*
X025957Y008379D02*
X026012Y008464D01*
X026362Y008464D01*
X026362Y008714D01*
X026012Y008764D02*
X025957Y008694D01*
X026012Y008764D02*
X026662Y009414D01*
X026662Y009914D01*
X026877Y010164D01*
X027312Y009914D02*
X027546Y010164D01*
X027312Y009914D02*
X027312Y009664D01*
X026962Y009314D01*
X026877Y008764D02*
X026662Y008514D01*
X026662Y008114D01*
X025327Y009009D02*
X025362Y009064D01*
X025362Y009914D01*
X025346Y010164D01*
X024912Y009914D02*
X024677Y010164D01*
X024912Y009914D02*
X024912Y009114D01*
X024962Y009064D01*
X025012Y009009D01*
X024067Y008694D02*
X024012Y008714D01*
X023362Y008714D01*
X023146Y008764D01*
X022912Y009014D01*
X022912Y009214D01*
X022662Y009214D01*
X022062Y009814D01*
X022477Y008764D02*
X022712Y008514D01*
X022712Y008314D01*
X024012Y008314D01*
X024067Y008379D01*
X024067Y008064D02*
X024012Y008014D01*
X023362Y008014D01*
X023362Y007614D01*
X023146Y007364D01*
X021012Y008564D02*
X017162Y004714D01*
X017162Y004514D01*
X017012Y003964D01*
X018162Y008964D02*
X013262Y008964D01*
X013262Y009114D01*
X013162Y009504D01*
X013662Y009504D02*
X013562Y009864D01*
X013362Y010064D01*
X012912Y010064D01*
X012912Y009014D01*
X012862Y008964D01*
X012012Y008964D01*
X012012Y012314D01*
X012062Y012364D01*
X012062Y012664D01*
X011662Y013064D01*
X012562Y013314D02*
X014162Y014914D01*
X014162Y019564D01*
X015712Y019564D01*
X015941Y019566D01*
X015941Y019881D02*
X016162Y019914D01*
X016662Y019914D01*
X016962Y020214D02*
X016162Y020214D01*
X015941Y020196D01*
X015941Y020511D02*
X016162Y020464D01*
X017262Y020464D01*
X017262Y017614D01*
X016962Y017514D02*
X017262Y017214D01*
X017562Y017114D02*
X016612Y016164D01*
X016312Y016364D02*
X016312Y013164D01*
X015862Y012714D01*
X015862Y012664D01*
X016362Y012164D01*
X016662Y012214D02*
X016662Y012064D01*
X015562Y010964D01*
X014662Y010964D01*
X014662Y011924D01*
X015162Y011924D02*
X015262Y012314D01*
X015262Y012464D01*
X015612Y012464D01*
X015862Y012714D01*
X015662Y011924D02*
X015562Y011564D01*
X015262Y011264D01*
X014962Y011264D01*
X014312Y011264D02*
X014312Y011514D01*
X014262Y011564D01*
X014162Y011924D01*
X013662Y011924D02*
X013712Y011564D01*
X013712Y011214D01*
X013912Y011414D02*
X014012Y011314D01*
X014012Y010214D01*
X012812Y010214D01*
X012762Y010164D01*
X012762Y009864D01*
X012662Y009504D01*
X012312Y010164D02*
X013412Y011264D01*
X013412Y012414D01*
X014012Y013014D01*
X014312Y012814D02*
X013912Y012414D01*
X013912Y011414D01*
X014312Y010614D02*
X014312Y010214D01*
X014012Y010214D02*
X014012Y009914D01*
X014062Y009864D01*
X014162Y009504D01*
X014662Y009504D02*
X014662Y010464D01*
X017762Y010464D01*
X018612Y011314D01*
X018612Y013764D01*
X018862Y014014D01*
X019162Y014114D02*
X018912Y014364D01*
X018912Y015164D01*
X018854Y015393D01*
X018539Y015393D02*
X018462Y015164D01*
X018462Y012064D01*
X017462Y013064D01*
X017462Y013164D01*
X017412Y013214D01*
X017177Y013464D01*
X017212Y012764D02*
X016662Y012214D01*
X017362Y012514D02*
X015462Y010614D01*
X014312Y010614D01*
X014962Y010164D02*
X014962Y009964D01*
X015062Y009864D01*
X015162Y009504D01*
X013162Y011924D02*
X013262Y012314D01*
X013262Y013164D01*
X014012Y013914D01*
X014612Y014064D02*
X014612Y013614D01*
X014612Y014064D02*
X016012Y015464D01*
X015712Y016014D02*
X015941Y016101D01*
X015712Y016014D02*
X014362Y014664D01*
X014362Y019064D01*
X014562Y019264D01*
X014662Y018714D02*
X014662Y018364D01*
X015712Y018364D01*
X015941Y018306D01*
X015941Y017991D02*
X015712Y017914D01*
X014662Y017914D01*
X014662Y016414D01*
X014962Y016664D02*
X014962Y016114D01*
X014962Y016664D02*
X015712Y016664D01*
X015941Y016731D01*
X015941Y016416D02*
X016162Y016364D01*
X016312Y016364D01*
X015941Y017046D02*
X015712Y017014D01*
X014962Y017014D01*
X014962Y017414D02*
X015712Y017414D01*
X015941Y017361D01*
X015941Y017676D02*
X016162Y017764D01*
X016662Y017764D01*
X016662Y018214D01*
X016462Y018664D02*
X016162Y018664D01*
X015941Y018621D01*
X015941Y018936D02*
X015712Y019014D01*
X015462Y019014D01*
X015462Y019264D01*
X015162Y019864D02*
X015462Y020164D01*
X015462Y024814D01*
X015312Y024564D02*
X014712Y025164D01*
X014712Y027114D01*
X014412Y027414D01*
X014762Y027764D01*
X014412Y027414D02*
X013712Y028114D01*
X013362Y028114D01*
X013362Y028314D01*
X013262Y028674D01*
X012762Y028674D02*
X012862Y029064D01*
X012862Y030714D01*
X013162Y030814D02*
X012362Y031614D01*
X012362Y031214D01*
X012346Y030964D01*
X011962Y031264D02*
X011962Y031514D01*
X011962Y031264D02*
X011912Y031214D01*
X011677Y030964D01*
X012162Y030414D02*
X011862Y030114D01*
X011862Y029064D01*
X011762Y028674D01*
X011712Y028314D01*
X011712Y027714D01*
X011512Y027914D02*
X011362Y027764D01*
X011362Y026614D01*
X011262Y026254D01*
X011262Y025514D01*
X010562Y024814D01*
X010562Y023214D01*
X008812Y023214D01*
X008612Y023014D01*
X007962Y023014D01*
X008812Y022814D02*
X013662Y022814D01*
X013662Y025064D01*
X012862Y025864D01*
X012762Y026254D01*
X012862Y026614D01*
X012912Y026664D01*
X012912Y027664D01*
X013012Y027764D01*
X013012Y029214D01*
X014462Y029214D01*
X015962Y030714D01*
X016177Y030964D01*
X016062Y030414D02*
X017062Y030414D01*
X017262Y030614D01*
X017262Y033014D01*
X017962Y033714D01*
X018177Y033964D01*
X018177Y032464D02*
X017962Y032214D01*
X017412Y031664D01*
X017412Y030514D01*
X017012Y030114D01*
X017412Y030114D02*
X017412Y030164D01*
X017962Y030714D01*
X018177Y030964D01*
X019662Y031914D02*
X019662Y027514D01*
X019262Y028014D02*
X019262Y028674D01*
X018762Y028674D02*
X018662Y028314D01*
X018362Y028014D01*
X017662Y028014D02*
X017662Y026614D01*
X017762Y026254D01*
X017262Y026254D02*
X017162Y026614D01*
X016662Y027114D01*
X017212Y027114D02*
X017212Y027964D01*
X016862Y028314D01*
X016762Y028674D01*
X017262Y028674D02*
X017362Y028314D01*
X017362Y027364D01*
X017512Y027214D01*
X017512Y025664D01*
X017862Y025314D01*
X017262Y025464D02*
X016862Y025864D01*
X016762Y026254D01*
X017262Y025464D02*
X017262Y023614D01*
X017362Y023514D01*
X017662Y022014D02*
X019262Y023614D01*
X019262Y025564D01*
X019212Y025614D01*
X019512Y025764D02*
X020462Y026714D01*
X020462Y029114D01*
X021012Y029664D01*
X022612Y029664D01*
X022912Y029614D02*
X022912Y030714D01*
X022677Y030964D01*
X022762Y031214D01*
X022762Y032914D01*
X023012Y033164D01*
X023012Y034364D01*
X022762Y034714D02*
X022812Y034764D01*
X026312Y034764D01*
X026312Y033864D01*
X026512Y033664D02*
X026762Y033914D01*
X026762Y034314D01*
X027212Y034764D01*
X029612Y034764D01*
X029612Y034214D01*
X029846Y033964D01*
X029862Y033714D01*
X029862Y032714D01*
X029846Y032464D01*
X029612Y032214D01*
X029612Y032114D01*
X029462Y031964D01*
X029462Y031264D01*
X029412Y031214D01*
X029177Y030964D01*
X029562Y030664D02*
X029562Y030314D01*
X028062Y028814D01*
X028062Y026314D01*
X027462Y025714D02*
X025862Y025714D01*
X025862Y026014D01*
X025762Y026434D01*
X025662Y026364D01*
X024862Y026364D01*
X024662Y026164D01*
X024662Y025914D01*
X023512Y024764D01*
X023512Y021264D01*
X023662Y021114D01*
X023812Y021514D02*
X023912Y021614D01*
X023912Y022264D01*
X024098Y022464D01*
X024412Y022964D02*
X024412Y023714D01*
X024177Y023964D01*
X023362Y024614D02*
X023362Y016914D01*
X023462Y016814D01*
X023462Y015464D01*
X023962Y014964D01*
X024012Y015914D02*
X025362Y014564D01*
X025362Y014214D01*
X025512Y013964D01*
X025562Y014964D02*
X024462Y016064D01*
X024462Y016164D01*
X024412Y016214D01*
X024177Y016464D01*
X023312Y016564D02*
X023312Y013514D01*
X023562Y013264D01*
X024512Y012964D02*
X024662Y012714D01*
X024662Y012514D01*
X025662Y012514D01*
X027362Y013214D02*
X027362Y018214D01*
X026362Y019214D01*
X026362Y022064D01*
X026312Y022114D01*
X025662Y022914D02*
X025512Y022764D01*
X025512Y019564D01*
X025962Y019114D01*
X025962Y018214D01*
X026177Y017964D01*
X026212Y017714D01*
X026212Y017414D01*
X026512Y017114D02*
X026462Y017064D01*
X026462Y016764D01*
X026412Y016714D01*
X026177Y016464D01*
X025962Y016714D01*
X025762Y016914D01*
X025762Y019064D01*
X025362Y019464D01*
X025362Y024614D01*
X024562Y025414D01*
X023362Y024614D02*
X022662Y025314D01*
X022262Y025314D02*
X022262Y026146D01*
X022262Y025314D02*
X023062Y024514D01*
X023062Y023414D02*
X023212Y023264D01*
X023212Y019314D01*
X024462Y018964D02*
X024462Y019764D01*
X024612Y019764D02*
X024612Y020414D01*
X024412Y020614D01*
X024412Y020714D01*
X024177Y020964D01*
X024612Y019764D02*
X024712Y019664D01*
X024925Y019464D01*
X024462Y018964D02*
X025462Y018964D01*
X023112Y016764D02*
X023312Y016564D01*
X020762Y019164D02*
X019462Y017864D01*
X019462Y016514D01*
X019012Y016064D01*
X018512Y015764D02*
X018212Y016064D01*
X018212Y021314D01*
X018224Y021534D01*
X017909Y021534D02*
X017912Y021314D01*
X017912Y020764D01*
X017262Y020914D02*
X017262Y021314D01*
X017280Y021534D01*
X017594Y021534D02*
X017662Y021764D01*
X017662Y022014D01*
X018539Y021534D02*
X018512Y021314D01*
X018512Y016464D01*
X017562Y017114D02*
X017562Y017864D01*
X017912Y018214D01*
X018812Y018564D02*
X019162Y018914D01*
X019162Y019864D01*
X020612Y019864D01*
X021062Y020314D01*
X021062Y021314D01*
X021059Y021534D01*
X020744Y021534D02*
X020762Y021314D01*
X020762Y021014D01*
X020762Y020414D02*
X020062Y020414D01*
X019212Y021264D01*
X019212Y021314D01*
X019169Y021534D01*
X018854Y021534D02*
X018912Y021764D01*
X018912Y023014D01*
X019512Y023614D01*
X019512Y025764D01*
X019812Y025314D02*
X019812Y025014D01*
X019812Y025314D02*
X020612Y025314D01*
X021162Y025864D01*
X021262Y026146D01*
X021712Y026914D02*
X021712Y027664D01*
X020862Y028514D01*
X020762Y028781D01*
X020112Y029014D02*
X020112Y028364D01*
X020112Y029014D02*
X021262Y030164D01*
X021262Y032214D01*
X022412Y033364D01*
X022612Y033464D01*
X022762Y033564D01*
X022762Y034714D01*
X023512Y034364D02*
X023612Y034164D01*
X023762Y034014D01*
X023762Y031914D01*
X024462Y031214D01*
X024677Y030964D01*
X024912Y030714D01*
X024912Y030614D01*
X025062Y030464D01*
X025062Y028164D01*
X026012Y027214D01*
X026012Y025864D01*
X026962Y025864D01*
X027012Y025914D01*
X027012Y026964D01*
X027162Y027114D01*
X027162Y028064D01*
X027262Y028494D01*
X026762Y028494D02*
X026762Y030514D01*
X026962Y030714D01*
X027177Y030964D01*
X027412Y031214D01*
X027462Y031264D01*
X027462Y031964D01*
X027612Y032114D01*
X027612Y032214D01*
X027846Y032464D01*
X027862Y032714D01*
X027862Y033714D01*
X027846Y033964D01*
X028262Y033414D02*
X028962Y032714D01*
X029177Y032464D01*
X029846Y030964D02*
X029612Y030714D01*
X029562Y030664D01*
X029712Y030164D02*
X030062Y030514D01*
X031012Y030514D01*
X031012Y030664D01*
X031462Y030714D02*
X031677Y030964D01*
X031462Y030714D02*
X030812Y030064D01*
X029862Y030064D01*
X029862Y029114D01*
X029762Y028844D01*
X029362Y028564D02*
X029262Y028844D01*
X029362Y028564D02*
X029662Y028264D01*
X030412Y028264D01*
X030262Y028844D02*
X030262Y029914D01*
X031412Y029914D01*
X032062Y030564D01*
X032062Y030664D01*
X032112Y030714D01*
X032346Y030964D01*
X032612Y031414D02*
X032762Y031414D01*
X032762Y028364D01*
X032562Y028164D01*
X032912Y028114D02*
X032562Y027764D01*
X032912Y028114D02*
X032912Y031864D01*
X032562Y032214D01*
X032346Y032464D01*
X031962Y032164D02*
X031962Y032064D01*
X032612Y031414D01*
X031962Y032164D02*
X031912Y032214D01*
X031677Y032464D01*
X029712Y030164D02*
X029712Y029964D01*
X028862Y029114D01*
X028762Y028844D01*
X027962Y029614D02*
X027962Y030714D01*
X027846Y030964D01*
X027062Y030414D02*
X027062Y030114D01*
X027762Y029414D01*
X027762Y023364D01*
X028462Y024064D02*
X029012Y023514D01*
X029012Y022364D01*
X028212Y021564D01*
X028212Y020514D01*
X028762Y020940D02*
X028862Y021364D01*
X028912Y021414D01*
X028912Y021614D01*
X028062Y021814D02*
X027912Y021664D01*
X027912Y016664D01*
X028162Y016414D01*
X027862Y016114D02*
X027512Y015764D01*
X027512Y013114D01*
X025112Y010714D01*
X029212Y008914D02*
X029212Y008214D01*
X029177Y007964D01*
X032962Y010314D02*
X032962Y019714D01*
X031962Y019714D01*
X031112Y020564D01*
X032462Y017814D02*
X029012Y017814D01*
X028712Y017514D02*
X029662Y017514D01*
X030562Y017514D01*
X031162Y016914D01*
X031262Y016646D01*
X031362Y016914D01*
X031362Y017364D01*
X032362Y017364D01*
X032662Y017464D02*
X032462Y017664D01*
X032462Y017814D01*
X030162Y016914D02*
X030262Y016646D01*
X030162Y016914D02*
X029962Y017114D01*
X029962Y017214D01*
X029662Y017514D02*
X029662Y016914D01*
X029762Y016646D01*
X029012Y017214D02*
X028862Y017064D01*
X028862Y016914D01*
X028762Y016646D01*
X027762Y016614D02*
X027762Y022664D01*
X028462Y024064D02*
X028462Y027314D01*
X028362Y027414D01*
X027012Y027964D02*
X027012Y029164D01*
X027062Y029214D01*
X026162Y028914D02*
X026262Y028494D01*
X026162Y028914D02*
X026162Y029314D01*
X025362Y029314D01*
X024912Y029214D02*
X024912Y027914D01*
X025712Y027114D01*
X026362Y026864D02*
X026262Y026434D01*
X026362Y026864D02*
X026512Y027014D01*
X026512Y033664D01*
X026812Y033364D02*
X026962Y033214D01*
X026962Y032714D01*
X027177Y032464D01*
X024762Y030364D02*
X023762Y030364D01*
X023762Y031664D01*
X023112Y032314D01*
X023112Y032364D01*
X023012Y032564D01*
X020846Y030964D02*
X020612Y030714D01*
X020612Y030614D01*
X019812Y029814D01*
X019812Y026464D01*
X019662Y026314D01*
X020362Y025014D02*
X019662Y024314D01*
X019662Y022164D01*
X019612Y022114D01*
X019412Y021914D02*
X019212Y022114D01*
X019412Y021914D02*
X019412Y021764D01*
X019484Y021534D01*
X019799Y021534D02*
X019862Y021764D01*
X019862Y021864D01*
X020062Y022064D01*
X020612Y022264D02*
X020612Y023414D01*
X020612Y022264D02*
X020762Y022114D01*
X021462Y021764D02*
X021374Y021534D01*
X021462Y021764D02*
X022912Y021764D01*
X022912Y022114D01*
X022762Y021314D02*
X022612Y021164D01*
X021212Y020214D02*
X020712Y019714D01*
X019312Y019714D01*
X019012Y019614D02*
X019012Y019964D01*
X019562Y020514D01*
X019012Y019614D02*
X018862Y019464D01*
X017262Y020914D02*
X017062Y020714D01*
X016312Y020714D01*
X016312Y021014D01*
X015762Y021564D01*
X015012Y020614D02*
X014262Y019864D01*
X015162Y020314D02*
X015312Y020464D01*
X015312Y024564D01*
X015762Y025164D02*
X015762Y023464D01*
X013362Y023514D02*
X012512Y023514D01*
X012462Y023564D01*
X012462Y023664D01*
X012412Y023714D01*
X012177Y023964D01*
X010906Y023964D01*
X010962Y025614D02*
X010862Y025714D01*
X010862Y025864D01*
X010762Y026254D01*
X011762Y026254D02*
X011862Y025914D01*
X013262Y024514D01*
X013262Y024214D01*
X013362Y024114D01*
X012262Y026254D02*
X012362Y026614D01*
X012362Y026964D01*
X012612Y027214D01*
X013212Y027564D02*
X013862Y026914D01*
X012162Y027464D02*
X012162Y028314D01*
X012262Y028674D01*
X012362Y029064D01*
X012362Y029614D01*
X012562Y029814D01*
X013162Y029864D02*
X013162Y030814D01*
X013677Y030964D02*
X013912Y031214D01*
X013962Y031264D01*
X013962Y031714D01*
X014362Y032214D02*
X014346Y032464D01*
X014112Y032714D01*
X014112Y032814D01*
X013962Y032964D01*
X013962Y033664D01*
X013912Y033714D01*
X013677Y033964D01*
X011962Y033664D02*
X011962Y032964D01*
X012112Y032814D01*
X012112Y032714D01*
X012346Y032464D01*
X012362Y032214D01*
X012362Y031614D01*
X012062Y031914D02*
X011262Y031914D01*
X011262Y030014D01*
X011562Y029714D01*
X011562Y029214D01*
X011512Y029164D01*
X011512Y027914D01*
X011162Y028314D02*
X011262Y028674D01*
X011262Y029614D01*
X010762Y029314D02*
X010762Y032014D01*
X010562Y032214D01*
X010346Y032464D01*
X009912Y032214D02*
X009677Y032464D01*
X009912Y032214D02*
X009912Y032114D01*
X010062Y031964D01*
X010062Y031264D01*
X010112Y031214D01*
X010346Y030964D01*
X013162Y029864D02*
X014712Y029864D01*
X015012Y030164D02*
X014562Y030614D01*
X014562Y030714D01*
X014346Y030964D01*
X014362Y031214D01*
X014362Y032214D01*
X014862Y032614D02*
X014862Y031114D01*
X015162Y032264D02*
X015962Y032264D01*
X016177Y032464D01*
X015962Y033714D02*
X016177Y033964D01*
X015962Y033714D02*
X014862Y032614D01*
X011962Y033664D02*
X011912Y033714D01*
X011677Y033964D01*
X014712Y029214D02*
X014712Y029064D01*
X014712Y029214D02*
X016012Y029214D01*
X016162Y029064D01*
X016262Y028674D01*
X019662Y031914D02*
X019962Y032214D01*
X020177Y032464D01*
X022912Y029614D02*
X024762Y029614D01*
X024912Y029214D02*
X022012Y029214D01*
X021862Y029064D01*
X021762Y028781D01*
X026862Y027814D02*
X026862Y026864D01*
X026762Y026434D01*
X026862Y027814D02*
X027012Y027964D01*
X029862Y025514D02*
X029862Y025364D01*
X029762Y025084D01*
X029362Y024814D02*
X029262Y025084D01*
X029362Y024814D02*
X030412Y023764D01*
X029962Y023714D02*
X028862Y024814D01*
X028762Y025084D01*
X029862Y025514D02*
X030412Y026064D01*
X030412Y025664D02*
X030362Y025614D01*
X030362Y025364D01*
X030262Y025084D01*
X031262Y025084D02*
X031362Y025114D01*
X031662Y025114D01*
X031762Y025084D01*
X031862Y025364D01*
X031862Y025664D01*
X032312Y026114D01*
X032262Y026564D02*
X032262Y028844D01*
X031762Y028844D02*
X031662Y028864D01*
X031362Y028864D01*
X031262Y028844D01*
X031162Y029114D01*
X031162Y029614D01*
X030562Y029614D01*
X034162Y029764D02*
X034162Y025614D01*
X033212Y025614D01*
X034162Y025614D02*
X034312Y025614D01*
X035012Y025464D01*
X034162Y029764D02*
X034512Y030114D01*
X035012Y030464D01*
X024925Y022464D02*
X024712Y022664D01*
X024412Y022964D01*
X027762Y016614D02*
X027662Y016514D01*
X033562Y011964D02*
X033712Y011814D01*
X021012Y012614D02*
X020762Y012864D01*
X020762Y013314D01*
X020162Y013914D01*
X020162Y015164D01*
X020114Y015393D01*
X019799Y015393D02*
X019812Y015164D01*
X019812Y014914D01*
X019162Y014114D02*
X019162Y013714D01*
X019177Y013464D01*
X019412Y013214D01*
X019412Y012014D01*
X019862Y011564D01*
X019962Y011314D01*
X020362Y011164D02*
X018162Y008964D01*
X018062Y011314D02*
X018162Y011564D01*
X018462Y011864D01*
X018462Y012064D01*
X017612Y012514D02*
X017362Y012514D01*
X017862Y014464D02*
X017612Y014714D01*
X017612Y015164D01*
X017594Y015393D01*
X016962Y017514D02*
X016962Y020214D01*
X016462Y019514D02*
X016462Y018664D01*
X014362Y014664D02*
X014312Y014614D01*
X014312Y012814D01*
X013562Y014714D02*
X011862Y014714D01*
X011762Y014814D01*
X008262Y014814D01*
X008262Y009614D01*
X008512Y008771D02*
X008412Y008364D01*
X008262Y008214D01*
X008262Y003614D01*
X008612Y003264D01*
X008612Y002664D01*
X008512Y002271D01*
X009205Y002964D02*
X009612Y003064D01*
X010162Y003614D01*
X010162Y004914D01*
X009862Y005014D02*
X010112Y005264D01*
X010112Y006814D01*
X010262Y006964D01*
X009312Y006764D02*
X009312Y008514D01*
X009562Y008664D02*
X009562Y009364D01*
X009205Y009464D01*
X009762Y009164D02*
X009762Y011164D01*
X009712Y011214D01*
X008612Y011214D01*
X008612Y011764D01*
X008512Y012157D01*
X008612Y011914D01*
X010062Y013364D01*
X007662Y012864D02*
X007112Y012864D01*
X007112Y012564D01*
X007012Y012157D01*
X007262Y010714D02*
X007462Y010514D01*
X005819Y009964D02*
X005412Y010064D01*
X005412Y010114D01*
X005112Y010114D01*
X005562Y009364D02*
X005819Y009464D01*
X005562Y009364D02*
X005562Y009064D01*
X005712Y008564D02*
X006412Y008564D01*
X006512Y008771D01*
X008612Y006064D02*
X009312Y006764D01*
X008612Y006064D02*
X008512Y005657D01*
X009205Y004964D02*
X009612Y005014D01*
X009862Y005014D01*
X009762Y005314D02*
X009962Y005514D01*
X009962Y008514D01*
X010012Y008664D01*
X009562Y008664D01*
X009862Y009064D02*
X009762Y009164D01*
X010712Y008964D02*
X010712Y008164D01*
X010638Y007975D01*
X011386Y006952D02*
X011412Y006764D01*
X011412Y005214D01*
X011346Y004964D01*
X009205Y004464D02*
X008812Y004364D01*
X008612Y004164D01*
X008612Y003764D01*
X008562Y003714D01*
X003662Y013214D02*
X003062Y013814D01*
X003062Y015114D01*
X002512Y015964D02*
X002512Y016964D01*
X011712Y027014D02*
X012162Y027464D01*
X011162Y028314D02*
X010862Y028014D01*
X020462Y012914D02*
X020362Y012814D01*
X020362Y011164D01*
M02*
