G75*
G70*
%OFA0B0*%
%FSLAX24Y24*%
%IPPOS*%
%LPD*%
%AMOC8*
5,1,8,0,0,1.08239X$1,22.5*
%
%ADD10C,0.1330*%
%ADD11R,0.0300X0.0550*%
%ADD12R,0.0550X0.0300*%
%ADD13R,0.0592X0.0671*%
%ADD14C,0.0600*%
%ADD15R,0.0474X0.0474*%
%ADD16C,0.0680*%
%ADD17OC8,0.0680*%
%ADD18R,0.0340X0.0880*%
%ADD19O,0.0680X0.1280*%
%ADD20R,0.1064X0.1084*%
%ADD21R,0.0552X0.0552*%
%ADD22O,0.0740X0.1400*%
%ADD23C,0.1380*%
%ADD24R,0.0380X0.0680*%
%ADD25R,0.0316X0.0946*%
%ADD26R,0.0356X0.0671*%
%ADD27R,0.0946X0.0316*%
%ADD28R,0.0297X0.0552*%
%ADD29R,0.0330X0.0580*%
%ADD30R,0.0580X0.0330*%
%ADD31R,0.0320X0.0950*%
%ADD32O,0.1497X0.0789*%
%ADD33C,0.0208*%
%ADD34C,0.0400*%
D10*
X003012Y001964D03*
X035012Y001964D03*
X035012Y033964D03*
X003012Y033964D03*
D11*
X016650Y021534D03*
X016965Y021534D03*
X017280Y021534D03*
X017594Y021534D03*
X017909Y021534D03*
X018224Y021534D03*
X018539Y021534D03*
X018854Y021534D03*
X019169Y021534D03*
X019484Y021534D03*
X019799Y021534D03*
X020114Y021534D03*
X020429Y021534D03*
X020744Y021534D03*
X021059Y021534D03*
X021374Y021534D03*
X021374Y015393D03*
X021059Y015393D03*
X020744Y015393D03*
X020429Y015393D03*
X020114Y015393D03*
X019799Y015393D03*
X019484Y015393D03*
X019169Y015393D03*
X018854Y015393D03*
X018539Y015393D03*
X018224Y015393D03*
X017909Y015393D03*
X017594Y015393D03*
X017280Y015393D03*
X016965Y015393D03*
X016650Y015393D03*
D12*
X015941Y016101D03*
X015941Y016416D03*
X015941Y016731D03*
X015941Y017046D03*
X015941Y017361D03*
X015941Y017676D03*
X015941Y017991D03*
X015941Y018306D03*
X015941Y018621D03*
X015941Y018936D03*
X015941Y019251D03*
X015941Y019566D03*
X015941Y019881D03*
X015941Y020196D03*
X015941Y020511D03*
X015941Y020826D03*
X022083Y020826D03*
X022083Y020511D03*
X022083Y020196D03*
X022083Y019881D03*
X022083Y019566D03*
X022083Y019251D03*
X022083Y018936D03*
X022083Y018621D03*
X022083Y018306D03*
X022083Y017991D03*
X022083Y017676D03*
X022083Y017361D03*
X022083Y017046D03*
X022083Y016731D03*
X022083Y016416D03*
X022083Y016101D03*
D13*
X024177Y016464D03*
X024846Y016464D03*
X026177Y016464D03*
X026846Y016464D03*
X026846Y017964D03*
X026177Y017964D03*
X024846Y017964D03*
X024177Y017964D03*
X024177Y020964D03*
X024846Y020964D03*
X024846Y023964D03*
X024177Y023964D03*
X022846Y023964D03*
X022177Y023964D03*
X020846Y023964D03*
X020177Y023964D03*
X018846Y023964D03*
X018177Y023964D03*
X016846Y023964D03*
X016177Y023964D03*
X014846Y023964D03*
X014177Y023964D03*
X012846Y023964D03*
X012177Y023964D03*
X008846Y023964D03*
X008177Y023964D03*
X008346Y030964D03*
X007677Y030964D03*
X006346Y030964D03*
X005677Y030964D03*
X005677Y032464D03*
X006346Y032464D03*
X007677Y032464D03*
X008346Y032464D03*
X009677Y032464D03*
X010346Y032464D03*
X011677Y032464D03*
X012346Y032464D03*
X013677Y032464D03*
X014346Y032464D03*
X014346Y033964D03*
X013677Y033964D03*
X012346Y033964D03*
X011677Y033964D03*
X010346Y033964D03*
X009677Y033964D03*
X008346Y033964D03*
X007677Y033964D03*
X006346Y033964D03*
X005677Y033964D03*
X009677Y030964D03*
X010346Y030964D03*
X011677Y030964D03*
X012346Y030964D03*
X013677Y030964D03*
X014346Y030964D03*
X016177Y030964D03*
X016846Y030964D03*
X018177Y030964D03*
X018846Y030964D03*
X020177Y030964D03*
X020846Y030964D03*
X020846Y032464D03*
X020177Y032464D03*
X018846Y032464D03*
X018177Y032464D03*
X016846Y032464D03*
X016177Y032464D03*
X016177Y033964D03*
X016846Y033964D03*
X018177Y033964D03*
X018846Y033964D03*
X020177Y033964D03*
X020846Y033964D03*
X022677Y030964D03*
X023346Y030964D03*
X024677Y030964D03*
X025346Y030964D03*
X027177Y030964D03*
X027846Y030964D03*
X029177Y030964D03*
X029846Y030964D03*
X029846Y032464D03*
X029177Y032464D03*
X027846Y032464D03*
X027177Y032464D03*
X027177Y033964D03*
X027846Y033964D03*
X029177Y033964D03*
X029846Y033964D03*
X031677Y032464D03*
X032346Y032464D03*
X032346Y030964D03*
X031677Y030964D03*
X021846Y013464D03*
X021177Y013464D03*
X019846Y013464D03*
X019177Y013464D03*
X017846Y013464D03*
X017177Y013464D03*
X015846Y013464D03*
X015177Y013464D03*
X011346Y011464D03*
X010677Y011464D03*
X010677Y009964D03*
X011346Y009964D03*
X011346Y004964D03*
X010677Y004964D03*
X010677Y003464D03*
X011346Y003464D03*
X011346Y001964D03*
X010677Y001964D03*
X018677Y005464D03*
X019346Y005464D03*
X022477Y007364D03*
X023146Y007364D03*
X023146Y008764D03*
X022477Y008764D03*
X022477Y010164D03*
X023146Y010164D03*
X024677Y010164D03*
X025346Y010164D03*
X026877Y010164D03*
X027546Y010164D03*
X027546Y008764D03*
X026877Y008764D03*
X026877Y007464D03*
X027546Y007464D03*
X029177Y007964D03*
X029846Y007964D03*
X031177Y007964D03*
X031846Y007964D03*
X031846Y009464D03*
X031177Y009464D03*
X029846Y009464D03*
X029177Y009464D03*
X026146Y005464D03*
X025477Y005464D03*
D14*
X019962Y011314D03*
X018062Y011314D03*
D15*
X010906Y023964D03*
X010118Y023964D03*
D16*
X024512Y012964D03*
D17*
X024512Y013964D03*
X025512Y013964D03*
X026512Y013964D03*
X026512Y012964D03*
X025512Y012964D03*
X034512Y010114D03*
X035512Y010114D03*
X035512Y009114D03*
X034512Y009114D03*
X034512Y008114D03*
X035512Y008114D03*
X035512Y007114D03*
X035512Y006114D03*
X034512Y006114D03*
X034512Y007114D03*
X003512Y006964D03*
X003512Y007964D03*
X003512Y008964D03*
X003512Y009964D03*
X002512Y009964D03*
X002512Y008964D03*
X002512Y007964D03*
X002512Y006964D03*
X002512Y005964D03*
X003512Y005964D03*
X003512Y013964D03*
X003512Y014964D03*
X003512Y015964D03*
X003512Y016964D03*
X003512Y017964D03*
X003512Y018964D03*
X003512Y019964D03*
X003512Y020964D03*
X003512Y021964D03*
X003512Y022964D03*
X002512Y022964D03*
X002512Y021964D03*
X002512Y020964D03*
X002512Y019964D03*
X002512Y018964D03*
X002512Y017964D03*
X002512Y016964D03*
X002512Y015964D03*
X002512Y014964D03*
X002512Y013964D03*
X002512Y026964D03*
X002512Y027964D03*
X002512Y028964D03*
X002512Y029964D03*
X003512Y029964D03*
X003512Y028964D03*
X003512Y027964D03*
X003512Y026964D03*
D18*
X010762Y026254D03*
X011262Y026254D03*
X011762Y026254D03*
X012262Y026254D03*
X012762Y026254D03*
X013262Y026254D03*
X013762Y026254D03*
X014262Y026254D03*
X015762Y026254D03*
X016262Y026254D03*
X016762Y026254D03*
X017262Y026254D03*
X017762Y026254D03*
X018262Y026254D03*
X018762Y026254D03*
X019262Y026254D03*
X019262Y028674D03*
X018762Y028674D03*
X018262Y028674D03*
X017762Y028674D03*
X017262Y028674D03*
X016762Y028674D03*
X016262Y028674D03*
X015762Y028674D03*
X014262Y028674D03*
X013762Y028674D03*
X013262Y028674D03*
X012762Y028674D03*
X012262Y028674D03*
X011762Y028674D03*
X011262Y028674D03*
X010762Y028674D03*
X012662Y011924D03*
X013162Y011924D03*
X013662Y011924D03*
X014162Y011924D03*
X014662Y011924D03*
X015162Y011924D03*
X015662Y011924D03*
X015662Y009504D03*
X015162Y009504D03*
X014662Y009504D03*
X014162Y009504D03*
X013662Y009504D03*
X013162Y009504D03*
X012662Y009504D03*
X028762Y011034D03*
X029262Y011034D03*
X029762Y011034D03*
X030262Y011034D03*
X030762Y011034D03*
X031262Y011034D03*
X031762Y011034D03*
X032262Y011034D03*
X032262Y014894D03*
X031762Y014894D03*
X031262Y014894D03*
X030762Y014894D03*
X030262Y014894D03*
X029762Y014894D03*
X029262Y014894D03*
X028762Y014894D03*
D19*
X029012Y003964D03*
X030012Y003964D03*
X028012Y003964D03*
X023512Y003964D03*
X022512Y003964D03*
X021512Y003964D03*
X017012Y003964D03*
X016012Y003964D03*
X015012Y003964D03*
D20*
X006012Y013970D03*
X006012Y015958D03*
X006012Y017470D03*
X006012Y019458D03*
X006012Y020970D03*
X006012Y022958D03*
X027012Y022958D03*
X027012Y020970D03*
X032012Y020970D03*
X032012Y022958D03*
D21*
X024925Y022464D03*
X024098Y022464D03*
X024098Y019464D03*
X024925Y019464D03*
D22*
X011562Y014014D03*
X010562Y014014D03*
X009562Y014014D03*
D23*
X010562Y019914D03*
D24*
X028762Y025084D03*
X029262Y025084D03*
X029762Y025084D03*
X030262Y025084D03*
X030762Y025084D03*
X031262Y025084D03*
X031762Y025084D03*
X032262Y025084D03*
X032262Y028844D03*
X031762Y028844D03*
X031262Y028844D03*
X030762Y028844D03*
X030262Y028844D03*
X029762Y028844D03*
X029262Y028844D03*
X028762Y028844D03*
D25*
X028762Y022987D03*
X029262Y022987D03*
X029762Y022987D03*
X030262Y022987D03*
X030262Y020940D03*
X029762Y020940D03*
X029262Y020940D03*
X028762Y020940D03*
X008512Y012157D03*
X008012Y012157D03*
X007512Y012157D03*
X007012Y012157D03*
X006512Y012157D03*
X006512Y008771D03*
X007012Y008771D03*
X007512Y008771D03*
X008012Y008771D03*
X008512Y008771D03*
X008512Y005657D03*
X008012Y005657D03*
X007512Y005657D03*
X007012Y005657D03*
X006512Y005657D03*
X006512Y002271D03*
X007012Y002271D03*
X007512Y002271D03*
X008012Y002271D03*
X008512Y002271D03*
D26*
X028762Y016646D03*
X029262Y016646D03*
X029762Y016646D03*
X030262Y016646D03*
X030762Y016646D03*
X031262Y016646D03*
X031762Y016646D03*
X032262Y016646D03*
X032262Y019281D03*
X031762Y019281D03*
X031262Y019281D03*
X030762Y019281D03*
X030262Y019281D03*
X029762Y019281D03*
X029262Y019281D03*
X028762Y019281D03*
X024262Y026146D03*
X023762Y026146D03*
X023262Y026146D03*
X022762Y026146D03*
X022262Y026146D03*
X021762Y026146D03*
X021262Y026146D03*
X020762Y026146D03*
X020762Y028781D03*
X021262Y028781D03*
X021762Y028781D03*
X022262Y028781D03*
X022762Y028781D03*
X023262Y028781D03*
X023762Y028781D03*
X024262Y028781D03*
X009162Y028731D03*
X008662Y028731D03*
X008162Y028731D03*
X007662Y028731D03*
X007162Y028731D03*
X006662Y028731D03*
X006162Y028731D03*
X005662Y028731D03*
X005662Y026096D03*
X006162Y026096D03*
X006662Y026096D03*
X007162Y026096D03*
X007662Y026096D03*
X008162Y026096D03*
X008662Y026096D03*
X009162Y026096D03*
D27*
X009205Y011464D03*
X009205Y010964D03*
X009205Y010464D03*
X009205Y009964D03*
X009205Y009464D03*
X005819Y009464D03*
X005819Y009964D03*
X005819Y010464D03*
X005819Y010964D03*
X005819Y011464D03*
X005819Y004964D03*
X005819Y004464D03*
X005819Y003964D03*
X005819Y003464D03*
X005819Y002964D03*
X009205Y002964D03*
X009205Y003464D03*
X009205Y003964D03*
X009205Y004464D03*
X009205Y004964D03*
D28*
X010638Y006952D03*
X011012Y006952D03*
X011386Y006952D03*
X011386Y007975D03*
X010638Y007975D03*
D29*
X023012Y032564D03*
X023512Y032564D03*
X024012Y032564D03*
X024012Y034364D03*
X023512Y034364D03*
X023012Y034364D03*
D30*
X022612Y033464D03*
X024412Y033464D03*
D31*
X025762Y028494D03*
X026262Y028494D03*
X026762Y028494D03*
X027262Y028494D03*
X027262Y026434D03*
X026762Y026434D03*
X026262Y026434D03*
X025762Y026434D03*
D32*
X035012Y025464D03*
X035012Y024464D03*
X035012Y023464D03*
X035012Y022464D03*
X035012Y019964D03*
X035012Y018964D03*
X035012Y017964D03*
X035012Y016964D03*
X035012Y015964D03*
X035012Y014964D03*
X035012Y013964D03*
X035012Y027464D03*
X035012Y028464D03*
X035012Y029464D03*
X035012Y030464D03*
D33*
X025676Y008975D02*
X025608Y008975D01*
X025608Y009043D01*
X025676Y009043D01*
X025676Y008975D01*
X025361Y008975D02*
X025293Y008975D01*
X025293Y009043D01*
X025361Y009043D01*
X025361Y008975D01*
X025361Y008660D02*
X025293Y008660D01*
X025293Y008728D01*
X025361Y008728D01*
X025361Y008660D01*
X025046Y008660D02*
X024978Y008660D01*
X024978Y008728D01*
X025046Y008728D01*
X025046Y008660D01*
X025046Y008975D02*
X024978Y008975D01*
X024978Y009043D01*
X025046Y009043D01*
X025046Y008975D01*
X024731Y008975D02*
X024663Y008975D01*
X024663Y009043D01*
X024731Y009043D01*
X024731Y008975D01*
X024731Y008660D02*
X024663Y008660D01*
X024663Y008728D01*
X024731Y008728D01*
X024731Y008660D01*
X024416Y008345D02*
X024348Y008345D01*
X024348Y008413D01*
X024416Y008413D01*
X024416Y008345D01*
X024416Y008030D02*
X024348Y008030D01*
X024348Y008098D01*
X024416Y008098D01*
X024416Y008030D01*
X024416Y007715D02*
X024348Y007715D01*
X024348Y007783D01*
X024416Y007783D01*
X024416Y007715D01*
X024101Y007715D02*
X024033Y007715D01*
X024033Y007783D01*
X024101Y007783D01*
X024101Y007715D01*
X024101Y007400D02*
X024033Y007400D01*
X024033Y007468D01*
X024101Y007468D01*
X024101Y007400D01*
X024348Y007085D02*
X024416Y007085D01*
X024348Y007085D02*
X024348Y007153D01*
X024416Y007153D01*
X024416Y007085D01*
X024663Y007085D02*
X024731Y007085D01*
X024663Y007085D02*
X024663Y007153D01*
X024731Y007153D01*
X024731Y007085D01*
X024978Y007085D02*
X025046Y007085D01*
X024978Y007085D02*
X024978Y007153D01*
X025046Y007153D01*
X025046Y007085D01*
X025293Y007085D02*
X025361Y007085D01*
X025293Y007085D02*
X025293Y007153D01*
X025361Y007153D01*
X025361Y007085D01*
X025608Y007085D02*
X025676Y007085D01*
X025608Y007085D02*
X025608Y007153D01*
X025676Y007153D01*
X025676Y007085D01*
X025923Y007400D02*
X025991Y007400D01*
X025923Y007400D02*
X025923Y007468D01*
X025991Y007468D01*
X025991Y007400D01*
X025991Y007715D02*
X025923Y007715D01*
X025923Y007783D01*
X025991Y007783D01*
X025991Y007715D01*
X025991Y008030D02*
X025923Y008030D01*
X025923Y008098D01*
X025991Y008098D01*
X025991Y008030D01*
X025991Y008345D02*
X025923Y008345D01*
X025923Y008413D01*
X025991Y008413D01*
X025991Y008345D01*
X025991Y008660D02*
X025923Y008660D01*
X025923Y008728D01*
X025991Y008728D01*
X025991Y008660D01*
X025676Y008345D02*
X025608Y008345D01*
X025608Y008413D01*
X025676Y008413D01*
X025676Y008345D01*
X025676Y008030D02*
X025608Y008030D01*
X025608Y008098D01*
X025676Y008098D01*
X025676Y008030D01*
X025676Y007715D02*
X025608Y007715D01*
X025608Y007783D01*
X025676Y007783D01*
X025676Y007715D01*
X025361Y007400D02*
X025293Y007400D01*
X025293Y007468D01*
X025361Y007468D01*
X025361Y007400D01*
X025046Y007400D02*
X024978Y007400D01*
X024978Y007468D01*
X025046Y007468D01*
X025046Y007400D01*
X024731Y007400D02*
X024663Y007400D01*
X024663Y007468D01*
X024731Y007468D01*
X024731Y007400D01*
X024101Y008030D02*
X024033Y008030D01*
X024033Y008098D01*
X024101Y008098D01*
X024101Y008030D01*
X024101Y008345D02*
X024033Y008345D01*
X024033Y008413D01*
X024101Y008413D01*
X024101Y008345D01*
X024101Y008660D02*
X024033Y008660D01*
X024033Y008728D01*
X024101Y008728D01*
X024101Y008660D01*
X024348Y008975D02*
X024416Y008975D01*
X024348Y008975D02*
X024348Y009043D01*
X024416Y009043D01*
X024416Y008975D01*
D34*
X023512Y010714D03*
X022762Y011314D03*
X022312Y011664D03*
X022512Y010714D03*
X023512Y011814D03*
X022912Y012714D03*
X023562Y013264D03*
X022262Y014014D03*
X021862Y014014D03*
X022112Y014414D03*
X021562Y014914D03*
X021062Y014014D03*
X020562Y013914D03*
X019862Y014014D03*
X019812Y014914D03*
X018862Y014014D03*
X018162Y014164D03*
X017862Y014464D03*
X017912Y014864D03*
X018612Y016064D03*
X018512Y016464D03*
X019012Y016064D03*
X020762Y015914D03*
X021412Y017364D03*
X021362Y018564D03*
X020762Y019164D03*
X021262Y019464D03*
X021562Y020214D03*
X020762Y020414D03*
X020762Y021014D03*
X020112Y021014D03*
X019562Y020514D03*
X019612Y019414D03*
X018862Y019464D03*
X018812Y018564D03*
X017912Y018214D03*
X017262Y017614D03*
X017262Y017214D03*
X016662Y018214D03*
X015462Y019264D03*
X015162Y019864D03*
X015162Y020314D03*
X014262Y019864D03*
X014562Y019264D03*
X014662Y018714D03*
X014962Y017414D03*
X014962Y017014D03*
X014662Y016414D03*
X014962Y016114D03*
X016012Y015464D03*
X016612Y016164D03*
X016012Y014814D03*
X015862Y014014D03*
X014612Y013614D03*
X014012Y013914D03*
X014012Y013014D03*
X012562Y013314D03*
X011662Y013064D03*
X010162Y012464D03*
X010062Y013364D03*
X007662Y012864D03*
X006012Y012464D03*
X005612Y013214D03*
X005112Y013964D03*
X005262Y014514D03*
X006012Y014714D03*
X006362Y015064D03*
X006962Y015464D03*
X005262Y016964D03*
X006712Y018114D03*
X005262Y021114D03*
X006362Y021714D03*
X006012Y022214D03*
X007262Y022464D03*
X007962Y023014D03*
X008812Y022814D03*
X009362Y023964D03*
X010962Y025614D03*
X011712Y027014D03*
X011712Y027714D03*
X010862Y028014D03*
X009562Y028114D03*
X009562Y028514D03*
X009262Y027814D03*
X009262Y027314D03*
X008912Y027014D03*
X007412Y027064D03*
X007412Y027714D03*
X007012Y029514D03*
X007362Y029914D03*
X006512Y030014D03*
X006862Y030814D03*
X005312Y029264D03*
X004862Y028564D03*
X005262Y028164D03*
X005562Y027864D03*
X004662Y027814D03*
X004662Y027414D03*
X004112Y025964D03*
X004662Y025164D03*
X005262Y025014D03*
X005562Y024514D03*
X004662Y023914D03*
X003512Y025164D03*
X007112Y025264D03*
X009562Y029364D03*
X009862Y030064D03*
X009162Y030164D03*
X009162Y030664D03*
X010762Y029314D03*
X011262Y029614D03*
X012162Y030414D03*
X012562Y029814D03*
X012862Y030714D03*
X011962Y031514D03*
X012062Y031914D03*
X013962Y031714D03*
X014862Y031114D03*
X015012Y030164D03*
X014712Y029864D03*
X015462Y029814D03*
X015762Y030114D03*
X016062Y030414D03*
X017012Y030114D03*
X017412Y030114D03*
X016912Y031714D03*
X015162Y032264D03*
X014712Y029064D03*
X015362Y028414D03*
X014762Y027764D03*
X014212Y028014D03*
X013812Y027614D03*
X013212Y027564D03*
X012612Y027214D03*
X013862Y026914D03*
X014262Y026914D03*
X014012Y024964D03*
X014462Y024514D03*
X014862Y024514D03*
X015462Y024814D03*
X016462Y024514D03*
X016862Y024514D03*
X017862Y025314D03*
X018762Y024514D03*
X019812Y025014D03*
X020362Y025014D03*
X020462Y025664D03*
X019662Y026314D03*
X019462Y026914D03*
X020112Y026864D03*
X020112Y027564D03*
X020762Y027514D03*
X020112Y028364D03*
X019262Y028014D03*
X019362Y027614D03*
X018362Y027514D03*
X018362Y028014D03*
X017962Y027814D03*
X017212Y027114D03*
X016662Y027114D03*
X018562Y026914D03*
X019212Y025614D03*
X020612Y023414D03*
X019962Y023064D03*
X020062Y022064D03*
X019612Y022114D03*
X019212Y022114D03*
X020762Y022114D03*
X021312Y022114D03*
X021312Y022964D03*
X021362Y023414D03*
X021862Y023414D03*
X021612Y024114D03*
X022662Y025314D03*
X023062Y024514D03*
X023062Y023414D03*
X022912Y022114D03*
X022762Y021314D03*
X022912Y020414D03*
X023662Y021114D03*
X023812Y021514D03*
X024862Y021514D03*
X024912Y020314D03*
X025462Y018964D03*
X024262Y018564D03*
X023662Y018664D03*
X023662Y018264D03*
X023062Y017914D03*
X023112Y016764D03*
X024012Y015914D03*
X023962Y014964D03*
X022912Y014814D03*
X022912Y014414D03*
X022762Y015214D03*
X024862Y017214D03*
X025312Y015964D03*
X026112Y015914D03*
X025562Y014964D03*
X027062Y013414D03*
X028712Y013264D03*
X028712Y012864D03*
X028712Y012114D03*
X028712Y011714D03*
X028012Y011314D03*
X029212Y010014D03*
X029212Y008914D03*
X027562Y008114D03*
X026962Y009314D03*
X026362Y008714D03*
X025512Y010714D03*
X021862Y012614D03*
X021012Y012614D03*
X020462Y012914D03*
X019862Y012914D03*
X018912Y012914D03*
X018062Y012914D03*
X017612Y012514D03*
X017212Y012764D03*
X016362Y012164D03*
X015662Y012914D03*
X014962Y011264D03*
X014312Y011264D03*
X013712Y011214D03*
X014312Y010214D03*
X014962Y010164D03*
X016062Y009514D03*
X016012Y007064D03*
X016012Y005964D03*
X019862Y005464D03*
X021012Y008564D03*
X018812Y010114D03*
X013562Y014714D03*
X010262Y010514D03*
X009862Y009064D03*
X010012Y008664D03*
X009312Y008514D03*
X008512Y009464D03*
X007462Y010514D03*
X006962Y009464D03*
X005712Y008564D03*
X005562Y009064D03*
X005112Y010114D03*
X005112Y010514D03*
X004012Y011064D03*
X003162Y011964D03*
X003662Y013214D03*
X006812Y007914D03*
X007712Y006514D03*
X006512Y004964D03*
X005962Y005514D03*
X007012Y002964D03*
X008312Y003164D03*
X008562Y003714D03*
X008912Y002564D03*
X007362Y001564D03*
X006862Y001264D03*
X006562Y001564D03*
X005562Y001264D03*
X009762Y005314D03*
X010162Y004914D03*
X010262Y006964D03*
X010712Y008964D03*
X012312Y010164D03*
X011362Y002714D03*
X022762Y002264D03*
X023062Y002564D03*
X026962Y006064D03*
X027862Y002914D03*
X032962Y009564D03*
X032362Y009714D03*
X032962Y010314D03*
X033262Y011364D03*
X033562Y011964D03*
X034462Y011664D03*
X034262Y010864D03*
X031212Y010014D03*
X030812Y013564D03*
X030512Y013864D03*
X029262Y014214D03*
X029012Y015514D03*
X028712Y015814D03*
X027862Y016114D03*
X027662Y016514D03*
X026512Y017114D03*
X026212Y017414D03*
X028712Y017514D03*
X029012Y017814D03*
X029012Y017214D03*
X029962Y017214D03*
X032362Y017364D03*
X032662Y018014D03*
X033512Y018464D03*
X034262Y016414D03*
X033512Y014964D03*
X032362Y015614D03*
X029762Y020064D03*
X031112Y020564D03*
X031362Y021664D03*
X031112Y022014D03*
X031712Y022214D03*
X032212Y021714D03*
X033712Y023064D03*
X033712Y024864D03*
X032662Y025114D03*
X032312Y026114D03*
X032712Y026514D03*
X032562Y027764D03*
X032562Y028164D03*
X033812Y028064D03*
X033812Y028864D03*
X033812Y029964D03*
X031012Y030664D03*
X030562Y029614D03*
X030412Y028264D03*
X028362Y028314D03*
X028362Y027414D03*
X027462Y027114D03*
X028062Y026314D03*
X027462Y025714D03*
X026012Y025364D03*
X026012Y024464D03*
X024862Y024514D03*
X024562Y025414D03*
X025712Y027114D03*
X025362Y028364D03*
X024612Y028314D03*
X025362Y029314D03*
X024762Y029614D03*
X024762Y030364D03*
X024612Y031864D03*
X023362Y031514D03*
X021762Y031764D03*
X021762Y031014D03*
X020412Y031714D03*
X022612Y029664D03*
X021262Y029364D03*
X021712Y026914D03*
X025662Y022914D03*
X025812Y022514D03*
X026312Y022114D03*
X027012Y022114D03*
X027762Y022664D03*
X027762Y023364D03*
X028062Y021814D03*
X028912Y021614D03*
X028212Y020514D03*
X027012Y020214D03*
X029962Y023714D03*
X030412Y023764D03*
X030412Y025664D03*
X030412Y026064D03*
X027062Y029214D03*
X027962Y029614D03*
X027062Y030414D03*
X026812Y033364D03*
X026312Y033864D03*
X028262Y033414D03*
X028262Y034464D03*
X019462Y034664D03*
X012862Y024514D03*
X013362Y024114D03*
X013362Y023514D03*
X014462Y023414D03*
X014612Y023014D03*
X015012Y023014D03*
X015762Y022814D03*
X015762Y023464D03*
X016912Y023064D03*
X017362Y023514D03*
X015762Y021564D03*
X014712Y022114D03*
X014262Y021764D03*
X014562Y021464D03*
X016662Y019914D03*
X016462Y019514D03*
X017912Y020764D03*
X022562Y019314D03*
X006862Y033714D03*
M02*
