%
M48
M72
T01C0.1250
T02C0.0320
T03C0.0400
T04C0.0440
T05C0.1300
T06C0.0472
T07C0.0160
%
T01
X301Y196
X3501Y196
X3501Y3396
X301Y3396
T02
X1806Y1131
X1996Y1131
T03
X2451Y1296
X2451Y1396
X2551Y1396
X2551Y1296
X2651Y1296
X2651Y1396
X3451Y1011
X3451Y911
X3451Y811
X3451Y711
X3451Y611
X3551Y611
X3551Y711
X3551Y811
X3551Y911
X3551Y1011
X3001Y396
X2901Y396
X2801Y396
X2351Y396
X2251Y396
X2151Y396
X1701Y396
X1601Y396
X1501Y396
X351Y596
X251Y596
X251Y696
X351Y696
X351Y796
X351Y896
X251Y896
X251Y796
X251Y996
X351Y996
X351Y1396
X251Y1396
X251Y1496
X351Y1496
X351Y1596
X251Y1596
X251Y1696
X251Y1796
X351Y1796
X351Y1696
X351Y1896
X251Y1896
X251Y1996
X351Y1996
X351Y2096
X251Y2096
X251Y2196
X251Y2296
X351Y2296
X351Y2196
X351Y2696
X351Y2796
X251Y2796
X251Y2696
X251Y2896
X351Y2896
X351Y2996
X251Y2996
T04
X956Y1401
X1056Y1401
X1156Y1401
T05
X1056Y1991
T06
X3501Y1996
X3501Y1896
X3501Y1796
X3501Y1696
X3501Y1596
X3501Y1496
X3501Y1396
X3501Y2246
X3501Y2346
X3501Y2446
X3501Y2546
X3501Y2746
X3501Y2846
X3501Y2946
X3501Y3046
T07
X3381Y2996
X3381Y2886
X3381Y2806
X3256Y2816
X3256Y2776
X3271Y2651
X3231Y2611
X3266Y2511
X3371Y2486
X3371Y2306
X3221Y2171
X3171Y2221
X3136Y2166
X3111Y2201
X3111Y2056
X2976Y2006
X2821Y2051
X2701Y2021
X2806Y2181
X2701Y2211
X2631Y2211
X2581Y2251
X2566Y2291
X2486Y2151
X2381Y2151
X2366Y2111
X2291Y2041
X2276Y2131
X2291Y2211
X2306Y2341
X2306Y2451
X2266Y2531
X2161Y2411
X2136Y2341
X2186Y2341
X2131Y2296
X2061Y2341
X1996Y2306
X2006Y2206
X1961Y2211
X1921Y2211
X2011Y2101
X1956Y2051
X1961Y1941
X1886Y1946
X1881Y1856
X1791Y1821
X1726Y1761
X1726Y1721
X1666Y1821
X1546Y1926
X1516Y1986
X1516Y2031
X1426Y1986
X1456Y1926
X1466Y1871
X1496Y1741
X1496Y1701
X1466Y1641
X1496Y1611
X1601Y1546
X1661Y1616
X1601Y1481
X1586Y1401
X1566Y1291
X1636Y1216
X1721Y1276
X1761Y1251
X1806Y1291
X1891Y1291
X1986Y1291
X2046Y1291
X2101Y1261
X2186Y1261
X2231Y1166
X2276Y1131
X2251Y1071
X2351Y1071
X2351Y1181
X2291Y1271
X2356Y1326
X2226Y1401
X2186Y1401
X2211Y1441
X2156Y1491
X2106Y1401
X2056Y1391
X1986Y1401
X1981Y1491
X1886Y1401
X1816Y1416
X1786Y1446
X1791Y1486
X1861Y1606
X1851Y1646
X1901Y1606
X2076Y1591
X2141Y1736
X2136Y1856
X2076Y1916
X2126Y1946
X2156Y2021
X2076Y2041
X2076Y2101
X2076Y2211
X2131Y2211
X1876Y2451
X1981Y2501
X2036Y2501
X2046Y2566
X1966Y2631
X1946Y2691
X2011Y2686
X2011Y2756
X2076Y2751
X2011Y2836
X1926Y2801
X1936Y2761
X1836Y2751
X1796Y2781
X1836Y2801
X1856Y2691
X1721Y2711
X1666Y2711
X1536Y2841
X1476Y2776
X1421Y2801
X1381Y2761
X1321Y2756
X1261Y2721
X1171Y2701
X1171Y2771
X1086Y2801
X956Y2811
X956Y2851
X926Y2781
X926Y2731
X891Y2701
X741Y2706
X741Y2771
X701Y2951
X736Y2991
X651Y3001
X686Y3081
X531Y2926
X486Y2856
X526Y2816
X556Y2786
X466Y2781
X466Y2741
X411Y2596
X466Y2516
X526Y2501
X556Y2451
X466Y2391
X351Y2516
X711Y2526
X796Y2301
X726Y2246
X636Y2171
X601Y2221
X526Y2111
X671Y1811
X526Y1696
X696Y1546
X636Y1506
X601Y1471
X526Y1451
X511Y1396
X561Y1321
X601Y1246
X766Y1286
X746Y1051
X696Y946
X571Y856
X556Y906
X511Y1011
X511Y1051
X401Y1106
X316Y1196
X366Y1321
X851Y946
X931Y851
X1001Y866
X986Y906
X1071Y896
X1231Y1016
X1371Y1121
X1431Y1126
X1496Y1126
X1496Y1016
X1431Y1021
X1606Y951
X1601Y706
X1601Y596
X1986Y546
X2101Y856
X1881Y1011
X1461Y1361
X1401Y1391
X1401Y1301
X1256Y1331
X1166Y1306
X1016Y1246
X1006Y1336
X1026Y1051
X681Y791
X771Y651
X651Y496
X596Y551
X701Y296
X831Y316
X856Y371
X891Y256
X736Y156
X686Y126
X656Y156
X556Y126
X976Y531
X1016Y491
X1026Y696
X1136Y271
X2276Y226
X2306Y256
X2696Y606
X2756Y811
X2636Y871
X2696Y931
X2551Y1071
X2801Y1131
X2871Y1171
X2871Y1211
X2871Y1286
X2871Y1326
X2926Y1421
X3051Y1386
X3081Y1356
X3236Y1561
X3351Y1496
X3426Y1641
X3236Y1736
X3266Y1801
X3351Y1846
X2996Y1721
X2901Y1721
X2871Y1751
X2901Y1781
X2766Y1651
X2786Y1611
X2871Y1581
X2901Y1551
X2706Y1341
X2556Y1496
X2531Y1596
X2611Y1591
X2651Y1711
X2621Y1741
X2486Y1721
X2401Y1591
X2396Y1496
X2291Y1481
X2291Y1441
X2276Y1521
X2311Y1676
X2306Y1791
X2366Y1826
X2366Y1866
X2426Y1856
X2546Y1896
X2491Y2031
X2256Y1931
X1791Y2076
X1666Y1991
X1646Y1951
X1456Y2146
X1426Y2176
X1471Y2211
X1461Y2301
X1501Y2301
X1446Y2341
X1336Y2351
X1336Y2411
X1286Y2451
X1401Y2496
X1446Y2451
X1486Y2451
X1546Y2481
X1646Y2451
X1686Y2451
X1786Y2531
X1921Y2561
X1736Y2351
X1691Y2306
X1576Y2281
X1576Y2346
X1576Y2156
X1096Y2561
X936Y2396
X881Y2281
X1386Y2691
X1426Y2691
X1471Y2906
X1546Y2981
X1576Y3011
X1606Y3041
X1701Y3011
X1741Y3011
X1691Y3171
X1516Y3226
X1486Y3111
X1501Y3016
X1471Y2986
X1396Y3171
X1286Y3071
X1216Y3041
X1256Y2981
X1126Y2961
X1076Y2931
X986Y3006
X916Y3016
X916Y3066
X956Y2936
X1196Y3151
X1206Y3191
X686Y3371
X1946Y3466
X2041Y3171
X2176Y3176
X2176Y3101
X2261Y2966
X2126Y2936
X2336Y3151
X2461Y3186
X2476Y3036
X2476Y2961
X2536Y2931
X2536Y2836
X2461Y2831
X2571Y2711
X2746Y2711
X2836Y2741
X2836Y2831
X2706Y2921
X2796Y2961
X2706Y3041
X2681Y3336
X2631Y3386
X2826Y3341
X2826Y3446
X3101Y3066
X3056Y2961
X3041Y2826
X3041Y2606
X3041Y2566
X3041Y2376
X2996Y2371
X2776Y2336
X2776Y2266
X2891Y2161
X2601Y2446
X2601Y2536
X2486Y2451
X2456Y2541
X2171Y2691
X2746Y2571
X2806Y2631
X1356Y1471
X2786Y291
X2921Y891
X2921Y1001
X3121Y1001
X3236Y971
X3296Y956
X3296Y1031
X3326Y1136
X3356Y1196
X3446Y1166
X3426Y1086
M30
