G75*
G70*
%OFA0B0*%
%FSLAX24Y24*%
%IPPOS*%
%LPD*%
%AMOC8*
5,1,8,0,0,1.08239X$1,22.5*
%
%ADD10C,0.0000*%
D10*
X001008Y041008D02*
X001008Y001008D01*
X041008Y001008D01*
X041008Y041008D01*
X001008Y041008D01*
X001883Y039508D02*
X001886Y039565D01*
X001893Y039621D01*
X001906Y039677D01*
X001924Y039731D01*
X001947Y039783D01*
X001974Y039833D01*
X002006Y039880D01*
X002042Y039924D01*
X002081Y039965D01*
X002125Y040002D01*
X002171Y040034D01*
X002220Y040063D01*
X002272Y040087D01*
X002326Y040106D01*
X002381Y040120D01*
X002437Y040129D01*
X002494Y040133D01*
X002551Y040132D01*
X002607Y040125D01*
X002663Y040114D01*
X002717Y040097D01*
X002770Y040075D01*
X002820Y040049D01*
X002868Y040019D01*
X002913Y039984D01*
X002955Y039945D01*
X002993Y039902D01*
X003027Y039857D01*
X003056Y039808D01*
X003081Y039757D01*
X003102Y039704D01*
X003117Y039649D01*
X003127Y039593D01*
X003132Y039536D01*
X003132Y039480D01*
X003127Y039423D01*
X003117Y039367D01*
X003102Y039312D01*
X003081Y039259D01*
X003056Y039208D01*
X003027Y039159D01*
X002993Y039114D01*
X002955Y039071D01*
X002913Y039032D01*
X002868Y038997D01*
X002821Y038967D01*
X002770Y038941D01*
X002717Y038919D01*
X002663Y038902D01*
X002607Y038891D01*
X002551Y038884D01*
X002494Y038883D01*
X002437Y038887D01*
X002381Y038896D01*
X002326Y038910D01*
X002272Y038929D01*
X002220Y038953D01*
X002171Y038982D01*
X002125Y039014D01*
X002081Y039051D01*
X002042Y039092D01*
X002006Y039136D01*
X001974Y039183D01*
X001947Y039233D01*
X001924Y039285D01*
X001906Y039339D01*
X001893Y039395D01*
X001886Y039451D01*
X001883Y039508D01*
X009908Y027458D02*
X009911Y027517D01*
X009919Y027576D01*
X009932Y027633D01*
X009951Y027690D01*
X009974Y027744D01*
X010003Y027796D01*
X010036Y027845D01*
X010073Y027891D01*
X010114Y027933D01*
X010159Y027971D01*
X010208Y028006D01*
X010259Y028035D01*
X010313Y028060D01*
X010368Y028080D01*
X010426Y028094D01*
X010484Y028104D01*
X010543Y028108D01*
X010602Y028106D01*
X010661Y028100D01*
X010719Y028088D01*
X010776Y028070D01*
X010830Y028048D01*
X010883Y028021D01*
X010933Y027989D01*
X010980Y027953D01*
X011023Y027912D01*
X011062Y027868D01*
X011097Y027821D01*
X011128Y027770D01*
X011154Y027717D01*
X011175Y027662D01*
X011191Y027605D01*
X011202Y027547D01*
X011207Y027488D01*
X011207Y027428D01*
X011202Y027369D01*
X011191Y027311D01*
X011175Y027254D01*
X011154Y027199D01*
X011128Y027146D01*
X011097Y027095D01*
X011062Y027048D01*
X011023Y027004D01*
X010980Y026963D01*
X010933Y026927D01*
X010883Y026895D01*
X010830Y026868D01*
X010776Y026846D01*
X010719Y026828D01*
X010661Y026816D01*
X010602Y026810D01*
X010543Y026808D01*
X010484Y026812D01*
X010426Y026822D01*
X010368Y026836D01*
X010313Y026856D01*
X010259Y026881D01*
X010208Y026910D01*
X010159Y026945D01*
X010114Y026983D01*
X010073Y027025D01*
X010036Y027071D01*
X010003Y027120D01*
X009974Y027172D01*
X009951Y027226D01*
X009932Y027283D01*
X009919Y027340D01*
X009911Y027399D01*
X009908Y027458D01*
X001883Y002508D02*
X001886Y002565D01*
X001893Y002621D01*
X001906Y002677D01*
X001924Y002731D01*
X001947Y002783D01*
X001974Y002833D01*
X002006Y002880D01*
X002042Y002924D01*
X002081Y002965D01*
X002125Y003002D01*
X002171Y003034D01*
X002220Y003063D01*
X002272Y003087D01*
X002326Y003106D01*
X002381Y003120D01*
X002437Y003129D01*
X002494Y003133D01*
X002551Y003132D01*
X002607Y003125D01*
X002663Y003114D01*
X002717Y003097D01*
X002770Y003075D01*
X002820Y003049D01*
X002868Y003019D01*
X002913Y002984D01*
X002955Y002945D01*
X002993Y002902D01*
X003027Y002857D01*
X003056Y002808D01*
X003081Y002757D01*
X003102Y002704D01*
X003117Y002649D01*
X003127Y002593D01*
X003132Y002536D01*
X003132Y002480D01*
X003127Y002423D01*
X003117Y002367D01*
X003102Y002312D01*
X003081Y002259D01*
X003056Y002208D01*
X003027Y002159D01*
X002993Y002114D01*
X002955Y002071D01*
X002913Y002032D01*
X002868Y001997D01*
X002821Y001967D01*
X002770Y001941D01*
X002717Y001919D01*
X002663Y001902D01*
X002607Y001891D01*
X002551Y001884D01*
X002494Y001883D01*
X002437Y001887D01*
X002381Y001896D01*
X002326Y001910D01*
X002272Y001929D01*
X002220Y001953D01*
X002171Y001982D01*
X002125Y002014D01*
X002081Y002051D01*
X002042Y002092D01*
X002006Y002136D01*
X001974Y002183D01*
X001947Y002233D01*
X001924Y002285D01*
X001906Y002339D01*
X001893Y002395D01*
X001886Y002451D01*
X001883Y002508D01*
X038883Y002508D02*
X038886Y002565D01*
X038893Y002621D01*
X038906Y002677D01*
X038924Y002731D01*
X038947Y002783D01*
X038974Y002833D01*
X039006Y002880D01*
X039042Y002924D01*
X039081Y002965D01*
X039125Y003002D01*
X039171Y003034D01*
X039220Y003063D01*
X039272Y003087D01*
X039326Y003106D01*
X039381Y003120D01*
X039437Y003129D01*
X039494Y003133D01*
X039551Y003132D01*
X039607Y003125D01*
X039663Y003114D01*
X039717Y003097D01*
X039770Y003075D01*
X039820Y003049D01*
X039868Y003019D01*
X039913Y002984D01*
X039955Y002945D01*
X039993Y002902D01*
X040027Y002857D01*
X040056Y002808D01*
X040081Y002757D01*
X040102Y002704D01*
X040117Y002649D01*
X040127Y002593D01*
X040132Y002536D01*
X040132Y002480D01*
X040127Y002423D01*
X040117Y002367D01*
X040102Y002312D01*
X040081Y002259D01*
X040056Y002208D01*
X040027Y002159D01*
X039993Y002114D01*
X039955Y002071D01*
X039913Y002032D01*
X039868Y001997D01*
X039821Y001967D01*
X039770Y001941D01*
X039717Y001919D01*
X039663Y001902D01*
X039607Y001891D01*
X039551Y001884D01*
X039494Y001883D01*
X039437Y001887D01*
X039381Y001896D01*
X039326Y001910D01*
X039272Y001929D01*
X039220Y001953D01*
X039171Y001982D01*
X039125Y002014D01*
X039081Y002051D01*
X039042Y002092D01*
X039006Y002136D01*
X038974Y002183D01*
X038947Y002233D01*
X038924Y002285D01*
X038906Y002339D01*
X038893Y002395D01*
X038886Y002451D01*
X038883Y002508D01*
X038883Y039508D02*
X038886Y039565D01*
X038893Y039621D01*
X038906Y039677D01*
X038924Y039731D01*
X038947Y039783D01*
X038974Y039833D01*
X039006Y039880D01*
X039042Y039924D01*
X039081Y039965D01*
X039125Y040002D01*
X039171Y040034D01*
X039220Y040063D01*
X039272Y040087D01*
X039326Y040106D01*
X039381Y040120D01*
X039437Y040129D01*
X039494Y040133D01*
X039551Y040132D01*
X039607Y040125D01*
X039663Y040114D01*
X039717Y040097D01*
X039770Y040075D01*
X039820Y040049D01*
X039868Y040019D01*
X039913Y039984D01*
X039955Y039945D01*
X039993Y039902D01*
X040027Y039857D01*
X040056Y039808D01*
X040081Y039757D01*
X040102Y039704D01*
X040117Y039649D01*
X040127Y039593D01*
X040132Y039536D01*
X040132Y039480D01*
X040127Y039423D01*
X040117Y039367D01*
X040102Y039312D01*
X040081Y039259D01*
X040056Y039208D01*
X040027Y039159D01*
X039993Y039114D01*
X039955Y039071D01*
X039913Y039032D01*
X039868Y038997D01*
X039821Y038967D01*
X039770Y038941D01*
X039717Y038919D01*
X039663Y038902D01*
X039607Y038891D01*
X039551Y038884D01*
X039494Y038883D01*
X039437Y038887D01*
X039381Y038896D01*
X039326Y038910D01*
X039272Y038929D01*
X039220Y038953D01*
X039171Y038982D01*
X039125Y039014D01*
X039081Y039051D01*
X039042Y039092D01*
X039006Y039136D01*
X038974Y039183D01*
X038947Y039233D01*
X038924Y039285D01*
X038906Y039339D01*
X038893Y039395D01*
X038886Y039451D01*
X038883Y039508D01*
M02*
