G75*
G70*
%OFA0B0*%
%FSLAX24Y24*%
%IPPOS*%
%LPD*%
%AMOC8*
5,1,8,0,0,1.08239X$1,22.5*
%
%ADD10C,0.0000*%
%ADD11C,0.0060*%
%ADD12C,0.0040*%
%ADD13C,0.0030*%
%ADD14C,0.0160*%
%ADD15C,0.0050*%
%ADD16C,0.0010*%
%ADD17C,0.0020*%
%ADD18R,0.0200X0.0050*%
%ADD19R,0.0118X0.0059*%
%ADD20R,0.0118X0.0118*%
%ADD21C,0.0070*%
%ADD22R,0.0300X0.0250*%
%ADD23R,0.0500X0.1100*%
%ADD24R,0.0193X0.0433*%
%ADD25C,0.0080*%
%ADD26R,0.0350X0.0350*%
D10*
X001008Y041008D02*
X001008Y001008D01*
X041008Y001008D01*
X041008Y041008D01*
X001008Y041008D01*
X001883Y039508D02*
X001886Y039565D01*
X001893Y039621D01*
X001906Y039677D01*
X001924Y039731D01*
X001947Y039783D01*
X001974Y039833D01*
X002006Y039880D01*
X002042Y039924D01*
X002081Y039965D01*
X002125Y040002D01*
X002171Y040034D01*
X002220Y040063D01*
X002272Y040087D01*
X002326Y040106D01*
X002381Y040120D01*
X002437Y040129D01*
X002494Y040133D01*
X002551Y040132D01*
X002607Y040125D01*
X002663Y040114D01*
X002717Y040097D01*
X002770Y040075D01*
X002820Y040049D01*
X002868Y040019D01*
X002913Y039984D01*
X002955Y039945D01*
X002993Y039902D01*
X003027Y039857D01*
X003056Y039808D01*
X003081Y039757D01*
X003102Y039704D01*
X003117Y039649D01*
X003127Y039593D01*
X003132Y039536D01*
X003132Y039480D01*
X003127Y039423D01*
X003117Y039367D01*
X003102Y039312D01*
X003081Y039259D01*
X003056Y039208D01*
X003027Y039159D01*
X002993Y039114D01*
X002955Y039071D01*
X002913Y039032D01*
X002868Y038997D01*
X002821Y038967D01*
X002770Y038941D01*
X002717Y038919D01*
X002663Y038902D01*
X002607Y038891D01*
X002551Y038884D01*
X002494Y038883D01*
X002437Y038887D01*
X002381Y038896D01*
X002326Y038910D01*
X002272Y038929D01*
X002220Y038953D01*
X002171Y038982D01*
X002125Y039014D01*
X002081Y039051D01*
X002042Y039092D01*
X002006Y039136D01*
X001974Y039183D01*
X001947Y039233D01*
X001924Y039285D01*
X001906Y039339D01*
X001893Y039395D01*
X001886Y039451D01*
X001883Y039508D01*
X009908Y027458D02*
X009911Y027517D01*
X009919Y027576D01*
X009932Y027633D01*
X009951Y027690D01*
X009974Y027744D01*
X010003Y027796D01*
X010036Y027845D01*
X010073Y027891D01*
X010114Y027933D01*
X010159Y027971D01*
X010208Y028006D01*
X010259Y028035D01*
X010313Y028060D01*
X010368Y028080D01*
X010426Y028094D01*
X010484Y028104D01*
X010543Y028108D01*
X010602Y028106D01*
X010661Y028100D01*
X010719Y028088D01*
X010776Y028070D01*
X010830Y028048D01*
X010883Y028021D01*
X010933Y027989D01*
X010980Y027953D01*
X011023Y027912D01*
X011062Y027868D01*
X011097Y027821D01*
X011128Y027770D01*
X011154Y027717D01*
X011175Y027662D01*
X011191Y027605D01*
X011202Y027547D01*
X011207Y027488D01*
X011207Y027428D01*
X011202Y027369D01*
X011191Y027311D01*
X011175Y027254D01*
X011154Y027199D01*
X011128Y027146D01*
X011097Y027095D01*
X011062Y027048D01*
X011023Y027004D01*
X010980Y026963D01*
X010933Y026927D01*
X010883Y026895D01*
X010830Y026868D01*
X010776Y026846D01*
X010719Y026828D01*
X010661Y026816D01*
X010602Y026810D01*
X010543Y026808D01*
X010484Y026812D01*
X010426Y026822D01*
X010368Y026836D01*
X010313Y026856D01*
X010259Y026881D01*
X010208Y026910D01*
X010159Y026945D01*
X010114Y026983D01*
X010073Y027025D01*
X010036Y027071D01*
X010003Y027120D01*
X009974Y027172D01*
X009951Y027226D01*
X009932Y027283D01*
X009919Y027340D01*
X009911Y027399D01*
X009908Y027458D01*
X001883Y002508D02*
X001886Y002565D01*
X001893Y002621D01*
X001906Y002677D01*
X001924Y002731D01*
X001947Y002783D01*
X001974Y002833D01*
X002006Y002880D01*
X002042Y002924D01*
X002081Y002965D01*
X002125Y003002D01*
X002171Y003034D01*
X002220Y003063D01*
X002272Y003087D01*
X002326Y003106D01*
X002381Y003120D01*
X002437Y003129D01*
X002494Y003133D01*
X002551Y003132D01*
X002607Y003125D01*
X002663Y003114D01*
X002717Y003097D01*
X002770Y003075D01*
X002820Y003049D01*
X002868Y003019D01*
X002913Y002984D01*
X002955Y002945D01*
X002993Y002902D01*
X003027Y002857D01*
X003056Y002808D01*
X003081Y002757D01*
X003102Y002704D01*
X003117Y002649D01*
X003127Y002593D01*
X003132Y002536D01*
X003132Y002480D01*
X003127Y002423D01*
X003117Y002367D01*
X003102Y002312D01*
X003081Y002259D01*
X003056Y002208D01*
X003027Y002159D01*
X002993Y002114D01*
X002955Y002071D01*
X002913Y002032D01*
X002868Y001997D01*
X002821Y001967D01*
X002770Y001941D01*
X002717Y001919D01*
X002663Y001902D01*
X002607Y001891D01*
X002551Y001884D01*
X002494Y001883D01*
X002437Y001887D01*
X002381Y001896D01*
X002326Y001910D01*
X002272Y001929D01*
X002220Y001953D01*
X002171Y001982D01*
X002125Y002014D01*
X002081Y002051D01*
X002042Y002092D01*
X002006Y002136D01*
X001974Y002183D01*
X001947Y002233D01*
X001924Y002285D01*
X001906Y002339D01*
X001893Y002395D01*
X001886Y002451D01*
X001883Y002508D01*
X038883Y002508D02*
X038886Y002565D01*
X038893Y002621D01*
X038906Y002677D01*
X038924Y002731D01*
X038947Y002783D01*
X038974Y002833D01*
X039006Y002880D01*
X039042Y002924D01*
X039081Y002965D01*
X039125Y003002D01*
X039171Y003034D01*
X039220Y003063D01*
X039272Y003087D01*
X039326Y003106D01*
X039381Y003120D01*
X039437Y003129D01*
X039494Y003133D01*
X039551Y003132D01*
X039607Y003125D01*
X039663Y003114D01*
X039717Y003097D01*
X039770Y003075D01*
X039820Y003049D01*
X039868Y003019D01*
X039913Y002984D01*
X039955Y002945D01*
X039993Y002902D01*
X040027Y002857D01*
X040056Y002808D01*
X040081Y002757D01*
X040102Y002704D01*
X040117Y002649D01*
X040127Y002593D01*
X040132Y002536D01*
X040132Y002480D01*
X040127Y002423D01*
X040117Y002367D01*
X040102Y002312D01*
X040081Y002259D01*
X040056Y002208D01*
X040027Y002159D01*
X039993Y002114D01*
X039955Y002071D01*
X039913Y002032D01*
X039868Y001997D01*
X039821Y001967D01*
X039770Y001941D01*
X039717Y001919D01*
X039663Y001902D01*
X039607Y001891D01*
X039551Y001884D01*
X039494Y001883D01*
X039437Y001887D01*
X039381Y001896D01*
X039326Y001910D01*
X039272Y001929D01*
X039220Y001953D01*
X039171Y001982D01*
X039125Y002014D01*
X039081Y002051D01*
X039042Y002092D01*
X039006Y002136D01*
X038974Y002183D01*
X038947Y002233D01*
X038924Y002285D01*
X038906Y002339D01*
X038893Y002395D01*
X038886Y002451D01*
X038883Y002508D01*
X038883Y039508D02*
X038886Y039565D01*
X038893Y039621D01*
X038906Y039677D01*
X038924Y039731D01*
X038947Y039783D01*
X038974Y039833D01*
X039006Y039880D01*
X039042Y039924D01*
X039081Y039965D01*
X039125Y040002D01*
X039171Y040034D01*
X039220Y040063D01*
X039272Y040087D01*
X039326Y040106D01*
X039381Y040120D01*
X039437Y040129D01*
X039494Y040133D01*
X039551Y040132D01*
X039607Y040125D01*
X039663Y040114D01*
X039717Y040097D01*
X039770Y040075D01*
X039820Y040049D01*
X039868Y040019D01*
X039913Y039984D01*
X039955Y039945D01*
X039993Y039902D01*
X040027Y039857D01*
X040056Y039808D01*
X040081Y039757D01*
X040102Y039704D01*
X040117Y039649D01*
X040127Y039593D01*
X040132Y039536D01*
X040132Y039480D01*
X040127Y039423D01*
X040117Y039367D01*
X040102Y039312D01*
X040081Y039259D01*
X040056Y039208D01*
X040027Y039159D01*
X039993Y039114D01*
X039955Y039071D01*
X039913Y039032D01*
X039868Y038997D01*
X039821Y038967D01*
X039770Y038941D01*
X039717Y038919D01*
X039663Y038902D01*
X039607Y038891D01*
X039551Y038884D01*
X039494Y038883D01*
X039437Y038887D01*
X039381Y038896D01*
X039326Y038910D01*
X039272Y038929D01*
X039220Y038953D01*
X039171Y038982D01*
X039125Y039014D01*
X039081Y039051D01*
X039042Y039092D01*
X039006Y039136D01*
X038974Y039183D01*
X038947Y039233D01*
X038924Y039285D01*
X038906Y039339D01*
X038893Y039395D01*
X038886Y039451D01*
X038883Y039508D01*
D11*
X035998Y035468D02*
X031988Y035468D01*
X031988Y032548D01*
X035998Y032548D01*
X035998Y035468D01*
X032138Y032898D02*
X032140Y032927D01*
X032146Y032956D01*
X032156Y032983D01*
X032170Y033009D01*
X032187Y033033D01*
X032207Y033054D01*
X032231Y033072D01*
X032256Y033087D01*
X032283Y033098D01*
X032312Y033105D01*
X032341Y033108D01*
X032370Y033107D01*
X032399Y033102D01*
X032427Y033093D01*
X032453Y033080D01*
X032477Y033063D01*
X032499Y033044D01*
X032518Y033021D01*
X032533Y032997D01*
X032545Y032970D01*
X032553Y032942D01*
X032557Y032913D01*
X032557Y032883D01*
X032553Y032854D01*
X032545Y032826D01*
X032533Y032799D01*
X032518Y032775D01*
X032499Y032752D01*
X032477Y032733D01*
X032453Y032716D01*
X032427Y032703D01*
X032399Y032694D01*
X032370Y032689D01*
X032341Y032688D01*
X032312Y032691D01*
X032283Y032698D01*
X032256Y032709D01*
X032231Y032724D01*
X032207Y032742D01*
X032187Y032763D01*
X032170Y032787D01*
X032156Y032813D01*
X032146Y032840D01*
X032140Y032869D01*
X032138Y032898D01*
X030958Y033208D02*
X030958Y033808D01*
X030956Y033828D01*
X030950Y033846D01*
X030941Y033864D01*
X030929Y033879D01*
X030914Y033891D01*
X030896Y033900D01*
X030878Y033906D01*
X030858Y033908D01*
X029158Y033908D01*
X029138Y033906D01*
X029120Y033900D01*
X029102Y033891D01*
X029087Y033879D01*
X029075Y033864D01*
X029066Y033846D01*
X029060Y033828D01*
X029058Y033808D01*
X029058Y033208D01*
X029060Y033188D01*
X029066Y033170D01*
X029075Y033152D01*
X029087Y033137D01*
X029102Y033125D01*
X029120Y033116D01*
X029138Y033110D01*
X029158Y033108D01*
X030858Y033108D01*
X030878Y033110D01*
X030896Y033116D01*
X030914Y033125D01*
X030929Y033137D01*
X030941Y033152D01*
X030950Y033170D01*
X030956Y033188D01*
X030958Y033208D01*
X030858Y034608D02*
X029158Y034608D01*
X029138Y034610D01*
X029120Y034616D01*
X029102Y034625D01*
X029087Y034637D01*
X029075Y034652D01*
X029066Y034670D01*
X029060Y034688D01*
X029058Y034708D01*
X029058Y035308D01*
X029060Y035328D01*
X029066Y035346D01*
X029075Y035364D01*
X029087Y035379D01*
X029102Y035391D01*
X029120Y035400D01*
X029138Y035406D01*
X029158Y035408D01*
X030858Y035408D01*
X030878Y035406D01*
X030896Y035400D01*
X030914Y035391D01*
X030929Y035379D01*
X030941Y035364D01*
X030950Y035346D01*
X030956Y035328D01*
X030958Y035308D01*
X030958Y034708D01*
X030956Y034688D01*
X030950Y034670D01*
X030941Y034652D01*
X030929Y034637D01*
X030914Y034625D01*
X030896Y034616D01*
X030878Y034610D01*
X030858Y034608D01*
X021508Y033628D02*
X021508Y032388D01*
X021506Y032365D01*
X021501Y032342D01*
X021492Y032320D01*
X021479Y032300D01*
X021464Y032282D01*
X021446Y032267D01*
X021426Y032254D01*
X021404Y032245D01*
X021381Y032240D01*
X021358Y032238D01*
X017658Y032238D01*
X017635Y032240D01*
X017612Y032245D01*
X017590Y032254D01*
X017570Y032267D01*
X017552Y032282D01*
X017537Y032300D01*
X017524Y032320D01*
X017515Y032342D01*
X017510Y032365D01*
X017508Y032388D01*
X017508Y033628D01*
X017510Y033651D01*
X017515Y033674D01*
X017524Y033696D01*
X017537Y033716D01*
X017552Y033734D01*
X017570Y033749D01*
X017590Y033762D01*
X017612Y033771D01*
X017635Y033776D01*
X017658Y033778D01*
X021358Y033778D01*
X021381Y033776D01*
X021404Y033771D01*
X021426Y033762D01*
X021446Y033749D01*
X021464Y033734D01*
X021479Y033716D01*
X021492Y033696D01*
X021501Y033674D01*
X021506Y033651D01*
X021508Y033628D01*
X017508Y033208D02*
X017536Y033206D01*
X017564Y033200D01*
X017591Y033190D01*
X017616Y033176D01*
X017639Y033159D01*
X017659Y033139D01*
X017676Y033116D01*
X017690Y033091D01*
X017700Y033064D01*
X017706Y033036D01*
X017708Y033008D01*
X017706Y032980D01*
X017700Y032952D01*
X017690Y032925D01*
X017676Y032900D01*
X017659Y032877D01*
X017639Y032857D01*
X017616Y032840D01*
X017591Y032826D01*
X017564Y032816D01*
X017536Y032810D01*
X017508Y032808D01*
X016008Y032388D02*
X016008Y033628D01*
X016006Y033651D01*
X016001Y033674D01*
X015992Y033696D01*
X015979Y033716D01*
X015964Y033734D01*
X015946Y033749D01*
X015926Y033762D01*
X015904Y033771D01*
X015881Y033776D01*
X015858Y033778D01*
X012158Y033778D01*
X012135Y033776D01*
X012112Y033771D01*
X012090Y033762D01*
X012070Y033749D01*
X012052Y033734D01*
X012037Y033716D01*
X012024Y033696D01*
X012015Y033674D01*
X012010Y033651D01*
X012008Y033628D01*
X012008Y032388D01*
X012010Y032365D01*
X012015Y032342D01*
X012024Y032320D01*
X012037Y032300D01*
X012052Y032282D01*
X012070Y032267D01*
X012090Y032254D01*
X012112Y032245D01*
X012135Y032240D01*
X012158Y032238D01*
X015858Y032238D01*
X015881Y032240D01*
X015904Y032245D01*
X015926Y032254D01*
X015946Y032267D01*
X015964Y032282D01*
X015979Y032300D01*
X015992Y032320D01*
X016001Y032342D01*
X016006Y032365D01*
X016008Y032388D01*
X012008Y032808D02*
X012036Y032810D01*
X012064Y032816D01*
X012091Y032826D01*
X012116Y032840D01*
X012139Y032857D01*
X012159Y032877D01*
X012176Y032900D01*
X012190Y032925D01*
X012200Y032952D01*
X012206Y032980D01*
X012208Y033008D01*
X012206Y033036D01*
X012200Y033064D01*
X012190Y033091D01*
X012176Y033116D01*
X012159Y033139D01*
X012139Y033159D01*
X012116Y033176D01*
X012091Y033190D01*
X012064Y033200D01*
X012036Y033206D01*
X012008Y033208D01*
X012608Y028808D02*
X008508Y028808D01*
X008508Y028058D01*
X008858Y028058D01*
X008858Y027458D01*
X008508Y027458D01*
X008508Y022558D01*
X012608Y022558D01*
X012608Y027458D01*
X012258Y027458D01*
X012258Y028058D01*
X012608Y028058D01*
X012608Y028808D01*
X009848Y027458D02*
X009851Y027523D01*
X009860Y027587D01*
X009874Y027650D01*
X009895Y027711D01*
X009920Y027770D01*
X009951Y027827D01*
X009987Y027881D01*
X010028Y027931D01*
X010073Y027977D01*
X010123Y028019D01*
X010175Y028056D01*
X010231Y028088D01*
X010290Y028115D01*
X010351Y028137D01*
X010414Y028153D01*
X010477Y028163D01*
X010542Y028168D01*
X010606Y028166D01*
X010671Y028159D01*
X010734Y028146D01*
X010796Y028127D01*
X010856Y028103D01*
X010913Y028073D01*
X010967Y028038D01*
X011018Y027998D01*
X011066Y027954D01*
X011109Y027906D01*
X011147Y027854D01*
X011181Y027799D01*
X011209Y027741D01*
X011232Y027680D01*
X011250Y027618D01*
X011261Y027555D01*
X011267Y027490D01*
X011267Y027426D01*
X011261Y027361D01*
X011250Y027298D01*
X011232Y027236D01*
X011209Y027175D01*
X011181Y027117D01*
X011147Y027062D01*
X011109Y027010D01*
X011066Y026962D01*
X011018Y026918D01*
X010967Y026878D01*
X010913Y026843D01*
X010856Y026813D01*
X010796Y026789D01*
X010734Y026770D01*
X010671Y026757D01*
X010606Y026750D01*
X010542Y026748D01*
X010477Y026753D01*
X010414Y026763D01*
X010351Y026779D01*
X010290Y026801D01*
X010231Y026828D01*
X010175Y026860D01*
X010123Y026897D01*
X010073Y026939D01*
X010028Y026985D01*
X009987Y027035D01*
X009951Y027089D01*
X009920Y027146D01*
X009895Y027205D01*
X009874Y027266D01*
X009860Y027329D01*
X009851Y027393D01*
X009848Y027458D01*
X004008Y026258D02*
X004008Y025758D01*
X003758Y025508D01*
X004008Y025258D01*
X004008Y024758D01*
X003758Y024508D01*
X004008Y024258D01*
X004008Y023758D01*
X003758Y023508D01*
X004008Y023258D01*
X004008Y022758D01*
X003758Y022508D01*
X004008Y022258D01*
X004008Y021758D01*
X003758Y021508D01*
X004008Y021258D01*
X004008Y020758D01*
X003758Y020508D01*
X004008Y020258D01*
X004008Y019758D01*
X003758Y019508D01*
X004008Y019258D01*
X004008Y018758D01*
X003758Y018508D01*
X004008Y018258D01*
X004008Y017758D01*
X003758Y017508D01*
X004008Y017258D01*
X004008Y016758D01*
X003758Y016508D01*
X002258Y016508D01*
X002008Y016758D01*
X002008Y017258D01*
X002258Y017508D01*
X002008Y017758D01*
X002008Y018258D01*
X002258Y018508D01*
X002008Y018758D01*
X002008Y019258D01*
X002258Y019508D01*
X002008Y019758D01*
X002008Y020258D01*
X002258Y020508D01*
X002008Y020758D01*
X002008Y021258D01*
X002258Y021508D01*
X002008Y021758D01*
X002008Y022258D01*
X002258Y022508D01*
X002008Y022758D01*
X002008Y023258D01*
X002258Y023508D01*
X002008Y023758D01*
X002008Y024258D01*
X002258Y024508D01*
X002008Y024758D01*
X002008Y025258D01*
X002258Y025508D01*
X002008Y025758D01*
X002008Y026258D01*
X002258Y026508D01*
X003758Y026508D01*
X004008Y026258D01*
X003758Y031008D02*
X002258Y031008D01*
X002008Y031258D01*
X002008Y031758D01*
X002258Y032008D01*
X002008Y032258D01*
X002008Y032758D01*
X002258Y033008D01*
X002008Y033258D01*
X002008Y033758D01*
X002258Y034008D01*
X002008Y034258D01*
X002008Y034758D01*
X002258Y035008D01*
X003758Y035008D01*
X004008Y034758D01*
X004008Y034258D01*
X003758Y034008D01*
X004008Y033758D01*
X004008Y033258D01*
X003758Y033008D01*
X004008Y032758D01*
X004008Y032258D01*
X003758Y032008D01*
X004008Y031758D01*
X004008Y031258D01*
X003758Y031008D01*
X016238Y024108D02*
X016408Y024278D01*
X021778Y024278D01*
X021778Y018738D01*
X016238Y018738D01*
X016238Y024108D01*
X016473Y023823D02*
X016475Y023853D01*
X016481Y023882D01*
X016491Y023911D01*
X016505Y023937D01*
X016522Y023962D01*
X016543Y023984D01*
X016566Y024003D01*
X016592Y024018D01*
X016619Y024030D01*
X016648Y024038D01*
X016678Y024042D01*
X016708Y024042D01*
X016738Y024038D01*
X016767Y024030D01*
X016794Y024018D01*
X016820Y024003D01*
X016843Y023984D01*
X016864Y023962D01*
X016881Y023937D01*
X016895Y023911D01*
X016905Y023882D01*
X016911Y023853D01*
X016913Y023823D01*
X016911Y023793D01*
X016905Y023764D01*
X016895Y023735D01*
X016881Y023709D01*
X016864Y023684D01*
X016843Y023662D01*
X016820Y023643D01*
X016794Y023628D01*
X016767Y023616D01*
X016738Y023608D01*
X016708Y023604D01*
X016678Y023604D01*
X016648Y023608D01*
X016619Y023616D01*
X016592Y023628D01*
X016566Y023643D01*
X016543Y023662D01*
X016522Y023684D01*
X016505Y023709D01*
X016491Y023735D01*
X016481Y023764D01*
X016475Y023793D01*
X016473Y023823D01*
X018308Y016508D02*
X020708Y016508D01*
X020758Y016506D01*
X020807Y016500D01*
X020856Y016491D01*
X020904Y016478D01*
X020951Y016461D01*
X020996Y016441D01*
X021040Y016417D01*
X021082Y016390D01*
X021122Y016359D01*
X021159Y016326D01*
X021193Y016290D01*
X021225Y016252D01*
X021254Y016211D01*
X021279Y016169D01*
X021301Y016124D01*
X021320Y016078D01*
X021335Y016030D01*
X021346Y015982D01*
X021354Y015933D01*
X021358Y015883D01*
X021358Y015833D01*
X021354Y015783D01*
X021346Y015734D01*
X021335Y015686D01*
X021320Y015638D01*
X021301Y015592D01*
X021279Y015547D01*
X021254Y015505D01*
X021225Y015464D01*
X021193Y015426D01*
X021159Y015390D01*
X021122Y015357D01*
X021082Y015326D01*
X021040Y015299D01*
X020996Y015275D01*
X020951Y015255D01*
X020904Y015238D01*
X020856Y015225D01*
X020807Y015216D01*
X020758Y015210D01*
X020708Y015208D01*
X018308Y015208D01*
X018258Y015210D01*
X018209Y015216D01*
X018160Y015225D01*
X018112Y015238D01*
X018065Y015255D01*
X018020Y015275D01*
X017976Y015299D01*
X017934Y015326D01*
X017894Y015357D01*
X017857Y015390D01*
X017823Y015426D01*
X017791Y015464D01*
X017762Y015505D01*
X017737Y015547D01*
X017715Y015592D01*
X017696Y015638D01*
X017681Y015686D01*
X017670Y015734D01*
X017662Y015783D01*
X017658Y015833D01*
X017658Y015883D01*
X017662Y015933D01*
X017670Y015982D01*
X017681Y016030D01*
X017696Y016078D01*
X017715Y016124D01*
X017737Y016169D01*
X017762Y016211D01*
X017791Y016252D01*
X017823Y016290D01*
X017857Y016326D01*
X017894Y016359D01*
X017934Y016390D01*
X017976Y016417D01*
X018020Y016441D01*
X018065Y016461D01*
X018112Y016478D01*
X018160Y016491D01*
X018209Y016500D01*
X018258Y016506D01*
X018308Y016508D01*
X019008Y015858D02*
X019258Y015858D01*
X019258Y016158D01*
X019408Y016158D02*
X019608Y016158D01*
X019608Y015558D01*
X019408Y015558D01*
X019408Y016158D01*
X019258Y015858D02*
X019258Y015558D01*
X019758Y015558D02*
X019758Y015858D01*
X020008Y015858D01*
X019758Y015858D02*
X019758Y016158D01*
X023438Y014328D02*
X023438Y011688D01*
X023440Y011665D01*
X023445Y011642D01*
X023454Y011620D01*
X023467Y011600D01*
X023482Y011582D01*
X023500Y011567D01*
X023520Y011554D01*
X023542Y011545D01*
X023565Y011540D01*
X023588Y011538D01*
X027428Y011538D01*
X027451Y011540D01*
X027474Y011545D01*
X027496Y011554D01*
X027516Y011567D01*
X027534Y011582D01*
X027549Y011600D01*
X027562Y011620D01*
X027571Y011642D01*
X027576Y011665D01*
X027578Y011688D01*
X027578Y014328D01*
X027576Y014351D01*
X027571Y014374D01*
X027562Y014396D01*
X027549Y014416D01*
X027534Y014434D01*
X027516Y014449D01*
X027496Y014462D01*
X027474Y014471D01*
X027451Y014476D01*
X027428Y014478D01*
X023588Y014478D01*
X023565Y014476D01*
X023542Y014471D01*
X023520Y014462D01*
X023500Y014449D01*
X023482Y014434D01*
X023467Y014416D01*
X023454Y014396D01*
X023445Y014374D01*
X023440Y014351D01*
X023438Y014328D01*
X023438Y013508D02*
X023482Y013506D01*
X023525Y013500D01*
X023567Y013491D01*
X023609Y013478D01*
X023649Y013461D01*
X023688Y013441D01*
X023725Y013418D01*
X023759Y013391D01*
X023792Y013362D01*
X023821Y013329D01*
X023848Y013295D01*
X023871Y013258D01*
X023891Y013219D01*
X023908Y013179D01*
X023921Y013137D01*
X023930Y013095D01*
X023936Y013052D01*
X023938Y013008D01*
X023936Y012964D01*
X023930Y012921D01*
X023921Y012879D01*
X023908Y012837D01*
X023891Y012797D01*
X023871Y012758D01*
X023848Y012721D01*
X023821Y012687D01*
X023792Y012654D01*
X023759Y012625D01*
X023725Y012598D01*
X023688Y012575D01*
X023649Y012555D01*
X023609Y012538D01*
X023567Y012525D01*
X023525Y012516D01*
X023482Y012510D01*
X023438Y012508D01*
X030508Y014758D02*
X030758Y014508D01*
X031258Y014508D01*
X031508Y014758D01*
X031758Y014508D01*
X032258Y014508D01*
X032508Y014758D01*
X032758Y014508D01*
X033258Y014508D01*
X033508Y014758D01*
X033508Y016258D01*
X033258Y016508D01*
X032758Y016508D01*
X032508Y016258D01*
X032258Y016508D01*
X031758Y016508D01*
X031508Y016258D01*
X031258Y016508D01*
X030758Y016508D01*
X030508Y016258D01*
X030508Y014758D01*
X028438Y023298D02*
X028438Y024718D01*
X026578Y024718D02*
X026578Y023298D01*
X016258Y012628D02*
X016258Y011388D01*
X016258Y011808D02*
X016230Y011810D01*
X016202Y011816D01*
X016175Y011826D01*
X016150Y011840D01*
X016127Y011857D01*
X016107Y011877D01*
X016090Y011900D01*
X016076Y011925D01*
X016066Y011952D01*
X016060Y011980D01*
X016058Y012008D01*
X016060Y012036D01*
X016066Y012064D01*
X016076Y012091D01*
X016090Y012116D01*
X016107Y012139D01*
X016127Y012159D01*
X016150Y012176D01*
X016175Y012190D01*
X016202Y012200D01*
X016230Y012206D01*
X016258Y012208D01*
X012758Y012628D02*
X012758Y011388D01*
X012758Y007628D02*
X012758Y006388D01*
X012908Y004008D02*
X012408Y004008D01*
X012158Y003758D01*
X011908Y004008D01*
X011408Y004008D01*
X011158Y003758D01*
X011158Y002258D01*
X011408Y002008D01*
X011908Y002008D01*
X012158Y002258D01*
X012408Y002008D01*
X012908Y002008D01*
X013158Y002258D01*
X013408Y002008D01*
X013908Y002008D01*
X014158Y002258D01*
X014408Y002008D01*
X014908Y002008D01*
X015158Y002258D01*
X015408Y002008D01*
X015908Y002008D01*
X016158Y002258D01*
X016158Y003758D01*
X015908Y004008D01*
X015408Y004008D01*
X015158Y003758D01*
X014908Y004008D01*
X014408Y004008D01*
X014158Y003758D01*
X013908Y004008D01*
X013408Y004008D01*
X013158Y003758D01*
X012908Y004008D01*
X016258Y006388D02*
X016258Y007628D01*
X016258Y007208D02*
X016230Y007206D01*
X016202Y007200D01*
X016175Y007190D01*
X016150Y007176D01*
X016127Y007159D01*
X016107Y007139D01*
X016090Y007116D01*
X016076Y007091D01*
X016066Y007064D01*
X016060Y007036D01*
X016058Y007008D01*
X016060Y006980D01*
X016066Y006952D01*
X016076Y006925D01*
X016090Y006900D01*
X016107Y006877D01*
X016127Y006857D01*
X016150Y006840D01*
X016175Y006826D01*
X016202Y006816D01*
X016230Y006810D01*
X016258Y006808D01*
X019008Y005258D02*
X019008Y004758D01*
X019258Y004508D01*
X019758Y004508D01*
X020008Y004758D01*
X020258Y004508D01*
X020758Y004508D01*
X021008Y004758D01*
X021258Y004508D01*
X021758Y004508D01*
X022008Y004758D01*
X022008Y005258D01*
X021758Y005508D01*
X021258Y005508D01*
X021008Y005258D01*
X020758Y005508D01*
X020258Y005508D01*
X020008Y005258D01*
X019758Y005508D01*
X019258Y005508D01*
X019008Y005258D01*
X025508Y005258D02*
X025508Y004758D01*
X025758Y004508D01*
X026258Y004508D01*
X026508Y004758D01*
X026758Y004508D01*
X027258Y004508D01*
X027508Y004758D01*
X027758Y004508D01*
X028258Y004508D01*
X028508Y004758D01*
X028508Y005258D01*
X028258Y005508D01*
X027758Y005508D01*
X027508Y005258D01*
X027258Y005508D01*
X026758Y005508D01*
X026508Y005258D01*
X026258Y005508D01*
X025758Y005508D01*
X025508Y005258D01*
X032008Y005258D02*
X032008Y004758D01*
X032258Y004508D01*
X032758Y004508D01*
X033008Y004758D01*
X033258Y004508D01*
X033758Y004508D01*
X034008Y004758D01*
X034258Y004508D01*
X034758Y004508D01*
X035008Y004758D01*
X035008Y005258D01*
X034758Y005508D01*
X034258Y005508D01*
X034008Y005258D01*
X033758Y005508D01*
X033258Y005508D01*
X033008Y005258D01*
X032758Y005508D01*
X032258Y005508D01*
X032008Y005258D01*
X012568Y015689D02*
X012531Y015689D01*
X012568Y015689D02*
X012568Y016327D01*
X012531Y016327D01*
X012213Y016327D02*
X011802Y016327D01*
X011485Y016327D02*
X011448Y016327D01*
X011448Y015689D01*
X011485Y015689D01*
X011802Y015689D02*
X011839Y015689D01*
X012176Y015689D02*
X012213Y015689D01*
X004008Y011758D02*
X004008Y011258D01*
X003758Y011008D01*
X004008Y010758D01*
X004008Y010258D01*
X003758Y010008D01*
X004008Y009758D01*
X004008Y009258D01*
X003758Y009008D01*
X004008Y008758D01*
X004008Y008258D01*
X003758Y008008D01*
X004008Y007758D01*
X004008Y007258D01*
X003758Y007008D01*
X002258Y007008D01*
X002008Y007258D01*
X002008Y007758D01*
X002258Y008008D01*
X002008Y008258D01*
X002008Y008758D01*
X002258Y009008D01*
X002008Y009258D01*
X002008Y009758D01*
X002258Y010008D01*
X002008Y010258D01*
X002008Y010758D01*
X002258Y011008D01*
X002008Y011258D01*
X002008Y011758D01*
X002258Y012008D01*
X003758Y012008D01*
X004008Y011758D01*
D12*
X011278Y014778D02*
X011585Y014778D01*
X011892Y014778D02*
X011892Y015238D01*
X012045Y015238D02*
X011738Y015238D01*
X011278Y015238D02*
X011278Y014778D01*
X012199Y014855D02*
X012275Y014778D01*
X012429Y014778D01*
X012505Y014855D01*
X012659Y014778D02*
X012966Y014778D01*
X013119Y014778D02*
X013119Y014855D01*
X013426Y015161D01*
X013426Y015238D01*
X013119Y015238D01*
X012812Y015238D02*
X012812Y014778D01*
X012659Y015085D02*
X012812Y015238D01*
X012505Y015161D02*
X012429Y015238D01*
X012275Y015238D01*
X012199Y015161D01*
X012199Y014855D01*
X013580Y014855D02*
X013656Y014778D01*
X013810Y014778D01*
X013887Y014855D01*
X013887Y015161D01*
X013810Y015238D01*
X013656Y015238D01*
X013580Y015161D01*
X013580Y015085D01*
X013656Y015008D01*
X013887Y015008D01*
X014040Y015085D02*
X014117Y015008D01*
X014347Y015008D01*
X014347Y014855D02*
X014347Y015161D01*
X014270Y015238D01*
X014117Y015238D01*
X014040Y015161D01*
X014040Y015085D01*
X014040Y014855D02*
X014117Y014778D01*
X014270Y014778D01*
X014347Y014855D01*
X014500Y014855D02*
X014577Y014778D01*
X014731Y014778D01*
X014807Y014855D01*
X014807Y014931D01*
X014731Y015008D01*
X014577Y015008D01*
X014500Y015085D01*
X014500Y015161D01*
X014577Y015238D01*
X014731Y015238D01*
X014807Y015161D01*
X014961Y015238D02*
X014961Y015008D01*
X015114Y015085D01*
X015191Y015085D01*
X015268Y015008D01*
X015268Y014855D01*
X015191Y014778D01*
X015037Y014778D01*
X014961Y014855D01*
X014961Y015238D02*
X015268Y015238D01*
X012966Y016778D02*
X012659Y016778D01*
X012966Y017085D01*
X012966Y017161D01*
X012889Y017238D01*
X012736Y017238D01*
X012659Y017161D01*
X012505Y017161D02*
X012429Y017238D01*
X012275Y017238D01*
X012199Y017161D01*
X012199Y016855D01*
X012275Y016778D01*
X012429Y016778D01*
X012505Y016855D01*
X012045Y016855D02*
X012045Y016931D01*
X011968Y017008D01*
X011815Y017008D01*
X011738Y017085D01*
X011738Y017161D01*
X011815Y017238D01*
X011968Y017238D01*
X012045Y017161D01*
X012045Y016855D02*
X011968Y016778D01*
X011815Y016778D01*
X011738Y016855D01*
X011585Y016855D02*
X011585Y017161D01*
X011508Y017238D01*
X011355Y017238D01*
X011278Y017161D01*
X011278Y016855D01*
X011355Y016778D01*
X011508Y016778D01*
X011585Y016855D01*
X016449Y020783D02*
X016449Y021243D01*
X016603Y021090D01*
X016756Y021243D01*
X016756Y020783D01*
X016909Y020783D02*
X017216Y020783D01*
X017370Y020860D02*
X017447Y020783D01*
X017600Y020783D01*
X017677Y020860D01*
X017677Y021013D01*
X017523Y021013D01*
X017370Y021166D02*
X017370Y020860D01*
X017370Y021166D02*
X017447Y021243D01*
X017600Y021243D01*
X017677Y021166D01*
X017830Y021090D02*
X017984Y021243D01*
X018137Y021090D01*
X018137Y020783D01*
X018291Y020783D02*
X018597Y020783D01*
X018444Y020783D02*
X018444Y021243D01*
X018291Y021090D01*
X018137Y021013D02*
X017830Y021013D01*
X017830Y021090D02*
X017830Y020783D01*
X017216Y021243D02*
X016909Y021243D01*
X016909Y020783D01*
X016909Y021013D02*
X017063Y021013D01*
X018751Y021166D02*
X018828Y021243D01*
X018981Y021243D01*
X019058Y021166D01*
X019058Y021090D01*
X018751Y020783D01*
X019058Y020783D01*
X019211Y020860D02*
X019211Y020936D01*
X019288Y021013D01*
X019441Y021013D01*
X019518Y020936D01*
X019518Y020860D01*
X019441Y020783D01*
X019288Y020783D01*
X019211Y020860D01*
X019288Y021013D02*
X019211Y021090D01*
X019211Y021166D01*
X019288Y021243D01*
X019441Y021243D01*
X019518Y021166D01*
X019518Y021090D01*
X019441Y021013D01*
X019672Y021013D02*
X019979Y021013D01*
X020132Y021013D02*
X020439Y021013D01*
X020439Y021090D02*
X020439Y020783D01*
X020439Y021090D02*
X020285Y021243D01*
X020132Y021090D01*
X020132Y020783D01*
X024528Y019488D02*
X024528Y019028D01*
X024835Y019028D01*
X024988Y019028D02*
X025295Y019028D01*
X025449Y019028D02*
X025679Y019028D01*
X025755Y019105D01*
X025755Y019411D01*
X025679Y019488D01*
X025449Y019488D01*
X025449Y019028D01*
X025142Y019258D02*
X024988Y019258D01*
X024988Y019488D02*
X024988Y019028D01*
X024988Y019488D02*
X025295Y019488D01*
X025909Y019411D02*
X025986Y019488D01*
X026139Y019488D01*
X026216Y019411D01*
X026216Y019335D01*
X025909Y019028D01*
X026216Y019028D01*
X026062Y017988D02*
X026062Y017528D01*
X025909Y017528D02*
X026216Y017528D01*
X025909Y017835D02*
X026062Y017988D01*
X025755Y017911D02*
X025679Y017988D01*
X025449Y017988D01*
X025449Y017528D01*
X025679Y017528D01*
X025755Y017605D01*
X025755Y017911D01*
X025295Y017988D02*
X024988Y017988D01*
X024988Y017528D01*
X025295Y017528D01*
X025142Y017758D02*
X024988Y017758D01*
X024835Y017528D02*
X024528Y017528D01*
X024528Y017988D01*
X030294Y011257D02*
X030524Y011257D01*
X030601Y011180D01*
X030601Y011027D01*
X030524Y010950D01*
X030294Y010950D01*
X030447Y010950D02*
X030601Y010796D01*
X030754Y010796D02*
X031061Y010796D01*
X030907Y010796D02*
X030907Y011257D01*
X030754Y011103D01*
X030294Y011257D02*
X030294Y010796D01*
X030797Y010120D02*
X030644Y009966D01*
X030797Y010120D02*
X030797Y009659D01*
X030644Y009659D02*
X030951Y009659D01*
X031104Y009736D02*
X031411Y010043D01*
X031411Y009736D01*
X031334Y009659D01*
X031181Y009659D01*
X031104Y009736D01*
X031104Y010043D01*
X031181Y010120D01*
X031334Y010120D01*
X031411Y010043D01*
X031564Y010120D02*
X031564Y009659D01*
X031564Y009813D02*
X031794Y009966D01*
X031564Y009813D02*
X031794Y009659D01*
X037528Y006392D02*
X037988Y006392D01*
X037988Y006545D02*
X037988Y006238D01*
X037988Y006085D02*
X037528Y005778D01*
X037528Y006085D02*
X037988Y005778D01*
X037681Y006238D02*
X037528Y006392D01*
X040528Y006468D02*
X040528Y006315D01*
X040604Y006238D01*
X040911Y006238D01*
X040988Y006315D01*
X040988Y006468D01*
X040911Y006545D01*
X040911Y006699D02*
X040834Y006699D01*
X040758Y006775D01*
X040758Y006929D01*
X040834Y007005D01*
X040911Y007005D01*
X040988Y006929D01*
X040988Y006775D01*
X040911Y006699D01*
X040758Y006775D02*
X040681Y006699D01*
X040604Y006699D01*
X040528Y006775D01*
X040528Y006929D01*
X040604Y007005D01*
X040681Y007005D01*
X040758Y006929D01*
X040758Y007159D02*
X040758Y007466D01*
X040911Y007619D02*
X040604Y007619D01*
X040528Y007696D01*
X040528Y007849D01*
X040604Y007926D01*
X040758Y007926D02*
X040758Y007773D01*
X040758Y007926D02*
X040911Y007926D01*
X040988Y007849D01*
X040988Y007696D01*
X040911Y007619D01*
X040604Y006545D02*
X040528Y006468D01*
X040528Y006085D02*
X040988Y006085D01*
X040988Y005778D02*
X040528Y005778D01*
X040681Y005931D01*
X040528Y006085D01*
X040738Y021278D02*
X040278Y021278D01*
X040431Y021431D01*
X040278Y021585D01*
X040738Y021585D01*
X040661Y021738D02*
X040738Y021815D01*
X040738Y021968D01*
X040661Y022045D01*
X040508Y022199D02*
X040508Y022505D01*
X040738Y022429D02*
X040278Y022429D01*
X040508Y022199D01*
X040354Y022045D02*
X040278Y021968D01*
X040278Y021815D01*
X040354Y021738D01*
X040661Y021738D01*
X037988Y021815D02*
X037911Y021738D01*
X037988Y021815D02*
X037988Y021968D01*
X037911Y022045D01*
X037834Y022045D01*
X037758Y021968D01*
X037758Y021815D01*
X037681Y021738D01*
X037604Y021738D01*
X037528Y021815D01*
X037528Y021968D01*
X037604Y022045D01*
X037604Y022199D02*
X037911Y022199D01*
X037988Y022275D01*
X037988Y022429D01*
X037911Y022505D01*
X037758Y022505D01*
X037758Y022352D01*
X037604Y022199D02*
X037528Y022275D01*
X037528Y022429D01*
X037604Y022505D01*
X037681Y022659D02*
X037528Y022812D01*
X037988Y022812D01*
X037988Y022659D02*
X037988Y022966D01*
X037988Y021585D02*
X037528Y021278D01*
X037528Y021585D02*
X037988Y021278D01*
X036038Y023431D02*
X035578Y023431D01*
X035578Y023278D02*
X035578Y023585D01*
X035578Y023738D02*
X036038Y023738D01*
X036038Y024045D01*
X036038Y024199D02*
X035961Y024199D01*
X035654Y024505D01*
X035578Y024505D01*
X035578Y024199D01*
X035578Y024659D02*
X035808Y024659D01*
X035731Y024812D01*
X035731Y024889D01*
X035808Y024966D01*
X035961Y024966D01*
X036038Y024889D01*
X036038Y024736D01*
X035961Y024659D01*
X035578Y024659D02*
X035578Y024966D01*
X035654Y025119D02*
X035578Y025196D01*
X035578Y025349D01*
X035654Y025426D01*
X035961Y025119D01*
X036038Y025196D01*
X036038Y025349D01*
X035961Y025426D01*
X035654Y025426D01*
X035578Y025580D02*
X036038Y025580D01*
X036038Y025887D01*
X035961Y026040D02*
X035654Y026347D01*
X035961Y026347D01*
X036038Y026270D01*
X036038Y026117D01*
X035961Y026040D01*
X035654Y026040D01*
X035578Y026117D01*
X035578Y026270D01*
X035654Y026347D01*
X035731Y026500D02*
X035578Y026654D01*
X036038Y026654D01*
X036038Y026807D02*
X036038Y026500D01*
X035961Y026961D02*
X035654Y026961D01*
X035578Y027037D01*
X035578Y027191D01*
X035654Y027268D01*
X035961Y026961D01*
X036038Y027037D01*
X036038Y027191D01*
X035961Y027268D01*
X035654Y027268D01*
X035654Y027421D02*
X035961Y027421D01*
X036038Y027498D01*
X036038Y027651D01*
X035961Y027728D01*
X035654Y027728D02*
X035578Y027651D01*
X035578Y027498D01*
X035654Y027421D01*
X035654Y025119D02*
X035961Y025119D01*
X033438Y024275D02*
X033438Y024122D01*
X033361Y024045D01*
X033361Y023892D02*
X033438Y023815D01*
X033438Y023661D01*
X033361Y023585D01*
X033054Y023585D01*
X032978Y023661D01*
X032978Y023815D01*
X033054Y023892D01*
X033054Y024045D02*
X032978Y024122D01*
X032978Y024275D01*
X033054Y024352D01*
X033131Y024352D01*
X033208Y024275D01*
X033284Y024352D01*
X033361Y024352D01*
X033438Y024275D01*
X033208Y024275D02*
X033208Y024199D01*
X033438Y023431D02*
X033438Y023278D01*
X033438Y023355D02*
X032978Y023355D01*
X032978Y023431D02*
X032978Y023278D01*
X029188Y027528D02*
X028881Y027528D01*
X028728Y027681D01*
X028881Y027835D01*
X029188Y027835D01*
X029188Y027988D02*
X029188Y028218D01*
X029111Y028295D01*
X028804Y028295D01*
X028728Y028218D01*
X028728Y027988D01*
X029188Y027988D01*
X028958Y027835D02*
X028958Y027528D01*
X029188Y028449D02*
X028728Y028755D01*
X028728Y028909D02*
X029188Y028909D01*
X029188Y029216D01*
X029111Y029369D02*
X029188Y029446D01*
X029188Y029599D01*
X029111Y029676D01*
X029034Y029676D01*
X028958Y029599D01*
X028958Y029523D01*
X028958Y029599D02*
X028881Y029676D01*
X028804Y029676D01*
X028728Y029599D01*
X028728Y029446D01*
X028804Y029369D01*
X028881Y029830D02*
X028728Y029983D01*
X029188Y029983D01*
X029188Y029830D02*
X029188Y030137D01*
X029188Y030290D02*
X029188Y030597D01*
X029188Y030443D02*
X028728Y030443D01*
X028881Y030290D01*
X029111Y030750D02*
X029188Y030827D01*
X029188Y030904D01*
X029111Y030981D01*
X028728Y030981D01*
X028728Y031057D02*
X028728Y030904D01*
X028728Y031211D02*
X029188Y031211D01*
X029188Y031518D01*
X028958Y031364D02*
X028958Y031211D01*
X028728Y031211D02*
X028728Y031518D01*
X029188Y028755D02*
X028728Y028449D01*
X026288Y028449D02*
X026288Y028755D01*
X026288Y028602D02*
X025828Y028602D01*
X025981Y028449D01*
X026288Y028295D02*
X026288Y027988D01*
X026288Y028142D02*
X025828Y028142D01*
X025981Y027988D01*
X025828Y027835D02*
X026211Y027835D01*
X026288Y027758D01*
X026288Y027605D01*
X026211Y027528D01*
X025828Y027528D01*
X024794Y032159D02*
X024564Y032313D01*
X024794Y032466D01*
X024564Y032620D02*
X024564Y032159D01*
X024411Y032236D02*
X024334Y032159D01*
X024181Y032159D01*
X024104Y032236D01*
X024411Y032543D01*
X024411Y032236D01*
X024411Y032543D02*
X024334Y032620D01*
X024181Y032620D01*
X024104Y032543D01*
X024104Y032236D01*
X023951Y032159D02*
X023644Y032159D01*
X023797Y032159D02*
X023797Y032620D01*
X023644Y032466D01*
X023601Y033296D02*
X023447Y033450D01*
X023524Y033450D02*
X023294Y033450D01*
X023294Y033296D02*
X023294Y033757D01*
X023524Y033757D01*
X023601Y033680D01*
X023601Y033527D01*
X023524Y033450D01*
X023754Y033527D02*
X024061Y033527D01*
X023984Y033757D02*
X023754Y033527D01*
X023984Y033296D02*
X023984Y033757D01*
X017468Y025493D02*
X017315Y025493D01*
X017238Y025416D01*
X017085Y025493D02*
X017085Y025110D01*
X017008Y025033D01*
X016855Y025033D01*
X016778Y025110D01*
X016778Y025493D01*
X017238Y025033D02*
X017545Y025340D01*
X017545Y025416D01*
X017468Y025493D01*
X017545Y025033D02*
X017238Y025033D01*
X008425Y032109D02*
X008194Y032263D01*
X008425Y032416D01*
X008194Y032570D02*
X008194Y032109D01*
X008041Y032493D02*
X007734Y032186D01*
X007734Y032109D01*
X007581Y032109D02*
X007504Y032109D01*
X007504Y032186D01*
X007581Y032186D01*
X007581Y032109D01*
X007274Y032109D02*
X007274Y032570D01*
X007044Y032340D01*
X007351Y032340D01*
X007734Y032570D02*
X008041Y032570D01*
X008041Y032493D01*
X007384Y033246D02*
X007231Y033246D01*
X007154Y033323D01*
X007154Y033477D01*
X007384Y033477D01*
X007461Y033400D01*
X007461Y033323D01*
X007384Y033246D01*
X007154Y033477D02*
X007307Y033630D01*
X007461Y033707D01*
X007001Y033630D02*
X007001Y033477D01*
X006924Y033400D01*
X006694Y033400D01*
X006847Y033400D02*
X007001Y033246D01*
X006694Y033246D02*
X006694Y033707D01*
X006924Y033707D01*
X007001Y033630D01*
X037528Y032389D02*
X037528Y032236D01*
X037604Y032159D01*
X037604Y032005D02*
X037528Y031929D01*
X037528Y031775D01*
X037604Y031699D01*
X037911Y031699D01*
X037988Y031775D01*
X037988Y031929D01*
X037911Y032005D01*
X037758Y032005D01*
X037758Y031852D01*
X037834Y031545D02*
X037911Y031545D01*
X037988Y031468D01*
X037988Y031315D01*
X037911Y031238D01*
X037988Y031085D02*
X037528Y030778D01*
X037528Y031085D02*
X037988Y030778D01*
X037681Y031238D02*
X037758Y031315D01*
X037758Y031468D01*
X037834Y031545D01*
X037604Y031545D02*
X037528Y031468D01*
X037528Y031315D01*
X037604Y031238D01*
X037681Y031238D01*
X037988Y032159D02*
X037681Y032466D01*
X037604Y032466D01*
X037528Y032389D01*
X037988Y032466D02*
X037988Y032159D01*
X040278Y031929D02*
X040508Y031699D01*
X040508Y032005D01*
X040738Y031929D02*
X040278Y031929D01*
X040354Y031545D02*
X040278Y031468D01*
X040278Y031315D01*
X040354Y031238D01*
X040661Y031238D01*
X040738Y031315D01*
X040738Y031468D01*
X040661Y031545D01*
X040738Y031085D02*
X040278Y031085D01*
X040431Y030931D01*
X040278Y030778D01*
X040738Y030778D01*
D13*
X036223Y030238D02*
X036029Y030238D01*
X036029Y029948D01*
X035928Y029948D02*
X035928Y030141D01*
X036029Y030093D02*
X036126Y030093D01*
X035928Y029948D02*
X035783Y029948D01*
X035734Y029996D01*
X035734Y030141D01*
X035633Y029948D02*
X035440Y029948D01*
X035537Y029948D02*
X035537Y030238D01*
X035440Y030141D01*
X035341Y029996D02*
X035293Y029996D01*
X035293Y029948D01*
X035341Y029948D01*
X035341Y029996D01*
X035191Y029996D02*
X035191Y030190D01*
X034998Y029996D01*
X035046Y029948D01*
X035143Y029948D01*
X035191Y029996D01*
X034998Y029996D02*
X034998Y030190D01*
X035046Y030238D01*
X035143Y030238D01*
X035191Y030190D01*
X035193Y030848D02*
X035241Y030896D01*
X035193Y030848D02*
X035096Y030848D01*
X035048Y030896D01*
X035048Y031090D01*
X035096Y031138D01*
X035193Y031138D01*
X035241Y031090D01*
X035343Y031138D02*
X035343Y030848D01*
X035488Y030848D01*
X035536Y030896D01*
X035536Y031090D01*
X035488Y031138D01*
X035343Y031138D01*
X035637Y031041D02*
X035734Y031138D01*
X035734Y030848D01*
X035637Y030848D02*
X035831Y030848D01*
X035932Y030896D02*
X035980Y030848D01*
X036077Y030848D01*
X036125Y030896D01*
X036125Y030993D01*
X036077Y031041D01*
X036029Y031041D01*
X035932Y030993D01*
X035932Y031138D01*
X036125Y031138D01*
X033806Y031115D02*
X033757Y031163D01*
X033661Y031163D01*
X033612Y031115D01*
X033612Y031066D01*
X033661Y031018D01*
X033806Y031018D01*
X033806Y030921D02*
X033806Y031115D01*
X033806Y030921D02*
X033757Y030873D01*
X033661Y030873D01*
X033612Y030921D01*
X033511Y030873D02*
X033318Y030873D01*
X033414Y030873D02*
X033414Y031163D01*
X033318Y031066D01*
X033216Y031018D02*
X033168Y030970D01*
X033023Y030970D01*
X033120Y030970D02*
X033216Y030873D01*
X033216Y031018D02*
X033216Y031115D01*
X033168Y031163D01*
X033023Y031163D01*
X033023Y030873D01*
X033168Y030213D02*
X033023Y030068D01*
X033216Y030068D01*
X033318Y029971D02*
X033511Y030165D01*
X033511Y029971D01*
X033463Y029923D01*
X033366Y029923D01*
X033318Y029971D01*
X033318Y030165D01*
X033366Y030213D01*
X033463Y030213D01*
X033511Y030165D01*
X033612Y030165D02*
X033661Y030213D01*
X033757Y030213D01*
X033806Y030165D01*
X033612Y029971D01*
X033661Y029923D01*
X033757Y029923D01*
X033806Y029971D01*
X033806Y030165D01*
X033612Y030165D02*
X033612Y029971D01*
X033168Y029923D02*
X033168Y030213D01*
X031517Y029238D02*
X031324Y029238D01*
X031324Y028948D01*
X031223Y028948D02*
X031223Y029141D01*
X031324Y029093D02*
X031421Y029093D01*
X031223Y028948D02*
X031077Y028948D01*
X031029Y028996D01*
X031029Y029141D01*
X030928Y029141D02*
X030928Y029190D01*
X030880Y029238D01*
X030783Y029238D01*
X030734Y029190D01*
X030633Y029190D02*
X030585Y029238D01*
X030488Y029238D01*
X030440Y029190D01*
X030633Y029190D02*
X030633Y029141D01*
X030440Y028948D01*
X030633Y028948D01*
X030734Y028948D02*
X030928Y029141D01*
X030928Y028948D02*
X030734Y028948D01*
X030341Y028948D02*
X030293Y028948D01*
X030293Y028996D01*
X030341Y028996D01*
X030341Y028948D01*
X030191Y028996D02*
X030143Y028948D01*
X030046Y028948D01*
X029998Y028996D01*
X030191Y029190D01*
X030191Y028996D01*
X029998Y028996D02*
X029998Y029190D01*
X030046Y029238D01*
X030143Y029238D01*
X030191Y029190D01*
X030193Y028638D02*
X030096Y028638D01*
X030048Y028590D01*
X030048Y028396D01*
X030096Y028348D01*
X030193Y028348D01*
X030241Y028396D01*
X030343Y028348D02*
X030536Y028348D01*
X030439Y028348D02*
X030439Y028638D01*
X030343Y028541D01*
X030241Y028590D02*
X030193Y028638D01*
X030143Y027738D02*
X030191Y027690D01*
X029998Y027496D01*
X030046Y027448D01*
X030143Y027448D01*
X030191Y027496D01*
X030191Y027690D01*
X030143Y027738D02*
X030046Y027738D01*
X029998Y027690D01*
X029998Y027496D01*
X030293Y027496D02*
X030341Y027496D01*
X030341Y027448D01*
X030293Y027448D01*
X030293Y027496D01*
X030440Y027448D02*
X030633Y027641D01*
X030633Y027690D01*
X030585Y027738D01*
X030488Y027738D01*
X030440Y027690D01*
X030440Y027448D02*
X030633Y027448D01*
X030734Y027448D02*
X030928Y027641D01*
X030928Y027690D01*
X030880Y027738D01*
X030783Y027738D01*
X030734Y027690D01*
X030734Y027448D02*
X030928Y027448D01*
X031029Y027496D02*
X031077Y027448D01*
X031223Y027448D01*
X031223Y027641D01*
X031324Y027593D02*
X031421Y027593D01*
X031517Y027738D02*
X031324Y027738D01*
X031324Y027448D01*
X031029Y027496D02*
X031029Y027641D01*
X030463Y026163D02*
X030511Y026115D01*
X030511Y026066D01*
X030463Y026018D01*
X030511Y025970D01*
X030511Y025921D01*
X030463Y025873D01*
X030366Y025873D01*
X030318Y025921D01*
X030216Y025873D02*
X030120Y025970D01*
X030168Y025970D02*
X030023Y025970D01*
X030023Y025873D02*
X030023Y026163D01*
X030168Y026163D01*
X030216Y026115D01*
X030216Y026018D01*
X030168Y025970D01*
X030318Y026115D02*
X030366Y026163D01*
X030463Y026163D01*
X030463Y026018D02*
X030414Y026018D01*
X030366Y025213D02*
X030463Y025213D01*
X030511Y025165D01*
X030318Y024971D01*
X030366Y024923D01*
X030463Y024923D01*
X030511Y024971D01*
X030511Y025165D01*
X030612Y025213D02*
X030612Y024923D01*
X030612Y025020D02*
X030757Y025116D01*
X030612Y025020D02*
X030757Y024923D01*
X030463Y024663D02*
X030511Y024615D01*
X030511Y024566D01*
X030463Y024518D01*
X030366Y024518D01*
X030318Y024566D01*
X030318Y024615D01*
X030366Y024663D01*
X030463Y024663D01*
X030463Y024518D02*
X030511Y024470D01*
X030511Y024421D01*
X030463Y024373D01*
X030366Y024373D01*
X030318Y024421D01*
X030318Y024470D01*
X030366Y024518D01*
X030216Y024518D02*
X030168Y024470D01*
X030023Y024470D01*
X030120Y024470D02*
X030216Y024373D01*
X030216Y024518D02*
X030216Y024615D01*
X030168Y024663D01*
X030023Y024663D01*
X030023Y024373D01*
X030023Y024923D02*
X030216Y024923D01*
X030120Y024923D02*
X030120Y025213D01*
X030023Y025116D01*
X030318Y025165D02*
X030366Y025213D01*
X030318Y025165D02*
X030318Y024971D01*
X031152Y024923D02*
X031346Y024923D01*
X031249Y024923D02*
X031249Y025213D01*
X031152Y025116D01*
X031447Y025165D02*
X031447Y025213D01*
X031495Y025213D01*
X031495Y025165D01*
X031447Y025165D01*
X031447Y024923D02*
X031689Y025213D01*
X031689Y024971D02*
X031689Y024923D01*
X031640Y024923D01*
X031640Y024971D01*
X031689Y024971D01*
X031689Y023713D02*
X031447Y023423D01*
X031346Y023423D02*
X031152Y023423D01*
X031249Y023423D02*
X031249Y023713D01*
X031152Y023616D01*
X031447Y023665D02*
X031447Y023713D01*
X031495Y023713D01*
X031495Y023665D01*
X031447Y023665D01*
X031640Y023471D02*
X031689Y023471D01*
X031689Y023423D01*
X031640Y023423D01*
X031640Y023471D01*
X030757Y023423D02*
X030612Y023520D01*
X030757Y023616D01*
X030612Y023713D02*
X030612Y023423D01*
X030511Y023471D02*
X030463Y023423D01*
X030366Y023423D01*
X030318Y023471D01*
X030511Y023665D01*
X030511Y023471D01*
X030318Y023471D02*
X030318Y023665D01*
X030366Y023713D01*
X030463Y023713D01*
X030511Y023665D01*
X030216Y023423D02*
X030023Y023423D01*
X030120Y023423D02*
X030120Y023713D01*
X030023Y023616D01*
X030023Y023163D02*
X030168Y023163D01*
X030216Y023115D01*
X030216Y023018D01*
X030168Y022970D01*
X030023Y022970D01*
X030120Y022970D02*
X030216Y022873D01*
X030318Y022873D02*
X030318Y022921D01*
X030511Y023115D01*
X030511Y023163D01*
X030318Y023163D01*
X030023Y023163D02*
X030023Y022873D01*
X030120Y022213D02*
X030120Y021923D01*
X030216Y021923D02*
X030023Y021923D01*
X030023Y022116D02*
X030120Y022213D01*
X030318Y022165D02*
X030366Y022213D01*
X030463Y022213D01*
X030511Y022165D01*
X030318Y021971D01*
X030366Y021923D01*
X030463Y021923D01*
X030511Y021971D01*
X030511Y022165D01*
X030612Y022213D02*
X030612Y021923D01*
X030612Y022020D02*
X030757Y022116D01*
X030612Y022020D02*
X030757Y021923D01*
X031152Y021923D02*
X031346Y021923D01*
X031249Y021923D02*
X031249Y022213D01*
X031152Y022116D01*
X031447Y022165D02*
X031447Y022213D01*
X031495Y022213D01*
X031495Y022165D01*
X031447Y022165D01*
X031447Y021923D02*
X031689Y022213D01*
X031689Y021971D02*
X031689Y021923D01*
X031640Y021923D01*
X031640Y021971D01*
X031689Y021971D01*
X030318Y021971D02*
X030318Y022165D01*
X028223Y020738D02*
X028029Y020738D01*
X028029Y020448D01*
X027928Y020448D02*
X027928Y020641D01*
X028029Y020593D02*
X028126Y020593D01*
X027928Y020448D02*
X027783Y020448D01*
X027734Y020496D01*
X027734Y020641D01*
X027633Y020448D02*
X027440Y020448D01*
X027537Y020448D02*
X027537Y020738D01*
X027440Y020641D01*
X027341Y020496D02*
X027341Y020448D01*
X027293Y020448D01*
X027293Y020496D01*
X027341Y020496D01*
X027191Y020496D02*
X027143Y020448D01*
X027046Y020448D01*
X026998Y020496D01*
X027191Y020690D01*
X027191Y020496D01*
X026998Y020496D02*
X026998Y020690D01*
X027046Y020738D01*
X027143Y020738D01*
X027191Y020690D01*
X027193Y021348D02*
X027241Y021396D01*
X027193Y021348D02*
X027096Y021348D01*
X027048Y021396D01*
X027048Y021590D01*
X027096Y021638D01*
X027193Y021638D01*
X027241Y021590D01*
X027343Y021638D02*
X027488Y021638D01*
X027536Y021590D01*
X027536Y021396D01*
X027488Y021348D01*
X027343Y021348D01*
X027343Y021638D01*
X027637Y021590D02*
X027686Y021638D01*
X027782Y021638D01*
X027831Y021590D01*
X027831Y021541D01*
X027637Y021348D01*
X027831Y021348D01*
X026189Y021923D02*
X026140Y021923D01*
X026140Y021971D01*
X026189Y021971D01*
X026189Y021923D01*
X025947Y021923D02*
X026189Y022213D01*
X025995Y022213D02*
X025995Y022165D01*
X025947Y022165D01*
X025947Y022213D01*
X025995Y022213D01*
X025749Y022213D02*
X025749Y021923D01*
X025652Y021923D02*
X025846Y021923D01*
X025652Y022116D02*
X025749Y022213D01*
X025257Y022116D02*
X025112Y022020D01*
X025257Y021923D01*
X025112Y021923D02*
X025112Y022213D01*
X025011Y022165D02*
X024818Y021971D01*
X024866Y021923D01*
X024963Y021923D01*
X025011Y021971D01*
X025011Y022165D01*
X024963Y022213D01*
X024866Y022213D01*
X024818Y022165D01*
X024818Y021971D01*
X024716Y021923D02*
X024523Y021923D01*
X024620Y021923D02*
X024620Y022213D01*
X024523Y022116D01*
X024523Y022873D02*
X024523Y023163D01*
X024668Y023163D01*
X024716Y023115D01*
X024716Y023018D01*
X024668Y022970D01*
X024523Y022970D01*
X024620Y022970D02*
X024716Y022873D01*
X024818Y022873D02*
X025011Y022873D01*
X024914Y022873D02*
X024914Y023163D01*
X024818Y023066D01*
X025112Y023066D02*
X025112Y023115D01*
X025161Y023163D01*
X025257Y023163D01*
X025306Y023115D01*
X025306Y023066D01*
X025257Y023018D01*
X025161Y023018D01*
X025112Y023066D01*
X025161Y023018D02*
X025112Y022970D01*
X025112Y022921D01*
X025161Y022873D01*
X025257Y022873D01*
X025306Y022921D01*
X025306Y022970D01*
X025257Y023018D01*
X025257Y023423D02*
X025112Y023520D01*
X025257Y023616D01*
X025112Y023713D02*
X025112Y023423D01*
X025011Y023471D02*
X024963Y023423D01*
X024866Y023423D01*
X024818Y023471D01*
X025011Y023665D01*
X025011Y023471D01*
X024818Y023471D02*
X024818Y023665D01*
X024866Y023713D01*
X024963Y023713D01*
X025011Y023665D01*
X024716Y023423D02*
X024523Y023423D01*
X024620Y023423D02*
X024620Y023713D01*
X024523Y023616D01*
X024523Y024373D02*
X024523Y024663D01*
X024668Y024663D01*
X024716Y024615D01*
X024716Y024518D01*
X024668Y024470D01*
X024523Y024470D01*
X024620Y024470D02*
X024716Y024373D01*
X024818Y024373D02*
X025011Y024373D01*
X024914Y024373D02*
X024914Y024663D01*
X024818Y024566D01*
X025112Y024518D02*
X025209Y024566D01*
X025257Y024566D01*
X025306Y024518D01*
X025306Y024421D01*
X025257Y024373D01*
X025161Y024373D01*
X025112Y024421D01*
X025112Y024518D02*
X025112Y024663D01*
X025306Y024663D01*
X025257Y024923D02*
X025112Y025020D01*
X025257Y025116D01*
X025112Y025213D02*
X025112Y024923D01*
X025011Y024971D02*
X024963Y024923D01*
X024866Y024923D01*
X024818Y024971D01*
X025011Y025165D01*
X025011Y024971D01*
X024818Y024971D02*
X024818Y025165D01*
X024866Y025213D01*
X024963Y025213D01*
X025011Y025165D01*
X024716Y024923D02*
X024523Y024923D01*
X024620Y024923D02*
X024620Y025213D01*
X024523Y025116D01*
X024523Y025873D02*
X024523Y026163D01*
X024668Y026163D01*
X024716Y026115D01*
X024716Y026018D01*
X024668Y025970D01*
X024523Y025970D01*
X024620Y025970D02*
X024716Y025873D01*
X024818Y025873D02*
X025011Y025873D01*
X024914Y025873D02*
X024914Y026163D01*
X024818Y026066D01*
X025112Y026115D02*
X025161Y026163D01*
X025257Y026163D01*
X025306Y026115D01*
X025112Y025921D01*
X025161Y025873D01*
X025257Y025873D01*
X025306Y025921D01*
X025306Y026115D01*
X025112Y026115D02*
X025112Y025921D01*
X025749Y025213D02*
X025652Y025116D01*
X025749Y025213D02*
X025749Y024923D01*
X025652Y024923D02*
X025846Y024923D01*
X025947Y024923D02*
X026189Y025213D01*
X025995Y025213D02*
X025995Y025165D01*
X025947Y025165D01*
X025947Y025213D01*
X025995Y025213D01*
X026140Y024971D02*
X026189Y024971D01*
X026189Y024923D01*
X026140Y024923D01*
X026140Y024971D01*
X026189Y023713D02*
X025947Y023423D01*
X025846Y023423D02*
X025652Y023423D01*
X025749Y023423D02*
X025749Y023713D01*
X025652Y023616D01*
X025947Y023665D02*
X025947Y023713D01*
X025995Y023713D01*
X025995Y023665D01*
X025947Y023665D01*
X026140Y023471D02*
X026189Y023471D01*
X026189Y023423D01*
X026140Y023423D01*
X026140Y023471D01*
X024529Y027448D02*
X024529Y027738D01*
X024723Y027738D01*
X024626Y027593D02*
X024529Y027593D01*
X024428Y027641D02*
X024428Y027448D01*
X024283Y027448D01*
X024234Y027496D01*
X024234Y027641D01*
X024133Y027448D02*
X023940Y027448D01*
X024037Y027448D02*
X024037Y027738D01*
X023940Y027641D01*
X023841Y027496D02*
X023793Y027496D01*
X023793Y027448D01*
X023841Y027448D01*
X023841Y027496D01*
X023691Y027496D02*
X023691Y027690D01*
X023498Y027496D01*
X023546Y027448D01*
X023643Y027448D01*
X023691Y027496D01*
X023498Y027496D02*
X023498Y027690D01*
X023546Y027738D01*
X023643Y027738D01*
X023691Y027690D01*
X023693Y028348D02*
X023741Y028396D01*
X023693Y028348D02*
X023596Y028348D01*
X023548Y028396D01*
X023548Y028590D01*
X023596Y028638D01*
X023693Y028638D01*
X023741Y028590D01*
X023843Y028541D02*
X023843Y028348D01*
X023843Y028493D02*
X024036Y028493D01*
X024036Y028541D02*
X024036Y028348D01*
X024137Y028445D02*
X024234Y028348D01*
X024331Y028445D01*
X024331Y028638D01*
X024432Y028590D02*
X024432Y028396D01*
X024480Y028348D01*
X024577Y028348D01*
X024625Y028396D01*
X024726Y028396D02*
X024775Y028348D01*
X024872Y028348D01*
X024920Y028396D01*
X025021Y028348D02*
X025215Y028541D01*
X025215Y028590D01*
X025166Y028638D01*
X025069Y028638D01*
X025021Y028590D01*
X024920Y028590D02*
X024872Y028638D01*
X024775Y028638D01*
X024726Y028590D01*
X024726Y028396D01*
X024625Y028590D02*
X024577Y028638D01*
X024480Y028638D01*
X024432Y028590D01*
X024137Y028638D02*
X024137Y028445D01*
X024036Y028541D02*
X023939Y028638D01*
X023843Y028541D01*
X023841Y028948D02*
X023793Y028948D01*
X023793Y028996D01*
X023841Y028996D01*
X023841Y028948D01*
X023940Y028948D02*
X024133Y028948D01*
X024037Y028948D02*
X024037Y029238D01*
X023940Y029141D01*
X023691Y029190D02*
X023498Y028996D01*
X023546Y028948D01*
X023643Y028948D01*
X023691Y028996D01*
X023691Y029190D01*
X023643Y029238D01*
X023546Y029238D01*
X023498Y029190D01*
X023498Y028996D01*
X024234Y028996D02*
X024283Y028948D01*
X024428Y028948D01*
X024428Y029141D01*
X024529Y029093D02*
X024626Y029093D01*
X024529Y029238D02*
X024723Y029238D01*
X024529Y029238D02*
X024529Y028948D01*
X024234Y028996D02*
X024234Y029141D01*
X024234Y029848D02*
X024331Y029945D01*
X024331Y030138D01*
X024432Y030090D02*
X024432Y029896D01*
X024480Y029848D01*
X024577Y029848D01*
X024625Y029896D01*
X024726Y029896D02*
X024775Y029848D01*
X024872Y029848D01*
X024920Y029896D01*
X025021Y029896D02*
X025069Y029848D01*
X025166Y029848D01*
X025215Y029896D01*
X025215Y029945D01*
X025166Y029993D01*
X025118Y029993D01*
X025166Y029993D02*
X025215Y030041D01*
X025215Y030090D01*
X025166Y030138D01*
X025069Y030138D01*
X025021Y030090D01*
X024920Y030090D02*
X024872Y030138D01*
X024775Y030138D01*
X024726Y030090D01*
X024726Y029896D01*
X024625Y030090D02*
X024577Y030138D01*
X024480Y030138D01*
X024432Y030090D01*
X024137Y030138D02*
X024137Y029945D01*
X024234Y029848D01*
X024036Y029848D02*
X024036Y030041D01*
X023939Y030138D01*
X023843Y030041D01*
X023843Y029848D01*
X023741Y029896D02*
X023693Y029848D01*
X023596Y029848D01*
X023548Y029896D01*
X023548Y030090D01*
X023596Y030138D01*
X023693Y030138D01*
X023741Y030090D01*
X023843Y029993D02*
X024036Y029993D01*
X025021Y028348D02*
X025215Y028348D01*
X021068Y027029D02*
X020778Y027029D01*
X020778Y027223D01*
X020923Y027126D02*
X020923Y027029D01*
X020874Y026928D02*
X021068Y026928D01*
X021068Y026783D01*
X021020Y026734D01*
X020874Y026734D01*
X021068Y026633D02*
X021068Y026440D01*
X021068Y026537D02*
X020778Y026537D01*
X020874Y026440D01*
X021020Y026341D02*
X021068Y026341D01*
X021068Y026293D01*
X021020Y026293D01*
X021020Y026341D01*
X021020Y026191D02*
X021068Y026143D01*
X021068Y026046D01*
X021020Y025998D01*
X020826Y026191D01*
X021020Y026191D01*
X021020Y025998D02*
X020826Y025998D01*
X020778Y026046D01*
X020778Y026143D01*
X020826Y026191D01*
X020168Y026193D02*
X020120Y026241D01*
X020168Y026193D02*
X020168Y026096D01*
X020120Y026048D01*
X019926Y026048D01*
X019878Y026096D01*
X019878Y026193D01*
X019926Y026241D01*
X019878Y026343D02*
X019878Y026488D01*
X019926Y026536D01*
X020120Y026536D01*
X020168Y026488D01*
X020168Y026343D01*
X019878Y026343D01*
X019926Y026637D02*
X019878Y026686D01*
X019878Y026782D01*
X019926Y026831D01*
X019974Y026831D01*
X020023Y026782D01*
X020071Y026831D01*
X020120Y026831D01*
X020168Y026782D01*
X020168Y026686D01*
X020120Y026637D01*
X020023Y026734D02*
X020023Y026782D01*
X019568Y026783D02*
X019520Y026734D01*
X019374Y026734D01*
X019374Y026928D02*
X019568Y026928D01*
X019568Y026783D01*
X019568Y026633D02*
X019568Y026440D01*
X019568Y026537D02*
X019278Y026537D01*
X019374Y026440D01*
X019520Y026341D02*
X019568Y026341D01*
X019568Y026293D01*
X019520Y026293D01*
X019520Y026341D01*
X019520Y026191D02*
X019568Y026143D01*
X019568Y026046D01*
X019520Y025998D01*
X019326Y026191D01*
X019520Y026191D01*
X019520Y025998D02*
X019326Y025998D01*
X019278Y026046D01*
X019278Y026143D01*
X019326Y026191D01*
X018668Y026193D02*
X018620Y026241D01*
X018668Y026193D02*
X018668Y026096D01*
X018620Y026048D01*
X018426Y026048D01*
X018378Y026096D01*
X018378Y026193D01*
X018426Y026241D01*
X018474Y026343D02*
X018378Y026439D01*
X018474Y026536D01*
X018668Y026536D01*
X018668Y026637D02*
X018378Y026637D01*
X018378Y026782D01*
X018426Y026831D01*
X018523Y026831D01*
X018571Y026782D01*
X018571Y026637D01*
X018571Y026734D02*
X018668Y026831D01*
X018668Y026932D02*
X018668Y027125D01*
X018668Y027226D02*
X018378Y027226D01*
X018378Y027420D01*
X018474Y027521D02*
X018378Y027618D01*
X018668Y027618D01*
X018668Y027521D02*
X018668Y027715D01*
X018523Y027323D02*
X018523Y027226D01*
X018378Y027125D02*
X018378Y026932D01*
X018668Y026932D01*
X018523Y026932D02*
X018523Y027029D01*
X018068Y027029D02*
X017778Y027029D01*
X017778Y027223D01*
X017923Y027126D02*
X017923Y027029D01*
X017874Y026928D02*
X018068Y026928D01*
X018068Y026783D01*
X018020Y026734D01*
X017874Y026734D01*
X018068Y026633D02*
X018068Y026440D01*
X018068Y026537D02*
X017778Y026537D01*
X017874Y026440D01*
X018020Y026341D02*
X018068Y026341D01*
X018068Y026293D01*
X018020Y026293D01*
X018020Y026341D01*
X018020Y026191D02*
X018068Y026143D01*
X018068Y026046D01*
X018020Y025998D01*
X017826Y026191D01*
X018020Y026191D01*
X018020Y025998D02*
X017826Y025998D01*
X017778Y026046D01*
X017778Y026143D01*
X017826Y026191D01*
X017168Y026193D02*
X017120Y026241D01*
X017168Y026193D02*
X017168Y026096D01*
X017120Y026048D01*
X016926Y026048D01*
X016878Y026096D01*
X016878Y026193D01*
X016926Y026241D01*
X016974Y026343D02*
X016878Y026439D01*
X016974Y026536D01*
X017168Y026536D01*
X017071Y026637D02*
X017168Y026734D01*
X017071Y026831D01*
X016878Y026831D01*
X016926Y026932D02*
X017120Y026932D01*
X017168Y026980D01*
X017168Y027077D01*
X017120Y027125D01*
X017120Y027226D02*
X016926Y027226D01*
X016878Y027275D01*
X016878Y027372D01*
X016926Y027420D01*
X016974Y027521D02*
X016878Y027618D01*
X017168Y027618D01*
X017168Y027521D02*
X017168Y027715D01*
X017120Y027420D02*
X017168Y027372D01*
X017168Y027275D01*
X017120Y027226D01*
X016926Y027125D02*
X016878Y027077D01*
X016878Y026980D01*
X016926Y026932D01*
X016878Y026637D02*
X017071Y026637D01*
X017023Y026536D02*
X017023Y026343D01*
X016974Y026343D02*
X017168Y026343D01*
X016613Y026432D02*
X016613Y026529D01*
X016565Y026577D01*
X016613Y026678D02*
X016613Y026872D01*
X016613Y026775D02*
X016323Y026775D01*
X016419Y026678D01*
X016371Y026577D02*
X016323Y026529D01*
X016323Y026432D01*
X016371Y026384D01*
X016565Y026384D01*
X016613Y026432D01*
X016565Y026282D02*
X016613Y026234D01*
X016613Y026137D01*
X016565Y026089D01*
X016371Y026089D01*
X016323Y026137D01*
X016323Y026234D01*
X016371Y026282D01*
X016323Y025988D02*
X016516Y025988D01*
X016613Y025891D01*
X016516Y025794D01*
X016323Y025794D01*
X016419Y025693D02*
X016613Y025693D01*
X016468Y025693D02*
X016468Y025500D01*
X016419Y025500D02*
X016323Y025596D01*
X016419Y025693D01*
X016419Y025500D02*
X016613Y025500D01*
X016613Y025398D02*
X016613Y025205D01*
X016323Y025205D01*
X015763Y025794D02*
X015763Y025988D01*
X015763Y025891D02*
X015473Y025891D01*
X015569Y025794D01*
X015521Y026089D02*
X015473Y026137D01*
X015473Y026234D01*
X015521Y026282D01*
X015715Y026089D01*
X015763Y026137D01*
X015763Y026234D01*
X015715Y026282D01*
X015521Y026282D01*
X015569Y026384D02*
X015715Y026384D01*
X015763Y026432D01*
X015763Y026577D01*
X015569Y026577D01*
X015618Y026678D02*
X015618Y026872D01*
X015473Y026872D02*
X015763Y026872D01*
X015763Y026678D02*
X015473Y026678D01*
X015521Y026089D02*
X015715Y026089D01*
X018474Y026343D02*
X018668Y026343D01*
X018523Y026343D02*
X018523Y026536D01*
X019278Y027029D02*
X019278Y027223D01*
X019423Y027126D02*
X019423Y027029D01*
X019568Y027029D02*
X019278Y027029D01*
X011028Y019982D02*
X011028Y019691D01*
X010931Y019691D02*
X011125Y019691D01*
X010931Y019885D02*
X011028Y019982D01*
X010830Y019933D02*
X010830Y019740D01*
X010782Y019691D01*
X010636Y019691D01*
X010636Y019982D01*
X010782Y019982D01*
X010830Y019933D01*
X010535Y019933D02*
X010487Y019982D01*
X010390Y019982D01*
X010342Y019933D01*
X010342Y019740D01*
X010390Y019691D01*
X010487Y019691D01*
X010535Y019740D01*
X010439Y018362D02*
X010439Y018072D01*
X010535Y018072D02*
X010342Y018072D01*
X010342Y018266D02*
X010439Y018362D01*
X010636Y018314D02*
X010636Y018120D01*
X010830Y018314D01*
X010830Y018120D01*
X010782Y018072D01*
X010685Y018072D01*
X010636Y018120D01*
X010636Y018314D02*
X010685Y018362D01*
X010782Y018362D01*
X010830Y018314D01*
X010931Y018266D02*
X010931Y018120D01*
X010979Y018072D01*
X011125Y018072D01*
X011125Y018266D01*
X011226Y018217D02*
X011322Y018217D01*
X011226Y018072D02*
X011226Y018362D01*
X011419Y018362D01*
X011815Y018314D02*
X011863Y018362D01*
X011960Y018362D01*
X012008Y018314D01*
X012008Y018266D01*
X011815Y018072D01*
X012008Y018072D01*
X012110Y018120D02*
X012158Y018072D01*
X012255Y018072D01*
X012303Y018120D01*
X012303Y018217D01*
X012255Y018266D01*
X012206Y018266D01*
X012110Y018217D01*
X012110Y018362D01*
X012303Y018362D01*
X012404Y018266D02*
X012501Y018072D01*
X012598Y018266D01*
X014023Y016663D02*
X014168Y016663D01*
X014216Y016615D01*
X014216Y016518D01*
X014168Y016470D01*
X014023Y016470D01*
X014120Y016470D02*
X014216Y016373D01*
X014318Y016421D02*
X014366Y016373D01*
X014463Y016373D01*
X014511Y016421D01*
X014511Y016615D01*
X014463Y016663D01*
X014366Y016663D01*
X014318Y016615D01*
X014318Y016421D01*
X014612Y016373D02*
X014806Y016373D01*
X014709Y016373D02*
X014709Y016663D01*
X014612Y016566D01*
X014023Y016663D02*
X014023Y016373D01*
X014120Y015713D02*
X014120Y015423D01*
X014216Y015423D02*
X014023Y015423D01*
X014023Y015616D02*
X014120Y015713D01*
X014318Y015665D02*
X014318Y015471D01*
X014511Y015665D01*
X014511Y015471D01*
X014463Y015423D01*
X014366Y015423D01*
X014318Y015471D01*
X014318Y015665D02*
X014366Y015713D01*
X014463Y015713D01*
X014511Y015665D01*
X014612Y015713D02*
X014612Y015423D01*
X014612Y015520D02*
X014757Y015616D01*
X014612Y015520D02*
X014757Y015423D01*
X015152Y015423D02*
X015346Y015423D01*
X015249Y015423D02*
X015249Y015713D01*
X015152Y015616D01*
X015447Y015665D02*
X015447Y015713D01*
X015495Y015713D01*
X015495Y015665D01*
X015447Y015665D01*
X015447Y015423D02*
X015689Y015713D01*
X015689Y015471D02*
X015689Y015423D01*
X015640Y015423D01*
X015640Y015471D01*
X015689Y015471D01*
X018048Y014090D02*
X018048Y013896D01*
X018096Y013848D01*
X018193Y013848D01*
X018241Y013896D01*
X018343Y013848D02*
X018536Y014138D01*
X018637Y014090D02*
X018686Y014138D01*
X018782Y014138D01*
X018831Y014090D01*
X018831Y014041D01*
X018637Y013848D01*
X018831Y013848D01*
X018536Y013848D02*
X018343Y014138D01*
X018241Y014090D02*
X018193Y014138D01*
X018096Y014138D01*
X018048Y014090D01*
X018095Y013238D02*
X018095Y012948D01*
X018191Y012948D02*
X017998Y012948D01*
X017998Y013141D02*
X018095Y013238D01*
X018293Y013190D02*
X018293Y013141D01*
X018341Y013093D01*
X018438Y013093D01*
X018486Y013045D01*
X018486Y012996D01*
X018438Y012948D01*
X018341Y012948D01*
X018293Y012996D01*
X018293Y013045D01*
X018341Y013093D01*
X018438Y013093D02*
X018486Y013141D01*
X018486Y013190D01*
X018438Y013238D01*
X018341Y013238D01*
X018293Y013190D01*
X018587Y013141D02*
X018732Y013141D01*
X018781Y013093D01*
X018781Y012996D01*
X018732Y012948D01*
X018587Y012948D01*
X018587Y012851D02*
X018587Y013141D01*
X019998Y013141D02*
X020095Y013238D01*
X020095Y012948D01*
X020191Y012948D02*
X019998Y012948D01*
X020293Y012996D02*
X020293Y013045D01*
X020341Y013093D01*
X020438Y013093D01*
X020486Y013045D01*
X020486Y012996D01*
X020438Y012948D01*
X020341Y012948D01*
X020293Y012996D01*
X020341Y013093D02*
X020293Y013141D01*
X020293Y013190D01*
X020341Y013238D01*
X020438Y013238D01*
X020486Y013190D01*
X020486Y013141D01*
X020438Y013093D01*
X020587Y013141D02*
X020732Y013141D01*
X020781Y013093D01*
X020781Y012996D01*
X020732Y012948D01*
X020587Y012948D01*
X020587Y012851D02*
X020587Y013141D01*
X020637Y013848D02*
X020831Y013848D01*
X020734Y013848D02*
X020734Y014138D01*
X020637Y014041D01*
X020536Y014138D02*
X020343Y013848D01*
X020241Y013896D02*
X020193Y013848D01*
X020096Y013848D01*
X020048Y013896D01*
X020048Y014090D01*
X020096Y014138D01*
X020193Y014138D01*
X020241Y014090D01*
X020343Y014138D02*
X020536Y013848D01*
X021596Y010138D02*
X021548Y010090D01*
X021548Y009896D01*
X021596Y009848D01*
X021693Y009848D01*
X021741Y009896D01*
X021843Y009993D02*
X022036Y009993D01*
X021988Y009848D02*
X021988Y010138D01*
X021843Y009993D01*
X021741Y010090D02*
X021693Y010138D01*
X021596Y010138D01*
X021595Y009238D02*
X021498Y009141D01*
X021595Y009238D02*
X021595Y008948D01*
X021691Y008948D02*
X021498Y008948D01*
X021793Y008948D02*
X021841Y008948D01*
X021841Y008996D01*
X021793Y008996D01*
X021793Y008948D01*
X021940Y008996D02*
X022133Y009190D01*
X022133Y008996D01*
X022085Y008948D01*
X021988Y008948D01*
X021940Y008996D01*
X021940Y009190D01*
X021988Y009238D01*
X022085Y009238D01*
X022133Y009190D01*
X022234Y009141D02*
X022234Y008996D01*
X022283Y008948D01*
X022428Y008948D01*
X022428Y009141D01*
X022529Y009093D02*
X022626Y009093D01*
X022529Y009238D02*
X022723Y009238D01*
X022529Y009238D02*
X022529Y008948D01*
X023498Y008948D02*
X023691Y008948D01*
X023595Y008948D02*
X023595Y009238D01*
X023498Y009141D01*
X023793Y008996D02*
X023841Y008996D01*
X023841Y008948D01*
X023793Y008948D01*
X023793Y008996D01*
X023940Y008996D02*
X024133Y009190D01*
X024133Y008996D01*
X024085Y008948D01*
X023988Y008948D01*
X023940Y008996D01*
X023940Y009190D01*
X023988Y009238D01*
X024085Y009238D01*
X024133Y009190D01*
X024234Y009141D02*
X024234Y008996D01*
X024283Y008948D01*
X024428Y008948D01*
X024428Y009141D01*
X024529Y009093D02*
X024626Y009093D01*
X024529Y009238D02*
X024723Y009238D01*
X024529Y009238D02*
X024529Y008948D01*
X025498Y008948D02*
X025691Y008948D01*
X025595Y008948D02*
X025595Y009238D01*
X025498Y009141D01*
X025793Y008996D02*
X025841Y008996D01*
X025841Y008948D01*
X025793Y008948D01*
X025793Y008996D01*
X025940Y008996D02*
X026133Y009190D01*
X026133Y008996D01*
X026085Y008948D01*
X025988Y008948D01*
X025940Y008996D01*
X025940Y009190D01*
X025988Y009238D01*
X026085Y009238D01*
X026133Y009190D01*
X026234Y009141D02*
X026234Y008996D01*
X026283Y008948D01*
X026428Y008948D01*
X026428Y009141D01*
X026529Y009093D02*
X026626Y009093D01*
X026529Y009238D02*
X026723Y009238D01*
X026529Y009238D02*
X026529Y008948D01*
X027498Y008948D02*
X027691Y008948D01*
X027595Y008948D02*
X027595Y009238D01*
X027498Y009141D01*
X027793Y008996D02*
X027841Y008996D01*
X027841Y008948D01*
X027793Y008948D01*
X027793Y008996D01*
X027940Y008996D02*
X028133Y009190D01*
X028133Y008996D01*
X028085Y008948D01*
X027988Y008948D01*
X027940Y008996D01*
X027940Y009190D01*
X027988Y009238D01*
X028085Y009238D01*
X028133Y009190D01*
X028234Y009141D02*
X028234Y008996D01*
X028283Y008948D01*
X028428Y008948D01*
X028428Y009141D01*
X028529Y009093D02*
X028626Y009093D01*
X028529Y009238D02*
X028723Y009238D01*
X028529Y009238D02*
X028529Y008948D01*
X027843Y009848D02*
X027843Y009896D01*
X028036Y010090D01*
X028036Y010138D01*
X027843Y010138D01*
X027741Y010090D02*
X027693Y010138D01*
X027596Y010138D01*
X027548Y010090D01*
X027548Y009896D01*
X027596Y009848D01*
X027693Y009848D01*
X027741Y009896D01*
X026036Y009896D02*
X025988Y009848D01*
X025891Y009848D01*
X025843Y009896D01*
X025843Y009993D01*
X025988Y009993D01*
X026036Y009945D01*
X026036Y009896D01*
X025939Y010090D02*
X025843Y009993D01*
X025939Y010090D02*
X026036Y010138D01*
X025741Y010090D02*
X025693Y010138D01*
X025596Y010138D01*
X025548Y010090D01*
X025548Y009896D01*
X025596Y009848D01*
X025693Y009848D01*
X025741Y009896D01*
X024036Y009896D02*
X023988Y009848D01*
X023891Y009848D01*
X023843Y009896D01*
X023843Y009993D02*
X023939Y010041D01*
X023988Y010041D01*
X024036Y009993D01*
X024036Y009896D01*
X023843Y009993D02*
X023843Y010138D01*
X024036Y010138D01*
X023741Y010090D02*
X023693Y010138D01*
X023596Y010138D01*
X023548Y010090D01*
X023548Y009896D01*
X023596Y009848D01*
X023693Y009848D01*
X023741Y009896D01*
X021125Y007590D02*
X021077Y007638D01*
X020980Y007638D01*
X020932Y007590D01*
X020932Y007396D01*
X021125Y007590D01*
X021125Y007396D01*
X021077Y007348D01*
X020980Y007348D01*
X020932Y007396D01*
X020831Y007348D02*
X020637Y007348D01*
X020734Y007348D02*
X020734Y007638D01*
X020637Y007541D01*
X020536Y007590D02*
X020536Y007396D01*
X020488Y007348D01*
X020343Y007348D01*
X020343Y007638D01*
X020488Y007638D01*
X020536Y007590D01*
X020241Y007590D02*
X020193Y007638D01*
X020096Y007638D01*
X020048Y007590D01*
X020048Y007396D01*
X020096Y007348D01*
X020193Y007348D01*
X020241Y007396D01*
X020143Y006738D02*
X020191Y006690D01*
X019998Y006496D01*
X020046Y006448D01*
X020143Y006448D01*
X020191Y006496D01*
X020191Y006690D01*
X020143Y006738D02*
X020046Y006738D01*
X019998Y006690D01*
X019998Y006496D01*
X020293Y006496D02*
X020341Y006496D01*
X020341Y006448D01*
X020293Y006448D01*
X020293Y006496D01*
X020440Y006448D02*
X020633Y006448D01*
X020537Y006448D02*
X020537Y006738D01*
X020440Y006641D01*
X020734Y006641D02*
X020734Y006496D01*
X020783Y006448D01*
X020928Y006448D01*
X020928Y006641D01*
X021029Y006593D02*
X021126Y006593D01*
X021029Y006738D02*
X021223Y006738D01*
X021029Y006738D02*
X021029Y006448D01*
X026498Y006496D02*
X026691Y006690D01*
X026691Y006496D01*
X026643Y006448D01*
X026546Y006448D01*
X026498Y006496D01*
X026498Y006690D01*
X026546Y006738D01*
X026643Y006738D01*
X026691Y006690D01*
X026793Y006496D02*
X026841Y006496D01*
X026841Y006448D01*
X026793Y006448D01*
X026793Y006496D01*
X026940Y006448D02*
X027133Y006448D01*
X027037Y006448D02*
X027037Y006738D01*
X026940Y006641D01*
X027234Y006641D02*
X027234Y006496D01*
X027283Y006448D01*
X027428Y006448D01*
X027428Y006641D01*
X027529Y006593D02*
X027626Y006593D01*
X027529Y006738D02*
X027723Y006738D01*
X027529Y006738D02*
X027529Y006448D01*
X027625Y007348D02*
X027432Y007348D01*
X027625Y007541D01*
X027625Y007590D01*
X027577Y007638D01*
X027480Y007638D01*
X027432Y007590D01*
X027234Y007638D02*
X027234Y007348D01*
X027137Y007348D02*
X027331Y007348D01*
X027137Y007541D02*
X027234Y007638D01*
X027036Y007590D02*
X027036Y007396D01*
X026988Y007348D01*
X026843Y007348D01*
X026843Y007638D01*
X026988Y007638D01*
X027036Y007590D01*
X026741Y007590D02*
X026693Y007638D01*
X026596Y007638D01*
X026548Y007590D01*
X026548Y007396D01*
X026596Y007348D01*
X026693Y007348D01*
X026741Y007396D01*
X032998Y006690D02*
X032998Y006496D01*
X033191Y006690D01*
X033191Y006496D01*
X033143Y006448D01*
X033046Y006448D01*
X032998Y006496D01*
X032998Y006690D02*
X033046Y006738D01*
X033143Y006738D01*
X033191Y006690D01*
X033293Y006496D02*
X033341Y006496D01*
X033341Y006448D01*
X033293Y006448D01*
X033293Y006496D01*
X033440Y006448D02*
X033633Y006448D01*
X033537Y006448D02*
X033537Y006738D01*
X033440Y006641D01*
X033734Y006641D02*
X033734Y006496D01*
X033783Y006448D01*
X033928Y006448D01*
X033928Y006641D01*
X034029Y006593D02*
X034126Y006593D01*
X034029Y006738D02*
X034223Y006738D01*
X034029Y006738D02*
X034029Y006448D01*
X034077Y007348D02*
X033980Y007348D01*
X033932Y007396D01*
X033932Y007445D01*
X033980Y007493D01*
X034077Y007493D01*
X034125Y007445D01*
X034125Y007396D01*
X034077Y007348D01*
X034077Y007493D02*
X034125Y007541D01*
X034125Y007590D01*
X034077Y007638D01*
X033980Y007638D01*
X033932Y007590D01*
X033932Y007541D01*
X033980Y007493D01*
X033831Y007348D02*
X033637Y007348D01*
X033734Y007348D02*
X033734Y007638D01*
X033637Y007541D01*
X033536Y007590D02*
X033488Y007638D01*
X033343Y007638D01*
X033343Y007348D01*
X033488Y007348D01*
X033536Y007396D01*
X033536Y007590D01*
X033241Y007590D02*
X033193Y007638D01*
X033096Y007638D01*
X033048Y007590D01*
X033048Y007396D01*
X033096Y007348D01*
X033193Y007348D01*
X033241Y007396D01*
X035498Y008496D02*
X035691Y008690D01*
X035691Y008496D01*
X035643Y008448D01*
X035546Y008448D01*
X035498Y008496D01*
X035498Y008690D01*
X035546Y008738D01*
X035643Y008738D01*
X035691Y008690D01*
X035793Y008496D02*
X035841Y008496D01*
X035841Y008448D01*
X035793Y008448D01*
X035793Y008496D01*
X035940Y008448D02*
X036133Y008448D01*
X036037Y008448D02*
X036037Y008738D01*
X035940Y008641D01*
X036234Y008641D02*
X036234Y008496D01*
X036283Y008448D01*
X036428Y008448D01*
X036428Y008641D01*
X036529Y008593D02*
X036626Y008593D01*
X036529Y008738D02*
X036723Y008738D01*
X036529Y008738D02*
X036529Y008448D01*
X035988Y009348D02*
X035891Y009348D01*
X035843Y009396D01*
X035741Y009396D02*
X035693Y009348D01*
X035596Y009348D01*
X035548Y009396D01*
X035548Y009590D01*
X035596Y009638D01*
X035693Y009638D01*
X035741Y009590D01*
X035843Y009590D02*
X035891Y009638D01*
X035988Y009638D01*
X036036Y009590D01*
X036036Y009541D01*
X035988Y009493D01*
X036036Y009445D01*
X036036Y009396D01*
X035988Y009348D01*
X035988Y009493D02*
X035939Y009493D01*
X035940Y009948D02*
X036133Y009948D01*
X036037Y009948D02*
X036037Y010238D01*
X035940Y010141D01*
X035841Y009996D02*
X035841Y009948D01*
X035793Y009948D01*
X035793Y009996D01*
X035841Y009996D01*
X035691Y009996D02*
X035643Y009948D01*
X035546Y009948D01*
X035498Y009996D01*
X035691Y010190D01*
X035691Y009996D01*
X035498Y009996D02*
X035498Y010190D01*
X035546Y010238D01*
X035643Y010238D01*
X035691Y010190D01*
X036234Y010141D02*
X036234Y009996D01*
X036283Y009948D01*
X036428Y009948D01*
X036428Y010141D01*
X036529Y010093D02*
X036626Y010093D01*
X036529Y010238D02*
X036723Y010238D01*
X036529Y010238D02*
X036529Y009948D01*
X036331Y010848D02*
X036137Y010848D01*
X036234Y010848D02*
X036234Y011138D01*
X036137Y011041D01*
X036036Y010848D02*
X035843Y010848D01*
X035939Y010848D02*
X035939Y011138D01*
X035843Y011041D01*
X035741Y011090D02*
X035693Y011138D01*
X035596Y011138D01*
X035548Y011090D01*
X035548Y010896D01*
X035596Y010848D01*
X035693Y010848D01*
X035741Y010896D01*
X035793Y011448D02*
X035841Y011448D01*
X035841Y011496D01*
X035793Y011496D01*
X035793Y011448D01*
X035691Y011496D02*
X035691Y011690D01*
X035498Y011496D01*
X035546Y011448D01*
X035643Y011448D01*
X035691Y011496D01*
X035498Y011496D02*
X035498Y011690D01*
X035546Y011738D01*
X035643Y011738D01*
X035691Y011690D01*
X035940Y011641D02*
X036037Y011738D01*
X036037Y011448D01*
X036133Y011448D02*
X035940Y011448D01*
X036234Y011496D02*
X036234Y011641D01*
X036234Y011496D02*
X036283Y011448D01*
X036428Y011448D01*
X036428Y011641D01*
X036529Y011593D02*
X036626Y011593D01*
X036529Y011738D02*
X036723Y011738D01*
X036529Y011738D02*
X036529Y011448D01*
X036282Y012348D02*
X036282Y012638D01*
X036137Y012493D01*
X036331Y012493D01*
X036036Y012348D02*
X035843Y012348D01*
X035939Y012348D02*
X035939Y012638D01*
X035843Y012541D01*
X035741Y012590D02*
X035693Y012638D01*
X035596Y012638D01*
X035548Y012590D01*
X035548Y012396D01*
X035596Y012348D01*
X035693Y012348D01*
X035741Y012396D01*
X035793Y012948D02*
X035841Y012948D01*
X035841Y012996D01*
X035793Y012996D01*
X035793Y012948D01*
X035691Y012996D02*
X035691Y013190D01*
X035498Y012996D01*
X035546Y012948D01*
X035643Y012948D01*
X035691Y012996D01*
X035498Y012996D02*
X035498Y013190D01*
X035546Y013238D01*
X035643Y013238D01*
X035691Y013190D01*
X035940Y013141D02*
X036037Y013238D01*
X036037Y012948D01*
X036133Y012948D02*
X035940Y012948D01*
X036234Y012996D02*
X036283Y012948D01*
X036428Y012948D01*
X036428Y013141D01*
X036529Y013093D02*
X036626Y013093D01*
X036529Y013238D02*
X036723Y013238D01*
X036529Y013238D02*
X036529Y012948D01*
X036234Y012996D02*
X036234Y013141D01*
X036282Y013848D02*
X036186Y013848D01*
X036137Y013896D01*
X036137Y013993D02*
X036234Y014041D01*
X036282Y014041D01*
X036331Y013993D01*
X036331Y013896D01*
X036282Y013848D01*
X036137Y013993D02*
X036137Y014138D01*
X036331Y014138D01*
X036036Y014090D02*
X036036Y013896D01*
X035988Y013848D01*
X035843Y013848D01*
X035843Y014138D01*
X035988Y014138D01*
X036036Y014090D01*
X035741Y014090D02*
X035693Y014138D01*
X035596Y014138D01*
X035548Y014090D01*
X035548Y013896D01*
X035596Y013848D01*
X035693Y013848D01*
X035741Y013896D01*
X035554Y019534D02*
X035458Y019534D01*
X035409Y019583D01*
X035308Y019534D02*
X035115Y019534D01*
X035211Y019534D02*
X035211Y019825D01*
X035115Y019728D01*
X035014Y019776D02*
X034965Y019825D01*
X034820Y019825D01*
X034820Y019534D01*
X034965Y019534D01*
X035014Y019583D01*
X035014Y019776D01*
X034719Y019776D02*
X034671Y019825D01*
X034574Y019825D01*
X034525Y019776D01*
X034525Y019583D01*
X034574Y019534D01*
X034671Y019534D01*
X034719Y019583D01*
X035409Y019776D02*
X035458Y019825D01*
X035554Y019825D01*
X035603Y019776D01*
X035603Y019728D01*
X035554Y019679D01*
X035603Y019631D01*
X035603Y019583D01*
X035554Y019534D01*
X035554Y019679D02*
X035506Y019679D01*
X035506Y021154D02*
X035603Y021347D01*
X035409Y021347D02*
X035506Y021154D01*
X035308Y021202D02*
X035260Y021154D01*
X035163Y021154D01*
X035115Y021202D01*
X035115Y021299D02*
X035211Y021347D01*
X035260Y021347D01*
X035308Y021299D01*
X035308Y021202D01*
X035115Y021299D02*
X035115Y021444D01*
X035308Y021444D01*
X035013Y021396D02*
X034965Y021444D01*
X034868Y021444D01*
X034820Y021396D01*
X035013Y021396D02*
X035013Y021347D01*
X034820Y021154D01*
X035013Y021154D01*
X034424Y021444D02*
X034231Y021444D01*
X034231Y021154D01*
X034130Y021154D02*
X034130Y021347D01*
X034231Y021299D02*
X034327Y021299D01*
X034130Y021154D02*
X033984Y021154D01*
X033936Y021202D01*
X033936Y021347D01*
X033835Y021396D02*
X033787Y021444D01*
X033690Y021444D01*
X033641Y021396D01*
X033641Y021202D01*
X033835Y021396D01*
X033835Y021202D01*
X033787Y021154D01*
X033690Y021154D01*
X033641Y021202D01*
X033540Y021154D02*
X033347Y021154D01*
X033444Y021154D02*
X033444Y021444D01*
X033347Y021347D01*
X034574Y026034D02*
X034671Y026034D01*
X034719Y026083D01*
X034820Y026034D02*
X034965Y026034D01*
X035014Y026083D01*
X035014Y026276D01*
X034965Y026325D01*
X034820Y026325D01*
X034820Y026034D01*
X034574Y026034D02*
X034525Y026083D01*
X034525Y026276D01*
X034574Y026325D01*
X034671Y026325D01*
X034719Y026276D01*
X035115Y026228D02*
X035211Y026325D01*
X035211Y026034D01*
X035115Y026034D02*
X035308Y026034D01*
X035409Y026179D02*
X035603Y026179D01*
X035554Y026034D02*
X035554Y026325D01*
X035409Y026179D01*
X035506Y027654D02*
X035603Y027847D01*
X035409Y027847D02*
X035506Y027654D01*
X035308Y027702D02*
X035260Y027654D01*
X035163Y027654D01*
X035115Y027702D01*
X035115Y027799D02*
X035211Y027847D01*
X035260Y027847D01*
X035308Y027799D01*
X035308Y027702D01*
X035115Y027799D02*
X035115Y027944D01*
X035308Y027944D01*
X035013Y027896D02*
X034965Y027944D01*
X034868Y027944D01*
X034820Y027896D01*
X035013Y027896D02*
X035013Y027847D01*
X034820Y027654D01*
X035013Y027654D01*
X034424Y027944D02*
X034231Y027944D01*
X034231Y027654D01*
X034130Y027654D02*
X034130Y027847D01*
X034231Y027799D02*
X034327Y027799D01*
X034130Y027654D02*
X033984Y027654D01*
X033936Y027702D01*
X033936Y027847D01*
X033835Y027896D02*
X033641Y027702D01*
X033690Y027654D01*
X033787Y027654D01*
X033835Y027702D01*
X033835Y027896D01*
X033787Y027944D01*
X033690Y027944D01*
X033641Y027896D01*
X033641Y027702D01*
X033540Y027654D02*
X033347Y027654D01*
X033444Y027654D02*
X033444Y027944D01*
X033347Y027847D01*
X030536Y029848D02*
X030343Y029848D01*
X030536Y030041D01*
X030536Y030090D01*
X030488Y030138D01*
X030391Y030138D01*
X030343Y030090D01*
X030241Y030090D02*
X030193Y030138D01*
X030096Y030138D01*
X030048Y030090D01*
X030048Y029896D01*
X030096Y029848D01*
X030193Y029848D01*
X030241Y029896D01*
X028131Y035423D02*
X028082Y035423D01*
X028082Y035471D01*
X028131Y035471D01*
X028131Y035423D01*
X027889Y035423D02*
X028131Y035713D01*
X027937Y035713D02*
X027937Y035665D01*
X027889Y035665D01*
X027889Y035713D01*
X027937Y035713D01*
X027691Y035713D02*
X027691Y035423D01*
X027594Y035423D02*
X027788Y035423D01*
X027594Y035616D02*
X027691Y035713D01*
X027495Y035471D02*
X027495Y035423D01*
X027447Y035423D01*
X027447Y035471D01*
X027495Y035471D01*
X027346Y035471D02*
X027297Y035423D01*
X027201Y035423D01*
X027152Y035471D01*
X027346Y035665D01*
X027346Y035471D01*
X027152Y035471D02*
X027152Y035665D01*
X027201Y035713D01*
X027297Y035713D01*
X027346Y035665D01*
X026757Y035616D02*
X026612Y035520D01*
X026757Y035423D01*
X026612Y035423D02*
X026612Y035713D01*
X026511Y035665D02*
X026318Y035471D01*
X026366Y035423D01*
X026463Y035423D01*
X026511Y035471D01*
X026511Y035665D01*
X026463Y035713D01*
X026366Y035713D01*
X026318Y035665D01*
X026318Y035471D01*
X026216Y035423D02*
X026023Y035423D01*
X026082Y035423D02*
X026131Y035423D01*
X026131Y035471D01*
X026082Y035471D01*
X026082Y035423D01*
X026120Y035423D02*
X026120Y035713D01*
X026023Y035616D01*
X025937Y035665D02*
X025889Y035665D01*
X025889Y035713D01*
X025937Y035713D01*
X025937Y035665D01*
X026131Y035713D02*
X025889Y035423D01*
X025788Y035423D02*
X025594Y035423D01*
X025691Y035423D02*
X025691Y035713D01*
X025594Y035616D01*
X025495Y035471D02*
X025495Y035423D01*
X025447Y035423D01*
X025447Y035471D01*
X025495Y035471D01*
X025346Y035471D02*
X025297Y035423D01*
X025201Y035423D01*
X025152Y035471D01*
X025346Y035665D01*
X025346Y035471D01*
X025152Y035471D02*
X025152Y035665D01*
X025201Y035713D01*
X025297Y035713D01*
X025346Y035665D01*
X024757Y035616D02*
X024612Y035520D01*
X024757Y035423D01*
X024612Y035423D02*
X024612Y035713D01*
X024511Y035665D02*
X024318Y035471D01*
X024366Y035423D01*
X024463Y035423D01*
X024511Y035471D01*
X024511Y035665D01*
X024463Y035713D01*
X024366Y035713D01*
X024318Y035665D01*
X024318Y035471D01*
X024216Y035423D02*
X024023Y035423D01*
X024082Y035423D02*
X024131Y035423D01*
X024131Y035471D01*
X024082Y035471D01*
X024082Y035423D01*
X024120Y035423D02*
X024120Y035713D01*
X024023Y035616D01*
X023937Y035665D02*
X023889Y035665D01*
X023889Y035713D01*
X023937Y035713D01*
X023937Y035665D01*
X024131Y035713D02*
X023889Y035423D01*
X023788Y035423D02*
X023594Y035423D01*
X023691Y035423D02*
X023691Y035713D01*
X023594Y035616D01*
X023495Y035471D02*
X023495Y035423D01*
X023447Y035423D01*
X023447Y035471D01*
X023495Y035471D01*
X023346Y035471D02*
X023297Y035423D01*
X023201Y035423D01*
X023152Y035471D01*
X023346Y035665D01*
X023346Y035471D01*
X023152Y035471D02*
X023152Y035665D01*
X023201Y035713D01*
X023297Y035713D01*
X023346Y035665D01*
X022757Y035616D02*
X022612Y035520D01*
X022757Y035423D01*
X022612Y035423D02*
X022612Y035713D01*
X022511Y035665D02*
X022318Y035471D01*
X022366Y035423D01*
X022463Y035423D01*
X022511Y035471D01*
X022511Y035665D01*
X022463Y035713D01*
X022366Y035713D01*
X022318Y035665D01*
X022318Y035471D01*
X022216Y035423D02*
X022023Y035423D01*
X022082Y035423D02*
X022131Y035423D01*
X022131Y035471D01*
X022082Y035471D01*
X022082Y035423D01*
X022120Y035423D02*
X022120Y035713D01*
X022023Y035616D01*
X021937Y035665D02*
X021889Y035665D01*
X021889Y035713D01*
X021937Y035713D01*
X021937Y035665D01*
X022131Y035713D02*
X021889Y035423D01*
X021788Y035423D02*
X021594Y035423D01*
X021691Y035423D02*
X021691Y035713D01*
X021594Y035616D01*
X021495Y035471D02*
X021495Y035423D01*
X021447Y035423D01*
X021447Y035471D01*
X021495Y035471D01*
X021346Y035471D02*
X021297Y035423D01*
X021201Y035423D01*
X021152Y035471D01*
X021346Y035665D01*
X021346Y035471D01*
X021152Y035471D02*
X021152Y035665D01*
X021201Y035713D01*
X021297Y035713D01*
X021346Y035665D01*
X020757Y035616D02*
X020612Y035520D01*
X020757Y035423D01*
X020612Y035423D02*
X020612Y035713D01*
X020511Y035665D02*
X020318Y035471D01*
X020366Y035423D01*
X020463Y035423D01*
X020511Y035471D01*
X020511Y035665D01*
X020463Y035713D01*
X020366Y035713D01*
X020318Y035665D01*
X020318Y035471D01*
X020216Y035423D02*
X020023Y035423D01*
X020082Y035423D02*
X020131Y035423D01*
X020131Y035471D01*
X020082Y035471D01*
X020082Y035423D01*
X020120Y035423D02*
X020120Y035713D01*
X020023Y035616D01*
X019937Y035665D02*
X019889Y035665D01*
X019889Y035713D01*
X019937Y035713D01*
X019937Y035665D01*
X020131Y035713D02*
X019889Y035423D01*
X019788Y035423D02*
X019594Y035423D01*
X019691Y035423D02*
X019691Y035713D01*
X019594Y035616D01*
X019495Y035471D02*
X019495Y035423D01*
X019447Y035423D01*
X019447Y035471D01*
X019495Y035471D01*
X019346Y035471D02*
X019297Y035423D01*
X019201Y035423D01*
X019152Y035471D01*
X019346Y035665D01*
X019346Y035471D01*
X019152Y035471D02*
X019152Y035665D01*
X019201Y035713D01*
X019297Y035713D01*
X019346Y035665D01*
X018757Y035616D02*
X018612Y035520D01*
X018757Y035423D01*
X018612Y035423D02*
X018612Y035713D01*
X018511Y035665D02*
X018318Y035471D01*
X018366Y035423D01*
X018463Y035423D01*
X018511Y035471D01*
X018511Y035665D01*
X018463Y035713D01*
X018366Y035713D01*
X018318Y035665D01*
X018318Y035471D01*
X018216Y035423D02*
X018023Y035423D01*
X018082Y035423D02*
X018131Y035423D01*
X018131Y035471D01*
X018082Y035471D01*
X018082Y035423D01*
X018120Y035423D02*
X018120Y035713D01*
X018023Y035616D01*
X017937Y035665D02*
X017889Y035665D01*
X017889Y035713D01*
X017937Y035713D01*
X017937Y035665D01*
X018131Y035713D02*
X017889Y035423D01*
X017788Y035423D02*
X017594Y035423D01*
X017691Y035423D02*
X017691Y035713D01*
X017594Y035616D01*
X017495Y035471D02*
X017495Y035423D01*
X017447Y035423D01*
X017447Y035471D01*
X017495Y035471D01*
X017346Y035471D02*
X017297Y035423D01*
X017201Y035423D01*
X017152Y035471D01*
X017346Y035665D01*
X017346Y035471D01*
X017152Y035471D02*
X017152Y035665D01*
X017201Y035713D01*
X017297Y035713D01*
X017346Y035665D01*
X016757Y035616D02*
X016612Y035520D01*
X016757Y035423D01*
X016612Y035423D02*
X016612Y035713D01*
X016511Y035665D02*
X016318Y035471D01*
X016366Y035423D01*
X016463Y035423D01*
X016511Y035471D01*
X016511Y035665D01*
X016463Y035713D01*
X016366Y035713D01*
X016318Y035665D01*
X016318Y035471D01*
X016216Y035423D02*
X016023Y035423D01*
X016082Y035423D02*
X016082Y035471D01*
X016131Y035471D01*
X016131Y035423D01*
X016082Y035423D01*
X016120Y035423D02*
X016120Y035713D01*
X016023Y035616D01*
X015937Y035665D02*
X015889Y035665D01*
X015889Y035713D01*
X015937Y035713D01*
X015937Y035665D01*
X016131Y035713D02*
X015889Y035423D01*
X015788Y035423D02*
X015594Y035423D01*
X015691Y035423D02*
X015691Y035713D01*
X015594Y035616D01*
X015495Y035471D02*
X015495Y035423D01*
X015447Y035423D01*
X015447Y035471D01*
X015495Y035471D01*
X015346Y035471D02*
X015297Y035423D01*
X015201Y035423D01*
X015152Y035471D01*
X015346Y035665D01*
X015346Y035471D01*
X015152Y035471D02*
X015152Y035665D01*
X015201Y035713D01*
X015297Y035713D01*
X015346Y035665D01*
X014757Y035616D02*
X014612Y035520D01*
X014757Y035423D01*
X014612Y035423D02*
X014612Y035713D01*
X014511Y035665D02*
X014318Y035471D01*
X014366Y035423D01*
X014463Y035423D01*
X014511Y035471D01*
X014511Y035665D01*
X014463Y035713D01*
X014366Y035713D01*
X014318Y035665D01*
X014318Y035471D01*
X014216Y035423D02*
X014023Y035423D01*
X014082Y035423D02*
X014131Y035423D01*
X014131Y035471D01*
X014082Y035471D01*
X014082Y035423D01*
X014120Y035423D02*
X014120Y035713D01*
X014023Y035616D01*
X013937Y035665D02*
X013889Y035665D01*
X013889Y035713D01*
X013937Y035713D01*
X013937Y035665D01*
X014131Y035713D02*
X013889Y035423D01*
X013788Y035423D02*
X013594Y035423D01*
X013691Y035423D02*
X013691Y035713D01*
X013594Y035616D01*
X013495Y035471D02*
X013495Y035423D01*
X013447Y035423D01*
X013447Y035471D01*
X013495Y035471D01*
X013346Y035471D02*
X013297Y035423D01*
X013201Y035423D01*
X013152Y035471D01*
X013346Y035665D01*
X013346Y035471D01*
X013152Y035471D02*
X013152Y035665D01*
X013201Y035713D01*
X013297Y035713D01*
X013346Y035665D01*
X012757Y035616D02*
X012612Y035520D01*
X012757Y035423D01*
X012612Y035423D02*
X012612Y035713D01*
X012511Y035665D02*
X012318Y035471D01*
X012366Y035423D01*
X012463Y035423D01*
X012511Y035471D01*
X012511Y035665D01*
X012463Y035713D01*
X012366Y035713D01*
X012318Y035665D01*
X012318Y035471D01*
X012216Y035423D02*
X012023Y035423D01*
X012082Y035423D02*
X012131Y035423D01*
X012131Y035471D01*
X012082Y035471D01*
X012082Y035423D01*
X012120Y035423D02*
X012120Y035713D01*
X012023Y035616D01*
X011937Y035665D02*
X011889Y035665D01*
X011889Y035713D01*
X011937Y035713D01*
X011937Y035665D01*
X012131Y035713D02*
X011889Y035423D01*
X011788Y035423D02*
X011594Y035423D01*
X011691Y035423D02*
X011691Y035713D01*
X011594Y035616D01*
X011495Y035471D02*
X011495Y035423D01*
X011447Y035423D01*
X011447Y035471D01*
X011495Y035471D01*
X011346Y035471D02*
X011297Y035423D01*
X011201Y035423D01*
X011152Y035471D01*
X011346Y035665D01*
X011346Y035471D01*
X011152Y035471D02*
X011152Y035665D01*
X011201Y035713D01*
X011297Y035713D01*
X011346Y035665D01*
X010757Y035616D02*
X010612Y035520D01*
X010757Y035423D01*
X010612Y035423D02*
X010612Y035713D01*
X010511Y035665D02*
X010318Y035471D01*
X010366Y035423D01*
X010463Y035423D01*
X010511Y035471D01*
X010511Y035665D01*
X010463Y035713D01*
X010366Y035713D01*
X010318Y035665D01*
X010318Y035471D01*
X010216Y035423D02*
X010023Y035423D01*
X010082Y035423D02*
X010131Y035423D01*
X010131Y035471D01*
X010082Y035471D01*
X010082Y035423D01*
X010120Y035423D02*
X010120Y035713D01*
X010023Y035616D01*
X009937Y035665D02*
X009889Y035665D01*
X009889Y035713D01*
X009937Y035713D01*
X009937Y035665D01*
X010131Y035713D02*
X009889Y035423D01*
X009788Y035423D02*
X009594Y035423D01*
X009691Y035423D02*
X009691Y035713D01*
X009594Y035616D01*
X009495Y035471D02*
X009495Y035423D01*
X009447Y035423D01*
X009447Y035471D01*
X009495Y035471D01*
X009346Y035471D02*
X009297Y035423D01*
X009201Y035423D01*
X009152Y035471D01*
X009346Y035665D01*
X009346Y035471D01*
X009152Y035471D02*
X009152Y035665D01*
X009201Y035713D01*
X009297Y035713D01*
X009346Y035665D01*
X008757Y035616D02*
X008612Y035520D01*
X008757Y035423D01*
X008612Y035423D02*
X008612Y035713D01*
X008511Y035665D02*
X008318Y035471D01*
X008366Y035423D01*
X008463Y035423D01*
X008511Y035471D01*
X008511Y035665D01*
X008463Y035713D01*
X008366Y035713D01*
X008318Y035665D01*
X008318Y035471D01*
X008216Y035423D02*
X008023Y035423D01*
X008120Y035423D02*
X008120Y035713D01*
X008023Y035616D01*
X008023Y036373D02*
X008023Y036663D01*
X008168Y036663D01*
X008216Y036615D01*
X008216Y036518D01*
X008168Y036470D01*
X008023Y036470D01*
X008120Y036470D02*
X008216Y036373D01*
X008318Y036373D02*
X008511Y036373D01*
X008414Y036373D02*
X008414Y036663D01*
X008318Y036566D01*
X008612Y036518D02*
X008806Y036518D01*
X008757Y036663D02*
X008612Y036518D01*
X008757Y036373D02*
X008757Y036663D01*
X008783Y036948D02*
X008928Y036948D01*
X008928Y037141D01*
X009029Y037093D02*
X009126Y037093D01*
X009029Y037238D02*
X009223Y037238D01*
X009029Y037238D02*
X009029Y036948D01*
X008783Y036948D02*
X008734Y036996D01*
X008734Y037141D01*
X008633Y036948D02*
X008440Y036948D01*
X008537Y036948D02*
X008537Y037238D01*
X008440Y037141D01*
X008341Y036996D02*
X008341Y036948D01*
X008293Y036948D01*
X008293Y036996D01*
X008341Y036996D01*
X008191Y036996D02*
X008191Y037190D01*
X007998Y036996D01*
X008046Y036948D01*
X008143Y036948D01*
X008191Y036996D01*
X007998Y036996D02*
X007998Y037190D01*
X008046Y037238D01*
X008143Y037238D01*
X008191Y037190D01*
X008193Y037848D02*
X008241Y037896D01*
X008193Y037848D02*
X008096Y037848D01*
X008048Y037896D01*
X008048Y038090D01*
X008096Y038138D01*
X008193Y038138D01*
X008241Y038090D01*
X008343Y038138D02*
X008343Y037848D01*
X008488Y037848D01*
X008536Y037896D01*
X008536Y038090D01*
X008488Y038138D01*
X008343Y038138D01*
X008637Y038041D02*
X008734Y038138D01*
X008734Y037848D01*
X008637Y037848D02*
X008831Y037848D01*
X008932Y037896D02*
X008980Y037848D01*
X009077Y037848D01*
X009125Y037896D01*
X009125Y037945D01*
X009077Y037993D01*
X008932Y037993D01*
X008932Y037896D01*
X008932Y037993D02*
X009029Y038090D01*
X009125Y038138D01*
X009029Y038448D02*
X009029Y038738D01*
X009223Y038738D01*
X009126Y038593D02*
X009029Y038593D01*
X008928Y038641D02*
X008928Y038448D01*
X008783Y038448D01*
X008734Y038496D01*
X008734Y038641D01*
X008633Y038448D02*
X008440Y038448D01*
X008537Y038448D02*
X008537Y038738D01*
X008440Y038641D01*
X008341Y038496D02*
X008341Y038448D01*
X008293Y038448D01*
X008293Y038496D01*
X008341Y038496D01*
X008191Y038496D02*
X008143Y038448D01*
X008046Y038448D01*
X007998Y038496D01*
X008191Y038690D01*
X008191Y038496D01*
X007998Y038496D02*
X007998Y038690D01*
X008046Y038738D01*
X008143Y038738D01*
X008191Y038690D01*
X008193Y039348D02*
X008241Y039396D01*
X008193Y039348D02*
X008096Y039348D01*
X008048Y039396D01*
X008048Y039590D01*
X008096Y039638D01*
X008193Y039638D01*
X008241Y039590D01*
X008343Y039590D02*
X008391Y039638D01*
X008488Y039638D01*
X008536Y039590D01*
X008536Y039541D01*
X008343Y039348D01*
X008536Y039348D01*
X008637Y039348D02*
X008637Y039396D01*
X008831Y039590D01*
X008831Y039638D01*
X008637Y039638D01*
X010048Y039590D02*
X010048Y039396D01*
X010096Y039348D01*
X010193Y039348D01*
X010241Y039396D01*
X010343Y039348D02*
X010536Y039541D01*
X010536Y039590D01*
X010488Y039638D01*
X010391Y039638D01*
X010343Y039590D01*
X010241Y039590D02*
X010193Y039638D01*
X010096Y039638D01*
X010048Y039590D01*
X010343Y039348D02*
X010536Y039348D01*
X010637Y039396D02*
X010686Y039348D01*
X010782Y039348D01*
X010831Y039396D01*
X010831Y039590D01*
X010782Y039638D01*
X010686Y039638D01*
X010637Y039590D01*
X010637Y039541D01*
X010686Y039493D01*
X010831Y039493D01*
X011029Y038738D02*
X011223Y038738D01*
X011126Y038593D02*
X011029Y038593D01*
X010928Y038641D02*
X010928Y038448D01*
X010783Y038448D01*
X010734Y038496D01*
X010734Y038641D01*
X010633Y038448D02*
X010440Y038448D01*
X010537Y038448D02*
X010537Y038738D01*
X010440Y038641D01*
X010341Y038496D02*
X010341Y038448D01*
X010293Y038448D01*
X010293Y038496D01*
X010341Y038496D01*
X010191Y038496D02*
X010143Y038448D01*
X010046Y038448D01*
X009998Y038496D01*
X010191Y038690D01*
X010191Y038496D01*
X009998Y038496D02*
X009998Y038690D01*
X010046Y038738D01*
X010143Y038738D01*
X010191Y038690D01*
X010193Y038138D02*
X010096Y038138D01*
X010048Y038090D01*
X010048Y037896D01*
X010096Y037848D01*
X010193Y037848D01*
X010241Y037896D01*
X010343Y037848D02*
X010536Y038041D01*
X010536Y038090D01*
X010488Y038138D01*
X010391Y038138D01*
X010343Y038090D01*
X010241Y038090D02*
X010193Y038138D01*
X010343Y037848D02*
X010536Y037848D01*
X010637Y037896D02*
X010686Y037848D01*
X010782Y037848D01*
X010831Y037896D01*
X010831Y037945D01*
X010782Y037993D01*
X010734Y037993D01*
X010782Y037993D02*
X010831Y038041D01*
X010831Y038090D01*
X010782Y038138D01*
X010686Y038138D01*
X010637Y038090D01*
X011029Y038448D02*
X011029Y038738D01*
X011998Y038690D02*
X012046Y038738D01*
X012143Y038738D01*
X012191Y038690D01*
X011998Y038496D01*
X012046Y038448D01*
X012143Y038448D01*
X012191Y038496D01*
X012191Y038690D01*
X011998Y038690D02*
X011998Y038496D01*
X012293Y038496D02*
X012341Y038496D01*
X012341Y038448D01*
X012293Y038448D01*
X012293Y038496D01*
X012440Y038448D02*
X012633Y038448D01*
X012537Y038448D02*
X012537Y038738D01*
X012440Y038641D01*
X012734Y038641D02*
X012734Y038496D01*
X012783Y038448D01*
X012928Y038448D01*
X012928Y038641D01*
X013029Y038593D02*
X013126Y038593D01*
X013029Y038738D02*
X013223Y038738D01*
X013029Y038738D02*
X013029Y038448D01*
X012782Y038138D02*
X012637Y037993D01*
X012831Y037993D01*
X012782Y037848D02*
X012782Y038138D01*
X012536Y038090D02*
X012488Y038138D01*
X012391Y038138D01*
X012343Y038090D01*
X012241Y038090D02*
X012193Y038138D01*
X012096Y038138D01*
X012048Y038090D01*
X012048Y037896D01*
X012096Y037848D01*
X012193Y037848D01*
X012241Y037896D01*
X012343Y037848D02*
X012536Y038041D01*
X012536Y038090D01*
X012536Y037848D02*
X012343Y037848D01*
X012537Y037238D02*
X012537Y036948D01*
X012633Y036948D02*
X012440Y036948D01*
X012341Y036948D02*
X012293Y036948D01*
X012293Y036996D01*
X012341Y036996D01*
X012341Y036948D01*
X012191Y036996D02*
X012143Y036948D01*
X012046Y036948D01*
X011998Y036996D01*
X012191Y037190D01*
X012191Y036996D01*
X011998Y036996D02*
X011998Y037190D01*
X012046Y037238D01*
X012143Y037238D01*
X012191Y037190D01*
X012440Y037141D02*
X012537Y037238D01*
X012734Y037141D02*
X012734Y036996D01*
X012783Y036948D01*
X012928Y036948D01*
X012928Y037141D01*
X013029Y037093D02*
X013126Y037093D01*
X013029Y037238D02*
X013223Y037238D01*
X013029Y037238D02*
X013029Y036948D01*
X012806Y036663D02*
X012806Y036615D01*
X012612Y036421D01*
X012612Y036373D01*
X012511Y036373D02*
X012318Y036373D01*
X012414Y036373D02*
X012414Y036663D01*
X012318Y036566D01*
X012216Y036518D02*
X012168Y036470D01*
X012023Y036470D01*
X012120Y036470D02*
X012216Y036373D01*
X012216Y036518D02*
X012216Y036615D01*
X012168Y036663D01*
X012023Y036663D01*
X012023Y036373D01*
X012612Y036663D02*
X012806Y036663D01*
X014023Y036663D02*
X014168Y036663D01*
X014216Y036615D01*
X014216Y036518D01*
X014168Y036470D01*
X014023Y036470D01*
X014120Y036470D02*
X014216Y036373D01*
X014318Y036373D02*
X014511Y036373D01*
X014414Y036373D02*
X014414Y036663D01*
X014318Y036566D01*
X014612Y036615D02*
X014661Y036663D01*
X014757Y036663D01*
X014806Y036615D01*
X014806Y036566D01*
X014757Y036518D01*
X014806Y036470D01*
X014806Y036421D01*
X014757Y036373D01*
X014661Y036373D01*
X014612Y036421D01*
X014709Y036518D02*
X014757Y036518D01*
X014783Y036948D02*
X014928Y036948D01*
X014928Y037141D01*
X015029Y037093D02*
X015126Y037093D01*
X015029Y037238D02*
X015223Y037238D01*
X015029Y037238D02*
X015029Y036948D01*
X014783Y036948D02*
X014734Y036996D01*
X014734Y037141D01*
X014633Y036948D02*
X014440Y036948D01*
X014537Y036948D02*
X014537Y037238D01*
X014440Y037141D01*
X014341Y036996D02*
X014341Y036948D01*
X014293Y036948D01*
X014293Y036996D01*
X014341Y036996D01*
X014191Y036996D02*
X014191Y037190D01*
X013998Y036996D01*
X014046Y036948D01*
X014143Y036948D01*
X014191Y036996D01*
X013998Y036996D02*
X013998Y037190D01*
X014046Y037238D01*
X014143Y037238D01*
X014191Y037190D01*
X014193Y037848D02*
X014241Y037896D01*
X014193Y037848D02*
X014096Y037848D01*
X014048Y037896D01*
X014048Y038090D01*
X014096Y038138D01*
X014193Y038138D01*
X014241Y038090D01*
X014343Y038090D02*
X014391Y038138D01*
X014488Y038138D01*
X014536Y038090D01*
X014536Y038041D01*
X014343Y037848D01*
X014536Y037848D01*
X014637Y037896D02*
X014637Y037945D01*
X014686Y037993D01*
X014782Y037993D01*
X014831Y037945D01*
X014831Y037896D01*
X014782Y037848D01*
X014686Y037848D01*
X014637Y037896D01*
X014686Y037993D02*
X014637Y038041D01*
X014637Y038090D01*
X014686Y038138D01*
X014782Y038138D01*
X014831Y038090D01*
X014831Y038041D01*
X014782Y037993D01*
X014783Y038448D02*
X014928Y038448D01*
X014928Y038641D01*
X015029Y038593D02*
X015126Y038593D01*
X015029Y038738D02*
X015223Y038738D01*
X015029Y038738D02*
X015029Y038448D01*
X014783Y038448D02*
X014734Y038496D01*
X014734Y038641D01*
X014633Y038448D02*
X014440Y038448D01*
X014537Y038448D02*
X014537Y038738D01*
X014440Y038641D01*
X014341Y038496D02*
X014341Y038448D01*
X014293Y038448D01*
X014293Y038496D01*
X014341Y038496D01*
X014191Y038496D02*
X014143Y038448D01*
X014046Y038448D01*
X013998Y038496D01*
X014191Y038690D01*
X014191Y038496D01*
X013998Y038496D02*
X013998Y038690D01*
X014046Y038738D01*
X014143Y038738D01*
X014191Y038690D01*
X014193Y039348D02*
X014241Y039396D01*
X014193Y039348D02*
X014096Y039348D01*
X014048Y039396D01*
X014048Y039590D01*
X014096Y039638D01*
X014193Y039638D01*
X014241Y039590D01*
X014343Y039541D02*
X014439Y039638D01*
X014439Y039348D01*
X014343Y039348D02*
X014536Y039348D01*
X014637Y039348D02*
X014831Y039541D01*
X014831Y039590D01*
X014782Y039638D01*
X014686Y039638D01*
X014637Y039590D01*
X014637Y039348D02*
X014831Y039348D01*
X015998Y038690D02*
X016046Y038738D01*
X016143Y038738D01*
X016191Y038690D01*
X015998Y038496D01*
X016046Y038448D01*
X016143Y038448D01*
X016191Y038496D01*
X016191Y038690D01*
X015998Y038690D02*
X015998Y038496D01*
X016293Y038496D02*
X016341Y038496D01*
X016341Y038448D01*
X016293Y038448D01*
X016293Y038496D01*
X016440Y038448D02*
X016633Y038448D01*
X016537Y038448D02*
X016537Y038738D01*
X016440Y038641D01*
X016734Y038641D02*
X016734Y038496D01*
X016783Y038448D01*
X016928Y038448D01*
X016928Y038641D01*
X017029Y038593D02*
X017126Y038593D01*
X017029Y038738D02*
X017223Y038738D01*
X017029Y038738D02*
X017029Y038448D01*
X016831Y038138D02*
X016637Y038138D01*
X016637Y037993D01*
X016734Y038041D01*
X016782Y038041D01*
X016831Y037993D01*
X016831Y037896D01*
X016782Y037848D01*
X016686Y037848D01*
X016637Y037896D01*
X016536Y037848D02*
X016343Y037848D01*
X016536Y038041D01*
X016536Y038090D01*
X016488Y038138D01*
X016391Y038138D01*
X016343Y038090D01*
X016241Y038090D02*
X016193Y038138D01*
X016096Y038138D01*
X016048Y038090D01*
X016048Y037896D01*
X016096Y037848D01*
X016193Y037848D01*
X016241Y037896D01*
X016143Y037238D02*
X016191Y037190D01*
X015998Y036996D01*
X016046Y036948D01*
X016143Y036948D01*
X016191Y036996D01*
X016191Y037190D01*
X016143Y037238D02*
X016046Y037238D01*
X015998Y037190D01*
X015998Y036996D01*
X016293Y036996D02*
X016341Y036996D01*
X016341Y036948D01*
X016293Y036948D01*
X016293Y036996D01*
X016440Y036948D02*
X016633Y036948D01*
X016537Y036948D02*
X016537Y037238D01*
X016440Y037141D01*
X016734Y037141D02*
X016734Y036996D01*
X016783Y036948D01*
X016928Y036948D01*
X016928Y037141D01*
X017029Y037093D02*
X017126Y037093D01*
X017029Y037238D02*
X017223Y037238D01*
X017029Y037238D02*
X017029Y036948D01*
X016511Y036615D02*
X016463Y036663D01*
X016366Y036663D01*
X016318Y036615D01*
X016318Y036566D01*
X016366Y036518D01*
X016511Y036518D01*
X016511Y036421D02*
X016511Y036615D01*
X016511Y036421D02*
X016463Y036373D01*
X016366Y036373D01*
X016318Y036421D01*
X016216Y036373D02*
X016120Y036470D01*
X016168Y036470D02*
X016023Y036470D01*
X016023Y036373D02*
X016023Y036663D01*
X016168Y036663D01*
X016216Y036615D01*
X016216Y036518D01*
X016168Y036470D01*
X018023Y036470D02*
X018168Y036470D01*
X018216Y036518D01*
X018216Y036615D01*
X018168Y036663D01*
X018023Y036663D01*
X018023Y036373D01*
X018120Y036470D02*
X018216Y036373D01*
X018318Y036373D02*
X018511Y036566D01*
X018511Y036615D01*
X018463Y036663D01*
X018366Y036663D01*
X018318Y036615D01*
X018318Y036373D02*
X018511Y036373D01*
X018537Y036948D02*
X018537Y037238D01*
X018440Y037141D01*
X018341Y036996D02*
X018293Y036996D01*
X018293Y036948D01*
X018341Y036948D01*
X018341Y036996D01*
X018440Y036948D02*
X018633Y036948D01*
X018734Y036996D02*
X018783Y036948D01*
X018928Y036948D01*
X018928Y037141D01*
X019029Y037093D02*
X019126Y037093D01*
X019029Y037238D02*
X019223Y037238D01*
X019029Y037238D02*
X019029Y036948D01*
X018734Y036996D02*
X018734Y037141D01*
X018191Y037190D02*
X017998Y036996D01*
X018046Y036948D01*
X018143Y036948D01*
X018191Y036996D01*
X018191Y037190D01*
X018143Y037238D01*
X018046Y037238D01*
X017998Y037190D01*
X017998Y036996D01*
X018096Y037848D02*
X018193Y037848D01*
X018241Y037896D01*
X018343Y037848D02*
X018536Y037848D01*
X018439Y037848D02*
X018439Y038138D01*
X018343Y038041D01*
X018241Y038090D02*
X018193Y038138D01*
X018096Y038138D01*
X018048Y038090D01*
X018048Y037896D01*
X018096Y037848D01*
X018637Y037896D02*
X018686Y037848D01*
X018782Y037848D01*
X018831Y037896D01*
X018831Y037945D01*
X018782Y037993D01*
X018734Y037993D01*
X018782Y037993D02*
X018831Y038041D01*
X018831Y038090D01*
X018782Y038138D01*
X018686Y038138D01*
X018637Y038090D01*
X020023Y036663D02*
X020168Y036663D01*
X020216Y036615D01*
X020216Y036518D01*
X020168Y036470D01*
X020023Y036470D01*
X020120Y036470D02*
X020216Y036373D01*
X020318Y036373D02*
X020511Y036566D01*
X020511Y036615D01*
X020463Y036663D01*
X020366Y036663D01*
X020318Y036615D01*
X020318Y036373D02*
X020511Y036373D01*
X020612Y036518D02*
X020806Y036518D01*
X020757Y036663D02*
X020612Y036518D01*
X020757Y036373D02*
X020757Y036663D01*
X020023Y036663D02*
X020023Y036373D01*
X021998Y036948D02*
X022191Y036948D01*
X022095Y036948D02*
X022095Y037238D01*
X021998Y037141D01*
X022293Y036996D02*
X022341Y036996D01*
X022341Y036948D01*
X022293Y036948D01*
X022293Y036996D01*
X022440Y036996D02*
X022633Y037190D01*
X022633Y036996D01*
X022585Y036948D01*
X022488Y036948D01*
X022440Y036996D01*
X022440Y037190D01*
X022488Y037238D01*
X022585Y037238D01*
X022633Y037190D01*
X022734Y037141D02*
X022734Y036996D01*
X022783Y036948D01*
X022928Y036948D01*
X022928Y037141D01*
X023029Y037093D02*
X023126Y037093D01*
X023029Y037238D02*
X023223Y037238D01*
X023029Y037238D02*
X023029Y036948D01*
X022757Y036663D02*
X022661Y036663D01*
X022612Y036615D01*
X022511Y036615D02*
X022463Y036663D01*
X022366Y036663D01*
X022318Y036615D01*
X022216Y036615D02*
X022216Y036518D01*
X022168Y036470D01*
X022023Y036470D01*
X022120Y036470D02*
X022216Y036373D01*
X022318Y036373D02*
X022511Y036566D01*
X022511Y036615D01*
X022511Y036373D02*
X022318Y036373D01*
X022216Y036615D02*
X022168Y036663D01*
X022023Y036663D01*
X022023Y036373D01*
X022612Y036373D02*
X022806Y036566D01*
X022806Y036615D01*
X022757Y036663D01*
X022806Y036373D02*
X022612Y036373D01*
X024023Y036373D02*
X024023Y036663D01*
X024168Y036663D01*
X024216Y036615D01*
X024216Y036518D01*
X024168Y036470D01*
X024023Y036470D01*
X024120Y036470D02*
X024216Y036373D01*
X024318Y036373D02*
X024511Y036566D01*
X024511Y036615D01*
X024463Y036663D01*
X024366Y036663D01*
X024318Y036615D01*
X024318Y036373D02*
X024511Y036373D01*
X024612Y036373D02*
X024806Y036373D01*
X024709Y036373D02*
X024709Y036663D01*
X024612Y036566D01*
X024585Y036948D02*
X024488Y036948D01*
X024440Y036996D01*
X024633Y037190D01*
X024633Y036996D01*
X024585Y036948D01*
X024440Y036996D02*
X024440Y037190D01*
X024488Y037238D01*
X024585Y037238D01*
X024633Y037190D01*
X024734Y037141D02*
X024734Y036996D01*
X024783Y036948D01*
X024928Y036948D01*
X024928Y037141D01*
X025029Y037093D02*
X025126Y037093D01*
X025029Y037238D02*
X025223Y037238D01*
X025029Y037238D02*
X025029Y036948D01*
X024341Y036948D02*
X024293Y036948D01*
X024293Y036996D01*
X024341Y036996D01*
X024341Y036948D01*
X024191Y036948D02*
X023998Y036948D01*
X024095Y036948D02*
X024095Y037238D01*
X023998Y037141D01*
X024096Y037848D02*
X024193Y037848D01*
X024241Y037896D01*
X024343Y037848D02*
X024536Y037848D01*
X024439Y037848D02*
X024439Y038138D01*
X024343Y038041D01*
X024241Y038090D02*
X024193Y038138D01*
X024096Y038138D01*
X024048Y038090D01*
X024048Y037896D01*
X024096Y037848D01*
X024637Y037896D02*
X024686Y037848D01*
X024782Y037848D01*
X024831Y037896D01*
X024831Y038090D01*
X024782Y038138D01*
X024686Y038138D01*
X024637Y038090D01*
X024637Y038041D01*
X024686Y037993D01*
X024831Y037993D01*
X026023Y036663D02*
X026168Y036663D01*
X026216Y036615D01*
X026216Y036518D01*
X026168Y036470D01*
X026023Y036470D01*
X026120Y036470D02*
X026216Y036373D01*
X026318Y036373D02*
X026511Y036566D01*
X026511Y036615D01*
X026463Y036663D01*
X026366Y036663D01*
X026318Y036615D01*
X026318Y036373D02*
X026511Y036373D01*
X026612Y036421D02*
X026661Y036373D01*
X026757Y036373D01*
X026806Y036421D01*
X026806Y036470D01*
X026757Y036518D01*
X026709Y036518D01*
X026757Y036518D02*
X026806Y036566D01*
X026806Y036615D01*
X026757Y036663D01*
X026661Y036663D01*
X026612Y036615D01*
X026023Y036663D02*
X026023Y036373D01*
X022831Y037896D02*
X022782Y037848D01*
X022686Y037848D01*
X022637Y037896D01*
X022831Y038090D01*
X022831Y037896D01*
X022831Y038090D02*
X022782Y038138D01*
X022686Y038138D01*
X022637Y038090D01*
X022637Y037896D01*
X022536Y037848D02*
X022343Y037848D01*
X022536Y038041D01*
X022536Y038090D01*
X022488Y038138D01*
X022391Y038138D01*
X022343Y038090D01*
X022241Y038090D02*
X022193Y038138D01*
X022096Y038138D01*
X022048Y038090D01*
X022048Y037896D01*
X022096Y037848D01*
X022193Y037848D01*
X022241Y037896D01*
X016831Y039590D02*
X016637Y039396D01*
X016637Y039348D01*
X016536Y039348D02*
X016343Y039348D01*
X016439Y039348D02*
X016439Y039638D01*
X016343Y039541D01*
X016241Y039590D02*
X016193Y039638D01*
X016096Y039638D01*
X016048Y039590D01*
X016048Y039396D01*
X016096Y039348D01*
X016193Y039348D01*
X016241Y039396D01*
X016637Y039638D02*
X016831Y039638D01*
X016831Y039590D01*
X014023Y036663D02*
X014023Y036373D01*
X011223Y037238D02*
X011029Y037238D01*
X011029Y036948D01*
X010928Y036948D02*
X010928Y037141D01*
X011029Y037093D02*
X011126Y037093D01*
X010928Y036948D02*
X010783Y036948D01*
X010734Y036996D01*
X010734Y037141D01*
X010633Y036948D02*
X010440Y036948D01*
X010537Y036948D02*
X010537Y037238D01*
X010440Y037141D01*
X010341Y036996D02*
X010341Y036948D01*
X010293Y036948D01*
X010293Y036996D01*
X010341Y036996D01*
X010191Y036996D02*
X010143Y036948D01*
X010046Y036948D01*
X009998Y036996D01*
X010191Y037190D01*
X010191Y036996D01*
X009998Y036996D02*
X009998Y037190D01*
X010046Y037238D01*
X010143Y037238D01*
X010191Y037190D01*
X010168Y036663D02*
X010023Y036663D01*
X010023Y036373D01*
X010023Y036470D02*
X010168Y036470D01*
X010216Y036518D01*
X010216Y036615D01*
X010168Y036663D01*
X010318Y036566D02*
X010414Y036663D01*
X010414Y036373D01*
X010318Y036373D02*
X010511Y036373D01*
X010612Y036421D02*
X010661Y036373D01*
X010757Y036373D01*
X010806Y036421D01*
X010806Y036470D01*
X010757Y036518D01*
X010612Y036518D01*
X010612Y036421D01*
X010612Y036518D02*
X010709Y036615D01*
X010806Y036663D01*
X010216Y036373D02*
X010120Y036470D01*
X007223Y037238D02*
X007029Y037238D01*
X007029Y036948D01*
X006928Y036948D02*
X006928Y037141D01*
X007029Y037093D02*
X007126Y037093D01*
X006928Y036948D02*
X006783Y036948D01*
X006734Y036996D01*
X006734Y037141D01*
X006633Y036948D02*
X006440Y036948D01*
X006537Y036948D02*
X006537Y037238D01*
X006440Y037141D01*
X006341Y036996D02*
X006341Y036948D01*
X006293Y036948D01*
X006293Y036996D01*
X006341Y036996D01*
X006191Y036996D02*
X006143Y036948D01*
X006046Y036948D01*
X005998Y036996D01*
X006191Y037190D01*
X006191Y036996D01*
X005998Y036996D02*
X005998Y037190D01*
X006046Y037238D01*
X006143Y037238D01*
X006191Y037190D01*
X006193Y037848D02*
X006241Y037896D01*
X006193Y037848D02*
X006096Y037848D01*
X006048Y037896D01*
X006048Y038090D01*
X006096Y038138D01*
X006193Y038138D01*
X006241Y038090D01*
X006343Y038090D02*
X006391Y038138D01*
X006488Y038138D01*
X006536Y038090D01*
X006536Y038041D01*
X006488Y037993D01*
X006536Y037945D01*
X006536Y037896D01*
X006488Y037848D01*
X006391Y037848D01*
X006343Y037896D01*
X006439Y037993D02*
X006488Y037993D01*
X006637Y038090D02*
X006686Y038138D01*
X006782Y038138D01*
X006831Y038090D01*
X006637Y037896D01*
X006686Y037848D01*
X006782Y037848D01*
X006831Y037896D01*
X006831Y038090D01*
X006637Y038090D02*
X006637Y037896D01*
X006633Y038448D02*
X006440Y038448D01*
X006537Y038448D02*
X006537Y038738D01*
X006440Y038641D01*
X006341Y038496D02*
X006341Y038448D01*
X006293Y038448D01*
X006293Y038496D01*
X006341Y038496D01*
X006191Y038496D02*
X006143Y038448D01*
X006046Y038448D01*
X005998Y038496D01*
X006191Y038690D01*
X006191Y038496D01*
X005998Y038496D02*
X005998Y038690D01*
X006046Y038738D01*
X006143Y038738D01*
X006191Y038690D01*
X006734Y038641D02*
X006734Y038496D01*
X006783Y038448D01*
X006928Y038448D01*
X006928Y038641D01*
X007029Y038593D02*
X007126Y038593D01*
X007029Y038738D02*
X007223Y038738D01*
X007029Y038738D02*
X007029Y038448D01*
X006782Y039348D02*
X006686Y039348D01*
X006637Y039396D01*
X006831Y039590D01*
X006831Y039396D01*
X006782Y039348D01*
X006637Y039396D02*
X006637Y039590D01*
X006686Y039638D01*
X006782Y039638D01*
X006831Y039590D01*
X006536Y039348D02*
X006343Y039348D01*
X006439Y039348D02*
X006439Y039638D01*
X006343Y039541D01*
X006241Y039590D02*
X006193Y039638D01*
X006096Y039638D01*
X006048Y039590D01*
X006048Y039396D01*
X006096Y039348D01*
X006193Y039348D01*
X006241Y039396D01*
X006168Y036663D02*
X006216Y036615D01*
X006216Y036518D01*
X006168Y036470D01*
X006023Y036470D01*
X006120Y036470D02*
X006216Y036373D01*
X006318Y036421D02*
X006366Y036373D01*
X006463Y036373D01*
X006511Y036421D01*
X006511Y036518D01*
X006463Y036566D01*
X006414Y036566D01*
X006318Y036518D01*
X006318Y036663D01*
X006511Y036663D01*
X006168Y036663D02*
X006023Y036663D01*
X006023Y036373D01*
X006120Y035713D02*
X006120Y035423D01*
X006216Y035423D02*
X006023Y035423D01*
X006023Y035616D02*
X006120Y035713D01*
X006318Y035665D02*
X006366Y035713D01*
X006463Y035713D01*
X006511Y035665D01*
X006318Y035471D01*
X006366Y035423D01*
X006463Y035423D01*
X006511Y035471D01*
X006511Y035665D01*
X006612Y035713D02*
X006612Y035423D01*
X006612Y035520D02*
X006757Y035423D01*
X006612Y035520D02*
X006757Y035616D01*
X006318Y035665D02*
X006318Y035471D01*
X012048Y039396D02*
X012096Y039348D01*
X012193Y039348D01*
X012241Y039396D01*
X012343Y039348D02*
X012536Y039541D01*
X012536Y039590D01*
X012488Y039638D01*
X012391Y039638D01*
X012343Y039590D01*
X012241Y039590D02*
X012193Y039638D01*
X012096Y039638D01*
X012048Y039590D01*
X012048Y039396D01*
X012343Y039348D02*
X012536Y039348D01*
X012637Y039396D02*
X012686Y039348D01*
X012782Y039348D01*
X012831Y039396D01*
X012831Y039445D01*
X012782Y039493D01*
X012637Y039493D01*
X012637Y039396D01*
X012637Y039493D02*
X012734Y039590D01*
X012831Y039638D01*
X006750Y024098D02*
X006944Y024001D01*
X006750Y023904D01*
X006799Y023803D02*
X006895Y023803D01*
X006944Y023755D01*
X006944Y023658D01*
X006895Y023610D01*
X006799Y023610D02*
X006750Y023706D01*
X006750Y023755D01*
X006799Y023803D01*
X006653Y023803D02*
X006653Y023610D01*
X006799Y023610D01*
X006750Y023508D02*
X006702Y023508D01*
X006653Y023460D01*
X006653Y023363D01*
X006702Y023315D01*
X006750Y023508D02*
X006944Y023315D01*
X006944Y023508D01*
X006653Y022919D02*
X006653Y022726D01*
X006944Y022726D01*
X006944Y022625D02*
X006750Y022625D01*
X006799Y022726D02*
X006799Y022822D01*
X006944Y022625D02*
X006944Y022479D01*
X006895Y022431D01*
X006750Y022431D01*
X006702Y022330D02*
X006895Y022136D01*
X006944Y022185D01*
X006944Y022282D01*
X006895Y022330D01*
X006702Y022330D01*
X006653Y022282D01*
X006653Y022185D01*
X006702Y022136D01*
X006895Y022136D01*
X006944Y022035D02*
X006944Y021842D01*
X006944Y021939D02*
X006653Y021939D01*
X006750Y021842D01*
X005324Y021890D02*
X005324Y021987D01*
X005276Y022035D01*
X005324Y022136D02*
X005324Y022282D01*
X005276Y022330D01*
X005083Y022330D01*
X005034Y022282D01*
X005034Y022136D01*
X005324Y022136D01*
X005324Y021890D02*
X005276Y021842D01*
X005083Y021842D01*
X005034Y021890D01*
X005034Y021987D01*
X005083Y022035D01*
X005083Y022431D02*
X005034Y022479D01*
X005034Y022576D01*
X005083Y022625D01*
X005131Y022625D01*
X005179Y022576D01*
X005179Y022479D01*
X005131Y022431D01*
X005083Y022431D01*
X005179Y022479D02*
X005228Y022431D01*
X005276Y022431D01*
X005324Y022479D01*
X005324Y022576D01*
X005276Y022625D01*
X005228Y022625D01*
X005179Y022576D01*
X006944Y019944D02*
X006847Y019847D01*
X006944Y019944D02*
X006944Y019654D01*
X007040Y019654D02*
X006847Y019654D01*
X007141Y019702D02*
X007141Y019896D01*
X007190Y019944D01*
X007287Y019944D01*
X007335Y019896D01*
X007141Y019702D01*
X007190Y019654D01*
X007287Y019654D01*
X007335Y019702D01*
X007335Y019896D01*
X007436Y019847D02*
X007436Y019702D01*
X007484Y019654D01*
X007630Y019654D01*
X007630Y019847D01*
X007731Y019799D02*
X007827Y019799D01*
X007731Y019944D02*
X007924Y019944D01*
X007731Y019944D02*
X007731Y019654D01*
X008320Y019654D02*
X008513Y019847D01*
X008513Y019896D01*
X008465Y019944D01*
X008368Y019944D01*
X008320Y019896D01*
X008320Y019654D02*
X008513Y019654D01*
X008615Y019702D02*
X008663Y019654D01*
X008760Y019654D01*
X008808Y019702D01*
X008808Y019799D01*
X008760Y019847D01*
X008711Y019847D01*
X008615Y019799D01*
X008615Y019944D01*
X008808Y019944D01*
X008909Y019847D02*
X009006Y019654D01*
X009103Y019847D01*
X009054Y018325D02*
X008958Y018325D01*
X008909Y018276D01*
X008909Y018228D01*
X008958Y018179D01*
X009103Y018179D01*
X009103Y018083D02*
X009103Y018276D01*
X009054Y018325D01*
X009103Y018083D02*
X009054Y018034D01*
X008958Y018034D01*
X008909Y018083D01*
X008808Y018083D02*
X008808Y018276D01*
X008760Y018325D01*
X008615Y018325D01*
X008615Y018034D01*
X008760Y018034D01*
X008808Y018083D01*
X008514Y018083D02*
X008465Y018034D01*
X008368Y018034D01*
X008320Y018083D01*
X008320Y018276D01*
X008368Y018325D01*
X008465Y018325D01*
X008514Y018276D01*
X007782Y016138D02*
X007637Y015993D01*
X007831Y015993D01*
X007782Y015848D02*
X007782Y016138D01*
X007536Y016090D02*
X007488Y016138D01*
X007343Y016138D01*
X007343Y015848D01*
X007488Y015848D01*
X007536Y015896D01*
X007536Y016090D01*
X007241Y016090D02*
X007193Y016138D01*
X007096Y016138D01*
X007048Y016090D01*
X007048Y015896D01*
X007096Y015848D01*
X007193Y015848D01*
X007241Y015896D01*
X007143Y015238D02*
X007191Y015190D01*
X006998Y014996D01*
X007046Y014948D01*
X007143Y014948D01*
X007191Y014996D01*
X007191Y015190D01*
X007143Y015238D02*
X007046Y015238D01*
X006998Y015190D01*
X006998Y014996D01*
X007293Y014996D02*
X007341Y014996D01*
X007341Y014948D01*
X007293Y014948D01*
X007293Y014996D01*
X007440Y014948D02*
X007633Y014948D01*
X007537Y014948D02*
X007537Y015238D01*
X007440Y015141D01*
X007734Y015141D02*
X007734Y014996D01*
X007783Y014948D01*
X007928Y014948D01*
X007928Y015141D01*
X008029Y015093D02*
X008126Y015093D01*
X008029Y015238D02*
X008223Y015238D01*
X008029Y015238D02*
X008029Y014948D01*
X006761Y014515D02*
X006761Y014466D01*
X006713Y014418D01*
X006616Y014418D01*
X006568Y014466D01*
X006568Y014515D01*
X006616Y014563D01*
X006713Y014563D01*
X006761Y014515D01*
X006713Y014418D02*
X006761Y014370D01*
X006761Y014321D01*
X006713Y014273D01*
X006616Y014273D01*
X006568Y014321D01*
X006568Y014370D01*
X006616Y014418D01*
X006466Y014321D02*
X006466Y014563D01*
X006273Y014563D02*
X006273Y014321D01*
X006321Y014273D01*
X006418Y014273D01*
X006466Y014321D01*
X010998Y011690D02*
X010998Y011496D01*
X011191Y011690D01*
X011191Y011496D01*
X011143Y011448D01*
X011046Y011448D01*
X010998Y011496D01*
X010998Y011690D02*
X011046Y011738D01*
X011143Y011738D01*
X011191Y011690D01*
X011293Y011496D02*
X011341Y011496D01*
X011341Y011448D01*
X011293Y011448D01*
X011293Y011496D01*
X011440Y011448D02*
X011633Y011448D01*
X011537Y011448D02*
X011537Y011738D01*
X011440Y011641D01*
X011734Y011641D02*
X011734Y011496D01*
X011783Y011448D01*
X011928Y011448D01*
X011928Y011641D01*
X012029Y011593D02*
X012126Y011593D01*
X012029Y011738D02*
X012223Y011738D01*
X012029Y011738D02*
X012029Y011448D01*
X011782Y012348D02*
X011831Y012396D01*
X011831Y012445D01*
X011782Y012493D01*
X011637Y012493D01*
X011637Y012396D01*
X011686Y012348D01*
X011782Y012348D01*
X011637Y012493D02*
X011734Y012590D01*
X011831Y012638D01*
X011536Y012590D02*
X011488Y012638D01*
X011343Y012638D01*
X011343Y012348D01*
X011488Y012348D01*
X011536Y012396D01*
X011536Y012590D01*
X011241Y012590D02*
X011193Y012638D01*
X011096Y012638D01*
X011048Y012590D01*
X011048Y012396D01*
X011096Y012348D01*
X011193Y012348D01*
X011241Y012396D01*
X009954Y009766D02*
X009857Y009766D01*
X009809Y009718D01*
X009809Y009524D01*
X009857Y009476D01*
X009954Y009476D01*
X010002Y009524D01*
X010002Y009718D02*
X009954Y009766D01*
X009707Y009476D02*
X009514Y009476D01*
X009514Y009766D01*
X009413Y009718D02*
X009413Y009621D01*
X009364Y009573D01*
X009219Y009573D01*
X009219Y009476D02*
X009219Y009766D01*
X009364Y009766D01*
X009413Y009718D01*
X009118Y009669D02*
X009070Y009669D01*
X008925Y009669D01*
X008925Y009573D02*
X009118Y009573D01*
X009070Y009476D02*
X009070Y009766D01*
X008973Y009766D02*
X008973Y009476D01*
X008824Y009524D02*
X008775Y009476D01*
X008678Y009476D01*
X008630Y009524D01*
X008630Y009621D01*
X008775Y009621D01*
X008824Y009573D01*
X008824Y009524D01*
X008727Y009718D02*
X008630Y009621D01*
X008727Y009718D02*
X008824Y009766D01*
X008432Y009766D02*
X008432Y009476D01*
X008335Y009476D02*
X008529Y009476D01*
X008335Y009669D02*
X008432Y009766D01*
X008234Y009718D02*
X008041Y009524D01*
X008089Y009476D01*
X008186Y009476D01*
X008234Y009524D01*
X008234Y009718D01*
X008186Y009766D01*
X008089Y009766D01*
X008041Y009718D01*
X008041Y009524D01*
X007940Y009476D02*
X007746Y009476D01*
X007940Y009669D01*
X007940Y009718D01*
X007891Y009766D01*
X007794Y009766D01*
X007746Y009718D01*
X007645Y009621D02*
X007451Y009621D01*
X007350Y009476D02*
X007157Y009476D01*
X007157Y009766D01*
X007056Y009766D02*
X006862Y009766D01*
X006959Y009766D02*
X006959Y009476D01*
X006761Y009524D02*
X006713Y009476D01*
X006616Y009476D01*
X006568Y009524D01*
X006568Y009718D01*
X006616Y009766D01*
X006713Y009766D01*
X006761Y009718D01*
X006466Y009766D02*
X006466Y009476D01*
X006466Y009621D02*
X006273Y009621D01*
X006273Y009476D02*
X006273Y009766D01*
X007096Y008638D02*
X007048Y008590D01*
X007048Y008396D01*
X007096Y008348D01*
X007193Y008348D01*
X007241Y008396D01*
X007343Y008348D02*
X007488Y008348D01*
X007536Y008396D01*
X007536Y008590D01*
X007488Y008638D01*
X007343Y008638D01*
X007343Y008348D01*
X007241Y008590D02*
X007193Y008638D01*
X007096Y008638D01*
X007637Y008541D02*
X007734Y008638D01*
X007734Y008348D01*
X007637Y008348D02*
X007831Y008348D01*
X007932Y008348D02*
X007932Y008396D01*
X008125Y008590D01*
X008125Y008638D01*
X007932Y008638D01*
X008029Y007738D02*
X008223Y007738D01*
X008126Y007593D02*
X008029Y007593D01*
X007928Y007641D02*
X007928Y007448D01*
X007783Y007448D01*
X007734Y007496D01*
X007734Y007641D01*
X007633Y007448D02*
X007440Y007448D01*
X007537Y007448D02*
X007537Y007738D01*
X007440Y007641D01*
X007341Y007496D02*
X007341Y007448D01*
X007293Y007448D01*
X007293Y007496D01*
X007341Y007496D01*
X007191Y007496D02*
X007143Y007448D01*
X007046Y007448D01*
X006998Y007496D01*
X007191Y007690D01*
X007191Y007496D01*
X006998Y007496D02*
X006998Y007690D01*
X007046Y007738D01*
X007143Y007738D01*
X007191Y007690D01*
X006761Y007063D02*
X006761Y007015D01*
X006568Y006821D01*
X006568Y006773D01*
X006466Y006821D02*
X006466Y007063D01*
X006568Y007063D02*
X006761Y007063D01*
X006466Y006821D02*
X006418Y006773D01*
X006321Y006773D01*
X006273Y006821D01*
X006273Y007063D01*
X008029Y007448D02*
X008029Y007738D01*
X010998Y006690D02*
X010998Y006496D01*
X011191Y006690D01*
X011191Y006496D01*
X011143Y006448D01*
X011046Y006448D01*
X010998Y006496D01*
X010998Y006690D02*
X011046Y006738D01*
X011143Y006738D01*
X011191Y006690D01*
X011293Y006496D02*
X011341Y006496D01*
X011341Y006448D01*
X011293Y006448D01*
X011293Y006496D01*
X011440Y006448D02*
X011633Y006448D01*
X011537Y006448D02*
X011537Y006738D01*
X011440Y006641D01*
X011734Y006641D02*
X011734Y006496D01*
X011783Y006448D01*
X011928Y006448D01*
X011928Y006641D01*
X012029Y006593D02*
X012126Y006593D01*
X012029Y006738D02*
X012223Y006738D01*
X012029Y006738D02*
X012029Y006448D01*
X011637Y007348D02*
X011637Y007396D01*
X011831Y007590D01*
X011831Y007638D01*
X011637Y007638D01*
X011536Y007590D02*
X011488Y007638D01*
X011343Y007638D01*
X011343Y007348D01*
X011488Y007348D01*
X011536Y007396D01*
X011536Y007590D01*
X011241Y007590D02*
X011193Y007638D01*
X011096Y007638D01*
X011048Y007590D01*
X011048Y007396D01*
X011096Y007348D01*
X011193Y007348D01*
X011241Y007396D01*
X009954Y002266D02*
X009857Y002266D01*
X009809Y002218D01*
X009809Y002024D01*
X009857Y001976D01*
X009954Y001976D01*
X010002Y002024D01*
X010002Y002218D02*
X009954Y002266D01*
X009707Y001976D02*
X009514Y001976D01*
X009514Y002266D01*
X009413Y002218D02*
X009413Y002121D01*
X009364Y002073D01*
X009219Y002073D01*
X009219Y001976D02*
X009219Y002266D01*
X009364Y002266D01*
X009413Y002218D01*
X009118Y002169D02*
X009070Y002169D01*
X008925Y002169D01*
X008925Y002073D02*
X009118Y002073D01*
X009070Y001976D02*
X009070Y002266D01*
X008973Y002266D02*
X008973Y001976D01*
X008824Y002024D02*
X008824Y002073D01*
X008775Y002121D01*
X008630Y002121D01*
X008630Y002024D01*
X008678Y001976D01*
X008775Y001976D01*
X008824Y002024D01*
X008727Y002218D02*
X008630Y002121D01*
X008727Y002218D02*
X008824Y002266D01*
X008432Y002266D02*
X008432Y001976D01*
X008335Y001976D02*
X008529Y001976D01*
X008335Y002169D02*
X008432Y002266D01*
X008234Y002218D02*
X008041Y002024D01*
X008089Y001976D01*
X008186Y001976D01*
X008234Y002024D01*
X008234Y002218D01*
X008186Y002266D01*
X008089Y002266D01*
X008041Y002218D01*
X008041Y002024D01*
X007940Y001976D02*
X007746Y001976D01*
X007940Y002169D01*
X007940Y002218D01*
X007891Y002266D01*
X007794Y002266D01*
X007746Y002218D01*
X007645Y002121D02*
X007451Y002121D01*
X007350Y001976D02*
X007157Y001976D01*
X007157Y002266D01*
X007056Y002266D02*
X006862Y002266D01*
X006959Y002266D02*
X006959Y001976D01*
X006761Y002024D02*
X006713Y001976D01*
X006616Y001976D01*
X006568Y002024D01*
X006568Y002218D01*
X006616Y002266D01*
X006713Y002266D01*
X006761Y002218D01*
X006466Y002266D02*
X006466Y001976D01*
X006466Y002121D02*
X006273Y002121D01*
X006273Y001976D02*
X006273Y002266D01*
X026523Y016423D02*
X026716Y016423D01*
X026620Y016423D02*
X026620Y016713D01*
X026523Y016616D01*
X026818Y016520D02*
X026963Y016423D01*
X026818Y016423D02*
X026818Y016713D01*
X026963Y016616D02*
X026818Y016520D01*
X026818Y017373D02*
X027011Y017373D01*
X026914Y017373D02*
X026914Y017663D01*
X026818Y017566D01*
X026716Y017518D02*
X026668Y017470D01*
X026523Y017470D01*
X026620Y017470D02*
X026716Y017373D01*
X026716Y017518D02*
X026716Y017615D01*
X026668Y017663D01*
X026523Y017663D01*
X026523Y017373D01*
X026523Y017923D02*
X026716Y017923D01*
X026620Y017923D02*
X026620Y018213D01*
X026523Y018116D01*
X026818Y018020D02*
X026963Y018116D01*
X026818Y018020D02*
X026963Y017923D01*
X026818Y017923D02*
X026818Y018213D01*
X026818Y018873D02*
X027011Y018873D01*
X026914Y018873D02*
X026914Y019163D01*
X026818Y019066D01*
X026716Y019018D02*
X026668Y018970D01*
X026523Y018970D01*
X026620Y018970D02*
X026716Y018873D01*
X026716Y019018D02*
X026716Y019115D01*
X026668Y019163D01*
X026523Y019163D01*
X026523Y018873D01*
X027112Y018873D02*
X027306Y019066D01*
X027306Y019115D01*
X027257Y019163D01*
X027161Y019163D01*
X027112Y019115D01*
X027112Y018873D02*
X027306Y018873D01*
X027209Y017663D02*
X027209Y017373D01*
X027112Y017373D02*
X027306Y017373D01*
X027112Y017566D02*
X027209Y017663D01*
X033168Y036923D02*
X033168Y037213D01*
X033023Y037068D01*
X033216Y037068D01*
X033318Y036971D02*
X033511Y037165D01*
X033511Y036971D01*
X033463Y036923D01*
X033366Y036923D01*
X033318Y036971D01*
X033318Y037165D01*
X033366Y037213D01*
X033463Y037213D01*
X033511Y037165D01*
X033612Y037165D02*
X033661Y037213D01*
X033757Y037213D01*
X033806Y037165D01*
X033612Y036971D01*
X033661Y036923D01*
X033757Y036923D01*
X033806Y036971D01*
X033806Y037165D01*
X033612Y037165D02*
X033612Y036971D01*
X033661Y037873D02*
X033612Y037921D01*
X033806Y038115D01*
X033806Y037921D01*
X033757Y037873D01*
X033661Y037873D01*
X033612Y037921D02*
X033612Y038115D01*
X033661Y038163D01*
X033757Y038163D01*
X033806Y038115D01*
X033511Y038115D02*
X033463Y038163D01*
X033366Y038163D01*
X033318Y038115D01*
X033216Y038115D02*
X033216Y038018D01*
X033168Y037970D01*
X033023Y037970D01*
X033120Y037970D02*
X033216Y037873D01*
X033318Y037873D02*
X033511Y038066D01*
X033511Y038115D01*
X033511Y037873D02*
X033318Y037873D01*
X033216Y038115D02*
X033168Y038163D01*
X033023Y038163D01*
X033023Y037873D01*
X035048Y037896D02*
X035096Y037848D01*
X035193Y037848D01*
X035241Y037896D01*
X035343Y037848D02*
X035343Y038138D01*
X035488Y038138D01*
X035536Y038090D01*
X035536Y037896D01*
X035488Y037848D01*
X035343Y037848D01*
X035241Y038090D02*
X035193Y038138D01*
X035096Y038138D01*
X035048Y038090D01*
X035048Y037896D01*
X035637Y037848D02*
X035831Y037848D01*
X035734Y037848D02*
X035734Y038138D01*
X035637Y038041D01*
X035932Y038041D02*
X036029Y038138D01*
X036029Y037848D01*
X036125Y037848D02*
X035932Y037848D01*
X036029Y037238D02*
X036223Y037238D01*
X036126Y037093D02*
X036029Y037093D01*
X035928Y037141D02*
X035928Y036948D01*
X035783Y036948D01*
X035734Y036996D01*
X035734Y037141D01*
X035633Y036948D02*
X035440Y036948D01*
X035537Y036948D02*
X035537Y037238D01*
X035440Y037141D01*
X035341Y036996D02*
X035293Y036996D01*
X035293Y036948D01*
X035341Y036948D01*
X035341Y036996D01*
X035191Y036996D02*
X035191Y037190D01*
X034998Y036996D01*
X035046Y036948D01*
X035143Y036948D01*
X035191Y036996D01*
X034998Y036996D02*
X034998Y037190D01*
X035046Y037238D01*
X035143Y037238D01*
X035191Y037190D01*
X036029Y037238D02*
X036029Y036948D01*
D14*
X020708Y016708D02*
X018308Y016708D01*
X018250Y016706D01*
X018192Y016700D01*
X018135Y016690D01*
X018079Y016676D01*
X018023Y016659D01*
X017969Y016638D01*
X017917Y016613D01*
X017866Y016584D01*
X017818Y016552D01*
X017772Y016517D01*
X017728Y016479D01*
X017687Y016438D01*
X017649Y016394D01*
X017614Y016348D01*
X017582Y016300D01*
X017553Y016249D01*
X017528Y016197D01*
X017507Y016143D01*
X017490Y016087D01*
X017476Y016031D01*
X017466Y015974D01*
X017460Y015916D01*
X017458Y015858D01*
X017460Y015800D01*
X017466Y015742D01*
X017476Y015685D01*
X017490Y015629D01*
X017507Y015573D01*
X017528Y015519D01*
X017553Y015467D01*
X017582Y015416D01*
X017614Y015368D01*
X017649Y015322D01*
X017687Y015278D01*
X017728Y015237D01*
X017772Y015199D01*
X017818Y015164D01*
X017866Y015132D01*
X017917Y015103D01*
X017969Y015078D01*
X018023Y015057D01*
X018079Y015040D01*
X018135Y015026D01*
X018192Y015016D01*
X018250Y015010D01*
X018308Y015008D01*
X020708Y015008D01*
X020766Y015010D01*
X020824Y015016D01*
X020881Y015026D01*
X020937Y015040D01*
X020993Y015057D01*
X021047Y015078D01*
X021099Y015103D01*
X021150Y015132D01*
X021198Y015164D01*
X021244Y015199D01*
X021288Y015237D01*
X021329Y015278D01*
X021367Y015322D01*
X021402Y015368D01*
X021434Y015416D01*
X021463Y015467D01*
X021488Y015519D01*
X021509Y015573D01*
X021526Y015629D01*
X021540Y015685D01*
X021550Y015742D01*
X021556Y015800D01*
X021558Y015858D01*
X021556Y015916D01*
X021550Y015974D01*
X021540Y016031D01*
X021526Y016087D01*
X021509Y016143D01*
X021488Y016197D01*
X021463Y016249D01*
X021434Y016300D01*
X021402Y016348D01*
X021367Y016394D01*
X021329Y016438D01*
X021288Y016479D01*
X021244Y016517D01*
X021198Y016552D01*
X021150Y016584D01*
X021099Y016613D01*
X021047Y016638D01*
X020993Y016659D01*
X020937Y016676D01*
X020881Y016690D01*
X020824Y016700D01*
X020766Y016706D01*
X020708Y016708D01*
D15*
X020607Y016933D02*
X020607Y017383D01*
X020382Y017158D01*
X020682Y017158D01*
X020842Y017008D02*
X020917Y017008D01*
X020917Y016933D01*
X020842Y016933D01*
X020842Y017008D01*
X021072Y017008D02*
X021072Y016933D01*
X021072Y017008D02*
X021373Y017308D01*
X021373Y017383D01*
X021072Y017383D01*
X020222Y016933D02*
X019922Y016933D01*
X020072Y016933D02*
X020072Y017383D01*
X019922Y017233D01*
X020687Y014783D02*
X020612Y014708D01*
X020612Y014408D01*
X020687Y014333D01*
X020837Y014333D01*
X020912Y014408D01*
X020912Y014708D01*
X020837Y014783D01*
X020687Y014783D01*
X020762Y014483D02*
X020912Y014333D01*
X021072Y014333D02*
X021373Y014633D01*
X021373Y014708D01*
X021298Y014783D01*
X021148Y014783D01*
X021072Y014708D01*
X021072Y014333D02*
X021373Y014333D01*
X022908Y012393D02*
X022983Y012393D01*
X023058Y012318D01*
X023133Y012393D01*
X023208Y012393D01*
X023283Y012318D01*
X023283Y012168D01*
X023208Y012093D01*
X023208Y011933D02*
X022833Y011933D01*
X022908Y012093D02*
X022833Y012168D01*
X022833Y012318D01*
X022908Y012393D01*
X023058Y012318D02*
X023058Y012243D01*
X023208Y011933D02*
X023283Y011858D01*
X023283Y011708D01*
X023208Y011633D01*
X022833Y011633D01*
X024133Y012733D02*
X024133Y013183D01*
X024283Y013033D01*
X024433Y013183D01*
X024433Y012733D01*
X024593Y012733D02*
X024593Y013033D01*
X024743Y013183D01*
X024893Y013033D01*
X024893Y012733D01*
X025054Y012733D02*
X025354Y013183D01*
X025514Y013108D02*
X025589Y013183D01*
X025739Y013183D01*
X025814Y013108D01*
X025814Y013033D01*
X025514Y012733D01*
X025814Y012733D01*
X025974Y012808D02*
X026049Y012733D01*
X026199Y012733D01*
X026275Y012808D01*
X026275Y012883D01*
X026199Y012958D01*
X026124Y012958D01*
X026199Y012958D02*
X026275Y013033D01*
X026275Y013108D01*
X026199Y013183D01*
X026049Y013183D01*
X025974Y013108D01*
X026435Y013108D02*
X026510Y013183D01*
X026660Y013183D01*
X026735Y013108D01*
X026735Y013033D01*
X026435Y012733D01*
X026735Y012733D01*
X026895Y012733D02*
X027195Y012733D01*
X027355Y012808D02*
X027430Y012733D01*
X027581Y012733D01*
X027656Y012808D01*
X027816Y012733D02*
X027816Y013183D01*
X027656Y013108D02*
X027581Y013183D01*
X027430Y013183D01*
X027355Y013108D01*
X027355Y012808D01*
X027045Y012958D02*
X026895Y012958D01*
X026895Y013183D02*
X026895Y012733D01*
X026895Y013183D02*
X027195Y013183D01*
X027816Y012733D02*
X027966Y012883D01*
X028116Y012733D01*
X028116Y013183D01*
X028276Y013183D02*
X028276Y012733D01*
X028576Y012733D01*
X028426Y012958D02*
X028276Y012958D01*
X028276Y013183D02*
X028576Y013183D01*
X030783Y013883D02*
X031083Y013883D01*
X030933Y013883D02*
X030933Y014333D01*
X030783Y014183D01*
X030993Y016683D02*
X030993Y017133D01*
X031218Y017133D01*
X031293Y017058D01*
X031293Y016908D01*
X031218Y016833D01*
X030993Y016833D01*
X031143Y016833D02*
X031293Y016683D01*
X031454Y016758D02*
X031529Y016683D01*
X031679Y016683D01*
X031754Y016758D01*
X031754Y017058D01*
X031679Y017133D01*
X031529Y017133D01*
X031454Y017058D01*
X031454Y016758D01*
X031914Y016758D02*
X031914Y017058D01*
X031989Y017133D01*
X032139Y017133D01*
X032214Y017058D01*
X032214Y016908D02*
X032064Y016908D01*
X032214Y016908D02*
X032214Y016758D01*
X032139Y016683D01*
X031989Y016683D01*
X031914Y016758D01*
X030833Y016908D02*
X030758Y016833D01*
X030533Y016833D01*
X030533Y016683D02*
X030533Y017133D01*
X030758Y017133D01*
X030833Y017058D01*
X030833Y016908D01*
X033633Y016008D02*
X033858Y016008D01*
X033933Y015933D01*
X033933Y015858D01*
X033858Y015783D01*
X033708Y015783D01*
X033633Y015858D01*
X033633Y016008D01*
X033783Y016158D01*
X033933Y016233D01*
X038535Y017778D02*
X038535Y005234D01*
X042157Y005234D01*
X043005Y005234D01*
X043005Y017778D01*
X042157Y017778D01*
X038535Y017778D01*
X038535Y020734D02*
X042157Y020734D01*
X042157Y027278D01*
X038535Y027278D01*
X038535Y020734D01*
X041008Y020758D02*
X041008Y027258D01*
X041008Y030258D02*
X041008Y036758D01*
X042157Y036778D02*
X038535Y036778D01*
X038535Y030234D01*
X042157Y030234D01*
X042157Y036778D01*
X035902Y034033D02*
X035902Y033658D01*
X035827Y033583D01*
X035677Y033583D01*
X035602Y033658D01*
X035602Y034033D01*
X035442Y033958D02*
X035442Y033883D01*
X035367Y033808D01*
X035217Y033808D01*
X035142Y033883D01*
X035142Y033958D01*
X035217Y034033D01*
X035367Y034033D01*
X035442Y033958D01*
X035367Y033808D02*
X035442Y033733D01*
X035442Y033658D01*
X035367Y033583D01*
X035217Y033583D01*
X035142Y033658D01*
X035142Y033733D01*
X035217Y033808D01*
X034981Y033883D02*
X034981Y033958D01*
X034906Y034033D01*
X034756Y034033D01*
X034681Y033958D01*
X034981Y033883D02*
X034681Y033583D01*
X034981Y033583D01*
X034521Y033583D02*
X034221Y033583D01*
X034371Y033583D02*
X034371Y034033D01*
X034221Y033883D01*
X034061Y033883D02*
X034061Y033958D01*
X033986Y034033D01*
X033836Y034033D01*
X033760Y033958D01*
X033600Y033883D02*
X033600Y033583D01*
X033760Y033583D02*
X034061Y033883D01*
X034061Y033583D02*
X033760Y033583D01*
X033600Y033808D02*
X033300Y033808D01*
X033300Y033883D02*
X033450Y034033D01*
X033600Y033883D01*
X033300Y033883D02*
X033300Y033583D01*
X033140Y033583D02*
X033140Y034033D01*
X032840Y034033D02*
X032840Y033583D01*
X032683Y033583D02*
X032533Y033583D01*
X032608Y033583D02*
X032608Y034033D01*
X032533Y034033D02*
X032683Y034033D01*
X032840Y034033D02*
X033140Y033583D01*
X031783Y033600D02*
X031783Y033300D01*
X031483Y033600D01*
X031408Y033600D01*
X031333Y033525D01*
X031333Y033375D01*
X031408Y033300D01*
X031408Y033140D02*
X031333Y033065D01*
X031333Y032915D01*
X031408Y032840D01*
X031708Y032840D01*
X031783Y032915D01*
X031783Y033065D01*
X031708Y033140D01*
X031783Y032683D02*
X031783Y032533D01*
X031783Y032608D02*
X031333Y032608D01*
X031333Y032533D02*
X031333Y032683D01*
X030304Y034033D02*
X030004Y034033D01*
X030154Y034033D02*
X030154Y034483D01*
X030004Y034333D01*
X029843Y034483D02*
X029693Y034483D01*
X029768Y034483D02*
X029768Y034108D01*
X029693Y034033D01*
X029618Y034033D01*
X029543Y034108D01*
X029383Y034108D02*
X029308Y034033D01*
X029158Y034033D01*
X029083Y034108D01*
X029158Y034258D02*
X029308Y034258D01*
X029383Y034183D01*
X029383Y034108D01*
X029158Y034258D02*
X029083Y034333D01*
X029083Y034408D01*
X029158Y034483D01*
X029308Y034483D01*
X029383Y034408D01*
X029308Y035533D02*
X029158Y035533D01*
X029083Y035608D01*
X029158Y035758D02*
X029308Y035758D01*
X029383Y035683D01*
X029383Y035608D01*
X029308Y035533D01*
X029543Y035608D02*
X029618Y035533D01*
X029693Y035533D01*
X029768Y035608D01*
X029768Y035983D01*
X029693Y035983D02*
X029843Y035983D01*
X030004Y035908D02*
X030079Y035983D01*
X030229Y035983D01*
X030304Y035908D01*
X030304Y035833D01*
X030004Y035533D01*
X030304Y035533D01*
X029383Y035908D02*
X029308Y035983D01*
X029158Y035983D01*
X029083Y035908D01*
X029083Y035833D01*
X029158Y035758D01*
X028508Y029508D02*
X026508Y029508D01*
X026508Y027508D01*
X028508Y027508D01*
X028508Y029508D01*
X028608Y026756D02*
X028983Y026756D01*
X029058Y026681D01*
X029058Y026530D01*
X028983Y026455D01*
X028608Y026455D01*
X028683Y026295D02*
X028983Y025995D01*
X029058Y026070D01*
X029058Y026220D01*
X028983Y026295D01*
X028683Y026295D01*
X028608Y026220D01*
X028608Y026070D01*
X028683Y025995D01*
X028983Y025995D01*
X028833Y025835D02*
X028833Y025535D01*
X028608Y025760D01*
X029058Y025760D01*
X028983Y025375D02*
X029058Y025299D01*
X029058Y025149D01*
X028983Y025074D01*
X029058Y024914D02*
X029058Y024614D01*
X028758Y024914D01*
X028683Y024914D01*
X028608Y024839D01*
X028608Y024689D01*
X028683Y024614D01*
X028758Y024454D02*
X029058Y024454D01*
X028833Y024454D02*
X028833Y024154D01*
X028758Y024154D02*
X028608Y024304D01*
X028758Y024454D01*
X028758Y024154D02*
X029058Y024154D01*
X028833Y023993D02*
X028908Y023918D01*
X028908Y023693D01*
X029058Y023693D02*
X028608Y023693D01*
X028608Y023918D01*
X028683Y023993D01*
X028833Y023993D01*
X028983Y023533D02*
X028683Y023533D01*
X028608Y023458D01*
X028608Y023308D01*
X028683Y023233D01*
X028983Y023233D01*
X029058Y023308D01*
X029058Y023458D01*
X028983Y023533D01*
X028683Y025074D02*
X028608Y025149D01*
X028608Y025299D01*
X028683Y025375D01*
X028758Y025375D01*
X028833Y025299D01*
X028908Y025375D01*
X028983Y025375D01*
X028833Y025299D02*
X028833Y025224D01*
X026408Y024225D02*
X025958Y024225D01*
X026183Y024000D01*
X026183Y024300D01*
X026333Y023840D02*
X026408Y023765D01*
X026408Y023615D01*
X026333Y023540D01*
X026033Y023540D01*
X025958Y023615D01*
X025958Y023765D01*
X026033Y023840D01*
X025958Y023383D02*
X025958Y023233D01*
X025958Y023308D02*
X026408Y023308D01*
X026408Y023233D02*
X026408Y023383D01*
X017333Y032308D02*
X017333Y032458D01*
X017258Y032533D01*
X016883Y032533D01*
X017033Y032693D02*
X016883Y032843D01*
X017333Y032843D01*
X017333Y032693D02*
X017333Y032993D01*
X017258Y033154D02*
X016958Y033454D01*
X017258Y033454D01*
X017333Y033379D01*
X017333Y033229D01*
X017258Y033154D01*
X016958Y033154D01*
X016883Y033229D01*
X016883Y033379D01*
X016958Y033454D01*
X017933Y033008D02*
X018233Y033008D01*
X018393Y032858D02*
X018693Y033158D01*
X018693Y032858D01*
X018618Y032783D01*
X018468Y032783D01*
X018393Y032858D01*
X018393Y033158D01*
X018468Y033233D01*
X018618Y033233D01*
X018693Y033158D01*
X018854Y033233D02*
X018854Y033008D01*
X019004Y033083D01*
X019079Y033083D01*
X019154Y033008D01*
X019154Y032858D01*
X019079Y032783D01*
X018929Y032783D01*
X018854Y032858D01*
X018854Y033233D02*
X019154Y033233D01*
X019314Y033083D02*
X019464Y033233D01*
X019464Y032783D01*
X019314Y032783D02*
X019614Y032783D01*
X019774Y032783D02*
X019774Y033233D01*
X019999Y033233D01*
X020075Y033158D01*
X020075Y032858D01*
X019999Y032783D01*
X019774Y032783D01*
X018158Y032783D02*
X018158Y033233D01*
X017933Y033008D01*
X017333Y032308D02*
X017258Y032233D01*
X016883Y032233D01*
X014575Y032858D02*
X014575Y033158D01*
X014499Y033233D01*
X014274Y033233D01*
X014274Y032783D01*
X014499Y032783D01*
X014575Y032858D01*
X014114Y032783D02*
X013814Y032783D01*
X013964Y032783D02*
X013964Y033233D01*
X013814Y033083D01*
X013654Y033008D02*
X013654Y032858D01*
X013579Y032783D01*
X013429Y032783D01*
X013354Y032858D01*
X013354Y033008D02*
X013504Y033083D01*
X013579Y033083D01*
X013654Y033008D01*
X013654Y033233D02*
X013354Y033233D01*
X013354Y033008D01*
X013193Y032858D02*
X013118Y032783D01*
X012968Y032783D01*
X012893Y032858D01*
X013193Y033158D01*
X013193Y032858D01*
X012893Y032858D02*
X012893Y033158D01*
X012968Y033233D01*
X013118Y033233D01*
X013193Y033158D01*
X012733Y033008D02*
X012433Y033008D01*
X012658Y033233D01*
X012658Y032783D01*
X011833Y032768D02*
X011833Y032918D01*
X011758Y032993D01*
X011683Y032993D01*
X011608Y032918D01*
X011608Y032693D01*
X011758Y032693D01*
X011833Y032768D01*
X011608Y032693D02*
X011458Y032843D01*
X011383Y032993D01*
X011383Y032533D02*
X011758Y032533D01*
X011833Y032458D01*
X011833Y032308D01*
X011758Y032233D01*
X011383Y032233D01*
X004633Y031633D02*
X004633Y031333D01*
X004633Y031483D02*
X004183Y031483D01*
X004333Y031333D01*
X001833Y031333D02*
X001383Y031033D01*
X001383Y031333D02*
X001833Y031033D01*
X001833Y031493D02*
X001383Y031493D01*
X001383Y031793D01*
X001458Y031954D02*
X001758Y031954D01*
X001833Y032029D01*
X001833Y032179D01*
X001758Y032254D01*
X001458Y032254D01*
X001383Y032179D01*
X001383Y032029D01*
X001458Y031954D01*
X001608Y031643D02*
X001608Y031493D01*
X001758Y032414D02*
X001833Y032489D01*
X001833Y032639D01*
X001758Y032714D01*
X001458Y032714D01*
X001383Y032639D01*
X001383Y032489D01*
X001458Y032414D01*
X001758Y032414D01*
X001383Y032874D02*
X001383Y033175D01*
X001383Y033024D02*
X001833Y033024D01*
X001833Y033335D02*
X001383Y033335D01*
X001383Y033560D01*
X001458Y033635D01*
X001608Y033635D01*
X001683Y033560D01*
X001683Y033335D01*
X001608Y033795D02*
X001608Y034095D01*
X001533Y034095D02*
X001833Y034095D01*
X001833Y034255D02*
X001833Y034481D01*
X001758Y034556D01*
X001458Y034556D01*
X001383Y034481D01*
X001383Y034255D01*
X001833Y034255D01*
X001758Y034533D02*
X001683Y034533D01*
X001608Y034608D01*
X001608Y034758D01*
X001683Y034833D01*
X001758Y034833D01*
X001833Y034758D01*
X001833Y034608D01*
X001758Y034533D01*
X001608Y034608D02*
X001533Y034533D01*
X001458Y034533D01*
X001383Y034608D01*
X001383Y034758D01*
X001458Y034833D01*
X001533Y034833D01*
X001608Y034758D01*
X001533Y034095D02*
X001383Y033945D01*
X001533Y033795D01*
X001833Y033795D01*
X001758Y026293D02*
X001833Y026218D01*
X001833Y026068D01*
X001758Y025993D01*
X001458Y026293D01*
X001758Y026293D01*
X001758Y025993D02*
X001458Y025993D01*
X001383Y026068D01*
X001383Y026218D01*
X001458Y026293D01*
X001458Y025833D02*
X001383Y025758D01*
X001383Y025608D01*
X001458Y025533D01*
X001458Y025833D02*
X001533Y025833D01*
X001833Y025533D01*
X001833Y025833D01*
X001833Y018214D02*
X001383Y018214D01*
X001533Y018064D01*
X001383Y017914D01*
X001833Y017914D01*
X001833Y017754D02*
X001383Y017754D01*
X001383Y017454D02*
X001833Y017454D01*
X001683Y017604D01*
X001833Y017754D01*
X001608Y017293D02*
X001683Y017218D01*
X001683Y016993D01*
X001833Y016993D02*
X001383Y016993D01*
X001383Y017218D01*
X001458Y017293D01*
X001608Y017293D01*
X001833Y016833D02*
X001383Y016533D01*
X001383Y016833D02*
X001833Y016533D01*
X004183Y016983D02*
X004333Y016833D01*
X004183Y016983D02*
X004633Y016983D01*
X004633Y016833D02*
X004633Y017133D01*
X001758Y012093D02*
X001833Y012018D01*
X001833Y011868D01*
X001758Y011793D01*
X001458Y012093D01*
X001758Y012093D01*
X001758Y011793D02*
X001458Y011793D01*
X001383Y011868D01*
X001383Y012018D01*
X001458Y012093D01*
X001833Y011633D02*
X001833Y011333D01*
X001833Y011483D02*
X001383Y011483D01*
X001533Y011333D01*
X001458Y008714D02*
X001383Y008639D01*
X001383Y008489D01*
X001458Y008414D01*
X001758Y008414D01*
X001833Y008489D01*
X001833Y008639D01*
X001758Y008714D01*
X001833Y008254D02*
X001383Y008254D01*
X001383Y007954D02*
X001833Y008254D01*
X001833Y007954D02*
X001383Y007954D01*
X001383Y007793D02*
X001383Y007493D01*
X001833Y007493D01*
X001833Y007793D01*
X001608Y007643D02*
X001608Y007493D01*
X001833Y007333D02*
X001383Y007033D01*
X001383Y007333D02*
X001833Y007033D01*
X004183Y007483D02*
X004333Y007333D01*
X004183Y007483D02*
X004633Y007483D01*
X004633Y007333D02*
X004633Y007633D01*
X011183Y004558D02*
X011183Y004483D01*
X011258Y004408D01*
X011408Y004408D01*
X011483Y004333D01*
X011483Y004258D01*
X011408Y004183D01*
X011258Y004183D01*
X011183Y004258D01*
X011183Y004558D02*
X011258Y004633D01*
X011408Y004633D01*
X011483Y004558D01*
X011643Y004633D02*
X011643Y004183D01*
X011943Y004183D01*
X012104Y004183D02*
X012104Y004633D01*
X012329Y004633D01*
X012404Y004558D01*
X012404Y004408D01*
X012329Y004333D01*
X012104Y004333D01*
X012254Y004333D02*
X012404Y004183D01*
X012564Y004183D02*
X012714Y004183D01*
X012639Y004183D02*
X012639Y004633D01*
X012564Y004633D02*
X012714Y004633D01*
X012871Y004483D02*
X013021Y004633D01*
X013171Y004483D01*
X013171Y004183D01*
X013331Y004183D02*
X013331Y004633D01*
X013171Y004408D02*
X012871Y004408D01*
X012871Y004483D02*
X012871Y004183D01*
X013331Y004183D02*
X013631Y004183D01*
X011943Y004633D02*
X011643Y004633D01*
X011643Y004408D02*
X011793Y004408D01*
X012560Y006833D02*
X012560Y006908D01*
X012860Y007208D01*
X012860Y007283D01*
X012560Y007283D01*
X013021Y007058D02*
X013321Y007058D01*
X013481Y007058D02*
X013781Y007058D01*
X013941Y007208D02*
X013941Y006908D01*
X014016Y006833D01*
X014166Y006833D01*
X014241Y006908D01*
X014402Y006908D02*
X014702Y007208D01*
X014702Y006908D01*
X014627Y006833D01*
X014477Y006833D01*
X014402Y006908D01*
X014402Y007208D01*
X014477Y007283D01*
X014627Y007283D01*
X014702Y007208D01*
X014862Y007208D02*
X014937Y007283D01*
X015087Y007283D01*
X015162Y007208D01*
X015162Y007133D01*
X014862Y006833D01*
X015162Y006833D01*
X015322Y006833D02*
X015547Y006833D01*
X015623Y006908D01*
X015623Y007208D01*
X015547Y007283D01*
X015322Y007283D01*
X015322Y006833D01*
X016433Y006862D02*
X016808Y006862D01*
X016883Y006937D01*
X016883Y007087D01*
X016808Y007162D01*
X016433Y007162D01*
X016433Y007322D02*
X016658Y007322D01*
X016583Y007473D01*
X016583Y007548D01*
X016658Y007623D01*
X016808Y007623D01*
X016883Y007548D01*
X016883Y007398D01*
X016808Y007322D01*
X016433Y007322D02*
X016433Y007623D01*
X014241Y007208D02*
X014166Y007283D01*
X014016Y007283D01*
X013941Y007208D01*
X013781Y007283D02*
X013781Y006833D01*
X013481Y006833D02*
X013481Y007283D01*
X013246Y007283D02*
X013246Y006833D01*
X013021Y007058D02*
X013246Y007283D01*
X015633Y004633D02*
X015633Y004183D01*
X015483Y004183D02*
X015783Y004183D01*
X015943Y004258D02*
X016243Y004558D01*
X016243Y004258D01*
X016168Y004183D01*
X016018Y004183D01*
X015943Y004258D01*
X015943Y004558D01*
X016018Y004633D01*
X016168Y004633D01*
X016243Y004558D01*
X015633Y004633D02*
X015483Y004483D01*
X018533Y004783D02*
X018833Y004783D01*
X018683Y004783D02*
X018683Y005233D01*
X018533Y005083D01*
X019033Y005683D02*
X019333Y006133D01*
X019493Y006133D02*
X019718Y006133D01*
X019793Y006058D01*
X019793Y005908D01*
X019718Y005833D01*
X019493Y005833D01*
X019493Y005683D02*
X019493Y006133D01*
X019643Y005833D02*
X019793Y005683D01*
X019954Y005758D02*
X020029Y005683D01*
X020179Y005683D01*
X020254Y005758D01*
X020254Y006058D01*
X020179Y006133D01*
X020029Y006133D01*
X019954Y006058D01*
X019954Y005758D01*
X020414Y005683D02*
X020414Y006133D01*
X020414Y005683D02*
X020714Y005683D01*
X020874Y005683D02*
X021175Y005683D01*
X021335Y005758D02*
X021410Y005683D01*
X021560Y005683D01*
X021635Y005758D01*
X021635Y005908D01*
X021485Y005908D01*
X021635Y006058D02*
X021560Y006133D01*
X021410Y006133D01*
X021335Y006058D01*
X021335Y005758D01*
X020874Y005683D02*
X020874Y006133D01*
X021795Y006133D02*
X021795Y006058D01*
X021945Y005908D01*
X021945Y005683D01*
X021945Y005908D02*
X022095Y006058D01*
X022095Y006133D01*
X022255Y006133D02*
X022481Y006133D01*
X022556Y006058D01*
X022556Y005908D01*
X022481Y005833D01*
X022255Y005833D01*
X022255Y005683D02*
X022255Y006133D01*
X022405Y005833D02*
X022556Y005683D01*
X022716Y005758D02*
X022791Y005683D01*
X022941Y005683D01*
X023016Y005758D01*
X023016Y006058D01*
X022941Y006133D01*
X022791Y006133D01*
X022716Y006058D01*
X022716Y005758D01*
X025033Y005083D02*
X025183Y005233D01*
X025183Y004783D01*
X025033Y004783D02*
X025333Y004783D01*
X025533Y005683D02*
X025833Y006133D01*
X025993Y006133D02*
X025993Y006058D01*
X026143Y005908D01*
X026143Y005683D01*
X026143Y005908D02*
X026293Y006058D01*
X026293Y006133D01*
X026454Y005983D02*
X026604Y006133D01*
X026754Y005983D01*
X026754Y005683D01*
X026914Y005683D02*
X027064Y005833D01*
X027214Y005683D01*
X027214Y006133D01*
X027374Y006058D02*
X027374Y005758D01*
X027449Y005683D01*
X027599Y005683D01*
X027675Y005758D01*
X027675Y005908D01*
X027524Y005908D01*
X027374Y006058D02*
X027449Y006133D01*
X027599Y006133D01*
X027675Y006058D01*
X027835Y006058D02*
X027985Y005908D01*
X027985Y005683D01*
X027985Y005908D02*
X028135Y006058D01*
X028135Y006133D01*
X028295Y006133D02*
X028520Y006133D01*
X028595Y006058D01*
X028595Y005908D01*
X028520Y005833D01*
X028295Y005833D01*
X028295Y005683D02*
X028295Y006133D01*
X028445Y005833D02*
X028595Y005683D01*
X028755Y005758D02*
X028830Y005683D01*
X028981Y005683D01*
X029056Y005758D01*
X029056Y006058D01*
X028981Y006133D01*
X028830Y006133D01*
X028755Y006058D01*
X028755Y005758D01*
X027835Y006058D02*
X027835Y006133D01*
X026914Y006133D02*
X026914Y005683D01*
X026754Y005908D02*
X026454Y005908D01*
X026454Y005983D02*
X026454Y005683D01*
X025833Y005683D02*
X025533Y006133D01*
X031533Y005083D02*
X031683Y005233D01*
X031683Y004783D01*
X031533Y004783D02*
X031833Y004783D01*
X032033Y005683D02*
X032333Y006133D01*
X032493Y006133D02*
X032718Y006133D01*
X032793Y006058D01*
X032793Y005908D01*
X032718Y005833D01*
X032493Y005833D01*
X032493Y005683D02*
X032493Y006133D01*
X032033Y006133D02*
X032333Y005683D01*
X032954Y005683D02*
X033104Y005683D01*
X033029Y005683D02*
X033029Y006133D01*
X032954Y006133D02*
X033104Y006133D01*
X033260Y006133D02*
X033561Y006133D01*
X033411Y006133D02*
X033411Y005683D01*
X033721Y005758D02*
X033721Y006058D01*
X033796Y006133D01*
X033946Y006133D01*
X034021Y006058D01*
X034181Y006133D02*
X034181Y005683D01*
X034021Y005758D02*
X033946Y005683D01*
X033796Y005683D01*
X033721Y005758D01*
X034181Y005908D02*
X034481Y005908D01*
X034642Y006058D02*
X034642Y005758D01*
X034717Y005683D01*
X034867Y005683D01*
X034942Y005758D01*
X034942Y005908D01*
X034792Y005908D01*
X034942Y006058D02*
X034867Y006133D01*
X034717Y006133D01*
X034642Y006058D01*
X034481Y006133D02*
X034481Y005683D01*
X035102Y006058D02*
X035252Y005908D01*
X035252Y005683D01*
X035252Y005908D02*
X035402Y006058D01*
X035402Y006133D01*
X035562Y006133D02*
X035787Y006133D01*
X035862Y006058D01*
X035862Y005908D01*
X035787Y005833D01*
X035562Y005833D01*
X035562Y005683D02*
X035562Y006133D01*
X035712Y005833D02*
X035862Y005683D01*
X036023Y005758D02*
X036098Y005683D01*
X036248Y005683D01*
X036323Y005758D01*
X036323Y006058D01*
X036248Y006133D01*
X036098Y006133D01*
X036023Y006058D01*
X036023Y005758D01*
X035102Y006058D02*
X035102Y006133D01*
X042157Y005234D02*
X042157Y017778D01*
X043005Y017778D02*
X045013Y017778D01*
X045013Y005234D01*
X045701Y005234D01*
X045701Y017778D01*
X045013Y017778D01*
X044398Y017058D02*
X043728Y016338D01*
X043638Y016448D02*
X044288Y017158D01*
X043508Y016758D02*
X043510Y016803D01*
X043516Y016849D01*
X043527Y016893D01*
X043541Y016936D01*
X043559Y016978D01*
X043581Y017018D01*
X043606Y017056D01*
X043635Y017091D01*
X043667Y017123D01*
X043701Y017153D01*
X043739Y017179D01*
X043778Y017202D01*
X043819Y017221D01*
X043862Y017236D01*
X043906Y017248D01*
X043951Y017255D01*
X043997Y017258D01*
X044042Y017257D01*
X044087Y017252D01*
X044132Y017242D01*
X044175Y017229D01*
X044218Y017212D01*
X044258Y017191D01*
X044296Y017166D01*
X044332Y017139D01*
X044366Y017108D01*
X044396Y017074D01*
X044423Y017037D01*
X044447Y016998D01*
X044467Y016957D01*
X044483Y016915D01*
X044495Y016871D01*
X044503Y016826D01*
X044507Y016781D01*
X044507Y016735D01*
X044503Y016690D01*
X044495Y016645D01*
X044483Y016601D01*
X044467Y016559D01*
X044447Y016518D01*
X044423Y016479D01*
X044396Y016442D01*
X044366Y016408D01*
X044332Y016377D01*
X044296Y016350D01*
X044258Y016325D01*
X044218Y016304D01*
X044175Y016287D01*
X044132Y016274D01*
X044087Y016264D01*
X044042Y016259D01*
X043997Y016258D01*
X043951Y016261D01*
X043906Y016268D01*
X043862Y016280D01*
X043819Y016295D01*
X043778Y016314D01*
X043739Y016337D01*
X043701Y016363D01*
X043667Y016393D01*
X043635Y016425D01*
X043606Y016460D01*
X043581Y016498D01*
X043559Y016538D01*
X043541Y016580D01*
X043527Y016623D01*
X043516Y016667D01*
X043510Y016713D01*
X043508Y016758D01*
X043708Y015658D02*
X044408Y014978D01*
X044308Y014868D02*
X043608Y015548D01*
X043508Y015258D02*
X043510Y015303D01*
X043516Y015349D01*
X043527Y015393D01*
X043541Y015436D01*
X043559Y015478D01*
X043581Y015518D01*
X043606Y015556D01*
X043635Y015591D01*
X043667Y015623D01*
X043701Y015653D01*
X043739Y015679D01*
X043778Y015702D01*
X043819Y015721D01*
X043862Y015736D01*
X043906Y015748D01*
X043951Y015755D01*
X043997Y015758D01*
X044042Y015757D01*
X044087Y015752D01*
X044132Y015742D01*
X044175Y015729D01*
X044218Y015712D01*
X044258Y015691D01*
X044296Y015666D01*
X044332Y015639D01*
X044366Y015608D01*
X044396Y015574D01*
X044423Y015537D01*
X044447Y015498D01*
X044467Y015457D01*
X044483Y015415D01*
X044495Y015371D01*
X044503Y015326D01*
X044507Y015281D01*
X044507Y015235D01*
X044503Y015190D01*
X044495Y015145D01*
X044483Y015101D01*
X044467Y015059D01*
X044447Y015018D01*
X044423Y014979D01*
X044396Y014942D01*
X044366Y014908D01*
X044332Y014877D01*
X044296Y014850D01*
X044258Y014825D01*
X044218Y014804D01*
X044175Y014787D01*
X044132Y014774D01*
X044087Y014764D01*
X044042Y014759D01*
X043997Y014758D01*
X043951Y014761D01*
X043906Y014768D01*
X043862Y014780D01*
X043819Y014795D01*
X043778Y014814D01*
X043739Y014837D01*
X043701Y014863D01*
X043667Y014893D01*
X043635Y014925D01*
X043606Y014960D01*
X043581Y014998D01*
X043559Y015038D01*
X043541Y015080D01*
X043527Y015123D01*
X043516Y015167D01*
X043510Y015213D01*
X043508Y015258D01*
X044288Y014158D02*
X043638Y013448D01*
X043728Y013338D02*
X044398Y014058D01*
X043508Y013758D02*
X043510Y013803D01*
X043516Y013849D01*
X043527Y013893D01*
X043541Y013936D01*
X043559Y013978D01*
X043581Y014018D01*
X043606Y014056D01*
X043635Y014091D01*
X043667Y014123D01*
X043701Y014153D01*
X043739Y014179D01*
X043778Y014202D01*
X043819Y014221D01*
X043862Y014236D01*
X043906Y014248D01*
X043951Y014255D01*
X043997Y014258D01*
X044042Y014257D01*
X044087Y014252D01*
X044132Y014242D01*
X044175Y014229D01*
X044218Y014212D01*
X044258Y014191D01*
X044296Y014166D01*
X044332Y014139D01*
X044366Y014108D01*
X044396Y014074D01*
X044423Y014037D01*
X044447Y013998D01*
X044467Y013957D01*
X044483Y013915D01*
X044495Y013871D01*
X044503Y013826D01*
X044507Y013781D01*
X044507Y013735D01*
X044503Y013690D01*
X044495Y013645D01*
X044483Y013601D01*
X044467Y013559D01*
X044447Y013518D01*
X044423Y013479D01*
X044396Y013442D01*
X044366Y013408D01*
X044332Y013377D01*
X044296Y013350D01*
X044258Y013325D01*
X044218Y013304D01*
X044175Y013287D01*
X044132Y013274D01*
X044087Y013264D01*
X044042Y013259D01*
X043997Y013258D01*
X043951Y013261D01*
X043906Y013268D01*
X043862Y013280D01*
X043819Y013295D01*
X043778Y013314D01*
X043739Y013337D01*
X043701Y013363D01*
X043667Y013393D01*
X043635Y013425D01*
X043606Y013460D01*
X043581Y013498D01*
X043559Y013538D01*
X043541Y013580D01*
X043527Y013623D01*
X043516Y013667D01*
X043510Y013713D01*
X043508Y013758D01*
X043708Y012658D02*
X044408Y011978D01*
X044308Y011868D02*
X043608Y012548D01*
X043508Y012258D02*
X043510Y012303D01*
X043516Y012349D01*
X043527Y012393D01*
X043541Y012436D01*
X043559Y012478D01*
X043581Y012518D01*
X043606Y012556D01*
X043635Y012591D01*
X043667Y012623D01*
X043701Y012653D01*
X043739Y012679D01*
X043778Y012702D01*
X043819Y012721D01*
X043862Y012736D01*
X043906Y012748D01*
X043951Y012755D01*
X043997Y012758D01*
X044042Y012757D01*
X044087Y012752D01*
X044132Y012742D01*
X044175Y012729D01*
X044218Y012712D01*
X044258Y012691D01*
X044296Y012666D01*
X044332Y012639D01*
X044366Y012608D01*
X044396Y012574D01*
X044423Y012537D01*
X044447Y012498D01*
X044467Y012457D01*
X044483Y012415D01*
X044495Y012371D01*
X044503Y012326D01*
X044507Y012281D01*
X044507Y012235D01*
X044503Y012190D01*
X044495Y012145D01*
X044483Y012101D01*
X044467Y012059D01*
X044447Y012018D01*
X044423Y011979D01*
X044396Y011942D01*
X044366Y011908D01*
X044332Y011877D01*
X044296Y011850D01*
X044258Y011825D01*
X044218Y011804D01*
X044175Y011787D01*
X044132Y011774D01*
X044087Y011764D01*
X044042Y011759D01*
X043997Y011758D01*
X043951Y011761D01*
X043906Y011768D01*
X043862Y011780D01*
X043819Y011795D01*
X043778Y011814D01*
X043739Y011837D01*
X043701Y011863D01*
X043667Y011893D01*
X043635Y011925D01*
X043606Y011960D01*
X043581Y011998D01*
X043559Y012038D01*
X043541Y012080D01*
X043527Y012123D01*
X043516Y012167D01*
X043510Y012213D01*
X043508Y012258D01*
X044288Y011158D02*
X043638Y010448D01*
X043728Y010338D02*
X044398Y011058D01*
X043508Y010758D02*
X043510Y010803D01*
X043516Y010849D01*
X043527Y010893D01*
X043541Y010936D01*
X043559Y010978D01*
X043581Y011018D01*
X043606Y011056D01*
X043635Y011091D01*
X043667Y011123D01*
X043701Y011153D01*
X043739Y011179D01*
X043778Y011202D01*
X043819Y011221D01*
X043862Y011236D01*
X043906Y011248D01*
X043951Y011255D01*
X043997Y011258D01*
X044042Y011257D01*
X044087Y011252D01*
X044132Y011242D01*
X044175Y011229D01*
X044218Y011212D01*
X044258Y011191D01*
X044296Y011166D01*
X044332Y011139D01*
X044366Y011108D01*
X044396Y011074D01*
X044423Y011037D01*
X044447Y010998D01*
X044467Y010957D01*
X044483Y010915D01*
X044495Y010871D01*
X044503Y010826D01*
X044507Y010781D01*
X044507Y010735D01*
X044503Y010690D01*
X044495Y010645D01*
X044483Y010601D01*
X044467Y010559D01*
X044447Y010518D01*
X044423Y010479D01*
X044396Y010442D01*
X044366Y010408D01*
X044332Y010377D01*
X044296Y010350D01*
X044258Y010325D01*
X044218Y010304D01*
X044175Y010287D01*
X044132Y010274D01*
X044087Y010264D01*
X044042Y010259D01*
X043997Y010258D01*
X043951Y010261D01*
X043906Y010268D01*
X043862Y010280D01*
X043819Y010295D01*
X043778Y010314D01*
X043739Y010337D01*
X043701Y010363D01*
X043667Y010393D01*
X043635Y010425D01*
X043606Y010460D01*
X043581Y010498D01*
X043559Y010538D01*
X043541Y010580D01*
X043527Y010623D01*
X043516Y010667D01*
X043510Y010713D01*
X043508Y010758D01*
X043708Y009658D02*
X044408Y008978D01*
X044308Y008868D02*
X043608Y009548D01*
X043508Y009258D02*
X043510Y009303D01*
X043516Y009349D01*
X043527Y009393D01*
X043541Y009436D01*
X043559Y009478D01*
X043581Y009518D01*
X043606Y009556D01*
X043635Y009591D01*
X043667Y009623D01*
X043701Y009653D01*
X043739Y009679D01*
X043778Y009702D01*
X043819Y009721D01*
X043862Y009736D01*
X043906Y009748D01*
X043951Y009755D01*
X043997Y009758D01*
X044042Y009757D01*
X044087Y009752D01*
X044132Y009742D01*
X044175Y009729D01*
X044218Y009712D01*
X044258Y009691D01*
X044296Y009666D01*
X044332Y009639D01*
X044366Y009608D01*
X044396Y009574D01*
X044423Y009537D01*
X044447Y009498D01*
X044467Y009457D01*
X044483Y009415D01*
X044495Y009371D01*
X044503Y009326D01*
X044507Y009281D01*
X044507Y009235D01*
X044503Y009190D01*
X044495Y009145D01*
X044483Y009101D01*
X044467Y009059D01*
X044447Y009018D01*
X044423Y008979D01*
X044396Y008942D01*
X044366Y008908D01*
X044332Y008877D01*
X044296Y008850D01*
X044258Y008825D01*
X044218Y008804D01*
X044175Y008787D01*
X044132Y008774D01*
X044087Y008764D01*
X044042Y008759D01*
X043997Y008758D01*
X043951Y008761D01*
X043906Y008768D01*
X043862Y008780D01*
X043819Y008795D01*
X043778Y008814D01*
X043739Y008837D01*
X043701Y008863D01*
X043667Y008893D01*
X043635Y008925D01*
X043606Y008960D01*
X043581Y008998D01*
X043559Y009038D01*
X043541Y009080D01*
X043527Y009123D01*
X043516Y009167D01*
X043510Y009213D01*
X043508Y009258D01*
X044288Y008158D02*
X043638Y007448D01*
X043728Y007338D02*
X044398Y008058D01*
X043508Y007758D02*
X043510Y007803D01*
X043516Y007849D01*
X043527Y007893D01*
X043541Y007936D01*
X043559Y007978D01*
X043581Y008018D01*
X043606Y008056D01*
X043635Y008091D01*
X043667Y008123D01*
X043701Y008153D01*
X043739Y008179D01*
X043778Y008202D01*
X043819Y008221D01*
X043862Y008236D01*
X043906Y008248D01*
X043951Y008255D01*
X043997Y008258D01*
X044042Y008257D01*
X044087Y008252D01*
X044132Y008242D01*
X044175Y008229D01*
X044218Y008212D01*
X044258Y008191D01*
X044296Y008166D01*
X044332Y008139D01*
X044366Y008108D01*
X044396Y008074D01*
X044423Y008037D01*
X044447Y007998D01*
X044467Y007957D01*
X044483Y007915D01*
X044495Y007871D01*
X044503Y007826D01*
X044507Y007781D01*
X044507Y007735D01*
X044503Y007690D01*
X044495Y007645D01*
X044483Y007601D01*
X044467Y007559D01*
X044447Y007518D01*
X044423Y007479D01*
X044396Y007442D01*
X044366Y007408D01*
X044332Y007377D01*
X044296Y007350D01*
X044258Y007325D01*
X044218Y007304D01*
X044175Y007287D01*
X044132Y007274D01*
X044087Y007264D01*
X044042Y007259D01*
X043997Y007258D01*
X043951Y007261D01*
X043906Y007268D01*
X043862Y007280D01*
X043819Y007295D01*
X043778Y007314D01*
X043739Y007337D01*
X043701Y007363D01*
X043667Y007393D01*
X043635Y007425D01*
X043606Y007460D01*
X043581Y007498D01*
X043559Y007538D01*
X043541Y007580D01*
X043527Y007623D01*
X043516Y007667D01*
X043510Y007713D01*
X043508Y007758D01*
X043708Y006658D02*
X044408Y005978D01*
X044308Y005868D02*
X043608Y006548D01*
X043508Y006258D02*
X043510Y006303D01*
X043516Y006349D01*
X043527Y006393D01*
X043541Y006436D01*
X043559Y006478D01*
X043581Y006518D01*
X043606Y006556D01*
X043635Y006591D01*
X043667Y006623D01*
X043701Y006653D01*
X043739Y006679D01*
X043778Y006702D01*
X043819Y006721D01*
X043862Y006736D01*
X043906Y006748D01*
X043951Y006755D01*
X043997Y006758D01*
X044042Y006757D01*
X044087Y006752D01*
X044132Y006742D01*
X044175Y006729D01*
X044218Y006712D01*
X044258Y006691D01*
X044296Y006666D01*
X044332Y006639D01*
X044366Y006608D01*
X044396Y006574D01*
X044423Y006537D01*
X044447Y006498D01*
X044467Y006457D01*
X044483Y006415D01*
X044495Y006371D01*
X044503Y006326D01*
X044507Y006281D01*
X044507Y006235D01*
X044503Y006190D01*
X044495Y006145D01*
X044483Y006101D01*
X044467Y006059D01*
X044447Y006018D01*
X044423Y005979D01*
X044396Y005942D01*
X044366Y005908D01*
X044332Y005877D01*
X044296Y005850D01*
X044258Y005825D01*
X044218Y005804D01*
X044175Y005787D01*
X044132Y005774D01*
X044087Y005764D01*
X044042Y005759D01*
X043997Y005758D01*
X043951Y005761D01*
X043906Y005768D01*
X043862Y005780D01*
X043819Y005795D01*
X043778Y005814D01*
X043739Y005837D01*
X043701Y005863D01*
X043667Y005893D01*
X043635Y005925D01*
X043606Y005960D01*
X043581Y005998D01*
X043559Y006038D01*
X043541Y006080D01*
X043527Y006123D01*
X043516Y006167D01*
X043510Y006213D01*
X043508Y006258D01*
X043005Y005234D02*
X045013Y005234D01*
X025354Y012733D02*
X025054Y013183D01*
X024893Y012958D02*
X024593Y012958D01*
X016883Y012548D02*
X016433Y012548D01*
X016658Y012322D01*
X016658Y012623D01*
X016808Y012162D02*
X016433Y012162D01*
X016433Y011862D02*
X016808Y011862D01*
X016883Y011937D01*
X016883Y012087D01*
X016808Y012162D01*
X015623Y012208D02*
X015623Y011908D01*
X015547Y011833D01*
X015322Y011833D01*
X015322Y012283D01*
X015547Y012283D01*
X015623Y012208D01*
X015162Y012208D02*
X015162Y012133D01*
X015087Y012058D01*
X014937Y012058D01*
X014862Y012133D01*
X014862Y012208D01*
X014937Y012283D01*
X015087Y012283D01*
X015162Y012208D01*
X015087Y012058D02*
X015162Y011983D01*
X015162Y011908D01*
X015087Y011833D01*
X014937Y011833D01*
X014862Y011908D01*
X014862Y011983D01*
X014937Y012058D01*
X014702Y012208D02*
X014702Y011908D01*
X014627Y011833D01*
X014477Y011833D01*
X014402Y011908D01*
X014702Y012208D01*
X014627Y012283D01*
X014477Y012283D01*
X014402Y012208D01*
X014402Y011908D01*
X014241Y011908D02*
X014166Y011833D01*
X014016Y011833D01*
X013941Y011908D01*
X013941Y012208D01*
X014016Y012283D01*
X014166Y012283D01*
X014241Y012208D01*
X013781Y012283D02*
X013781Y011833D01*
X013781Y012058D02*
X013481Y012058D01*
X013321Y012058D02*
X013021Y012058D01*
X013246Y012283D01*
X013246Y011833D01*
X013481Y011833D02*
X013481Y012283D01*
X012860Y012283D02*
X012860Y012208D01*
X012560Y011908D01*
X012560Y011833D01*
X012560Y012283D02*
X012860Y012283D01*
X019033Y006133D02*
X019333Y005683D01*
X011633Y001833D02*
X011633Y001383D01*
X011483Y001383D02*
X011783Y001383D01*
X011483Y001683D02*
X011633Y001833D01*
D16*
X012734Y006384D02*
X012784Y006384D01*
X012783Y006383D02*
X012786Y006362D01*
X012792Y006343D01*
X012801Y006324D01*
X012813Y006307D01*
X012827Y006293D01*
X012844Y006281D01*
X012863Y006272D01*
X012882Y006266D01*
X012903Y006263D01*
X012904Y006214D01*
X012903Y006213D01*
X012877Y006216D01*
X012851Y006223D01*
X012827Y006233D01*
X012804Y006247D01*
X012784Y006264D01*
X012767Y006284D01*
X012753Y006307D01*
X012743Y006331D01*
X012736Y006357D01*
X012733Y006383D01*
X012742Y006383D01*
X012745Y006358D01*
X012751Y006334D01*
X012761Y006311D01*
X012774Y006290D01*
X012791Y006271D01*
X012810Y006254D01*
X012831Y006241D01*
X012854Y006231D01*
X012878Y006225D01*
X012903Y006222D01*
X012903Y006231D01*
X012879Y006234D01*
X012857Y006240D01*
X012835Y006249D01*
X012815Y006262D01*
X012797Y006277D01*
X012782Y006295D01*
X012769Y006315D01*
X012760Y006337D01*
X012754Y006359D01*
X012751Y006383D01*
X012760Y006383D01*
X012763Y006361D01*
X012768Y006339D01*
X012777Y006319D01*
X012789Y006300D01*
X012803Y006283D01*
X012820Y006269D01*
X012839Y006257D01*
X012859Y006248D01*
X012881Y006243D01*
X012903Y006240D01*
X012903Y006249D01*
X012880Y006252D01*
X012858Y006258D01*
X012837Y006268D01*
X012818Y006282D01*
X012802Y006298D01*
X012788Y006317D01*
X012778Y006338D01*
X012772Y006360D01*
X012769Y006383D01*
X012778Y006383D01*
X012781Y006362D01*
X012787Y006341D01*
X012796Y006322D01*
X012809Y006304D01*
X012824Y006289D01*
X012842Y006276D01*
X012861Y006267D01*
X012882Y006261D01*
X012903Y006258D01*
X012904Y007802D02*
X012904Y007752D01*
X012903Y007753D02*
X012882Y007750D01*
X012863Y007744D01*
X012844Y007735D01*
X012827Y007723D01*
X012813Y007709D01*
X012801Y007692D01*
X012792Y007673D01*
X012786Y007654D01*
X012783Y007633D01*
X012734Y007632D01*
X012733Y007633D01*
X012736Y007659D01*
X012743Y007685D01*
X012753Y007709D01*
X012767Y007732D01*
X012784Y007752D01*
X012804Y007769D01*
X012827Y007783D01*
X012851Y007793D01*
X012877Y007800D01*
X012903Y007803D01*
X012903Y007794D01*
X012878Y007791D01*
X012854Y007785D01*
X012831Y007775D01*
X012810Y007762D01*
X012791Y007745D01*
X012774Y007726D01*
X012761Y007705D01*
X012751Y007682D01*
X012745Y007658D01*
X012742Y007633D01*
X012751Y007633D01*
X012754Y007657D01*
X012760Y007679D01*
X012769Y007701D01*
X012782Y007721D01*
X012797Y007739D01*
X012815Y007754D01*
X012835Y007767D01*
X012857Y007776D01*
X012879Y007782D01*
X012903Y007785D01*
X012903Y007776D01*
X012881Y007773D01*
X012859Y007768D01*
X012839Y007759D01*
X012820Y007747D01*
X012803Y007733D01*
X012789Y007716D01*
X012777Y007697D01*
X012768Y007677D01*
X012763Y007655D01*
X012760Y007633D01*
X012769Y007633D01*
X012772Y007656D01*
X012778Y007678D01*
X012788Y007699D01*
X012802Y007718D01*
X012818Y007734D01*
X012837Y007748D01*
X012858Y007758D01*
X012880Y007764D01*
X012903Y007767D01*
X012903Y007758D01*
X012882Y007755D01*
X012861Y007749D01*
X012842Y007740D01*
X012824Y007727D01*
X012809Y007712D01*
X012796Y007694D01*
X012787Y007675D01*
X012781Y007654D01*
X012778Y007633D01*
X016282Y007632D02*
X016232Y007632D01*
X016233Y007633D02*
X016230Y007654D01*
X016224Y007673D01*
X016215Y007692D01*
X016203Y007709D01*
X016189Y007723D01*
X016172Y007735D01*
X016153Y007744D01*
X016134Y007750D01*
X016113Y007753D01*
X016112Y007802D01*
X016113Y007803D01*
X016139Y007800D01*
X016165Y007793D01*
X016189Y007783D01*
X016212Y007769D01*
X016232Y007752D01*
X016249Y007732D01*
X016263Y007709D01*
X016273Y007685D01*
X016280Y007659D01*
X016283Y007633D01*
X016274Y007633D01*
X016271Y007658D01*
X016265Y007682D01*
X016255Y007705D01*
X016242Y007726D01*
X016225Y007745D01*
X016206Y007762D01*
X016185Y007775D01*
X016162Y007785D01*
X016138Y007791D01*
X016113Y007794D01*
X016113Y007785D01*
X016137Y007782D01*
X016159Y007776D01*
X016181Y007767D01*
X016201Y007754D01*
X016219Y007739D01*
X016234Y007721D01*
X016247Y007701D01*
X016256Y007679D01*
X016262Y007657D01*
X016265Y007633D01*
X016256Y007633D01*
X016253Y007655D01*
X016248Y007677D01*
X016239Y007697D01*
X016227Y007716D01*
X016213Y007733D01*
X016196Y007747D01*
X016177Y007759D01*
X016157Y007768D01*
X016135Y007773D01*
X016113Y007776D01*
X016113Y007767D01*
X016136Y007764D01*
X016158Y007758D01*
X016179Y007748D01*
X016198Y007734D01*
X016214Y007718D01*
X016228Y007699D01*
X016238Y007678D01*
X016244Y007656D01*
X016247Y007633D01*
X016238Y007633D01*
X016235Y007654D01*
X016229Y007675D01*
X016220Y007694D01*
X016207Y007712D01*
X016192Y007727D01*
X016174Y007740D01*
X016155Y007749D01*
X016134Y007755D01*
X016113Y007758D01*
X016112Y006214D02*
X016112Y006264D01*
X016113Y006263D02*
X016134Y006266D01*
X016153Y006272D01*
X016172Y006281D01*
X016189Y006293D01*
X016203Y006307D01*
X016215Y006324D01*
X016224Y006343D01*
X016230Y006362D01*
X016233Y006383D01*
X016282Y006384D01*
X016283Y006383D01*
X016280Y006357D01*
X016273Y006331D01*
X016263Y006307D01*
X016249Y006284D01*
X016232Y006264D01*
X016212Y006247D01*
X016189Y006233D01*
X016165Y006223D01*
X016139Y006216D01*
X016113Y006213D01*
X016113Y006222D01*
X016138Y006225D01*
X016162Y006231D01*
X016185Y006241D01*
X016206Y006254D01*
X016225Y006271D01*
X016242Y006290D01*
X016255Y006311D01*
X016265Y006334D01*
X016271Y006358D01*
X016274Y006383D01*
X016265Y006383D01*
X016262Y006359D01*
X016256Y006337D01*
X016247Y006315D01*
X016234Y006295D01*
X016219Y006277D01*
X016201Y006262D01*
X016181Y006249D01*
X016159Y006240D01*
X016137Y006234D01*
X016113Y006231D01*
X016113Y006240D01*
X016135Y006243D01*
X016157Y006248D01*
X016177Y006257D01*
X016196Y006269D01*
X016213Y006283D01*
X016227Y006300D01*
X016239Y006319D01*
X016248Y006339D01*
X016253Y006361D01*
X016256Y006383D01*
X016247Y006383D01*
X016244Y006360D01*
X016238Y006338D01*
X016228Y006317D01*
X016214Y006298D01*
X016198Y006282D01*
X016179Y006268D01*
X016158Y006258D01*
X016136Y006252D01*
X016113Y006249D01*
X016113Y006258D01*
X016134Y006261D01*
X016155Y006267D01*
X016174Y006276D01*
X016192Y006289D01*
X016207Y006304D01*
X016220Y006322D01*
X016229Y006341D01*
X016235Y006362D01*
X016238Y006383D01*
X016112Y011214D02*
X016112Y011264D01*
X016113Y011263D02*
X016134Y011266D01*
X016153Y011272D01*
X016172Y011281D01*
X016189Y011293D01*
X016203Y011307D01*
X016215Y011324D01*
X016224Y011343D01*
X016230Y011362D01*
X016233Y011383D01*
X016282Y011384D01*
X016283Y011383D01*
X016280Y011357D01*
X016273Y011331D01*
X016263Y011307D01*
X016249Y011284D01*
X016232Y011264D01*
X016212Y011247D01*
X016189Y011233D01*
X016165Y011223D01*
X016139Y011216D01*
X016113Y011213D01*
X016113Y011222D01*
X016138Y011225D01*
X016162Y011231D01*
X016185Y011241D01*
X016206Y011254D01*
X016225Y011271D01*
X016242Y011290D01*
X016255Y011311D01*
X016265Y011334D01*
X016271Y011358D01*
X016274Y011383D01*
X016265Y011383D01*
X016262Y011359D01*
X016256Y011337D01*
X016247Y011315D01*
X016234Y011295D01*
X016219Y011277D01*
X016201Y011262D01*
X016181Y011249D01*
X016159Y011240D01*
X016137Y011234D01*
X016113Y011231D01*
X016113Y011240D01*
X016135Y011243D01*
X016157Y011248D01*
X016177Y011257D01*
X016196Y011269D01*
X016213Y011283D01*
X016227Y011300D01*
X016239Y011319D01*
X016248Y011339D01*
X016253Y011361D01*
X016256Y011383D01*
X016247Y011383D01*
X016244Y011360D01*
X016238Y011338D01*
X016228Y011317D01*
X016214Y011298D01*
X016198Y011282D01*
X016179Y011268D01*
X016158Y011258D01*
X016136Y011252D01*
X016113Y011249D01*
X016113Y011258D01*
X016134Y011261D01*
X016155Y011267D01*
X016174Y011276D01*
X016192Y011289D01*
X016207Y011304D01*
X016220Y011322D01*
X016229Y011341D01*
X016235Y011362D01*
X016238Y011383D01*
X016282Y012632D02*
X016232Y012632D01*
X016233Y012633D02*
X016230Y012654D01*
X016224Y012673D01*
X016215Y012692D01*
X016203Y012709D01*
X016189Y012723D01*
X016172Y012735D01*
X016153Y012744D01*
X016134Y012750D01*
X016113Y012753D01*
X016112Y012802D01*
X016113Y012803D01*
X016139Y012800D01*
X016165Y012793D01*
X016189Y012783D01*
X016212Y012769D01*
X016232Y012752D01*
X016249Y012732D01*
X016263Y012709D01*
X016273Y012685D01*
X016280Y012659D01*
X016283Y012633D01*
X016274Y012633D01*
X016271Y012658D01*
X016265Y012682D01*
X016255Y012705D01*
X016242Y012726D01*
X016225Y012745D01*
X016206Y012762D01*
X016185Y012775D01*
X016162Y012785D01*
X016138Y012791D01*
X016113Y012794D01*
X016113Y012785D01*
X016137Y012782D01*
X016159Y012776D01*
X016181Y012767D01*
X016201Y012754D01*
X016219Y012739D01*
X016234Y012721D01*
X016247Y012701D01*
X016256Y012679D01*
X016262Y012657D01*
X016265Y012633D01*
X016256Y012633D01*
X016253Y012655D01*
X016248Y012677D01*
X016239Y012697D01*
X016227Y012716D01*
X016213Y012733D01*
X016196Y012747D01*
X016177Y012759D01*
X016157Y012768D01*
X016135Y012773D01*
X016113Y012776D01*
X016113Y012767D01*
X016136Y012764D01*
X016158Y012758D01*
X016179Y012748D01*
X016198Y012734D01*
X016214Y012718D01*
X016228Y012699D01*
X016238Y012678D01*
X016244Y012656D01*
X016247Y012633D01*
X016238Y012633D01*
X016235Y012654D01*
X016229Y012675D01*
X016220Y012694D01*
X016207Y012712D01*
X016192Y012727D01*
X016174Y012740D01*
X016155Y012749D01*
X016134Y012755D01*
X016113Y012758D01*
X012904Y012802D02*
X012904Y012752D01*
X012903Y012753D02*
X012882Y012750D01*
X012863Y012744D01*
X012844Y012735D01*
X012827Y012723D01*
X012813Y012709D01*
X012801Y012692D01*
X012792Y012673D01*
X012786Y012654D01*
X012783Y012633D01*
X012734Y012632D01*
X012733Y012633D01*
X012736Y012659D01*
X012743Y012685D01*
X012753Y012709D01*
X012767Y012732D01*
X012784Y012752D01*
X012804Y012769D01*
X012827Y012783D01*
X012851Y012793D01*
X012877Y012800D01*
X012903Y012803D01*
X012903Y012794D01*
X012878Y012791D01*
X012854Y012785D01*
X012831Y012775D01*
X012810Y012762D01*
X012791Y012745D01*
X012774Y012726D01*
X012761Y012705D01*
X012751Y012682D01*
X012745Y012658D01*
X012742Y012633D01*
X012751Y012633D01*
X012754Y012657D01*
X012760Y012679D01*
X012769Y012701D01*
X012782Y012721D01*
X012797Y012739D01*
X012815Y012754D01*
X012835Y012767D01*
X012857Y012776D01*
X012879Y012782D01*
X012903Y012785D01*
X012903Y012776D01*
X012881Y012773D01*
X012859Y012768D01*
X012839Y012759D01*
X012820Y012747D01*
X012803Y012733D01*
X012789Y012716D01*
X012777Y012697D01*
X012768Y012677D01*
X012763Y012655D01*
X012760Y012633D01*
X012769Y012633D01*
X012772Y012656D01*
X012778Y012678D01*
X012788Y012699D01*
X012802Y012718D01*
X012818Y012734D01*
X012837Y012748D01*
X012858Y012758D01*
X012880Y012764D01*
X012903Y012767D01*
X012903Y012758D01*
X012882Y012755D01*
X012861Y012749D01*
X012842Y012740D01*
X012824Y012727D01*
X012809Y012712D01*
X012796Y012694D01*
X012787Y012675D01*
X012781Y012654D01*
X012778Y012633D01*
X012734Y011384D02*
X012784Y011384D01*
X012783Y011383D02*
X012786Y011362D01*
X012792Y011343D01*
X012801Y011324D01*
X012813Y011307D01*
X012827Y011293D01*
X012844Y011281D01*
X012863Y011272D01*
X012882Y011266D01*
X012903Y011263D01*
X012904Y011214D01*
X012903Y011213D01*
X012877Y011216D01*
X012851Y011223D01*
X012827Y011233D01*
X012804Y011247D01*
X012784Y011264D01*
X012767Y011284D01*
X012753Y011307D01*
X012743Y011331D01*
X012736Y011357D01*
X012733Y011383D01*
X012742Y011383D01*
X012745Y011358D01*
X012751Y011334D01*
X012761Y011311D01*
X012774Y011290D01*
X012791Y011271D01*
X012810Y011254D01*
X012831Y011241D01*
X012854Y011231D01*
X012878Y011225D01*
X012903Y011222D01*
X012903Y011231D01*
X012879Y011234D01*
X012857Y011240D01*
X012835Y011249D01*
X012815Y011262D01*
X012797Y011277D01*
X012782Y011295D01*
X012769Y011315D01*
X012760Y011337D01*
X012754Y011359D01*
X012751Y011383D01*
X012760Y011383D01*
X012763Y011361D01*
X012768Y011339D01*
X012777Y011319D01*
X012789Y011300D01*
X012803Y011283D01*
X012820Y011269D01*
X012839Y011257D01*
X012859Y011248D01*
X012881Y011243D01*
X012903Y011240D01*
X012903Y011249D01*
X012880Y011252D01*
X012858Y011258D01*
X012837Y011268D01*
X012818Y011282D01*
X012802Y011298D01*
X012788Y011317D01*
X012778Y011338D01*
X012772Y011360D01*
X012769Y011383D01*
X012778Y011383D01*
X012781Y011362D01*
X012787Y011341D01*
X012796Y011322D01*
X012809Y011304D01*
X012824Y011289D01*
X012842Y011276D01*
X012861Y011267D01*
X012882Y011261D01*
X012903Y011258D01*
D17*
X012758Y012638D02*
X016258Y012638D01*
X016258Y007638D02*
X012758Y007638D01*
X023458Y011678D02*
X027568Y011678D01*
X026658Y023618D02*
X026660Y023642D01*
X026666Y023665D01*
X026676Y023686D01*
X026689Y023706D01*
X026706Y023723D01*
X026725Y023737D01*
X026746Y023748D01*
X026769Y023755D01*
X026792Y023758D01*
X026816Y023757D01*
X026839Y023752D01*
X026861Y023743D01*
X026881Y023731D01*
X026899Y023715D01*
X026914Y023696D01*
X026926Y023676D01*
X026933Y023653D01*
X026937Y023630D01*
X026937Y023606D01*
X026933Y023583D01*
X026926Y023560D01*
X026914Y023540D01*
X026899Y023521D01*
X026881Y023505D01*
X026861Y023493D01*
X026839Y023484D01*
X026816Y023479D01*
X026792Y023478D01*
X026769Y023481D01*
X026746Y023488D01*
X026725Y023499D01*
X026706Y023513D01*
X026689Y023530D01*
X026676Y023550D01*
X026666Y023571D01*
X026660Y023594D01*
X026658Y023618D01*
X021508Y032378D02*
X017508Y032378D01*
X016008Y032378D02*
X012008Y032378D01*
X012358Y026058D02*
X008758Y026058D01*
X008758Y022808D01*
X012358Y022808D01*
X012358Y026058D01*
D18*
X023758Y014503D03*
X024258Y014503D03*
X024758Y014503D03*
X025258Y014503D03*
X025758Y014503D03*
X026258Y014503D03*
X026758Y014503D03*
X027258Y014503D03*
X027258Y011513D03*
X026758Y011513D03*
X026258Y011513D03*
X025758Y011513D03*
X025258Y011513D03*
X024758Y011513D03*
X024258Y011513D03*
X023758Y011513D03*
D19*
X025067Y016772D03*
X025067Y017244D03*
X025067Y018272D03*
X025067Y018744D03*
D20*
X025067Y018508D03*
X025067Y017008D03*
D21*
X013423Y021243D02*
X013318Y021243D01*
X012897Y021663D01*
X012792Y021663D01*
X012792Y021243D01*
X012897Y021887D02*
X012792Y021992D01*
X012792Y022203D01*
X012897Y022308D01*
X013003Y022308D01*
X013108Y022203D01*
X013108Y021992D01*
X013003Y021887D01*
X012897Y021887D01*
X013108Y021992D02*
X013213Y021887D01*
X013318Y021887D01*
X013423Y021992D01*
X013423Y022203D01*
X013318Y022308D01*
X013213Y022308D01*
X013108Y022203D01*
X013318Y022532D02*
X012897Y022532D01*
X012792Y022637D01*
X012792Y022847D01*
X012897Y022952D01*
X013318Y022532D01*
X013423Y022637D01*
X013423Y022847D01*
X013318Y022952D01*
X012897Y022952D01*
X012792Y023176D02*
X013108Y023176D01*
X013003Y023387D01*
X013003Y023492D01*
X013108Y023597D01*
X013318Y023597D01*
X013423Y023492D01*
X013423Y023282D01*
X013318Y023176D01*
X012792Y023176D02*
X012792Y023597D01*
X012792Y023821D02*
X012792Y024241D01*
X012792Y024031D02*
X013423Y024031D01*
X008373Y022787D02*
X008373Y022367D01*
X008373Y022577D02*
X007742Y022577D01*
X007953Y022367D01*
X007847Y022143D02*
X007742Y022038D01*
X007742Y021828D01*
X007847Y021723D01*
X008268Y021723D01*
X008373Y021828D01*
X008373Y022038D01*
X008268Y022143D01*
X008373Y021503D02*
X008373Y021293D01*
X008373Y021398D02*
X007742Y021398D01*
X007742Y021293D02*
X007742Y021503D01*
D22*
X009558Y021333D03*
X010558Y021333D03*
X011558Y021333D03*
D23*
X011558Y022008D03*
X010558Y022008D03*
X009558Y022008D03*
D24*
X033758Y023004D03*
X034258Y023004D03*
X034758Y023004D03*
X035258Y023004D03*
X035258Y025012D03*
X034758Y025012D03*
X034258Y025012D03*
X033758Y025012D03*
D25*
X033563Y024756D02*
X035453Y024756D01*
X035453Y023457D01*
X033563Y023457D01*
X033563Y024756D01*
X033563Y023260D02*
X035453Y023260D01*
X027168Y031886D02*
X027168Y034130D01*
X022848Y034130D02*
X022848Y031886D01*
X010568Y031836D02*
X010568Y034080D01*
X006248Y034080D02*
X006248Y031836D01*
X029848Y011630D02*
X029848Y009386D01*
X034168Y009386D02*
X034168Y011630D01*
D26*
X030233Y009783D03*
X023233Y032283D03*
X006633Y032233D03*
M02*
