%
M48
M72
T01C0.1250
T02C0.0320
T03C0.0400
T04C0.0440
T05C0.1300
T06C0.0500
T07C0.0160
%
T01
X251Y251
X3951Y251
X3951Y3951
X251Y3951
T02
X1856Y1586
X2046Y1586
T03
X3101Y1601
X3201Y1601
X3201Y1501
X3101Y1501
X3301Y1501
X3301Y1601
X3351Y501
X3451Y501
X3251Y501
X2801Y501
X2701Y501
X2601Y501
X2151Y501
X2051Y501
X1951Y501
X1566Y351
X1566Y251
X1466Y251
X1466Y351
X1366Y351
X1366Y251
X1266Y251
X1266Y351
X1166Y351
X1166Y251
X351Y751
X351Y851
X251Y851
X251Y751
X251Y951
X251Y1051
X251Y1151
X351Y1151
X351Y1051
X351Y951
X351Y1701
X351Y1801
X251Y1801
X251Y1701
X251Y1901
X251Y2001
X251Y2101
X351Y2101
X351Y2001
X351Y1901
X351Y2201
X351Y2301
X251Y2301
X251Y2201
X251Y2401
X251Y2501
X351Y2501
X351Y2401
X351Y2601
X251Y2601
X251Y3151
X251Y3251
X351Y3251
X351Y3151
X351Y3351
X351Y3451
X251Y3451
X251Y3351
T04
X956Y2156
X1056Y2156
X1156Y2156
T05
X1056Y2746
T06
X3901Y2626
X3901Y2476
X3901Y2326
X3901Y2176
X3901Y1676
X3901Y1526
X3901Y1376
X3901Y1226
X3901Y1076
X3901Y926
X3901Y776
X3901Y626
X3901Y3126
X3901Y3276
X3901Y3426
X3901Y3576
T07
X3661Y3736
X3466Y3646
X3371Y3491
X3391Y3406
X3461Y3456
X3561Y3446
X3461Y3321
X3516Y3291
X3256Y3486
X3216Y3351
X3046Y3441
X3026Y3291
X2851Y3241
X2616Y3296
X2551Y3246
X2411Y3326
X2436Y3361
X2446Y3546
X2556Y3751
X2226Y3656
X2101Y3706
X2016Y3656
X1931Y3701
X1861Y3696
X1771Y3691
X1736Y3541
X1706Y3421
X1746Y3361
X1886Y3326
X1926Y3326
X2106Y3326
X2196Y3216
X2241Y3086
X2136Y2991
X2166Y2801
X2256Y2716
X2331Y2681
X2361Y2746
X2391Y2716
X2501Y2901
X2441Y3066
X2646Y3051
X2726Y2891
X2851Y2991
X2976Y3001
X2991Y2896
X3111Y2866
X3221Y2861
X3301Y2826
X3261Y2671
X3206Y2541
X3301Y2521
X3466Y2671
X3596Y2866
X3706Y3046
X3916Y2926
X3711Y2651
X3671Y2421
X3661Y2221
X3651Y2036
X3421Y2116
X3281Y2211
X3186Y2181
X2996Y2326
X2941Y2311
X2866Y2311
X2786Y2206
X2731Y2226
X2636Y2266
X2636Y2186
X2516Y2151
X2421Y2196
X2391Y2166
X2371Y2126
X2281Y2106
X2156Y2121
X2066Y2106
X2016Y2086
X2076Y2026
X2136Y2026
X2116Y1941
X2111Y1896
X2051Y1976
X1956Y1896
X1856Y1896
X1816Y1901
X1771Y1896
X1786Y1936
X1711Y1936
X1646Y2001
X1666Y2086
X1646Y2166
X1546Y2166
X1521Y2096
X1521Y2026
X1461Y2121
X1401Y2041
X1266Y2071
X1261Y2011
X1191Y1996
X1326Y1896
X1171Y1821
X1191Y1756
X1196Y1696
X1301Y1621
X1321Y1546
X1396Y1486
X1451Y1546
X1426Y1421
X1571Y1386
X1691Y1421
X1771Y1426
X1756Y1486
X1946Y1431
X2096Y1286
X2096Y1201
X2096Y1136
X2211Y1156
X2306Y1111
X2401Y1171
X2456Y1271
X2461Y1351
X2496Y1426
X2551Y1376
X2701Y1431
X2766Y1456
X2841Y1426
X2941Y1306
X3001Y1416
X3206Y1296
X3446Y1416
X3601Y1296
X3681Y1306
X3776Y1351
X3766Y1161
X3596Y1146
X3466Y1226
X3571Y956
X3576Y846
X3471Y701
X3656Y511
X3136Y706
X3066Y861
X3151Y866
X2866Y696
X2816Y801
X2711Y801
X2676Y1001
X2601Y1006
X2646Y1246
X2401Y1431
X2376Y1561
X2446Y1631
X2566Y1601
X2626Y1561
X2666Y1566
X2736Y1641
X2806Y1656
X2806Y1781
X2971Y1901
X3006Y1776
X3101Y1881
X3146Y1786
X3271Y1806
X2776Y1941
X2691Y1976
X2521Y1991
X2411Y1871
X2401Y1766
X2246Y1641
X2126Y1706
X2136Y1796
X2256Y2016
X2381Y1996
X2281Y2226
X2256Y2261
X2311Y2296
X2301Y2346
X2201Y2426
X2136Y2401
X2066Y2316
X2156Y2256
X2076Y2196
X1886Y2266
X1886Y2316
X1756Y2311
X1726Y2361
X1726Y2401
X1646Y2336
X1556Y2461
X1456Y2411
X1431Y2336
X1446Y2276
X1656Y2531
X1731Y2531
X1846Y2651
X1821Y2711
X1966Y2651
X1976Y2506
X1921Y2506
X2076Y2506
X2301Y2446
X2346Y2446
X2446Y2346
X2531Y2496
X2616Y2646
X2681Y2706
X2776Y2611
X2801Y2711
X2841Y2746
X2991Y2746
X2991Y2606
X2941Y2576
X3056Y2606
X3221Y3056
X3096Y3086
X2231Y3456
X2091Y3486
X2006Y3486
X1976Y3541
X2016Y3821
X1806Y3896
X1566Y3861
X1541Y3936
X1441Y3806
X1536Y3711
X1581Y3656
X1456Y3686
X1381Y3546
X1356Y3486
X1296Y3546
X1156Y3576
X1056Y3546
X1091Y3486
X1121Y3416
X1226Y3356
X1256Y3321
X1121Y3176
X1271Y3116
X1281Y3031
X1376Y3001
X1506Y2996
X1511Y2886
X1616Y2911
X1676Y3046
X1771Y3056
X1836Y3091
X1911Y3116
X1821Y3001
X1871Y2846
X1536Y2781
X1496Y2751
X1516Y2666
X1446Y2666
X1376Y3111
X1481Y3116
X1526Y3281
X1571Y3321
X1616Y3456
X1551Y3486
X1511Y3486
X1171Y3686
X1086Y3656
X966Y3761
X946Y3871
X891Y3676
X776Y3686
X736Y3496
X771Y3346
X661Y3321
X771Y3251
X826Y3221
X926Y3306
X911Y3106
X696Y3006
X696Y2911
X726Y2861
X566Y2581
X676Y2306
X751Y2136
X811Y2101
X716Y2041
X681Y2066
X561Y2061
X476Y2221
X166Y2001
X481Y1886
X626Y1861
X676Y1761
X736Y1726
X826Y1766
X856Y1651
X771Y1616
X881Y1506
X946Y1576
X986Y1466
X1036Y1431
X1036Y1371
X976Y1371
X1156Y1501
X1226Y1426
X1211Y1286
X1236Y1181
X1251Y1126
X1346Y1146
X1411Y1256
X1451Y1256
X1526Y1211
X1566Y1211
X1561Y1256
X1591Y1146
X1496Y1146
X1316Y956
X1456Y911
X1521Y911
X1581Y886
X1601Y756
X1726Y771
X1776Y966
X1766Y1186
X1721Y1296
X1956Y1191
X2046Y976
X2251Y766
X2196Y671
X2021Y581
X1781Y531
X1501Y646
X1361Y646
X1301Y756
X1241Y816
X1186Y756
X1081Y646
X941Y741
X871Y721
X766Y706
X696Y706
X636Y816
X571Y751
X511Y721
X566Y621
X406Y536
X496Y236
X796Y551
X906Y606
X926Y836
X1051Y911
X1066Y991
X1036Y1061
X1086Y1066
X1116Y1146
X961Y1061
X891Y1061
X871Y961
X776Y926
X746Y956
X671Y936
X676Y871
X576Y936
X571Y1011
X556Y1061
X481Y981
X456Y1071
X511Y1216
X731Y1216
X766Y1301
X726Y1436
X576Y1501
X461Y1496
X351Y1491
X246Y1501
X571Y1741
X986Y1831
X1006Y1756
X1066Y1666
X976Y1976
X1461Y1711
X1491Y1781
X1521Y1861
X1546Y1936
X1731Y1771
X1826Y1766
X1826Y1706
X1681Y1676
X1541Y1706
X1886Y2026
X2136Y1456
X2611Y1671
X2366Y491
X3001Y491
X3906Y1866
X3641Y3936
X1156Y3806
X1151Y3906
X546Y3851
X466Y3676
X546Y3611
X501Y3491
X376Y3506
X336Y3651
X486Y3336
X491Y3246
X496Y3151
X391Y2946
X246Y2936
X796Y1151
X761Y1116
X481Y876
X1166Y976
M30
