G75*
G70*
%OFA0B0*%
%FSLAX24Y24*%
%IPPOS*%
%LPD*%
%AMOC8*
5,1,8,0,0,1.08239X$1,22.5*
%
%ADD10C,0.1330*%
%ADD11C,0.0600*%
%ADD12C,0.0680*%
%ADD13OC8,0.0680*%
%ADD14O,0.0680X0.1280*%
%ADD15O,0.0740X0.1400*%
%ADD16C,0.1380*%
%ADD17O,0.1580X0.0830*%
%ADD18C,0.0400*%
D10*
X002508Y002508D03*
X039508Y002508D03*
X039508Y039508D03*
X002508Y039508D03*
D11*
X018558Y015858D03*
X020458Y015858D03*
D12*
X031008Y015008D03*
D13*
X031008Y016008D03*
X032008Y016008D03*
X032008Y015008D03*
X033008Y015008D03*
X033008Y016008D03*
X015658Y003508D03*
X015658Y002508D03*
X014658Y002508D03*
X014658Y003508D03*
X013658Y003508D03*
X013658Y002508D03*
X012658Y002508D03*
X012658Y003508D03*
X011658Y003508D03*
X011658Y002508D03*
X003508Y007508D03*
X003508Y008508D03*
X002508Y008508D03*
X002508Y007508D03*
X002508Y009508D03*
X002508Y010508D03*
X002508Y011508D03*
X003508Y011508D03*
X003508Y010508D03*
X003508Y009508D03*
X003508Y017008D03*
X003508Y018008D03*
X002508Y018008D03*
X002508Y017008D03*
X002508Y019008D03*
X002508Y020008D03*
X002508Y021008D03*
X003508Y021008D03*
X003508Y020008D03*
X003508Y019008D03*
X003508Y022008D03*
X003508Y023008D03*
X002508Y023008D03*
X002508Y022008D03*
X002508Y024008D03*
X002508Y025008D03*
X003508Y025008D03*
X003508Y024008D03*
X003508Y026008D03*
X002508Y026008D03*
X002508Y031508D03*
X002508Y032508D03*
X003508Y032508D03*
X003508Y031508D03*
X003508Y033508D03*
X003508Y034508D03*
X002508Y034508D03*
X002508Y033508D03*
D14*
X019508Y005008D03*
X020508Y005008D03*
X021508Y005008D03*
X026008Y005008D03*
X027008Y005008D03*
X028008Y005008D03*
X032508Y005008D03*
X033508Y005008D03*
X034508Y005008D03*
D15*
X011558Y021558D03*
X010558Y021558D03*
X009558Y021558D03*
D16*
X010558Y027458D03*
D17*
X039008Y026258D03*
X039008Y024758D03*
X039008Y023258D03*
X039008Y021758D03*
X039008Y016758D03*
X039008Y015258D03*
X039008Y013758D03*
X039008Y012258D03*
X039008Y010758D03*
X039008Y009258D03*
X039008Y007758D03*
X039008Y006258D03*
X039008Y031258D03*
X039008Y032758D03*
X039008Y034258D03*
X039008Y035758D03*
D18*
X036608Y037358D03*
X034658Y036458D03*
X033708Y034908D03*
X033908Y034058D03*
X034608Y034558D03*
X035608Y034458D03*
X034608Y033208D03*
X035158Y032908D03*
X032558Y034858D03*
X032158Y033508D03*
X030458Y034408D03*
X030258Y032908D03*
X028508Y032408D03*
X026158Y032958D03*
X025508Y032458D03*
X024108Y033258D03*
X024358Y033608D03*
X024458Y035458D03*
X025558Y037508D03*
X022258Y036558D03*
X021008Y037058D03*
X020158Y036558D03*
X019308Y037008D03*
X018608Y036958D03*
X017708Y036908D03*
X017358Y035408D03*
X017058Y034208D03*
X017458Y033608D03*
X018858Y033258D03*
X019258Y033258D03*
X021058Y033258D03*
X021958Y032158D03*
X022408Y030858D03*
X021358Y029908D03*
X021658Y028008D03*
X022558Y027158D03*
X023308Y026808D03*
X023608Y027458D03*
X023908Y027158D03*
X025008Y029008D03*
X024408Y030658D03*
X026458Y030508D03*
X027258Y028908D03*
X028508Y029908D03*
X029758Y030008D03*
X029908Y028958D03*
X031108Y028658D03*
X032208Y028608D03*
X033008Y028258D03*
X032608Y026708D03*
X032058Y025408D03*
X033008Y025208D03*
X034658Y026708D03*
X035958Y028658D03*
X037058Y030458D03*
X039158Y029258D03*
X037108Y026508D03*
X036708Y024208D03*
X036608Y022208D03*
X036508Y020358D03*
X034208Y021158D03*
X032808Y022108D03*
X031858Y021808D03*
X029958Y023258D03*
X029408Y023108D03*
X028658Y023108D03*
X027858Y022058D03*
X027308Y022258D03*
X026358Y022658D03*
X026358Y021858D03*
X025158Y021508D03*
X024208Y021958D03*
X023908Y021658D03*
X023708Y021258D03*
X022808Y021058D03*
X021558Y021208D03*
X020658Y021058D03*
X020158Y020858D03*
X020758Y020258D03*
X021358Y020258D03*
X021158Y019408D03*
X021108Y018958D03*
X020508Y019758D03*
X019558Y018958D03*
X018558Y018958D03*
X018158Y019008D03*
X017708Y018958D03*
X017858Y019358D03*
X017108Y019358D03*
X016458Y020008D03*
X016658Y020858D03*
X016458Y021658D03*
X015458Y021658D03*
X015208Y020958D03*
X015208Y020258D03*
X014608Y021208D03*
X014008Y020408D03*
X012658Y020708D03*
X012608Y020108D03*
X011908Y019958D03*
X013258Y018958D03*
X011708Y018208D03*
X011908Y017558D03*
X011958Y016958D03*
X013008Y016208D03*
X013208Y015458D03*
X013958Y014858D03*
X014508Y015458D03*
X014258Y014208D03*
X015708Y013858D03*
X016908Y014208D03*
X017708Y014258D03*
X017558Y014858D03*
X019458Y014308D03*
X020958Y012858D03*
X020958Y012008D03*
X020958Y011358D03*
X022108Y011558D03*
X023058Y011108D03*
X024008Y011708D03*
X024558Y012708D03*
X024608Y013508D03*
X024958Y014258D03*
X025508Y013758D03*
X027008Y014308D03*
X027658Y014558D03*
X028408Y014258D03*
X029408Y013058D03*
X030008Y014158D03*
X032058Y012958D03*
X034458Y014158D03*
X036008Y012958D03*
X036808Y013058D03*
X037758Y013508D03*
X037658Y011608D03*
X035958Y011458D03*
X034658Y012258D03*
X035708Y009558D03*
X035758Y008458D03*
X034708Y007008D03*
X036558Y005108D03*
X031358Y007058D03*
X030658Y008608D03*
X031508Y008658D03*
X028658Y006958D03*
X028158Y008008D03*
X027108Y008008D03*
X026758Y010008D03*
X026008Y010058D03*
X026458Y012458D03*
X024008Y014308D03*
X023758Y015608D03*
X024458Y016308D03*
X025658Y016008D03*
X026258Y015608D03*
X026658Y015658D03*
X027358Y016408D03*
X028058Y016558D03*
X028058Y017808D03*
X029708Y019008D03*
X030058Y017758D03*
X031008Y018808D03*
X031458Y017858D03*
X032708Y018058D03*
X027758Y019408D03*
X026908Y019758D03*
X025208Y019908D03*
X023808Y019958D03*
X022558Y020158D03*
X024108Y018708D03*
X024008Y017658D03*
X022458Y016408D03*
X021258Y017058D03*
X021358Y017958D03*
X018858Y020258D03*
X020758Y021958D03*
X021558Y022558D03*
X022558Y022608D03*
X022808Y022258D03*
X023108Y022958D03*
X023008Y023458D03*
X022008Y024258D03*
X021358Y024008D03*
X020658Y023158D03*
X018858Y023158D03*
X018858Y022658D03*
X017558Y023108D03*
X017258Y023608D03*
X017258Y024008D03*
X016458Y023358D03*
X015558Y024608D03*
X014558Y024108D03*
X014308Y023358D03*
X014458Y022758D03*
X016558Y025308D03*
X017308Y025308D03*
X018458Y026508D03*
X018208Y027108D03*
X019658Y026508D03*
X019758Y025058D03*
X019208Y025058D03*
X020758Y025058D03*
X023008Y024458D03*
X023458Y024458D03*
X024458Y023458D03*
X025308Y024958D03*
X026158Y026458D03*
X026808Y027058D03*
X027758Y026108D03*
X028008Y027108D03*
X028408Y027458D03*
X029908Y027458D03*
X029908Y026058D03*
X029408Y025758D03*
X030558Y026058D03*
X032208Y030558D03*
X030958Y030858D03*
X022308Y034558D03*
X020908Y034858D03*
X020058Y034858D03*
X019758Y035408D03*
X020158Y038208D03*
X018058Y038958D03*
X015658Y038608D03*
X015408Y039358D03*
X014408Y038058D03*
X015358Y037108D03*
X015808Y036558D03*
X014558Y036858D03*
X013808Y035458D03*
X013558Y034858D03*
X012958Y035458D03*
X011558Y035758D03*
X010558Y035458D03*
X010908Y034858D03*
X011208Y034158D03*
X012258Y033558D03*
X012558Y033208D03*
X011208Y031758D03*
X012708Y031158D03*
X012808Y030308D03*
X013758Y030008D03*
X015058Y029958D03*
X015108Y028858D03*
X016158Y029108D03*
X016758Y030458D03*
X017708Y030558D03*
X018358Y030908D03*
X019108Y031158D03*
X018208Y030008D03*
X018708Y028458D03*
X015358Y027808D03*
X014958Y027508D03*
X015158Y026658D03*
X014458Y026658D03*
X013758Y031108D03*
X014808Y031158D03*
X015258Y032808D03*
X015708Y033208D03*
X016158Y034558D03*
X015508Y034858D03*
X015108Y034858D03*
X011708Y036858D03*
X010858Y036558D03*
X009658Y037608D03*
X009458Y038708D03*
X008908Y036758D03*
X007758Y036858D03*
X007358Y034958D03*
X007708Y033458D03*
X006608Y033208D03*
X007708Y032508D03*
X008258Y032208D03*
X009258Y033058D03*
X009108Y031058D03*
X006958Y030058D03*
X006958Y029108D03*
X007258Y028608D03*
X005658Y025808D03*
X006758Y023058D03*
X007508Y021358D03*
X008108Y021008D03*
X007158Y020408D03*
X006808Y020658D03*
X005608Y020608D03*
X004758Y022208D03*
X001658Y020008D03*
X004808Y018858D03*
X006258Y018608D03*
X006758Y017608D03*
X007358Y017258D03*
X008258Y017658D03*
X008558Y016508D03*
X007708Y016158D03*
X008808Y015058D03*
X009458Y015758D03*
X009858Y014658D03*
X010358Y014308D03*
X010358Y013708D03*
X009758Y013708D03*
X011558Y015008D03*
X012258Y014258D03*
X012108Y012858D03*
X012358Y011808D03*
X012508Y011258D03*
X013458Y011458D03*
X014108Y012558D03*
X014508Y012558D03*
X015258Y012108D03*
X015658Y012108D03*
X015608Y012558D03*
X015908Y011458D03*
X014958Y011458D03*
X013158Y009558D03*
X014558Y009108D03*
X015208Y009108D03*
X015808Y008858D03*
X016008Y007558D03*
X017258Y007708D03*
X017758Y009658D03*
X017658Y011858D03*
X017208Y012958D03*
X019558Y011908D03*
X020458Y009758D03*
X022508Y007658D03*
X021958Y006708D03*
X020208Y005808D03*
X017808Y005308D03*
X015008Y006458D03*
X013608Y006458D03*
X013008Y007558D03*
X012408Y008158D03*
X011858Y007558D03*
X010808Y006458D03*
X009408Y007408D03*
X008708Y007208D03*
X007658Y007058D03*
X006958Y007058D03*
X006358Y008158D03*
X005708Y007508D03*
X005108Y007208D03*
X005658Y006208D03*
X004058Y005358D03*
X004958Y002358D03*
X007958Y005508D03*
X009058Y006058D03*
X009258Y008358D03*
X010508Y009108D03*
X010658Y009908D03*
X010358Y010608D03*
X010858Y010658D03*
X011158Y011458D03*
X009608Y010608D03*
X008908Y010608D03*
X008708Y009608D03*
X007758Y009258D03*
X007458Y009558D03*
X006708Y009358D03*
X006758Y008708D03*
X005758Y009358D03*
X005708Y010108D03*
X005558Y010608D03*
X004808Y009808D03*
X004558Y010708D03*
X005108Y012158D03*
X007308Y012158D03*
X007658Y013008D03*
X007258Y014358D03*
X005758Y015008D03*
X004608Y014958D03*
X003508Y014908D03*
X002458Y015008D03*
X005708Y017408D03*
X009858Y018308D03*
X010058Y017558D03*
X010658Y016658D03*
X009758Y019758D03*
X014608Y017108D03*
X014908Y017808D03*
X015208Y018608D03*
X015458Y019358D03*
X017308Y017708D03*
X018258Y017658D03*
X018258Y017058D03*
X016808Y016758D03*
X015408Y017058D03*
X021358Y014558D03*
X026108Y016708D03*
X023658Y004908D03*
X030008Y004908D03*
X039058Y018658D03*
X036408Y039358D03*
X011558Y038058D03*
X011508Y039058D03*
X005458Y038508D03*
X004658Y036758D03*
X005458Y036108D03*
X005008Y034908D03*
X003758Y035058D03*
X003358Y036508D03*
X004858Y033358D03*
X004908Y032458D03*
X004958Y031508D03*
X003908Y029458D03*
X002458Y029358D03*
X007958Y011508D03*
X007608Y011158D03*
X004808Y008758D03*
X011658Y009758D03*
M02*
