/* XPM */
static char * flying_pig_xpm[] = {
"53 46 5 1",
" 	c None",
".	c #000000",
"+	c #E7E7FF",
"@	c #FFBDBD",
"#	c #FFFFFF",
"                                .                    ",
"                               .                     ",
"                             .##                     ",
"                           ..##.                     ",
"                          .####.                     ",
"                         .####..                     ",
"                        .####..#            ..       ",
"                       .#######.          .+..       ",
"                       .#######.       .++++.        ",
"                       .######..    ..++++..         ",
"                      ..#######.   .+++++++.         ",
"                      .########  ..+++++++.          ",
"            @.        .##..###. ..+++++++..          ",
"            @@.       .##.@### .+++.+++...           ",
"            @.@.  .....#.@@###..+..+++.+++           ",
"           .@@.@.@@@@@..@.@##..++.+++++++.           ",
"           .@@..@@..@@.@@@@...++.+++++++.            ",
"            .@.@@.@@@.@@.@.@..+..+++++..             ",
"  ...       ..@@@@@@@@@@.@@@.++.+++++++.             ",
" .@@@..      .++@++.@@@@@@@@.++.++++++.              ",
".@@@@@..    ..++..+.@@@@@@@@.++.++....               ",
".@@@.@.@.....@..@...@@@@@@@@++.++....  .@@..         ",
"...@...@@@.@@@.@@@@@@@@@@@@@@+.@@@@@. .@......@@@@.  ",
"...@..@@@@@.@@@@@@@@@@@.@@@@@@@@@@@@@.@.   ..@.. .@. ",
".@.@.@@@@@@@@@@@@@@@@@@@@@@@@@@@@@@@@@.    .@.    .. ",
" @@@@@@@@@@@@@@@@@@@@@@@@@@@@@@@@@@@@@@.   @..    .@ ",
" .@@@@.@@@@@@@@@@@@@@@@@@@@@@@@@@@@@@@@.  .@ .     . ",
"  .@@@.@@@@@@@@@@@@@@@@@@@@@@@@@@@@@@@@.  .@@.       ",
"   ...@@@@@@@@@@@@@..@@..@@@@@@@@@@@@@@.   ..        ",
"    .@@@@@@@@@@@@..@@@@@@@@@@@@@@@@@@@@.             ",
"     ..@@@@@@@@..@@@@@@@@@@@@@@@@@@@@@@.             ",
"       .@@@@.....@@@@@@@@@@@@@@@@@@@@@@.             ",
"           .@@..@@@@@@@@@@@@@@@@@@@@@@@.             ",
"           .@@.@@@@@@@@@@@@@@@@@@@@@@@@              ",
"           .@.@@@@@@@@@@@@@@@@@@@@@@@@@@.            ",
"           ..@@@@@@@@@@@@@@@@@@@@@@@@@@@@            ",
"            .@..@@@@@@@@@@@@@@@@@@@..@@@@.           ",
"            .. .@@@@@@@@@.@@@@@@@...  @...           ",
"                ...........@@.....@.   .             ",
"                  ....    .@@@   .@.                 ",
"                  .@@.     .@@.   .                  ",
"                  .@@.     ..@@                      ",
"                   @.@.     ..@.                     ",
"                   ..@.     .  .                     ",
"                   .  .                              ",
"                                                     "};
