G75*
G70*
%OFA0B0*%
%FSLAX24Y24*%
%IPPOS*%
%LPD*%
%AMOC8*
5,1,8,0,0,1.08239X$1,22.5*
%
%ADD10R,0.0591X0.0512*%
%ADD11R,0.0591X0.0472*%
%ADD12O,0.0885X0.1770*%
%ADD13O,0.1005X0.2010*%
%ADD14OC8,0.0630*%
%ADD15C,0.0630*%
%ADD16O,0.1770X0.0885*%
%ADD17OC8,0.0600*%
%ADD18OC8,0.0520*%
%ADD19R,0.0276X0.0591*%
%ADD20C,0.0750*%
%ADD21C,0.1400*%
%ADD22O,0.1500X0.0750*%
%ADD23R,0.1004X0.0984*%
%ADD24R,0.0512X0.0591*%
%ADD25R,0.0394X0.0551*%
%ADD26C,0.0660*%
%ADD27O,0.0560X0.1120*%
%ADD28R,0.0260X0.0800*%
%ADD29R,0.0460X0.0630*%
%ADD30C,0.0160*%
%ADD31C,0.0400*%
%ADD32C,0.0240*%
%ADD33C,0.0500*%
%ADD34C,0.0480*%
%ADD35C,0.0100*%
%ADD36C,0.1500*%
%ADD37C,0.0400*%
D10*
X006309Y005589D03*
X006309Y006259D03*
X013809Y006259D03*
X013809Y005589D03*
X021809Y005589D03*
X021809Y006259D03*
X029309Y006259D03*
X029309Y005589D03*
X037309Y005589D03*
X037309Y006259D03*
X044809Y006259D03*
X044809Y005589D03*
X052809Y005589D03*
X052809Y006259D03*
X060309Y006259D03*
X060309Y005589D03*
X055909Y028889D03*
X055909Y029559D03*
X048409Y029559D03*
X048409Y028889D03*
X040409Y028889D03*
X040409Y029559D03*
X032909Y029559D03*
X032909Y028889D03*
X024909Y028889D03*
X024909Y029559D03*
X017409Y029559D03*
X017409Y028889D03*
X009409Y028889D03*
X009409Y029559D03*
X001909Y029559D03*
X001909Y028889D03*
D11*
X005638Y025524D03*
X006780Y025524D03*
X015338Y014424D03*
X016480Y014424D03*
X049138Y024824D03*
X050280Y024824D03*
X050780Y014324D03*
X049638Y014324D03*
D12*
X050609Y003974D03*
X048409Y003974D03*
X044809Y003974D03*
X042609Y003974D03*
X040409Y003974D03*
X037309Y003974D03*
X035109Y003974D03*
X032909Y003974D03*
X029309Y003974D03*
X027109Y003974D03*
X024909Y003974D03*
X021809Y003974D03*
X019609Y003974D03*
X017409Y003974D03*
X013809Y003974D03*
X011609Y003974D03*
X009409Y003974D03*
X006309Y003974D03*
X004109Y003974D03*
X001909Y003974D03*
X001909Y031174D03*
X004109Y031174D03*
X006309Y031174D03*
X009409Y031174D03*
X011609Y031174D03*
X013809Y031174D03*
X017409Y031174D03*
X019609Y031174D03*
X021809Y031174D03*
X024909Y031174D03*
X027109Y031174D03*
X029309Y031174D03*
X032909Y031174D03*
X035109Y031174D03*
X037309Y031174D03*
X040409Y031174D03*
X042609Y031174D03*
X044809Y031174D03*
X048409Y031174D03*
X050609Y031174D03*
X052809Y031174D03*
X055909Y031174D03*
X058109Y031174D03*
X060309Y031174D03*
X060309Y003974D03*
X058109Y003974D03*
X055909Y003974D03*
X052809Y003974D03*
D13*
X050609Y005324D03*
X048409Y005324D03*
X042609Y005324D03*
X040409Y005324D03*
X035109Y005324D03*
X032909Y005324D03*
X027109Y005324D03*
X024909Y005324D03*
X019609Y005324D03*
X017409Y005324D03*
X011609Y005324D03*
X009409Y005324D03*
X004109Y005324D03*
X001909Y005324D03*
X004109Y029824D03*
X006309Y029824D03*
X011609Y029824D03*
X013809Y029824D03*
X019609Y029824D03*
X021809Y029824D03*
X027109Y029824D03*
X029309Y029824D03*
X035109Y029824D03*
X037309Y029824D03*
X042609Y029824D03*
X044809Y029824D03*
X050609Y029824D03*
X052809Y029824D03*
X058109Y029824D03*
X060309Y029824D03*
X058109Y005324D03*
X055909Y005324D03*
D14*
X048109Y009324D03*
X048109Y012824D03*
X048109Y016324D03*
X048109Y019824D03*
X048109Y023324D03*
X048109Y026824D03*
X019109Y017424D03*
X013609Y015824D03*
X013609Y019324D03*
X013609Y022824D03*
X013609Y026324D03*
X013609Y012324D03*
X013609Y008824D03*
D15*
X012609Y008824D03*
X012609Y012324D03*
X012609Y015824D03*
X018109Y017424D03*
X012609Y019324D03*
X012609Y022824D03*
X012609Y026324D03*
X047109Y026824D03*
X047109Y023324D03*
X047109Y019824D03*
X047109Y016324D03*
X047109Y012824D03*
X047109Y009324D03*
D16*
X035009Y027224D03*
X029009Y027224D03*
D17*
X010609Y017924D03*
X002609Y017524D03*
X001609Y017524D03*
X001609Y016524D03*
X002609Y016524D03*
X002609Y015524D03*
X001609Y015524D03*
X001609Y014524D03*
X002609Y014524D03*
X002609Y018524D03*
X001609Y018524D03*
X001609Y019524D03*
X002609Y019524D03*
X002609Y020524D03*
X001609Y020524D03*
X001609Y021524D03*
X002609Y021524D03*
X002609Y022524D03*
X001609Y022524D03*
X001609Y023524D03*
X002609Y023524D03*
X010609Y011924D03*
X045109Y011224D03*
X045109Y017224D03*
X061709Y018824D03*
X063509Y018824D03*
X063509Y012824D03*
X061709Y012824D03*
D18*
X045109Y010324D03*
X045109Y008324D03*
X010609Y008824D03*
X010609Y010824D03*
D19*
X009159Y013207D03*
X008659Y013207D03*
X008159Y013207D03*
X007659Y013207D03*
X007159Y013207D03*
X006659Y013207D03*
X006159Y013207D03*
X005659Y013207D03*
X005659Y015841D03*
X006159Y015841D03*
X006659Y015841D03*
X007159Y015841D03*
X007659Y015841D03*
X008159Y015841D03*
X008659Y015841D03*
X009159Y015841D03*
D20*
X016591Y020543D03*
X017575Y020543D03*
X018559Y020543D03*
X019543Y020543D03*
X020528Y020543D03*
X032191Y020543D03*
X033175Y020543D03*
X034159Y020543D03*
X035143Y020543D03*
X036128Y020543D03*
X054628Y020974D03*
X054628Y021958D03*
X054628Y022942D03*
X054628Y019989D03*
X054628Y019005D03*
D21*
X056990Y020580D03*
X056990Y013100D03*
X042033Y022905D03*
X034553Y022905D03*
X026433Y022905D03*
X018953Y022905D03*
D22*
X028109Y014624D03*
X028109Y012624D03*
X036109Y013624D03*
X036109Y009624D03*
X036109Y017624D03*
X062709Y007624D03*
X062709Y006124D03*
X062709Y004624D03*
X062709Y003124D03*
X062709Y001624D03*
D23*
X054003Y008224D03*
X052015Y008224D03*
X051915Y014324D03*
X053903Y014324D03*
X053603Y017824D03*
X051615Y017824D03*
X044603Y020324D03*
X042615Y020324D03*
X041103Y020324D03*
X039115Y020324D03*
X051415Y024824D03*
X053403Y024824D03*
X020203Y008424D03*
X018215Y008424D03*
X017715Y014424D03*
X019703Y014424D03*
X009903Y019324D03*
X007915Y019324D03*
X007915Y025524D03*
X009903Y025524D03*
D24*
X006643Y019324D03*
X005974Y019324D03*
X006474Y010024D03*
X007143Y010024D03*
X007143Y008524D03*
X006474Y008524D03*
X004543Y009924D03*
X003874Y009924D03*
X002143Y009924D03*
X001474Y009924D03*
X001474Y008524D03*
X002143Y008524D03*
X016174Y008524D03*
X016843Y008524D03*
X049974Y008224D03*
X050643Y008224D03*
X050443Y017824D03*
X049774Y017824D03*
D25*
X059935Y032891D03*
X060683Y032891D03*
X060309Y033757D03*
X029683Y032891D03*
X028935Y032891D03*
X029309Y033757D03*
X029383Y002257D03*
X028635Y002257D03*
X029009Y001391D03*
X059635Y002257D03*
X060383Y002257D03*
X060009Y001391D03*
D26*
X061709Y020724D03*
X063509Y020724D03*
X063509Y024724D03*
X063509Y025924D03*
X061709Y025924D03*
X061709Y024724D03*
X061709Y029924D03*
X063509Y029924D03*
D27*
X061309Y010674D03*
X063309Y009974D03*
D28*
X053409Y010014D03*
X052909Y010014D03*
X052409Y010014D03*
X051909Y010014D03*
X051409Y010014D03*
X050909Y010014D03*
X050409Y010014D03*
X050409Y012434D03*
X050909Y012434D03*
X051409Y012434D03*
X051909Y012434D03*
X052409Y012434D03*
X052909Y012434D03*
X053409Y012434D03*
X053109Y020414D03*
X052609Y020414D03*
X052109Y020414D03*
X051609Y020414D03*
X051109Y020414D03*
X050609Y020414D03*
X050109Y020414D03*
X050109Y022834D03*
X050609Y022834D03*
X051109Y022834D03*
X051609Y022834D03*
X052109Y022834D03*
X052609Y022834D03*
X053109Y022834D03*
X019309Y012634D03*
X018809Y012634D03*
X018309Y012634D03*
X017809Y012634D03*
X017309Y012634D03*
X016809Y012634D03*
X016309Y012634D03*
X016309Y010214D03*
X016809Y010214D03*
X017309Y010214D03*
X017809Y010214D03*
X018309Y010214D03*
X018809Y010214D03*
X019309Y010214D03*
X009109Y021214D03*
X008609Y021214D03*
X008109Y021214D03*
X007609Y021214D03*
X007109Y021214D03*
X006609Y021214D03*
X006109Y021214D03*
X006109Y023634D03*
X006609Y023634D03*
X007109Y023634D03*
X007609Y023634D03*
X008109Y023634D03*
X008609Y023634D03*
X009109Y023634D03*
D29*
X004509Y008524D03*
X003909Y008524D03*
D30*
X006309Y006524D02*
X006409Y006624D01*
X014209Y006624D01*
X014709Y007124D01*
X014709Y011924D01*
X017009Y011924D01*
X017309Y012224D01*
X017309Y012634D01*
X018809Y010224D02*
X018809Y010214D01*
X018809Y009824D01*
X019209Y009424D01*
X019209Y006759D01*
X021326Y006741D01*
X021309Y006724D01*
X028843Y006724D01*
X029309Y006259D01*
X029309Y005589D02*
X029309Y003974D01*
X021809Y003974D02*
X021809Y005589D01*
X021809Y006259D02*
X021326Y006741D01*
X014209Y006624D02*
X013809Y006224D01*
X013809Y006259D01*
X013809Y005589D02*
X013809Y003974D01*
X006309Y003974D02*
X006309Y005589D01*
X006309Y006259D02*
X006309Y006524D01*
X008609Y021214D02*
X008609Y021724D01*
X008909Y022024D01*
X010509Y022024D01*
X014809Y026324D01*
X014759Y026374D01*
X014809Y026324D02*
X017409Y028924D01*
X017409Y028889D01*
X017409Y029559D02*
X017409Y031174D01*
X022609Y028674D02*
X024659Y028674D01*
X024909Y028889D01*
X024909Y029559D02*
X024909Y031174D01*
X032909Y031174D02*
X032909Y029559D01*
X032909Y028889D02*
X033159Y028674D01*
X034459Y028674D01*
X039809Y028624D02*
X040159Y028624D01*
X040159Y028674D01*
X040409Y028889D01*
X040409Y029559D02*
X040409Y031174D01*
X048409Y031174D02*
X048409Y029559D01*
X048409Y028889D02*
X048659Y028674D01*
X050309Y028674D01*
X050359Y028624D01*
X052109Y028624D01*
X052109Y031824D01*
X052509Y032224D01*
X055259Y032224D01*
X055259Y029374D01*
X055659Y028974D01*
X055909Y028889D01*
X055909Y025324D01*
X053909Y023324D01*
X053909Y022224D01*
X052609Y020924D01*
X052609Y020414D01*
X063509Y020724D02*
X063509Y018824D01*
X063509Y020724D02*
X063659Y021024D01*
X064009Y021374D01*
X064009Y025274D01*
X063659Y025624D01*
X063509Y025924D01*
X064259Y029024D02*
X064259Y002974D01*
X063259Y001974D01*
X062709Y001624D01*
X060309Y003924D02*
X060309Y003974D01*
X060309Y005589D01*
X060309Y006259D02*
X059743Y006824D01*
X052909Y006824D01*
X052909Y010014D01*
X051399Y011624D02*
X045809Y011624D01*
X045709Y011524D01*
X045709Y008824D01*
X044609Y008824D01*
X044609Y008424D01*
X043009Y006824D01*
X037874Y006824D01*
X037309Y006259D01*
X037309Y005589D02*
X037309Y003974D01*
X044809Y003974D02*
X044809Y005589D01*
X044809Y006259D02*
X044874Y006324D01*
X044909Y006324D01*
X045709Y007124D01*
X045709Y008824D01*
X051399Y011624D02*
X051409Y012434D01*
X052909Y006824D02*
X052909Y006324D01*
X052809Y006224D01*
X052809Y006259D01*
X052809Y005589D02*
X052809Y003974D01*
X007109Y023124D02*
X006909Y022924D01*
X005809Y022924D01*
X004909Y023824D01*
X004909Y026224D01*
X005309Y026624D01*
X005509Y026424D01*
X005309Y026624D02*
X007509Y028824D01*
X009409Y028824D01*
X009409Y028889D01*
X009409Y029559D02*
X009409Y031174D01*
X004609Y027324D02*
X003043Y028889D01*
X001909Y028889D01*
X001843Y028889D01*
X001809Y028924D01*
X001909Y029559D02*
X001909Y031174D01*
X007109Y023634D02*
X007109Y023124D01*
X055909Y029559D02*
X055909Y031174D01*
X063509Y029924D02*
X063659Y029624D01*
X064259Y029024D01*
D31*
X060009Y022374D03*
X051509Y021174D03*
X049209Y020374D03*
X048859Y019974D03*
X046359Y021224D03*
X045909Y020874D03*
X045809Y020374D03*
X045059Y022274D03*
X046359Y023574D03*
X050209Y023824D03*
X039809Y028624D03*
X034459Y028674D03*
X022609Y028674D03*
X014759Y026374D03*
X011059Y023124D03*
X011859Y022274D03*
X009609Y021324D03*
X009909Y020224D03*
X008709Y019824D03*
X007909Y018324D03*
X008759Y017974D03*
X009559Y017174D03*
X009559Y016674D03*
X009909Y015924D03*
X010409Y015474D03*
X009559Y015274D03*
X011109Y016274D03*
X011459Y016624D03*
X011859Y016924D03*
X011859Y017424D03*
X011509Y015974D03*
X011559Y015474D03*
X011859Y015074D03*
X011259Y013824D03*
X010759Y013824D03*
X011009Y013374D03*
X010609Y012674D03*
X010009Y012074D03*
X009109Y011674D03*
X007659Y012274D03*
X007059Y012624D03*
X006009Y013924D03*
X005659Y014824D03*
X006559Y015074D03*
X007209Y015074D03*
X007709Y015074D03*
X004909Y016374D03*
X003959Y016724D03*
X004159Y015124D03*
X009609Y013024D03*
X014359Y013374D03*
X014609Y012674D03*
X015509Y012324D03*
X015509Y013024D03*
X014359Y012224D03*
X015659Y011124D03*
X016709Y011124D03*
X017459Y009524D03*
X016809Y007924D03*
X017209Y006674D03*
X015859Y006024D03*
X015409Y006524D03*
X012759Y007424D03*
X012759Y007924D03*
X012359Y007024D03*
X007159Y007024D03*
X004109Y010574D03*
X014359Y015224D03*
X016659Y016274D03*
X016659Y016924D03*
X017459Y017574D03*
X016459Y018374D03*
X014659Y018924D03*
X015009Y019774D03*
X015159Y020274D03*
X014359Y020424D03*
X014359Y021374D03*
X018309Y019374D03*
X030059Y015574D03*
X037459Y014224D03*
X037459Y013624D03*
X038309Y012374D03*
X037459Y012024D03*
X031859Y008624D03*
X021209Y009424D03*
X016359Y003024D03*
X045159Y014224D03*
X045309Y015924D03*
X048859Y014424D03*
X049409Y014874D03*
X048859Y012524D03*
X048859Y012024D03*
X050259Y010924D03*
X051209Y009324D03*
X059709Y006324D03*
X060209Y011174D03*
X055009Y014424D03*
X046409Y004274D03*
X006059Y022024D03*
X005059Y021424D03*
X005259Y020724D03*
X005609Y019924D03*
X006209Y024774D03*
X005509Y026424D03*
X004609Y027324D03*
D32*
X004609Y026424D02*
X006309Y028124D01*
X006309Y029824D01*
X006309Y031174D01*
X013809Y031174D02*
X013809Y029824D01*
X017109Y028124D02*
X020109Y028124D01*
X021809Y029824D01*
X019609Y029824D02*
X019609Y031174D01*
X020709Y032224D02*
X021459Y032224D01*
X021509Y032274D01*
X022909Y032274D01*
X022909Y031774D01*
X027109Y031174D02*
X027109Y029824D01*
X029459Y033574D02*
X029309Y033757D01*
X029459Y033574D02*
X032259Y033574D01*
X032259Y021624D01*
X033009Y020874D01*
X033175Y020543D01*
X033309Y020174D01*
X033309Y016224D01*
X035559Y013974D01*
X036109Y013624D01*
X035559Y013274D01*
X031959Y009674D01*
X031959Y008624D01*
X031859Y008624D01*
X031959Y008624D02*
X031959Y001624D01*
X029159Y001624D01*
X029009Y001391D01*
X017409Y005324D02*
X017609Y006324D01*
X017609Y007824D01*
X017759Y007974D01*
X018215Y008424D01*
X018309Y008874D01*
X018309Y010214D01*
X017309Y010214D02*
X017209Y009824D01*
X017209Y009574D01*
X017309Y009524D01*
X017459Y009524D01*
X017209Y009574D02*
X017009Y009574D01*
X016359Y008924D01*
X016359Y008774D01*
X016174Y008524D01*
X013609Y008824D02*
X013509Y009124D01*
X013509Y009374D01*
X011859Y009374D01*
X015009Y011524D02*
X015009Y001824D01*
X007609Y008074D02*
X006459Y006924D01*
X004309Y006924D01*
X004309Y006324D01*
X004109Y005324D01*
X004359Y007974D02*
X003609Y007974D01*
X003459Y008124D01*
X003459Y008274D01*
X002359Y008274D01*
X002143Y008524D01*
X001959Y008274D01*
X001959Y008024D01*
X001059Y008024D01*
X001009Y008074D01*
X001009Y015824D01*
X001459Y016274D01*
X001609Y016524D01*
X001459Y016774D01*
X001109Y017124D01*
X001109Y018924D01*
X001459Y019274D01*
X001609Y019524D01*
X002109Y018924D02*
X002459Y019274D01*
X002609Y019524D01*
X002109Y018924D02*
X002109Y014024D01*
X004509Y011624D01*
X004509Y010174D01*
X004543Y009924D01*
X004059Y009174D02*
X004059Y008824D01*
X003909Y008524D01*
X004359Y008224D02*
X004509Y008524D01*
X006474Y008524D01*
X007609Y008074D02*
X007609Y009524D01*
X007359Y009774D01*
X007143Y010024D01*
X004359Y008224D02*
X004359Y007974D01*
X002143Y008524D02*
X002159Y008774D01*
X002159Y009674D01*
X002143Y009924D01*
X011859Y015074D02*
X014359Y015074D01*
X014359Y015224D01*
X015338Y014424D02*
X015609Y014624D01*
X017109Y016024D01*
X017059Y016224D01*
X017059Y018374D01*
X015159Y020274D01*
X014359Y020424D02*
X011009Y020424D01*
X010359Y019774D01*
X009903Y019324D01*
X009909Y019324D01*
X009909Y020224D01*
X009409Y020424D02*
X017109Y028124D01*
X009903Y025524D02*
X009409Y025074D01*
X009409Y024824D01*
X008409Y024824D01*
X007759Y024174D01*
X007759Y024074D01*
X007709Y024024D01*
X007609Y023634D01*
X007609Y023124D01*
X007109Y022624D01*
X005709Y022624D01*
X004609Y023724D01*
X004609Y026424D01*
X005638Y025524D02*
X005909Y025324D01*
X006209Y025024D01*
X006209Y024774D01*
X006609Y024624D02*
X007509Y025524D01*
X007915Y025524D01*
X007509Y025524D02*
X006780Y025524D01*
X006609Y024624D02*
X006609Y023634D01*
X006609Y023624D01*
X007109Y021214D02*
X007009Y020824D01*
X007009Y020724D01*
X006159Y019874D01*
X006159Y019574D01*
X005974Y019324D01*
X005759Y019574D01*
X005609Y019724D01*
X005609Y019924D01*
X005974Y019324D02*
X006059Y019074D01*
X006059Y016124D01*
X006159Y015841D01*
X006259Y015824D01*
X006559Y015824D01*
X006659Y015841D01*
X006759Y015824D01*
X007059Y015824D01*
X007159Y015841D01*
X007259Y015824D01*
X007559Y015824D01*
X007659Y015841D01*
X007759Y015824D01*
X008059Y015824D01*
X008159Y015841D01*
X008259Y015824D01*
X008559Y015824D01*
X008659Y015841D01*
X008759Y015824D01*
X009059Y015824D01*
X009159Y015841D01*
X009259Y015574D01*
X009559Y015274D01*
X006159Y015841D02*
X006059Y015824D01*
X005759Y015824D01*
X005659Y015841D01*
X007915Y019324D02*
X008109Y019774D01*
X008109Y020424D01*
X009409Y020424D01*
X009499Y021214D02*
X009109Y021214D01*
X009499Y021214D02*
X009609Y021324D01*
X008109Y021214D02*
X008109Y020424D01*
X011859Y017424D02*
X016459Y017424D01*
X016459Y018374D01*
X017459Y017574D02*
X017459Y020174D01*
X017575Y020543D01*
X018309Y019374D02*
X019259Y020324D01*
X019543Y020543D01*
X020159Y020424D02*
X020528Y020543D01*
X020159Y020424D02*
X020109Y016024D01*
X020209Y016024D01*
X020409Y015874D01*
X020409Y011574D01*
X019409Y010574D01*
X019309Y010214D01*
X019309Y010024D01*
X020209Y009124D01*
X020209Y008424D01*
X020203Y008424D01*
X020659Y008874D01*
X021209Y009424D01*
X017809Y012224D02*
X017109Y011524D01*
X015009Y011524D01*
X016809Y012624D02*
X016809Y012634D01*
X016809Y013924D01*
X017309Y014424D01*
X017715Y014424D01*
X017309Y014424D02*
X016480Y014424D01*
X017109Y016024D02*
X020109Y016024D01*
X019703Y014424D02*
X019209Y014424D01*
X017959Y013174D01*
X017959Y013074D01*
X017909Y013024D01*
X017809Y012634D01*
X017809Y012224D01*
X023909Y016324D02*
X027409Y012824D01*
X028109Y012624D01*
X036109Y009624D02*
X036659Y009974D01*
X037059Y010374D01*
X037059Y019624D01*
X039759Y019624D01*
X039859Y019724D01*
X039859Y021024D01*
X043259Y021024D01*
X043359Y020924D01*
X043359Y020774D01*
X044109Y020774D01*
X044603Y020324D01*
X045059Y020774D01*
X045059Y022274D01*
X045409Y020974D02*
X046584Y022149D01*
X047059Y021674D01*
X051509Y021674D01*
X051509Y022474D01*
X051609Y022834D01*
X051709Y023224D01*
X051759Y023274D01*
X051759Y023374D01*
X053109Y024724D01*
X053403Y024824D01*
X054209Y024224D02*
X054209Y029224D01*
X053609Y029824D01*
X052809Y029824D01*
X059409Y026774D02*
X059409Y033174D01*
X060159Y033924D01*
X060309Y033757D01*
X060459Y033524D01*
X061559Y033524D01*
X061559Y030224D01*
X061709Y029924D01*
X061559Y029624D01*
X061559Y026824D01*
X060809Y026074D01*
X060809Y011174D01*
X060209Y011174D01*
X060809Y011174D02*
X060809Y010174D01*
X061159Y009824D01*
X061159Y001624D01*
X060159Y001624D01*
X060009Y001391D01*
X062709Y004624D02*
X062709Y006124D01*
X063259Y006474D01*
X063809Y007024D01*
X063809Y010474D01*
X062959Y011324D01*
X062959Y023324D01*
X061859Y024424D01*
X061709Y024724D01*
X061709Y025924D01*
X059409Y026774D02*
X054859Y022224D01*
X054628Y021958D01*
X053609Y022424D02*
X053609Y023624D01*
X054209Y024224D01*
X053609Y022424D02*
X053209Y022024D01*
X053009Y022024D01*
X052109Y021124D01*
X052109Y020414D01*
X052109Y018474D01*
X052086Y018454D01*
X051615Y017824D01*
X051159Y017574D01*
X050859Y017074D01*
X049774Y017824D02*
X049559Y017574D01*
X047609Y017574D01*
X046559Y016524D01*
X046559Y015524D01*
X045109Y015524D01*
X044609Y016024D01*
X044609Y018374D01*
X043109Y019874D01*
X042615Y020324D01*
X041103Y020324D01*
X040609Y019874D01*
X037459Y016724D01*
X037459Y014224D01*
X036109Y017624D02*
X035559Y017974D01*
X035259Y018274D01*
X035259Y020174D01*
X035143Y020543D01*
X035309Y020874D01*
X035309Y021124D01*
X036409Y021124D01*
X036709Y020824D01*
X036709Y020774D01*
X038659Y020774D01*
X039115Y020324D01*
X037059Y019624D02*
X036259Y019624D01*
X036259Y020174D01*
X036128Y020543D01*
X045409Y020974D02*
X045409Y017624D01*
X045259Y017474D01*
X045109Y017224D01*
X048109Y016324D02*
X048109Y014624D01*
X044209Y014624D01*
X046059Y012824D02*
X046609Y013374D01*
X050459Y013374D01*
X050909Y014124D02*
X050780Y014324D01*
X051915Y014324D01*
X050909Y014124D02*
X050909Y012434D01*
X051909Y012434D02*
X052009Y012824D01*
X052059Y012874D01*
X052059Y012974D01*
X053409Y014324D01*
X053903Y014324D01*
X051909Y012434D02*
X051909Y011324D01*
X046009Y011324D01*
X046009Y001824D01*
X043909Y001824D02*
X043909Y007124D01*
X045109Y008324D01*
X047109Y009324D02*
X047209Y009624D01*
X047209Y010524D01*
X048859Y010524D01*
X050159Y008624D02*
X050909Y009374D01*
X051209Y009374D01*
X051209Y009324D01*
X051209Y009374D02*
X051309Y009374D01*
X051309Y009624D01*
X051409Y010014D01*
X052409Y010014D02*
X052409Y008674D01*
X052015Y008224D01*
X051359Y007774D01*
X048909Y005324D01*
X048409Y005324D01*
X049974Y008224D02*
X050159Y008474D01*
X050159Y008624D01*
X053509Y009624D02*
X053409Y010014D01*
X053509Y010374D01*
X054609Y011474D01*
X054609Y016824D01*
X054059Y017374D01*
X053603Y017824D01*
X054059Y018274D01*
X054459Y018674D01*
X054628Y019005D01*
X054259Y018974D01*
X053209Y020024D01*
X053109Y020414D01*
X051509Y021174D02*
X051209Y020874D01*
X051209Y020774D01*
X051109Y020414D01*
X051009Y020024D01*
X051009Y019924D01*
X049959Y018874D01*
X049959Y018074D01*
X049774Y017824D01*
X049909Y014524D02*
X053109Y017724D01*
X053603Y017824D01*
X048859Y019974D02*
X048459Y020374D01*
X045809Y020374D01*
X047209Y022124D02*
X040409Y028924D01*
X040409Y028889D01*
X040609Y028124D02*
X039009Y028124D01*
X037309Y029824D01*
X040609Y028124D02*
X046584Y022149D01*
X047209Y022124D02*
X051109Y022124D01*
X051109Y022834D01*
X050609Y022834D02*
X050609Y024495D01*
X050280Y024824D01*
X051415Y024824D01*
X050209Y023824D02*
X049409Y024624D01*
X049138Y024824D01*
X048859Y024624D01*
X046359Y024624D01*
X046359Y023574D01*
X050609Y022834D02*
X050609Y022824D01*
X061709Y020724D02*
X061709Y018824D01*
X049909Y014524D02*
X049638Y014324D01*
X053509Y009624D02*
X053509Y008674D01*
X054003Y008224D01*
X062709Y007624D02*
X063259Y007974D01*
X063259Y009424D01*
X063309Y009974D01*
D33*
X035009Y027224D02*
X035009Y028824D01*
X035109Y029824D01*
X029309Y029824D02*
X029109Y028824D01*
X029109Y027624D01*
X029009Y027224D01*
D34*
X022909Y031774D03*
X020709Y032224D03*
X023909Y016324D03*
X011859Y009374D03*
X004059Y009174D03*
X044209Y014624D03*
X046059Y012824D03*
X048859Y010524D03*
X050459Y013374D03*
X050859Y017074D03*
D35*
X050443Y017824D02*
X050659Y018074D01*
X051509Y018924D01*
X051509Y020024D01*
X051609Y020414D01*
X050609Y020414D02*
X050509Y020024D01*
X050359Y019874D01*
X049559Y019874D01*
X049559Y020524D01*
X049209Y020874D01*
X045909Y020874D01*
X046359Y021224D02*
X049159Y021224D01*
X049609Y020774D01*
X050009Y020774D01*
X050109Y020414D01*
X049209Y020374D02*
X049209Y019824D01*
X045309Y015924D01*
X045159Y014224D02*
X048109Y014224D01*
X048309Y014424D01*
X048859Y014424D01*
X049209Y014274D02*
X049209Y014674D01*
X049409Y014874D01*
X049209Y014274D02*
X048559Y013624D01*
X037459Y013624D01*
X038309Y012374D02*
X048309Y012374D01*
X048459Y012524D01*
X048859Y012524D01*
X048859Y012024D02*
X037459Y012024D01*
X030059Y015574D02*
X030059Y032224D01*
X029509Y032224D01*
X029109Y032624D01*
X028935Y032891D01*
X029309Y033324D02*
X028009Y033324D01*
X028009Y029274D01*
X019809Y021074D01*
X014709Y021074D01*
X014709Y020274D01*
X014209Y019774D01*
X011059Y019774D01*
X011059Y017624D01*
X010759Y017324D01*
X010759Y013824D01*
X010409Y013824D02*
X010409Y015474D01*
X009909Y015924D02*
X009909Y014124D01*
X009259Y013474D01*
X009159Y013207D01*
X009609Y013024D02*
X010409Y013824D01*
X011009Y013374D02*
X014359Y013374D01*
X014709Y013524D02*
X014409Y013824D01*
X011259Y013824D01*
X011209Y014724D02*
X011209Y015674D01*
X011509Y015974D01*
X011109Y016274D02*
X011109Y017374D01*
X011309Y017574D01*
X011309Y017674D01*
X012509Y018874D01*
X014659Y018874D01*
X014659Y018924D01*
X015009Y018574D02*
X015009Y019774D01*
X015009Y018574D02*
X012509Y018574D01*
X011509Y017574D01*
X011509Y016674D01*
X011459Y016624D01*
X011859Y016924D02*
X016659Y016924D01*
X016659Y016274D02*
X012359Y016274D01*
X011559Y015474D01*
X009909Y015924D02*
X009909Y018074D01*
X008709Y019274D01*
X008709Y019824D01*
X007509Y020224D02*
X007509Y020824D01*
X007609Y021214D01*
X006609Y021214D02*
X006509Y021574D01*
X006059Y022024D01*
X006109Y021214D02*
X006009Y021074D01*
X005109Y021074D01*
X005084Y021049D01*
X005059Y021074D01*
X005059Y021424D01*
X005084Y021049D02*
X004909Y020874D01*
X004909Y016374D01*
X003959Y016724D02*
X003059Y017624D01*
X003059Y020724D01*
X002709Y021074D01*
X001759Y021074D01*
X001759Y021274D01*
X001609Y021524D01*
X002159Y022074D02*
X002459Y021774D01*
X002609Y021524D01*
X002159Y022074D02*
X002159Y023974D01*
X002809Y023974D01*
X004434Y022349D01*
X004459Y022374D01*
X008609Y022374D01*
X009359Y023124D01*
X011059Y023124D01*
X011859Y022274D02*
X011859Y021374D01*
X014359Y021374D01*
X009559Y017174D02*
X008759Y017974D01*
X007909Y018324D02*
X009559Y016674D01*
X007709Y015074D02*
X007709Y014324D01*
X008559Y013474D01*
X008659Y013207D01*
X008759Y012924D01*
X008759Y011424D01*
X012759Y007424D01*
X012759Y007924D02*
X009109Y011574D01*
X009109Y011674D01*
X008009Y012124D02*
X007809Y011924D01*
X004909Y011924D01*
X004909Y014574D01*
X004509Y014974D01*
X004509Y022274D01*
X004434Y022349D01*
X004309Y021724D02*
X002759Y023274D01*
X002609Y023524D01*
X004309Y021724D02*
X004309Y015274D01*
X004159Y015124D01*
X003809Y015224D02*
X003809Y012724D01*
X006259Y010274D01*
X006474Y010024D01*
X006709Y009774D01*
X006709Y009074D01*
X006909Y008874D01*
X006909Y008774D01*
X007143Y008524D01*
X004109Y010174D02*
X003874Y009924D01*
X003659Y010174D01*
X002559Y010174D01*
X002559Y010324D01*
X002509Y010374D01*
X001709Y010374D01*
X001709Y010174D01*
X001474Y009924D01*
X001509Y009674D01*
X001509Y008774D01*
X001474Y008524D01*
X004109Y010174D02*
X004109Y010574D01*
X006759Y012924D02*
X007059Y012624D01*
X006759Y012924D02*
X006659Y013207D01*
X006559Y013474D01*
X006359Y013674D01*
X006359Y014624D01*
X005609Y015374D01*
X005259Y015374D01*
X005259Y020724D01*
X006643Y019324D02*
X006859Y019574D01*
X007509Y020224D01*
X002609Y016524D02*
X002759Y016274D01*
X003809Y015224D01*
X005659Y014824D02*
X005659Y013207D01*
X006009Y013524D02*
X006009Y013924D01*
X006009Y013524D02*
X006059Y013474D01*
X006159Y013207D01*
X006559Y013974D02*
X007059Y013474D01*
X007159Y013207D01*
X007559Y013474D02*
X007659Y013207D01*
X007659Y012274D01*
X008009Y012124D02*
X008009Y012874D01*
X008059Y012924D01*
X008159Y013207D01*
X007559Y013474D02*
X007209Y013824D01*
X007209Y015074D01*
X006559Y015074D02*
X006559Y013974D01*
X010009Y013024D02*
X010009Y012074D01*
X010609Y011924D02*
X010609Y010824D01*
X013809Y012774D02*
X014359Y012224D01*
X014209Y012674D02*
X013859Y013024D01*
X010009Y013024D01*
X010609Y012774D02*
X010609Y012674D01*
X010609Y012774D02*
X013809Y012774D01*
X014209Y012674D02*
X014609Y012674D01*
X014709Y013124D02*
X014709Y013524D01*
X014709Y013124D02*
X015509Y012324D01*
X015509Y013024D02*
X013809Y014724D01*
X011209Y014724D01*
X015659Y011124D02*
X016209Y010574D01*
X016309Y010214D01*
X016809Y010214D02*
X016709Y010574D01*
X016709Y011124D01*
X017809Y010214D02*
X017809Y009374D01*
X017559Y009124D01*
X017559Y008774D01*
X017059Y008774D01*
X016843Y008524D01*
X016809Y007924D02*
X015409Y006524D01*
X015859Y006674D02*
X015859Y006024D01*
X015859Y006674D02*
X017209Y006674D01*
X018059Y006474D02*
X018059Y003324D01*
X017659Y002924D01*
X016359Y002924D01*
X016359Y003024D01*
X020509Y002924D02*
X020509Y005874D01*
X019909Y006474D01*
X018059Y006474D01*
X022409Y006474D02*
X022409Y003274D01*
X022059Y002924D01*
X020509Y002924D01*
X022409Y006474D02*
X027409Y006474D01*
X028009Y005874D01*
X028009Y002974D01*
X028459Y002524D01*
X028635Y002257D01*
X029383Y002257D02*
X029559Y002524D01*
X030059Y003024D01*
X030059Y015574D01*
X045109Y011224D02*
X045109Y010324D01*
X046409Y005724D02*
X050309Y009624D01*
X050409Y010014D01*
X050909Y010014D02*
X050809Y010374D01*
X050259Y010924D01*
X051909Y010014D02*
X051809Y009624D01*
X051809Y009424D01*
X050859Y008474D01*
X050643Y008224D01*
X046409Y005724D02*
X046409Y004274D01*
X059635Y002257D02*
X059709Y002524D01*
X059709Y006324D01*
X060909Y006424D02*
X060909Y002874D01*
X060559Y002524D01*
X060383Y002257D01*
X060909Y006424D02*
X059659Y007674D01*
X059659Y014424D01*
X055009Y014424D01*
X059659Y014424D02*
X059659Y032524D01*
X059759Y032624D01*
X059935Y032891D01*
X060683Y032891D02*
X060859Y032624D01*
X060959Y032524D01*
X060959Y026624D01*
X060009Y025674D01*
X060009Y022374D01*
X029683Y032891D02*
X029509Y033124D01*
X029309Y033324D01*
X012359Y007024D02*
X007159Y007024D01*
D36*
X009409Y001824D02*
X001909Y001824D01*
X001909Y005324D01*
X009409Y005324D02*
X009409Y001824D01*
X015009Y001824D01*
X019609Y001824D01*
X027109Y001824D01*
X027109Y005324D01*
X032909Y005324D02*
X032909Y003974D01*
X032909Y001824D01*
X043909Y001824D01*
X046009Y001824D01*
X053709Y001824D01*
X050609Y001824D01*
X050609Y003924D01*
X050609Y005324D01*
X050609Y003974D02*
X050609Y003924D01*
X053709Y001824D02*
X058109Y001824D01*
X058109Y003974D01*
X058109Y005324D01*
X040409Y005324D02*
X040409Y003974D01*
X040409Y001824D01*
X032909Y001824D01*
X019609Y001824D02*
X019609Y005324D01*
X037309Y029824D02*
X037309Y031174D01*
X037309Y033324D01*
X058109Y033324D01*
X050609Y033324D01*
X050609Y031174D01*
X050609Y029824D01*
X044809Y029824D02*
X044809Y029524D01*
X044809Y031174D01*
X044809Y033324D01*
X037309Y033324D01*
X027109Y033324D02*
X027109Y031174D01*
X027109Y033324D02*
X019609Y033324D01*
X013809Y033324D01*
X006309Y033324D01*
X006309Y031174D01*
X013809Y031174D02*
X013809Y033324D01*
X019609Y033324D02*
X019609Y031174D01*
X058109Y031174D02*
X058109Y029824D01*
X058109Y031174D02*
X058109Y033324D01*
D37*
X045109Y029024D02*
X044609Y029524D01*
X044809Y029524D01*
M02*
