%
M48
M72
T01C0.0590
T02C0.0670
T03C0.0320
T04C0.0400
T05C0.0500
T06C0.1000
T07C0.0440
T08C0.0360
T09C0.0240
%
T01
X191Y397
X411Y397
X631Y397
X941Y397
X1161Y397
X1381Y397
X1741Y397
X1961Y397
X2181Y397
X2491Y397
X2711Y397
X2931Y397
X3291Y397
X3511Y397
X3731Y397
X4041Y397
X4261Y397
X4481Y397
X4841Y397
X5061Y397
X5281Y397
X5591Y397
X5811Y397
X6031Y397
X3501Y2722
X2901Y2722
X2931Y3117
X2711Y3117
X2491Y3117
X2181Y3117
X1961Y3117
X1741Y3117
X1381Y3117
X1161Y3117
X941Y3117
X631Y3117
X411Y3117
X191Y3117
X3291Y3117
X3511Y3117
X3731Y3117
X4041Y3117
X4261Y3117
X4481Y3117
X4841Y3117
X5061Y3117
X5281Y3117
X5591Y3117
X5811Y3117
X6031Y3117
T02
X6031Y2982
X5811Y2982
X5281Y2982
X5061Y2982
X4481Y2982
X4261Y2982
X3731Y2982
X3511Y2982
X2931Y2982
X2711Y2982
X2181Y2982
X1961Y2982
X1381Y2982
X1161Y2982
X631Y2982
X411Y2982
X411Y532
X191Y532
X941Y532
X1161Y532
X1741Y532
X1961Y532
X2491Y532
X2711Y532
X3291Y532
X3511Y532
X4041Y532
X4261Y532
X4841Y532
X5061Y532
X5591Y532
X5811Y532
T03
X4886Y1052
X4811Y932
X4711Y932
X4511Y832
X4511Y1032
X4606Y1282
X4711Y1282
X4811Y1282
X5046Y1337
X4811Y1632
X4711Y1632
X4421Y1462
X5086Y1707
X4811Y1982
X4711Y1982
X4711Y2332
X4811Y2332
X4811Y2682
X4711Y2682
X2391Y1632
X1911Y1742
X1811Y1742
X1361Y1582
X1261Y1582
X1261Y1932
X1361Y1932
X1361Y2282
X1261Y2282
X1261Y2632
X1361Y2632
X2291Y3177
X2071Y3222
X1361Y1232
X1261Y1232
X1061Y1082
X1186Y937
X1061Y882
X1261Y882
X1361Y882
X406Y917
T04
X1061Y1192
X261Y1452
X161Y1452
X161Y1552
X261Y1552
X261Y1652
X161Y1652
X161Y1752
X261Y1752
X261Y1852
X161Y1852
X161Y1952
X261Y1952
X261Y2052
X161Y2052
X161Y2152
X261Y2152
X261Y2252
X161Y2252
X161Y2352
X261Y2352
X1061Y1792
X4511Y1722
X4511Y1122
X6171Y1282
X6351Y1282
X6351Y1882
X6171Y1882
T05
X5463Y1901
X5463Y1999
X5463Y2097
X5463Y2196
X5463Y2294
X3613Y2054
X3514Y2054
X3416Y2054
X3317Y2054
X3219Y2054
X3611Y1762
X3611Y1362
X3611Y962
X2811Y1262
X2811Y1462
X2053Y2054
X1954Y2054
X1856Y2054
X1757Y2054
X1659Y2054
X6271Y762
X6271Y612
X6271Y462
X6271Y312
X6271Y162
T06
X5699Y1310
X5699Y2058
X4203Y2291
X3455Y2291
X2643Y2291
X1895Y2291
T07
X6171Y2472
X6171Y2592
X6351Y2592
X6351Y2472
X6351Y2072
X6171Y2072
X6171Y2992
X6351Y2992
T08
X6131Y1067
X6331Y997
T09
X6021Y1117
X5501Y1442
X4941Y1487
X4886Y1442
X4886Y1252
X4886Y1202
X5026Y1092
X5121Y932
X5971Y632
X4641Y427
X3746Y1202
X3831Y1237
X3746Y1362
X3746Y1422
X3006Y1557
X2121Y942
X1746Y952
X1671Y1112
X1566Y1112
X1436Y1222
X1461Y1267
X1551Y1232
X1551Y1302
X1436Y1337
X1186Y1507
X1156Y1547
X1151Y1597
X1111Y1627
X1146Y1662
X1186Y1692
X1186Y1742
X956Y1717
X956Y1667
X991Y1592
X1041Y1547
X956Y1527
X771Y1507
X721Y1507
X656Y1507
X566Y1482
X416Y1512
X491Y1637
X396Y1672
X791Y1832
X876Y1797
X871Y1982
X991Y2022
X961Y2132
X1186Y2227
X1106Y2312
X1436Y2137
X1436Y2042
X1516Y2027
X1501Y1977
X1466Y1892
X1646Y1837
X1746Y1757
X1666Y1692
X1666Y1627
X1436Y1522
X1126Y1382
X1076Y1382
X1101Y1337
X1061Y1267
X1001Y1207
X911Y1167
X766Y1227
X706Y1262
X601Y1392
X961Y1302
X411Y1057
X716Y702
X1236Y702
X1276Y742
X1276Y792
X1541Y652
X1586Y602
X1721Y667
X1681Y792
X1636Y302
X3186Y862
X4516Y1422
X4531Y1592
X4886Y1997
X4921Y2037
X5151Y2117
X5021Y2382
X4636Y2357
X4506Y2227
X4636Y2122
X4591Y2087
X4581Y2037
X6001Y2237
X3981Y2862
X3446Y2867
X2261Y2867
X1476Y2637
X621Y2477
X551Y2642
X461Y2732
X606Y2202
X506Y2142
X526Y2072
X561Y1992
X1831Y1937
M30
