G75*
G70*
%OFA0B0*%
%FSLAX24Y24*%
%IPPOS*%
%LPD*%
%AMOC8*
5,1,8,0,0,1.08239X$1,22.5*
%
%ADD10R,0.0671X0.0592*%
%ADD11R,0.0671X0.0552*%
%ADD12O,0.0965X0.1850*%
%ADD13O,0.1085X0.2090*%
%ADD14OC8,0.0710*%
%ADD15C,0.0710*%
%ADD16O,0.1850X0.0965*%
%ADD17OC8,0.0680*%
%ADD18OC8,0.0600*%
%ADD19R,0.0356X0.0671*%
%ADD20C,0.0830*%
%ADD21C,0.1480*%
%ADD22O,0.1580X0.0830*%
%ADD23R,0.1084X0.1064*%
%ADD24R,0.0592X0.0671*%
%ADD25R,0.0474X0.0631*%
%ADD26C,0.0740*%
%ADD27O,0.0640X0.1200*%
%ADD28R,0.0340X0.0880*%
%ADD29R,0.0540X0.0710*%
%ADD30R,0.0060X0.0720*%
%ADD31C,0.0480*%
%ADD32C,0.0560*%
D10*
X006309Y005589D03*
X006309Y006259D03*
X013809Y006259D03*
X013809Y005589D03*
X021809Y005589D03*
X021809Y006259D03*
X029309Y006259D03*
X029309Y005589D03*
X037309Y005589D03*
X037309Y006259D03*
X044809Y006259D03*
X044809Y005589D03*
X052809Y005589D03*
X052809Y006259D03*
X060309Y006259D03*
X060309Y005589D03*
X055909Y028889D03*
X055909Y029559D03*
X048409Y029559D03*
X048409Y028889D03*
X040409Y028889D03*
X040409Y029559D03*
X032909Y029559D03*
X032909Y028889D03*
X024909Y028889D03*
X024909Y029559D03*
X017409Y029559D03*
X017409Y028889D03*
X009409Y028889D03*
X009409Y029559D03*
X001909Y029559D03*
X001909Y028889D03*
D11*
X005638Y025524D03*
X006780Y025524D03*
X015338Y014424D03*
X016480Y014424D03*
X049138Y024824D03*
X050280Y024824D03*
X050780Y014324D03*
X049638Y014324D03*
D12*
X001909Y003974D03*
X004109Y003974D03*
X006309Y003974D03*
X009409Y003974D03*
X011609Y003974D03*
X013809Y003974D03*
X017409Y003974D03*
X019609Y003974D03*
X021809Y003974D03*
X024909Y003974D03*
X027109Y003974D03*
X029309Y003974D03*
X032909Y003974D03*
X035109Y003974D03*
X037309Y003974D03*
X040409Y003974D03*
X042609Y003974D03*
X044809Y003974D03*
X048409Y003974D03*
X050609Y003974D03*
X052809Y003974D03*
X055909Y003974D03*
X058109Y003974D03*
X060309Y003974D03*
X060309Y031174D03*
X058109Y031174D03*
X055909Y031174D03*
X052809Y031174D03*
X050609Y031174D03*
X048409Y031174D03*
X044809Y031174D03*
X042609Y031174D03*
X040409Y031174D03*
X037309Y031174D03*
X035109Y031174D03*
X032909Y031174D03*
X029309Y031174D03*
X027109Y031174D03*
X024909Y031174D03*
X021809Y031174D03*
X019609Y031174D03*
X017409Y031174D03*
X013809Y031174D03*
X011609Y031174D03*
X009409Y031174D03*
X006309Y031174D03*
X004109Y031174D03*
X001909Y031174D03*
D13*
X004109Y029824D03*
X006309Y029824D03*
X011609Y029824D03*
X013809Y029824D03*
X019609Y029824D03*
X021809Y029824D03*
X027109Y029824D03*
X029309Y029824D03*
X035109Y029824D03*
X037309Y029824D03*
X042609Y029824D03*
X044809Y029824D03*
X050609Y029824D03*
X052809Y029824D03*
X058109Y029824D03*
X060309Y029824D03*
X058109Y005324D03*
X055909Y005324D03*
X050609Y005324D03*
X048409Y005324D03*
X042609Y005324D03*
X040409Y005324D03*
X035109Y005324D03*
X032909Y005324D03*
X027109Y005324D03*
X024909Y005324D03*
X019609Y005324D03*
X017409Y005324D03*
X011609Y005324D03*
X009409Y005324D03*
X004109Y005324D03*
X001909Y005324D03*
D14*
X013609Y008824D03*
X013609Y012324D03*
X013609Y015824D03*
X019109Y017424D03*
X013609Y019324D03*
X013609Y022824D03*
X013609Y026324D03*
X048109Y026824D03*
X048109Y023324D03*
X048109Y019824D03*
X048109Y016324D03*
X048109Y012824D03*
X048109Y009324D03*
D15*
X047109Y009324D03*
X047109Y012824D03*
X047109Y016324D03*
X047109Y019824D03*
X047109Y023324D03*
X047109Y026824D03*
X018109Y017424D03*
X012609Y015824D03*
X012609Y019324D03*
X012609Y022824D03*
X012609Y026324D03*
X012609Y012324D03*
X012609Y008824D03*
D16*
X029009Y027224D03*
X035009Y027224D03*
D17*
X045109Y017224D03*
X045109Y011224D03*
X061709Y012824D03*
X063509Y012824D03*
X063509Y018824D03*
X061709Y018824D03*
X010609Y017924D03*
X002609Y017524D03*
X001609Y017524D03*
X001609Y016524D03*
X002609Y016524D03*
X002609Y015524D03*
X001609Y015524D03*
X001609Y014524D03*
X002609Y014524D03*
X002609Y018524D03*
X001609Y018524D03*
X001609Y019524D03*
X002609Y019524D03*
X002609Y020524D03*
X001609Y020524D03*
X001609Y021524D03*
X002609Y021524D03*
X002609Y022524D03*
X001609Y022524D03*
X001609Y023524D03*
X002609Y023524D03*
X010609Y011924D03*
D18*
X010609Y010824D03*
X010609Y008824D03*
X045109Y008324D03*
X045109Y010324D03*
D19*
X009159Y013207D03*
X008659Y013207D03*
X008159Y013207D03*
X007659Y013207D03*
X007159Y013207D03*
X006659Y013207D03*
X006159Y013207D03*
X005659Y013207D03*
X005659Y015841D03*
X006159Y015841D03*
X006659Y015841D03*
X007159Y015841D03*
X007659Y015841D03*
X008159Y015841D03*
X008659Y015841D03*
X009159Y015841D03*
D20*
X016591Y020543D03*
X017575Y020543D03*
X018559Y020543D03*
X019543Y020543D03*
X020528Y020543D03*
X032191Y020543D03*
X033175Y020543D03*
X034159Y020543D03*
X035143Y020543D03*
X036128Y020543D03*
X054628Y020974D03*
X054628Y021958D03*
X054628Y022942D03*
X054628Y019989D03*
X054628Y019005D03*
D21*
X056990Y020580D03*
X056990Y013100D03*
X042033Y022905D03*
X034553Y022905D03*
X026433Y022905D03*
X018953Y022905D03*
D22*
X028109Y014624D03*
X028109Y012624D03*
X036109Y013624D03*
X036109Y009624D03*
X036109Y017624D03*
X062709Y007624D03*
X062709Y006124D03*
X062709Y004624D03*
X062709Y003124D03*
X062709Y001624D03*
D23*
X054003Y008224D03*
X052015Y008224D03*
X051915Y014324D03*
X053903Y014324D03*
X053603Y017824D03*
X051615Y017824D03*
X044603Y020324D03*
X042615Y020324D03*
X041103Y020324D03*
X039115Y020324D03*
X051415Y024824D03*
X053403Y024824D03*
X020203Y008424D03*
X018215Y008424D03*
X017715Y014424D03*
X019703Y014424D03*
X009903Y019324D03*
X007915Y019324D03*
X007915Y025524D03*
X009903Y025524D03*
D24*
X006643Y019324D03*
X005974Y019324D03*
X006474Y010024D03*
X007143Y010024D03*
X007143Y008524D03*
X006474Y008524D03*
X004543Y009924D03*
X003874Y009924D03*
X002143Y009924D03*
X001474Y009924D03*
X001474Y008524D03*
X002143Y008524D03*
X016174Y008524D03*
X016843Y008524D03*
X049974Y008224D03*
X050643Y008224D03*
X050443Y017824D03*
X049774Y017824D03*
D25*
X059935Y032891D03*
X060683Y032891D03*
X060309Y033757D03*
X029683Y032891D03*
X028935Y032891D03*
X029309Y033757D03*
X029383Y002257D03*
X028635Y002257D03*
X029009Y001391D03*
X059635Y002257D03*
X060383Y002257D03*
X060009Y001391D03*
D26*
X061709Y020724D03*
X063509Y020724D03*
X063509Y024724D03*
X063509Y025924D03*
X061709Y025924D03*
X061709Y024724D03*
X061709Y029924D03*
X063509Y029924D03*
D27*
X061309Y010674D03*
X063309Y009974D03*
D28*
X053409Y010014D03*
X052909Y010014D03*
X052409Y010014D03*
X051909Y010014D03*
X051409Y010014D03*
X050909Y010014D03*
X050409Y010014D03*
X050409Y012434D03*
X050909Y012434D03*
X051409Y012434D03*
X051909Y012434D03*
X052409Y012434D03*
X052909Y012434D03*
X053409Y012434D03*
X053109Y020414D03*
X052609Y020414D03*
X052109Y020414D03*
X051609Y020414D03*
X051109Y020414D03*
X050609Y020414D03*
X050109Y020414D03*
X050109Y022834D03*
X050609Y022834D03*
X051109Y022834D03*
X051609Y022834D03*
X052109Y022834D03*
X052609Y022834D03*
X053109Y022834D03*
X019309Y012634D03*
X018809Y012634D03*
X018309Y012634D03*
X017809Y012634D03*
X017309Y012634D03*
X016809Y012634D03*
X016309Y012634D03*
X016309Y010214D03*
X016809Y010214D03*
X017309Y010214D03*
X017809Y010214D03*
X018309Y010214D03*
X018809Y010214D03*
X019309Y010214D03*
X009109Y021214D03*
X008609Y021214D03*
X008109Y021214D03*
X007609Y021214D03*
X007109Y021214D03*
X006609Y021214D03*
X006109Y021214D03*
X006109Y023634D03*
X006609Y023634D03*
X007109Y023634D03*
X007609Y023634D03*
X008109Y023634D03*
X008609Y023634D03*
X009109Y023634D03*
D29*
X004509Y008524D03*
X003909Y008524D03*
D30*
X004209Y008524D03*
D31*
X007159Y007024D03*
X012359Y007024D03*
X012759Y007424D03*
X012759Y007924D03*
X015409Y006524D03*
X015859Y006024D03*
X017209Y006674D03*
X016809Y007924D03*
X017459Y009524D03*
X016709Y011124D03*
X015659Y011124D03*
X014359Y012224D03*
X014609Y012674D03*
X015509Y012324D03*
X015509Y013024D03*
X014359Y013374D03*
X011859Y015074D03*
X011559Y015474D03*
X011509Y015974D03*
X011109Y016274D03*
X011459Y016624D03*
X011859Y016924D03*
X011859Y017424D03*
X009559Y017174D03*
X009559Y016674D03*
X009909Y015924D03*
X010409Y015474D03*
X009559Y015274D03*
X007709Y015074D03*
X007209Y015074D03*
X006559Y015074D03*
X005659Y014824D03*
X004159Y015124D03*
X004909Y016374D03*
X003959Y016724D03*
X007909Y018324D03*
X008759Y017974D03*
X008709Y019824D03*
X009909Y020224D03*
X009609Y021324D03*
X011859Y022274D03*
X011059Y023124D03*
X014359Y021374D03*
X014359Y020424D03*
X015159Y020274D03*
X015009Y019774D03*
X014659Y018924D03*
X016459Y018374D03*
X017459Y017574D03*
X016659Y016924D03*
X016659Y016274D03*
X014359Y015224D03*
X011259Y013824D03*
X010759Y013824D03*
X011009Y013374D03*
X010609Y012674D03*
X010009Y012074D03*
X009109Y011674D03*
X007659Y012274D03*
X007059Y012624D03*
X006009Y013924D03*
X009609Y013024D03*
X004109Y010574D03*
X016359Y003024D03*
X021209Y009424D03*
X031859Y008624D03*
X037459Y012024D03*
X038309Y012374D03*
X037459Y013624D03*
X037459Y014224D03*
X030059Y015574D03*
X018309Y019374D03*
X006059Y022024D03*
X005059Y021424D03*
X005259Y020724D03*
X005609Y019924D03*
X006209Y024774D03*
X005509Y026424D03*
X004609Y027324D03*
X014759Y026374D03*
X022609Y028674D03*
X034459Y028674D03*
X039809Y028624D03*
X046359Y023574D03*
X045059Y022274D03*
X046359Y021224D03*
X045909Y020874D03*
X045809Y020374D03*
X048859Y019974D03*
X049209Y020374D03*
X051509Y021174D03*
X050209Y023824D03*
X060009Y022374D03*
X049409Y014874D03*
X048859Y014424D03*
X048859Y012524D03*
X048859Y012024D03*
X050259Y010924D03*
X051209Y009324D03*
X059709Y006324D03*
X060209Y011174D03*
X055009Y014424D03*
X045309Y015924D03*
X045159Y014224D03*
X046409Y004274D03*
D32*
X048859Y010524D03*
X046059Y012824D03*
X044209Y014624D03*
X050459Y013374D03*
X050859Y017074D03*
X023909Y016324D03*
X011859Y009374D03*
X004059Y009174D03*
X022909Y031774D03*
X020709Y032224D03*
M02*
