G75*
G70*
%OFA0B0*%
%FSLAX24Y24*%
%IPPOS*%
%LPD*%
%AMOC8*
5,1,8,0,0,1.08239X$1,22.5*
%
%ADD10O,0.0885X0.1770*%
%ADD11O,0.1005X0.2010*%
%ADD12OC8,0.0630*%
%ADD13C,0.0630*%
%ADD14O,0.1770X0.0885*%
%ADD15OC8,0.0600*%
%ADD16OC8,0.0520*%
%ADD17C,0.0750*%
%ADD18C,0.1400*%
%ADD19O,0.1500X0.0750*%
%ADD20C,0.0660*%
%ADD21O,0.0560X0.1120*%
%ADD22C,0.0400*%
%ADD23C,0.0160*%
%ADD24C,0.0240*%
%ADD25C,0.1500*%
%ADD26C,0.0860*%
%ADD27C,0.0480*%
%ADD28C,0.0320*%
%ADD29C,0.0100*%
D10*
X001909Y003974D03*
X004109Y003974D03*
X006309Y003974D03*
X009409Y003974D03*
X011609Y003974D03*
X013809Y003974D03*
X017409Y003974D03*
X019609Y003974D03*
X021809Y003974D03*
X024909Y003974D03*
X027109Y003974D03*
X029309Y003974D03*
X032909Y003974D03*
X035109Y003974D03*
X037309Y003974D03*
X040409Y003974D03*
X042609Y003974D03*
X044809Y003974D03*
X048409Y003974D03*
X050609Y003974D03*
X052809Y003974D03*
X055909Y003974D03*
X058109Y003974D03*
X060309Y003974D03*
X060309Y031174D03*
X058109Y031174D03*
X055909Y031174D03*
X052809Y031174D03*
X050609Y031174D03*
X048409Y031174D03*
X044809Y031174D03*
X042609Y031174D03*
X040409Y031174D03*
X037309Y031174D03*
X035109Y031174D03*
X032909Y031174D03*
X029309Y031174D03*
X027109Y031174D03*
X024909Y031174D03*
X021809Y031174D03*
X019609Y031174D03*
X017409Y031174D03*
X013809Y031174D03*
X011609Y031174D03*
X009409Y031174D03*
X006309Y031174D03*
X004109Y031174D03*
X001909Y031174D03*
D11*
X004109Y029824D03*
X006309Y029824D03*
X011609Y029824D03*
X013809Y029824D03*
X019609Y029824D03*
X021809Y029824D03*
X027109Y029824D03*
X029309Y029824D03*
X035109Y029824D03*
X037309Y029824D03*
X042609Y029824D03*
X044809Y029824D03*
X050609Y029824D03*
X052809Y029824D03*
X058109Y029824D03*
X060309Y029824D03*
X058109Y005324D03*
X055909Y005324D03*
X050609Y005324D03*
X048409Y005324D03*
X042609Y005324D03*
X040409Y005324D03*
X035109Y005324D03*
X032909Y005324D03*
X027109Y005324D03*
X024909Y005324D03*
X019609Y005324D03*
X017409Y005324D03*
X011609Y005324D03*
X009409Y005324D03*
X004109Y005324D03*
X001909Y005324D03*
D12*
X013609Y008824D03*
X013609Y012324D03*
X013609Y015824D03*
X019109Y017424D03*
X013609Y019324D03*
X013609Y022824D03*
X013609Y026324D03*
X048109Y026824D03*
X048109Y023324D03*
X048109Y019824D03*
X048109Y016324D03*
X048109Y012824D03*
X048109Y009324D03*
D13*
X047109Y009324D03*
X047109Y012824D03*
X047109Y016324D03*
X047109Y019824D03*
X047109Y023324D03*
X047109Y026824D03*
X018109Y017424D03*
X012609Y015824D03*
X012609Y019324D03*
X012609Y022824D03*
X012609Y026324D03*
X012609Y012324D03*
X012609Y008824D03*
D14*
X029009Y027224D03*
X035009Y027224D03*
D15*
X045109Y017224D03*
X045109Y011224D03*
X061709Y012824D03*
X063509Y012824D03*
X063509Y018824D03*
X061709Y018824D03*
X010609Y017924D03*
X002609Y017524D03*
X001609Y017524D03*
X001609Y016524D03*
X002609Y016524D03*
X002609Y015524D03*
X001609Y015524D03*
X001609Y014524D03*
X002609Y014524D03*
X002609Y018524D03*
X001609Y018524D03*
X001609Y019524D03*
X002609Y019524D03*
X002609Y020524D03*
X001609Y020524D03*
X001609Y021524D03*
X002609Y021524D03*
X002609Y022524D03*
X001609Y022524D03*
X001609Y023524D03*
X002609Y023524D03*
X010609Y011924D03*
D16*
X010609Y010824D03*
X010609Y008824D03*
X045109Y008324D03*
X045109Y010324D03*
D17*
X054628Y019005D03*
X054628Y019989D03*
X054628Y020974D03*
X054628Y021958D03*
X054628Y022942D03*
X036128Y020543D03*
X035143Y020543D03*
X034159Y020543D03*
X033175Y020543D03*
X032191Y020543D03*
X020528Y020543D03*
X019543Y020543D03*
X018559Y020543D03*
X017575Y020543D03*
X016591Y020543D03*
D18*
X018953Y022905D03*
X026433Y022905D03*
X034553Y022905D03*
X042033Y022905D03*
X056990Y020580D03*
X056990Y013100D03*
D19*
X062709Y007624D03*
X062709Y006124D03*
X062709Y004624D03*
X062709Y003124D03*
X062709Y001624D03*
X036109Y009624D03*
X036109Y013624D03*
X036109Y017624D03*
X028109Y014624D03*
X028109Y012624D03*
D20*
X061709Y020724D03*
X063509Y020724D03*
X063509Y024724D03*
X063509Y025924D03*
X061709Y025924D03*
X061709Y024724D03*
X061709Y029924D03*
X063509Y029924D03*
D21*
X061309Y010674D03*
X063309Y009974D03*
D22*
X060209Y011174D03*
X055009Y014424D03*
X049409Y014874D03*
X048859Y014424D03*
X048859Y012524D03*
X048859Y012024D03*
X050259Y010924D03*
X051209Y009324D03*
X059709Y006324D03*
X046409Y004274D03*
X037459Y012024D03*
X038309Y012374D03*
X037459Y013624D03*
X037459Y014224D03*
X030059Y015574D03*
X021209Y009424D03*
X017459Y009524D03*
X016709Y011124D03*
X015659Y011124D03*
X014359Y012224D03*
X014609Y012674D03*
X015509Y012324D03*
X015509Y013024D03*
X014359Y013374D03*
X011859Y015074D03*
X011559Y015474D03*
X011509Y015974D03*
X011109Y016274D03*
X011459Y016624D03*
X011859Y016924D03*
X011859Y017424D03*
X009559Y017174D03*
X009559Y016674D03*
X009909Y015924D03*
X010409Y015474D03*
X009559Y015274D03*
X007709Y015074D03*
X007209Y015074D03*
X006559Y015074D03*
X005659Y014824D03*
X004159Y015124D03*
X004909Y016374D03*
X003959Y016724D03*
X007909Y018324D03*
X008759Y017974D03*
X008709Y019824D03*
X009909Y020224D03*
X009609Y021324D03*
X011859Y022274D03*
X011059Y023124D03*
X014359Y021374D03*
X014359Y020424D03*
X015159Y020274D03*
X015009Y019774D03*
X014659Y018924D03*
X016459Y018374D03*
X017459Y017574D03*
X016659Y016924D03*
X016659Y016274D03*
X014359Y015224D03*
X011259Y013824D03*
X010759Y013824D03*
X011009Y013374D03*
X010609Y012674D03*
X010009Y012074D03*
X009109Y011674D03*
X007659Y012274D03*
X007059Y012624D03*
X006009Y013924D03*
X009609Y013024D03*
X004109Y010574D03*
X007159Y007024D03*
X012359Y007024D03*
X012759Y007424D03*
X012759Y007924D03*
X015409Y006524D03*
X015859Y006024D03*
X017209Y006674D03*
X016809Y007924D03*
X016359Y003024D03*
X031859Y008624D03*
X045159Y014224D03*
X045309Y015924D03*
X048859Y019974D03*
X049209Y020374D03*
X051509Y021174D03*
X050209Y023824D03*
X046359Y023574D03*
X045059Y022274D03*
X046359Y021224D03*
X045909Y020874D03*
X045809Y020374D03*
X060009Y022374D03*
X039809Y028624D03*
X034459Y028674D03*
X022609Y028674D03*
X014759Y026374D03*
X006209Y024774D03*
X005509Y026424D03*
X004609Y027324D03*
X006059Y022024D03*
X005059Y021424D03*
X005259Y020724D03*
X005609Y019924D03*
X018309Y019374D03*
D23*
X020309Y026374D02*
X014759Y026374D01*
X020309Y026374D02*
X022609Y028674D01*
X034459Y028674D02*
X034509Y028624D01*
X039809Y028624D01*
X063509Y024724D02*
X063659Y024424D01*
X063659Y021224D01*
X063709Y021224D01*
X064009Y020924D01*
X064009Y003474D01*
X063259Y003474D01*
X062709Y003124D01*
X061309Y010674D02*
X061559Y011074D01*
X063159Y012674D01*
X063259Y012674D01*
X063509Y012824D01*
X005509Y026424D02*
X004609Y027324D01*
D24*
X006209Y024774D02*
X009509Y021474D01*
X009609Y021324D01*
X009609Y020524D01*
X009909Y020224D01*
X009759Y020124D01*
X009059Y019424D01*
X002859Y019424D01*
X002609Y019524D01*
X002209Y019024D02*
X008759Y019024D01*
X010359Y017424D01*
X011859Y017424D01*
X013609Y017974D02*
X018359Y017974D01*
X018809Y017524D01*
X019109Y017424D01*
X018409Y017324D02*
X018109Y017424D01*
X018409Y017324D02*
X019409Y016324D01*
X023909Y016324D01*
X026809Y013824D02*
X027409Y014424D01*
X028109Y014624D01*
X044209Y014624D01*
X046059Y012824D02*
X028809Y012824D01*
X028109Y012624D01*
X026809Y013824D02*
X013609Y013824D01*
X011859Y015074D02*
X009759Y015074D01*
X009559Y015274D01*
X014359Y015224D02*
X016709Y017574D01*
X017459Y017574D01*
X016459Y018374D02*
X017459Y019374D01*
X018309Y019374D01*
X018459Y019474D01*
X034009Y019474D01*
X034859Y020324D01*
X035143Y020543D01*
X033175Y020543D02*
X032909Y020774D01*
X032559Y021124D01*
X018209Y021124D01*
X017859Y020774D01*
X017575Y020543D01*
X015159Y020274D02*
X014509Y020274D01*
X014359Y020424D01*
X005609Y019924D02*
X005509Y020024D01*
X002209Y020024D01*
X001859Y019674D01*
X001609Y019524D01*
X002209Y019024D02*
X001859Y018674D01*
X001609Y018524D01*
X017459Y009524D02*
X018359Y008624D01*
X031859Y008624D01*
X035409Y009424D02*
X036109Y009624D01*
X035409Y009424D02*
X021209Y009424D01*
X011859Y009374D02*
X004259Y009374D01*
X004059Y009174D01*
X035109Y003974D02*
X035809Y003624D01*
X036559Y002874D01*
X041159Y002874D01*
X041909Y003624D01*
X042609Y003974D01*
X051209Y009324D02*
X052059Y010174D01*
X058659Y010174D01*
X059659Y011174D01*
X060209Y011174D01*
X061209Y012424D02*
X057959Y012424D01*
X056059Y010524D01*
X048859Y010524D01*
X050459Y013374D02*
X051109Y014024D01*
X055209Y014024D01*
X061159Y019974D01*
X061159Y024574D01*
X061409Y024574D01*
X061709Y024724D01*
X055209Y023224D02*
X055209Y019374D01*
X054759Y019374D01*
X054628Y019005D01*
X054628Y019989D02*
X054259Y019974D01*
X048859Y019974D01*
X051509Y021174D02*
X053609Y021174D01*
X054259Y021824D01*
X054628Y021958D01*
X055209Y023224D02*
X054909Y023524D01*
X050509Y023524D01*
X050209Y023824D01*
X046359Y023574D02*
X045059Y022274D01*
X045809Y020374D02*
X043259Y017824D01*
X036809Y017824D01*
X036109Y017624D01*
X037459Y014224D02*
X037059Y013824D01*
X036809Y013824D01*
X036109Y013624D01*
X048109Y017074D02*
X050859Y017074D01*
X061209Y012424D02*
X061459Y012674D01*
X061709Y012824D01*
X062309Y016424D02*
X062309Y030124D01*
X061909Y030524D01*
X060309Y030524D01*
X035009Y027224D02*
X034159Y027424D01*
X033709Y027874D01*
X026809Y027874D01*
X022909Y031774D01*
X020709Y032224D02*
X020659Y032274D01*
X011609Y032274D01*
D25*
X011609Y001824D02*
X004109Y001824D01*
X004109Y003974D01*
X004109Y005324D01*
X001909Y005324D02*
X001909Y003974D01*
X009409Y003974D02*
X009409Y005324D01*
X011609Y005324D02*
X011609Y003974D01*
X011609Y001824D01*
X009409Y003924D02*
X009409Y003974D01*
X017409Y003974D02*
X017409Y001824D01*
X024909Y001824D01*
X024909Y003974D01*
X024909Y005324D01*
X027109Y005324D02*
X027109Y003974D01*
X027109Y003924D01*
X032909Y004024D02*
X032909Y005324D01*
X035109Y005324D02*
X035109Y003974D01*
X040409Y004024D02*
X040409Y005324D01*
X042609Y005324D02*
X042609Y003974D01*
X048409Y003974D02*
X048409Y001824D01*
X055909Y001824D01*
X055909Y003974D01*
X055909Y005324D01*
X058109Y005324D02*
X058109Y004024D01*
X050609Y003974D02*
X050609Y005324D01*
X048409Y005324D02*
X048409Y003974D01*
X050609Y003974D02*
X050609Y003924D01*
X019609Y003974D02*
X019609Y003924D01*
X019609Y003974D02*
X019609Y005324D01*
X017409Y005324D02*
X017409Y003974D01*
X021809Y029824D02*
X021809Y031174D01*
X021809Y033324D01*
X029309Y033324D01*
X029309Y031174D01*
X029309Y029824D01*
X035109Y029824D02*
X035109Y031174D01*
X035109Y033324D01*
X042609Y033324D01*
X042609Y031174D01*
X042609Y029824D01*
X052809Y029824D02*
X052809Y031174D01*
X052809Y033324D01*
X060309Y033324D01*
X060309Y031174D01*
X060309Y030524D01*
X060309Y029824D01*
X011609Y029824D02*
X011609Y031174D01*
X011609Y032274D01*
X011609Y033324D01*
X004109Y033324D01*
X004109Y031174D01*
X004109Y029824D01*
D26*
X011609Y029824D02*
X011609Y027324D01*
X012609Y026324D01*
X012609Y022824D01*
X012609Y019324D01*
X012609Y015824D01*
X012609Y019324D01*
X012609Y022824D01*
X013609Y022824D02*
X013609Y019324D01*
X013609Y022824D01*
X013609Y026324D01*
X013609Y026424D01*
X014309Y027124D01*
X020209Y027124D01*
X021809Y028724D01*
X021809Y029824D01*
X013609Y019324D02*
X013609Y017974D01*
X013609Y015824D01*
X013609Y013824D01*
X013609Y012324D01*
X013609Y008824D01*
X013609Y012324D01*
X012609Y012324D02*
X012609Y015824D01*
X012609Y012324D02*
X012609Y008824D01*
X011609Y007824D01*
X011609Y005324D01*
X014409Y008824D02*
X017409Y005324D01*
X014409Y008824D02*
X013609Y008824D01*
X042609Y005324D02*
X042909Y005824D01*
X045309Y005824D01*
X047109Y007624D01*
X047109Y009324D01*
X047109Y012824D01*
X047109Y016324D01*
X047109Y019824D01*
X047109Y023324D01*
X047109Y026824D01*
X047109Y023324D01*
X048109Y023324D02*
X048109Y019824D01*
X048109Y017074D01*
X048109Y016324D01*
X048109Y012824D01*
X048109Y009324D01*
X048109Y006124D01*
X048409Y005324D01*
X048109Y019824D02*
X048109Y023324D01*
X048109Y026824D01*
X050909Y026824D01*
X052809Y028724D01*
X052809Y029824D01*
X047109Y026824D02*
X044709Y026824D01*
X042609Y028924D01*
X042609Y029824D01*
D27*
X022909Y031774D03*
X020709Y032224D03*
X023909Y016324D03*
X011859Y009374D03*
X004059Y009174D03*
X044209Y014624D03*
X046059Y012824D03*
X048859Y010524D03*
X050459Y013374D03*
X050859Y017074D03*
D28*
X040609Y005824D02*
X040409Y005324D01*
X010609Y006824D02*
X009609Y005824D01*
X009409Y005324D01*
X010609Y006824D02*
X010609Y008824D01*
X010609Y017924D02*
X010609Y026824D01*
X007609Y029824D01*
X006309Y029824D01*
D29*
X004709Y023374D02*
X002859Y023374D01*
X002609Y023524D01*
X002259Y022974D02*
X003509Y022974D01*
X005059Y021424D01*
X005259Y020724D02*
X003909Y022074D01*
X002159Y022074D01*
X001859Y022374D01*
X001609Y022524D01*
X001959Y022974D02*
X000959Y022974D01*
X000959Y016524D01*
X001409Y016074D01*
X004409Y016074D01*
X005659Y014824D01*
X005809Y014724D01*
X010359Y014724D01*
X011259Y013824D01*
X010759Y013824D02*
X010109Y014474D01*
X005309Y014474D01*
X004309Y015474D01*
X002859Y015474D01*
X002609Y015524D01*
X001609Y015524D02*
X001359Y015374D01*
X001159Y015374D01*
X001159Y011524D01*
X003909Y008774D01*
X005409Y008774D01*
X007159Y007024D01*
X012359Y007024D02*
X016359Y003024D01*
X015859Y006024D02*
X015709Y006174D01*
X014009Y006174D01*
X012759Y007424D01*
X012759Y007924D02*
X014009Y007924D01*
X015409Y006524D01*
X017209Y006674D02*
X027909Y006674D01*
X031959Y002624D01*
X044759Y002624D01*
X046409Y004274D01*
X046459Y007924D02*
X016809Y007924D01*
X016709Y011124D02*
X015509Y012324D01*
X015659Y012674D02*
X014609Y012674D01*
X015509Y013024D02*
X015709Y013024D01*
X016659Y012074D01*
X037409Y012074D01*
X037459Y012024D01*
X037609Y011674D02*
X016659Y011674D01*
X015659Y012674D01*
X014559Y012224D02*
X014359Y012224D01*
X014559Y012224D02*
X015659Y011124D01*
X014359Y013374D02*
X028509Y013374D01*
X028809Y013074D01*
X036909Y013074D01*
X037459Y013624D01*
X038309Y012374D02*
X037609Y011674D01*
X043909Y015474D02*
X030209Y015474D01*
X030059Y015574D01*
X017359Y015574D01*
X016659Y016274D01*
X016659Y016924D02*
X017659Y015924D01*
X045309Y015924D01*
X043909Y015474D02*
X045159Y014224D01*
X046359Y013074D02*
X046459Y012974D01*
X046459Y007924D01*
X050259Y010924D02*
X049159Y012024D01*
X048859Y012024D01*
X049159Y012224D02*
X048859Y012524D01*
X049159Y012224D02*
X057359Y012224D01*
X058409Y013274D01*
X062159Y013274D01*
X062159Y012624D01*
X060359Y010824D01*
X059709Y010824D01*
X059709Y006324D01*
X046359Y013074D02*
X046359Y021224D01*
X045909Y020874D02*
X045409Y021374D01*
X014359Y021374D01*
X015159Y019924D02*
X017759Y019924D01*
X018209Y020374D01*
X018559Y020543D01*
X015459Y019724D02*
X033159Y019724D01*
X033809Y020374D01*
X034159Y020543D01*
X049209Y020374D02*
X049659Y020824D01*
X054259Y020824D01*
X054628Y020974D01*
X060009Y022374D02*
X052509Y014874D01*
X049409Y014874D01*
X048859Y014424D02*
X055009Y014424D01*
X015459Y019724D02*
X014659Y018924D01*
X015009Y019774D02*
X015159Y019924D01*
X011859Y022274D02*
X011859Y023124D01*
X011059Y023124D01*
X006059Y022024D02*
X004709Y023374D01*
X002609Y022524D02*
X002359Y022674D01*
X002259Y022674D01*
X001959Y022974D01*
X002259Y022974D02*
X001859Y023374D01*
X001609Y023524D01*
X001609Y020524D02*
X001359Y020374D01*
X001159Y020374D01*
X001159Y017324D01*
X001409Y017074D01*
X005709Y017074D01*
X007709Y015074D01*
X007209Y015074D02*
X005559Y016724D01*
X003959Y016724D01*
X004909Y016374D02*
X005259Y016374D01*
X006559Y015074D01*
X005809Y014124D02*
X005159Y014124D01*
X004159Y015124D01*
X002859Y014374D02*
X002609Y014524D01*
X002859Y014374D02*
X003859Y013374D01*
X011009Y013374D01*
X010609Y012674D02*
X010559Y012624D01*
X007059Y012624D01*
X007659Y012274D02*
X008509Y012274D01*
X009109Y011674D01*
X010009Y012074D02*
X008159Y010224D01*
X003959Y010224D01*
X001759Y012424D01*
X001759Y014274D01*
X001609Y014524D01*
X005809Y014124D02*
X006009Y013924D01*
X006559Y013024D02*
X009609Y013024D01*
X006559Y013024D02*
X004109Y010574D01*
X010409Y015474D02*
X011559Y015474D01*
X011459Y015924D02*
X009909Y015924D01*
X009959Y016274D02*
X011109Y016274D01*
X011459Y015924D02*
X011509Y015974D01*
X011459Y016624D02*
X010109Y016624D01*
X009559Y017174D01*
X009859Y017524D02*
X002609Y017524D01*
X002159Y017974D02*
X001859Y017674D01*
X001609Y017524D01*
X002159Y017974D02*
X008759Y017974D01*
X007909Y018324D02*
X002909Y018324D01*
X002859Y018374D01*
X002609Y018524D01*
X002859Y020374D02*
X002609Y020524D01*
X002859Y020374D02*
X008159Y020374D01*
X008709Y019824D01*
X009859Y017524D02*
X010409Y016974D01*
X011809Y016974D01*
X011859Y016924D01*
X009959Y016274D02*
X009559Y016674D01*
M02*
