G75*
G70*
%OFA0B0*%
%FSLAX24Y24*%
%IPPOS*%
%LPD*%
%AMOC8*
5,1,8,0,0,1.08239X$1,22.5*
%
%ADD10O,0.0885X0.1770*%
%ADD11O,0.1005X0.2010*%
%ADD12OC8,0.0630*%
%ADD13C,0.0630*%
%ADD14O,0.1770X0.0885*%
%ADD15OC8,0.0600*%
%ADD16OC8,0.0520*%
%ADD17C,0.0750*%
%ADD18C,0.1400*%
%ADD19O,0.1500X0.0750*%
%ADD20C,0.0660*%
%ADD21O,0.0560X0.1120*%
%ADD22C,0.0160*%
%ADD23C,0.0400*%
%ADD24C,0.0240*%
%ADD25C,0.1500*%
%ADD26C,0.0860*%
%ADD27C,0.0480*%
%ADD28C,0.0320*%
%ADD29C,0.0400*%
%ADD30C,0.0100*%
D10*
X002342Y003974D03*
X004542Y003974D03*
X006742Y003974D03*
X009842Y003974D03*
X012042Y003974D03*
X014242Y003974D03*
X017842Y003974D03*
X020042Y003974D03*
X022242Y003974D03*
X025342Y003974D03*
X027542Y003974D03*
X029742Y003974D03*
X033342Y003974D03*
X035542Y003974D03*
X037742Y003974D03*
X040842Y003974D03*
X043042Y003974D03*
X045242Y003974D03*
X048842Y003974D03*
X051042Y003974D03*
X053242Y003974D03*
X056342Y003974D03*
X058542Y003974D03*
X060742Y003974D03*
X060742Y031174D03*
X058542Y031174D03*
X056342Y031174D03*
X053242Y031174D03*
X051042Y031174D03*
X048842Y031174D03*
X045242Y031174D03*
X043042Y031174D03*
X040842Y031174D03*
X037742Y031174D03*
X035542Y031174D03*
X033342Y031174D03*
X029742Y031174D03*
X027542Y031174D03*
X025342Y031174D03*
X022242Y031174D03*
X020042Y031174D03*
X017842Y031174D03*
X014242Y031174D03*
X012042Y031174D03*
X009842Y031174D03*
X006742Y031174D03*
X004542Y031174D03*
X002342Y031174D03*
D11*
X004542Y029824D03*
X006742Y029824D03*
X012042Y029824D03*
X014242Y029824D03*
X020042Y029824D03*
X022242Y029824D03*
X027542Y029824D03*
X029742Y029824D03*
X035542Y029824D03*
X037742Y029824D03*
X043042Y029824D03*
X045242Y029824D03*
X051042Y029824D03*
X053242Y029824D03*
X058542Y029824D03*
X060742Y029824D03*
X058542Y005324D03*
X056342Y005324D03*
X051042Y005324D03*
X048842Y005324D03*
X043042Y005324D03*
X040842Y005324D03*
X035542Y005324D03*
X033342Y005324D03*
X027542Y005324D03*
X025342Y005324D03*
X020042Y005324D03*
X017842Y005324D03*
X012042Y005324D03*
X009842Y005324D03*
X004542Y005324D03*
X002342Y005324D03*
D12*
X014042Y008824D03*
X014042Y012324D03*
X014042Y015824D03*
X019542Y017424D03*
X014042Y019324D03*
X014042Y022824D03*
X014042Y026324D03*
X048542Y026824D03*
X048542Y023324D03*
X048542Y019824D03*
X048542Y016324D03*
X048542Y012824D03*
X048542Y009324D03*
D13*
X047542Y009324D03*
X047542Y012824D03*
X047542Y016324D03*
X047542Y019824D03*
X047542Y023324D03*
X047542Y026824D03*
X018542Y017424D03*
X013042Y015824D03*
X013042Y019324D03*
X013042Y022824D03*
X013042Y026324D03*
X013042Y012324D03*
X013042Y008824D03*
D14*
X029442Y027224D03*
X035442Y027224D03*
D15*
X045542Y017224D03*
X045542Y011224D03*
X062142Y012824D03*
X063942Y012824D03*
X063942Y018824D03*
X062142Y018824D03*
X011042Y017924D03*
X003042Y017524D03*
X002042Y017524D03*
X002042Y016524D03*
X003042Y016524D03*
X003042Y015524D03*
X002042Y015524D03*
X002042Y014524D03*
X003042Y014524D03*
X003042Y018524D03*
X002042Y018524D03*
X002042Y019524D03*
X003042Y019524D03*
X003042Y020524D03*
X002042Y020524D03*
X002042Y021524D03*
X003042Y021524D03*
X003042Y022524D03*
X002042Y022524D03*
X002042Y023524D03*
X003042Y023524D03*
X011042Y011924D03*
D16*
X011042Y010824D03*
X011042Y008824D03*
X045542Y008324D03*
X045542Y010324D03*
D17*
X054861Y019405D03*
X054861Y020389D03*
X054861Y021374D03*
X054861Y022358D03*
X054861Y023342D03*
X036561Y020543D03*
X035577Y020543D03*
X034592Y020543D03*
X033608Y020543D03*
X032624Y020543D03*
X020961Y020543D03*
X019977Y020543D03*
X018992Y020543D03*
X018008Y020543D03*
X017024Y020543D03*
D18*
X019386Y022905D03*
X026866Y022905D03*
X034986Y022905D03*
X042466Y022905D03*
X057223Y020980D03*
X057223Y013500D03*
D19*
X063142Y007624D03*
X063142Y006124D03*
X063142Y004624D03*
X063142Y003124D03*
X063142Y001624D03*
X036542Y009624D03*
X036542Y013624D03*
X036542Y017624D03*
X028542Y014624D03*
X028542Y012624D03*
D20*
X062142Y020724D03*
X063942Y020724D03*
X063942Y024724D03*
X063942Y025924D03*
X062142Y025924D03*
X062142Y024724D03*
X062142Y029924D03*
X063942Y029924D03*
D21*
X061742Y010674D03*
X063742Y009974D03*
D22*
X061742Y010674D02*
X061942Y011124D01*
X063442Y012624D01*
X063742Y012624D01*
X063942Y012824D01*
X059942Y006424D02*
X057442Y008924D01*
X054342Y008924D01*
X054242Y009024D01*
X054142Y009124D01*
X053442Y009124D01*
X051342Y023524D02*
X049342Y023524D01*
X050542Y028624D02*
X050442Y028724D01*
X050542Y028624D02*
X052042Y028624D01*
X017542Y011424D02*
X016742Y010624D01*
X015842Y010624D01*
X019342Y009424D02*
X020742Y008024D01*
X010442Y006924D02*
X009742Y006924D01*
X009242Y006424D01*
X009242Y022224D02*
X009242Y024124D01*
X010242Y024124D01*
D23*
X010242Y024124D03*
X009842Y024724D03*
X007242Y024724D03*
X009242Y022224D03*
X010542Y021824D03*
X010542Y021324D03*
X007042Y021924D03*
X006542Y021924D03*
X005742Y021424D03*
X004842Y019524D03*
X005342Y019024D03*
X008442Y018824D03*
X009142Y018724D03*
X010342Y018424D03*
X012242Y018324D03*
X012242Y017024D03*
X011142Y016224D03*
X010742Y015924D03*
X009742Y016624D03*
X012242Y015824D03*
X010542Y014624D03*
X010042Y014624D03*
X009242Y014324D03*
X007642Y014324D03*
X007242Y013924D03*
X006442Y014224D03*
X006042Y015124D03*
X005742Y016424D03*
X005742Y017024D03*
X004542Y016924D03*
X003642Y015424D03*
X003842Y014724D03*
X004142Y014324D03*
X003642Y014224D03*
X002142Y013424D03*
X001342Y014024D03*
X004142Y013024D03*
X004142Y012224D03*
X003842Y011824D03*
X004542Y010524D03*
X007742Y012624D03*
X011242Y013324D03*
X011842Y013224D03*
X012242Y013924D03*
X014842Y012224D03*
X015142Y011824D03*
X014842Y010924D03*
X015842Y010624D03*
X015042Y010424D03*
X017542Y011424D03*
X018342Y010924D03*
X019942Y009524D03*
X019342Y009424D03*
X020742Y008024D03*
X019942Y007624D03*
X025242Y011624D03*
X030542Y010224D03*
X031342Y010624D03*
X045942Y008724D03*
X046442Y009824D03*
X046442Y010524D03*
X046442Y011024D03*
X049342Y010524D03*
X049342Y009824D03*
X049342Y009324D03*
X050142Y009824D03*
X050942Y009324D03*
X050542Y008624D03*
X052342Y009324D03*
X053442Y009124D03*
X054242Y009024D03*
X053742Y010924D03*
X050042Y011824D03*
X059442Y009524D03*
X059942Y011424D03*
X059942Y006424D03*
X059942Y005424D03*
X049342Y017524D03*
X049542Y018024D03*
X046542Y017524D03*
X044342Y018324D03*
X049442Y019924D03*
X049342Y021224D03*
X050542Y022124D03*
X049342Y022224D03*
X049342Y023524D03*
X051042Y024224D03*
X051342Y023524D03*
X052842Y024424D03*
X052142Y021124D03*
X045042Y022424D03*
X041842Y025424D03*
X033242Y021824D03*
X031042Y019924D03*
X020542Y021824D03*
X016942Y019524D03*
X014842Y022224D03*
X012242Y023524D03*
X014842Y024224D03*
X014842Y025424D03*
X002542Y021924D03*
X014842Y016724D03*
X011942Y011824D03*
X012242Y010424D03*
X010442Y006924D03*
X009242Y006424D03*
X050442Y028724D03*
X052042Y028624D03*
X061442Y023924D03*
D24*
X062042Y023924D02*
X062042Y024424D01*
X062142Y024724D01*
X062042Y023924D02*
X055342Y017224D01*
X052242Y017224D01*
X051942Y016924D01*
X050642Y016424D02*
X062742Y016424D01*
X062742Y030124D01*
X062342Y030524D01*
X060742Y030524D01*
X062142Y029924D02*
X062042Y029624D01*
X055042Y022624D01*
X054861Y022358D01*
X054542Y022224D01*
X053242Y022224D01*
X052142Y021124D01*
X052042Y021224D01*
X049342Y021224D01*
X049442Y019924D02*
X054242Y019924D01*
X054542Y020224D01*
X054861Y020389D01*
X050442Y019424D02*
X048542Y019424D01*
X051042Y024224D02*
X052642Y024224D01*
X052842Y024424D01*
X036561Y020543D02*
X035942Y019924D01*
X032342Y019924D01*
X031942Y020324D01*
X021242Y020324D01*
X020961Y020543D01*
X020642Y021124D02*
X020242Y020724D01*
X019977Y020543D01*
X020642Y021124D02*
X035042Y021124D01*
X035342Y020824D01*
X035577Y020543D01*
X031042Y019924D02*
X018642Y019924D01*
X018242Y020324D01*
X018008Y020543D01*
X017742Y020324D01*
X016942Y019524D01*
X018742Y018024D02*
X014042Y018024D01*
X012242Y018324D02*
X011342Y017424D01*
X010742Y017424D01*
X010142Y018024D01*
X002542Y018024D01*
X002042Y018524D01*
X003042Y019524D02*
X004842Y019524D01*
X004942Y019424D01*
X007842Y019424D01*
X008442Y018824D01*
X005742Y017024D02*
X012242Y017024D01*
X011442Y016624D02*
X012242Y015824D01*
X011442Y016624D02*
X009742Y016624D01*
X005742Y017024D02*
X004542Y017024D01*
X004542Y016924D01*
X004542Y017024D02*
X002542Y017024D01*
X002042Y016524D01*
X008642Y010024D02*
X013042Y010024D01*
X018342Y010924D02*
X018642Y010624D01*
X031342Y010624D01*
X029242Y012824D02*
X028542Y012624D01*
X029242Y012824D02*
X029442Y013024D01*
X043442Y013024D01*
X046842Y013624D02*
X046842Y008924D01*
X044342Y006424D01*
X042242Y006424D01*
X042242Y003924D01*
X041142Y002824D01*
X037042Y002824D01*
X036242Y003624D01*
X035542Y003624D01*
X035842Y009524D02*
X036542Y009624D01*
X035842Y009524D02*
X019942Y009524D01*
X028542Y014624D02*
X029242Y014424D01*
X046742Y014424D01*
X049342Y012524D02*
X061842Y012524D01*
X062142Y012824D01*
X059442Y009524D02*
X052542Y009524D01*
X052342Y009324D01*
X053742Y010924D02*
X052842Y011824D01*
X050042Y011824D01*
X034642Y027024D02*
X034142Y026524D01*
X026342Y026524D01*
X025742Y027124D01*
X034642Y027024D02*
X035442Y027224D01*
X019242Y017524D02*
X018742Y018024D01*
X019242Y017524D02*
X019542Y017424D01*
X009842Y024724D02*
X007242Y024724D01*
X012542Y026824D02*
X012842Y027124D01*
X013642Y027124D01*
D25*
X012042Y001824D02*
X004542Y001824D01*
X004542Y003974D01*
X004542Y005324D01*
X002342Y005324D02*
X002342Y003974D01*
X009842Y003974D02*
X009842Y005324D01*
X009842Y003974D02*
X009842Y003924D01*
X012042Y003974D02*
X012042Y005324D01*
X012042Y003974D02*
X012042Y001824D01*
X017842Y001824D02*
X025342Y001824D01*
X025342Y003974D01*
X025342Y005324D01*
X027542Y005324D02*
X027542Y003974D01*
X027542Y003924D01*
X033342Y004024D02*
X033342Y005324D01*
X035542Y005324D02*
X035542Y003974D01*
X035542Y003624D01*
X035542Y001824D01*
X043042Y001824D01*
X043042Y003974D01*
X043042Y005324D01*
X040842Y005324D02*
X040842Y004024D01*
X048842Y003974D02*
X048842Y001824D01*
X056342Y001824D01*
X056342Y003974D01*
X056342Y005324D01*
X058542Y005324D02*
X058542Y004024D01*
X051042Y003974D02*
X051042Y005324D01*
X048842Y005324D02*
X048842Y003974D01*
X051042Y003974D02*
X051042Y003924D01*
X020042Y003974D02*
X020042Y003924D01*
X020042Y003974D02*
X020042Y005324D01*
X017842Y005324D02*
X017842Y003974D01*
X017842Y001824D01*
X022242Y029824D02*
X022242Y031174D01*
X022242Y033324D01*
X029742Y033324D01*
X029742Y031174D01*
X029742Y029824D01*
X035542Y029824D02*
X035542Y031174D01*
X035542Y033324D01*
X043042Y033324D01*
X043042Y031174D01*
X043042Y029824D01*
X053242Y029824D02*
X053242Y031174D01*
X053242Y033324D01*
X060742Y033324D01*
X060742Y031174D01*
X060742Y030524D01*
X060742Y029824D01*
X012042Y029824D02*
X012042Y031174D01*
X012042Y033324D01*
X004542Y033324D01*
X004542Y031174D01*
X004542Y029824D01*
D26*
X012042Y029824D02*
X012042Y027324D01*
X012542Y026824D01*
X013042Y026324D01*
X013042Y022824D01*
X013042Y019324D01*
X013042Y015824D01*
X013042Y019324D01*
X013042Y022824D01*
X014042Y022824D02*
X014042Y019324D01*
X014042Y022824D01*
X014042Y026324D01*
X014042Y026424D01*
X014742Y027124D01*
X020642Y027124D01*
X022242Y028724D01*
X022242Y029824D01*
X014042Y019324D02*
X014042Y018024D01*
X014042Y015824D01*
X014042Y012324D01*
X014042Y008824D01*
X014042Y012324D01*
X014042Y015824D01*
X013042Y015824D02*
X013042Y012324D01*
X013042Y010024D01*
X013042Y008824D01*
X012042Y007824D01*
X012042Y005324D01*
X014842Y008824D02*
X017842Y005324D01*
X014842Y008824D02*
X014042Y008824D01*
X043042Y005324D02*
X043342Y005824D01*
X045742Y005824D01*
X047542Y007624D01*
X047542Y009324D01*
X047542Y012824D01*
X047542Y019824D01*
X047542Y023324D01*
X047542Y026824D01*
X047542Y023324D01*
X048542Y023324D02*
X048542Y019824D01*
X048542Y023324D01*
X048542Y026824D01*
X051342Y026824D01*
X053242Y028724D01*
X053242Y029824D01*
X047542Y026824D02*
X045142Y026824D01*
X043042Y028924D01*
X043042Y029824D01*
X048542Y019824D02*
X048542Y019424D01*
X048542Y009324D01*
X048542Y006124D01*
X048842Y005324D01*
D27*
X049342Y012524D03*
X046842Y013624D03*
X046742Y014424D03*
X043442Y013024D03*
X050642Y016424D03*
X051942Y016924D03*
X050442Y019424D03*
X045542Y025824D03*
X025742Y027124D03*
X013642Y027124D03*
X008642Y010024D03*
D28*
X011042Y010824D02*
X011042Y011924D01*
X011042Y008824D02*
X011042Y006824D01*
X010042Y005824D01*
X009842Y005324D01*
X011042Y017924D02*
X011042Y026824D01*
X008042Y029824D01*
X006742Y029824D01*
X045542Y011224D02*
X045542Y010324D01*
X045542Y008324D02*
X043542Y008324D01*
X041042Y005824D01*
X040842Y005324D01*
D29*
X045542Y017224D02*
X045542Y025824D01*
D30*
X043242Y024224D02*
X014842Y024224D01*
X014842Y025424D02*
X041842Y025424D01*
X043242Y024224D02*
X045042Y022424D01*
X049342Y022224D02*
X050442Y022224D01*
X050542Y022124D01*
X054861Y021374D02*
X054942Y021024D01*
X055442Y021024D01*
X055442Y019224D01*
X055042Y018824D01*
X050342Y018824D01*
X049542Y018024D01*
X049342Y017524D02*
X055042Y017524D01*
X061442Y023924D01*
X046542Y017524D02*
X045742Y016724D01*
X014842Y016724D01*
X014842Y018324D02*
X044342Y018324D01*
X033242Y021824D02*
X020542Y021824D01*
X014842Y022224D02*
X014842Y018324D01*
X011142Y016224D02*
X011042Y016324D01*
X010642Y016324D01*
X010342Y016024D01*
X001542Y016024D01*
X001542Y016724D01*
X001842Y017024D01*
X001842Y017324D01*
X002042Y017524D01*
X003042Y016524D02*
X003242Y016424D01*
X005742Y016424D01*
X005742Y015424D02*
X003642Y015424D01*
X003342Y015824D02*
X003042Y015524D01*
X003342Y015824D02*
X010642Y015824D01*
X010742Y015924D01*
X010142Y015024D02*
X006142Y015024D01*
X006042Y015124D01*
X005742Y015424D01*
X007242Y014724D02*
X003842Y014724D01*
X004142Y014324D02*
X006342Y014324D01*
X006442Y014224D01*
X007142Y013824D02*
X007242Y013924D01*
X012242Y013924D01*
X011842Y013224D02*
X011342Y013724D01*
X007542Y013724D01*
X007242Y013424D01*
X002142Y013424D01*
X001842Y014024D02*
X001342Y014524D01*
X001342Y021324D01*
X001842Y021324D01*
X002042Y021524D01*
X001842Y021724D01*
X001542Y021724D01*
X001542Y023724D01*
X001842Y024024D01*
X005442Y024024D01*
X005442Y031224D01*
X006442Y032224D01*
X007342Y032224D01*
X007342Y031224D01*
X012242Y026324D01*
X012242Y023524D01*
X010542Y021824D02*
X010242Y021524D01*
X006442Y021524D01*
X005942Y022024D01*
X002642Y022024D01*
X002542Y021924D01*
X003042Y021524D02*
X003542Y021024D01*
X007742Y021024D01*
X010342Y018424D01*
X009142Y018724D02*
X007542Y020324D01*
X003242Y020324D01*
X003042Y020524D01*
X003542Y019024D02*
X003042Y018524D01*
X003542Y019024D02*
X005342Y019024D01*
X005842Y021324D02*
X010542Y021324D01*
X007042Y021924D02*
X005642Y023324D01*
X003242Y023324D01*
X003042Y023524D01*
X002542Y023024D02*
X002042Y023524D01*
X002542Y023024D02*
X005442Y023024D01*
X006542Y021924D01*
X005842Y021324D02*
X005742Y021424D01*
X010142Y015024D02*
X010542Y014624D01*
X010042Y014624D02*
X009542Y014624D01*
X009242Y014324D01*
X007642Y014324D02*
X007242Y014724D01*
X007142Y013824D02*
X001542Y013824D01*
X001342Y014024D01*
X001842Y014024D02*
X003442Y014024D01*
X003642Y014224D01*
X004142Y013024D02*
X007342Y013024D01*
X007742Y012624D01*
X010142Y012224D02*
X004142Y012224D01*
X003842Y011824D02*
X010042Y011824D01*
X010642Y012424D01*
X011342Y012424D01*
X011942Y011824D01*
X011242Y013324D02*
X010142Y012224D01*
X012242Y010424D02*
X004642Y010424D01*
X004542Y010524D01*
X014642Y010324D02*
X014642Y010924D01*
X014842Y010924D01*
X015042Y010424D02*
X015242Y010224D01*
X030542Y010224D01*
X037142Y010224D01*
X037442Y009924D01*
X045842Y009924D01*
X046442Y010524D01*
X046442Y011024D02*
X045442Y012024D01*
X015442Y012024D01*
X015242Y012224D01*
X014842Y012224D01*
X015142Y011824D02*
X025042Y011824D01*
X025242Y011624D01*
X022142Y008924D02*
X020842Y007624D01*
X019942Y007624D01*
X020742Y007224D02*
X017742Y007224D01*
X014642Y010324D01*
X020742Y007224D02*
X022242Y008724D01*
X045942Y008724D01*
X045542Y008924D02*
X022142Y008924D01*
X045542Y008924D02*
X046442Y009824D01*
X049342Y009824D02*
X050142Y009824D01*
X049342Y009324D02*
X050942Y009324D01*
X050542Y008624D02*
X056742Y008624D01*
X059942Y005424D01*
X059042Y010524D02*
X049342Y010524D01*
X059042Y010524D02*
X059942Y011424D01*
M02*
