G75*
G70*
%OFA0B0*%
%FSLAX24Y24*%
%IPPOS*%
%LPD*%
%AMOC8*
5,1,8,0,0,1.08239X$1,22.5*
%
%ADD10R,0.0591X0.0512*%
%ADD11R,0.0591X0.0472*%
%ADD12O,0.0885X0.1770*%
%ADD13O,0.1005X0.2010*%
%ADD14OC8,0.0630*%
%ADD15C,0.0630*%
%ADD16O,0.1770X0.0885*%
%ADD17OC8,0.0600*%
%ADD18OC8,0.0520*%
%ADD19R,0.0276X0.0591*%
%ADD20C,0.0750*%
%ADD21C,0.1400*%
%ADD22O,0.1500X0.0750*%
%ADD23R,0.0512X0.0591*%
%ADD24R,0.1004X0.0984*%
%ADD25R,0.0394X0.0551*%
%ADD26C,0.0660*%
%ADD27O,0.0560X0.1120*%
%ADD28R,0.0260X0.0800*%
%ADD29C,0.0160*%
%ADD30C,0.0400*%
%ADD31C,0.0240*%
%ADD32C,0.0480*%
%ADD33C,0.1500*%
%ADD34C,0.0400*%
%ADD35C,0.0100*%
D10*
X006742Y005589D03*
X006742Y006259D03*
X014242Y006259D03*
X014242Y005589D03*
X022242Y005589D03*
X022242Y006259D03*
X029742Y006259D03*
X029742Y005589D03*
X037742Y005589D03*
X037742Y006259D03*
X045242Y006259D03*
X045242Y005589D03*
X053242Y005589D03*
X053242Y006259D03*
X060742Y006259D03*
X060742Y005589D03*
X056342Y028889D03*
X056342Y029559D03*
X048842Y029559D03*
X048842Y028889D03*
X040842Y028889D03*
X040842Y029559D03*
X033342Y029559D03*
X033342Y028889D03*
X025342Y028889D03*
X025342Y029559D03*
X017842Y029559D03*
X017842Y028889D03*
X009842Y028889D03*
X009842Y029559D03*
X002342Y029559D03*
X002342Y028889D03*
D11*
X006071Y025524D03*
X007213Y025524D03*
X015771Y014424D03*
X016913Y014424D03*
X049771Y024824D03*
X050913Y024824D03*
X051213Y014324D03*
X050071Y014324D03*
D12*
X051042Y003974D03*
X048842Y003974D03*
X045242Y003974D03*
X043042Y003974D03*
X040842Y003974D03*
X037742Y003974D03*
X035542Y003974D03*
X033342Y003974D03*
X029742Y003974D03*
X027542Y003974D03*
X025342Y003974D03*
X022242Y003974D03*
X020042Y003974D03*
X017842Y003974D03*
X014242Y003974D03*
X012042Y003974D03*
X009842Y003974D03*
X006742Y003974D03*
X004542Y003974D03*
X002342Y003974D03*
X002342Y031174D03*
X004542Y031174D03*
X006742Y031174D03*
X009842Y031174D03*
X012042Y031174D03*
X014242Y031174D03*
X017842Y031174D03*
X020042Y031174D03*
X022242Y031174D03*
X025342Y031174D03*
X027542Y031174D03*
X029742Y031174D03*
X033342Y031174D03*
X035542Y031174D03*
X037742Y031174D03*
X040842Y031174D03*
X043042Y031174D03*
X045242Y031174D03*
X048842Y031174D03*
X051042Y031174D03*
X053242Y031174D03*
X056342Y031174D03*
X058542Y031174D03*
X060742Y031174D03*
X060742Y003974D03*
X058542Y003974D03*
X056342Y003974D03*
X053242Y003974D03*
D13*
X051042Y005324D03*
X048842Y005324D03*
X043042Y005324D03*
X040842Y005324D03*
X035542Y005324D03*
X033342Y005324D03*
X027542Y005324D03*
X025342Y005324D03*
X020042Y005324D03*
X017842Y005324D03*
X012042Y005324D03*
X009842Y005324D03*
X004542Y005324D03*
X002342Y005324D03*
X004542Y029824D03*
X006742Y029824D03*
X012042Y029824D03*
X014242Y029824D03*
X020042Y029824D03*
X022242Y029824D03*
X027542Y029824D03*
X029742Y029824D03*
X035542Y029824D03*
X037742Y029824D03*
X043042Y029824D03*
X045242Y029824D03*
X051042Y029824D03*
X053242Y029824D03*
X058542Y029824D03*
X060742Y029824D03*
X058542Y005324D03*
X056342Y005324D03*
D14*
X048542Y009324D03*
X048542Y012824D03*
X048542Y016324D03*
X048542Y019824D03*
X048542Y023324D03*
X048542Y026824D03*
X019542Y017424D03*
X014042Y015824D03*
X014042Y019324D03*
X014042Y022824D03*
X014042Y026324D03*
X014042Y012324D03*
X014042Y008824D03*
D15*
X013042Y008824D03*
X013042Y012324D03*
X013042Y015824D03*
X018542Y017424D03*
X013042Y019324D03*
X013042Y022824D03*
X013042Y026324D03*
X047542Y026824D03*
X047542Y023324D03*
X047542Y019824D03*
X047542Y016324D03*
X047542Y012824D03*
X047542Y009324D03*
D16*
X035442Y027224D03*
X029442Y027224D03*
D17*
X045542Y017224D03*
X045542Y011224D03*
X062142Y012824D03*
X063942Y012824D03*
X063942Y018824D03*
X062142Y018824D03*
X011042Y017924D03*
X003042Y017524D03*
X002042Y017524D03*
X002042Y016524D03*
X003042Y016524D03*
X003042Y015524D03*
X002042Y015524D03*
X002042Y014524D03*
X003042Y014524D03*
X003042Y018524D03*
X002042Y018524D03*
X002042Y019524D03*
X003042Y019524D03*
X003042Y020524D03*
X002042Y020524D03*
X002042Y021524D03*
X003042Y021524D03*
X003042Y022524D03*
X002042Y022524D03*
X002042Y023524D03*
X003042Y023524D03*
X011042Y011924D03*
D18*
X011042Y010824D03*
X011042Y008824D03*
X045542Y008324D03*
X045542Y010324D03*
D19*
X009592Y013207D03*
X009092Y013207D03*
X008592Y013207D03*
X008092Y013207D03*
X007592Y013207D03*
X007092Y013207D03*
X006592Y013207D03*
X006092Y013207D03*
X006092Y015841D03*
X006592Y015841D03*
X007092Y015841D03*
X007592Y015841D03*
X008092Y015841D03*
X008592Y015841D03*
X009092Y015841D03*
X009592Y015841D03*
D20*
X017024Y020543D03*
X018008Y020543D03*
X018992Y020543D03*
X019977Y020543D03*
X020961Y020543D03*
X032624Y020543D03*
X033608Y020543D03*
X034592Y020543D03*
X035577Y020543D03*
X036561Y020543D03*
X054861Y020389D03*
X054861Y021374D03*
X054861Y022358D03*
X054861Y023342D03*
X054861Y019405D03*
D21*
X057223Y020980D03*
X057223Y013500D03*
X042466Y022905D03*
X034986Y022905D03*
X026866Y022905D03*
X019386Y022905D03*
D22*
X028542Y014624D03*
X028542Y012624D03*
X036542Y013624D03*
X036542Y009624D03*
X036542Y017624D03*
X063142Y007624D03*
X063142Y006124D03*
X063142Y004624D03*
X063142Y003124D03*
X063142Y001624D03*
D23*
X007577Y008524D03*
X006907Y008524D03*
X004977Y008524D03*
X004307Y008524D03*
X002577Y008524D03*
X001907Y008524D03*
X001907Y009924D03*
X002577Y009924D03*
X004307Y009924D03*
X004977Y009924D03*
X006907Y010024D03*
X007577Y010024D03*
D24*
X017148Y008524D03*
X019136Y008524D03*
X018148Y014424D03*
X020136Y014424D03*
X009136Y019524D03*
X007148Y019524D03*
X008348Y025524D03*
X010336Y025524D03*
X039548Y020324D03*
X041536Y020324D03*
X043048Y020324D03*
X045036Y020324D03*
X050948Y018524D03*
X052936Y018524D03*
X052348Y014324D03*
X054336Y014324D03*
X053336Y008224D03*
X051348Y008224D03*
X052048Y024824D03*
X054036Y024824D03*
D25*
X060368Y032891D03*
X061116Y032891D03*
X060742Y033757D03*
X030116Y032891D03*
X029368Y032891D03*
X029742Y033757D03*
X029816Y002257D03*
X029068Y002257D03*
X029442Y001391D03*
X060068Y002257D03*
X060816Y002257D03*
X060442Y001391D03*
D26*
X062142Y020724D03*
X063942Y020724D03*
X063942Y024724D03*
X063942Y025924D03*
X062142Y025924D03*
X062142Y024724D03*
X062142Y029924D03*
X063942Y029924D03*
D27*
X061742Y010674D03*
X063742Y009974D03*
D28*
X053842Y010014D03*
X053342Y010014D03*
X052842Y010014D03*
X052342Y010014D03*
X051842Y010014D03*
X051342Y010014D03*
X050842Y010014D03*
X050842Y012434D03*
X051342Y012434D03*
X051842Y012434D03*
X052342Y012434D03*
X052842Y012434D03*
X053342Y012434D03*
X053842Y012434D03*
X053542Y020414D03*
X053042Y020414D03*
X052542Y020414D03*
X052042Y020414D03*
X051542Y020414D03*
X051042Y020414D03*
X050542Y020414D03*
X050542Y022834D03*
X051042Y022834D03*
X051542Y022834D03*
X052042Y022834D03*
X052542Y022834D03*
X053042Y022834D03*
X053542Y022834D03*
X019742Y012634D03*
X019242Y012634D03*
X018742Y012634D03*
X018242Y012634D03*
X017742Y012634D03*
X017242Y012634D03*
X016742Y012634D03*
X016742Y010214D03*
X017242Y010214D03*
X017742Y010214D03*
X018242Y010214D03*
X018742Y010214D03*
X019242Y010214D03*
X019742Y010214D03*
X009542Y021214D03*
X009042Y021214D03*
X008542Y021214D03*
X008042Y021214D03*
X007542Y021214D03*
X007042Y021214D03*
X006542Y021214D03*
X006542Y023634D03*
X007042Y023634D03*
X007542Y023634D03*
X008042Y023634D03*
X008542Y023634D03*
X009042Y023634D03*
X009542Y023634D03*
D29*
X009842Y023124D02*
X009842Y024224D01*
X009742Y024224D01*
X009442Y024524D01*
X009442Y028524D01*
X009642Y028724D01*
X009842Y028889D01*
X009842Y029559D02*
X009842Y031174D01*
X012542Y026624D02*
X014642Y028724D01*
X017642Y028724D01*
X017842Y028889D01*
X018042Y028724D01*
X019642Y028724D01*
X019742Y028624D01*
X025142Y028624D01*
X025142Y028724D01*
X025342Y028889D01*
X025342Y029559D02*
X025342Y031174D01*
X017842Y031174D02*
X017842Y029559D01*
X012542Y026624D02*
X012542Y026424D01*
X010242Y024124D01*
X009842Y023124D02*
X009742Y023024D01*
X007442Y023024D01*
X007442Y023324D01*
X007542Y023634D01*
X007442Y023024D02*
X006342Y023024D01*
X006242Y023124D01*
X006242Y024224D01*
X006542Y024524D01*
X006542Y025924D01*
X005342Y025924D01*
X002542Y028724D01*
X002342Y028889D01*
X002342Y029559D02*
X002342Y031174D01*
X009242Y022224D02*
X009242Y021624D01*
X009142Y021524D01*
X009042Y021214D01*
X017742Y012634D02*
X017642Y012324D01*
X017542Y012224D01*
X017542Y011424D01*
X015842Y010624D02*
X014542Y009324D01*
X014542Y007424D01*
X014042Y006924D01*
X014042Y006424D01*
X014242Y006259D01*
X014242Y005589D02*
X014242Y003974D01*
X014042Y006924D02*
X010442Y006924D01*
X009242Y006424D02*
X006942Y006424D01*
X006742Y006259D01*
X006742Y005589D02*
X006742Y003974D01*
X019342Y009824D02*
X019242Y010214D01*
X019342Y009824D02*
X019342Y009424D01*
X020742Y008024D02*
X022042Y006724D01*
X022042Y006424D01*
X022242Y006259D01*
X022442Y006424D01*
X024942Y006424D01*
X025042Y006524D01*
X029542Y006524D01*
X029542Y006424D01*
X029742Y006259D01*
X029742Y005589D02*
X029742Y003974D01*
X022242Y003974D02*
X022242Y005589D01*
X037742Y005589D02*
X037742Y003974D01*
X037742Y006259D02*
X037942Y006424D01*
X040442Y006424D01*
X040542Y006524D01*
X045042Y006524D01*
X045042Y008424D01*
X046042Y009424D01*
X046042Y011424D01*
X051142Y011424D01*
X051642Y011924D01*
X051642Y012024D01*
X051742Y012124D01*
X051842Y012434D01*
X053342Y010014D02*
X053442Y009624D01*
X053442Y009124D01*
X054242Y009024D02*
X054242Y007224D01*
X053442Y006424D01*
X053242Y006259D01*
X053242Y005589D02*
X053242Y003974D01*
X059942Y006424D02*
X060542Y006424D01*
X060742Y006259D01*
X060742Y005589D02*
X060742Y003974D01*
X063142Y003124D02*
X063742Y003424D01*
X064242Y003924D01*
X064242Y010424D01*
X063442Y011224D01*
X063442Y024024D01*
X063842Y024424D01*
X063942Y024724D01*
X064442Y025224D02*
X064442Y021424D01*
X064042Y021024D01*
X063942Y020724D01*
X063942Y018824D01*
X054242Y022724D02*
X054242Y023724D01*
X054742Y024224D01*
X054742Y028624D01*
X052042Y028624D01*
X050442Y028724D02*
X049042Y028724D01*
X048842Y028889D01*
X048842Y029559D02*
X048842Y031174D01*
X054742Y028624D02*
X056142Y028624D01*
X056142Y028724D01*
X056342Y028889D01*
X056342Y029559D02*
X056342Y031174D01*
X063942Y029924D02*
X064042Y029624D01*
X064742Y028924D01*
X064742Y002924D01*
X063742Y001924D01*
X063142Y001624D01*
X045242Y003974D02*
X045242Y005589D01*
X045242Y006259D02*
X045042Y006424D01*
X045042Y006524D01*
X053042Y020414D02*
X053142Y020724D01*
X053242Y020824D01*
X053242Y021724D01*
X054242Y022724D01*
X051542Y022834D02*
X051442Y023224D01*
X051342Y023324D01*
X051342Y023524D01*
X049342Y023524D02*
X049042Y023524D01*
X047542Y025024D01*
X040642Y025024D01*
X040642Y026524D01*
X040642Y028724D01*
X040842Y028889D01*
X040842Y029559D02*
X040842Y031174D01*
X034342Y027924D02*
X034342Y026924D01*
X034742Y026524D01*
X040642Y026524D01*
X034342Y027924D02*
X033542Y028724D01*
X033342Y028889D01*
X033342Y029559D02*
X033342Y031174D01*
X063942Y025924D02*
X064042Y025624D01*
X064442Y025224D01*
D30*
X061442Y023924D03*
X052842Y024424D03*
X051342Y023524D03*
X051042Y024224D03*
X049342Y023524D03*
X049342Y022224D03*
X050542Y022124D03*
X049342Y021224D03*
X049442Y019924D03*
X052142Y021124D03*
X049542Y018024D03*
X049342Y017524D03*
X046542Y017524D03*
X044342Y018324D03*
X045042Y022424D03*
X041842Y025424D03*
X033242Y021824D03*
X031042Y019924D03*
X020542Y021824D03*
X016942Y019524D03*
X012242Y018324D03*
X010342Y018424D03*
X009142Y018724D03*
X008442Y018824D03*
X005342Y019024D03*
X004842Y019524D03*
X005742Y021424D03*
X006542Y021924D03*
X007042Y021924D03*
X009242Y022224D03*
X010542Y021824D03*
X010542Y021324D03*
X012242Y023524D03*
X010242Y024124D03*
X009842Y024724D03*
X007242Y024724D03*
X002542Y021924D03*
X004542Y016924D03*
X005742Y017024D03*
X005742Y016424D03*
X006042Y015124D03*
X006442Y014224D03*
X007242Y013924D03*
X007642Y014324D03*
X009242Y014324D03*
X010042Y014624D03*
X010542Y014624D03*
X012242Y013924D03*
X011842Y013224D03*
X011242Y013324D03*
X011942Y011824D03*
X012242Y010424D03*
X014842Y010924D03*
X015842Y010624D03*
X015042Y010424D03*
X015142Y011824D03*
X014842Y012224D03*
X017542Y011424D03*
X018342Y010924D03*
X019942Y009524D03*
X019342Y009424D03*
X020742Y008024D03*
X019942Y007624D03*
X025242Y011624D03*
X030542Y010224D03*
X031342Y010624D03*
X045942Y008724D03*
X046442Y009824D03*
X046442Y010524D03*
X046442Y011024D03*
X049342Y010524D03*
X049342Y009824D03*
X049342Y009324D03*
X050142Y009824D03*
X050942Y009324D03*
X050542Y008624D03*
X052342Y009324D03*
X053442Y009124D03*
X054242Y009024D03*
X053742Y010924D03*
X050042Y011824D03*
X059442Y009524D03*
X059942Y011424D03*
X059942Y006424D03*
X059942Y005424D03*
X052042Y028624D03*
X050442Y028724D03*
X014842Y025424D03*
X014842Y024224D03*
X014842Y022224D03*
X012242Y017024D03*
X011142Y016224D03*
X010742Y015924D03*
X009742Y016624D03*
X012242Y015824D03*
X014842Y016724D03*
X007742Y012624D03*
X004142Y012224D03*
X003842Y011824D03*
X004142Y013024D03*
X003642Y014224D03*
X004142Y014324D03*
X003842Y014724D03*
X003642Y015424D03*
X001342Y014024D03*
X002142Y013424D03*
X004542Y010524D03*
X010442Y006924D03*
X009242Y006424D03*
D31*
X006907Y008524D02*
X004977Y008524D01*
X004842Y008324D01*
X004842Y008024D01*
X003842Y008024D01*
X003842Y008324D01*
X002742Y008324D01*
X002577Y008524D01*
X002442Y008324D01*
X002442Y008124D01*
X002342Y008024D01*
X001442Y008024D01*
X001442Y010424D01*
X002442Y011424D01*
X004542Y011424D01*
X004542Y016924D01*
X005342Y017724D02*
X006192Y018574D01*
X006142Y018624D01*
X006142Y022324D01*
X007842Y022324D01*
X008292Y021874D01*
X009142Y022724D01*
X010542Y022724D01*
X010542Y023624D01*
X012642Y025724D01*
X013742Y025724D01*
X013742Y026224D01*
X014042Y026324D01*
X013642Y027124D02*
X025742Y027124D01*
X029442Y027224D02*
X029542Y027624D01*
X029542Y028824D01*
X029742Y029824D01*
X027542Y029824D02*
X027542Y031174D01*
X029842Y033624D02*
X029742Y033757D01*
X029842Y033624D02*
X032642Y033624D01*
X032642Y023824D01*
X037942Y023824D01*
X041042Y020724D01*
X041536Y020324D01*
X043048Y020324D01*
X043542Y020724D01*
X043542Y021224D01*
X049342Y021224D01*
X049742Y021024D02*
X049442Y020724D01*
X049442Y020624D01*
X049942Y020124D01*
X049942Y017824D01*
X052442Y017824D01*
X052442Y016624D01*
X050342Y014524D01*
X050071Y014324D01*
X049942Y014124D01*
X049942Y011824D01*
X050042Y011824D01*
X049942Y011824D02*
X047542Y011824D01*
X047242Y012124D01*
X047242Y012324D01*
X039742Y012324D01*
X037242Y009824D01*
X036542Y009624D01*
X035942Y013324D02*
X032342Y009724D01*
X032242Y009724D01*
X031342Y010624D01*
X032342Y009724D02*
X032342Y001624D01*
X029542Y001624D01*
X029442Y001391D01*
X020042Y005324D02*
X020342Y006224D01*
X020342Y013324D01*
X018242Y013324D01*
X018242Y012634D01*
X018242Y013324D02*
X018242Y014024D01*
X018148Y014424D01*
X017442Y014924D02*
X017142Y014624D01*
X016913Y014424D01*
X017142Y014224D01*
X017142Y013024D01*
X017242Y012634D01*
X018342Y010924D02*
X018342Y010524D01*
X018242Y010214D01*
X018142Y010224D01*
X017842Y010224D01*
X017742Y010214D01*
X018642Y009824D02*
X018742Y010214D01*
X019742Y010214D02*
X019742Y009524D01*
X019942Y009524D01*
X019742Y009524D02*
X019742Y009124D01*
X019542Y008924D01*
X019136Y008524D01*
X018642Y009724D02*
X017642Y008724D01*
X017148Y008524D01*
X017642Y008124D01*
X017642Y006324D01*
X017842Y005324D01*
X018642Y009724D02*
X018642Y009824D01*
X023342Y012824D02*
X027842Y012824D01*
X028542Y012624D01*
X028542Y014624D02*
X027842Y014824D01*
X025342Y017324D01*
X019842Y017324D01*
X019542Y017424D01*
X018842Y017324D02*
X018542Y017424D01*
X018842Y017324D02*
X023342Y012824D01*
X020136Y014424D02*
X019642Y014824D01*
X018942Y015524D01*
X017442Y015524D01*
X017442Y014924D01*
X016042Y014624D02*
X015771Y014424D01*
X015542Y014624D01*
X013442Y014624D01*
X012242Y015824D01*
X012242Y017024D02*
X014542Y017024D01*
X014542Y017124D01*
X016942Y019524D01*
X019642Y019924D02*
X019642Y020424D01*
X019977Y020543D01*
X020642Y020424D02*
X020642Y020324D01*
X017942Y017624D01*
X017942Y016524D01*
X016042Y014624D01*
X009592Y015841D02*
X009542Y015824D01*
X009142Y015824D01*
X009092Y015841D01*
X009042Y015824D01*
X008642Y015824D01*
X008592Y015841D01*
X008542Y015824D01*
X008142Y015824D01*
X008092Y015841D01*
X008042Y016124D01*
X008042Y021214D01*
X007942Y021224D01*
X007642Y021224D01*
X007542Y021214D01*
X008442Y021524D02*
X008542Y021214D01*
X008442Y021524D02*
X008442Y021724D01*
X008292Y021874D01*
X009542Y021214D02*
X009542Y019924D01*
X009136Y019524D01*
X008642Y019124D01*
X008442Y018924D01*
X008442Y018824D01*
X009742Y017524D01*
X009742Y016624D01*
X008092Y015841D02*
X008042Y015824D01*
X007642Y015824D01*
X007592Y015841D01*
X007542Y015824D01*
X007142Y015824D01*
X007092Y015841D01*
X007042Y015824D01*
X006642Y015824D01*
X006592Y015841D01*
X006542Y015824D01*
X006142Y015824D01*
X006092Y015841D01*
X006142Y016124D01*
X006142Y016624D01*
X005742Y017024D01*
X005342Y017724D02*
X005342Y011824D01*
X005442Y011724D01*
X005442Y009424D01*
X004942Y009424D01*
X004442Y008924D01*
X004442Y008724D01*
X004307Y008524D01*
X002577Y008524D02*
X002542Y008724D01*
X002542Y009724D01*
X002577Y009924D01*
X004942Y010124D02*
X004977Y009924D01*
X004942Y010124D02*
X004942Y019524D01*
X004842Y019524D01*
X004942Y019524D02*
X004942Y024424D01*
X005842Y025324D01*
X006071Y025524D01*
X007142Y025324D02*
X007213Y025524D01*
X007142Y025324D02*
X007142Y024724D01*
X007242Y024724D01*
X007142Y024724D02*
X007142Y024024D01*
X007042Y023634D01*
X008042Y023634D02*
X008042Y025124D01*
X008348Y025524D01*
X007942Y025924D01*
X006942Y026924D01*
X006942Y028824D01*
X006742Y029824D01*
X006742Y031174D01*
X014242Y031174D02*
X014242Y029824D01*
X020042Y029824D02*
X020042Y031174D01*
X010336Y025524D02*
X009842Y025124D01*
X009842Y024724D01*
X012842Y019924D02*
X019642Y019924D01*
X020642Y020424D02*
X020961Y020543D01*
X012842Y019924D02*
X012442Y019524D01*
X012442Y018524D01*
X012242Y018324D01*
X007148Y019524D02*
X006742Y019124D01*
X006192Y018574D01*
X002042Y019524D02*
X001542Y019024D01*
X001542Y017024D01*
X002042Y016524D01*
X007577Y010024D02*
X008642Y010024D01*
X031042Y019924D02*
X032642Y021524D01*
X032642Y021624D01*
X033442Y020824D01*
X033608Y020543D01*
X033742Y020224D01*
X033742Y016124D01*
X035942Y013924D01*
X036542Y013624D01*
X035942Y013324D01*
X043442Y013024D02*
X047342Y016924D01*
X051942Y016924D01*
X052442Y017824D02*
X052442Y018124D01*
X052936Y018524D01*
X053342Y018924D01*
X053442Y019024D01*
X053442Y019424D01*
X054542Y019424D01*
X054861Y019405D01*
X053442Y019424D02*
X053442Y020024D01*
X053542Y020414D01*
X052542Y020414D02*
X052442Y020024D01*
X052442Y019924D01*
X051442Y018924D01*
X050948Y018524D01*
X050542Y018924D01*
X050442Y019024D01*
X050442Y019424D01*
X049442Y019924D02*
X048742Y019224D01*
X040042Y019224D01*
X040042Y019924D01*
X039548Y020324D01*
X039142Y019924D01*
X037142Y017924D01*
X036542Y017624D01*
X035942Y017924D01*
X035942Y020024D01*
X035742Y020224D01*
X035577Y020543D01*
X036561Y020543D02*
X036842Y020724D01*
X038842Y020724D01*
X038842Y020924D01*
X038942Y021024D01*
X040242Y021024D01*
X040242Y020924D01*
X040742Y020424D01*
X040742Y019724D01*
X040842Y019624D01*
X044542Y019624D01*
X044542Y019924D01*
X045036Y020324D01*
X045442Y020724D01*
X049442Y020724D01*
X049742Y021024D02*
X049742Y024624D01*
X049771Y024824D01*
X050913Y024824D02*
X050942Y024624D01*
X050942Y024224D01*
X051042Y024224D01*
X050942Y024224D02*
X050942Y023224D01*
X051042Y022834D01*
X052042Y022834D02*
X052042Y024424D01*
X052048Y024824D01*
X051642Y025224D01*
X051242Y025624D01*
X051242Y028824D01*
X051042Y029824D01*
X054036Y024824D02*
X053542Y024424D01*
X052842Y024424D01*
X054861Y022358D02*
X055142Y022124D01*
X055442Y021824D01*
X055442Y021324D01*
X059542Y017224D01*
X059542Y009524D01*
X059442Y009524D01*
X059542Y009524D02*
X059542Y001624D01*
X060342Y001624D01*
X060442Y001391D01*
X063142Y004624D02*
X063142Y006124D01*
X062542Y006424D01*
X062142Y006824D01*
X062142Y007924D01*
X062742Y008524D01*
X062742Y023924D01*
X062242Y024424D01*
X062142Y024724D01*
X062142Y025924D01*
X062142Y029924D02*
X062042Y030224D01*
X062042Y033524D01*
X060842Y033524D01*
X060742Y033757D01*
X052142Y021124D02*
X052142Y020724D01*
X052042Y020414D01*
X051942Y020424D01*
X051642Y020424D01*
X051542Y020414D01*
X050642Y016424D02*
X049842Y015624D01*
X049742Y015624D01*
X049142Y016224D01*
X048842Y016224D01*
X048542Y016324D01*
X047542Y016324D02*
X047442Y016024D01*
X046242Y014824D01*
X046242Y014224D01*
X046842Y013624D01*
X046742Y014424D02*
X048242Y012924D01*
X048542Y012824D01*
X048642Y013124D01*
X049542Y014024D01*
X049542Y015024D01*
X049742Y015224D01*
X049742Y015624D01*
X051442Y014724D02*
X051442Y014524D01*
X051213Y014324D01*
X051242Y014124D01*
X051242Y012824D01*
X051342Y012434D01*
X052342Y012434D02*
X052442Y012124D01*
X052442Y011924D01*
X053042Y011324D01*
X058342Y011324D01*
X058342Y006324D01*
X058542Y005324D01*
X063142Y007624D02*
X063742Y007924D01*
X063742Y009974D01*
X053842Y010014D02*
X053842Y008724D01*
X053742Y008624D01*
X053336Y008224D01*
X052742Y009124D02*
X051842Y008224D01*
X051348Y008224D01*
X050942Y007824D01*
X049242Y006124D01*
X048842Y005324D01*
X052742Y009124D02*
X052742Y009624D01*
X052842Y010014D01*
X052342Y010014D02*
X052342Y009324D01*
X052342Y010014D02*
X052242Y010024D01*
X051942Y010024D01*
X051842Y010014D01*
X053742Y010324D02*
X053842Y010014D01*
X053742Y010324D02*
X053742Y010924D01*
X052342Y012434D02*
X052342Y013924D01*
X052348Y014324D01*
X051742Y015024D02*
X051442Y014724D01*
X051742Y015024D02*
X051742Y015424D01*
X053142Y015424D01*
X053842Y014724D01*
X054336Y014324D01*
X049342Y012524D02*
X049042Y012524D01*
X048742Y012224D01*
X047642Y012224D01*
X047642Y012524D01*
X047542Y012824D01*
X062142Y018824D02*
X062142Y020724D01*
X035442Y027224D02*
X035442Y028824D01*
X035542Y029824D01*
X032642Y023824D02*
X032642Y021624D01*
D32*
X025742Y027124D03*
X013642Y027124D03*
X043442Y013024D03*
X046842Y013624D03*
X046742Y014424D03*
X049342Y012524D03*
X050642Y016424D03*
X051942Y016924D03*
X050442Y019424D03*
X045542Y025824D03*
X008642Y010024D03*
D33*
X009842Y001824D02*
X002342Y001824D01*
X002342Y005324D01*
X009842Y005324D02*
X009842Y001824D01*
X020042Y001824D01*
X027542Y001824D01*
X027542Y005324D01*
X033342Y005324D02*
X033342Y003974D01*
X033342Y001824D01*
X054142Y001824D01*
X051042Y001824D01*
X051042Y003924D01*
X051042Y005324D01*
X051042Y003974D02*
X051042Y003924D01*
X054142Y001824D02*
X058542Y001824D01*
X058542Y003974D01*
X058542Y005324D01*
X040842Y005324D02*
X040842Y003974D01*
X040842Y001824D01*
X033342Y001824D01*
X020042Y001824D02*
X020042Y005324D01*
X037742Y029824D02*
X037742Y031174D01*
X037742Y033324D01*
X058542Y033324D01*
X051042Y033324D01*
X051042Y031174D01*
X051042Y029824D01*
X045242Y029824D02*
X045242Y029524D01*
X045242Y031174D01*
X045242Y033324D01*
X037742Y033324D01*
X027542Y033324D02*
X027542Y031174D01*
X027542Y033324D02*
X020042Y033324D01*
X014242Y033324D01*
X006742Y033324D01*
X006742Y031174D01*
X014242Y031174D02*
X014242Y033324D01*
X020042Y033324D02*
X020042Y031174D01*
X058542Y031174D02*
X058542Y029824D01*
X058542Y031174D02*
X058542Y033324D01*
D34*
X045542Y029024D02*
X045042Y029524D01*
X045242Y029524D01*
X045542Y029024D02*
X045542Y025824D01*
D35*
X041842Y025424D02*
X049942Y025424D01*
X050242Y025124D01*
X050242Y024524D01*
X050142Y024424D01*
X050142Y022024D01*
X050242Y021924D01*
X050242Y019824D01*
X050742Y019824D01*
X050942Y020024D01*
X051042Y020414D01*
X050542Y020414D02*
X050542Y022124D01*
X049342Y022224D02*
X045042Y022224D01*
X045042Y022424D01*
X044642Y018324D02*
X044342Y018324D01*
X044642Y018324D02*
X044942Y018024D01*
X049542Y018024D01*
X049342Y017524D02*
X046542Y017524D01*
X046442Y011024D02*
X049342Y011024D01*
X049742Y010624D01*
X049742Y009424D01*
X050542Y008624D01*
X050942Y009324D02*
X051242Y009624D01*
X051342Y010014D01*
X050842Y010014D02*
X050742Y009824D01*
X050142Y009824D01*
X049342Y009824D02*
X046442Y009824D01*
X046442Y010524D02*
X049342Y010524D01*
X049342Y009324D02*
X048742Y008724D01*
X045942Y008724D01*
X059942Y011424D02*
X060042Y011424D01*
X060042Y032424D01*
X060242Y032624D01*
X060368Y032891D01*
X061116Y032891D02*
X061242Y032624D01*
X061442Y032424D01*
X061442Y023924D01*
X060042Y011424D02*
X061342Y010124D01*
X061342Y002924D01*
X060942Y002524D01*
X060816Y002257D01*
X060068Y002257D02*
X059942Y002524D01*
X059942Y005424D01*
X034592Y020543D02*
X034342Y020724D01*
X033242Y021824D01*
X028442Y029224D02*
X020542Y021324D01*
X011642Y021324D01*
X011642Y017224D01*
X010742Y016324D01*
X010742Y015924D01*
X011142Y016224D02*
X011842Y016924D01*
X011842Y019324D01*
X013642Y021124D01*
X018842Y021124D01*
X018842Y020824D01*
X018992Y020543D01*
X020542Y021824D02*
X011842Y021824D01*
X011442Y021424D01*
X011442Y021324D01*
X010542Y021324D01*
X010542Y021824D02*
X011342Y021824D01*
X011742Y022224D01*
X014842Y022224D01*
X012742Y024024D02*
X012242Y023524D01*
X012742Y024024D02*
X012742Y024224D01*
X014842Y024224D01*
X012742Y024524D02*
X010142Y021924D01*
X010142Y018624D01*
X010342Y018424D01*
X010342Y014924D01*
X010042Y014624D01*
X010542Y014624D02*
X010542Y013524D01*
X011542Y012524D01*
X011542Y011424D01*
X015542Y011424D01*
X016242Y010724D01*
X016242Y009624D01*
X016942Y009624D01*
X017142Y009824D01*
X017242Y010214D01*
X016742Y010214D02*
X016642Y010524D01*
X016442Y010724D01*
X016442Y013424D01*
X012942Y013424D01*
X012442Y013924D01*
X012242Y013924D01*
X011842Y013224D02*
X013842Y013224D01*
X014842Y012224D01*
X015142Y011824D02*
X011942Y011824D01*
X011442Y011024D02*
X011042Y011424D01*
X009642Y011424D01*
X009642Y012924D01*
X009592Y013207D01*
X009642Y013424D01*
X009642Y015224D01*
X010142Y015724D01*
X010142Y017724D01*
X009142Y018724D01*
X005742Y019424D02*
X005342Y019024D01*
X005742Y019424D02*
X005742Y021424D01*
X006542Y021214D02*
X006542Y021924D01*
X007042Y021924D02*
X007042Y021214D01*
X003942Y022624D02*
X003042Y023524D01*
X003242Y023024D02*
X002242Y023024D01*
X002242Y023324D01*
X002042Y023524D01*
X003242Y023024D02*
X003742Y022524D01*
X003742Y016924D01*
X004042Y016624D01*
X004042Y014924D01*
X003842Y014724D01*
X004142Y014324D02*
X004242Y014424D01*
X004242Y016724D01*
X003942Y017024D01*
X003942Y022624D01*
X003542Y022024D02*
X003042Y022524D01*
X002042Y022524D02*
X001042Y021524D01*
X001042Y014324D01*
X001342Y014024D01*
X001742Y013924D02*
X001742Y014124D01*
X001242Y014624D01*
X001242Y019724D01*
X002042Y020524D01*
X002542Y021924D02*
X002542Y018024D01*
X003042Y017524D01*
X005642Y016324D02*
X005642Y011924D01*
X006742Y010824D01*
X006742Y010224D01*
X006907Y010024D01*
X007142Y009824D01*
X007142Y009124D01*
X007342Y008924D01*
X007342Y008724D01*
X007577Y008524D01*
X008342Y008424D02*
X010742Y006024D01*
X010742Y002924D01*
X018142Y002924D01*
X018542Y003324D01*
X018542Y006224D01*
X019942Y007624D01*
X015042Y010424D02*
X012242Y010424D01*
X011442Y010924D02*
X011442Y011024D01*
X011442Y010924D02*
X014842Y010924D01*
X011242Y013324D02*
X011242Y015324D01*
X012442Y016524D01*
X012442Y016724D01*
X014842Y016724D01*
X009242Y014324D02*
X009242Y014024D01*
X008642Y013424D01*
X008592Y013207D01*
X008092Y013207D02*
X008042Y012924D01*
X007742Y012624D01*
X007592Y013207D02*
X007642Y013424D01*
X007642Y014324D01*
X007242Y013924D02*
X007242Y013524D01*
X007142Y013424D01*
X007092Y013207D01*
X006592Y013207D02*
X006542Y013424D01*
X006442Y013524D01*
X006442Y014224D01*
X006042Y013424D02*
X006092Y013207D01*
X006042Y013424D02*
X006042Y015124D01*
X005642Y016324D02*
X005742Y016424D01*
X003642Y015424D02*
X003542Y015524D01*
X003542Y022024D01*
X012742Y024524D02*
X012742Y025424D01*
X014842Y025424D01*
X028442Y029224D02*
X028442Y033324D01*
X029742Y033324D01*
X029942Y033124D01*
X030116Y032891D01*
X029542Y032724D02*
X029368Y032891D01*
X029542Y032724D02*
X030542Y031724D01*
X030542Y010224D01*
X030542Y003124D01*
X029942Y002524D01*
X029816Y002257D01*
X029242Y002524D02*
X029068Y002257D01*
X029242Y002524D02*
X029642Y002924D01*
X030042Y002924D01*
X030342Y003224D01*
X030342Y006524D01*
X025242Y011624D01*
X009092Y013207D02*
X009042Y012924D01*
X009042Y009124D01*
X008342Y008424D01*
X007642Y007724D01*
X001142Y007724D01*
X001142Y013324D01*
X001742Y013924D01*
X002142Y014324D02*
X002142Y013424D01*
X002542Y013124D02*
X002542Y015024D01*
X002042Y015524D01*
X002042Y014524D02*
X002142Y014324D01*
X003042Y014524D02*
X003242Y014324D01*
X003242Y013124D01*
X004142Y012224D01*
X003842Y011824D02*
X002542Y013124D01*
X003642Y013524D02*
X003642Y014224D01*
X003642Y013524D02*
X004142Y013024D01*
X004542Y010524D02*
X004542Y010124D01*
X004307Y009924D01*
X004142Y010124D01*
X003042Y010124D01*
X003042Y010324D01*
X002942Y010424D01*
X002142Y010424D01*
X002142Y010124D01*
X001907Y009924D01*
X001942Y009724D01*
X001942Y008724D01*
X001907Y008524D01*
M02*
