G75*
G70*
%OFA0B0*%
%FSLAX24Y24*%
%IPPOS*%
%LPD*%
%AMOC8*
5,1,8,0,0,1.08239X$1,22.5*
%
%ADD10C,0.0000*%
%ADD11C,0.0030*%
%ADD12C,0.0040*%
%ADD13C,0.0060*%
%ADD14C,0.0050*%
%ADD15C,0.0020*%
%ADD16R,0.0300X0.2200*%
%ADD17R,0.0350X0.0500*%
%ADD18R,0.0320X0.0160*%
%ADD19C,0.0120*%
%ADD20C,0.0080*%
%ADD21R,0.0350X0.0350*%
%ADD22R,0.1000X0.0200*%
%ADD23R,0.0300X0.0750*%
D10*
X000542Y034524D02*
X000542Y000524D01*
X065242Y000524D01*
X065242Y034524D01*
X000542Y034524D01*
X004432Y029824D02*
X004437Y029824D01*
X004438Y029822D01*
X004438Y029819D01*
X004437Y029817D01*
X004432Y029817D01*
X004432Y029814D02*
X004432Y029824D01*
X004441Y029824D02*
X004447Y029824D01*
X004450Y029824D02*
X004455Y029824D01*
X004457Y029822D01*
X004457Y029819D01*
X004455Y029817D01*
X004450Y029817D01*
X004450Y029814D02*
X004450Y029824D01*
X004444Y029824D02*
X004444Y029814D01*
X004453Y029817D02*
X004457Y029814D01*
X004459Y029814D02*
X004466Y029814D01*
X004468Y029814D02*
X004468Y029824D01*
X004473Y029824D01*
X004475Y029822D01*
X004475Y029819D01*
X004473Y029817D01*
X004468Y029817D01*
X004462Y029814D02*
X004462Y029824D01*
X004459Y029821D01*
X004477Y029821D02*
X004481Y029824D01*
X004484Y029821D01*
X004484Y029814D01*
X004487Y029814D02*
X004492Y029814D01*
X004493Y029816D01*
X004493Y029822D01*
X004492Y029824D01*
X004487Y029824D01*
X004487Y029814D01*
X004484Y029819D02*
X004477Y029819D01*
X004477Y029821D02*
X004477Y029814D01*
X004496Y029814D02*
X004502Y029814D01*
X004499Y029814D02*
X004499Y029824D01*
X004496Y029821D01*
X004505Y029819D02*
X004512Y029819D01*
X004514Y029821D02*
X004517Y029824D01*
X004517Y029814D01*
X004514Y029814D02*
X004521Y029814D01*
X004523Y029816D02*
X004523Y029814D01*
X004523Y029816D02*
X004530Y029822D01*
X004530Y029824D01*
X004523Y029824D01*
X004532Y029824D02*
X004532Y029822D01*
X004536Y029819D01*
X004536Y029814D01*
X004536Y029819D02*
X004539Y029822D01*
X004539Y029824D01*
X006632Y029817D02*
X006637Y029817D01*
X006638Y029819D01*
X006638Y029822D01*
X006637Y029824D01*
X006632Y029824D01*
X006632Y029814D01*
X006644Y029814D02*
X006644Y029824D01*
X006641Y029824D02*
X006647Y029824D01*
X006650Y029824D02*
X006655Y029824D01*
X006657Y029822D01*
X006657Y029819D01*
X006655Y029817D01*
X006650Y029817D01*
X006650Y029814D02*
X006650Y029824D01*
X006653Y029817D02*
X006657Y029814D01*
X006659Y029814D02*
X006666Y029814D01*
X006668Y029814D02*
X006668Y029824D01*
X006673Y029824D01*
X006675Y029822D01*
X006675Y029819D01*
X006673Y029817D01*
X006668Y029817D01*
X006662Y029814D02*
X006662Y029824D01*
X006659Y029821D01*
X006677Y029821D02*
X006681Y029824D01*
X006684Y029821D01*
X006684Y029814D01*
X006687Y029814D02*
X006692Y029814D01*
X006693Y029816D01*
X006693Y029822D01*
X006692Y029824D01*
X006687Y029824D01*
X006687Y029814D01*
X006684Y029819D02*
X006677Y029819D01*
X006677Y029821D02*
X006677Y029814D01*
X006696Y029814D02*
X006702Y029814D01*
X006699Y029814D02*
X006699Y029824D01*
X006696Y029821D01*
X006705Y029819D02*
X006712Y029819D01*
X006714Y029821D02*
X006717Y029824D01*
X006717Y029814D01*
X006714Y029814D02*
X006721Y029814D01*
X006723Y029816D02*
X006723Y029814D01*
X006723Y029816D02*
X006730Y029822D01*
X006730Y029824D01*
X006723Y029824D01*
X006732Y029824D02*
X006732Y029822D01*
X006736Y029819D01*
X006736Y029814D01*
X006736Y029819D02*
X006739Y029822D01*
X006739Y029824D01*
X011932Y029817D02*
X011937Y029817D01*
X011938Y029819D01*
X011938Y029822D01*
X011937Y029824D01*
X011932Y029824D01*
X011932Y029814D01*
X011944Y029814D02*
X011944Y029824D01*
X011941Y029824D02*
X011947Y029824D01*
X011950Y029824D02*
X011955Y029824D01*
X011957Y029822D01*
X011957Y029819D01*
X011955Y029817D01*
X011950Y029817D01*
X011950Y029814D02*
X011950Y029824D01*
X011953Y029817D02*
X011957Y029814D01*
X011959Y029814D02*
X011966Y029814D01*
X011968Y029814D02*
X011968Y029824D01*
X011973Y029824D01*
X011975Y029822D01*
X011975Y029819D01*
X011973Y029817D01*
X011968Y029817D01*
X011962Y029814D02*
X011962Y029824D01*
X011959Y029821D01*
X011977Y029821D02*
X011981Y029824D01*
X011984Y029821D01*
X011984Y029814D01*
X011987Y029814D02*
X011992Y029814D01*
X011993Y029816D01*
X011993Y029822D01*
X011992Y029824D01*
X011987Y029824D01*
X011987Y029814D01*
X011984Y029819D02*
X011977Y029819D01*
X011977Y029821D02*
X011977Y029814D01*
X011996Y029814D02*
X012002Y029814D01*
X011999Y029814D02*
X011999Y029824D01*
X011996Y029821D01*
X012005Y029819D02*
X012012Y029819D01*
X012014Y029821D02*
X012017Y029824D01*
X012017Y029814D01*
X012014Y029814D02*
X012021Y029814D01*
X012023Y029816D02*
X012023Y029814D01*
X012023Y029816D02*
X012030Y029822D01*
X012030Y029824D01*
X012023Y029824D01*
X012032Y029824D02*
X012032Y029822D01*
X012036Y029819D01*
X012036Y029814D01*
X012036Y029819D02*
X012039Y029822D01*
X012039Y029824D01*
X014132Y029817D02*
X014137Y029817D01*
X014138Y029819D01*
X014138Y029822D01*
X014137Y029824D01*
X014132Y029824D01*
X014132Y029814D01*
X014144Y029814D02*
X014144Y029824D01*
X014141Y029824D02*
X014147Y029824D01*
X014150Y029824D02*
X014155Y029824D01*
X014157Y029822D01*
X014157Y029819D01*
X014155Y029817D01*
X014150Y029817D01*
X014150Y029814D02*
X014150Y029824D01*
X014153Y029817D02*
X014157Y029814D01*
X014159Y029814D02*
X014166Y029814D01*
X014168Y029814D02*
X014168Y029824D01*
X014173Y029824D01*
X014175Y029822D01*
X014175Y029819D01*
X014173Y029817D01*
X014168Y029817D01*
X014162Y029814D02*
X014162Y029824D01*
X014159Y029821D01*
X014177Y029821D02*
X014181Y029824D01*
X014184Y029821D01*
X014184Y029814D01*
X014187Y029814D02*
X014192Y029814D01*
X014193Y029816D01*
X014193Y029822D01*
X014192Y029824D01*
X014187Y029824D01*
X014187Y029814D01*
X014184Y029819D02*
X014177Y029819D01*
X014177Y029821D02*
X014177Y029814D01*
X014196Y029814D02*
X014202Y029814D01*
X014199Y029814D02*
X014199Y029824D01*
X014196Y029821D01*
X014205Y029819D02*
X014212Y029819D01*
X014214Y029821D02*
X014217Y029824D01*
X014217Y029814D01*
X014214Y029814D02*
X014221Y029814D01*
X014223Y029816D02*
X014223Y029814D01*
X014223Y029816D02*
X014230Y029822D01*
X014230Y029824D01*
X014223Y029824D01*
X014232Y029824D02*
X014232Y029822D01*
X014236Y029819D01*
X014236Y029814D01*
X014236Y029819D02*
X014239Y029822D01*
X014239Y029824D01*
X019932Y029817D02*
X019937Y029817D01*
X019938Y029819D01*
X019938Y029822D01*
X019937Y029824D01*
X019932Y029824D01*
X019932Y029814D01*
X019944Y029814D02*
X019944Y029824D01*
X019941Y029824D02*
X019947Y029824D01*
X019950Y029824D02*
X019955Y029824D01*
X019957Y029822D01*
X019957Y029819D01*
X019955Y029817D01*
X019950Y029817D01*
X019950Y029814D02*
X019950Y029824D01*
X019953Y029817D02*
X019957Y029814D01*
X019959Y029814D02*
X019966Y029814D01*
X019968Y029814D02*
X019968Y029824D01*
X019973Y029824D01*
X019975Y029822D01*
X019975Y029819D01*
X019973Y029817D01*
X019968Y029817D01*
X019962Y029814D02*
X019962Y029824D01*
X019959Y029821D01*
X019977Y029821D02*
X019981Y029824D01*
X019984Y029821D01*
X019984Y029814D01*
X019987Y029814D02*
X019992Y029814D01*
X019993Y029816D01*
X019993Y029822D01*
X019992Y029824D01*
X019987Y029824D01*
X019987Y029814D01*
X019984Y029819D02*
X019977Y029819D01*
X019977Y029821D02*
X019977Y029814D01*
X019996Y029814D02*
X020002Y029814D01*
X019999Y029814D02*
X019999Y029824D01*
X019996Y029821D01*
X020005Y029819D02*
X020012Y029819D01*
X020014Y029821D02*
X020017Y029824D01*
X020017Y029814D01*
X020014Y029814D02*
X020021Y029814D01*
X020023Y029816D02*
X020023Y029814D01*
X020023Y029816D02*
X020030Y029822D01*
X020030Y029824D01*
X020023Y029824D01*
X020032Y029824D02*
X020032Y029822D01*
X020036Y029819D01*
X020036Y029814D01*
X020036Y029819D02*
X020039Y029822D01*
X020039Y029824D01*
X022132Y029817D02*
X022137Y029817D01*
X022138Y029819D01*
X022138Y029822D01*
X022137Y029824D01*
X022132Y029824D01*
X022132Y029814D01*
X022144Y029814D02*
X022144Y029824D01*
X022141Y029824D02*
X022147Y029824D01*
X022150Y029824D02*
X022155Y029824D01*
X022157Y029822D01*
X022157Y029819D01*
X022155Y029817D01*
X022150Y029817D01*
X022150Y029814D02*
X022150Y029824D01*
X022153Y029817D02*
X022157Y029814D01*
X022159Y029814D02*
X022166Y029814D01*
X022168Y029814D02*
X022168Y029824D01*
X022173Y029824D01*
X022175Y029822D01*
X022175Y029819D01*
X022173Y029817D01*
X022168Y029817D01*
X022162Y029814D02*
X022162Y029824D01*
X022159Y029821D01*
X022177Y029821D02*
X022181Y029824D01*
X022184Y029821D01*
X022184Y029814D01*
X022187Y029814D02*
X022192Y029814D01*
X022193Y029816D01*
X022193Y029822D01*
X022192Y029824D01*
X022187Y029824D01*
X022187Y029814D01*
X022184Y029819D02*
X022177Y029819D01*
X022177Y029821D02*
X022177Y029814D01*
X022196Y029814D02*
X022202Y029814D01*
X022199Y029814D02*
X022199Y029824D01*
X022196Y029821D01*
X022205Y029819D02*
X022212Y029819D01*
X022214Y029821D02*
X022217Y029824D01*
X022217Y029814D01*
X022214Y029814D02*
X022221Y029814D01*
X022223Y029816D02*
X022223Y029814D01*
X022223Y029816D02*
X022230Y029822D01*
X022230Y029824D01*
X022223Y029824D01*
X022232Y029824D02*
X022232Y029822D01*
X022236Y029819D01*
X022236Y029814D01*
X022236Y029819D02*
X022239Y029822D01*
X022239Y029824D01*
X027432Y029817D02*
X027437Y029817D01*
X027438Y029819D01*
X027438Y029822D01*
X027437Y029824D01*
X027432Y029824D01*
X027432Y029814D01*
X027444Y029814D02*
X027444Y029824D01*
X027441Y029824D02*
X027447Y029824D01*
X027450Y029824D02*
X027455Y029824D01*
X027457Y029822D01*
X027457Y029819D01*
X027455Y029817D01*
X027450Y029817D01*
X027450Y029814D02*
X027450Y029824D01*
X027453Y029817D02*
X027457Y029814D01*
X027459Y029814D02*
X027466Y029814D01*
X027468Y029814D02*
X027468Y029824D01*
X027473Y029824D01*
X027475Y029822D01*
X027475Y029819D01*
X027473Y029817D01*
X027468Y029817D01*
X027462Y029814D02*
X027462Y029824D01*
X027459Y029821D01*
X027477Y029821D02*
X027481Y029824D01*
X027484Y029821D01*
X027484Y029814D01*
X027487Y029814D02*
X027492Y029814D01*
X027493Y029816D01*
X027493Y029822D01*
X027492Y029824D01*
X027487Y029824D01*
X027487Y029814D01*
X027484Y029819D02*
X027477Y029819D01*
X027477Y029821D02*
X027477Y029814D01*
X027496Y029814D02*
X027502Y029814D01*
X027499Y029814D02*
X027499Y029824D01*
X027496Y029821D01*
X027505Y029819D02*
X027512Y029819D01*
X027514Y029821D02*
X027517Y029824D01*
X027517Y029814D01*
X027514Y029814D02*
X027521Y029814D01*
X027523Y029816D02*
X027523Y029814D01*
X027523Y029816D02*
X027530Y029822D01*
X027530Y029824D01*
X027523Y029824D01*
X027532Y029824D02*
X027532Y029822D01*
X027536Y029819D01*
X027536Y029814D01*
X027536Y029819D02*
X027539Y029822D01*
X027539Y029824D01*
X029632Y029817D02*
X029637Y029817D01*
X029638Y029819D01*
X029638Y029822D01*
X029637Y029824D01*
X029632Y029824D01*
X029632Y029814D01*
X029644Y029814D02*
X029644Y029824D01*
X029641Y029824D02*
X029647Y029824D01*
X029650Y029824D02*
X029655Y029824D01*
X029657Y029822D01*
X029657Y029819D01*
X029655Y029817D01*
X029650Y029817D01*
X029650Y029814D02*
X029650Y029824D01*
X029653Y029817D02*
X029657Y029814D01*
X029659Y029814D02*
X029666Y029814D01*
X029668Y029814D02*
X029668Y029824D01*
X029673Y029824D01*
X029675Y029822D01*
X029675Y029819D01*
X029673Y029817D01*
X029668Y029817D01*
X029662Y029814D02*
X029662Y029824D01*
X029659Y029821D01*
X029677Y029821D02*
X029681Y029824D01*
X029684Y029821D01*
X029684Y029814D01*
X029687Y029814D02*
X029692Y029814D01*
X029693Y029816D01*
X029693Y029822D01*
X029692Y029824D01*
X029687Y029824D01*
X029687Y029814D01*
X029684Y029819D02*
X029677Y029819D01*
X029677Y029821D02*
X029677Y029814D01*
X029696Y029814D02*
X029702Y029814D01*
X029699Y029814D02*
X029699Y029824D01*
X029696Y029821D01*
X029705Y029819D02*
X029712Y029819D01*
X029714Y029821D02*
X029717Y029824D01*
X029717Y029814D01*
X029714Y029814D02*
X029721Y029814D01*
X029723Y029816D02*
X029723Y029814D01*
X029723Y029816D02*
X029730Y029822D01*
X029730Y029824D01*
X029723Y029824D01*
X029732Y029824D02*
X029732Y029822D01*
X029736Y029819D01*
X029736Y029814D01*
X029736Y029819D02*
X029739Y029822D01*
X029739Y029824D01*
X035432Y029817D02*
X035437Y029817D01*
X035438Y029819D01*
X035438Y029822D01*
X035437Y029824D01*
X035432Y029824D01*
X035432Y029814D01*
X035444Y029814D02*
X035444Y029824D01*
X035441Y029824D02*
X035447Y029824D01*
X035450Y029824D02*
X035455Y029824D01*
X035457Y029822D01*
X035457Y029819D01*
X035455Y029817D01*
X035450Y029817D01*
X035450Y029814D02*
X035450Y029824D01*
X035453Y029817D02*
X035457Y029814D01*
X035459Y029814D02*
X035466Y029814D01*
X035468Y029814D02*
X035468Y029824D01*
X035473Y029824D01*
X035475Y029822D01*
X035475Y029819D01*
X035473Y029817D01*
X035468Y029817D01*
X035462Y029814D02*
X035462Y029824D01*
X035459Y029821D01*
X035477Y029821D02*
X035481Y029824D01*
X035484Y029821D01*
X035484Y029814D01*
X035487Y029814D02*
X035492Y029814D01*
X035493Y029816D01*
X035493Y029822D01*
X035492Y029824D01*
X035487Y029824D01*
X035487Y029814D01*
X035484Y029819D02*
X035477Y029819D01*
X035477Y029821D02*
X035477Y029814D01*
X035496Y029814D02*
X035502Y029814D01*
X035499Y029814D02*
X035499Y029824D01*
X035496Y029821D01*
X035505Y029819D02*
X035512Y029819D01*
X035514Y029821D02*
X035517Y029824D01*
X035517Y029814D01*
X035514Y029814D02*
X035521Y029814D01*
X035523Y029816D02*
X035523Y029814D01*
X035523Y029816D02*
X035530Y029822D01*
X035530Y029824D01*
X035523Y029824D01*
X035532Y029824D02*
X035532Y029822D01*
X035536Y029819D01*
X035536Y029814D01*
X035536Y029819D02*
X035539Y029822D01*
X035539Y029824D01*
X037632Y029817D02*
X037637Y029817D01*
X037638Y029819D01*
X037638Y029822D01*
X037637Y029824D01*
X037632Y029824D01*
X037632Y029814D01*
X037644Y029814D02*
X037644Y029824D01*
X037641Y029824D02*
X037647Y029824D01*
X037650Y029824D02*
X037655Y029824D01*
X037657Y029822D01*
X037657Y029819D01*
X037655Y029817D01*
X037650Y029817D01*
X037650Y029814D02*
X037650Y029824D01*
X037653Y029817D02*
X037657Y029814D01*
X037659Y029814D02*
X037666Y029814D01*
X037668Y029814D02*
X037668Y029824D01*
X037673Y029824D01*
X037675Y029822D01*
X037675Y029819D01*
X037673Y029817D01*
X037668Y029817D01*
X037662Y029814D02*
X037662Y029824D01*
X037659Y029821D01*
X037677Y029821D02*
X037681Y029824D01*
X037684Y029821D01*
X037684Y029814D01*
X037687Y029814D02*
X037692Y029814D01*
X037693Y029816D01*
X037693Y029822D01*
X037692Y029824D01*
X037687Y029824D01*
X037687Y029814D01*
X037684Y029819D02*
X037677Y029819D01*
X037677Y029821D02*
X037677Y029814D01*
X037696Y029814D02*
X037702Y029814D01*
X037699Y029814D02*
X037699Y029824D01*
X037696Y029821D01*
X037705Y029819D02*
X037712Y029819D01*
X037714Y029821D02*
X037717Y029824D01*
X037717Y029814D01*
X037714Y029814D02*
X037721Y029814D01*
X037723Y029816D02*
X037723Y029814D01*
X037723Y029816D02*
X037730Y029822D01*
X037730Y029824D01*
X037723Y029824D01*
X037732Y029824D02*
X037732Y029822D01*
X037736Y029819D01*
X037736Y029814D01*
X037736Y029819D02*
X037739Y029822D01*
X037739Y029824D01*
X042932Y029817D02*
X042937Y029817D01*
X042938Y029819D01*
X042938Y029822D01*
X042937Y029824D01*
X042932Y029824D01*
X042932Y029814D01*
X042944Y029814D02*
X042944Y029824D01*
X042941Y029824D02*
X042947Y029824D01*
X042950Y029824D02*
X042955Y029824D01*
X042957Y029822D01*
X042957Y029819D01*
X042955Y029817D01*
X042950Y029817D01*
X042950Y029814D02*
X042950Y029824D01*
X042953Y029817D02*
X042957Y029814D01*
X042959Y029814D02*
X042966Y029814D01*
X042968Y029814D02*
X042968Y029824D01*
X042973Y029824D01*
X042975Y029822D01*
X042975Y029819D01*
X042973Y029817D01*
X042968Y029817D01*
X042962Y029814D02*
X042962Y029824D01*
X042959Y029821D01*
X042977Y029821D02*
X042981Y029824D01*
X042984Y029821D01*
X042984Y029814D01*
X042987Y029814D02*
X042992Y029814D01*
X042993Y029816D01*
X042993Y029822D01*
X042992Y029824D01*
X042987Y029824D01*
X042987Y029814D01*
X042984Y029819D02*
X042977Y029819D01*
X042977Y029821D02*
X042977Y029814D01*
X042996Y029814D02*
X043002Y029814D01*
X042999Y029814D02*
X042999Y029824D01*
X042996Y029821D01*
X043005Y029819D02*
X043012Y029819D01*
X043014Y029821D02*
X043017Y029824D01*
X043017Y029814D01*
X043014Y029814D02*
X043021Y029814D01*
X043023Y029816D02*
X043023Y029814D01*
X043023Y029816D02*
X043030Y029822D01*
X043030Y029824D01*
X043023Y029824D01*
X043032Y029824D02*
X043032Y029822D01*
X043036Y029819D01*
X043036Y029814D01*
X043036Y029819D02*
X043039Y029822D01*
X043039Y029824D01*
X045132Y029817D02*
X045137Y029817D01*
X045138Y029819D01*
X045138Y029822D01*
X045137Y029824D01*
X045132Y029824D01*
X045132Y029814D01*
X045144Y029814D02*
X045144Y029824D01*
X045141Y029824D02*
X045147Y029824D01*
X045150Y029824D02*
X045155Y029824D01*
X045157Y029822D01*
X045157Y029819D01*
X045155Y029817D01*
X045150Y029817D01*
X045150Y029814D02*
X045150Y029824D01*
X045153Y029817D02*
X045157Y029814D01*
X045159Y029814D02*
X045166Y029814D01*
X045168Y029814D02*
X045168Y029824D01*
X045173Y029824D01*
X045175Y029822D01*
X045175Y029819D01*
X045173Y029817D01*
X045168Y029817D01*
X045162Y029814D02*
X045162Y029824D01*
X045159Y029821D01*
X045177Y029821D02*
X045181Y029824D01*
X045184Y029821D01*
X045184Y029814D01*
X045187Y029814D02*
X045192Y029814D01*
X045193Y029816D01*
X045193Y029822D01*
X045192Y029824D01*
X045187Y029824D01*
X045187Y029814D01*
X045184Y029819D02*
X045177Y029819D01*
X045177Y029821D02*
X045177Y029814D01*
X045196Y029814D02*
X045202Y029814D01*
X045199Y029814D02*
X045199Y029824D01*
X045196Y029821D01*
X045205Y029819D02*
X045212Y029819D01*
X045214Y029821D02*
X045217Y029824D01*
X045217Y029814D01*
X045214Y029814D02*
X045221Y029814D01*
X045223Y029816D02*
X045223Y029814D01*
X045223Y029816D02*
X045230Y029822D01*
X045230Y029824D01*
X045223Y029824D01*
X045232Y029824D02*
X045232Y029822D01*
X045236Y029819D01*
X045236Y029814D01*
X045236Y029819D02*
X045239Y029822D01*
X045239Y029824D01*
X050932Y029817D02*
X050937Y029817D01*
X050938Y029819D01*
X050938Y029822D01*
X050937Y029824D01*
X050932Y029824D01*
X050932Y029814D01*
X050944Y029814D02*
X050944Y029824D01*
X050941Y029824D02*
X050947Y029824D01*
X050950Y029824D02*
X050955Y029824D01*
X050957Y029822D01*
X050957Y029819D01*
X050955Y029817D01*
X050950Y029817D01*
X050950Y029814D02*
X050950Y029824D01*
X050953Y029817D02*
X050957Y029814D01*
X050959Y029814D02*
X050966Y029814D01*
X050968Y029814D02*
X050968Y029824D01*
X050973Y029824D01*
X050975Y029822D01*
X050975Y029819D01*
X050973Y029817D01*
X050968Y029817D01*
X050962Y029814D02*
X050962Y029824D01*
X050959Y029821D01*
X050977Y029821D02*
X050981Y029824D01*
X050984Y029821D01*
X050984Y029814D01*
X050987Y029814D02*
X050992Y029814D01*
X050993Y029816D01*
X050993Y029822D01*
X050992Y029824D01*
X050987Y029824D01*
X050987Y029814D01*
X050984Y029819D02*
X050977Y029819D01*
X050977Y029821D02*
X050977Y029814D01*
X050996Y029814D02*
X051002Y029814D01*
X050999Y029814D02*
X050999Y029824D01*
X050996Y029821D01*
X051005Y029819D02*
X051012Y029819D01*
X051014Y029821D02*
X051017Y029824D01*
X051017Y029814D01*
X051014Y029814D02*
X051021Y029814D01*
X051023Y029816D02*
X051023Y029814D01*
X051023Y029816D02*
X051030Y029822D01*
X051030Y029824D01*
X051023Y029824D01*
X051032Y029824D02*
X051032Y029822D01*
X051036Y029819D01*
X051036Y029814D01*
X051036Y029819D02*
X051039Y029822D01*
X051039Y029824D01*
X053132Y029817D02*
X053137Y029817D01*
X053138Y029819D01*
X053138Y029822D01*
X053137Y029824D01*
X053132Y029824D01*
X053132Y029814D01*
X053144Y029814D02*
X053144Y029824D01*
X053141Y029824D02*
X053147Y029824D01*
X053150Y029824D02*
X053155Y029824D01*
X053157Y029822D01*
X053157Y029819D01*
X053155Y029817D01*
X053150Y029817D01*
X053150Y029814D02*
X053150Y029824D01*
X053153Y029817D02*
X053157Y029814D01*
X053159Y029814D02*
X053166Y029814D01*
X053168Y029814D02*
X053168Y029824D01*
X053173Y029824D01*
X053175Y029822D01*
X053175Y029819D01*
X053173Y029817D01*
X053168Y029817D01*
X053162Y029814D02*
X053162Y029824D01*
X053159Y029821D01*
X053177Y029821D02*
X053181Y029824D01*
X053184Y029821D01*
X053184Y029814D01*
X053187Y029814D02*
X053192Y029814D01*
X053193Y029816D01*
X053193Y029822D01*
X053192Y029824D01*
X053187Y029824D01*
X053187Y029814D01*
X053184Y029819D02*
X053177Y029819D01*
X053177Y029821D02*
X053177Y029814D01*
X053196Y029814D02*
X053202Y029814D01*
X053199Y029814D02*
X053199Y029824D01*
X053196Y029821D01*
X053205Y029819D02*
X053212Y029819D01*
X053214Y029821D02*
X053217Y029824D01*
X053217Y029814D01*
X053214Y029814D02*
X053221Y029814D01*
X053223Y029816D02*
X053223Y029814D01*
X053223Y029816D02*
X053230Y029822D01*
X053230Y029824D01*
X053223Y029824D01*
X053232Y029824D02*
X053232Y029822D01*
X053236Y029819D01*
X053236Y029814D01*
X053236Y029819D02*
X053239Y029822D01*
X053239Y029824D01*
X058432Y029817D02*
X058437Y029817D01*
X058438Y029819D01*
X058438Y029822D01*
X058437Y029824D01*
X058432Y029824D01*
X058432Y029814D01*
X058444Y029814D02*
X058444Y029824D01*
X058441Y029824D02*
X058447Y029824D01*
X058450Y029824D02*
X058455Y029824D01*
X058457Y029822D01*
X058457Y029819D01*
X058455Y029817D01*
X058450Y029817D01*
X058450Y029814D02*
X058450Y029824D01*
X058453Y029817D02*
X058457Y029814D01*
X058459Y029814D02*
X058466Y029814D01*
X058468Y029814D02*
X058468Y029824D01*
X058473Y029824D01*
X058475Y029822D01*
X058475Y029819D01*
X058473Y029817D01*
X058468Y029817D01*
X058462Y029814D02*
X058462Y029824D01*
X058459Y029821D01*
X058477Y029821D02*
X058481Y029824D01*
X058484Y029821D01*
X058484Y029814D01*
X058487Y029814D02*
X058492Y029814D01*
X058493Y029816D01*
X058493Y029822D01*
X058492Y029824D01*
X058487Y029824D01*
X058487Y029814D01*
X058484Y029819D02*
X058477Y029819D01*
X058477Y029821D02*
X058477Y029814D01*
X058496Y029814D02*
X058502Y029814D01*
X058499Y029814D02*
X058499Y029824D01*
X058496Y029821D01*
X058505Y029819D02*
X058512Y029819D01*
X058514Y029821D02*
X058517Y029824D01*
X058517Y029814D01*
X058514Y029814D02*
X058521Y029814D01*
X058523Y029816D02*
X058523Y029814D01*
X058523Y029816D02*
X058530Y029822D01*
X058530Y029824D01*
X058523Y029824D01*
X058532Y029824D02*
X058532Y029822D01*
X058536Y029819D01*
X058536Y029814D01*
X058536Y029819D02*
X058539Y029822D01*
X058539Y029824D01*
X060632Y029817D02*
X060637Y029817D01*
X060638Y029819D01*
X060638Y029822D01*
X060637Y029824D01*
X060632Y029824D01*
X060632Y029814D01*
X060644Y029814D02*
X060644Y029824D01*
X060641Y029824D02*
X060647Y029824D01*
X060650Y029824D02*
X060655Y029824D01*
X060657Y029822D01*
X060657Y029819D01*
X060655Y029817D01*
X060650Y029817D01*
X060650Y029814D02*
X060650Y029824D01*
X060653Y029817D02*
X060657Y029814D01*
X060659Y029814D02*
X060666Y029814D01*
X060668Y029814D02*
X060668Y029824D01*
X060673Y029824D01*
X060675Y029822D01*
X060675Y029819D01*
X060673Y029817D01*
X060668Y029817D01*
X060662Y029814D02*
X060662Y029824D01*
X060659Y029821D01*
X060677Y029821D02*
X060681Y029824D01*
X060684Y029821D01*
X060684Y029814D01*
X060687Y029814D02*
X060692Y029814D01*
X060693Y029816D01*
X060693Y029822D01*
X060692Y029824D01*
X060687Y029824D01*
X060687Y029814D01*
X060684Y029819D02*
X060677Y029819D01*
X060677Y029821D02*
X060677Y029814D01*
X060696Y029814D02*
X060702Y029814D01*
X060699Y029814D02*
X060699Y029824D01*
X060696Y029821D01*
X060705Y029819D02*
X060712Y029819D01*
X060714Y029821D02*
X060717Y029824D01*
X060717Y029814D01*
X060714Y029814D02*
X060721Y029814D01*
X060723Y029816D02*
X060723Y029814D01*
X060723Y029816D02*
X060730Y029822D01*
X060730Y029824D01*
X060723Y029824D01*
X060732Y029824D02*
X060732Y029822D01*
X060736Y029819D01*
X060736Y029814D01*
X060736Y029819D02*
X060739Y029822D01*
X060739Y029824D01*
X058650Y005334D02*
X058650Y005332D01*
X058646Y005329D01*
X058646Y005324D01*
X058646Y005329D02*
X058643Y005332D01*
X058643Y005334D01*
X058640Y005334D02*
X058640Y005332D01*
X058634Y005326D01*
X058634Y005324D01*
X058631Y005324D02*
X058625Y005324D01*
X058628Y005324D02*
X058628Y005334D01*
X058625Y005331D01*
X058622Y005329D02*
X058615Y005329D01*
X058613Y005324D02*
X058606Y005324D01*
X058604Y005326D02*
X058604Y005332D01*
X058602Y005334D01*
X058597Y005334D01*
X058597Y005324D01*
X058602Y005324D01*
X058604Y005326D01*
X058606Y005331D02*
X058610Y005334D01*
X058610Y005324D01*
X058595Y005324D02*
X058595Y005331D01*
X058591Y005334D01*
X058588Y005331D01*
X058588Y005324D01*
X058588Y005329D02*
X058595Y005329D01*
X058585Y005329D02*
X058584Y005327D01*
X058579Y005327D01*
X058579Y005324D02*
X058579Y005334D01*
X058584Y005334D01*
X058585Y005332D01*
X058585Y005329D01*
X058576Y005324D02*
X058570Y005324D01*
X058573Y005324D02*
X058573Y005334D01*
X058570Y005331D01*
X058567Y005332D02*
X058567Y005329D01*
X058565Y005327D01*
X058560Y005327D01*
X058560Y005324D02*
X058560Y005334D01*
X058565Y005334D01*
X058567Y005332D01*
X058564Y005327D02*
X058567Y005324D01*
X058555Y005324D02*
X058555Y005334D01*
X058558Y005334D02*
X058551Y005334D01*
X058549Y005332D02*
X058549Y005329D01*
X058547Y005327D01*
X058542Y005327D01*
X058542Y005324D02*
X058542Y005334D01*
X058547Y005334D01*
X058549Y005332D01*
X058634Y005334D02*
X058640Y005334D01*
X056450Y005332D02*
X056450Y005334D01*
X056450Y005332D02*
X056446Y005329D01*
X056446Y005324D01*
X056446Y005329D02*
X056443Y005332D01*
X056443Y005334D01*
X056440Y005334D02*
X056440Y005332D01*
X056434Y005326D01*
X056434Y005324D01*
X056431Y005324D02*
X056425Y005324D01*
X056428Y005324D02*
X056428Y005334D01*
X056425Y005331D01*
X056422Y005329D02*
X056415Y005329D01*
X056413Y005324D02*
X056406Y005324D01*
X056404Y005326D02*
X056404Y005332D01*
X056402Y005334D01*
X056397Y005334D01*
X056397Y005324D01*
X056402Y005324D01*
X056404Y005326D01*
X056406Y005331D02*
X056410Y005334D01*
X056410Y005324D01*
X056395Y005324D02*
X056395Y005331D01*
X056391Y005334D01*
X056388Y005331D01*
X056388Y005324D01*
X056388Y005329D02*
X056395Y005329D01*
X056385Y005329D02*
X056384Y005327D01*
X056379Y005327D01*
X056379Y005324D02*
X056379Y005334D01*
X056384Y005334D01*
X056385Y005332D01*
X056385Y005329D01*
X056376Y005324D02*
X056370Y005324D01*
X056373Y005324D02*
X056373Y005334D01*
X056370Y005331D01*
X056367Y005332D02*
X056367Y005329D01*
X056365Y005327D01*
X056360Y005327D01*
X056360Y005324D02*
X056360Y005334D01*
X056365Y005334D01*
X056367Y005332D01*
X056364Y005327D02*
X056367Y005324D01*
X056355Y005324D02*
X056355Y005334D01*
X056358Y005334D02*
X056351Y005334D01*
X056349Y005332D02*
X056349Y005329D01*
X056347Y005327D01*
X056342Y005327D01*
X056342Y005324D02*
X056342Y005334D01*
X056347Y005334D01*
X056349Y005332D01*
X056434Y005334D02*
X056440Y005334D01*
X051150Y005332D02*
X051150Y005334D01*
X051150Y005332D02*
X051146Y005329D01*
X051146Y005324D01*
X051146Y005329D02*
X051143Y005332D01*
X051143Y005334D01*
X051140Y005334D02*
X051140Y005332D01*
X051134Y005326D01*
X051134Y005324D01*
X051131Y005324D02*
X051125Y005324D01*
X051128Y005324D02*
X051128Y005334D01*
X051125Y005331D01*
X051122Y005329D02*
X051115Y005329D01*
X051113Y005324D02*
X051106Y005324D01*
X051104Y005326D02*
X051104Y005332D01*
X051102Y005334D01*
X051097Y005334D01*
X051097Y005324D01*
X051102Y005324D01*
X051104Y005326D01*
X051106Y005331D02*
X051110Y005334D01*
X051110Y005324D01*
X051095Y005324D02*
X051095Y005331D01*
X051091Y005334D01*
X051088Y005331D01*
X051088Y005324D01*
X051088Y005329D02*
X051095Y005329D01*
X051085Y005329D02*
X051084Y005327D01*
X051079Y005327D01*
X051079Y005324D02*
X051079Y005334D01*
X051084Y005334D01*
X051085Y005332D01*
X051085Y005329D01*
X051076Y005324D02*
X051070Y005324D01*
X051073Y005324D02*
X051073Y005334D01*
X051070Y005331D01*
X051067Y005332D02*
X051067Y005329D01*
X051065Y005327D01*
X051060Y005327D01*
X051060Y005324D02*
X051060Y005334D01*
X051065Y005334D01*
X051067Y005332D01*
X051064Y005327D02*
X051067Y005324D01*
X051055Y005324D02*
X051055Y005334D01*
X051058Y005334D02*
X051051Y005334D01*
X051049Y005332D02*
X051049Y005329D01*
X051047Y005327D01*
X051042Y005327D01*
X051042Y005324D02*
X051042Y005334D01*
X051047Y005334D01*
X051049Y005332D01*
X051134Y005334D02*
X051140Y005334D01*
X048950Y005332D02*
X048950Y005334D01*
X048950Y005332D02*
X048946Y005329D01*
X048946Y005324D01*
X048946Y005329D02*
X048943Y005332D01*
X048943Y005334D01*
X048940Y005334D02*
X048940Y005332D01*
X048934Y005326D01*
X048934Y005324D01*
X048931Y005324D02*
X048925Y005324D01*
X048928Y005324D02*
X048928Y005334D01*
X048925Y005331D01*
X048922Y005329D02*
X048915Y005329D01*
X048913Y005324D02*
X048906Y005324D01*
X048904Y005326D02*
X048904Y005332D01*
X048902Y005334D01*
X048897Y005334D01*
X048897Y005324D01*
X048902Y005324D01*
X048904Y005326D01*
X048906Y005331D02*
X048910Y005334D01*
X048910Y005324D01*
X048895Y005324D02*
X048895Y005331D01*
X048891Y005334D01*
X048888Y005331D01*
X048888Y005324D01*
X048888Y005329D02*
X048895Y005329D01*
X048885Y005329D02*
X048884Y005327D01*
X048879Y005327D01*
X048879Y005324D02*
X048879Y005334D01*
X048884Y005334D01*
X048885Y005332D01*
X048885Y005329D01*
X048876Y005324D02*
X048870Y005324D01*
X048873Y005324D02*
X048873Y005334D01*
X048870Y005331D01*
X048867Y005332D02*
X048867Y005329D01*
X048865Y005327D01*
X048860Y005327D01*
X048860Y005324D02*
X048860Y005334D01*
X048865Y005334D01*
X048867Y005332D01*
X048864Y005327D02*
X048867Y005324D01*
X048855Y005324D02*
X048855Y005334D01*
X048858Y005334D02*
X048851Y005334D01*
X048849Y005332D02*
X048849Y005329D01*
X048847Y005327D01*
X048842Y005327D01*
X048842Y005324D02*
X048842Y005334D01*
X048847Y005334D01*
X048849Y005332D01*
X048934Y005334D02*
X048940Y005334D01*
X043150Y005332D02*
X043150Y005334D01*
X043150Y005332D02*
X043146Y005329D01*
X043146Y005324D01*
X043146Y005329D02*
X043143Y005332D01*
X043143Y005334D01*
X043140Y005334D02*
X043140Y005332D01*
X043134Y005326D01*
X043134Y005324D01*
X043131Y005324D02*
X043125Y005324D01*
X043128Y005324D02*
X043128Y005334D01*
X043125Y005331D01*
X043122Y005329D02*
X043115Y005329D01*
X043113Y005324D02*
X043106Y005324D01*
X043104Y005326D02*
X043104Y005332D01*
X043102Y005334D01*
X043097Y005334D01*
X043097Y005324D01*
X043102Y005324D01*
X043104Y005326D01*
X043106Y005331D02*
X043110Y005334D01*
X043110Y005324D01*
X043095Y005324D02*
X043095Y005331D01*
X043091Y005334D01*
X043088Y005331D01*
X043088Y005324D01*
X043088Y005329D02*
X043095Y005329D01*
X043085Y005329D02*
X043084Y005327D01*
X043079Y005327D01*
X043079Y005324D02*
X043079Y005334D01*
X043084Y005334D01*
X043085Y005332D01*
X043085Y005329D01*
X043076Y005324D02*
X043070Y005324D01*
X043073Y005324D02*
X043073Y005334D01*
X043070Y005331D01*
X043067Y005332D02*
X043067Y005329D01*
X043065Y005327D01*
X043060Y005327D01*
X043060Y005324D02*
X043060Y005334D01*
X043065Y005334D01*
X043067Y005332D01*
X043064Y005327D02*
X043067Y005324D01*
X043055Y005324D02*
X043055Y005334D01*
X043058Y005334D02*
X043051Y005334D01*
X043049Y005332D02*
X043049Y005329D01*
X043047Y005327D01*
X043042Y005327D01*
X043042Y005324D02*
X043042Y005334D01*
X043047Y005334D01*
X043049Y005332D01*
X043134Y005334D02*
X043140Y005334D01*
X040950Y005332D02*
X040950Y005334D01*
X040950Y005332D02*
X040946Y005329D01*
X040946Y005324D01*
X040946Y005329D02*
X040943Y005332D01*
X040943Y005334D01*
X040940Y005334D02*
X040940Y005332D01*
X040934Y005326D01*
X040934Y005324D01*
X040931Y005324D02*
X040925Y005324D01*
X040928Y005324D02*
X040928Y005334D01*
X040925Y005331D01*
X040922Y005329D02*
X040915Y005329D01*
X040913Y005324D02*
X040906Y005324D01*
X040904Y005326D02*
X040904Y005332D01*
X040902Y005334D01*
X040897Y005334D01*
X040897Y005324D01*
X040902Y005324D01*
X040904Y005326D01*
X040906Y005331D02*
X040910Y005334D01*
X040910Y005324D01*
X040895Y005324D02*
X040895Y005331D01*
X040891Y005334D01*
X040888Y005331D01*
X040888Y005324D01*
X040888Y005329D02*
X040895Y005329D01*
X040885Y005329D02*
X040884Y005327D01*
X040879Y005327D01*
X040879Y005324D02*
X040879Y005334D01*
X040884Y005334D01*
X040885Y005332D01*
X040885Y005329D01*
X040876Y005324D02*
X040870Y005324D01*
X040873Y005324D02*
X040873Y005334D01*
X040870Y005331D01*
X040867Y005332D02*
X040867Y005329D01*
X040865Y005327D01*
X040860Y005327D01*
X040860Y005324D02*
X040860Y005334D01*
X040865Y005334D01*
X040867Y005332D01*
X040864Y005327D02*
X040867Y005324D01*
X040855Y005324D02*
X040855Y005334D01*
X040858Y005334D02*
X040851Y005334D01*
X040849Y005332D02*
X040849Y005329D01*
X040847Y005327D01*
X040842Y005327D01*
X040842Y005324D02*
X040842Y005334D01*
X040847Y005334D01*
X040849Y005332D01*
X040934Y005334D02*
X040940Y005334D01*
X035650Y005332D02*
X035650Y005334D01*
X035650Y005332D02*
X035646Y005329D01*
X035646Y005324D01*
X035646Y005329D02*
X035643Y005332D01*
X035643Y005334D01*
X035640Y005334D02*
X035640Y005332D01*
X035634Y005326D01*
X035634Y005324D01*
X035631Y005324D02*
X035625Y005324D01*
X035628Y005324D02*
X035628Y005334D01*
X035625Y005331D01*
X035622Y005329D02*
X035615Y005329D01*
X035613Y005324D02*
X035606Y005324D01*
X035604Y005326D02*
X035604Y005332D01*
X035602Y005334D01*
X035597Y005334D01*
X035597Y005324D01*
X035602Y005324D01*
X035604Y005326D01*
X035606Y005331D02*
X035610Y005334D01*
X035610Y005324D01*
X035595Y005324D02*
X035595Y005331D01*
X035591Y005334D01*
X035588Y005331D01*
X035588Y005324D01*
X035588Y005329D02*
X035595Y005329D01*
X035585Y005329D02*
X035584Y005327D01*
X035579Y005327D01*
X035579Y005324D02*
X035579Y005334D01*
X035584Y005334D01*
X035585Y005332D01*
X035585Y005329D01*
X035576Y005324D02*
X035570Y005324D01*
X035573Y005324D02*
X035573Y005334D01*
X035570Y005331D01*
X035567Y005332D02*
X035567Y005329D01*
X035565Y005327D01*
X035560Y005327D01*
X035560Y005324D02*
X035560Y005334D01*
X035565Y005334D01*
X035567Y005332D01*
X035564Y005327D02*
X035567Y005324D01*
X035555Y005324D02*
X035555Y005334D01*
X035558Y005334D02*
X035551Y005334D01*
X035549Y005332D02*
X035549Y005329D01*
X035547Y005327D01*
X035542Y005327D01*
X035542Y005324D02*
X035542Y005334D01*
X035547Y005334D01*
X035549Y005332D01*
X035634Y005334D02*
X035640Y005334D01*
X033450Y005332D02*
X033450Y005334D01*
X033450Y005332D02*
X033446Y005329D01*
X033446Y005324D01*
X033446Y005329D02*
X033443Y005332D01*
X033443Y005334D01*
X033440Y005334D02*
X033440Y005332D01*
X033434Y005326D01*
X033434Y005324D01*
X033431Y005324D02*
X033425Y005324D01*
X033428Y005324D02*
X033428Y005334D01*
X033425Y005331D01*
X033422Y005329D02*
X033415Y005329D01*
X033413Y005324D02*
X033406Y005324D01*
X033404Y005326D02*
X033404Y005332D01*
X033402Y005334D01*
X033397Y005334D01*
X033397Y005324D01*
X033402Y005324D01*
X033404Y005326D01*
X033406Y005331D02*
X033410Y005334D01*
X033410Y005324D01*
X033395Y005324D02*
X033395Y005331D01*
X033391Y005334D01*
X033388Y005331D01*
X033388Y005324D01*
X033388Y005329D02*
X033395Y005329D01*
X033385Y005329D02*
X033384Y005327D01*
X033379Y005327D01*
X033379Y005324D02*
X033379Y005334D01*
X033384Y005334D01*
X033385Y005332D01*
X033385Y005329D01*
X033376Y005324D02*
X033370Y005324D01*
X033373Y005324D02*
X033373Y005334D01*
X033370Y005331D01*
X033367Y005332D02*
X033367Y005329D01*
X033365Y005327D01*
X033360Y005327D01*
X033360Y005324D02*
X033360Y005334D01*
X033365Y005334D01*
X033367Y005332D01*
X033364Y005327D02*
X033367Y005324D01*
X033355Y005324D02*
X033355Y005334D01*
X033358Y005334D02*
X033351Y005334D01*
X033349Y005332D02*
X033349Y005329D01*
X033347Y005327D01*
X033342Y005327D01*
X033342Y005324D02*
X033342Y005334D01*
X033347Y005334D01*
X033349Y005332D01*
X033434Y005334D02*
X033440Y005334D01*
X027650Y005332D02*
X027650Y005334D01*
X027650Y005332D02*
X027646Y005329D01*
X027646Y005324D01*
X027646Y005329D02*
X027643Y005332D01*
X027643Y005334D01*
X027640Y005334D02*
X027640Y005332D01*
X027634Y005326D01*
X027634Y005324D01*
X027631Y005324D02*
X027625Y005324D01*
X027628Y005324D02*
X027628Y005334D01*
X027625Y005331D01*
X027622Y005329D02*
X027615Y005329D01*
X027613Y005324D02*
X027606Y005324D01*
X027604Y005326D02*
X027604Y005332D01*
X027602Y005334D01*
X027597Y005334D01*
X027597Y005324D01*
X027602Y005324D01*
X027604Y005326D01*
X027606Y005331D02*
X027610Y005334D01*
X027610Y005324D01*
X027595Y005324D02*
X027595Y005331D01*
X027591Y005334D01*
X027588Y005331D01*
X027588Y005324D01*
X027588Y005329D02*
X027595Y005329D01*
X027585Y005329D02*
X027584Y005327D01*
X027579Y005327D01*
X027579Y005324D02*
X027579Y005334D01*
X027584Y005334D01*
X027585Y005332D01*
X027585Y005329D01*
X027576Y005324D02*
X027570Y005324D01*
X027573Y005324D02*
X027573Y005334D01*
X027570Y005331D01*
X027567Y005332D02*
X027567Y005329D01*
X027565Y005327D01*
X027560Y005327D01*
X027560Y005324D02*
X027560Y005334D01*
X027565Y005334D01*
X027567Y005332D01*
X027564Y005327D02*
X027567Y005324D01*
X027555Y005324D02*
X027555Y005334D01*
X027558Y005334D02*
X027551Y005334D01*
X027549Y005332D02*
X027549Y005329D01*
X027547Y005327D01*
X027542Y005327D01*
X027542Y005324D02*
X027542Y005334D01*
X027547Y005334D01*
X027549Y005332D01*
X027634Y005334D02*
X027640Y005334D01*
X025450Y005332D02*
X025450Y005334D01*
X025450Y005332D02*
X025446Y005329D01*
X025446Y005324D01*
X025446Y005329D02*
X025443Y005332D01*
X025443Y005334D01*
X025440Y005334D02*
X025440Y005332D01*
X025434Y005326D01*
X025434Y005324D01*
X025431Y005324D02*
X025425Y005324D01*
X025428Y005324D02*
X025428Y005334D01*
X025425Y005331D01*
X025422Y005329D02*
X025415Y005329D01*
X025413Y005324D02*
X025406Y005324D01*
X025404Y005326D02*
X025404Y005332D01*
X025402Y005334D01*
X025397Y005334D01*
X025397Y005324D01*
X025402Y005324D01*
X025404Y005326D01*
X025406Y005331D02*
X025410Y005334D01*
X025410Y005324D01*
X025395Y005324D02*
X025395Y005331D01*
X025391Y005334D01*
X025388Y005331D01*
X025388Y005324D01*
X025388Y005329D02*
X025395Y005329D01*
X025385Y005329D02*
X025384Y005327D01*
X025379Y005327D01*
X025379Y005324D02*
X025379Y005334D01*
X025384Y005334D01*
X025385Y005332D01*
X025385Y005329D01*
X025376Y005324D02*
X025370Y005324D01*
X025373Y005324D02*
X025373Y005334D01*
X025370Y005331D01*
X025367Y005332D02*
X025367Y005329D01*
X025365Y005327D01*
X025360Y005327D01*
X025360Y005324D02*
X025360Y005334D01*
X025365Y005334D01*
X025367Y005332D01*
X025364Y005327D02*
X025367Y005324D01*
X025355Y005324D02*
X025355Y005334D01*
X025358Y005334D02*
X025351Y005334D01*
X025349Y005332D02*
X025349Y005329D01*
X025347Y005327D01*
X025342Y005327D01*
X025342Y005324D02*
X025342Y005334D01*
X025347Y005334D01*
X025349Y005332D01*
X025434Y005334D02*
X025440Y005334D01*
X020150Y005332D02*
X020150Y005334D01*
X020150Y005332D02*
X020146Y005329D01*
X020146Y005324D01*
X020146Y005329D02*
X020143Y005332D01*
X020143Y005334D01*
X020140Y005334D02*
X020140Y005332D01*
X020134Y005326D01*
X020134Y005324D01*
X020131Y005324D02*
X020125Y005324D01*
X020128Y005324D02*
X020128Y005334D01*
X020125Y005331D01*
X020122Y005329D02*
X020115Y005329D01*
X020113Y005324D02*
X020106Y005324D01*
X020104Y005326D02*
X020104Y005332D01*
X020102Y005334D01*
X020097Y005334D01*
X020097Y005324D01*
X020102Y005324D01*
X020104Y005326D01*
X020106Y005331D02*
X020110Y005334D01*
X020110Y005324D01*
X020095Y005324D02*
X020095Y005331D01*
X020091Y005334D01*
X020088Y005331D01*
X020088Y005324D01*
X020088Y005329D02*
X020095Y005329D01*
X020085Y005329D02*
X020084Y005327D01*
X020079Y005327D01*
X020079Y005324D02*
X020079Y005334D01*
X020084Y005334D01*
X020085Y005332D01*
X020085Y005329D01*
X020076Y005324D02*
X020070Y005324D01*
X020073Y005324D02*
X020073Y005334D01*
X020070Y005331D01*
X020067Y005332D02*
X020067Y005329D01*
X020065Y005327D01*
X020060Y005327D01*
X020060Y005324D02*
X020060Y005334D01*
X020065Y005334D01*
X020067Y005332D01*
X020064Y005327D02*
X020067Y005324D01*
X020055Y005324D02*
X020055Y005334D01*
X020058Y005334D02*
X020051Y005334D01*
X020049Y005332D02*
X020049Y005329D01*
X020047Y005327D01*
X020042Y005327D01*
X020042Y005324D02*
X020042Y005334D01*
X020047Y005334D01*
X020049Y005332D01*
X020134Y005334D02*
X020140Y005334D01*
X017950Y005332D02*
X017950Y005334D01*
X017950Y005332D02*
X017946Y005329D01*
X017946Y005324D01*
X017946Y005329D02*
X017943Y005332D01*
X017943Y005334D01*
X017940Y005334D02*
X017940Y005332D01*
X017934Y005326D01*
X017934Y005324D01*
X017931Y005324D02*
X017925Y005324D01*
X017928Y005324D02*
X017928Y005334D01*
X017925Y005331D01*
X017922Y005329D02*
X017915Y005329D01*
X017913Y005324D02*
X017906Y005324D01*
X017904Y005326D02*
X017904Y005332D01*
X017902Y005334D01*
X017897Y005334D01*
X017897Y005324D01*
X017902Y005324D01*
X017904Y005326D01*
X017906Y005331D02*
X017910Y005334D01*
X017910Y005324D01*
X017895Y005324D02*
X017895Y005331D01*
X017891Y005334D01*
X017888Y005331D01*
X017888Y005324D01*
X017888Y005329D02*
X017895Y005329D01*
X017885Y005329D02*
X017884Y005327D01*
X017879Y005327D01*
X017879Y005324D02*
X017879Y005334D01*
X017884Y005334D01*
X017885Y005332D01*
X017885Y005329D01*
X017876Y005324D02*
X017870Y005324D01*
X017873Y005324D02*
X017873Y005334D01*
X017870Y005331D01*
X017867Y005332D02*
X017867Y005329D01*
X017865Y005327D01*
X017860Y005327D01*
X017860Y005324D02*
X017860Y005334D01*
X017865Y005334D01*
X017867Y005332D01*
X017864Y005327D02*
X017867Y005324D01*
X017855Y005324D02*
X017855Y005334D01*
X017858Y005334D02*
X017851Y005334D01*
X017849Y005332D02*
X017849Y005329D01*
X017847Y005327D01*
X017842Y005327D01*
X017842Y005324D02*
X017842Y005334D01*
X017847Y005334D01*
X017849Y005332D01*
X017934Y005334D02*
X017940Y005334D01*
X012150Y005332D02*
X012150Y005334D01*
X012150Y005332D02*
X012146Y005329D01*
X012146Y005324D01*
X012146Y005329D02*
X012143Y005332D01*
X012143Y005334D01*
X012140Y005334D02*
X012140Y005332D01*
X012134Y005326D01*
X012134Y005324D01*
X012131Y005324D02*
X012125Y005324D01*
X012128Y005324D02*
X012128Y005334D01*
X012125Y005331D01*
X012122Y005329D02*
X012115Y005329D01*
X012113Y005324D02*
X012106Y005324D01*
X012104Y005326D02*
X012104Y005332D01*
X012102Y005334D01*
X012097Y005334D01*
X012097Y005324D01*
X012102Y005324D01*
X012104Y005326D01*
X012106Y005331D02*
X012110Y005334D01*
X012110Y005324D01*
X012095Y005324D02*
X012095Y005331D01*
X012091Y005334D01*
X012088Y005331D01*
X012088Y005324D01*
X012088Y005329D02*
X012095Y005329D01*
X012085Y005329D02*
X012084Y005327D01*
X012079Y005327D01*
X012079Y005324D02*
X012079Y005334D01*
X012084Y005334D01*
X012085Y005332D01*
X012085Y005329D01*
X012076Y005324D02*
X012070Y005324D01*
X012073Y005324D02*
X012073Y005334D01*
X012070Y005331D01*
X012067Y005332D02*
X012067Y005329D01*
X012065Y005327D01*
X012060Y005327D01*
X012060Y005324D02*
X012060Y005334D01*
X012065Y005334D01*
X012067Y005332D01*
X012064Y005327D02*
X012067Y005324D01*
X012055Y005324D02*
X012055Y005334D01*
X012058Y005334D02*
X012051Y005334D01*
X012049Y005332D02*
X012049Y005329D01*
X012047Y005327D01*
X012042Y005327D01*
X012042Y005324D02*
X012042Y005334D01*
X012047Y005334D01*
X012049Y005332D01*
X012134Y005334D02*
X012140Y005334D01*
X009950Y005332D02*
X009950Y005334D01*
X009950Y005332D02*
X009946Y005329D01*
X009946Y005324D01*
X009946Y005329D02*
X009943Y005332D01*
X009943Y005334D01*
X009940Y005334D02*
X009940Y005332D01*
X009934Y005326D01*
X009934Y005324D01*
X009931Y005324D02*
X009925Y005324D01*
X009928Y005324D02*
X009928Y005334D01*
X009925Y005331D01*
X009922Y005329D02*
X009915Y005329D01*
X009913Y005324D02*
X009906Y005324D01*
X009904Y005326D02*
X009904Y005332D01*
X009902Y005334D01*
X009897Y005334D01*
X009897Y005324D01*
X009902Y005324D01*
X009904Y005326D01*
X009906Y005331D02*
X009910Y005334D01*
X009910Y005324D01*
X009895Y005324D02*
X009895Y005331D01*
X009891Y005334D01*
X009888Y005331D01*
X009888Y005324D01*
X009888Y005329D02*
X009895Y005329D01*
X009885Y005329D02*
X009884Y005327D01*
X009879Y005327D01*
X009879Y005324D02*
X009879Y005334D01*
X009884Y005334D01*
X009885Y005332D01*
X009885Y005329D01*
X009876Y005324D02*
X009870Y005324D01*
X009873Y005324D02*
X009873Y005334D01*
X009870Y005331D01*
X009867Y005332D02*
X009867Y005329D01*
X009865Y005327D01*
X009860Y005327D01*
X009860Y005324D02*
X009860Y005334D01*
X009865Y005334D01*
X009867Y005332D01*
X009864Y005327D02*
X009867Y005324D01*
X009855Y005324D02*
X009855Y005334D01*
X009858Y005334D02*
X009851Y005334D01*
X009849Y005332D02*
X009849Y005329D01*
X009847Y005327D01*
X009842Y005327D01*
X009842Y005324D02*
X009842Y005334D01*
X009847Y005334D01*
X009849Y005332D01*
X009934Y005334D02*
X009940Y005334D01*
X004650Y005332D02*
X004650Y005334D01*
X004650Y005332D02*
X004646Y005329D01*
X004646Y005324D01*
X004646Y005329D02*
X004643Y005332D01*
X004643Y005334D01*
X004640Y005334D02*
X004640Y005332D01*
X004634Y005326D01*
X004634Y005324D01*
X004631Y005324D02*
X004625Y005324D01*
X004628Y005324D02*
X004628Y005334D01*
X004625Y005331D01*
X004622Y005329D02*
X004615Y005329D01*
X004613Y005324D02*
X004606Y005324D01*
X004604Y005326D02*
X004604Y005332D01*
X004602Y005334D01*
X004597Y005334D01*
X004597Y005324D01*
X004602Y005324D01*
X004604Y005326D01*
X004606Y005331D02*
X004610Y005334D01*
X004610Y005324D01*
X004595Y005324D02*
X004595Y005331D01*
X004591Y005334D01*
X004588Y005331D01*
X004588Y005324D01*
X004588Y005329D02*
X004595Y005329D01*
X004585Y005329D02*
X004584Y005327D01*
X004579Y005327D01*
X004579Y005324D02*
X004579Y005334D01*
X004584Y005334D01*
X004585Y005332D01*
X004585Y005329D01*
X004576Y005324D02*
X004570Y005324D01*
X004573Y005324D02*
X004573Y005334D01*
X004570Y005331D01*
X004567Y005332D02*
X004567Y005329D01*
X004565Y005327D01*
X004560Y005327D01*
X004560Y005324D02*
X004560Y005334D01*
X004565Y005334D01*
X004567Y005332D01*
X004564Y005327D02*
X004567Y005324D01*
X004555Y005324D02*
X004555Y005334D01*
X004558Y005334D02*
X004551Y005334D01*
X004549Y005332D02*
X004549Y005329D01*
X004547Y005327D01*
X004542Y005327D01*
X004542Y005324D02*
X004542Y005334D01*
X004547Y005334D01*
X004549Y005332D01*
X004634Y005334D02*
X004640Y005334D01*
X002450Y005332D02*
X002450Y005334D01*
X002450Y005332D02*
X002446Y005329D01*
X002446Y005324D01*
X002446Y005329D02*
X002443Y005332D01*
X002443Y005334D01*
X002440Y005334D02*
X002440Y005332D01*
X002434Y005326D01*
X002434Y005324D01*
X002431Y005324D02*
X002425Y005324D01*
X002428Y005324D02*
X002428Y005334D01*
X002425Y005331D01*
X002422Y005329D02*
X002415Y005329D01*
X002413Y005324D02*
X002406Y005324D01*
X002404Y005326D02*
X002404Y005332D01*
X002402Y005334D01*
X002397Y005334D01*
X002397Y005324D01*
X002402Y005324D01*
X002404Y005326D01*
X002406Y005331D02*
X002410Y005334D01*
X002410Y005324D01*
X002395Y005324D02*
X002395Y005331D01*
X002391Y005334D01*
X002388Y005331D01*
X002388Y005324D01*
X002388Y005329D02*
X002395Y005329D01*
X002385Y005329D02*
X002384Y005327D01*
X002379Y005327D01*
X002379Y005324D02*
X002379Y005334D01*
X002384Y005334D01*
X002385Y005332D01*
X002385Y005329D01*
X002376Y005324D02*
X002370Y005324D01*
X002373Y005324D02*
X002373Y005334D01*
X002370Y005331D01*
X002367Y005332D02*
X002367Y005329D01*
X002365Y005327D01*
X002360Y005327D01*
X002360Y005324D02*
X002360Y005334D01*
X002365Y005334D01*
X002367Y005332D01*
X002364Y005327D02*
X002367Y005324D01*
X002355Y005324D02*
X002355Y005334D01*
X002358Y005334D02*
X002351Y005334D01*
X002349Y005332D02*
X002349Y005329D01*
X002347Y005327D01*
X002342Y005327D01*
X002342Y005324D02*
X002342Y005334D01*
X002347Y005334D01*
X002349Y005332D01*
X002434Y005334D02*
X002440Y005334D01*
D11*
X006157Y005947D02*
X006447Y005947D01*
X006447Y006043D02*
X006447Y005850D01*
X006254Y005850D02*
X006157Y005947D01*
X006157Y006144D02*
X006302Y006144D01*
X006254Y006241D01*
X006254Y006290D01*
X006302Y006338D01*
X006399Y006338D01*
X006447Y006290D01*
X006447Y006193D01*
X006399Y006144D01*
X006157Y006144D02*
X006157Y006338D01*
X007107Y006338D02*
X007107Y006144D01*
X007252Y006144D01*
X007204Y006241D01*
X007204Y006290D01*
X007252Y006338D01*
X007349Y006338D01*
X007397Y006290D01*
X007397Y006193D01*
X007349Y006144D01*
X007349Y006043D02*
X007252Y006043D01*
X007252Y005947D01*
X007349Y006043D02*
X007397Y005995D01*
X007397Y005898D01*
X007349Y005850D01*
X007155Y005850D01*
X007107Y005898D01*
X007107Y005995D01*
X007155Y006043D01*
X007155Y005749D02*
X007252Y005749D01*
X007300Y005700D01*
X007300Y005555D01*
X007300Y005652D02*
X007397Y005749D01*
X007397Y005555D02*
X007107Y005555D01*
X007107Y005700D01*
X007155Y005749D01*
X007197Y007939D02*
X007100Y007939D01*
X007052Y007987D01*
X007245Y008181D01*
X007245Y007987D01*
X007197Y007939D01*
X007346Y007939D02*
X007346Y008229D01*
X007245Y008181D02*
X007197Y008229D01*
X007100Y008229D01*
X007052Y008181D01*
X007052Y007987D01*
X006951Y007939D02*
X006757Y007939D01*
X006854Y007939D02*
X006854Y008229D01*
X006757Y008133D01*
X007346Y008036D02*
X007491Y008133D01*
X007346Y008036D02*
X007491Y007939D01*
X007197Y008889D02*
X007245Y008937D01*
X007245Y008986D01*
X007197Y009034D01*
X007052Y009034D01*
X007052Y008937D01*
X007100Y008889D01*
X007197Y008889D01*
X007052Y009034D02*
X007148Y009131D01*
X007245Y009179D01*
X007197Y009439D02*
X007100Y009439D01*
X007052Y009487D01*
X007245Y009681D01*
X007245Y009487D01*
X007197Y009439D01*
X007346Y009439D02*
X007346Y009729D01*
X007245Y009681D02*
X007197Y009729D01*
X007100Y009729D01*
X007052Y009681D01*
X007052Y009487D01*
X006951Y009487D02*
X006951Y009681D01*
X006902Y009729D01*
X006805Y009729D01*
X006757Y009681D01*
X006757Y009633D01*
X006805Y009584D01*
X006951Y009584D01*
X006951Y009487D02*
X006902Y009439D01*
X006805Y009439D01*
X006757Y009487D01*
X006757Y009179D02*
X006902Y009179D01*
X006951Y009131D01*
X006951Y009034D01*
X006902Y008986D01*
X006757Y008986D01*
X006854Y008986D02*
X006951Y008889D01*
X006757Y008889D02*
X006757Y009179D01*
X007346Y009536D02*
X007491Y009633D01*
X007346Y009536D02*
X007491Y009439D01*
X007245Y010389D02*
X007052Y010389D01*
X007245Y010583D01*
X007245Y010631D01*
X007197Y010679D01*
X007100Y010679D01*
X007052Y010631D01*
X006951Y010631D02*
X006951Y010534D01*
X006902Y010486D01*
X006757Y010486D01*
X006854Y010486D02*
X006951Y010389D01*
X006757Y010389D02*
X006757Y010679D01*
X006902Y010679D01*
X006951Y010631D01*
X004645Y010579D02*
X004645Y010531D01*
X004452Y010337D01*
X004452Y010289D01*
X004351Y010289D02*
X004254Y010386D01*
X004302Y010386D02*
X004157Y010386D01*
X004157Y010289D02*
X004157Y010579D01*
X004302Y010579D01*
X004351Y010531D01*
X004351Y010434D01*
X004302Y010386D01*
X004452Y010579D02*
X004645Y010579D01*
X004452Y009629D02*
X004452Y009339D01*
X004452Y009436D02*
X004597Y009533D01*
X004452Y009436D02*
X004597Y009339D01*
X004548Y009179D02*
X004548Y008889D01*
X004452Y008889D02*
X004645Y008889D01*
X004452Y009083D02*
X004548Y009179D01*
X004351Y009131D02*
X004302Y009179D01*
X004157Y009179D01*
X004157Y008889D01*
X004157Y008986D02*
X004302Y008986D01*
X004351Y009034D01*
X004351Y009131D01*
X004254Y008986D02*
X004351Y008889D01*
X004351Y009339D02*
X004157Y009339D01*
X004351Y009533D01*
X004351Y009581D01*
X004302Y009629D01*
X004205Y009629D01*
X004157Y009581D01*
X002468Y009154D02*
X002468Y008864D01*
X002371Y008864D02*
X002565Y008864D01*
X002371Y009058D02*
X002468Y009154D01*
X002270Y009106D02*
X002222Y009154D01*
X002125Y009154D01*
X002077Y009106D01*
X001976Y009106D02*
X001927Y009154D01*
X001830Y009154D01*
X001782Y009106D01*
X001782Y008912D01*
X001830Y008864D01*
X001927Y008864D01*
X001976Y008912D01*
X002077Y008864D02*
X002270Y009058D01*
X002270Y009106D01*
X002270Y008864D02*
X002077Y008864D01*
X002052Y009339D02*
X002052Y009629D01*
X002197Y009533D02*
X002052Y009436D01*
X002197Y009339D01*
X001951Y009339D02*
X001757Y009339D01*
X001854Y009339D02*
X001854Y009629D01*
X001757Y009533D01*
X001757Y010289D02*
X001757Y010579D01*
X001902Y010579D01*
X001951Y010531D01*
X001951Y010434D01*
X001902Y010386D01*
X001757Y010386D01*
X001854Y010386D02*
X001951Y010289D01*
X002052Y010337D02*
X002052Y010386D01*
X002100Y010434D01*
X002197Y010434D01*
X002245Y010386D01*
X002245Y010337D01*
X002197Y010289D01*
X002100Y010289D01*
X002052Y010337D01*
X002100Y010434D02*
X002052Y010483D01*
X002052Y010531D01*
X002100Y010579D01*
X002197Y010579D01*
X002245Y010531D01*
X002245Y010483D01*
X002197Y010434D01*
X002271Y008254D02*
X002271Y007964D01*
X002367Y007964D02*
X002174Y007964D01*
X002075Y007964D02*
X002027Y007964D01*
X002027Y008012D01*
X002075Y008012D01*
X002075Y007964D01*
X001926Y008012D02*
X001926Y008206D01*
X001732Y008012D01*
X001780Y007964D01*
X001877Y007964D01*
X001926Y008012D01*
X001732Y008012D02*
X001732Y008206D01*
X001780Y008254D01*
X001877Y008254D01*
X001926Y008206D01*
X002174Y008158D02*
X002271Y008254D01*
X002469Y008158D02*
X002469Y008012D01*
X002517Y007964D01*
X002662Y007964D01*
X002662Y008158D01*
X002763Y008109D02*
X002860Y008109D01*
X002763Y007964D02*
X002763Y008254D01*
X002957Y008254D01*
X004157Y008181D02*
X004157Y007987D01*
X004351Y008181D01*
X004351Y007987D01*
X004302Y007939D01*
X004205Y007939D01*
X004157Y007987D01*
X004157Y008181D02*
X004205Y008229D01*
X004302Y008229D01*
X004351Y008181D01*
X013657Y006338D02*
X013657Y006144D01*
X013802Y006144D01*
X013754Y006241D01*
X013754Y006290D01*
X013802Y006338D01*
X013899Y006338D01*
X013947Y006290D01*
X013947Y006193D01*
X013899Y006144D01*
X013947Y006043D02*
X013947Y005850D01*
X013947Y005947D02*
X013657Y005947D01*
X013754Y005850D01*
X014607Y005898D02*
X014607Y005995D01*
X014655Y006043D01*
X014752Y006043D02*
X014752Y005947D01*
X014752Y006043D02*
X014849Y006043D01*
X014897Y005995D01*
X014897Y005898D01*
X014849Y005850D01*
X014655Y005850D01*
X014607Y005898D01*
X014655Y005749D02*
X014607Y005700D01*
X014607Y005555D01*
X014897Y005555D01*
X014800Y005555D02*
X014800Y005700D01*
X014752Y005749D01*
X014655Y005749D01*
X014800Y005652D02*
X014897Y005749D01*
X014849Y006144D02*
X014897Y006193D01*
X014897Y006290D01*
X014849Y006338D01*
X014800Y006338D01*
X014752Y006290D01*
X014752Y006144D01*
X014849Y006144D01*
X014752Y006144D02*
X014655Y006241D01*
X014607Y006338D01*
X016976Y007588D02*
X017169Y007588D01*
X017073Y007588D02*
X017073Y007879D01*
X016976Y007782D01*
X017271Y007830D02*
X017271Y007637D01*
X017464Y007830D01*
X017464Y007637D01*
X017416Y007588D01*
X017319Y007588D01*
X017271Y007637D01*
X017271Y007830D02*
X017319Y007879D01*
X017416Y007879D01*
X017464Y007830D01*
X017565Y007782D02*
X017565Y007637D01*
X017614Y007588D01*
X017759Y007588D01*
X017759Y007782D01*
X017860Y007733D02*
X017957Y007733D01*
X017860Y007588D02*
X017860Y007879D01*
X018053Y007879D01*
X018449Y007830D02*
X018498Y007879D01*
X018594Y007879D01*
X018643Y007830D01*
X018643Y007782D01*
X018449Y007588D01*
X018643Y007588D01*
X018744Y007637D02*
X018792Y007588D01*
X018889Y007588D01*
X018937Y007637D01*
X018937Y007733D01*
X018889Y007782D01*
X018841Y007782D01*
X018744Y007733D01*
X018744Y007879D01*
X018937Y007879D01*
X019038Y007782D02*
X019135Y007588D01*
X019232Y007782D01*
X017759Y009256D02*
X017759Y009304D01*
X017710Y009353D01*
X017565Y009353D01*
X017565Y009256D01*
X017614Y009208D01*
X017710Y009208D01*
X017759Y009256D01*
X017662Y009449D02*
X017565Y009353D01*
X017662Y009449D02*
X017759Y009498D01*
X017367Y009498D02*
X017367Y009208D01*
X017271Y009208D02*
X017464Y009208D01*
X017271Y009401D02*
X017367Y009498D01*
X017169Y009449D02*
X017121Y009498D01*
X017024Y009498D01*
X016976Y009449D01*
X016976Y009256D01*
X017024Y009208D01*
X017121Y009208D01*
X017169Y009256D01*
X021657Y006338D02*
X021657Y006144D01*
X021802Y006144D01*
X021754Y006241D01*
X021754Y006290D01*
X021802Y006338D01*
X021899Y006338D01*
X021947Y006290D01*
X021947Y006193D01*
X021899Y006144D01*
X021947Y006043D02*
X021947Y005850D01*
X021947Y005947D02*
X021657Y005947D01*
X021754Y005850D01*
X022607Y005898D02*
X022655Y005850D01*
X022849Y005850D01*
X022897Y005898D01*
X022897Y005995D01*
X022849Y006043D01*
X022752Y006043D01*
X022752Y005947D01*
X022655Y006043D02*
X022607Y005995D01*
X022607Y005898D01*
X022655Y005749D02*
X022752Y005749D01*
X022800Y005700D01*
X022800Y005555D01*
X022800Y005652D02*
X022897Y005749D01*
X022897Y005555D02*
X022607Y005555D01*
X022607Y005700D01*
X022655Y005749D01*
X022607Y006144D02*
X022607Y006338D01*
X022655Y006338D01*
X022849Y006144D01*
X022897Y006144D01*
X029157Y006144D02*
X029302Y006144D01*
X029254Y006241D01*
X029254Y006290D01*
X029302Y006338D01*
X029399Y006338D01*
X029447Y006290D01*
X029447Y006193D01*
X029399Y006144D01*
X029447Y006043D02*
X029447Y005850D01*
X029447Y005947D02*
X029157Y005947D01*
X029254Y005850D01*
X029157Y006144D02*
X029157Y006338D01*
X030107Y006290D02*
X030155Y006338D01*
X030204Y006338D01*
X030252Y006290D01*
X030252Y006193D01*
X030204Y006144D01*
X030155Y006144D01*
X030107Y006193D01*
X030107Y006290D01*
X030252Y006290D02*
X030300Y006338D01*
X030349Y006338D01*
X030397Y006290D01*
X030397Y006193D01*
X030349Y006144D01*
X030300Y006144D01*
X030252Y006193D01*
X030252Y006043D02*
X030252Y005947D01*
X030252Y006043D02*
X030349Y006043D01*
X030397Y005995D01*
X030397Y005898D01*
X030349Y005850D01*
X030155Y005850D01*
X030107Y005898D01*
X030107Y005995D01*
X030155Y006043D01*
X030155Y005749D02*
X030252Y005749D01*
X030300Y005700D01*
X030300Y005555D01*
X030300Y005652D02*
X030397Y005749D01*
X030397Y005555D02*
X030107Y005555D01*
X030107Y005700D01*
X030155Y005749D01*
X037157Y005947D02*
X037447Y005947D01*
X037447Y006043D02*
X037447Y005850D01*
X037254Y005850D02*
X037157Y005947D01*
X037157Y006144D02*
X037302Y006144D01*
X037254Y006241D01*
X037254Y006290D01*
X037302Y006338D01*
X037399Y006338D01*
X037447Y006290D01*
X037447Y006193D01*
X037399Y006144D01*
X037157Y006144D02*
X037157Y006338D01*
X038107Y006290D02*
X038155Y006338D01*
X038204Y006338D01*
X038252Y006290D01*
X038300Y006338D01*
X038349Y006338D01*
X038397Y006290D01*
X038397Y006193D01*
X038349Y006144D01*
X038397Y006043D02*
X038397Y005850D01*
X038397Y005947D02*
X038107Y005947D01*
X038204Y005850D01*
X038252Y005749D02*
X038252Y005652D01*
X038252Y005749D02*
X038349Y005749D01*
X038397Y005700D01*
X038397Y005604D01*
X038349Y005555D01*
X038155Y005555D01*
X038107Y005604D01*
X038107Y005700D01*
X038155Y005749D01*
X038155Y005454D02*
X038252Y005454D01*
X038300Y005406D01*
X038300Y005261D01*
X038300Y005357D02*
X038397Y005454D01*
X038397Y005261D02*
X038107Y005261D01*
X038107Y005406D01*
X038155Y005454D01*
X038155Y006144D02*
X038107Y006193D01*
X038107Y006290D01*
X038252Y006290D02*
X038252Y006241D01*
X044657Y006144D02*
X044802Y006144D01*
X044754Y006241D01*
X044754Y006290D01*
X044802Y006338D01*
X044899Y006338D01*
X044947Y006290D01*
X044947Y006193D01*
X044899Y006144D01*
X044947Y006043D02*
X044947Y005850D01*
X044947Y005947D02*
X044657Y005947D01*
X044754Y005850D01*
X044657Y006144D02*
X044657Y006338D01*
X045607Y006290D02*
X045752Y006144D01*
X045752Y006338D01*
X045897Y006290D02*
X045607Y006290D01*
X045607Y005947D02*
X045897Y005947D01*
X045897Y006043D02*
X045897Y005850D01*
X045849Y005749D02*
X045752Y005749D01*
X045752Y005652D01*
X045849Y005749D02*
X045897Y005700D01*
X045897Y005604D01*
X045849Y005555D01*
X045655Y005555D01*
X045607Y005604D01*
X045607Y005700D01*
X045655Y005749D01*
X045704Y005850D02*
X045607Y005947D01*
X045655Y005454D02*
X045752Y005454D01*
X045800Y005406D01*
X045800Y005261D01*
X045800Y005357D02*
X045897Y005454D01*
X045897Y005261D02*
X045607Y005261D01*
X045607Y005406D01*
X045655Y005454D01*
X051176Y007288D02*
X051369Y007288D01*
X051273Y007288D02*
X051273Y007579D01*
X051176Y007482D01*
X051471Y007530D02*
X051519Y007579D01*
X051616Y007579D01*
X051664Y007530D01*
X051471Y007337D01*
X051519Y007288D01*
X051616Y007288D01*
X051664Y007337D01*
X051664Y007530D01*
X051765Y007482D02*
X051765Y007337D01*
X051814Y007288D01*
X051959Y007288D01*
X051959Y007482D01*
X052060Y007433D02*
X052157Y007433D01*
X052060Y007288D02*
X052060Y007579D01*
X052253Y007579D01*
X052649Y007530D02*
X052698Y007579D01*
X052794Y007579D01*
X052843Y007530D01*
X052843Y007482D01*
X052649Y007288D01*
X052843Y007288D01*
X052944Y007337D02*
X052992Y007288D01*
X053089Y007288D01*
X053137Y007337D01*
X053137Y007433D01*
X053089Y007482D01*
X053041Y007482D01*
X052944Y007433D01*
X052944Y007579D01*
X053137Y007579D01*
X053238Y007482D02*
X053335Y007288D01*
X053432Y007482D01*
X053607Y006338D02*
X053607Y006144D01*
X053752Y006144D01*
X053704Y006241D01*
X053704Y006290D01*
X053752Y006338D01*
X053849Y006338D01*
X053897Y006290D01*
X053897Y006193D01*
X053849Y006144D01*
X053897Y006043D02*
X053897Y005850D01*
X053897Y005947D02*
X053607Y005947D01*
X053704Y005850D01*
X053752Y005749D02*
X053752Y005652D01*
X053752Y005749D02*
X053849Y005749D01*
X053897Y005700D01*
X053897Y005604D01*
X053849Y005555D01*
X053655Y005555D01*
X053607Y005604D01*
X053607Y005700D01*
X053655Y005749D01*
X053655Y005454D02*
X053752Y005454D01*
X053800Y005406D01*
X053800Y005261D01*
X053800Y005357D02*
X053897Y005454D01*
X053897Y005261D02*
X053607Y005261D01*
X053607Y005406D01*
X053655Y005454D01*
X052947Y005850D02*
X052947Y006043D01*
X052947Y005947D02*
X052657Y005947D01*
X052754Y005850D01*
X052802Y006144D02*
X052754Y006241D01*
X052754Y006290D01*
X052802Y006338D01*
X052899Y006338D01*
X052947Y006290D01*
X052947Y006193D01*
X052899Y006144D01*
X052802Y006144D02*
X052657Y006144D01*
X052657Y006338D01*
X051471Y007337D02*
X051471Y007530D01*
X051471Y008908D02*
X051664Y008908D01*
X051567Y008908D02*
X051567Y009198D01*
X051471Y009101D01*
X051369Y009149D02*
X051321Y009198D01*
X051224Y009198D01*
X051176Y009149D01*
X051176Y008956D01*
X051224Y008908D01*
X051321Y008908D01*
X051369Y008956D01*
X051765Y008956D02*
X051765Y009004D01*
X051814Y009053D01*
X051910Y009053D01*
X051959Y009004D01*
X051959Y008956D01*
X051910Y008908D01*
X051814Y008908D01*
X051765Y008956D01*
X051814Y009053D02*
X051765Y009101D01*
X051765Y009149D01*
X051814Y009198D01*
X051910Y009198D01*
X051959Y009149D01*
X051959Y009101D01*
X051910Y009053D01*
X060157Y006338D02*
X060157Y006144D01*
X060302Y006144D01*
X060254Y006241D01*
X060254Y006290D01*
X060302Y006338D01*
X060399Y006338D01*
X060447Y006290D01*
X060447Y006193D01*
X060399Y006144D01*
X060447Y006043D02*
X060447Y005850D01*
X060447Y005947D02*
X060157Y005947D01*
X060254Y005850D01*
X061107Y005947D02*
X061397Y005947D01*
X061397Y006043D02*
X061397Y005850D01*
X061349Y005749D02*
X061252Y005749D01*
X061252Y005652D01*
X061349Y005749D02*
X061397Y005700D01*
X061397Y005604D01*
X061349Y005555D01*
X061155Y005555D01*
X061107Y005604D01*
X061107Y005700D01*
X061155Y005749D01*
X061204Y005850D02*
X061107Y005947D01*
X061252Y006144D02*
X061252Y006290D01*
X061300Y006338D01*
X061349Y006338D01*
X061397Y006290D01*
X061397Y006193D01*
X061349Y006144D01*
X061252Y006144D01*
X061155Y006241D01*
X061107Y006338D01*
X061155Y005454D02*
X061252Y005454D01*
X061300Y005406D01*
X061300Y005261D01*
X061300Y005357D02*
X061397Y005454D01*
X061397Y005261D02*
X061107Y005261D01*
X061107Y005406D01*
X061155Y005454D01*
X054335Y013388D02*
X054432Y013582D01*
X054238Y013582D02*
X054335Y013388D01*
X054137Y013437D02*
X054089Y013388D01*
X053992Y013388D01*
X053944Y013437D01*
X053944Y013533D02*
X054041Y013582D01*
X054089Y013582D01*
X054137Y013533D01*
X054137Y013437D01*
X053944Y013533D02*
X053944Y013679D01*
X054137Y013679D01*
X053843Y013630D02*
X053794Y013679D01*
X053698Y013679D01*
X053649Y013630D01*
X053843Y013630D02*
X053843Y013582D01*
X053649Y013388D01*
X053843Y013388D01*
X053253Y013679D02*
X053060Y013679D01*
X053060Y013388D01*
X052959Y013388D02*
X052959Y013582D01*
X053060Y013533D02*
X053157Y013533D01*
X052959Y013388D02*
X052814Y013388D01*
X052765Y013437D01*
X052765Y013582D01*
X052664Y013630D02*
X052471Y013437D01*
X052519Y013388D01*
X052616Y013388D01*
X052664Y013437D01*
X052664Y013630D01*
X052616Y013679D01*
X052519Y013679D01*
X052471Y013630D01*
X052471Y013437D01*
X052369Y013388D02*
X052176Y013388D01*
X052273Y013388D02*
X052273Y013679D01*
X052176Y013582D01*
X052224Y015008D02*
X052321Y015008D01*
X052369Y015056D01*
X052471Y015104D02*
X052471Y015298D01*
X052369Y015249D02*
X052321Y015298D01*
X052224Y015298D01*
X052176Y015249D01*
X052176Y015056D01*
X052224Y015008D01*
X052471Y015104D02*
X052567Y015008D01*
X052664Y015104D01*
X052664Y015298D01*
X052765Y015298D02*
X052910Y015298D01*
X052959Y015249D01*
X052959Y015201D01*
X052910Y015153D01*
X052765Y015153D01*
X052765Y015008D02*
X052765Y015298D01*
X052910Y015153D02*
X052959Y015104D01*
X052959Y015056D01*
X052910Y015008D01*
X052765Y015008D01*
X053060Y015153D02*
X053253Y015153D01*
X053205Y015298D02*
X053060Y015153D01*
X053205Y015008D02*
X053205Y015298D01*
X052935Y017588D02*
X053032Y017782D01*
X052838Y017782D02*
X052935Y017588D01*
X052737Y017637D02*
X052689Y017588D01*
X052592Y017588D01*
X052544Y017637D01*
X052544Y017733D02*
X052641Y017782D01*
X052689Y017782D01*
X052737Y017733D01*
X052737Y017637D01*
X052544Y017733D02*
X052544Y017879D01*
X052737Y017879D01*
X052443Y017830D02*
X052394Y017879D01*
X052298Y017879D01*
X052249Y017830D01*
X052443Y017830D02*
X052443Y017782D01*
X052249Y017588D01*
X052443Y017588D01*
X051853Y017879D02*
X051660Y017879D01*
X051660Y017588D01*
X051559Y017588D02*
X051559Y017782D01*
X051660Y017733D02*
X051757Y017733D01*
X051559Y017588D02*
X051414Y017588D01*
X051365Y017637D01*
X051365Y017782D01*
X051264Y017830D02*
X051071Y017637D01*
X051119Y017588D01*
X051216Y017588D01*
X051264Y017637D01*
X051264Y017830D01*
X051216Y017879D01*
X051119Y017879D01*
X051071Y017830D01*
X051071Y017637D01*
X050969Y017588D02*
X050776Y017588D01*
X050873Y017588D02*
X050873Y017879D01*
X050776Y017782D01*
X050824Y019208D02*
X050921Y019208D01*
X050969Y019256D01*
X051071Y019208D02*
X051264Y019208D01*
X051167Y019208D02*
X051167Y019498D01*
X051071Y019401D01*
X050969Y019449D02*
X050921Y019498D01*
X050824Y019498D01*
X050776Y019449D01*
X050776Y019256D01*
X050824Y019208D01*
X051365Y019208D02*
X051365Y019256D01*
X051559Y019449D01*
X051559Y019498D01*
X051365Y019498D01*
X051876Y023888D02*
X052069Y023888D01*
X051973Y023888D02*
X051973Y024179D01*
X051876Y024082D01*
X052171Y024130D02*
X052219Y024179D01*
X052316Y024179D01*
X052364Y024130D01*
X052171Y023937D01*
X052219Y023888D01*
X052316Y023888D01*
X052364Y023937D01*
X052364Y024130D01*
X052465Y024082D02*
X052465Y023937D01*
X052514Y023888D01*
X052659Y023888D01*
X052659Y024082D01*
X052760Y024033D02*
X052857Y024033D01*
X052760Y023888D02*
X052760Y024179D01*
X052953Y024179D01*
X053349Y024130D02*
X053398Y024179D01*
X053494Y024179D01*
X053543Y024130D01*
X053543Y024082D01*
X053349Y023888D01*
X053543Y023888D01*
X053644Y023937D02*
X053692Y023888D01*
X053789Y023888D01*
X053837Y023937D01*
X053837Y024033D01*
X053789Y024082D01*
X053741Y024082D01*
X053644Y024033D01*
X053644Y024179D01*
X053837Y024179D01*
X053938Y024082D02*
X054035Y023888D01*
X054132Y024082D01*
X052171Y024130D02*
X052171Y023937D01*
X052267Y025508D02*
X052364Y025604D01*
X052364Y025798D01*
X052465Y025798D02*
X052610Y025798D01*
X052659Y025749D01*
X052659Y025701D01*
X052610Y025653D01*
X052465Y025653D01*
X052465Y025508D02*
X052465Y025798D01*
X052610Y025653D02*
X052659Y025604D01*
X052659Y025556D01*
X052610Y025508D01*
X052465Y025508D01*
X052267Y025508D02*
X052171Y025604D01*
X052171Y025798D01*
X052069Y025749D02*
X052021Y025798D01*
X051924Y025798D01*
X051876Y025749D01*
X051876Y025556D01*
X051924Y025508D01*
X052021Y025508D01*
X052069Y025556D01*
X052760Y025556D02*
X052808Y025508D01*
X052905Y025508D01*
X052953Y025556D01*
X052953Y025604D01*
X052905Y025653D01*
X052857Y025653D01*
X052905Y025653D02*
X052953Y025701D01*
X052953Y025749D01*
X052905Y025798D01*
X052808Y025798D01*
X052760Y025749D01*
X055687Y028739D02*
X055687Y028884D01*
X055735Y028933D01*
X055832Y028933D01*
X055880Y028884D01*
X055880Y028739D01*
X055880Y028836D02*
X055977Y028933D01*
X055929Y029034D02*
X055977Y029082D01*
X055977Y029179D01*
X055929Y029227D01*
X055832Y029227D01*
X055832Y029130D01*
X055735Y029034D02*
X055929Y029034D01*
X055735Y029034D02*
X055687Y029082D01*
X055687Y029179D01*
X055735Y029227D01*
X055784Y029328D02*
X055687Y029425D01*
X055977Y029425D01*
X055977Y029328D02*
X055977Y029522D01*
X055977Y029623D02*
X055784Y029816D01*
X055735Y029816D01*
X055687Y029768D01*
X055687Y029671D01*
X055735Y029623D01*
X055977Y029623D02*
X055977Y029816D01*
X056637Y029227D02*
X056637Y029034D01*
X056782Y029034D01*
X056734Y029130D01*
X056734Y029179D01*
X056782Y029227D01*
X056879Y029227D01*
X056927Y029179D01*
X056927Y029082D01*
X056879Y029034D01*
X056927Y028933D02*
X056927Y028739D01*
X056927Y028836D02*
X056637Y028836D01*
X056734Y028739D01*
X055977Y028739D02*
X055687Y028739D01*
X049427Y028739D02*
X049427Y028933D01*
X049427Y028836D02*
X049137Y028836D01*
X049234Y028739D01*
X049282Y029034D02*
X049137Y029034D01*
X049137Y029227D01*
X049234Y029179D02*
X049234Y029130D01*
X049282Y029034D01*
X049379Y029034D02*
X049427Y029082D01*
X049427Y029179D01*
X049379Y029227D01*
X049282Y029227D01*
X049234Y029179D01*
X048477Y029179D02*
X048477Y029082D01*
X048429Y029034D01*
X048235Y029034D01*
X048187Y029082D01*
X048187Y029179D01*
X048235Y029227D01*
X048332Y029227D02*
X048332Y029130D01*
X048332Y029227D02*
X048429Y029227D01*
X048477Y029179D01*
X048477Y029328D02*
X048477Y029522D01*
X048477Y029425D02*
X048187Y029425D01*
X048284Y029328D01*
X048284Y029623D02*
X048187Y029720D01*
X048477Y029720D01*
X048477Y029816D02*
X048477Y029623D01*
X048477Y028933D02*
X048380Y028836D01*
X048380Y028884D02*
X048380Y028739D01*
X048477Y028739D02*
X048187Y028739D01*
X048187Y028884D01*
X048235Y028933D01*
X048332Y028933D01*
X048380Y028884D01*
X041427Y028933D02*
X041427Y028739D01*
X041427Y028836D02*
X041137Y028836D01*
X041234Y028739D01*
X041282Y029034D02*
X041137Y029034D01*
X041137Y029227D01*
X041234Y029179D02*
X041234Y029130D01*
X041282Y029034D01*
X041379Y029034D02*
X041427Y029082D01*
X041427Y029179D01*
X041379Y029227D01*
X041282Y029227D01*
X041234Y029179D01*
X040477Y029179D02*
X040477Y029082D01*
X040429Y029034D01*
X040235Y029034D01*
X040187Y029082D01*
X040187Y029179D01*
X040235Y029227D01*
X040332Y029227D02*
X040332Y029130D01*
X040332Y029227D02*
X040429Y029227D01*
X040477Y029179D01*
X040477Y029328D02*
X040477Y029522D01*
X040477Y029425D02*
X040187Y029425D01*
X040284Y029328D01*
X040235Y029623D02*
X040187Y029671D01*
X040187Y029768D01*
X040235Y029816D01*
X040429Y029623D01*
X040477Y029671D01*
X040477Y029768D01*
X040429Y029816D01*
X040235Y029816D01*
X040235Y029623D02*
X040429Y029623D01*
X040477Y028933D02*
X040380Y028836D01*
X040380Y028884D02*
X040380Y028739D01*
X040477Y028739D02*
X040187Y028739D01*
X040187Y028884D01*
X040235Y028933D01*
X040332Y028933D01*
X040380Y028884D01*
X033927Y028933D02*
X033927Y028739D01*
X033927Y028836D02*
X033637Y028836D01*
X033734Y028739D01*
X033782Y029034D02*
X033734Y029130D01*
X033734Y029179D01*
X033782Y029227D01*
X033879Y029227D01*
X033927Y029179D01*
X033927Y029082D01*
X033879Y029034D01*
X033782Y029034D02*
X033637Y029034D01*
X033637Y029227D01*
X032977Y029179D02*
X032977Y029082D01*
X032929Y029034D01*
X032735Y029034D01*
X032687Y029082D01*
X032687Y029179D01*
X032735Y029227D01*
X032832Y029227D02*
X032832Y029130D01*
X032832Y029227D02*
X032929Y029227D01*
X032977Y029179D01*
X032929Y029328D02*
X032977Y029377D01*
X032977Y029474D01*
X032929Y029522D01*
X032735Y029522D01*
X032687Y029474D01*
X032687Y029377D01*
X032735Y029328D01*
X032784Y029328D01*
X032832Y029377D01*
X032832Y029522D01*
X032832Y028933D02*
X032880Y028884D01*
X032880Y028739D01*
X032880Y028836D02*
X032977Y028933D01*
X032832Y028933D02*
X032735Y028933D01*
X032687Y028884D01*
X032687Y028739D01*
X032977Y028739D01*
X025927Y028739D02*
X025927Y028933D01*
X025927Y028836D02*
X025637Y028836D01*
X025734Y028739D01*
X025782Y029034D02*
X025734Y029130D01*
X025734Y029179D01*
X025782Y029227D01*
X025879Y029227D01*
X025927Y029179D01*
X025927Y029082D01*
X025879Y029034D01*
X025782Y029034D02*
X025637Y029034D01*
X025637Y029227D01*
X024977Y029179D02*
X024977Y029082D01*
X024929Y029034D01*
X024735Y029034D01*
X024687Y029082D01*
X024687Y029179D01*
X024735Y029227D01*
X024832Y029227D02*
X024832Y029130D01*
X024832Y029227D02*
X024929Y029227D01*
X024977Y029179D01*
X024832Y029328D02*
X024832Y029522D01*
X024977Y029474D02*
X024687Y029474D01*
X024832Y029328D01*
X024832Y028933D02*
X024880Y028884D01*
X024880Y028739D01*
X024880Y028836D02*
X024977Y028933D01*
X024832Y028933D02*
X024735Y028933D01*
X024687Y028884D01*
X024687Y028739D01*
X024977Y028739D01*
X018427Y028739D02*
X018427Y028933D01*
X018427Y028836D02*
X018137Y028836D01*
X018234Y028739D01*
X018282Y029034D02*
X018234Y029130D01*
X018234Y029179D01*
X018282Y029227D01*
X018379Y029227D01*
X018427Y029179D01*
X018427Y029082D01*
X018379Y029034D01*
X018282Y029034D02*
X018137Y029034D01*
X018137Y029227D01*
X017477Y029179D02*
X017477Y029082D01*
X017429Y029034D01*
X017235Y029034D01*
X017187Y029082D01*
X017187Y029179D01*
X017235Y029227D01*
X017332Y029227D02*
X017332Y029130D01*
X017332Y029227D02*
X017429Y029227D01*
X017477Y029179D01*
X017429Y029328D02*
X017477Y029377D01*
X017477Y029474D01*
X017429Y029522D01*
X017380Y029522D01*
X017332Y029474D01*
X017332Y029425D01*
X017332Y029474D02*
X017284Y029522D01*
X017235Y029522D01*
X017187Y029474D01*
X017187Y029377D01*
X017235Y029328D01*
X017235Y028933D02*
X017332Y028933D01*
X017380Y028884D01*
X017380Y028739D01*
X017380Y028836D02*
X017477Y028933D01*
X017477Y028739D02*
X017187Y028739D01*
X017187Y028884D01*
X017235Y028933D01*
X010427Y028933D02*
X010427Y028739D01*
X010427Y028836D02*
X010137Y028836D01*
X010234Y028739D01*
X010282Y029034D02*
X010234Y029130D01*
X010234Y029179D01*
X010282Y029227D01*
X010379Y029227D01*
X010427Y029179D01*
X010427Y029082D01*
X010379Y029034D01*
X010282Y029034D02*
X010137Y029034D01*
X010137Y029227D01*
X009477Y029179D02*
X009477Y029082D01*
X009429Y029034D01*
X009235Y029034D01*
X009187Y029082D01*
X009187Y029179D01*
X009235Y029227D01*
X009332Y029227D02*
X009332Y029130D01*
X009332Y029227D02*
X009429Y029227D01*
X009477Y029179D01*
X009477Y029328D02*
X009284Y029522D01*
X009235Y029522D01*
X009187Y029474D01*
X009187Y029377D01*
X009235Y029328D01*
X009477Y029328D02*
X009477Y029522D01*
X009477Y028933D02*
X009380Y028836D01*
X009380Y028884D02*
X009380Y028739D01*
X009477Y028739D02*
X009187Y028739D01*
X009187Y028884D01*
X009235Y028933D01*
X009332Y028933D01*
X009380Y028884D01*
X009157Y026498D02*
X009157Y026208D01*
X009253Y026208D02*
X009060Y026208D01*
X008959Y026256D02*
X008910Y026208D01*
X008765Y026208D01*
X008765Y026498D01*
X008910Y026498D01*
X008959Y026449D01*
X008959Y026401D01*
X008910Y026353D01*
X008765Y026353D01*
X008664Y026304D02*
X008664Y026498D01*
X008471Y026498D02*
X008471Y026304D01*
X008567Y026208D01*
X008664Y026304D01*
X008910Y026353D02*
X008959Y026304D01*
X008959Y026256D01*
X009060Y026401D02*
X009157Y026498D01*
X008369Y026449D02*
X008321Y026498D01*
X008224Y026498D01*
X008176Y026449D01*
X008176Y026256D01*
X008224Y026208D01*
X008321Y026208D01*
X008369Y026256D01*
X008273Y024879D02*
X008273Y024588D01*
X008369Y024588D02*
X008176Y024588D01*
X008176Y024782D02*
X008273Y024879D01*
X008471Y024830D02*
X008519Y024879D01*
X008616Y024879D01*
X008664Y024830D01*
X008471Y024637D01*
X008519Y024588D01*
X008616Y024588D01*
X008664Y024637D01*
X008664Y024830D01*
X008765Y024782D02*
X008765Y024637D01*
X008814Y024588D01*
X008959Y024588D01*
X008959Y024782D01*
X009060Y024733D02*
X009157Y024733D01*
X009060Y024588D02*
X009060Y024879D01*
X009253Y024879D01*
X009649Y024830D02*
X009698Y024879D01*
X009794Y024879D01*
X009843Y024830D01*
X009843Y024782D01*
X009649Y024588D01*
X009843Y024588D01*
X009944Y024637D02*
X009992Y024588D01*
X010089Y024588D01*
X010137Y024637D01*
X010137Y024733D01*
X010089Y024782D01*
X010041Y024782D01*
X009944Y024733D01*
X009944Y024879D01*
X010137Y024879D01*
X010238Y024782D02*
X010335Y024588D01*
X010432Y024782D01*
X008471Y024830D02*
X008471Y024637D01*
X002927Y028739D02*
X002927Y028933D01*
X002927Y028836D02*
X002637Y028836D01*
X002734Y028739D01*
X002782Y029034D02*
X002637Y029034D01*
X002637Y029227D01*
X002734Y029179D02*
X002734Y029130D01*
X002782Y029034D01*
X002879Y029034D02*
X002927Y029082D01*
X002927Y029179D01*
X002879Y029227D01*
X002782Y029227D01*
X002734Y029179D01*
X001977Y029179D02*
X001977Y029082D01*
X001929Y029034D01*
X001735Y029034D01*
X001687Y029082D01*
X001687Y029179D01*
X001735Y029227D01*
X001832Y029227D02*
X001832Y029130D01*
X001832Y029227D02*
X001929Y029227D01*
X001977Y029179D01*
X001977Y029328D02*
X001977Y029522D01*
X001977Y029425D02*
X001687Y029425D01*
X001784Y029328D01*
X001832Y028933D02*
X001880Y028884D01*
X001880Y028739D01*
X001880Y028836D02*
X001977Y028933D01*
X001832Y028933D02*
X001735Y028933D01*
X001687Y028884D01*
X001687Y028739D01*
X001977Y028739D01*
X007024Y020498D02*
X006976Y020449D01*
X006976Y020256D01*
X007024Y020208D01*
X007121Y020208D01*
X007169Y020256D01*
X007271Y020256D02*
X007319Y020208D01*
X007416Y020208D01*
X007464Y020256D01*
X007464Y020449D01*
X007416Y020498D01*
X007319Y020498D01*
X007271Y020449D01*
X007271Y020401D01*
X007319Y020353D01*
X007464Y020353D01*
X007169Y020449D02*
X007121Y020498D01*
X007024Y020498D01*
X007073Y018879D02*
X007073Y018588D01*
X007169Y018588D02*
X006976Y018588D01*
X006976Y018782D02*
X007073Y018879D01*
X007271Y018830D02*
X007319Y018879D01*
X007416Y018879D01*
X007464Y018830D01*
X007271Y018637D01*
X007319Y018588D01*
X007416Y018588D01*
X007464Y018637D01*
X007464Y018830D01*
X007565Y018782D02*
X007565Y018637D01*
X007614Y018588D01*
X007759Y018588D01*
X007759Y018782D01*
X007860Y018733D02*
X007957Y018733D01*
X007860Y018588D02*
X007860Y018879D01*
X008053Y018879D01*
X008449Y018830D02*
X008498Y018879D01*
X008594Y018879D01*
X008643Y018830D01*
X008643Y018782D01*
X008449Y018588D01*
X008643Y018588D01*
X008744Y018637D02*
X008792Y018588D01*
X008889Y018588D01*
X008937Y018637D01*
X008937Y018733D01*
X008889Y018782D01*
X008841Y018782D01*
X008744Y018733D01*
X008744Y018879D01*
X008937Y018879D01*
X009038Y018782D02*
X009135Y018588D01*
X009232Y018782D01*
X007271Y018830D02*
X007271Y018637D01*
X017976Y015349D02*
X017976Y015156D01*
X018024Y015108D01*
X018121Y015108D01*
X018169Y015156D01*
X018271Y015204D02*
X018367Y015108D01*
X018464Y015204D01*
X018464Y015398D01*
X018565Y015398D02*
X018710Y015398D01*
X018759Y015349D01*
X018759Y015301D01*
X018710Y015253D01*
X018565Y015253D01*
X018565Y015108D02*
X018565Y015398D01*
X018710Y015253D02*
X018759Y015204D01*
X018759Y015156D01*
X018710Y015108D01*
X018565Y015108D01*
X018860Y015108D02*
X019053Y015301D01*
X019053Y015349D01*
X019005Y015398D01*
X018908Y015398D01*
X018860Y015349D01*
X018860Y015108D02*
X019053Y015108D01*
X018271Y015204D02*
X018271Y015398D01*
X018169Y015349D02*
X018121Y015398D01*
X018024Y015398D01*
X017976Y015349D01*
X018073Y013779D02*
X018073Y013488D01*
X018169Y013488D02*
X017976Y013488D01*
X017976Y013682D02*
X018073Y013779D01*
X018271Y013730D02*
X018319Y013779D01*
X018416Y013779D01*
X018464Y013730D01*
X018271Y013537D01*
X018319Y013488D01*
X018416Y013488D01*
X018464Y013537D01*
X018464Y013730D01*
X018565Y013682D02*
X018565Y013537D01*
X018614Y013488D01*
X018759Y013488D01*
X018759Y013682D01*
X018860Y013633D02*
X018957Y013633D01*
X018860Y013488D02*
X018860Y013779D01*
X019053Y013779D01*
X019449Y013730D02*
X019498Y013779D01*
X019594Y013779D01*
X019643Y013730D01*
X019643Y013682D01*
X019449Y013488D01*
X019643Y013488D01*
X019744Y013537D02*
X019792Y013488D01*
X019889Y013488D01*
X019937Y013537D01*
X019937Y013633D01*
X019889Y013682D01*
X019841Y013682D01*
X019744Y013633D01*
X019744Y013779D01*
X019937Y013779D01*
X020038Y013682D02*
X020135Y013488D01*
X020232Y013682D01*
X018271Y013730D02*
X018271Y013537D01*
X039376Y021056D02*
X039424Y021008D01*
X039521Y021008D01*
X039569Y021056D01*
X039671Y021008D02*
X039864Y021008D01*
X039767Y021008D02*
X039767Y021298D01*
X039671Y021201D01*
X039569Y021249D02*
X039521Y021298D01*
X039424Y021298D01*
X039376Y021249D01*
X039376Y021056D01*
X039965Y021056D02*
X040014Y021008D01*
X040110Y021008D01*
X040159Y021056D01*
X040159Y021249D01*
X040110Y021298D01*
X040014Y021298D01*
X039965Y021249D01*
X039965Y021201D01*
X040014Y021153D01*
X040159Y021153D01*
X042876Y021249D02*
X042876Y021056D01*
X042924Y021008D01*
X043021Y021008D01*
X043069Y021056D01*
X043171Y021008D02*
X043364Y021201D01*
X043364Y021249D01*
X043316Y021298D01*
X043219Y021298D01*
X043171Y021249D01*
X043069Y021249D02*
X043021Y021298D01*
X042924Y021298D01*
X042876Y021249D01*
X043171Y021008D02*
X043364Y021008D01*
X043465Y021056D02*
X043659Y021249D01*
X043659Y021056D01*
X043610Y021008D01*
X043514Y021008D01*
X043465Y021056D01*
X043465Y021249D01*
X043514Y021298D01*
X043610Y021298D01*
X043659Y021249D01*
D12*
X049414Y023950D02*
X049414Y024411D01*
X049644Y024411D01*
X049721Y024334D01*
X049721Y024027D01*
X049644Y023950D01*
X049414Y023950D01*
X049874Y023950D02*
X049874Y024411D01*
X050104Y024411D01*
X050181Y024334D01*
X050181Y024257D01*
X050104Y024181D01*
X049874Y024181D01*
X050104Y024181D02*
X050181Y024104D01*
X050181Y024027D01*
X050104Y023950D01*
X049874Y023950D01*
X050335Y024027D02*
X050411Y023950D01*
X050565Y023950D01*
X050642Y024027D01*
X050642Y024104D01*
X050565Y024181D01*
X050488Y024181D01*
X050565Y024181D02*
X050642Y024257D01*
X050642Y024334D01*
X050565Y024411D01*
X050411Y024411D01*
X050335Y024334D01*
X060012Y032094D02*
X060319Y032094D01*
X060472Y032094D02*
X060472Y032554D01*
X060626Y032401D01*
X060779Y032554D01*
X060779Y032094D01*
X060933Y032171D02*
X061009Y032094D01*
X061163Y032094D01*
X061240Y032171D01*
X061240Y032248D01*
X061163Y032324D01*
X060933Y032324D01*
X060933Y032171D01*
X060933Y032324D02*
X061086Y032478D01*
X061240Y032554D01*
X061393Y032401D02*
X061547Y032554D01*
X061547Y032094D01*
X061700Y032094D02*
X061393Y032094D01*
X061853Y032094D02*
X061853Y032554D01*
X062084Y032554D01*
X062160Y032478D01*
X062160Y032401D01*
X062084Y032324D01*
X061853Y032324D01*
X061853Y032094D02*
X062084Y032094D01*
X062160Y032171D01*
X062160Y032248D01*
X062084Y032324D01*
X062314Y032094D02*
X062467Y032094D01*
X062391Y032094D02*
X062391Y032554D01*
X062467Y032554D02*
X062314Y032554D01*
X062621Y032554D02*
X062621Y032094D01*
X062928Y032094D02*
X062928Y032554D01*
X062774Y032401D01*
X062621Y032554D01*
X060012Y032554D02*
X060012Y032094D01*
X060089Y034094D02*
X060242Y034094D01*
X060319Y034171D01*
X060319Y034554D01*
X060472Y034554D02*
X060779Y034554D01*
X060626Y034554D02*
X060626Y034094D01*
X060933Y034171D02*
X061009Y034094D01*
X061163Y034094D01*
X061240Y034171D01*
X061240Y034478D02*
X061163Y034554D01*
X061009Y034554D01*
X060933Y034478D01*
X060933Y034171D01*
X060089Y034094D02*
X060012Y034171D01*
X060012Y034554D01*
X031928Y032554D02*
X031928Y032094D01*
X031621Y032094D02*
X031621Y032554D01*
X031774Y032401D01*
X031928Y032554D01*
X031467Y032554D02*
X031314Y032554D01*
X031391Y032554D02*
X031391Y032094D01*
X031467Y032094D02*
X031314Y032094D01*
X031160Y032171D02*
X031084Y032094D01*
X030853Y032094D01*
X030853Y032554D01*
X031084Y032554D01*
X031160Y032478D01*
X031160Y032401D01*
X031084Y032324D01*
X030853Y032324D01*
X031084Y032324D02*
X031160Y032248D01*
X031160Y032171D01*
X030700Y032094D02*
X030393Y032094D01*
X030547Y032094D02*
X030547Y032554D01*
X030393Y032401D01*
X030240Y032554D02*
X030086Y032478D01*
X029933Y032324D01*
X030163Y032324D01*
X030240Y032248D01*
X030240Y032171D01*
X030163Y032094D01*
X030009Y032094D01*
X029933Y032171D01*
X029933Y032324D01*
X029779Y032554D02*
X029779Y032094D01*
X029472Y032094D02*
X029472Y032554D01*
X029626Y032401D01*
X029779Y032554D01*
X029319Y032094D02*
X029012Y032094D01*
X029012Y032554D01*
X029089Y034094D02*
X029242Y034094D01*
X029319Y034171D01*
X029319Y034554D01*
X029472Y034554D02*
X029779Y034554D01*
X029626Y034554D02*
X029626Y034094D01*
X029933Y034094D02*
X029933Y034401D01*
X030086Y034554D01*
X030240Y034401D01*
X030240Y034094D01*
X030240Y034324D02*
X029933Y034324D01*
X029089Y034094D02*
X029012Y034171D01*
X029012Y034554D01*
X006788Y025111D02*
X006788Y024650D01*
X006635Y024650D02*
X006942Y024650D01*
X006635Y024957D02*
X006788Y025111D01*
X006481Y025034D02*
X006481Y024957D01*
X006404Y024881D01*
X006174Y024881D01*
X006021Y025034D02*
X006021Y024727D01*
X005944Y024650D01*
X005714Y024650D01*
X005714Y025111D01*
X005944Y025111D01*
X006021Y025034D01*
X006174Y025111D02*
X006404Y025111D01*
X006481Y025034D01*
X006404Y024881D02*
X006481Y024804D01*
X006481Y024727D01*
X006404Y024650D01*
X006174Y024650D01*
X006174Y025111D01*
X006128Y015273D02*
X006358Y015273D01*
X006435Y015196D01*
X006435Y015043D01*
X006358Y014966D01*
X006128Y014966D01*
X006281Y014966D02*
X006435Y014813D01*
X006588Y015043D02*
X006895Y015043D01*
X006818Y014813D02*
X006818Y015273D01*
X006588Y015043D01*
X006128Y014813D02*
X006128Y015273D01*
X006631Y014136D02*
X006631Y013676D01*
X006478Y013676D02*
X006785Y013676D01*
X006938Y013752D02*
X007015Y013676D01*
X007168Y013676D01*
X007245Y013752D01*
X007245Y014059D01*
X006938Y013752D01*
X006938Y014059D01*
X007015Y014136D01*
X007168Y014136D01*
X007245Y014059D01*
X007399Y014136D02*
X007399Y013676D01*
X007399Y013829D02*
X007629Y013676D01*
X007399Y013829D02*
X007629Y013982D01*
X006631Y014136D02*
X006478Y013982D01*
X015414Y014011D02*
X015414Y013550D01*
X015644Y013550D01*
X015721Y013627D01*
X015721Y013934D01*
X015644Y014011D01*
X015414Y014011D01*
X015874Y014011D02*
X016104Y014011D01*
X016181Y013934D01*
X016181Y013857D01*
X016104Y013781D01*
X015874Y013781D01*
X015874Y014011D02*
X015874Y013550D01*
X016104Y013550D01*
X016181Y013627D01*
X016181Y013704D01*
X016104Y013781D01*
X016335Y013934D02*
X016411Y014011D01*
X016565Y014011D01*
X016642Y013934D01*
X016642Y013857D01*
X016335Y013550D01*
X016642Y013550D01*
X027143Y003054D02*
X027143Y002594D01*
X027450Y002594D01*
X027603Y002594D02*
X027603Y003054D01*
X027757Y002901D01*
X027910Y003054D01*
X027910Y002594D01*
X028064Y002671D02*
X028140Y002594D01*
X028294Y002594D01*
X028370Y002671D01*
X028370Y002748D01*
X028294Y002824D01*
X028064Y002824D01*
X028064Y002671D01*
X028064Y002824D02*
X028217Y002978D01*
X028370Y003054D01*
X028524Y002901D02*
X028677Y003054D01*
X028677Y002594D01*
X028524Y002594D02*
X028831Y002594D01*
X028984Y002594D02*
X029214Y002594D01*
X029291Y002671D01*
X029291Y002748D01*
X029214Y002824D01*
X028984Y002824D01*
X028984Y002594D02*
X028984Y003054D01*
X029214Y003054D01*
X029291Y002978D01*
X029291Y002901D01*
X029214Y002824D01*
X029445Y002594D02*
X029598Y002594D01*
X029521Y002594D02*
X029521Y003054D01*
X029445Y003054D02*
X029598Y003054D01*
X029751Y003054D02*
X029905Y002901D01*
X030058Y003054D01*
X030058Y002594D01*
X029751Y002594D02*
X029751Y003054D01*
X029752Y001054D02*
X029982Y001054D01*
X030059Y000978D01*
X030059Y000901D01*
X029982Y000824D01*
X029752Y000824D01*
X029982Y000824D02*
X030059Y000748D01*
X030059Y000671D01*
X029982Y000594D01*
X029752Y000594D01*
X029752Y001054D01*
X029598Y001054D02*
X029291Y001054D01*
X029138Y001054D02*
X029138Y000671D01*
X029061Y000594D01*
X028908Y000594D01*
X028831Y000671D01*
X028831Y001054D01*
X029445Y001054D02*
X029445Y000594D01*
X049714Y013450D02*
X049944Y013450D01*
X050021Y013527D01*
X050021Y013834D01*
X049944Y013911D01*
X049714Y013911D01*
X049714Y013450D01*
X050174Y013450D02*
X050174Y013911D01*
X050404Y013911D01*
X050481Y013834D01*
X050481Y013757D01*
X050404Y013681D01*
X050174Y013681D01*
X050404Y013681D02*
X050481Y013604D01*
X050481Y013527D01*
X050404Y013450D01*
X050174Y013450D01*
X050635Y013681D02*
X050865Y013911D01*
X050865Y013450D01*
X050942Y013681D02*
X050635Y013681D01*
X058143Y003054D02*
X058143Y002594D01*
X058450Y002594D01*
X058603Y002594D02*
X058603Y003054D01*
X058757Y002901D01*
X058910Y003054D01*
X058910Y002594D01*
X059064Y002671D02*
X059140Y002594D01*
X059294Y002594D01*
X059370Y002671D01*
X059370Y002748D01*
X059294Y002824D01*
X059064Y002824D01*
X059064Y002671D01*
X059064Y002824D02*
X059217Y002978D01*
X059370Y003054D01*
X059524Y002901D02*
X059677Y003054D01*
X059677Y002594D01*
X059524Y002594D02*
X059831Y002594D01*
X059984Y002594D02*
X060214Y002594D01*
X060291Y002671D01*
X060291Y002748D01*
X060214Y002824D01*
X059984Y002824D01*
X059984Y002594D02*
X059984Y003054D01*
X060214Y003054D01*
X060291Y002978D01*
X060291Y002901D01*
X060214Y002824D01*
X060445Y002594D02*
X060598Y002594D01*
X060521Y002594D02*
X060521Y003054D01*
X060445Y003054D02*
X060598Y003054D01*
X060751Y003054D02*
X060905Y002901D01*
X061058Y003054D01*
X061058Y002594D01*
X060751Y002594D02*
X060751Y003054D01*
X061662Y001758D02*
X062122Y001758D01*
X062122Y001911D02*
X062122Y001604D01*
X062122Y001451D02*
X061662Y001144D01*
X061662Y001451D02*
X062122Y001144D01*
X061815Y001604D02*
X061662Y001758D01*
X060982Y001054D02*
X060752Y001054D01*
X060752Y000594D01*
X060982Y000594D01*
X061059Y000671D01*
X061059Y000978D01*
X060982Y001054D01*
X060598Y001054D02*
X060291Y001054D01*
X060138Y001054D02*
X060138Y000671D01*
X060061Y000594D01*
X059908Y000594D01*
X059831Y000671D01*
X059831Y001054D01*
X060445Y001054D02*
X060445Y000594D01*
X064412Y001144D02*
X064565Y001298D01*
X064412Y001451D01*
X064872Y001451D01*
X064795Y001604D02*
X064872Y001681D01*
X064872Y001835D01*
X064795Y001911D01*
X064795Y002065D02*
X064872Y002141D01*
X064872Y002295D01*
X064795Y002372D01*
X064642Y002372D01*
X064565Y002295D01*
X064565Y002218D01*
X064642Y002065D01*
X064412Y002065D01*
X064412Y002372D01*
X064488Y001911D02*
X064412Y001835D01*
X064412Y001681D01*
X064488Y001604D01*
X064795Y001604D01*
X064872Y001144D02*
X064412Y001144D01*
D13*
X061542Y002824D02*
X061642Y003424D01*
X061442Y004674D01*
X061292Y004824D01*
X055792Y004824D01*
X055642Y004674D01*
X055442Y003424D01*
X055542Y002824D01*
X061542Y002824D01*
X054142Y003424D02*
X054042Y002824D01*
X048042Y002824D01*
X047942Y003424D01*
X048142Y004674D01*
X048292Y004824D01*
X053792Y004824D01*
X053942Y004674D01*
X054142Y003424D01*
X046142Y003424D02*
X046042Y002824D01*
X040042Y002824D01*
X039942Y003424D01*
X040142Y004674D01*
X040292Y004824D01*
X045792Y004824D01*
X045942Y004674D01*
X046142Y003424D01*
X038642Y003424D02*
X038542Y002824D01*
X032542Y002824D01*
X032442Y003424D01*
X032642Y004674D01*
X032792Y004824D01*
X038292Y004824D01*
X038442Y004674D01*
X038642Y003424D01*
X030642Y003424D02*
X030542Y002824D01*
X024542Y002824D01*
X024442Y003424D01*
X024642Y004674D01*
X024792Y004824D01*
X030292Y004824D01*
X030442Y004674D01*
X030642Y003424D01*
X023142Y003424D02*
X023042Y002824D01*
X017042Y002824D01*
X016942Y003424D01*
X017142Y004674D01*
X017292Y004824D01*
X022792Y004824D01*
X022942Y004674D01*
X023142Y003424D01*
X015142Y003424D02*
X015042Y002824D01*
X009042Y002824D01*
X008942Y003424D01*
X009142Y004674D01*
X009292Y004824D01*
X014792Y004824D01*
X014942Y004674D01*
X015142Y003424D01*
X007642Y003424D02*
X007542Y002824D01*
X001542Y002824D01*
X001442Y003424D01*
X001642Y004674D01*
X001792Y004824D01*
X007292Y004824D01*
X007442Y004674D01*
X007642Y003424D01*
X010142Y008374D02*
X011942Y008374D01*
X011962Y008376D01*
X011980Y008382D01*
X011998Y008391D01*
X012013Y008403D01*
X012025Y008418D01*
X012034Y008436D01*
X012040Y008454D01*
X012042Y008474D01*
X012042Y011174D01*
X012040Y011194D01*
X012034Y011212D01*
X012025Y011230D01*
X012013Y011245D01*
X011998Y011257D01*
X011980Y011266D01*
X011962Y011272D01*
X011942Y011274D01*
X010142Y011274D01*
X010122Y011272D01*
X010104Y011266D01*
X010086Y011257D01*
X010071Y011245D01*
X010059Y011230D01*
X010050Y011212D01*
X010044Y011194D01*
X010042Y011174D01*
X010042Y008474D01*
X010044Y008454D01*
X010050Y008436D01*
X010059Y008418D01*
X010071Y008403D01*
X010086Y008391D01*
X010104Y008382D01*
X010122Y008376D01*
X010142Y008374D01*
X011042Y009224D02*
X011042Y009694D01*
X011042Y009944D02*
X011042Y010424D01*
X012492Y008974D02*
X012492Y008674D01*
X012342Y008824D02*
X012642Y008824D01*
X012192Y008824D02*
X012198Y008947D01*
X012214Y009069D01*
X012242Y009188D01*
X012281Y009305D01*
X012330Y009418D01*
X012389Y009525D01*
X012457Y009627D01*
X012535Y009723D01*
X012621Y009811D01*
X012714Y009890D01*
X012814Y009961D01*
X012921Y010023D01*
X013032Y010074D01*
X013148Y010115D01*
X013267Y010146D01*
X013389Y010165D01*
X013511Y010174D01*
X013634Y010171D01*
X013756Y010157D01*
X013877Y010132D01*
X013994Y010096D01*
X014108Y010050D01*
X014217Y009993D01*
X014321Y009927D01*
X014418Y009852D01*
X014507Y009768D01*
X014589Y009676D01*
X014662Y009577D01*
X014726Y009472D01*
X014780Y009362D01*
X014824Y009247D01*
X014857Y009129D01*
X014879Y009008D01*
X014891Y008885D01*
X014891Y008763D01*
X014879Y008640D01*
X014857Y008519D01*
X014824Y008401D01*
X014780Y008286D01*
X014726Y008176D01*
X014662Y008071D01*
X014589Y007972D01*
X014507Y007880D01*
X014418Y007796D01*
X014321Y007721D01*
X014217Y007655D01*
X014108Y007598D01*
X013994Y007552D01*
X013877Y007516D01*
X013756Y007491D01*
X013634Y007477D01*
X013511Y007474D01*
X013389Y007483D01*
X013267Y007502D01*
X013148Y007533D01*
X013032Y007574D01*
X012921Y007625D01*
X012814Y007687D01*
X012714Y007758D01*
X012621Y007837D01*
X012535Y007925D01*
X012457Y008021D01*
X012389Y008123D01*
X012330Y008230D01*
X012281Y008343D01*
X012242Y008460D01*
X012214Y008579D01*
X012198Y008701D01*
X012192Y008824D01*
X016492Y010804D02*
X016492Y012044D01*
X016494Y012067D01*
X016499Y012090D01*
X016508Y012112D01*
X016521Y012132D01*
X016536Y012150D01*
X016554Y012165D01*
X016574Y012178D01*
X016596Y012187D01*
X016619Y012192D01*
X016642Y012194D01*
X019842Y012194D01*
X019865Y012192D01*
X019888Y012187D01*
X019910Y012178D01*
X019930Y012165D01*
X019948Y012150D01*
X019963Y012132D01*
X019976Y012112D01*
X019985Y012090D01*
X019990Y012067D01*
X019992Y012044D01*
X019992Y010804D01*
X019990Y010781D01*
X019985Y010758D01*
X019976Y010736D01*
X019963Y010716D01*
X019948Y010698D01*
X019930Y010683D01*
X019910Y010670D01*
X019888Y010661D01*
X019865Y010656D01*
X019842Y010654D01*
X016642Y010654D01*
X016619Y010656D01*
X016596Y010661D01*
X016574Y010670D01*
X016554Y010683D01*
X016536Y010698D01*
X016521Y010716D01*
X016508Y010736D01*
X016499Y010758D01*
X016494Y010781D01*
X016492Y010804D01*
X016492Y011224D02*
X016520Y011226D01*
X016548Y011232D01*
X016575Y011242D01*
X016600Y011256D01*
X016623Y011273D01*
X016643Y011293D01*
X016660Y011316D01*
X016674Y011341D01*
X016684Y011368D01*
X016690Y011396D01*
X016692Y011424D01*
X016690Y011452D01*
X016684Y011480D01*
X016674Y011507D01*
X016660Y011532D01*
X016643Y011555D01*
X016623Y011575D01*
X016600Y011592D01*
X016575Y011606D01*
X016548Y011616D01*
X016520Y011622D01*
X016492Y011624D01*
X012192Y012324D02*
X012198Y012447D01*
X012214Y012569D01*
X012242Y012688D01*
X012281Y012805D01*
X012330Y012918D01*
X012389Y013025D01*
X012457Y013127D01*
X012535Y013223D01*
X012621Y013311D01*
X012714Y013390D01*
X012814Y013461D01*
X012921Y013523D01*
X013032Y013574D01*
X013148Y013615D01*
X013267Y013646D01*
X013389Y013665D01*
X013511Y013674D01*
X013634Y013671D01*
X013756Y013657D01*
X013877Y013632D01*
X013994Y013596D01*
X014108Y013550D01*
X014217Y013493D01*
X014321Y013427D01*
X014418Y013352D01*
X014507Y013268D01*
X014589Y013176D01*
X014662Y013077D01*
X014726Y012972D01*
X014780Y012862D01*
X014824Y012747D01*
X014857Y012629D01*
X014879Y012508D01*
X014891Y012385D01*
X014891Y012263D01*
X014879Y012140D01*
X014857Y012019D01*
X014824Y011901D01*
X014780Y011786D01*
X014726Y011676D01*
X014662Y011571D01*
X014589Y011472D01*
X014507Y011380D01*
X014418Y011296D01*
X014321Y011221D01*
X014217Y011155D01*
X014108Y011098D01*
X013994Y011052D01*
X013877Y011016D01*
X013756Y010991D01*
X013634Y010977D01*
X013511Y010974D01*
X013389Y010983D01*
X013267Y011002D01*
X013148Y011033D01*
X013032Y011074D01*
X012921Y011125D01*
X012814Y011187D01*
X012714Y011258D01*
X012621Y011337D01*
X012535Y011425D01*
X012457Y011521D01*
X012389Y011623D01*
X012330Y011730D01*
X012281Y011843D01*
X012242Y011960D01*
X012214Y012079D01*
X012198Y012201D01*
X012192Y012324D01*
X012342Y012324D02*
X012642Y012324D01*
X012492Y012174D02*
X012492Y012474D01*
X011892Y012624D02*
X011892Y012974D01*
X011842Y013024D01*
X011842Y016824D01*
X011892Y016874D01*
X011892Y017224D01*
X011890Y017244D01*
X011884Y017262D01*
X011875Y017280D01*
X011863Y017295D01*
X011848Y017307D01*
X011830Y017316D01*
X011812Y017322D01*
X011792Y017324D01*
X010292Y017324D01*
X010272Y017322D01*
X010254Y017316D01*
X010236Y017307D01*
X010221Y017295D01*
X010209Y017280D01*
X010200Y017262D01*
X010194Y017244D01*
X010192Y017224D01*
X010192Y016874D01*
X010242Y016824D01*
X010242Y013024D01*
X010192Y012974D01*
X010192Y012624D01*
X010194Y012604D01*
X010200Y012586D01*
X010209Y012568D01*
X010221Y012553D01*
X010236Y012541D01*
X010254Y012532D01*
X010272Y012526D01*
X010292Y012524D01*
X011792Y012524D01*
X011812Y012526D01*
X011830Y012532D01*
X011848Y012541D01*
X011863Y012553D01*
X011875Y012568D01*
X011884Y012586D01*
X011890Y012604D01*
X011892Y012624D01*
X012492Y015674D02*
X012492Y015974D01*
X012342Y015824D02*
X012642Y015824D01*
X012192Y015824D02*
X012198Y015947D01*
X012214Y016069D01*
X012242Y016188D01*
X012281Y016305D01*
X012330Y016418D01*
X012389Y016525D01*
X012457Y016627D01*
X012535Y016723D01*
X012621Y016811D01*
X012714Y016890D01*
X012814Y016961D01*
X012921Y017023D01*
X013032Y017074D01*
X013148Y017115D01*
X013267Y017146D01*
X013389Y017165D01*
X013511Y017174D01*
X013634Y017171D01*
X013756Y017157D01*
X013877Y017132D01*
X013994Y017096D01*
X014108Y017050D01*
X014217Y016993D01*
X014321Y016927D01*
X014418Y016852D01*
X014507Y016768D01*
X014589Y016676D01*
X014662Y016577D01*
X014726Y016472D01*
X014780Y016362D01*
X014824Y016247D01*
X014857Y016129D01*
X014879Y016008D01*
X014891Y015885D01*
X014891Y015763D01*
X014879Y015640D01*
X014857Y015519D01*
X014824Y015401D01*
X014780Y015286D01*
X014726Y015176D01*
X014662Y015071D01*
X014589Y014972D01*
X014507Y014880D01*
X014418Y014796D01*
X014321Y014721D01*
X014217Y014655D01*
X014108Y014598D01*
X013994Y014552D01*
X013877Y014516D01*
X013756Y014491D01*
X013634Y014477D01*
X013511Y014474D01*
X013389Y014483D01*
X013267Y014502D01*
X013148Y014533D01*
X013032Y014574D01*
X012921Y014625D01*
X012814Y014687D01*
X012714Y014758D01*
X012621Y014837D01*
X012535Y014925D01*
X012457Y015021D01*
X012389Y015123D01*
X012330Y015230D01*
X012281Y015343D01*
X012242Y015460D01*
X012214Y015579D01*
X012198Y015701D01*
X012192Y015824D01*
X017842Y017424D02*
X018142Y017424D01*
X017992Y017274D02*
X017992Y017574D01*
X017692Y017424D02*
X017698Y017547D01*
X017714Y017669D01*
X017742Y017788D01*
X017781Y017905D01*
X017830Y018018D01*
X017889Y018125D01*
X017957Y018227D01*
X018035Y018323D01*
X018121Y018411D01*
X018214Y018490D01*
X018314Y018561D01*
X018421Y018623D01*
X018532Y018674D01*
X018648Y018715D01*
X018767Y018746D01*
X018889Y018765D01*
X019011Y018774D01*
X019134Y018771D01*
X019256Y018757D01*
X019377Y018732D01*
X019494Y018696D01*
X019608Y018650D01*
X019717Y018593D01*
X019821Y018527D01*
X019918Y018452D01*
X020007Y018368D01*
X020089Y018276D01*
X020162Y018177D01*
X020226Y018072D01*
X020280Y017962D01*
X020324Y017847D01*
X020357Y017729D01*
X020379Y017608D01*
X020391Y017485D01*
X020391Y017363D01*
X020379Y017240D01*
X020357Y017119D01*
X020324Y017001D01*
X020280Y016886D01*
X020226Y016776D01*
X020162Y016671D01*
X020089Y016572D01*
X020007Y016480D01*
X019918Y016396D01*
X019821Y016321D01*
X019717Y016255D01*
X019608Y016198D01*
X019494Y016152D01*
X019377Y016116D01*
X019256Y016091D01*
X019134Y016077D01*
X019011Y016074D01*
X018889Y016083D01*
X018767Y016102D01*
X018648Y016133D01*
X018532Y016174D01*
X018421Y016225D01*
X018314Y016287D01*
X018214Y016358D01*
X018121Y016437D01*
X018035Y016525D01*
X017957Y016621D01*
X017889Y016723D01*
X017830Y016830D01*
X017781Y016943D01*
X017742Y017060D01*
X017714Y017179D01*
X017698Y017301D01*
X017692Y017424D01*
X012192Y019324D02*
X012198Y019447D01*
X012214Y019569D01*
X012242Y019688D01*
X012281Y019805D01*
X012330Y019918D01*
X012389Y020025D01*
X012457Y020127D01*
X012535Y020223D01*
X012621Y020311D01*
X012714Y020390D01*
X012814Y020461D01*
X012921Y020523D01*
X013032Y020574D01*
X013148Y020615D01*
X013267Y020646D01*
X013389Y020665D01*
X013511Y020674D01*
X013634Y020671D01*
X013756Y020657D01*
X013877Y020632D01*
X013994Y020596D01*
X014108Y020550D01*
X014217Y020493D01*
X014321Y020427D01*
X014418Y020352D01*
X014507Y020268D01*
X014589Y020176D01*
X014662Y020077D01*
X014726Y019972D01*
X014780Y019862D01*
X014824Y019747D01*
X014857Y019629D01*
X014879Y019508D01*
X014891Y019385D01*
X014891Y019263D01*
X014879Y019140D01*
X014857Y019019D01*
X014824Y018901D01*
X014780Y018786D01*
X014726Y018676D01*
X014662Y018571D01*
X014589Y018472D01*
X014507Y018380D01*
X014418Y018296D01*
X014321Y018221D01*
X014217Y018155D01*
X014108Y018098D01*
X013994Y018052D01*
X013877Y018016D01*
X013756Y017991D01*
X013634Y017977D01*
X013511Y017974D01*
X013389Y017983D01*
X013267Y018002D01*
X013148Y018033D01*
X013032Y018074D01*
X012921Y018125D01*
X012814Y018187D01*
X012714Y018258D01*
X012621Y018337D01*
X012535Y018425D01*
X012457Y018521D01*
X012389Y018623D01*
X012330Y018730D01*
X012281Y018843D01*
X012242Y018960D01*
X012214Y019079D01*
X012198Y019201D01*
X012192Y019324D01*
X012342Y019324D02*
X012642Y019324D01*
X012492Y019174D02*
X012492Y019474D01*
X009642Y021654D02*
X006442Y021654D01*
X006419Y021656D01*
X006396Y021661D01*
X006374Y021670D01*
X006354Y021683D01*
X006336Y021698D01*
X006321Y021716D01*
X006308Y021736D01*
X006299Y021758D01*
X006294Y021781D01*
X006292Y021804D01*
X006292Y023044D01*
X006294Y023067D01*
X006299Y023090D01*
X006308Y023112D01*
X006321Y023132D01*
X006336Y023150D01*
X006354Y023165D01*
X006374Y023178D01*
X006396Y023187D01*
X006419Y023192D01*
X006442Y023194D01*
X009642Y023194D01*
X009665Y023192D01*
X009688Y023187D01*
X009710Y023178D01*
X009730Y023165D01*
X009748Y023150D01*
X009763Y023132D01*
X009776Y023112D01*
X009785Y023090D01*
X009790Y023067D01*
X009792Y023044D01*
X009792Y021804D01*
X009790Y021781D01*
X009785Y021758D01*
X009776Y021736D01*
X009763Y021716D01*
X009748Y021698D01*
X009730Y021683D01*
X009710Y021670D01*
X009688Y021661D01*
X009665Y021656D01*
X009642Y021654D01*
X012342Y022824D02*
X012642Y022824D01*
X012492Y022674D02*
X012492Y022974D01*
X012192Y022824D02*
X012198Y022947D01*
X012214Y023069D01*
X012242Y023188D01*
X012281Y023305D01*
X012330Y023418D01*
X012389Y023525D01*
X012457Y023627D01*
X012535Y023723D01*
X012621Y023811D01*
X012714Y023890D01*
X012814Y023961D01*
X012921Y024023D01*
X013032Y024074D01*
X013148Y024115D01*
X013267Y024146D01*
X013389Y024165D01*
X013511Y024174D01*
X013634Y024171D01*
X013756Y024157D01*
X013877Y024132D01*
X013994Y024096D01*
X014108Y024050D01*
X014217Y023993D01*
X014321Y023927D01*
X014418Y023852D01*
X014507Y023768D01*
X014589Y023676D01*
X014662Y023577D01*
X014726Y023472D01*
X014780Y023362D01*
X014824Y023247D01*
X014857Y023129D01*
X014879Y023008D01*
X014891Y022885D01*
X014891Y022763D01*
X014879Y022640D01*
X014857Y022519D01*
X014824Y022401D01*
X014780Y022286D01*
X014726Y022176D01*
X014662Y022071D01*
X014589Y021972D01*
X014507Y021880D01*
X014418Y021796D01*
X014321Y021721D01*
X014217Y021655D01*
X014108Y021598D01*
X013994Y021552D01*
X013877Y021516D01*
X013756Y021491D01*
X013634Y021477D01*
X013511Y021474D01*
X013389Y021483D01*
X013267Y021502D01*
X013148Y021533D01*
X013032Y021574D01*
X012921Y021625D01*
X012814Y021687D01*
X012714Y021758D01*
X012621Y021837D01*
X012535Y021925D01*
X012457Y022021D01*
X012389Y022123D01*
X012330Y022230D01*
X012281Y022343D01*
X012242Y022460D01*
X012214Y022579D01*
X012198Y022701D01*
X012192Y022824D01*
X006292Y022624D02*
X006320Y022622D01*
X006348Y022616D01*
X006375Y022606D01*
X006400Y022592D01*
X006423Y022575D01*
X006443Y022555D01*
X006460Y022532D01*
X006474Y022507D01*
X006484Y022480D01*
X006490Y022452D01*
X006492Y022424D01*
X006490Y022396D01*
X006484Y022368D01*
X006474Y022341D01*
X006460Y022316D01*
X006443Y022293D01*
X006423Y022273D01*
X006400Y022256D01*
X006375Y022242D01*
X006348Y022232D01*
X006320Y022226D01*
X006292Y022224D01*
X003542Y022274D02*
X003292Y022024D01*
X003542Y021774D01*
X003542Y021274D01*
X003292Y021024D01*
X003542Y020774D01*
X003542Y020274D01*
X003292Y020024D01*
X003542Y019774D01*
X003542Y019274D01*
X003292Y019024D01*
X003542Y018774D01*
X003542Y018274D01*
X003292Y018024D01*
X003542Y017774D01*
X003542Y017274D01*
X003292Y017024D01*
X003542Y016774D01*
X003542Y016274D01*
X003292Y016024D01*
X003542Y015774D01*
X003542Y015274D01*
X003292Y015024D01*
X003542Y014774D01*
X003542Y014274D01*
X003292Y014024D01*
X001792Y014024D01*
X001542Y014274D01*
X001542Y014774D01*
X001792Y015024D01*
X001542Y015274D01*
X001542Y015774D01*
X001792Y016024D01*
X001542Y016274D01*
X001542Y016774D01*
X001792Y017024D01*
X001542Y017274D01*
X001542Y017774D01*
X001792Y018024D01*
X001542Y018274D01*
X001542Y018774D01*
X001792Y019024D01*
X001542Y019274D01*
X001542Y019774D01*
X001792Y020024D01*
X001542Y020274D01*
X001542Y020774D01*
X001792Y021024D01*
X001542Y021274D01*
X001542Y021774D01*
X001792Y022024D01*
X001542Y022274D01*
X001542Y022774D01*
X001792Y023024D01*
X001542Y023274D01*
X001542Y023774D01*
X001792Y024024D01*
X003292Y024024D01*
X003542Y023774D01*
X003542Y023274D01*
X003292Y023024D01*
X003542Y022774D01*
X003542Y022274D01*
X012342Y026324D02*
X012642Y026324D01*
X012492Y026174D02*
X012492Y026474D01*
X012192Y026324D02*
X012198Y026447D01*
X012214Y026569D01*
X012242Y026688D01*
X012281Y026805D01*
X012330Y026918D01*
X012389Y027025D01*
X012457Y027127D01*
X012535Y027223D01*
X012621Y027311D01*
X012714Y027390D01*
X012814Y027461D01*
X012921Y027523D01*
X013032Y027574D01*
X013148Y027615D01*
X013267Y027646D01*
X013389Y027665D01*
X013511Y027674D01*
X013634Y027671D01*
X013756Y027657D01*
X013877Y027632D01*
X013994Y027596D01*
X014108Y027550D01*
X014217Y027493D01*
X014321Y027427D01*
X014418Y027352D01*
X014507Y027268D01*
X014589Y027176D01*
X014662Y027077D01*
X014726Y026972D01*
X014780Y026862D01*
X014824Y026747D01*
X014857Y026629D01*
X014879Y026508D01*
X014891Y026385D01*
X014891Y026263D01*
X014879Y026140D01*
X014857Y026019D01*
X014824Y025901D01*
X014780Y025786D01*
X014726Y025676D01*
X014662Y025571D01*
X014589Y025472D01*
X014507Y025380D01*
X014418Y025296D01*
X014321Y025221D01*
X014217Y025155D01*
X014108Y025098D01*
X013994Y025052D01*
X013877Y025016D01*
X013756Y024991D01*
X013634Y024977D01*
X013511Y024974D01*
X013389Y024983D01*
X013267Y025002D01*
X013148Y025033D01*
X013032Y025074D01*
X012921Y025125D01*
X012814Y025187D01*
X012714Y025258D01*
X012621Y025337D01*
X012535Y025425D01*
X012457Y025521D01*
X012389Y025623D01*
X012330Y025730D01*
X012281Y025843D01*
X012242Y025960D01*
X012214Y026079D01*
X012198Y026201D01*
X012192Y026324D01*
X014792Y030324D02*
X009292Y030324D01*
X009142Y030474D01*
X008942Y031724D01*
X009042Y032324D01*
X015042Y032324D01*
X015142Y031724D01*
X014942Y030474D01*
X014792Y030324D01*
X017142Y030474D02*
X016942Y031724D01*
X017042Y032324D01*
X023042Y032324D01*
X023142Y031724D01*
X022942Y030474D01*
X022792Y030324D01*
X017292Y030324D01*
X017142Y030474D01*
X024442Y031724D02*
X024542Y032324D01*
X030542Y032324D01*
X030642Y031724D01*
X030442Y030474D01*
X030292Y030324D01*
X024792Y030324D01*
X024642Y030474D01*
X024442Y031724D01*
X030442Y028324D02*
X034442Y028324D01*
X034442Y026124D01*
X030442Y026124D01*
X030442Y028324D01*
X031542Y027224D02*
X032442Y027224D01*
X032442Y027454D01*
X032442Y027224D02*
X031992Y027454D01*
X031992Y026994D01*
X032442Y027224D01*
X032442Y026994D01*
X032442Y027224D02*
X032942Y027224D01*
X032792Y030324D02*
X032642Y030474D01*
X032442Y031724D01*
X032542Y032324D01*
X038542Y032324D01*
X038642Y031724D01*
X038442Y030474D01*
X038292Y030324D01*
X032792Y030324D01*
X039942Y031724D02*
X040142Y030474D01*
X040292Y030324D01*
X045792Y030324D01*
X045942Y030474D01*
X046142Y031724D01*
X046042Y032324D01*
X040042Y032324D01*
X039942Y031724D01*
X047942Y031724D02*
X048142Y030474D01*
X048292Y030324D01*
X053792Y030324D01*
X053942Y030474D01*
X054142Y031724D01*
X054042Y032324D01*
X048042Y032324D01*
X047942Y031724D01*
X055442Y031724D02*
X055642Y030474D01*
X055792Y030324D01*
X061292Y030324D01*
X061442Y030474D01*
X061642Y031724D01*
X061542Y032324D01*
X055542Y032324D01*
X055442Y031724D01*
X061642Y028724D02*
X061642Y027124D01*
X062642Y027124D01*
X062642Y028724D01*
X061642Y028724D01*
X061892Y028324D02*
X062142Y027924D01*
X062392Y027924D01*
X062142Y027924D02*
X061892Y027924D01*
X062142Y027924D02*
X062142Y028524D01*
X061892Y028324D02*
X062392Y028324D01*
X062142Y027924D01*
X062142Y027674D01*
X063442Y027124D02*
X064442Y027124D01*
X064442Y028724D01*
X063442Y028724D01*
X063442Y027124D01*
X063942Y027674D02*
X063942Y027924D01*
X064192Y027924D01*
X063942Y027924D02*
X063692Y027924D01*
X063942Y027924D02*
X063692Y028324D01*
X064192Y028324D01*
X063942Y027924D01*
X063942Y028524D01*
X063442Y023524D02*
X063442Y021924D01*
X064442Y021924D01*
X064442Y023524D01*
X063442Y023524D01*
X063692Y023124D02*
X063942Y022724D01*
X064192Y022724D01*
X063942Y022724D02*
X063692Y022724D01*
X063942Y022724D02*
X063942Y022474D01*
X063942Y022724D02*
X063942Y023324D01*
X063692Y023124D02*
X064192Y023124D01*
X063942Y022724D01*
X062642Y021924D02*
X061642Y021924D01*
X061642Y023524D01*
X062642Y023524D01*
X062642Y021924D01*
X062142Y022474D02*
X062142Y022724D01*
X062392Y022724D01*
X062142Y022724D02*
X061892Y022724D01*
X062142Y022724D02*
X061892Y023124D01*
X062392Y023124D01*
X062142Y022724D01*
X062142Y023324D01*
X053792Y022244D02*
X053792Y021004D01*
X053790Y020981D01*
X053785Y020958D01*
X053776Y020936D01*
X053763Y020916D01*
X053748Y020898D01*
X053730Y020883D01*
X053710Y020870D01*
X053688Y020861D01*
X053665Y020856D01*
X053642Y020854D01*
X050442Y020854D01*
X050419Y020856D01*
X050396Y020861D01*
X050374Y020870D01*
X050354Y020883D01*
X050336Y020898D01*
X050321Y020916D01*
X050308Y020936D01*
X050299Y020958D01*
X050294Y020981D01*
X050292Y021004D01*
X050292Y022244D01*
X050294Y022267D01*
X050299Y022290D01*
X050308Y022312D01*
X050321Y022332D01*
X050336Y022350D01*
X050354Y022365D01*
X050374Y022378D01*
X050396Y022387D01*
X050419Y022392D01*
X050442Y022394D01*
X053642Y022394D01*
X053665Y022392D01*
X053688Y022387D01*
X053710Y022378D01*
X053730Y022365D01*
X053748Y022350D01*
X053763Y022332D01*
X053776Y022312D01*
X053785Y022290D01*
X053790Y022267D01*
X053792Y022244D01*
X050292Y021824D02*
X050320Y021822D01*
X050348Y021816D01*
X050375Y021806D01*
X050400Y021792D01*
X050423Y021775D01*
X050443Y021755D01*
X050460Y021732D01*
X050474Y021707D01*
X050484Y021680D01*
X050490Y021652D01*
X050492Y021624D01*
X050490Y021596D01*
X050484Y021568D01*
X050474Y021541D01*
X050460Y021516D01*
X050443Y021493D01*
X050423Y021473D01*
X050400Y021456D01*
X050375Y021442D01*
X050348Y021432D01*
X050320Y021426D01*
X050292Y021424D01*
X046692Y019824D02*
X046698Y019947D01*
X046714Y020069D01*
X046742Y020188D01*
X046781Y020305D01*
X046830Y020418D01*
X046889Y020525D01*
X046957Y020627D01*
X047035Y020723D01*
X047121Y020811D01*
X047214Y020890D01*
X047314Y020961D01*
X047421Y021023D01*
X047532Y021074D01*
X047648Y021115D01*
X047767Y021146D01*
X047889Y021165D01*
X048011Y021174D01*
X048134Y021171D01*
X048256Y021157D01*
X048377Y021132D01*
X048494Y021096D01*
X048608Y021050D01*
X048717Y020993D01*
X048821Y020927D01*
X048918Y020852D01*
X049007Y020768D01*
X049089Y020676D01*
X049162Y020577D01*
X049226Y020472D01*
X049280Y020362D01*
X049324Y020247D01*
X049357Y020129D01*
X049379Y020008D01*
X049391Y019885D01*
X049391Y019763D01*
X049379Y019640D01*
X049357Y019519D01*
X049324Y019401D01*
X049280Y019286D01*
X049226Y019176D01*
X049162Y019071D01*
X049089Y018972D01*
X049007Y018880D01*
X048918Y018796D01*
X048821Y018721D01*
X048717Y018655D01*
X048608Y018598D01*
X048494Y018552D01*
X048377Y018516D01*
X048256Y018491D01*
X048134Y018477D01*
X048011Y018474D01*
X047889Y018483D01*
X047767Y018502D01*
X047648Y018533D01*
X047532Y018574D01*
X047421Y018625D01*
X047314Y018687D01*
X047214Y018758D01*
X047121Y018837D01*
X047035Y018925D01*
X046957Y019021D01*
X046889Y019123D01*
X046830Y019230D01*
X046781Y019343D01*
X046742Y019460D01*
X046714Y019579D01*
X046698Y019701D01*
X046692Y019824D01*
X046842Y019824D02*
X047142Y019824D01*
X046992Y019674D02*
X046992Y019974D01*
X046992Y023174D02*
X046992Y023474D01*
X046842Y023324D02*
X047142Y023324D01*
X046692Y023324D02*
X046698Y023447D01*
X046714Y023569D01*
X046742Y023688D01*
X046781Y023805D01*
X046830Y023918D01*
X046889Y024025D01*
X046957Y024127D01*
X047035Y024223D01*
X047121Y024311D01*
X047214Y024390D01*
X047314Y024461D01*
X047421Y024523D01*
X047532Y024574D01*
X047648Y024615D01*
X047767Y024646D01*
X047889Y024665D01*
X048011Y024674D01*
X048134Y024671D01*
X048256Y024657D01*
X048377Y024632D01*
X048494Y024596D01*
X048608Y024550D01*
X048717Y024493D01*
X048821Y024427D01*
X048918Y024352D01*
X049007Y024268D01*
X049089Y024176D01*
X049162Y024077D01*
X049226Y023972D01*
X049280Y023862D01*
X049324Y023747D01*
X049357Y023629D01*
X049379Y023508D01*
X049391Y023385D01*
X049391Y023263D01*
X049379Y023140D01*
X049357Y023019D01*
X049324Y022901D01*
X049280Y022786D01*
X049226Y022676D01*
X049162Y022571D01*
X049089Y022472D01*
X049007Y022380D01*
X048918Y022296D01*
X048821Y022221D01*
X048717Y022155D01*
X048608Y022098D01*
X048494Y022052D01*
X048377Y022016D01*
X048256Y021991D01*
X048134Y021977D01*
X048011Y021974D01*
X047889Y021983D01*
X047767Y022002D01*
X047648Y022033D01*
X047532Y022074D01*
X047421Y022125D01*
X047314Y022187D01*
X047214Y022258D01*
X047121Y022337D01*
X047035Y022425D01*
X046957Y022521D01*
X046889Y022623D01*
X046830Y022730D01*
X046781Y022843D01*
X046742Y022960D01*
X046714Y023079D01*
X046698Y023201D01*
X046692Y023324D01*
X046992Y026674D02*
X046992Y026974D01*
X046842Y026824D02*
X047142Y026824D01*
X046692Y026824D02*
X046698Y026947D01*
X046714Y027069D01*
X046742Y027188D01*
X046781Y027305D01*
X046830Y027418D01*
X046889Y027525D01*
X046957Y027627D01*
X047035Y027723D01*
X047121Y027811D01*
X047214Y027890D01*
X047314Y027961D01*
X047421Y028023D01*
X047532Y028074D01*
X047648Y028115D01*
X047767Y028146D01*
X047889Y028165D01*
X048011Y028174D01*
X048134Y028171D01*
X048256Y028157D01*
X048377Y028132D01*
X048494Y028096D01*
X048608Y028050D01*
X048717Y027993D01*
X048821Y027927D01*
X048918Y027852D01*
X049007Y027768D01*
X049089Y027676D01*
X049162Y027577D01*
X049226Y027472D01*
X049280Y027362D01*
X049324Y027247D01*
X049357Y027129D01*
X049379Y027008D01*
X049391Y026885D01*
X049391Y026763D01*
X049379Y026640D01*
X049357Y026519D01*
X049324Y026401D01*
X049280Y026286D01*
X049226Y026176D01*
X049162Y026071D01*
X049089Y025972D01*
X049007Y025880D01*
X048918Y025796D01*
X048821Y025721D01*
X048717Y025655D01*
X048608Y025598D01*
X048494Y025552D01*
X048377Y025516D01*
X048256Y025491D01*
X048134Y025477D01*
X048011Y025474D01*
X047889Y025483D01*
X047767Y025502D01*
X047648Y025533D01*
X047532Y025574D01*
X047421Y025625D01*
X047314Y025687D01*
X047214Y025758D01*
X047121Y025837D01*
X047035Y025925D01*
X046957Y026021D01*
X046889Y026123D01*
X046830Y026230D01*
X046781Y026343D01*
X046742Y026460D01*
X046714Y026579D01*
X046698Y026701D01*
X046692Y026824D01*
X061292Y018124D02*
X061292Y017774D01*
X061342Y017724D01*
X061342Y013924D01*
X061292Y013874D01*
X061292Y013524D01*
X061294Y013504D01*
X061300Y013486D01*
X061309Y013468D01*
X061321Y013453D01*
X061336Y013441D01*
X061354Y013432D01*
X061372Y013426D01*
X061392Y013424D01*
X062892Y013424D01*
X062912Y013426D01*
X062930Y013432D01*
X062948Y013441D01*
X062963Y013453D01*
X062975Y013468D01*
X062984Y013486D01*
X062990Y013504D01*
X062992Y013524D01*
X062992Y013874D01*
X062942Y013924D01*
X062942Y017724D01*
X062992Y017774D01*
X062992Y018124D01*
X062990Y018144D01*
X062984Y018162D01*
X062975Y018180D01*
X062963Y018195D01*
X062948Y018207D01*
X062930Y018216D01*
X062912Y018222D01*
X062892Y018224D01*
X061392Y018224D01*
X061372Y018222D01*
X061354Y018216D01*
X061336Y018207D01*
X061321Y018195D01*
X061309Y018180D01*
X061300Y018162D01*
X061294Y018144D01*
X061292Y018124D01*
X063092Y018124D02*
X063092Y017774D01*
X063142Y017724D01*
X063142Y013924D01*
X063092Y013874D01*
X063092Y013524D01*
X063094Y013504D01*
X063100Y013486D01*
X063109Y013468D01*
X063121Y013453D01*
X063136Y013441D01*
X063154Y013432D01*
X063172Y013426D01*
X063192Y013424D01*
X064692Y013424D01*
X064712Y013426D01*
X064730Y013432D01*
X064748Y013441D01*
X064763Y013453D01*
X064775Y013468D01*
X064784Y013486D01*
X064790Y013504D01*
X064792Y013524D01*
X064792Y013874D01*
X064742Y013924D01*
X064742Y017724D01*
X064792Y017774D01*
X064792Y018124D01*
X064790Y018144D01*
X064784Y018162D01*
X064775Y018180D01*
X064763Y018195D01*
X064748Y018207D01*
X064730Y018216D01*
X064712Y018222D01*
X064692Y018224D01*
X063192Y018224D01*
X063172Y018222D01*
X063154Y018216D01*
X063136Y018207D01*
X063121Y018195D01*
X063109Y018180D01*
X063100Y018162D01*
X063094Y018144D01*
X063092Y018124D01*
X053942Y011994D02*
X050742Y011994D01*
X050719Y011992D01*
X050696Y011987D01*
X050674Y011978D01*
X050654Y011965D01*
X050636Y011950D01*
X050621Y011932D01*
X050608Y011912D01*
X050599Y011890D01*
X050594Y011867D01*
X050592Y011844D01*
X050592Y010604D01*
X050594Y010581D01*
X050599Y010558D01*
X050608Y010536D01*
X050621Y010516D01*
X050636Y010498D01*
X050654Y010483D01*
X050674Y010470D01*
X050696Y010461D01*
X050719Y010456D01*
X050742Y010454D01*
X053942Y010454D01*
X053965Y010456D01*
X053988Y010461D01*
X054010Y010470D01*
X054030Y010483D01*
X054048Y010498D01*
X054063Y010516D01*
X054076Y010536D01*
X054085Y010558D01*
X054090Y010581D01*
X054092Y010604D01*
X054092Y011844D01*
X054090Y011867D01*
X054085Y011890D01*
X054076Y011912D01*
X054063Y011932D01*
X054048Y011950D01*
X054030Y011965D01*
X054010Y011978D01*
X053988Y011987D01*
X053965Y011992D01*
X053942Y011994D01*
X050592Y011424D02*
X050620Y011422D01*
X050648Y011416D01*
X050675Y011406D01*
X050700Y011392D01*
X050723Y011375D01*
X050743Y011355D01*
X050760Y011332D01*
X050774Y011307D01*
X050784Y011280D01*
X050790Y011252D01*
X050792Y011224D01*
X050790Y011196D01*
X050784Y011168D01*
X050774Y011141D01*
X050760Y011116D01*
X050743Y011093D01*
X050723Y011073D01*
X050700Y011056D01*
X050675Y011042D01*
X050648Y011032D01*
X050620Y011026D01*
X050592Y011024D01*
X046692Y009324D02*
X046698Y009447D01*
X046714Y009569D01*
X046742Y009688D01*
X046781Y009805D01*
X046830Y009918D01*
X046889Y010025D01*
X046957Y010127D01*
X047035Y010223D01*
X047121Y010311D01*
X047214Y010390D01*
X047314Y010461D01*
X047421Y010523D01*
X047532Y010574D01*
X047648Y010615D01*
X047767Y010646D01*
X047889Y010665D01*
X048011Y010674D01*
X048134Y010671D01*
X048256Y010657D01*
X048377Y010632D01*
X048494Y010596D01*
X048608Y010550D01*
X048717Y010493D01*
X048821Y010427D01*
X048918Y010352D01*
X049007Y010268D01*
X049089Y010176D01*
X049162Y010077D01*
X049226Y009972D01*
X049280Y009862D01*
X049324Y009747D01*
X049357Y009629D01*
X049379Y009508D01*
X049391Y009385D01*
X049391Y009263D01*
X049379Y009140D01*
X049357Y009019D01*
X049324Y008901D01*
X049280Y008786D01*
X049226Y008676D01*
X049162Y008571D01*
X049089Y008472D01*
X049007Y008380D01*
X048918Y008296D01*
X048821Y008221D01*
X048717Y008155D01*
X048608Y008098D01*
X048494Y008052D01*
X048377Y008016D01*
X048256Y007991D01*
X048134Y007977D01*
X048011Y007974D01*
X047889Y007983D01*
X047767Y008002D01*
X047648Y008033D01*
X047532Y008074D01*
X047421Y008125D01*
X047314Y008187D01*
X047214Y008258D01*
X047121Y008337D01*
X047035Y008425D01*
X046957Y008521D01*
X046889Y008623D01*
X046830Y008730D01*
X046781Y008843D01*
X046742Y008960D01*
X046714Y009079D01*
X046698Y009201D01*
X046692Y009324D01*
X046842Y009324D02*
X047142Y009324D01*
X046992Y009174D02*
X046992Y009474D01*
X045542Y009444D02*
X045542Y009924D01*
X045542Y009194D02*
X045542Y008724D01*
X044642Y007874D02*
X044622Y007876D01*
X044604Y007882D01*
X044586Y007891D01*
X044571Y007903D01*
X044559Y007918D01*
X044550Y007936D01*
X044544Y007954D01*
X044542Y007974D01*
X044542Y010674D01*
X044544Y010694D01*
X044550Y010712D01*
X044559Y010730D01*
X044571Y010745D01*
X044586Y010757D01*
X044604Y010766D01*
X044622Y010772D01*
X044642Y010774D01*
X046442Y010774D01*
X046462Y010772D01*
X046480Y010766D01*
X046498Y010757D01*
X046513Y010745D01*
X046525Y010730D01*
X046534Y010712D01*
X046540Y010694D01*
X046542Y010674D01*
X046542Y007974D01*
X046540Y007954D01*
X046534Y007936D01*
X046525Y007918D01*
X046513Y007903D01*
X046498Y007891D01*
X046480Y007882D01*
X046462Y007876D01*
X046442Y007874D01*
X044642Y007874D01*
X044792Y011824D02*
X046292Y011824D01*
X046312Y011826D01*
X046330Y011832D01*
X046348Y011841D01*
X046363Y011853D01*
X046375Y011868D01*
X046384Y011886D01*
X046390Y011904D01*
X046392Y011924D01*
X046392Y012274D01*
X046342Y012324D01*
X046342Y016124D01*
X046392Y016174D01*
X046392Y016524D01*
X046390Y016544D01*
X046384Y016562D01*
X046375Y016580D01*
X046363Y016595D01*
X046348Y016607D01*
X046330Y016616D01*
X046312Y016622D01*
X046292Y016624D01*
X044792Y016624D01*
X044772Y016622D01*
X044754Y016616D01*
X044736Y016607D01*
X044721Y016595D01*
X044709Y016580D01*
X044700Y016562D01*
X044694Y016544D01*
X044692Y016524D01*
X044692Y016174D01*
X044742Y016124D01*
X044742Y012324D01*
X044692Y012274D01*
X044692Y011924D01*
X044694Y011904D01*
X044700Y011886D01*
X044709Y011868D01*
X044721Y011853D01*
X044736Y011841D01*
X044754Y011832D01*
X044772Y011826D01*
X044792Y011824D01*
X046842Y012824D02*
X047142Y012824D01*
X046992Y012674D02*
X046992Y012974D01*
X046692Y012824D02*
X046698Y012947D01*
X046714Y013069D01*
X046742Y013188D01*
X046781Y013305D01*
X046830Y013418D01*
X046889Y013525D01*
X046957Y013627D01*
X047035Y013723D01*
X047121Y013811D01*
X047214Y013890D01*
X047314Y013961D01*
X047421Y014023D01*
X047532Y014074D01*
X047648Y014115D01*
X047767Y014146D01*
X047889Y014165D01*
X048011Y014174D01*
X048134Y014171D01*
X048256Y014157D01*
X048377Y014132D01*
X048494Y014096D01*
X048608Y014050D01*
X048717Y013993D01*
X048821Y013927D01*
X048918Y013852D01*
X049007Y013768D01*
X049089Y013676D01*
X049162Y013577D01*
X049226Y013472D01*
X049280Y013362D01*
X049324Y013247D01*
X049357Y013129D01*
X049379Y013008D01*
X049391Y012885D01*
X049391Y012763D01*
X049379Y012640D01*
X049357Y012519D01*
X049324Y012401D01*
X049280Y012286D01*
X049226Y012176D01*
X049162Y012071D01*
X049089Y011972D01*
X049007Y011880D01*
X048918Y011796D01*
X048821Y011721D01*
X048717Y011655D01*
X048608Y011598D01*
X048494Y011552D01*
X048377Y011516D01*
X048256Y011491D01*
X048134Y011477D01*
X048011Y011474D01*
X047889Y011483D01*
X047767Y011502D01*
X047648Y011533D01*
X047532Y011574D01*
X047421Y011625D01*
X047314Y011687D01*
X047214Y011758D01*
X047121Y011837D01*
X047035Y011925D01*
X046957Y012021D01*
X046889Y012123D01*
X046830Y012230D01*
X046781Y012343D01*
X046742Y012460D01*
X046714Y012579D01*
X046698Y012701D01*
X046692Y012824D01*
X046992Y016174D02*
X046992Y016474D01*
X046842Y016324D02*
X047142Y016324D01*
X046692Y016324D02*
X046698Y016447D01*
X046714Y016569D01*
X046742Y016688D01*
X046781Y016805D01*
X046830Y016918D01*
X046889Y017025D01*
X046957Y017127D01*
X047035Y017223D01*
X047121Y017311D01*
X047214Y017390D01*
X047314Y017461D01*
X047421Y017523D01*
X047532Y017574D01*
X047648Y017615D01*
X047767Y017646D01*
X047889Y017665D01*
X048011Y017674D01*
X048134Y017671D01*
X048256Y017657D01*
X048377Y017632D01*
X048494Y017596D01*
X048608Y017550D01*
X048717Y017493D01*
X048821Y017427D01*
X048918Y017352D01*
X049007Y017268D01*
X049089Y017176D01*
X049162Y017077D01*
X049226Y016972D01*
X049280Y016862D01*
X049324Y016747D01*
X049357Y016629D01*
X049379Y016508D01*
X049391Y016385D01*
X049391Y016263D01*
X049379Y016140D01*
X049357Y016019D01*
X049324Y015901D01*
X049280Y015786D01*
X049226Y015676D01*
X049162Y015571D01*
X049089Y015472D01*
X049007Y015380D01*
X048918Y015296D01*
X048821Y015221D01*
X048717Y015155D01*
X048608Y015098D01*
X048494Y015052D01*
X048377Y015016D01*
X048256Y014991D01*
X048134Y014977D01*
X048011Y014974D01*
X047889Y014983D01*
X047767Y015002D01*
X047648Y015033D01*
X047532Y015074D01*
X047421Y015125D01*
X047314Y015187D01*
X047214Y015258D01*
X047121Y015337D01*
X047035Y015425D01*
X046957Y015521D01*
X046889Y015623D01*
X046830Y015730D01*
X046781Y015843D01*
X046742Y015960D01*
X046714Y016079D01*
X046698Y016201D01*
X046692Y016324D01*
X061292Y010774D02*
X061292Y009874D01*
X061294Y009835D01*
X061300Y009796D01*
X061309Y009758D01*
X061322Y009721D01*
X061339Y009685D01*
X061359Y009652D01*
X061383Y009620D01*
X061409Y009591D01*
X061438Y009565D01*
X061470Y009541D01*
X061503Y009521D01*
X061539Y009504D01*
X061576Y009491D01*
X061614Y009482D01*
X061653Y009476D01*
X061692Y009474D01*
X063792Y009474D01*
X063831Y009476D01*
X063870Y009482D01*
X063908Y009491D01*
X063945Y009504D01*
X063981Y009521D01*
X064014Y009541D01*
X064046Y009565D01*
X064075Y009591D01*
X064101Y009620D01*
X064125Y009652D01*
X064145Y009685D01*
X064162Y009721D01*
X064175Y009758D01*
X064184Y009796D01*
X064190Y009835D01*
X064192Y009874D01*
X064192Y010774D01*
X064190Y010813D01*
X064184Y010852D01*
X064175Y010890D01*
X064162Y010927D01*
X064145Y010963D01*
X064125Y010996D01*
X064101Y011028D01*
X064075Y011057D01*
X064046Y011083D01*
X064014Y011107D01*
X063981Y011127D01*
X063945Y011144D01*
X063908Y011157D01*
X063870Y011166D01*
X063831Y011172D01*
X063792Y011174D01*
X061692Y011174D01*
X061653Y011172D01*
X061614Y011166D01*
X061576Y011157D01*
X061539Y011144D01*
X061503Y011127D01*
X061470Y011107D01*
X061438Y011083D01*
X061409Y011057D01*
X061383Y011028D01*
X061359Y010996D01*
X061339Y010963D01*
X061322Y010927D01*
X061309Y010890D01*
X061300Y010852D01*
X061294Y010813D01*
X061292Y010774D01*
X007442Y030474D02*
X007642Y031724D01*
X007542Y032324D01*
X001542Y032324D01*
X001442Y031724D01*
X001642Y030474D01*
X001792Y030324D01*
X007292Y030324D01*
X007442Y030474D01*
D14*
X006876Y030024D02*
X006576Y029724D01*
X006651Y029649D01*
X006801Y029649D01*
X006876Y029724D01*
X006876Y030024D01*
X006801Y030099D01*
X006651Y030099D01*
X006576Y030024D01*
X006576Y029724D01*
X006416Y029874D02*
X006115Y029874D01*
X006341Y030099D01*
X006341Y029649D01*
X005955Y029724D02*
X005880Y029649D01*
X005730Y029649D01*
X005655Y029724D01*
X005655Y030024D01*
X005730Y030099D01*
X005880Y030099D01*
X005955Y030024D01*
X005495Y030024D02*
X005495Y029874D01*
X005420Y029799D01*
X005195Y029799D01*
X005195Y029649D02*
X005195Y030099D01*
X005420Y030099D01*
X005495Y030024D01*
X005035Y030099D02*
X004734Y030099D01*
X004734Y029649D01*
X004574Y029649D02*
X004424Y029799D01*
X004499Y029799D02*
X004274Y029799D01*
X004274Y029649D02*
X004274Y030099D01*
X004499Y030099D01*
X004574Y030024D01*
X004574Y029874D01*
X004499Y029799D01*
X004734Y029874D02*
X004884Y029874D01*
X004117Y029649D02*
X003967Y029649D01*
X004042Y029649D02*
X004042Y030099D01*
X003967Y030099D02*
X004117Y030099D01*
X003248Y029649D02*
X002948Y029649D01*
X003098Y029649D02*
X003098Y030099D01*
X002948Y029949D01*
X002788Y029874D02*
X002488Y029874D01*
X002328Y029874D02*
X002027Y029874D01*
X002027Y029949D02*
X002178Y030099D01*
X002328Y029949D01*
X002328Y029649D01*
X002488Y029649D02*
X002488Y030099D01*
X002788Y030099D02*
X002788Y029649D01*
X002027Y029649D02*
X002027Y029949D01*
X001867Y030024D02*
X001867Y029724D01*
X001792Y029649D01*
X001642Y029649D01*
X001567Y029724D01*
X001567Y030024D01*
X001642Y030099D01*
X001792Y030099D01*
X001867Y030024D01*
X001717Y029799D02*
X001867Y029649D01*
X003636Y028899D02*
X003861Y028899D01*
X003936Y028824D01*
X003936Y028749D01*
X003861Y028674D01*
X003636Y028674D01*
X003636Y028449D02*
X003861Y028449D01*
X003936Y028524D01*
X003936Y028599D01*
X003861Y028674D01*
X004096Y028674D02*
X004396Y028674D01*
X004557Y028749D02*
X004707Y028899D01*
X004707Y028449D01*
X004557Y028449D02*
X004857Y028449D01*
X004246Y028524D02*
X004246Y028824D01*
X003636Y028899D02*
X003636Y028449D01*
X005836Y028449D02*
X005836Y028899D01*
X005986Y028749D01*
X006136Y028899D01*
X006136Y028449D01*
X006296Y028449D02*
X006296Y028749D01*
X006446Y028899D01*
X006596Y028749D01*
X006596Y028449D01*
X006757Y028449D02*
X007057Y028449D01*
X006907Y028449D02*
X006907Y028899D01*
X006757Y028749D01*
X006596Y028674D02*
X006296Y028674D01*
X009067Y029724D02*
X009067Y030024D01*
X009142Y030099D01*
X009292Y030099D01*
X009367Y030024D01*
X009367Y029724D01*
X009292Y029649D01*
X009142Y029649D01*
X009067Y029724D01*
X009217Y029799D02*
X009367Y029649D01*
X009527Y029649D02*
X009828Y029949D01*
X009828Y030024D01*
X009753Y030099D01*
X009602Y030099D01*
X009527Y030024D01*
X009527Y029649D02*
X009828Y029649D01*
X011136Y028899D02*
X011361Y028899D01*
X011436Y028824D01*
X011436Y028749D01*
X011361Y028674D01*
X011136Y028674D01*
X011136Y028449D02*
X011361Y028449D01*
X011436Y028524D01*
X011436Y028599D01*
X011361Y028674D01*
X011596Y028674D02*
X011896Y028674D01*
X011746Y028824D02*
X011746Y028524D01*
X012057Y028524D02*
X012132Y028449D01*
X012282Y028449D01*
X012357Y028524D01*
X012357Y028599D01*
X012282Y028674D01*
X012207Y028674D01*
X012282Y028674D02*
X012357Y028749D01*
X012357Y028824D01*
X012282Y028899D01*
X012132Y028899D01*
X012057Y028824D01*
X012074Y029649D02*
X011924Y029799D01*
X011999Y029799D02*
X011774Y029799D01*
X011774Y029649D02*
X011774Y030099D01*
X011999Y030099D01*
X012074Y030024D01*
X012074Y029874D01*
X011999Y029799D01*
X012234Y029874D02*
X012384Y029874D01*
X012234Y029649D02*
X012234Y030099D01*
X012535Y030099D01*
X012695Y030099D02*
X012695Y029649D01*
X012695Y029799D02*
X012920Y029799D01*
X012995Y029874D01*
X012995Y030024D01*
X012920Y030099D01*
X012695Y030099D01*
X013155Y030024D02*
X013155Y029724D01*
X013230Y029649D01*
X013380Y029649D01*
X013455Y029724D01*
X013615Y029874D02*
X013916Y029874D01*
X014076Y029724D02*
X014376Y030024D01*
X014376Y029724D01*
X014301Y029649D01*
X014151Y029649D01*
X014076Y029724D01*
X014076Y030024D01*
X014151Y030099D01*
X014301Y030099D01*
X014376Y030024D01*
X013841Y030099D02*
X013841Y029649D01*
X013615Y029874D02*
X013841Y030099D01*
X013455Y030024D02*
X013380Y030099D01*
X013230Y030099D01*
X013155Y030024D01*
X011617Y030099D02*
X011467Y030099D01*
X011542Y030099D02*
X011542Y029649D01*
X011467Y029649D02*
X011617Y029649D01*
X011136Y028899D02*
X011136Y028449D01*
X013336Y028449D02*
X013336Y028899D01*
X013486Y028749D01*
X013636Y028899D01*
X013636Y028449D01*
X013796Y028449D02*
X013796Y028749D01*
X013946Y028899D01*
X014096Y028749D01*
X014096Y028449D01*
X014257Y028449D02*
X014557Y028749D01*
X014557Y028824D01*
X014482Y028899D01*
X014332Y028899D01*
X014257Y028824D01*
X014096Y028674D02*
X013796Y028674D01*
X014257Y028449D02*
X014557Y028449D01*
X014842Y027599D02*
X014767Y027524D01*
X014767Y027224D01*
X014842Y027149D01*
X014992Y027149D01*
X015067Y027224D01*
X015227Y027149D02*
X015528Y027149D01*
X015378Y027149D02*
X015378Y027599D01*
X015227Y027449D01*
X015067Y027524D02*
X014992Y027599D01*
X014842Y027599D01*
X015688Y027524D02*
X015763Y027599D01*
X015913Y027599D01*
X015988Y027524D01*
X015988Y027449D01*
X015913Y027374D01*
X015988Y027299D01*
X015988Y027224D01*
X015913Y027149D01*
X015763Y027149D01*
X015688Y027224D01*
X015838Y027374D02*
X015913Y027374D01*
X015449Y025661D02*
X015449Y021330D01*
X030803Y021330D01*
X030803Y025661D01*
X015449Y025661D01*
X015453Y025549D02*
X015528Y025474D01*
X015227Y025174D01*
X015302Y025099D01*
X015453Y025099D01*
X015528Y025174D01*
X015528Y025474D01*
X015453Y025549D02*
X015302Y025549D01*
X015227Y025474D01*
X015227Y025174D01*
X015067Y025099D02*
X014767Y025099D01*
X014917Y025099D02*
X014917Y025549D01*
X014767Y025399D01*
X015688Y025474D02*
X015688Y025174D01*
X015988Y025474D01*
X015988Y025174D01*
X015913Y025099D01*
X015763Y025099D01*
X015688Y025174D01*
X015688Y025474D02*
X015763Y025549D01*
X015913Y025549D01*
X015988Y025474D01*
X015838Y024099D02*
X015838Y023649D01*
X015688Y023649D02*
X015988Y023649D01*
X015688Y023949D02*
X015838Y024099D01*
X015378Y024099D02*
X015378Y023649D01*
X015528Y023649D02*
X015227Y023649D01*
X015067Y023724D02*
X014992Y023649D01*
X014842Y023649D01*
X014767Y023724D01*
X014767Y024024D01*
X014842Y024099D01*
X014992Y024099D01*
X015067Y024024D01*
X015227Y023949D02*
X015378Y024099D01*
X015453Y022049D02*
X015528Y021974D01*
X015227Y021674D01*
X015302Y021599D01*
X015453Y021599D01*
X015528Y021674D01*
X015528Y021974D01*
X015453Y022049D02*
X015302Y022049D01*
X015227Y021974D01*
X015227Y021674D01*
X015067Y021599D02*
X014767Y021599D01*
X014917Y021599D02*
X014917Y022049D01*
X014767Y021899D01*
X015688Y021974D02*
X015688Y021674D01*
X015988Y021974D01*
X015988Y021674D01*
X015913Y021599D01*
X015763Y021599D01*
X015688Y021674D01*
X015688Y021974D02*
X015763Y022049D01*
X015913Y022049D01*
X015988Y021974D01*
X015913Y020599D02*
X015988Y020524D01*
X015688Y020224D01*
X015763Y020149D01*
X015913Y020149D01*
X015988Y020224D01*
X015988Y020524D01*
X015913Y020599D02*
X015763Y020599D01*
X015688Y020524D01*
X015688Y020224D01*
X015528Y020149D02*
X015227Y020149D01*
X015378Y020149D02*
X015378Y020599D01*
X015227Y020449D01*
X015067Y020524D02*
X014992Y020599D01*
X014842Y020599D01*
X014767Y020524D01*
X014767Y020224D01*
X014842Y020149D01*
X014992Y020149D01*
X015067Y020224D01*
X014917Y018549D02*
X014917Y018099D01*
X014767Y018099D02*
X015067Y018099D01*
X015227Y018174D02*
X015528Y018474D01*
X015528Y018174D01*
X015453Y018099D01*
X015302Y018099D01*
X015227Y018174D01*
X015227Y018474D01*
X015302Y018549D01*
X015453Y018549D01*
X015528Y018474D01*
X015688Y018474D02*
X015763Y018549D01*
X015913Y018549D01*
X015988Y018474D01*
X015688Y018174D01*
X015763Y018099D01*
X015913Y018099D01*
X015988Y018174D01*
X015988Y018474D01*
X015688Y018474D02*
X015688Y018174D01*
X014917Y018549D02*
X014767Y018399D01*
X014842Y017099D02*
X014767Y017024D01*
X014767Y016724D01*
X014842Y016649D01*
X014992Y016649D01*
X015067Y016724D01*
X015227Y016649D02*
X015528Y016649D01*
X015378Y016649D02*
X015378Y017099D01*
X015227Y016949D01*
X015067Y017024D02*
X014992Y017099D01*
X014842Y017099D01*
X015688Y017024D02*
X015763Y017099D01*
X015913Y017099D01*
X015988Y017024D01*
X015988Y016949D01*
X015688Y016649D01*
X015988Y016649D01*
X015913Y015049D02*
X015988Y014974D01*
X015688Y014674D01*
X015763Y014599D01*
X015913Y014599D01*
X015988Y014674D01*
X015988Y014974D01*
X015913Y015049D02*
X015763Y015049D01*
X015688Y014974D01*
X015688Y014674D01*
X015528Y014674D02*
X015453Y014599D01*
X015302Y014599D01*
X015227Y014674D01*
X015528Y014974D01*
X015528Y014674D01*
X015528Y014974D02*
X015453Y015049D01*
X015302Y015049D01*
X015227Y014974D01*
X015227Y014674D01*
X015067Y014599D02*
X014767Y014599D01*
X014917Y014599D02*
X014917Y015049D01*
X014767Y014899D01*
X014842Y013599D02*
X014767Y013524D01*
X014767Y013224D01*
X014842Y013149D01*
X014992Y013149D01*
X015067Y013224D01*
X015227Y013149D02*
X015528Y013149D01*
X015378Y013149D02*
X015378Y013599D01*
X015227Y013449D01*
X015067Y013524D02*
X014992Y013599D01*
X014842Y013599D01*
X015688Y013374D02*
X015988Y013374D01*
X015913Y013149D02*
X015913Y013599D01*
X015688Y013374D01*
X015992Y012430D02*
X015917Y012355D01*
X015917Y012205D01*
X015992Y012130D01*
X015917Y011970D02*
X016217Y011970D01*
X016367Y011820D01*
X016217Y011670D01*
X015917Y011670D01*
X015913Y011549D02*
X015988Y011474D01*
X015688Y011174D01*
X015763Y011099D01*
X015913Y011099D01*
X015988Y011174D01*
X015988Y011474D01*
X015992Y011510D02*
X016142Y011510D01*
X016217Y011435D01*
X016217Y011209D01*
X016367Y011209D02*
X015917Y011209D01*
X015917Y011435D01*
X015992Y011510D01*
X015913Y011549D02*
X015763Y011549D01*
X015688Y011474D01*
X015688Y011174D01*
X015528Y011174D02*
X015453Y011099D01*
X015302Y011099D01*
X015227Y011174D01*
X015528Y011474D01*
X015528Y011174D01*
X015528Y011474D02*
X015453Y011549D01*
X015302Y011549D01*
X015227Y011474D01*
X015227Y011174D01*
X015067Y011099D02*
X014767Y011099D01*
X014917Y011099D02*
X014917Y011549D01*
X014767Y011399D01*
X015917Y010974D02*
X015917Y010749D01*
X016367Y010749D01*
X016367Y010974D01*
X016292Y011049D01*
X015992Y011049D01*
X015917Y010974D01*
X016217Y011360D02*
X016367Y011510D01*
X016867Y011699D02*
X017017Y011699D01*
X016942Y011699D02*
X016942Y011249D01*
X016867Y011249D02*
X017017Y011249D01*
X017174Y011249D02*
X017174Y011699D01*
X017399Y011699D01*
X017474Y011624D01*
X017474Y011474D01*
X017399Y011399D01*
X017174Y011399D01*
X017324Y011399D02*
X017474Y011249D01*
X017634Y011249D02*
X017935Y011549D01*
X017935Y011624D01*
X017859Y011699D01*
X017709Y011699D01*
X017634Y011624D01*
X017634Y011249D02*
X017935Y011249D01*
X018095Y011249D02*
X018395Y011249D01*
X018245Y011249D02*
X018245Y011699D01*
X018095Y011549D01*
X018555Y011549D02*
X018555Y011624D01*
X018630Y011699D01*
X018780Y011699D01*
X018855Y011624D01*
X018855Y011549D01*
X018780Y011474D01*
X018630Y011474D01*
X018555Y011549D01*
X018630Y011474D02*
X018555Y011399D01*
X018555Y011324D01*
X018630Y011249D01*
X018780Y011249D01*
X018855Y011324D01*
X018855Y011399D01*
X018780Y011474D01*
X019015Y011474D02*
X019316Y011474D01*
X019476Y011474D02*
X019776Y011474D01*
X019936Y011549D02*
X019936Y011624D01*
X020011Y011699D01*
X020161Y011699D01*
X020236Y011624D01*
X020161Y011474D02*
X020236Y011399D01*
X020236Y011324D01*
X020161Y011249D01*
X020011Y011249D01*
X019936Y011324D01*
X020011Y011474D02*
X020161Y011474D01*
X020011Y011474D02*
X019936Y011549D01*
X019701Y011699D02*
X019476Y011474D01*
X019701Y011249D02*
X019701Y011699D01*
X019241Y011699D02*
X019015Y011474D01*
X019241Y011249D02*
X019241Y011699D01*
X016367Y012130D02*
X016067Y012430D01*
X015992Y012430D01*
X016367Y012430D02*
X016367Y012130D01*
X012667Y011039D02*
X012667Y010739D01*
X012667Y010889D02*
X012217Y010889D01*
X012367Y010739D01*
X012292Y010579D02*
X012217Y010504D01*
X012217Y010353D01*
X012292Y010278D01*
X012592Y010278D01*
X012667Y010353D01*
X012667Y010504D01*
X012592Y010579D01*
X010667Y010639D02*
X010667Y010939D01*
X010667Y010789D02*
X010217Y010789D01*
X010367Y010639D01*
X010592Y010484D02*
X010667Y010484D01*
X010667Y010409D01*
X010592Y010409D01*
X010592Y010484D01*
X014767Y010024D02*
X014767Y009724D01*
X014842Y009649D01*
X014992Y009649D01*
X015067Y009724D01*
X015227Y009649D02*
X015528Y009649D01*
X015378Y009649D02*
X015378Y010099D01*
X015227Y009949D01*
X015067Y010024D02*
X014992Y010099D01*
X014842Y010099D01*
X014767Y010024D01*
X015688Y010099D02*
X015688Y009874D01*
X015838Y009949D01*
X015913Y009949D01*
X015988Y009874D01*
X015988Y009724D01*
X015913Y009649D01*
X015763Y009649D01*
X015688Y009724D01*
X015688Y010099D02*
X015988Y010099D01*
X015913Y008049D02*
X015988Y007974D01*
X015688Y007674D01*
X015763Y007599D01*
X015913Y007599D01*
X015988Y007674D01*
X015988Y007974D01*
X015913Y008049D02*
X015763Y008049D01*
X015688Y007974D01*
X015688Y007674D01*
X015528Y007674D02*
X015453Y007599D01*
X015302Y007599D01*
X015227Y007674D01*
X015528Y007974D01*
X015528Y007674D01*
X015528Y007974D02*
X015453Y008049D01*
X015302Y008049D01*
X015227Y007974D01*
X015227Y007674D01*
X015067Y007599D02*
X014767Y007599D01*
X014917Y007599D02*
X014917Y008049D01*
X014767Y007899D01*
X012763Y006699D02*
X012538Y006474D01*
X012838Y006474D01*
X012763Y006249D02*
X012763Y006699D01*
X012378Y006474D02*
X012077Y006474D01*
X011917Y006399D02*
X011917Y006324D01*
X011842Y006249D01*
X011617Y006249D01*
X011617Y006699D01*
X011842Y006699D01*
X011917Y006624D01*
X011917Y006549D01*
X011842Y006474D01*
X011617Y006474D01*
X011842Y006474D02*
X011917Y006399D01*
X012228Y006324D02*
X012228Y006624D01*
X010638Y006624D02*
X010563Y006699D01*
X010413Y006699D01*
X010338Y006624D01*
X010178Y006624D02*
X010178Y006549D01*
X010103Y006474D01*
X009877Y006474D01*
X009877Y006249D02*
X010103Y006249D01*
X010178Y006324D01*
X010178Y006399D01*
X010103Y006474D01*
X010178Y006624D02*
X010103Y006699D01*
X009877Y006699D01*
X009877Y006249D01*
X009717Y006249D02*
X009717Y006699D01*
X009567Y006549D01*
X009417Y006699D01*
X009417Y006249D01*
X010338Y006249D02*
X010638Y006549D01*
X010638Y006624D01*
X010638Y006249D02*
X010338Y006249D01*
X010365Y005499D02*
X010665Y005499D01*
X010825Y005499D02*
X011051Y005499D01*
X011126Y005424D01*
X011126Y005274D01*
X011051Y005199D01*
X010825Y005199D01*
X010825Y005049D02*
X010825Y005499D01*
X010515Y005274D02*
X010365Y005274D01*
X010205Y005274D02*
X010130Y005199D01*
X009905Y005199D01*
X010055Y005199D02*
X010205Y005049D01*
X010365Y005049D02*
X010365Y005499D01*
X010205Y005424D02*
X010205Y005274D01*
X010205Y005424D02*
X010130Y005499D01*
X009905Y005499D01*
X009905Y005049D01*
X009748Y005049D02*
X009598Y005049D01*
X009673Y005049D02*
X009673Y005499D01*
X009598Y005499D02*
X009748Y005499D01*
X011286Y005424D02*
X011286Y005124D01*
X011361Y005049D01*
X011511Y005049D01*
X011586Y005124D01*
X011746Y005274D02*
X012046Y005274D01*
X012206Y005124D02*
X012507Y005424D01*
X012507Y005124D01*
X012432Y005049D01*
X012281Y005049D01*
X012206Y005124D01*
X012206Y005424D01*
X012281Y005499D01*
X012432Y005499D01*
X012507Y005424D01*
X011971Y005499D02*
X011746Y005274D01*
X011586Y005424D02*
X011511Y005499D01*
X011361Y005499D01*
X011286Y005424D01*
X011971Y005499D02*
X011971Y005049D01*
X013226Y005124D02*
X013226Y005424D01*
X013301Y005499D01*
X013451Y005499D01*
X013526Y005424D01*
X013526Y005124D01*
X013451Y005049D01*
X013301Y005049D01*
X013226Y005124D01*
X013376Y005199D02*
X013526Y005049D01*
X013686Y005049D02*
X013911Y005049D01*
X013986Y005124D01*
X013986Y005199D01*
X013911Y005274D01*
X013686Y005274D01*
X013686Y005049D02*
X013686Y005499D01*
X013911Y005499D01*
X013986Y005424D01*
X013986Y005349D01*
X013911Y005274D01*
X014146Y005274D02*
X014446Y005274D01*
X014607Y005424D02*
X014682Y005499D01*
X014832Y005499D01*
X014907Y005424D01*
X014907Y005349D01*
X014607Y005049D01*
X014907Y005049D01*
X014446Y005049D02*
X014446Y005499D01*
X014146Y005499D02*
X014146Y005049D01*
X017598Y005049D02*
X017748Y005049D01*
X017673Y005049D02*
X017673Y005499D01*
X017598Y005499D02*
X017748Y005499D01*
X017905Y005499D02*
X018130Y005499D01*
X018205Y005424D01*
X018205Y005274D01*
X018130Y005199D01*
X017905Y005199D01*
X018055Y005199D02*
X018205Y005049D01*
X018365Y005049D02*
X018365Y005499D01*
X018665Y005499D01*
X018825Y005499D02*
X019051Y005499D01*
X019126Y005424D01*
X019126Y005274D01*
X019051Y005199D01*
X018825Y005199D01*
X018825Y005049D02*
X018825Y005499D01*
X018515Y005274D02*
X018365Y005274D01*
X017905Y005049D02*
X017905Y005499D01*
X017642Y006249D02*
X017417Y006249D01*
X017417Y006699D01*
X017642Y006699D01*
X017717Y006624D01*
X017717Y006549D01*
X017642Y006474D01*
X017417Y006474D01*
X017642Y006474D02*
X017717Y006399D01*
X017717Y006324D01*
X017642Y006249D01*
X017877Y006474D02*
X018178Y006474D01*
X018338Y006624D02*
X018413Y006699D01*
X018563Y006699D01*
X018638Y006624D01*
X018638Y006549D01*
X018338Y006249D01*
X018638Y006249D01*
X019617Y006249D02*
X019617Y006699D01*
X019767Y006549D01*
X019917Y006699D01*
X019917Y006249D01*
X020077Y006249D02*
X020303Y006249D01*
X020378Y006324D01*
X020378Y006399D01*
X020303Y006474D01*
X020077Y006474D01*
X020077Y006249D02*
X020077Y006699D01*
X020303Y006699D01*
X020378Y006624D01*
X020378Y006549D01*
X020303Y006474D01*
X020538Y006324D02*
X020613Y006249D01*
X020763Y006249D01*
X020838Y006324D01*
X020838Y006399D01*
X020763Y006474D01*
X020688Y006474D01*
X020763Y006474D02*
X020838Y006549D01*
X020838Y006624D01*
X020763Y006699D01*
X020613Y006699D01*
X020538Y006624D01*
X020432Y005499D02*
X020507Y005424D01*
X020206Y005124D01*
X020281Y005049D01*
X020432Y005049D01*
X020507Y005124D01*
X020507Y005424D01*
X020432Y005499D02*
X020281Y005499D01*
X020206Y005424D01*
X020206Y005124D01*
X020046Y005274D02*
X019746Y005274D01*
X019971Y005499D01*
X019971Y005049D01*
X019586Y005124D02*
X019511Y005049D01*
X019361Y005049D01*
X019286Y005124D01*
X019286Y005424D01*
X019361Y005499D01*
X019511Y005499D01*
X019586Y005424D01*
X021226Y005424D02*
X021226Y005124D01*
X021301Y005049D01*
X021451Y005049D01*
X021526Y005124D01*
X021526Y005424D01*
X021451Y005499D01*
X021301Y005499D01*
X021226Y005424D01*
X021376Y005199D02*
X021526Y005049D01*
X021686Y005049D02*
X021911Y005049D01*
X021986Y005124D01*
X021986Y005199D01*
X021911Y005274D01*
X021686Y005274D01*
X021686Y005049D02*
X021686Y005499D01*
X021911Y005499D01*
X021986Y005424D01*
X021986Y005349D01*
X021911Y005274D01*
X022146Y005049D02*
X022446Y005049D01*
X022607Y005049D02*
X022907Y005049D01*
X022757Y005049D02*
X022757Y005499D01*
X022607Y005349D01*
X022146Y005499D02*
X022146Y005049D01*
X025098Y005049D02*
X025248Y005049D01*
X025173Y005049D02*
X025173Y005499D01*
X025098Y005499D02*
X025248Y005499D01*
X025405Y005499D02*
X025630Y005499D01*
X025705Y005424D01*
X025705Y005274D01*
X025630Y005199D01*
X025405Y005199D01*
X025555Y005199D02*
X025705Y005049D01*
X025865Y005049D02*
X025865Y005499D01*
X026165Y005499D01*
X026325Y005499D02*
X026551Y005499D01*
X026626Y005424D01*
X026626Y005274D01*
X026551Y005199D01*
X026325Y005199D01*
X026325Y005049D02*
X026325Y005499D01*
X026015Y005274D02*
X025865Y005274D01*
X025405Y005049D02*
X025405Y005499D01*
X025142Y006249D02*
X024917Y006249D01*
X024917Y006699D01*
X025142Y006699D01*
X025217Y006624D01*
X025217Y006549D01*
X025142Y006474D01*
X024917Y006474D01*
X025142Y006474D02*
X025217Y006399D01*
X025217Y006324D01*
X025142Y006249D01*
X025377Y006474D02*
X025678Y006474D01*
X025838Y006474D02*
X026138Y006474D01*
X026063Y006249D02*
X026063Y006699D01*
X025838Y006474D01*
X027117Y006249D02*
X027117Y006699D01*
X027267Y006549D01*
X027417Y006699D01*
X027417Y006249D01*
X027577Y006249D02*
X027803Y006249D01*
X027878Y006324D01*
X027878Y006399D01*
X027803Y006474D01*
X027577Y006474D01*
X027577Y006249D02*
X027577Y006699D01*
X027803Y006699D01*
X027878Y006624D01*
X027878Y006549D01*
X027803Y006474D01*
X028038Y006474D02*
X028263Y006699D01*
X028263Y006249D01*
X028338Y006474D02*
X028038Y006474D01*
X027932Y005499D02*
X027781Y005499D01*
X027706Y005424D01*
X027706Y005124D01*
X028007Y005424D01*
X028007Y005124D01*
X027932Y005049D01*
X027781Y005049D01*
X027706Y005124D01*
X027546Y005274D02*
X027246Y005274D01*
X027471Y005499D01*
X027471Y005049D01*
X027086Y005124D02*
X027011Y005049D01*
X026861Y005049D01*
X026786Y005124D01*
X026786Y005424D01*
X026861Y005499D01*
X027011Y005499D01*
X027086Y005424D01*
X027932Y005499D02*
X028007Y005424D01*
X028726Y005424D02*
X028726Y005124D01*
X028801Y005049D01*
X028951Y005049D01*
X029026Y005124D01*
X029026Y005424D01*
X028951Y005499D01*
X028801Y005499D01*
X028726Y005424D01*
X028876Y005199D02*
X029026Y005049D01*
X029186Y005049D02*
X029411Y005049D01*
X029486Y005124D01*
X029486Y005199D01*
X029411Y005274D01*
X029186Y005274D01*
X029186Y005049D02*
X029186Y005499D01*
X029411Y005499D01*
X029486Y005424D01*
X029486Y005349D01*
X029411Y005274D01*
X029646Y005499D02*
X029646Y005049D01*
X029946Y005049D01*
X030107Y005049D02*
X030407Y005349D01*
X030407Y005424D01*
X030332Y005499D01*
X030182Y005499D01*
X030107Y005424D01*
X030107Y005049D02*
X030407Y005049D01*
X033098Y005049D02*
X033248Y005049D01*
X033173Y005049D02*
X033173Y005499D01*
X033098Y005499D02*
X033248Y005499D01*
X033405Y005499D02*
X033630Y005499D01*
X033705Y005424D01*
X033705Y005274D01*
X033630Y005199D01*
X033405Y005199D01*
X033555Y005199D02*
X033705Y005049D01*
X033865Y005049D02*
X033865Y005499D01*
X034165Y005499D01*
X034325Y005499D02*
X034551Y005499D01*
X034626Y005424D01*
X034626Y005274D01*
X034551Y005199D01*
X034325Y005199D01*
X034325Y005049D02*
X034325Y005499D01*
X034015Y005274D02*
X033865Y005274D01*
X033405Y005049D02*
X033405Y005499D01*
X033377Y006249D02*
X033603Y006249D01*
X033678Y006324D01*
X033678Y006624D01*
X033603Y006699D01*
X033377Y006699D01*
X033377Y006249D01*
X033217Y006249D02*
X033217Y006699D01*
X033067Y006549D01*
X032917Y006699D01*
X032917Y006249D01*
X033838Y006249D02*
X034138Y006549D01*
X034138Y006624D01*
X034063Y006699D01*
X033913Y006699D01*
X033838Y006624D01*
X033838Y006249D02*
X034138Y006249D01*
X035117Y006249D02*
X035342Y006249D01*
X035417Y006324D01*
X035417Y006399D01*
X035342Y006474D01*
X035117Y006474D01*
X035117Y006249D02*
X035117Y006699D01*
X035342Y006699D01*
X035417Y006624D01*
X035417Y006549D01*
X035342Y006474D01*
X035577Y006474D02*
X035878Y006474D01*
X035728Y006624D02*
X035728Y006324D01*
X036038Y006324D02*
X036338Y006624D01*
X036338Y006699D01*
X036038Y006699D01*
X036038Y006324D02*
X036038Y006249D01*
X035932Y005499D02*
X035781Y005499D01*
X035706Y005424D01*
X035706Y005124D01*
X036007Y005424D01*
X036007Y005124D01*
X035932Y005049D01*
X035781Y005049D01*
X035706Y005124D01*
X035546Y005274D02*
X035246Y005274D01*
X035471Y005499D01*
X035471Y005049D01*
X035086Y005124D02*
X035011Y005049D01*
X034861Y005049D01*
X034786Y005124D01*
X034786Y005424D01*
X034861Y005499D01*
X035011Y005499D01*
X035086Y005424D01*
X035932Y005499D02*
X036007Y005424D01*
X036726Y005424D02*
X036726Y005124D01*
X036801Y005049D01*
X036951Y005049D01*
X037026Y005124D01*
X037026Y005424D01*
X036951Y005499D01*
X036801Y005499D01*
X036726Y005424D01*
X036876Y005199D02*
X037026Y005049D01*
X037186Y005049D02*
X037411Y005049D01*
X037486Y005124D01*
X037486Y005424D01*
X037411Y005499D01*
X037186Y005499D01*
X037186Y005049D01*
X037646Y005049D02*
X037646Y005499D01*
X037646Y005274D02*
X037946Y005274D01*
X038107Y005424D02*
X038182Y005499D01*
X038332Y005499D01*
X038407Y005424D01*
X038407Y005349D01*
X038107Y005049D01*
X038407Y005049D01*
X037946Y005049D02*
X037946Y005499D01*
X040417Y006249D02*
X040417Y006699D01*
X040567Y006549D01*
X040717Y006699D01*
X040717Y006249D01*
X040877Y006249D02*
X041103Y006249D01*
X041178Y006324D01*
X041178Y006624D01*
X041103Y006699D01*
X040877Y006699D01*
X040877Y006249D01*
X041338Y006249D02*
X041638Y006249D01*
X041488Y006249D02*
X041488Y006699D01*
X041338Y006549D01*
X042617Y006474D02*
X042842Y006474D01*
X042917Y006399D01*
X042917Y006324D01*
X042842Y006249D01*
X042617Y006249D01*
X042617Y006699D01*
X042842Y006699D01*
X042917Y006624D01*
X042917Y006549D01*
X042842Y006474D01*
X043077Y006474D02*
X043378Y006474D01*
X043538Y006474D02*
X043688Y006549D01*
X043763Y006549D01*
X043838Y006474D01*
X043838Y006324D01*
X043763Y006249D01*
X043613Y006249D01*
X043538Y006324D01*
X043538Y006474D02*
X043538Y006699D01*
X043838Y006699D01*
X043228Y006624D02*
X043228Y006324D01*
X043281Y005499D02*
X043432Y005499D01*
X043507Y005424D01*
X043206Y005124D01*
X043281Y005049D01*
X043432Y005049D01*
X043507Y005124D01*
X043507Y005424D01*
X043281Y005499D02*
X043206Y005424D01*
X043206Y005124D01*
X043046Y005274D02*
X042746Y005274D01*
X042971Y005499D01*
X042971Y005049D01*
X042586Y005124D02*
X042511Y005049D01*
X042361Y005049D01*
X042286Y005124D01*
X042286Y005424D01*
X042361Y005499D01*
X042511Y005499D01*
X042586Y005424D01*
X042126Y005424D02*
X042126Y005274D01*
X042051Y005199D01*
X041825Y005199D01*
X041825Y005049D02*
X041825Y005499D01*
X042051Y005499D01*
X042126Y005424D01*
X041665Y005499D02*
X041365Y005499D01*
X041365Y005049D01*
X041205Y005049D02*
X041055Y005199D01*
X041130Y005199D02*
X040905Y005199D01*
X040905Y005049D02*
X040905Y005499D01*
X041130Y005499D01*
X041205Y005424D01*
X041205Y005274D01*
X041130Y005199D01*
X041365Y005274D02*
X041515Y005274D01*
X040748Y005049D02*
X040598Y005049D01*
X040673Y005049D02*
X040673Y005499D01*
X040598Y005499D02*
X040748Y005499D01*
X044226Y005424D02*
X044226Y005124D01*
X044301Y005049D01*
X044451Y005049D01*
X044526Y005124D01*
X044526Y005424D01*
X044451Y005499D01*
X044301Y005499D01*
X044226Y005424D01*
X044376Y005199D02*
X044526Y005049D01*
X044686Y005049D02*
X044911Y005049D01*
X044986Y005124D01*
X044986Y005424D01*
X044911Y005499D01*
X044686Y005499D01*
X044686Y005049D01*
X045146Y005049D02*
X045146Y005499D01*
X045146Y005274D02*
X045446Y005274D01*
X045607Y005349D02*
X045757Y005499D01*
X045757Y005049D01*
X045607Y005049D02*
X045907Y005049D01*
X045446Y005049D02*
X045446Y005499D01*
X048417Y006249D02*
X048417Y006699D01*
X048642Y006699D01*
X048717Y006624D01*
X048717Y006549D01*
X048642Y006474D01*
X048417Y006474D01*
X048417Y006249D02*
X048642Y006249D01*
X048717Y006324D01*
X048717Y006399D01*
X048642Y006474D01*
X048877Y006474D02*
X049178Y006474D01*
X049338Y006324D02*
X049638Y006624D01*
X049638Y006699D01*
X049338Y006699D01*
X049338Y006324D02*
X049338Y006249D01*
X049365Y005499D02*
X049665Y005499D01*
X049825Y005499D02*
X049825Y005049D01*
X049825Y005199D02*
X050051Y005199D01*
X050126Y005274D01*
X050126Y005424D01*
X050051Y005499D01*
X049825Y005499D01*
X049515Y005274D02*
X049365Y005274D01*
X049205Y005274D02*
X049130Y005199D01*
X048905Y005199D01*
X049055Y005199D02*
X049205Y005049D01*
X049365Y005049D02*
X049365Y005499D01*
X049205Y005424D02*
X049205Y005274D01*
X049205Y005424D02*
X049130Y005499D01*
X048905Y005499D01*
X048905Y005049D01*
X048748Y005049D02*
X048598Y005049D01*
X048673Y005049D02*
X048673Y005499D01*
X048598Y005499D02*
X048748Y005499D01*
X050286Y005424D02*
X050286Y005124D01*
X050361Y005049D01*
X050511Y005049D01*
X050586Y005124D01*
X050746Y005274D02*
X051046Y005274D01*
X051206Y005124D02*
X051507Y005424D01*
X051507Y005124D01*
X051432Y005049D01*
X051281Y005049D01*
X051206Y005124D01*
X051206Y005424D01*
X051281Y005499D01*
X051432Y005499D01*
X051507Y005424D01*
X050971Y005499D02*
X050971Y005049D01*
X050746Y005274D02*
X050971Y005499D01*
X050586Y005424D02*
X050511Y005499D01*
X050361Y005499D01*
X050286Y005424D01*
X050617Y006249D02*
X050617Y006699D01*
X050767Y006549D01*
X050917Y006699D01*
X050917Y006249D01*
X051077Y006249D02*
X051303Y006249D01*
X051378Y006324D01*
X051378Y006624D01*
X051303Y006699D01*
X051077Y006699D01*
X051077Y006249D01*
X051538Y006474D02*
X051838Y006474D01*
X051763Y006249D02*
X051763Y006699D01*
X051538Y006474D01*
X052301Y005499D02*
X052451Y005499D01*
X052526Y005424D01*
X052526Y005124D01*
X052451Y005049D01*
X052301Y005049D01*
X052226Y005124D01*
X052226Y005424D01*
X052301Y005499D01*
X052376Y005199D02*
X052526Y005049D01*
X052686Y005049D02*
X052911Y005049D01*
X052986Y005124D01*
X052986Y005424D01*
X052911Y005499D01*
X052686Y005499D01*
X052686Y005049D01*
X053146Y005049D02*
X053146Y005499D01*
X053146Y005049D02*
X053446Y005049D01*
X053607Y005049D02*
X053907Y005349D01*
X053907Y005424D01*
X053832Y005499D01*
X053682Y005499D01*
X053607Y005424D01*
X053607Y005049D02*
X053907Y005049D01*
X056098Y005049D02*
X056248Y005049D01*
X056173Y005049D02*
X056173Y005499D01*
X056098Y005499D02*
X056248Y005499D01*
X056405Y005499D02*
X056630Y005499D01*
X056705Y005424D01*
X056705Y005274D01*
X056630Y005199D01*
X056405Y005199D01*
X056555Y005199D02*
X056705Y005049D01*
X056865Y005049D02*
X056865Y005499D01*
X057165Y005499D01*
X057325Y005499D02*
X057551Y005499D01*
X057626Y005424D01*
X057626Y005274D01*
X057551Y005199D01*
X057325Y005199D01*
X057325Y005049D02*
X057325Y005499D01*
X057015Y005274D02*
X056865Y005274D01*
X056405Y005049D02*
X056405Y005499D01*
X056142Y006249D02*
X055917Y006249D01*
X055917Y006699D01*
X056142Y006699D01*
X056217Y006624D01*
X056217Y006549D01*
X056142Y006474D01*
X055917Y006474D01*
X056142Y006474D02*
X056217Y006399D01*
X056217Y006324D01*
X056142Y006249D01*
X056377Y006474D02*
X056678Y006474D01*
X056838Y006474D02*
X056988Y006549D01*
X057063Y006549D01*
X057138Y006474D01*
X057138Y006324D01*
X057063Y006249D01*
X056913Y006249D01*
X056838Y006324D01*
X056838Y006474D02*
X056838Y006699D01*
X057138Y006699D01*
X058117Y006699D02*
X058267Y006549D01*
X058417Y006699D01*
X058417Y006249D01*
X058577Y006249D02*
X058803Y006249D01*
X058878Y006324D01*
X058878Y006624D01*
X058803Y006699D01*
X058577Y006699D01*
X058577Y006249D01*
X058117Y006249D02*
X058117Y006699D01*
X059038Y006624D02*
X059113Y006699D01*
X059263Y006699D01*
X059338Y006624D01*
X059338Y006549D01*
X059263Y006474D01*
X059338Y006399D01*
X059338Y006324D01*
X059263Y006249D01*
X059113Y006249D01*
X059038Y006324D01*
X059188Y006474D02*
X059263Y006474D01*
X058932Y005499D02*
X059007Y005424D01*
X058706Y005124D01*
X058781Y005049D01*
X058932Y005049D01*
X059007Y005124D01*
X059007Y005424D01*
X058932Y005499D02*
X058781Y005499D01*
X058706Y005424D01*
X058706Y005124D01*
X058546Y005274D02*
X058246Y005274D01*
X058471Y005499D01*
X058471Y005049D01*
X058086Y005124D02*
X058011Y005049D01*
X057861Y005049D01*
X057786Y005124D01*
X057786Y005424D01*
X057861Y005499D01*
X058011Y005499D01*
X058086Y005424D01*
X059726Y005424D02*
X059726Y005124D01*
X059801Y005049D01*
X059951Y005049D01*
X060026Y005124D01*
X060026Y005424D01*
X059951Y005499D01*
X059801Y005499D01*
X059726Y005424D01*
X059876Y005199D02*
X060026Y005049D01*
X060186Y005049D02*
X060411Y005049D01*
X060486Y005124D01*
X060486Y005424D01*
X060411Y005499D01*
X060186Y005499D01*
X060186Y005049D01*
X060646Y005049D02*
X060646Y005499D01*
X060646Y005049D02*
X060946Y005049D01*
X061107Y005049D02*
X061407Y005049D01*
X061257Y005049D02*
X061257Y005499D01*
X061107Y005349D01*
X062670Y008644D02*
X062670Y000601D01*
X066292Y000601D01*
X066292Y008644D01*
X062670Y008644D01*
X062686Y008849D02*
X062536Y008999D01*
X062611Y008999D02*
X062386Y008999D01*
X062386Y008849D02*
X062386Y009299D01*
X062611Y009299D01*
X062686Y009224D01*
X062686Y009074D01*
X062611Y008999D01*
X062846Y008849D02*
X063146Y008849D01*
X062996Y008849D02*
X062996Y009299D01*
X062846Y009149D01*
X063307Y009224D02*
X063307Y008924D01*
X063607Y009224D01*
X063607Y008924D01*
X063532Y008849D01*
X063382Y008849D01*
X063307Y008924D01*
X063307Y009224D02*
X063382Y009299D01*
X063532Y009299D01*
X063607Y009224D01*
X065142Y008624D02*
X065142Y000624D01*
X050488Y008174D02*
X050413Y008099D01*
X050263Y008099D01*
X050188Y008174D01*
X050488Y008474D01*
X050488Y008174D01*
X050188Y008174D02*
X050188Y008474D01*
X050263Y008549D01*
X050413Y008549D01*
X050488Y008474D01*
X050028Y008474D02*
X050028Y008174D01*
X049953Y008099D01*
X049802Y008099D01*
X049727Y008174D01*
X050028Y008474D01*
X049953Y008549D01*
X049802Y008549D01*
X049727Y008474D01*
X049727Y008174D01*
X049567Y008099D02*
X049267Y008099D01*
X049417Y008099D02*
X049417Y008549D01*
X049267Y008399D01*
X047167Y009853D02*
X047092Y009778D01*
X046792Y009778D01*
X046717Y009853D01*
X046717Y010004D01*
X046792Y010079D01*
X046792Y010239D02*
X046867Y010239D01*
X046942Y010314D01*
X046942Y010464D01*
X047017Y010539D01*
X047092Y010539D01*
X047167Y010464D01*
X047167Y010314D01*
X047092Y010239D01*
X047017Y010239D01*
X046942Y010314D01*
X046942Y010464D02*
X046867Y010539D01*
X046792Y010539D01*
X046717Y010464D01*
X046717Y010314D01*
X046792Y010239D01*
X047092Y010079D02*
X047167Y010004D01*
X047167Y009853D01*
X045167Y009909D02*
X045167Y009984D01*
X045092Y009984D01*
X045092Y009909D01*
X045167Y009909D01*
X045167Y010139D02*
X045167Y010439D01*
X045167Y010289D02*
X044717Y010289D01*
X044867Y010139D01*
X043042Y008124D02*
X022042Y008124D01*
X022042Y019124D01*
X043042Y019124D01*
X043042Y008124D01*
X049267Y010224D02*
X049342Y010149D01*
X049492Y010149D01*
X049567Y010224D01*
X049727Y010374D02*
X050028Y010374D01*
X050017Y010549D02*
X050017Y010774D01*
X050092Y010849D01*
X050392Y010849D01*
X050467Y010774D01*
X050467Y010549D01*
X050017Y010549D01*
X049953Y010599D02*
X049727Y010374D01*
X049567Y010524D02*
X049492Y010599D01*
X049342Y010599D01*
X049267Y010524D01*
X049267Y010224D01*
X049953Y010149D02*
X049953Y010599D01*
X050017Y011009D02*
X050017Y011235D01*
X050092Y011310D01*
X050242Y011310D01*
X050317Y011235D01*
X050317Y011009D01*
X050467Y011009D02*
X050017Y011009D01*
X050317Y011160D02*
X050467Y011310D01*
X050317Y011470D02*
X050467Y011620D01*
X050317Y011770D01*
X050017Y011770D01*
X050028Y011674D02*
X049953Y011599D01*
X049802Y011599D01*
X049727Y011674D01*
X050028Y011974D01*
X050028Y011674D01*
X050188Y011674D02*
X050488Y011974D01*
X050488Y011674D01*
X050413Y011599D01*
X050263Y011599D01*
X050188Y011674D01*
X050188Y011974D01*
X050263Y012049D01*
X050413Y012049D01*
X050488Y011974D01*
X050467Y012155D02*
X050017Y012155D01*
X050242Y011930D01*
X050242Y012230D01*
X050028Y011974D02*
X049953Y012049D01*
X049802Y012049D01*
X049727Y011974D01*
X049727Y011674D01*
X049567Y011599D02*
X049267Y011599D01*
X049417Y011599D02*
X049417Y012049D01*
X049267Y011899D01*
X050017Y011470D02*
X050317Y011470D01*
X050967Y011499D02*
X051117Y011499D01*
X051042Y011499D02*
X051042Y011049D01*
X050967Y011049D02*
X051117Y011049D01*
X051274Y011049D02*
X051274Y011499D01*
X051499Y011499D01*
X051574Y011424D01*
X051574Y011274D01*
X051499Y011199D01*
X051274Y011199D01*
X051424Y011199D02*
X051574Y011049D01*
X051734Y011049D02*
X052035Y011349D01*
X052035Y011424D01*
X051959Y011499D01*
X051809Y011499D01*
X051734Y011424D01*
X051734Y011049D02*
X052035Y011049D01*
X052195Y011049D02*
X052495Y011049D01*
X052345Y011049D02*
X052345Y011499D01*
X052195Y011349D01*
X052655Y011349D02*
X052655Y011424D01*
X052730Y011499D01*
X052880Y011499D01*
X052955Y011424D01*
X052955Y011349D01*
X052880Y011274D01*
X052730Y011274D01*
X052655Y011349D01*
X052730Y011274D02*
X052655Y011199D01*
X052655Y011124D01*
X052730Y011049D01*
X052880Y011049D01*
X052955Y011124D01*
X052955Y011199D01*
X052880Y011274D01*
X053115Y011274D02*
X053416Y011274D01*
X053576Y011274D02*
X053876Y011274D01*
X054036Y011349D02*
X054111Y011274D01*
X054261Y011274D01*
X054336Y011199D01*
X054336Y011124D01*
X054261Y011049D01*
X054111Y011049D01*
X054036Y011124D01*
X054036Y011349D02*
X054036Y011424D01*
X054111Y011499D01*
X054261Y011499D01*
X054336Y011424D01*
X053801Y011499D02*
X053576Y011274D01*
X053801Y011049D02*
X053801Y011499D01*
X053341Y011499D02*
X053341Y011049D01*
X053115Y011274D02*
X053341Y011499D01*
X055648Y009563D02*
X055648Y024917D01*
X059979Y024917D01*
X059979Y009563D01*
X055648Y009563D01*
X060314Y011349D02*
X060314Y011649D01*
X060389Y011649D01*
X060464Y011574D01*
X060539Y011649D01*
X060614Y011574D01*
X060614Y011349D01*
X060464Y011349D02*
X060464Y011574D01*
X060774Y011574D02*
X060925Y011574D01*
X061081Y011574D02*
X061382Y011574D01*
X061542Y011499D02*
X061692Y011649D01*
X061767Y011649D01*
X061925Y011649D02*
X062226Y011349D01*
X062386Y011349D02*
X062686Y011349D01*
X062536Y011349D02*
X062536Y011799D01*
X062386Y011649D01*
X062226Y011649D02*
X061925Y011349D01*
X061542Y011349D02*
X061542Y011649D01*
X060925Y011799D02*
X060850Y011724D01*
X060850Y011349D01*
X062846Y011349D02*
X063146Y011349D01*
X062996Y011349D02*
X062996Y011799D01*
X062846Y011649D01*
X063306Y011724D02*
X063306Y011424D01*
X063607Y011724D01*
X063607Y011424D01*
X063532Y011349D01*
X063381Y011349D01*
X063306Y011424D01*
X063306Y011724D02*
X063381Y011799D01*
X063532Y011799D01*
X063607Y011724D01*
X062907Y013449D02*
X062457Y013449D01*
X062457Y013674D01*
X062532Y013749D01*
X062682Y013749D01*
X062757Y013674D01*
X062757Y013449D01*
X062757Y013599D02*
X062907Y013749D01*
X062832Y013909D02*
X062907Y013984D01*
X062907Y014135D01*
X062832Y014210D01*
X062532Y014210D01*
X062457Y014135D01*
X062457Y013984D01*
X062532Y013909D01*
X062607Y013909D01*
X062682Y013984D01*
X062682Y014210D01*
X062347Y014149D02*
X062347Y014449D01*
X062347Y014299D02*
X061897Y014299D01*
X062047Y014149D01*
X061107Y014210D02*
X061107Y013909D01*
X061107Y014060D02*
X060657Y014060D01*
X060807Y013909D01*
X060882Y013749D02*
X060957Y013674D01*
X060957Y013449D01*
X061107Y013449D02*
X060657Y013449D01*
X060657Y013674D01*
X060732Y013749D01*
X060882Y013749D01*
X060957Y013599D02*
X061107Y013749D01*
X061107Y014370D02*
X061107Y014670D01*
X061107Y014520D02*
X060657Y014520D01*
X060807Y014370D01*
X063697Y014449D02*
X063697Y014149D01*
X063922Y014149D01*
X063847Y014299D01*
X063847Y014374D01*
X063922Y014449D01*
X064072Y014449D01*
X064147Y014374D01*
X064147Y014224D01*
X064072Y014149D01*
X050488Y015174D02*
X050413Y015099D01*
X050263Y015099D01*
X050188Y015174D01*
X050488Y015474D01*
X050488Y015174D01*
X050188Y015174D02*
X050188Y015474D01*
X050263Y015549D01*
X050413Y015549D01*
X050488Y015474D01*
X050028Y015474D02*
X050028Y015174D01*
X049953Y015099D01*
X049802Y015099D01*
X049727Y015174D01*
X050028Y015474D01*
X049953Y015549D01*
X049802Y015549D01*
X049727Y015474D01*
X049727Y015174D01*
X049567Y015099D02*
X049267Y015099D01*
X049417Y015099D02*
X049417Y015549D01*
X049267Y015399D01*
X049342Y014099D02*
X049267Y014024D01*
X049267Y013724D01*
X049342Y013649D01*
X049492Y013649D01*
X049567Y013724D01*
X049727Y013724D02*
X049802Y013649D01*
X049953Y013649D01*
X050028Y013724D01*
X050028Y013799D01*
X049953Y013874D01*
X049878Y013874D01*
X049953Y013874D02*
X050028Y013949D01*
X050028Y014024D01*
X049953Y014099D01*
X049802Y014099D01*
X049727Y014024D01*
X049567Y014024D02*
X049492Y014099D01*
X049342Y014099D01*
X047027Y015728D02*
X046577Y015728D01*
X046577Y015954D01*
X046652Y016029D01*
X046802Y016029D01*
X046877Y015954D01*
X046877Y015728D01*
X046877Y015878D02*
X047027Y016029D01*
X046952Y016189D02*
X047027Y016264D01*
X047027Y016414D01*
X046952Y016489D01*
X046802Y016489D01*
X046727Y016414D01*
X046727Y016339D01*
X046802Y016189D01*
X046577Y016189D01*
X046577Y016489D01*
X045787Y015714D02*
X045787Y015564D01*
X045712Y015489D01*
X045712Y015329D02*
X045787Y015254D01*
X045787Y015103D01*
X045712Y015028D01*
X045562Y015178D02*
X045562Y015254D01*
X045637Y015329D01*
X045712Y015329D01*
X045562Y015254D02*
X045487Y015329D01*
X045412Y015329D01*
X045337Y015254D01*
X045337Y015103D01*
X045412Y015028D01*
X045412Y015489D02*
X045337Y015564D01*
X045337Y015714D01*
X045412Y015789D01*
X045487Y015789D01*
X045562Y015714D01*
X045637Y015789D01*
X045712Y015789D01*
X045787Y015714D01*
X045562Y015714D02*
X045562Y015639D01*
X049267Y017224D02*
X049342Y017149D01*
X049492Y017149D01*
X049567Y017224D01*
X049727Y017224D02*
X049802Y017149D01*
X049953Y017149D01*
X050028Y017224D01*
X050028Y017299D01*
X049953Y017374D01*
X049727Y017374D01*
X049727Y017224D01*
X049727Y017374D02*
X049878Y017524D01*
X050028Y017599D01*
X049567Y017524D02*
X049492Y017599D01*
X049342Y017599D01*
X049267Y017524D01*
X049267Y017224D01*
X049267Y018599D02*
X049567Y018599D01*
X049417Y018599D02*
X049417Y019049D01*
X049267Y018899D01*
X049727Y018974D02*
X049802Y019049D01*
X049953Y019049D01*
X050028Y018974D01*
X049727Y018674D01*
X049802Y018599D01*
X049953Y018599D01*
X050028Y018674D01*
X050028Y018974D01*
X050188Y018974D02*
X050263Y019049D01*
X050413Y019049D01*
X050488Y018974D01*
X050188Y018674D01*
X050263Y018599D01*
X050413Y018599D01*
X050488Y018674D01*
X050488Y018974D01*
X050188Y018974D02*
X050188Y018674D01*
X049727Y018674D02*
X049727Y018974D01*
X049727Y020649D02*
X050028Y020949D01*
X050028Y021024D01*
X049953Y021099D01*
X049802Y021099D01*
X049727Y021024D01*
X049717Y020949D02*
X049717Y021174D01*
X049792Y021249D01*
X050092Y021249D01*
X050167Y021174D01*
X050167Y020949D01*
X049717Y020949D01*
X049567Y021024D02*
X049492Y021099D01*
X049342Y021099D01*
X049267Y021024D01*
X049267Y020724D01*
X049342Y020649D01*
X049492Y020649D01*
X049567Y020724D01*
X049727Y020649D02*
X050028Y020649D01*
X050017Y021409D02*
X050017Y021635D01*
X049942Y021710D01*
X049792Y021710D01*
X049717Y021635D01*
X049717Y021409D01*
X050167Y021409D01*
X050017Y021560D02*
X050167Y021710D01*
X050017Y021870D02*
X049717Y021870D01*
X049802Y022099D02*
X049727Y022174D01*
X050028Y022474D01*
X050028Y022174D01*
X049953Y022099D01*
X049802Y022099D01*
X049727Y022174D02*
X049727Y022474D01*
X049802Y022549D01*
X049953Y022549D01*
X050028Y022474D01*
X049942Y022480D02*
X049942Y022555D01*
X050017Y022630D01*
X050092Y022630D01*
X050167Y022555D01*
X050167Y022405D01*
X050092Y022330D01*
X050188Y022474D02*
X050263Y022549D01*
X050413Y022549D01*
X050488Y022474D01*
X050188Y022174D01*
X050263Y022099D01*
X050413Y022099D01*
X050488Y022174D01*
X050488Y022474D01*
X050188Y022474D02*
X050188Y022174D01*
X050167Y022020D02*
X050017Y022170D01*
X049717Y022170D01*
X049567Y022099D02*
X049267Y022099D01*
X049417Y022099D02*
X049417Y022549D01*
X049267Y022399D01*
X049717Y022405D02*
X049717Y022555D01*
X049792Y022630D01*
X049867Y022630D01*
X049942Y022555D01*
X049792Y022330D02*
X049717Y022405D01*
X050167Y022020D02*
X050017Y021870D01*
X050667Y021899D02*
X050817Y021899D01*
X050742Y021899D02*
X050742Y021449D01*
X050667Y021449D02*
X050817Y021449D01*
X050974Y021449D02*
X050974Y021899D01*
X051199Y021899D01*
X051274Y021824D01*
X051274Y021674D01*
X051199Y021599D01*
X050974Y021599D01*
X051124Y021599D02*
X051274Y021449D01*
X051434Y021449D02*
X051735Y021749D01*
X051735Y021824D01*
X051659Y021899D01*
X051509Y021899D01*
X051434Y021824D01*
X051434Y021449D02*
X051735Y021449D01*
X051895Y021449D02*
X052195Y021449D01*
X052045Y021449D02*
X052045Y021899D01*
X051895Y021749D01*
X052355Y021749D02*
X052355Y021824D01*
X052430Y021899D01*
X052580Y021899D01*
X052655Y021824D01*
X052655Y021749D01*
X052580Y021674D01*
X052430Y021674D01*
X052355Y021749D01*
X052430Y021674D02*
X052355Y021599D01*
X052355Y021524D01*
X052430Y021449D01*
X052580Y021449D01*
X052655Y021524D01*
X052655Y021599D01*
X052580Y021674D01*
X052815Y021674D02*
X053116Y021674D01*
X053276Y021674D02*
X053501Y021899D01*
X053501Y021449D01*
X053576Y021674D02*
X053276Y021674D01*
X053041Y021449D02*
X053041Y021899D01*
X052815Y021674D01*
X053736Y021749D02*
X053736Y021824D01*
X053811Y021899D01*
X053961Y021899D01*
X054036Y021824D01*
X053961Y021674D02*
X054036Y021599D01*
X054036Y021524D01*
X053961Y021449D01*
X053811Y021449D01*
X053736Y021524D01*
X053811Y021674D02*
X053736Y021749D01*
X053811Y021674D02*
X053961Y021674D01*
X050028Y024524D02*
X049727Y024224D01*
X049727Y024149D01*
X049567Y024224D02*
X049492Y024149D01*
X049342Y024149D01*
X049267Y024224D01*
X049267Y024524D01*
X049342Y024599D01*
X049492Y024599D01*
X049567Y024524D01*
X049727Y024599D02*
X050028Y024599D01*
X050028Y024524D01*
X049953Y025599D02*
X049802Y025599D01*
X049727Y025674D01*
X050028Y025974D01*
X050028Y025674D01*
X049953Y025599D01*
X049727Y025674D02*
X049727Y025974D01*
X049802Y026049D01*
X049953Y026049D01*
X050028Y025974D01*
X050188Y025974D02*
X050263Y026049D01*
X050413Y026049D01*
X050488Y025974D01*
X050188Y025674D01*
X050263Y025599D01*
X050413Y025599D01*
X050488Y025674D01*
X050488Y025974D01*
X050188Y025974D02*
X050188Y025674D01*
X049567Y025599D02*
X049267Y025599D01*
X049417Y025599D02*
X049417Y026049D01*
X049267Y025899D01*
X049342Y027649D02*
X049492Y027649D01*
X049567Y027724D01*
X049727Y027724D02*
X049802Y027649D01*
X049953Y027649D01*
X050028Y027724D01*
X050028Y027874D01*
X049953Y027949D01*
X049878Y027949D01*
X049727Y027874D01*
X049727Y028099D01*
X050028Y028099D01*
X050136Y028449D02*
X050136Y028899D01*
X050286Y028749D01*
X050436Y028899D01*
X050436Y028449D01*
X050596Y028524D02*
X050671Y028449D01*
X050821Y028449D01*
X050896Y028524D01*
X051057Y028674D02*
X051357Y028674D01*
X051282Y028449D02*
X051282Y028899D01*
X051057Y028674D01*
X050896Y028824D02*
X050821Y028899D01*
X050671Y028899D01*
X050596Y028824D01*
X050596Y028524D01*
X049567Y028024D02*
X049492Y028099D01*
X049342Y028099D01*
X049267Y028024D01*
X049267Y027724D01*
X049342Y027649D01*
X052336Y028449D02*
X052336Y028899D01*
X052561Y028899D01*
X052636Y028824D01*
X052636Y028749D01*
X052561Y028674D01*
X052336Y028674D01*
X052336Y028449D02*
X052561Y028449D01*
X052636Y028524D01*
X052636Y028599D01*
X052561Y028674D01*
X052796Y028674D02*
X053096Y028674D01*
X053257Y028599D02*
X053332Y028674D01*
X053482Y028674D01*
X053557Y028599D01*
X053557Y028524D01*
X053482Y028449D01*
X053332Y028449D01*
X053257Y028524D01*
X053257Y028599D01*
X053332Y028674D02*
X053257Y028749D01*
X053257Y028824D01*
X053332Y028899D01*
X053482Y028899D01*
X053557Y028824D01*
X053557Y028749D01*
X053482Y028674D01*
X053301Y029649D02*
X053151Y029649D01*
X053076Y029724D01*
X053376Y030024D01*
X053376Y029724D01*
X053301Y029649D01*
X053076Y029724D02*
X053076Y030024D01*
X053151Y030099D01*
X053301Y030099D01*
X053376Y030024D01*
X052916Y029874D02*
X052615Y029874D01*
X052841Y030099D01*
X052841Y029649D01*
X052455Y029724D02*
X052380Y029649D01*
X052230Y029649D01*
X052155Y029724D01*
X052155Y030024D01*
X052230Y030099D01*
X052380Y030099D01*
X052455Y030024D01*
X051995Y030024D02*
X051995Y029874D01*
X051920Y029799D01*
X051695Y029799D01*
X051695Y029649D02*
X051695Y030099D01*
X051920Y030099D01*
X051995Y030024D01*
X051535Y030099D02*
X051234Y030099D01*
X051234Y029649D01*
X051074Y029649D02*
X050924Y029799D01*
X050999Y029799D02*
X050774Y029799D01*
X050774Y029649D02*
X050774Y030099D01*
X050999Y030099D01*
X051074Y030024D01*
X051074Y029874D01*
X050999Y029799D01*
X051234Y029874D02*
X051384Y029874D01*
X050617Y029649D02*
X050467Y029649D01*
X050542Y029649D02*
X050542Y030099D01*
X050467Y030099D02*
X050617Y030099D01*
X049748Y030024D02*
X049673Y030099D01*
X049523Y030099D01*
X049448Y030024D01*
X049748Y030024D02*
X049748Y029949D01*
X049448Y029649D01*
X049748Y029649D01*
X049288Y029649D02*
X048988Y029649D01*
X048988Y030099D01*
X048828Y030024D02*
X048753Y030099D01*
X048602Y030099D01*
X048527Y030024D01*
X048527Y029724D01*
X048602Y029649D01*
X048753Y029649D01*
X048828Y029724D01*
X048367Y029724D02*
X048367Y030024D01*
X048292Y030099D01*
X048142Y030099D01*
X048067Y030024D01*
X048067Y029724D01*
X048142Y029649D01*
X048292Y029649D01*
X048367Y029724D01*
X048367Y029649D02*
X048217Y029799D01*
X045376Y029724D02*
X045301Y029649D01*
X045151Y029649D01*
X045076Y029724D01*
X045376Y030024D01*
X045376Y029724D01*
X045076Y029724D02*
X045076Y030024D01*
X045151Y030099D01*
X045301Y030099D01*
X045376Y030024D01*
X044916Y029874D02*
X044615Y029874D01*
X044841Y030099D01*
X044841Y029649D01*
X044455Y029724D02*
X044380Y029649D01*
X044230Y029649D01*
X044155Y029724D01*
X044155Y030024D01*
X044230Y030099D01*
X044380Y030099D01*
X044455Y030024D01*
X043995Y030024D02*
X043995Y029874D01*
X043920Y029799D01*
X043695Y029799D01*
X043695Y029649D02*
X043695Y030099D01*
X043920Y030099D01*
X043995Y030024D01*
X043535Y030099D02*
X043234Y030099D01*
X043234Y029649D01*
X043074Y029649D02*
X042924Y029799D01*
X042999Y029799D02*
X042774Y029799D01*
X042774Y029649D02*
X042774Y030099D01*
X042999Y030099D01*
X043074Y030024D01*
X043074Y029874D01*
X042999Y029799D01*
X043234Y029874D02*
X043384Y029874D01*
X042617Y029649D02*
X042467Y029649D01*
X042542Y029649D02*
X042542Y030099D01*
X042467Y030099D02*
X042617Y030099D01*
X041748Y029649D02*
X041448Y029649D01*
X041598Y029649D02*
X041598Y030099D01*
X041448Y029949D01*
X041288Y029874D02*
X040988Y029874D01*
X040828Y029724D02*
X040753Y029649D01*
X040602Y029649D01*
X040527Y029724D01*
X040527Y030024D01*
X040602Y030099D01*
X040753Y030099D01*
X040828Y030024D01*
X040988Y030099D02*
X040988Y029649D01*
X041288Y029649D02*
X041288Y030099D01*
X040367Y030024D02*
X040367Y029724D01*
X040292Y029649D01*
X040142Y029649D01*
X040067Y029724D01*
X040067Y030024D01*
X040142Y030099D01*
X040292Y030099D01*
X040367Y030024D01*
X040217Y029799D02*
X040367Y029649D01*
X042136Y028899D02*
X042361Y028899D01*
X042436Y028824D01*
X042436Y028749D01*
X042361Y028674D01*
X042136Y028674D01*
X042136Y028449D02*
X042361Y028449D01*
X042436Y028524D01*
X042436Y028599D01*
X042361Y028674D01*
X042596Y028674D02*
X042896Y028674D01*
X043057Y028674D02*
X043282Y028674D01*
X043357Y028599D01*
X043357Y028524D01*
X043282Y028449D01*
X043132Y028449D01*
X043057Y028524D01*
X043057Y028674D01*
X043207Y028824D01*
X043357Y028899D01*
X042746Y028824D02*
X042746Y028524D01*
X042136Y028449D02*
X042136Y028899D01*
X044336Y028899D02*
X044336Y028449D01*
X044636Y028449D02*
X044636Y028899D01*
X044486Y028749D01*
X044336Y028899D01*
X044796Y028824D02*
X044796Y028524D01*
X044871Y028449D01*
X045021Y028449D01*
X045096Y028524D01*
X045257Y028449D02*
X045557Y028449D01*
X045407Y028449D02*
X045407Y028899D01*
X045257Y028749D01*
X045096Y028824D02*
X045021Y028899D01*
X044871Y028899D01*
X044796Y028824D01*
X046403Y025661D02*
X046403Y021330D01*
X031049Y021330D01*
X031049Y025661D01*
X046403Y025661D01*
X038057Y028449D02*
X037757Y028449D01*
X038057Y028749D01*
X038057Y028824D01*
X037982Y028899D01*
X037832Y028899D01*
X037757Y028824D01*
X037596Y028824D02*
X037521Y028899D01*
X037371Y028899D01*
X037296Y028824D01*
X037296Y028524D01*
X037371Y028449D01*
X037521Y028449D01*
X037596Y028524D01*
X037136Y028449D02*
X037136Y028899D01*
X036986Y028749D01*
X036836Y028899D01*
X036836Y028449D01*
X035857Y028524D02*
X035782Y028449D01*
X035632Y028449D01*
X035557Y028524D01*
X035557Y028599D01*
X035632Y028674D01*
X035782Y028674D01*
X035857Y028599D01*
X035857Y028524D01*
X035782Y028674D02*
X035857Y028749D01*
X035857Y028824D01*
X035782Y028899D01*
X035632Y028899D01*
X035557Y028824D01*
X035557Y028749D01*
X035632Y028674D01*
X035396Y028674D02*
X035096Y028674D01*
X034936Y028599D02*
X034936Y028524D01*
X034861Y028449D01*
X034636Y028449D01*
X034636Y028899D01*
X034861Y028899D01*
X034936Y028824D01*
X034936Y028749D01*
X034861Y028674D01*
X034636Y028674D01*
X034861Y028674D02*
X034936Y028599D01*
X035246Y028524D02*
X035246Y028824D01*
X035274Y029649D02*
X035274Y030099D01*
X035499Y030099D01*
X035574Y030024D01*
X035574Y029874D01*
X035499Y029799D01*
X035274Y029799D01*
X035424Y029799D02*
X035574Y029649D01*
X035734Y029649D02*
X035734Y030099D01*
X036035Y030099D01*
X036195Y030099D02*
X036420Y030099D01*
X036495Y030024D01*
X036495Y029874D01*
X036420Y029799D01*
X036195Y029799D01*
X036195Y029649D02*
X036195Y030099D01*
X035884Y029874D02*
X035734Y029874D01*
X035117Y029649D02*
X034967Y029649D01*
X035042Y029649D02*
X035042Y030099D01*
X034967Y030099D02*
X035117Y030099D01*
X034248Y030024D02*
X034173Y030099D01*
X034023Y030099D01*
X033948Y030024D01*
X033788Y030099D02*
X033788Y029649D01*
X033948Y029649D02*
X034248Y029949D01*
X034248Y030024D01*
X034248Y029649D02*
X033948Y029649D01*
X033788Y029874D02*
X033488Y029874D01*
X033328Y029724D02*
X033253Y029649D01*
X033102Y029649D01*
X033027Y029724D01*
X033027Y030024D01*
X033102Y030099D01*
X033253Y030099D01*
X033328Y030024D01*
X033488Y030099D02*
X033488Y029649D01*
X032867Y029649D02*
X032717Y029799D01*
X032642Y029649D02*
X032567Y029724D01*
X032567Y030024D01*
X032642Y030099D01*
X032792Y030099D01*
X032867Y030024D01*
X032867Y029724D01*
X032792Y029649D01*
X032642Y029649D01*
X030057Y028824D02*
X030057Y028749D01*
X029982Y028674D01*
X030057Y028599D01*
X030057Y028524D01*
X029982Y028449D01*
X029832Y028449D01*
X029757Y028524D01*
X029907Y028674D02*
X029982Y028674D01*
X030057Y028824D02*
X029982Y028899D01*
X029832Y028899D01*
X029757Y028824D01*
X029596Y028674D02*
X029296Y028674D01*
X029136Y028599D02*
X029136Y028524D01*
X029061Y028449D01*
X028836Y028449D01*
X028836Y028899D01*
X029061Y028899D01*
X029136Y028824D01*
X029136Y028749D01*
X029061Y028674D01*
X028836Y028674D01*
X029061Y028674D02*
X029136Y028599D01*
X027857Y028674D02*
X027557Y028674D01*
X027782Y028899D01*
X027782Y028449D01*
X027396Y028449D02*
X027396Y028749D01*
X027246Y028899D01*
X027096Y028749D01*
X027096Y028449D01*
X026936Y028449D02*
X026936Y028899D01*
X026786Y028749D01*
X026636Y028899D01*
X026636Y028449D01*
X027096Y028674D02*
X027396Y028674D01*
X027274Y029649D02*
X027274Y030099D01*
X027499Y030099D01*
X027574Y030024D01*
X027574Y029874D01*
X027499Y029799D01*
X027274Y029799D01*
X027424Y029799D02*
X027574Y029649D01*
X027734Y029649D02*
X027734Y030099D01*
X028035Y030099D01*
X028195Y030099D02*
X028420Y030099D01*
X028495Y030024D01*
X028495Y029874D01*
X028420Y029799D01*
X028195Y029799D01*
X028195Y029649D02*
X028195Y030099D01*
X027884Y029874D02*
X027734Y029874D01*
X027117Y029649D02*
X026967Y029649D01*
X027042Y029649D02*
X027042Y030099D01*
X026967Y030099D02*
X027117Y030099D01*
X026248Y030024D02*
X026173Y030099D01*
X026023Y030099D01*
X025948Y030024D01*
X026248Y030024D02*
X026248Y029949D01*
X025948Y029649D01*
X026248Y029649D01*
X025788Y029649D02*
X025488Y029649D01*
X025488Y030099D01*
X025328Y029949D02*
X025328Y029649D01*
X025328Y029874D02*
X025027Y029874D01*
X025027Y029949D02*
X025178Y030099D01*
X025328Y029949D01*
X025027Y029949D02*
X025027Y029649D01*
X024867Y029649D02*
X024717Y029799D01*
X024642Y029649D02*
X024567Y029724D01*
X024567Y030024D01*
X024642Y030099D01*
X024792Y030099D01*
X024867Y030024D01*
X024867Y029724D01*
X024792Y029649D01*
X024642Y029649D01*
X022376Y029724D02*
X022301Y029649D01*
X022151Y029649D01*
X022076Y029724D01*
X022376Y030024D01*
X022376Y029724D01*
X022076Y029724D02*
X022076Y030024D01*
X022151Y030099D01*
X022301Y030099D01*
X022376Y030024D01*
X021916Y029874D02*
X021615Y029874D01*
X021841Y030099D01*
X021841Y029649D01*
X021455Y029724D02*
X021380Y029649D01*
X021230Y029649D01*
X021155Y029724D01*
X021155Y030024D01*
X021230Y030099D01*
X021380Y030099D01*
X021455Y030024D01*
X020995Y030024D02*
X020995Y029874D01*
X020920Y029799D01*
X020695Y029799D01*
X020695Y029649D02*
X020695Y030099D01*
X020920Y030099D01*
X020995Y030024D01*
X020535Y030099D02*
X020234Y030099D01*
X020234Y029649D01*
X020074Y029649D02*
X019924Y029799D01*
X019999Y029799D02*
X019774Y029799D01*
X019774Y029649D02*
X019774Y030099D01*
X019999Y030099D01*
X020074Y030024D01*
X020074Y029874D01*
X019999Y029799D01*
X020234Y029874D02*
X020384Y029874D01*
X019617Y029649D02*
X019467Y029649D01*
X019542Y029649D02*
X019542Y030099D01*
X019467Y030099D02*
X019617Y030099D01*
X018748Y029649D02*
X018448Y029649D01*
X018598Y029649D02*
X018598Y030099D01*
X018448Y029949D01*
X018288Y029649D02*
X017988Y029649D01*
X017988Y030099D01*
X017828Y029949D02*
X017828Y029649D01*
X017828Y029874D02*
X017527Y029874D01*
X017527Y029949D02*
X017678Y030099D01*
X017828Y029949D01*
X017527Y029949D02*
X017527Y029649D01*
X017367Y029649D02*
X017217Y029799D01*
X017142Y029649D02*
X017067Y029724D01*
X017067Y030024D01*
X017142Y030099D01*
X017292Y030099D01*
X017367Y030024D01*
X017367Y029724D01*
X017292Y029649D01*
X017142Y029649D01*
X019136Y028899D02*
X019286Y028749D01*
X019436Y028899D01*
X019436Y028449D01*
X019596Y028449D02*
X019596Y028749D01*
X019746Y028899D01*
X019896Y028749D01*
X019896Y028449D01*
X020057Y028524D02*
X020132Y028449D01*
X020282Y028449D01*
X020357Y028524D01*
X020357Y028599D01*
X020282Y028674D01*
X020207Y028674D01*
X020282Y028674D02*
X020357Y028749D01*
X020357Y028824D01*
X020282Y028899D01*
X020132Y028899D01*
X020057Y028824D01*
X019896Y028674D02*
X019596Y028674D01*
X019136Y028449D02*
X019136Y028899D01*
X021336Y028899D02*
X021336Y028449D01*
X021561Y028449D01*
X021636Y028524D01*
X021636Y028599D01*
X021561Y028674D01*
X021336Y028674D01*
X021561Y028674D02*
X021636Y028749D01*
X021636Y028824D01*
X021561Y028899D01*
X021336Y028899D01*
X021796Y028674D02*
X022096Y028674D01*
X022257Y028749D02*
X022407Y028899D01*
X022407Y028449D01*
X022257Y028449D02*
X022557Y028449D01*
X028655Y029724D02*
X028730Y029649D01*
X028880Y029649D01*
X028955Y029724D01*
X029115Y029874D02*
X029416Y029874D01*
X029576Y029724D02*
X029876Y030024D01*
X029876Y029724D01*
X029801Y029649D01*
X029651Y029649D01*
X029576Y029724D01*
X029576Y030024D01*
X029651Y030099D01*
X029801Y030099D01*
X029876Y030024D01*
X029341Y030099D02*
X029115Y029874D01*
X028955Y030024D02*
X028880Y030099D01*
X028730Y030099D01*
X028655Y030024D01*
X028655Y029724D01*
X029341Y029649D02*
X029341Y030099D01*
X030701Y028049D02*
X030551Y027899D01*
X030701Y028049D02*
X030701Y027599D01*
X030551Y027599D02*
X030851Y027599D01*
X031012Y027599D02*
X031087Y027599D01*
X031087Y027674D01*
X031012Y027674D01*
X031012Y027599D01*
X031242Y027674D02*
X031317Y027599D01*
X031467Y027599D01*
X031542Y027674D01*
X031542Y027824D01*
X031467Y027899D01*
X031392Y027899D01*
X031242Y027824D01*
X031242Y028049D01*
X031542Y028049D01*
X031702Y028049D02*
X031702Y027599D01*
X031702Y027749D02*
X031927Y027899D01*
X032086Y027824D02*
X032161Y027899D01*
X032311Y027899D01*
X032386Y027824D01*
X032386Y027749D01*
X032086Y027749D01*
X032086Y027674D02*
X032086Y027824D01*
X032086Y027674D02*
X032161Y027599D01*
X032311Y027599D01*
X032546Y027674D02*
X032621Y027599D01*
X032771Y027599D01*
X032846Y027674D01*
X032846Y027824D01*
X032771Y027899D01*
X032696Y027899D01*
X032546Y027824D01*
X032546Y028049D01*
X032846Y028049D01*
X033006Y027899D02*
X033157Y028049D01*
X033157Y027599D01*
X033307Y027599D02*
X033006Y027599D01*
X031927Y027599D02*
X031702Y027749D01*
X033546Y025949D02*
X033771Y025949D01*
X033847Y025874D01*
X033847Y025574D01*
X033771Y025499D01*
X033546Y025499D01*
X033546Y025949D01*
X034007Y025799D02*
X034157Y025949D01*
X034157Y025499D01*
X034007Y025499D02*
X034307Y025499D01*
X036730Y029649D02*
X036880Y029649D01*
X036955Y029724D01*
X037115Y029874D02*
X037416Y029874D01*
X037576Y029724D02*
X037576Y030024D01*
X037651Y030099D01*
X037801Y030099D01*
X037876Y030024D01*
X037576Y029724D01*
X037651Y029649D01*
X037801Y029649D01*
X037876Y029724D01*
X037876Y030024D01*
X037341Y030099D02*
X037341Y029649D01*
X037115Y029874D02*
X037341Y030099D01*
X036955Y030024D02*
X036880Y030099D01*
X036730Y030099D01*
X036655Y030024D01*
X036655Y029724D01*
X036730Y029649D01*
X055567Y029724D02*
X055642Y029649D01*
X055792Y029649D01*
X055867Y029724D01*
X055867Y030024D01*
X055792Y030099D01*
X055642Y030099D01*
X055567Y030024D01*
X055567Y029724D01*
X055717Y029799D02*
X055867Y029649D01*
X056027Y029724D02*
X056102Y029649D01*
X056253Y029649D01*
X056328Y029724D01*
X056488Y029649D02*
X056488Y030099D01*
X056328Y030024D02*
X056253Y030099D01*
X056102Y030099D01*
X056027Y030024D01*
X056027Y029724D01*
X056488Y029649D02*
X056788Y029649D01*
X056948Y029649D02*
X057248Y029649D01*
X057098Y029649D02*
X057098Y030099D01*
X056948Y029949D01*
X057967Y030099D02*
X058117Y030099D01*
X058042Y030099D02*
X058042Y029649D01*
X057967Y029649D02*
X058117Y029649D01*
X058274Y029649D02*
X058274Y030099D01*
X058499Y030099D01*
X058574Y030024D01*
X058574Y029874D01*
X058499Y029799D01*
X058274Y029799D01*
X058424Y029799D02*
X058574Y029649D01*
X058734Y029649D02*
X058734Y030099D01*
X059035Y030099D01*
X059195Y030099D02*
X059195Y029649D01*
X059195Y029799D02*
X059420Y029799D01*
X059495Y029874D01*
X059495Y030024D01*
X059420Y030099D01*
X059195Y030099D01*
X058884Y029874D02*
X058734Y029874D01*
X059655Y029724D02*
X059730Y029649D01*
X059880Y029649D01*
X059955Y029724D01*
X060115Y029874D02*
X060416Y029874D01*
X060576Y029724D02*
X060876Y030024D01*
X060876Y029724D01*
X060801Y029649D01*
X060651Y029649D01*
X060576Y029724D01*
X060576Y030024D01*
X060651Y030099D01*
X060801Y030099D01*
X060876Y030024D01*
X060341Y030099D02*
X060341Y029649D01*
X060115Y029874D02*
X060341Y030099D01*
X059955Y030024D02*
X059880Y030099D01*
X059730Y030099D01*
X059655Y030024D01*
X059655Y029724D01*
X059836Y028899D02*
X060061Y028899D01*
X060136Y028824D01*
X060136Y028749D01*
X060061Y028674D01*
X059836Y028674D01*
X059836Y028449D02*
X060061Y028449D01*
X060136Y028524D01*
X060136Y028599D01*
X060061Y028674D01*
X060296Y028674D02*
X060596Y028674D01*
X060757Y028674D02*
X060982Y028674D01*
X061057Y028599D01*
X061057Y028524D01*
X060982Y028449D01*
X060832Y028449D01*
X060757Y028524D01*
X060757Y028674D01*
X060907Y028824D01*
X061057Y028899D01*
X059836Y028899D02*
X059836Y028449D01*
X061017Y027910D02*
X061017Y027609D01*
X061242Y027609D01*
X061167Y027760D01*
X061167Y027835D01*
X061242Y027910D01*
X061392Y027910D01*
X061467Y027835D01*
X061467Y027684D01*
X061392Y027609D01*
X061392Y027449D02*
X061092Y027449D01*
X061017Y027374D01*
X061017Y027149D01*
X061467Y027149D01*
X061467Y027374D01*
X061392Y027449D01*
X062817Y027374D02*
X062817Y027149D01*
X063267Y027149D01*
X063267Y027374D01*
X063192Y027449D01*
X062892Y027449D01*
X062817Y027374D01*
X062892Y027609D02*
X062817Y027684D01*
X062817Y027835D01*
X062892Y027910D01*
X062967Y027910D01*
X063042Y027835D01*
X063117Y027910D01*
X063192Y027910D01*
X063267Y027835D01*
X063267Y027684D01*
X063192Y027609D01*
X063042Y027760D02*
X063042Y027835D01*
X058857Y028524D02*
X058782Y028449D01*
X058632Y028449D01*
X058557Y028524D01*
X058396Y028524D02*
X058321Y028449D01*
X058171Y028449D01*
X058096Y028524D01*
X058096Y028824D01*
X058171Y028899D01*
X058321Y028899D01*
X058396Y028824D01*
X058557Y028824D02*
X058632Y028899D01*
X058782Y028899D01*
X058857Y028824D01*
X058857Y028749D01*
X058782Y028674D01*
X058857Y028599D01*
X058857Y028524D01*
X058782Y028674D02*
X058707Y028674D01*
X057936Y028899D02*
X057936Y028449D01*
X057636Y028449D02*
X057636Y028899D01*
X057786Y028749D01*
X057936Y028899D01*
X061092Y022710D02*
X061017Y022635D01*
X061017Y022484D01*
X061092Y022409D01*
X061092Y022249D02*
X061017Y022174D01*
X061017Y021949D01*
X061467Y021949D01*
X061467Y022174D01*
X061392Y022249D01*
X061092Y022249D01*
X061467Y022409D02*
X061167Y022710D01*
X061092Y022710D01*
X061467Y022710D02*
X061467Y022409D01*
X062817Y022635D02*
X063042Y022409D01*
X063042Y022710D01*
X063267Y022635D02*
X062817Y022635D01*
X062892Y022249D02*
X062817Y022174D01*
X062817Y021949D01*
X063267Y021949D01*
X063267Y022174D01*
X063192Y022249D01*
X062892Y022249D01*
X021488Y018624D02*
X021413Y018699D01*
X021263Y018699D01*
X021188Y018624D01*
X021028Y018624D02*
X020953Y018699D01*
X020802Y018699D01*
X020727Y018624D01*
X020567Y018624D02*
X020492Y018699D01*
X020342Y018699D01*
X020267Y018624D01*
X020267Y018324D01*
X020342Y018249D01*
X020492Y018249D01*
X020567Y018324D01*
X020727Y018249D02*
X021028Y018549D01*
X021028Y018624D01*
X021028Y018249D02*
X020727Y018249D01*
X021188Y018249D02*
X021488Y018549D01*
X021488Y018624D01*
X021488Y018249D02*
X021188Y018249D01*
X021263Y016649D02*
X021188Y016574D01*
X021188Y016274D01*
X021488Y016574D01*
X021488Y016274D01*
X021413Y016199D01*
X021263Y016199D01*
X021188Y016274D01*
X021028Y016274D02*
X020953Y016199D01*
X020802Y016199D01*
X020727Y016274D01*
X021028Y016574D01*
X021028Y016274D01*
X021028Y016574D02*
X020953Y016649D01*
X020802Y016649D01*
X020727Y016574D01*
X020727Y016274D01*
X020567Y016199D02*
X020267Y016199D01*
X020417Y016199D02*
X020417Y016649D01*
X020267Y016499D01*
X021263Y016649D02*
X021413Y016649D01*
X021488Y016574D01*
X012527Y016428D02*
X012077Y016428D01*
X012077Y016654D01*
X012152Y016729D01*
X012302Y016729D01*
X012377Y016654D01*
X012377Y016428D01*
X012377Y016578D02*
X012527Y016729D01*
X012452Y016889D02*
X012527Y016964D01*
X012527Y017114D01*
X012452Y017189D01*
X012377Y017189D01*
X012302Y017114D01*
X012302Y017039D01*
X012302Y017114D02*
X012227Y017189D01*
X012152Y017189D01*
X012077Y017114D01*
X012077Y016964D01*
X012152Y016889D01*
X011287Y016414D02*
X011287Y016264D01*
X011212Y016189D01*
X011212Y016029D02*
X011287Y015954D01*
X011287Y015803D01*
X011212Y015728D01*
X011062Y015878D02*
X011062Y015954D01*
X011137Y016029D01*
X011212Y016029D01*
X011062Y015954D02*
X010987Y016029D01*
X010912Y016029D01*
X010837Y015954D01*
X010837Y015803D01*
X010912Y015728D01*
X010912Y016189D02*
X010837Y016264D01*
X010837Y016414D01*
X010912Y016489D01*
X010987Y016489D01*
X011062Y016414D01*
X011137Y016489D01*
X011212Y016489D01*
X011287Y016414D01*
X011062Y016414D02*
X011062Y016339D01*
X004167Y014814D02*
X004167Y014664D01*
X004092Y014589D01*
X003792Y014889D01*
X004092Y014889D01*
X004167Y014814D01*
X004092Y014589D02*
X003792Y014589D01*
X003717Y014664D01*
X003717Y014814D01*
X003792Y014889D01*
X003792Y014429D02*
X003717Y014354D01*
X003717Y014203D01*
X003792Y014128D01*
X003792Y014429D02*
X003867Y014429D01*
X004167Y014128D01*
X004167Y014429D01*
X005717Y021749D02*
X005717Y021974D01*
X005792Y022049D01*
X006092Y022049D01*
X006167Y021974D01*
X006167Y021749D01*
X005717Y021749D01*
X005717Y022209D02*
X005717Y022435D01*
X005792Y022510D01*
X005942Y022510D01*
X006017Y022435D01*
X006017Y022209D01*
X006167Y022209D02*
X005717Y022209D01*
X006017Y022360D02*
X006167Y022510D01*
X006017Y022670D02*
X006167Y022820D01*
X006017Y022970D01*
X005717Y022970D01*
X005867Y023130D02*
X005717Y023280D01*
X006167Y023280D01*
X006167Y023130D02*
X006167Y023430D01*
X006017Y022670D02*
X005717Y022670D01*
X006667Y022699D02*
X006817Y022699D01*
X006742Y022699D02*
X006742Y022249D01*
X006667Y022249D02*
X006817Y022249D01*
X006974Y022249D02*
X006974Y022699D01*
X007199Y022699D01*
X007274Y022624D01*
X007274Y022474D01*
X007199Y022399D01*
X006974Y022399D01*
X007124Y022399D02*
X007274Y022249D01*
X007434Y022249D02*
X007735Y022549D01*
X007735Y022624D01*
X007659Y022699D01*
X007509Y022699D01*
X007434Y022624D01*
X007434Y022249D02*
X007735Y022249D01*
X007895Y022249D02*
X008195Y022249D01*
X008045Y022249D02*
X008045Y022699D01*
X007895Y022549D01*
X008355Y022549D02*
X008430Y022474D01*
X008580Y022474D01*
X008655Y022399D01*
X008655Y022324D01*
X008580Y022249D01*
X008430Y022249D01*
X008355Y022324D01*
X008355Y022399D01*
X008430Y022474D01*
X008355Y022549D02*
X008355Y022624D01*
X008430Y022699D01*
X008580Y022699D01*
X008655Y022624D01*
X008655Y022549D01*
X008580Y022474D01*
X008815Y022474D02*
X009041Y022699D01*
X009041Y022249D01*
X009116Y022474D02*
X008815Y022474D01*
X009276Y022474D02*
X009576Y022474D01*
X009736Y022549D02*
X009811Y022474D01*
X009961Y022474D01*
X010036Y022399D01*
X010036Y022324D01*
X009961Y022249D01*
X009811Y022249D01*
X009736Y022324D01*
X009736Y022549D02*
X009736Y022624D01*
X009811Y022699D01*
X009961Y022699D01*
X010036Y022624D01*
X009501Y022699D02*
X009501Y022249D01*
X009276Y022474D02*
X009501Y022699D01*
X004167Y022743D02*
X004092Y022668D01*
X004167Y022743D02*
X004167Y022893D01*
X004092Y022968D01*
X004017Y022968D01*
X003942Y022893D01*
X003942Y022743D01*
X003867Y022668D01*
X003792Y022668D01*
X003717Y022743D01*
X003717Y022893D01*
X003792Y022968D01*
X003717Y023128D02*
X004017Y023128D01*
X004167Y023278D01*
X004017Y023429D01*
X003717Y023429D01*
X003867Y023589D02*
X003717Y023739D01*
X004167Y023739D01*
X004167Y023589D02*
X004167Y023889D01*
X001367Y023589D02*
X001367Y023289D01*
X001367Y023439D02*
X000917Y023439D01*
X001067Y023289D01*
X001917Y006699D02*
X002067Y006549D01*
X002217Y006699D01*
X002217Y006249D01*
X002377Y006249D02*
X002603Y006249D01*
X002678Y006324D01*
X002678Y006399D01*
X002603Y006474D01*
X002377Y006474D01*
X002377Y006249D02*
X002377Y006699D01*
X002603Y006699D01*
X002678Y006624D01*
X002678Y006549D01*
X002603Y006474D01*
X002838Y006549D02*
X002988Y006699D01*
X002988Y006249D01*
X002838Y006249D02*
X003138Y006249D01*
X003165Y005499D02*
X002865Y005499D01*
X002865Y005049D01*
X002705Y005049D02*
X002555Y005199D01*
X002630Y005199D02*
X002405Y005199D01*
X002405Y005049D02*
X002405Y005499D01*
X002630Y005499D01*
X002705Y005424D01*
X002705Y005274D01*
X002630Y005199D01*
X002865Y005274D02*
X003015Y005274D01*
X003325Y005199D02*
X003551Y005199D01*
X003626Y005274D01*
X003626Y005424D01*
X003551Y005499D01*
X003325Y005499D01*
X003325Y005049D01*
X003786Y005124D02*
X003861Y005049D01*
X004011Y005049D01*
X004086Y005124D01*
X004246Y005274D02*
X004546Y005274D01*
X004706Y005124D02*
X005007Y005424D01*
X005007Y005124D01*
X004932Y005049D01*
X004781Y005049D01*
X004706Y005124D01*
X004706Y005424D01*
X004781Y005499D01*
X004932Y005499D01*
X005007Y005424D01*
X004471Y005499D02*
X004471Y005049D01*
X004246Y005274D02*
X004471Y005499D01*
X004086Y005424D02*
X004011Y005499D01*
X003861Y005499D01*
X003786Y005424D01*
X003786Y005124D01*
X002248Y005049D02*
X002098Y005049D01*
X002173Y005049D02*
X002173Y005499D01*
X002098Y005499D02*
X002248Y005499D01*
X001917Y006249D02*
X001917Y006699D01*
X004117Y006699D02*
X004117Y006249D01*
X004342Y006249D01*
X004417Y006324D01*
X004417Y006399D01*
X004342Y006474D01*
X004117Y006474D01*
X004342Y006474D02*
X004417Y006549D01*
X004417Y006624D01*
X004342Y006699D01*
X004117Y006699D01*
X004577Y006474D02*
X004878Y006474D01*
X004728Y006624D02*
X004728Y006324D01*
X005038Y006249D02*
X005338Y006549D01*
X005338Y006624D01*
X005263Y006699D01*
X005113Y006699D01*
X005038Y006624D01*
X005038Y006249D02*
X005338Y006249D01*
X005801Y005499D02*
X005951Y005499D01*
X006026Y005424D01*
X006026Y005124D01*
X005951Y005049D01*
X005801Y005049D01*
X005726Y005124D01*
X005726Y005424D01*
X005801Y005499D01*
X005876Y005199D02*
X006026Y005049D01*
X006186Y005049D02*
X006411Y005049D01*
X006486Y005124D01*
X006486Y005199D01*
X006411Y005274D01*
X006186Y005274D01*
X006186Y005049D02*
X006186Y005499D01*
X006411Y005499D01*
X006486Y005424D01*
X006486Y005349D01*
X006411Y005274D01*
X006646Y005274D02*
X006946Y005274D01*
X007107Y005349D02*
X007257Y005499D01*
X007257Y005049D01*
X007107Y005049D02*
X007407Y005049D01*
X006946Y005049D02*
X006946Y005499D01*
X006646Y005499D02*
X006646Y005049D01*
D15*
X006292Y003424D02*
X005042Y003424D01*
X004092Y003424D02*
X002792Y003424D01*
X001892Y003424D02*
X001442Y003424D01*
X007192Y003424D02*
X007642Y003424D01*
X008942Y003424D02*
X009392Y003424D01*
X010292Y003424D02*
X011592Y003424D01*
X012542Y003424D02*
X013792Y003424D01*
X014692Y003424D02*
X015142Y003424D01*
X016942Y003424D02*
X017392Y003424D01*
X018292Y003424D02*
X019592Y003424D01*
X020542Y003424D02*
X021792Y003424D01*
X022692Y003424D02*
X023142Y003424D01*
X024442Y003424D02*
X024892Y003424D01*
X025792Y003424D02*
X027092Y003424D01*
X028042Y003424D02*
X029292Y003424D01*
X030192Y003424D02*
X030642Y003424D01*
X032442Y003424D02*
X032892Y003424D01*
X033792Y003424D02*
X035092Y003424D01*
X036042Y003424D02*
X037292Y003424D01*
X038192Y003424D02*
X038642Y003424D01*
X039942Y003424D02*
X040392Y003424D01*
X041292Y003424D02*
X042592Y003424D01*
X043542Y003424D02*
X044792Y003424D01*
X045692Y003424D02*
X046142Y003424D01*
X047942Y003424D02*
X048392Y003424D01*
X049292Y003424D02*
X050592Y003424D01*
X051542Y003424D02*
X052792Y003424D01*
X053692Y003424D02*
X054142Y003424D01*
X055442Y003424D02*
X055892Y003424D01*
X056792Y003424D02*
X058092Y003424D01*
X059042Y003424D02*
X060292Y003424D01*
X061192Y003424D02*
X061642Y003424D01*
X061942Y009824D02*
X063242Y009824D01*
X063242Y009924D02*
X062742Y009924D01*
X062742Y010724D02*
X062242Y010724D01*
X062242Y010824D02*
X063542Y010824D01*
X054092Y010594D02*
X050592Y010594D01*
X050292Y020994D02*
X053792Y020994D01*
X053692Y031724D02*
X054142Y031724D01*
X055442Y031724D02*
X055892Y031724D01*
X056792Y031724D02*
X058042Y031724D01*
X058992Y031724D02*
X060292Y031724D01*
X061192Y031724D02*
X061642Y031724D01*
X052792Y031724D02*
X051492Y031724D01*
X050542Y031724D02*
X049292Y031724D01*
X048392Y031724D02*
X047942Y031724D01*
X046142Y031724D02*
X045692Y031724D01*
X044792Y031724D02*
X043492Y031724D01*
X042542Y031724D02*
X041292Y031724D01*
X040392Y031724D02*
X039942Y031724D01*
X038642Y031724D02*
X038192Y031724D01*
X037292Y031724D02*
X035992Y031724D01*
X035042Y031724D02*
X033792Y031724D01*
X032892Y031724D02*
X032442Y031724D01*
X030642Y031724D02*
X030192Y031724D01*
X029292Y031724D02*
X027992Y031724D01*
X027042Y031724D02*
X025792Y031724D01*
X024892Y031724D02*
X024442Y031724D01*
X023142Y031724D02*
X022692Y031724D01*
X021792Y031724D02*
X020492Y031724D01*
X019542Y031724D02*
X018292Y031724D01*
X017392Y031724D02*
X016942Y031724D01*
X015142Y031724D02*
X014692Y031724D01*
X013792Y031724D02*
X012492Y031724D01*
X011542Y031724D02*
X010292Y031724D01*
X009392Y031724D02*
X008942Y031724D01*
X007642Y031724D02*
X007192Y031724D01*
X006292Y031724D02*
X004992Y031724D01*
X004042Y031724D02*
X002792Y031724D01*
X001892Y031724D02*
X001442Y031724D01*
X006292Y021794D02*
X009792Y021794D01*
X016492Y010794D02*
X019992Y010794D01*
D16*
X033942Y027224D03*
D17*
X034617Y027224D03*
X030267Y027224D03*
D18*
X011042Y017404D03*
X011042Y012444D03*
X045542Y011744D03*
X045542Y016704D03*
X062142Y018304D03*
X063942Y018304D03*
X063942Y013344D03*
X062142Y013344D03*
D19*
X045792Y009444D02*
X045542Y009444D01*
X045292Y009444D01*
X045292Y009194D02*
X045542Y009194D01*
X045792Y009194D01*
X011292Y009694D02*
X011042Y009694D01*
X010792Y009694D01*
X010792Y009944D02*
X011042Y009944D01*
X011292Y009944D01*
D20*
X010002Y013402D02*
X010002Y015646D01*
X005682Y015646D02*
X005682Y013402D01*
D21*
X006067Y013799D03*
D22*
X062142Y022174D03*
X063942Y022174D03*
X063942Y027374D03*
X062142Y027374D03*
D23*
X062142Y026749D03*
X063942Y026749D03*
X063942Y029099D03*
X062142Y029099D03*
X062142Y023899D03*
X063942Y023899D03*
X063942Y021549D03*
X062142Y021549D03*
M02*
