%
M48
M72
T01C0.0590
T02C0.0670
T03C0.0320
T04C0.0400
T05C0.0500
T06C0.1000
T07C0.0440
T08C0.0360
T09C0.0240
%
T01
X234Y397
X454Y397
X674Y397
X984Y397
X1204Y397
X1424Y397
X1784Y397
X2004Y397
X2224Y397
X2534Y397
X2754Y397
X2974Y397
X3334Y397
X3554Y397
X3774Y397
X4084Y397
X4304Y397
X4524Y397
X4884Y397
X5104Y397
X5324Y397
X5634Y397
X5854Y397
X6074Y397
X3544Y2722
X2944Y2722
X2974Y3117
X2754Y3117
X2534Y3117
X2224Y3117
X2004Y3117
X1784Y3117
X1424Y3117
X1204Y3117
X984Y3117
X674Y3117
X454Y3117
X234Y3117
X3334Y3117
X3554Y3117
X3774Y3117
X4084Y3117
X4304Y3117
X4524Y3117
X4884Y3117
X5104Y3117
X5324Y3117
X5634Y3117
X5854Y3117
X6074Y3117
T02
X6074Y2982
X5854Y2982
X5324Y2982
X5104Y2982
X4524Y2982
X4304Y2982
X3774Y2982
X3554Y2982
X2974Y2982
X2754Y2982
X2224Y2982
X2004Y2982
X1424Y2982
X1204Y2982
X674Y2982
X454Y2982
X454Y532
X234Y532
X984Y532
X1204Y532
X1784Y532
X2004Y532
X2534Y532
X2754Y532
X3334Y532
X3554Y532
X4084Y532
X4304Y532
X4884Y532
X5104Y532
X5634Y532
X5854Y532
T03
X4854Y932
X4754Y932
X4554Y832
X4554Y1032
X4934Y1252
X4854Y1282
X4754Y1282
X4684Y1362
X4674Y1442
X4754Y1632
X4854Y1632
X5064Y1642
X5194Y1692
X5044Y1942
X4854Y1982
X4754Y1982
X4754Y2332
X4854Y2332
X4554Y2582
X4754Y2682
X4854Y2682
X2574Y2712
X1404Y2632
X1304Y2632
X1364Y2712
X1404Y2282
X1304Y2282
X1304Y1932
X1404Y1932
X1854Y1742
X1954Y1742
X1404Y1582
X1304Y1582
X1304Y1232
X1404Y1232
X1104Y1082
X864Y1002
X1104Y882
X1304Y882
X1404Y882
X4344Y1302
T04
X4554Y1122
X4554Y1722
X6214Y1882
X6394Y1882
X6394Y1282
X6214Y1282
X1104Y1192
X304Y1452
X204Y1452
X204Y1552
X304Y1552
X304Y1652
X204Y1652
X204Y1752
X304Y1752
X304Y1852
X204Y1852
X204Y1952
X304Y1952
X304Y2052
X204Y2052
X204Y2152
X304Y2152
X304Y2252
X204Y2252
X204Y2352
X304Y2352
X1104Y1792
T05
X1702Y2054
X1801Y2054
X1899Y2054
X1998Y2054
X2096Y2054
X2854Y1462
X2854Y1262
X3654Y1362
X3654Y962
X3654Y1762
X3656Y2054
X3558Y2054
X3459Y2054
X3361Y2054
X3262Y2054
X5486Y2039
X5486Y2137
X5486Y2236
X5486Y2334
X5486Y1941
X6314Y762
X6314Y612
X6314Y462
X6314Y312
X6314Y162
T06
X5722Y1350
X5722Y2098
X4247Y2291
X3499Y2291
X2687Y2291
X1939Y2291
T07
X6214Y2472
X6214Y2592
X6394Y2592
X6394Y2472
X6394Y2072
X6214Y2072
X6214Y2992
X6394Y2992
T08
X6174Y1067
X6374Y997
T09
X5994Y1142
X5944Y952
X5424Y902
X5344Y912
X5234Y932
X5094Y932
X5014Y982
X4934Y982
X4934Y932
X5054Y862
X4934Y1052
X5004Y1182
X5374Y1092
X4644Y1102
X4644Y1052
X4644Y982
X4594Y872
X5994Y642
X5994Y542
X4934Y1752
X4954Y1802
X4654Y1752
X4434Y1832
X4944Y1992
X4934Y2122
X5054Y2212
X4934Y2222
X4934Y2352
X5104Y2422
X5134Y2352
X5284Y2442
X5214Y2112
X4504Y2242
X4184Y2542
X3324Y2182
X3104Y1992
X2054Y2182
X1694Y1952
X1224Y1832
X1034Y1842
X914Y1872
X844Y1882
X534Y1902
X484Y1952
X574Y2142
X654Y2192
X704Y2192
X924Y2222
X1054Y2182
X1054Y2132
X1224Y2352
X1024Y2412
X984Y2472
X724Y2472
X254Y2192
X454Y1692
X574Y1702
X574Y1642
X604Y1512
X644Y1422
X724Y1392
X764Y1432
X924Y1432
X1004Y1462
X1054Y1462
X1224Y1392
X1184Y1322
X1124Y1332
X1194Y1182
X1224Y1042
X1484Y1092
X1584Y1062
X1504Y1042
X1514Y1182
X1484Y1222
X1754Y1142
X1834Y1092
X1994Y952
X1934Y942
X2074Y802
X1994Y762
X2524Y1162
X3054Y1022
X3134Y1062
X1484Y1672
X1224Y1702
X1114Y1622
X1074Y1592
X974Y1662
X1224Y1582
X774Y1262
X414Y1222
X384Y1182
X414Y1302
X364Y1422
X414Y1432
X384Y1472
X364Y1542
X134Y1402
X214Y1342
X454Y1052
X1044Y692
X924Y642
X1484Y2222
X1484Y2422
X1484Y2542
X5044Y2872
X5204Y2862
X6144Y2392
M30
