G75*
G70*
%OFA0B0*%
%FSLAX24Y24*%
%IPPOS*%
%LPD*%
%AMOC8*
5,1,8,0,0,1.08239X$1,22.5*
%
%ADD10R,0.0671X0.0592*%
%ADD11R,0.0671X0.0552*%
%ADD12O,0.0965X0.1850*%
%ADD13O,0.1085X0.2090*%
%ADD14OC8,0.0710*%
%ADD15C,0.0710*%
%ADD16O,0.1850X0.0965*%
%ADD17OC8,0.0680*%
%ADD18OC8,0.0600*%
%ADD19R,0.0356X0.0671*%
%ADD20C,0.0830*%
%ADD21C,0.1480*%
%ADD22O,0.1580X0.0830*%
%ADD23R,0.0592X0.0671*%
%ADD24R,0.1084X0.1064*%
%ADD25R,0.0474X0.0631*%
%ADD26C,0.0740*%
%ADD27O,0.0640X0.1200*%
%ADD28R,0.0340X0.0880*%
%ADD29C,0.0480*%
%ADD30C,0.0560*%
D10*
X006742Y005589D03*
X006742Y006259D03*
X014242Y006259D03*
X014242Y005589D03*
X022242Y005589D03*
X022242Y006259D03*
X029742Y006259D03*
X029742Y005589D03*
X037742Y005589D03*
X037742Y006259D03*
X045242Y006259D03*
X045242Y005589D03*
X053242Y005589D03*
X053242Y006259D03*
X060742Y006259D03*
X060742Y005589D03*
X056342Y028889D03*
X056342Y029559D03*
X048842Y029559D03*
X048842Y028889D03*
X040842Y028889D03*
X040842Y029559D03*
X033342Y029559D03*
X033342Y028889D03*
X025342Y028889D03*
X025342Y029559D03*
X017842Y029559D03*
X017842Y028889D03*
X009842Y028889D03*
X009842Y029559D03*
X002342Y029559D03*
X002342Y028889D03*
D11*
X006071Y025524D03*
X007213Y025524D03*
X015771Y014424D03*
X016913Y014424D03*
X049771Y024824D03*
X050913Y024824D03*
X051213Y014324D03*
X050071Y014324D03*
D12*
X002342Y003974D03*
X004542Y003974D03*
X006742Y003974D03*
X009842Y003974D03*
X012042Y003974D03*
X014242Y003974D03*
X017842Y003974D03*
X020042Y003974D03*
X022242Y003974D03*
X025342Y003974D03*
X027542Y003974D03*
X029742Y003974D03*
X033342Y003974D03*
X035542Y003974D03*
X037742Y003974D03*
X040842Y003974D03*
X043042Y003974D03*
X045242Y003974D03*
X048842Y003974D03*
X051042Y003974D03*
X053242Y003974D03*
X056342Y003974D03*
X058542Y003974D03*
X060742Y003974D03*
X060742Y031174D03*
X058542Y031174D03*
X056342Y031174D03*
X053242Y031174D03*
X051042Y031174D03*
X048842Y031174D03*
X045242Y031174D03*
X043042Y031174D03*
X040842Y031174D03*
X037742Y031174D03*
X035542Y031174D03*
X033342Y031174D03*
X029742Y031174D03*
X027542Y031174D03*
X025342Y031174D03*
X022242Y031174D03*
X020042Y031174D03*
X017842Y031174D03*
X014242Y031174D03*
X012042Y031174D03*
X009842Y031174D03*
X006742Y031174D03*
X004542Y031174D03*
X002342Y031174D03*
D13*
X004542Y029824D03*
X006742Y029824D03*
X012042Y029824D03*
X014242Y029824D03*
X020042Y029824D03*
X022242Y029824D03*
X027542Y029824D03*
X029742Y029824D03*
X035542Y029824D03*
X037742Y029824D03*
X043042Y029824D03*
X045242Y029824D03*
X051042Y029824D03*
X053242Y029824D03*
X058542Y029824D03*
X060742Y029824D03*
X058542Y005324D03*
X056342Y005324D03*
X051042Y005324D03*
X048842Y005324D03*
X043042Y005324D03*
X040842Y005324D03*
X035542Y005324D03*
X033342Y005324D03*
X027542Y005324D03*
X025342Y005324D03*
X020042Y005324D03*
X017842Y005324D03*
X012042Y005324D03*
X009842Y005324D03*
X004542Y005324D03*
X002342Y005324D03*
D14*
X014042Y008824D03*
X014042Y012324D03*
X014042Y015824D03*
X019542Y017424D03*
X014042Y019324D03*
X014042Y022824D03*
X014042Y026324D03*
X048542Y026824D03*
X048542Y023324D03*
X048542Y019824D03*
X048542Y016324D03*
X048542Y012824D03*
X048542Y009324D03*
D15*
X047542Y009324D03*
X047542Y012824D03*
X047542Y016324D03*
X047542Y019824D03*
X047542Y023324D03*
X047542Y026824D03*
X018542Y017424D03*
X013042Y015824D03*
X013042Y019324D03*
X013042Y022824D03*
X013042Y026324D03*
X013042Y012324D03*
X013042Y008824D03*
D16*
X029442Y027224D03*
X035442Y027224D03*
D17*
X045542Y017224D03*
X045542Y011224D03*
X062142Y012824D03*
X063942Y012824D03*
X063942Y018824D03*
X062142Y018824D03*
X011042Y017924D03*
X003042Y017524D03*
X002042Y017524D03*
X002042Y016524D03*
X003042Y016524D03*
X003042Y015524D03*
X002042Y015524D03*
X002042Y014524D03*
X003042Y014524D03*
X003042Y018524D03*
X002042Y018524D03*
X002042Y019524D03*
X003042Y019524D03*
X003042Y020524D03*
X002042Y020524D03*
X002042Y021524D03*
X003042Y021524D03*
X003042Y022524D03*
X002042Y022524D03*
X002042Y023524D03*
X003042Y023524D03*
X011042Y011924D03*
D18*
X011042Y010824D03*
X011042Y008824D03*
X045542Y008324D03*
X045542Y010324D03*
D19*
X009592Y013207D03*
X009092Y013207D03*
X008592Y013207D03*
X008092Y013207D03*
X007592Y013207D03*
X007092Y013207D03*
X006592Y013207D03*
X006092Y013207D03*
X006092Y015841D03*
X006592Y015841D03*
X007092Y015841D03*
X007592Y015841D03*
X008092Y015841D03*
X008592Y015841D03*
X009092Y015841D03*
X009592Y015841D03*
D20*
X017024Y020543D03*
X018008Y020543D03*
X018992Y020543D03*
X019977Y020543D03*
X020961Y020543D03*
X032624Y020543D03*
X033608Y020543D03*
X034592Y020543D03*
X035577Y020543D03*
X036561Y020543D03*
X054861Y020389D03*
X054861Y021374D03*
X054861Y022358D03*
X054861Y023342D03*
X054861Y019405D03*
D21*
X057223Y020980D03*
X057223Y013500D03*
X042466Y022905D03*
X034986Y022905D03*
X026866Y022905D03*
X019386Y022905D03*
D22*
X028542Y014624D03*
X028542Y012624D03*
X036542Y013624D03*
X036542Y009624D03*
X036542Y017624D03*
X063142Y007624D03*
X063142Y006124D03*
X063142Y004624D03*
X063142Y003124D03*
X063142Y001624D03*
D23*
X007577Y008524D03*
X006907Y008524D03*
X004977Y008524D03*
X004307Y008524D03*
X002577Y008524D03*
X001907Y008524D03*
X001907Y009924D03*
X002577Y009924D03*
X004307Y009924D03*
X004977Y009924D03*
X006907Y010024D03*
X007577Y010024D03*
D24*
X017148Y008524D03*
X019136Y008524D03*
X018148Y014424D03*
X020136Y014424D03*
X009136Y019524D03*
X007148Y019524D03*
X008348Y025524D03*
X010336Y025524D03*
X039548Y020324D03*
X041536Y020324D03*
X043048Y020324D03*
X045036Y020324D03*
X050948Y018524D03*
X052936Y018524D03*
X052348Y014324D03*
X054336Y014324D03*
X053336Y008224D03*
X051348Y008224D03*
X052048Y024824D03*
X054036Y024824D03*
D25*
X060368Y032891D03*
X061116Y032891D03*
X060742Y033757D03*
X030116Y032891D03*
X029368Y032891D03*
X029742Y033757D03*
X029816Y002257D03*
X029068Y002257D03*
X029442Y001391D03*
X060068Y002257D03*
X060816Y002257D03*
X060442Y001391D03*
D26*
X062142Y020724D03*
X063942Y020724D03*
X063942Y024724D03*
X063942Y025924D03*
X062142Y025924D03*
X062142Y024724D03*
X062142Y029924D03*
X063942Y029924D03*
D27*
X061742Y010674D03*
X063742Y009974D03*
D28*
X053842Y010014D03*
X053342Y010014D03*
X052842Y010014D03*
X052342Y010014D03*
X051842Y010014D03*
X051342Y010014D03*
X050842Y010014D03*
X050842Y012434D03*
X051342Y012434D03*
X051842Y012434D03*
X052342Y012434D03*
X052842Y012434D03*
X053342Y012434D03*
X053842Y012434D03*
X053542Y020414D03*
X053042Y020414D03*
X052542Y020414D03*
X052042Y020414D03*
X051542Y020414D03*
X051042Y020414D03*
X050542Y020414D03*
X050542Y022834D03*
X051042Y022834D03*
X051542Y022834D03*
X052042Y022834D03*
X052542Y022834D03*
X053042Y022834D03*
X053542Y022834D03*
X019742Y012634D03*
X019242Y012634D03*
X018742Y012634D03*
X018242Y012634D03*
X017742Y012634D03*
X017242Y012634D03*
X016742Y012634D03*
X016742Y010214D03*
X017242Y010214D03*
X017742Y010214D03*
X018242Y010214D03*
X018742Y010214D03*
X019242Y010214D03*
X019742Y010214D03*
X009542Y021214D03*
X009042Y021214D03*
X008542Y021214D03*
X008042Y021214D03*
X007542Y021214D03*
X007042Y021214D03*
X006542Y021214D03*
X006542Y023634D03*
X007042Y023634D03*
X007542Y023634D03*
X008042Y023634D03*
X008542Y023634D03*
X009042Y023634D03*
X009542Y023634D03*
D29*
X010242Y024124D03*
X009842Y024724D03*
X007242Y024724D03*
X009242Y022224D03*
X010542Y021824D03*
X010542Y021324D03*
X007042Y021924D03*
X006542Y021924D03*
X005742Y021424D03*
X004842Y019524D03*
X005342Y019024D03*
X008442Y018824D03*
X009142Y018724D03*
X010342Y018424D03*
X012242Y018324D03*
X012242Y017024D03*
X011142Y016224D03*
X010742Y015924D03*
X009742Y016624D03*
X012242Y015824D03*
X010542Y014624D03*
X010042Y014624D03*
X009242Y014324D03*
X007642Y014324D03*
X007242Y013924D03*
X006442Y014224D03*
X006042Y015124D03*
X005742Y016424D03*
X005742Y017024D03*
X004542Y016924D03*
X003642Y015424D03*
X003842Y014724D03*
X004142Y014324D03*
X003642Y014224D03*
X002142Y013424D03*
X001342Y014024D03*
X004142Y013024D03*
X004142Y012224D03*
X003842Y011824D03*
X004542Y010524D03*
X007742Y012624D03*
X011242Y013324D03*
X011842Y013224D03*
X012242Y013924D03*
X014842Y012224D03*
X015142Y011824D03*
X014842Y010924D03*
X015842Y010624D03*
X015042Y010424D03*
X017542Y011424D03*
X018342Y010924D03*
X019942Y009524D03*
X019342Y009424D03*
X020742Y008024D03*
X019942Y007624D03*
X025242Y011624D03*
X030542Y010224D03*
X031342Y010624D03*
X045942Y008724D03*
X046442Y009824D03*
X046442Y010524D03*
X046442Y011024D03*
X049342Y010524D03*
X049342Y009824D03*
X049342Y009324D03*
X050142Y009824D03*
X050942Y009324D03*
X050542Y008624D03*
X052342Y009324D03*
X053442Y009124D03*
X054242Y009024D03*
X053742Y010924D03*
X050042Y011824D03*
X059442Y009524D03*
X059942Y011424D03*
X059942Y006424D03*
X059942Y005424D03*
X049342Y017524D03*
X049542Y018024D03*
X046542Y017524D03*
X044342Y018324D03*
X049442Y019924D03*
X049342Y021224D03*
X050542Y022124D03*
X049342Y022224D03*
X049342Y023524D03*
X051042Y024224D03*
X051342Y023524D03*
X052842Y024424D03*
X052142Y021124D03*
X045042Y022424D03*
X041842Y025424D03*
X033242Y021824D03*
X031042Y019924D03*
X020542Y021824D03*
X016942Y019524D03*
X014842Y022224D03*
X012242Y023524D03*
X014842Y024224D03*
X014842Y025424D03*
X002542Y021924D03*
X014842Y016724D03*
X011942Y011824D03*
X012242Y010424D03*
X010442Y006924D03*
X009242Y006424D03*
X050442Y028724D03*
X052042Y028624D03*
X061442Y023924D03*
D30*
X050442Y019424D03*
X051942Y016924D03*
X050642Y016424D03*
X046742Y014424D03*
X046842Y013624D03*
X049342Y012524D03*
X043442Y013024D03*
X045542Y025824D03*
X025742Y027124D03*
X013642Y027124D03*
X008642Y010024D03*
M02*
