G75*
G70*
%OFA0B0*%
%FSLAX24Y24*%
%IPPOS*%
%LPD*%
%AMOC8*
5,1,8,0,0,1.08239X$1,22.5*
%
%ADD10R,0.0591X0.0512*%
%ADD11R,0.0260X0.0800*%
%ADD12R,0.0591X0.0472*%
%ADD13R,0.0512X0.0591*%
%ADD14O,0.0885X0.1770*%
%ADD15O,0.1185X0.2370*%
%ADD16OC8,0.0630*%
%ADD17C,0.0630*%
%ADD18O,0.1770X0.0885*%
%ADD19OC8,0.0520*%
%ADD20R,0.0276X0.0591*%
%ADD21C,0.0750*%
%ADD22C,0.1400*%
%ADD23R,0.1004X0.0984*%
%ADD24O,0.1500X0.0750*%
%ADD25R,0.0630X0.0710*%
%ADD26R,0.0394X0.0551*%
%ADD27OC8,0.0600*%
%ADD28C,0.0660*%
%ADD29O,0.0560X0.1120*%
%ADD30C,0.0160*%
%ADD31C,0.0400*%
%ADD32C,0.0240*%
%ADD33C,0.0100*%
%ADD34C,0.0480*%
%ADD35C,0.1500*%
%ADD36C,0.0400*%
D10*
X006551Y005589D03*
X006551Y006259D03*
X014051Y006259D03*
X014051Y005589D03*
X022051Y005589D03*
X022051Y006259D03*
X029551Y006259D03*
X029551Y005589D03*
X037551Y005589D03*
X037551Y006259D03*
X045051Y006259D03*
X045051Y005589D03*
X053051Y005589D03*
X053051Y006259D03*
X060551Y006259D03*
X060551Y005589D03*
X056151Y028889D03*
X056151Y029559D03*
X048651Y029559D03*
X048651Y028889D03*
X040651Y028889D03*
X040651Y029559D03*
X033151Y029559D03*
X033151Y028889D03*
X025151Y028889D03*
X025151Y029559D03*
X017651Y029559D03*
X017651Y028889D03*
X009651Y028889D03*
X009651Y029559D03*
X002151Y029559D03*
X002151Y028889D03*
D11*
X006901Y025054D03*
X007401Y025054D03*
X007901Y025054D03*
X008401Y025054D03*
X008901Y025054D03*
X009401Y025054D03*
X009901Y025054D03*
X010401Y025054D03*
X010401Y021194D03*
X009901Y021194D03*
X009401Y021194D03*
X008901Y021194D03*
X008401Y021194D03*
X007901Y021194D03*
X007401Y021194D03*
X006901Y021194D03*
X018101Y016254D03*
X018601Y016254D03*
X019101Y016254D03*
X019601Y016254D03*
X020101Y016254D03*
X020601Y016254D03*
X021101Y016254D03*
X021601Y016254D03*
X021601Y012394D03*
X021101Y012394D03*
X020601Y012394D03*
X020101Y012394D03*
X019601Y012394D03*
X019101Y012394D03*
X018601Y012394D03*
X018101Y012394D03*
X050301Y010494D03*
X050801Y010494D03*
X051301Y010494D03*
X051801Y010494D03*
X052301Y010494D03*
X052801Y010494D03*
X053301Y010494D03*
X053801Y010494D03*
X053801Y014354D03*
X053301Y014354D03*
X052801Y014354D03*
X052301Y014354D03*
X051801Y014354D03*
X051301Y014354D03*
X050801Y014354D03*
X050301Y014354D03*
X050301Y021594D03*
X050801Y021594D03*
X051301Y021594D03*
X051801Y021594D03*
X052301Y021594D03*
X052801Y021594D03*
X053301Y021594D03*
X053801Y021594D03*
X053801Y025454D03*
X053301Y025454D03*
X052801Y025454D03*
X052301Y025454D03*
X051801Y025454D03*
X051301Y025454D03*
X050801Y025454D03*
X050301Y025454D03*
D12*
X050880Y018824D03*
X052021Y018824D03*
X052980Y007824D03*
X054121Y007824D03*
X017921Y010824D03*
X016780Y010824D03*
X006721Y019624D03*
X005580Y019624D03*
D13*
X007816Y019624D03*
X008485Y019624D03*
X009816Y019624D03*
X010485Y019624D03*
X019016Y010824D03*
X019685Y010824D03*
X021016Y010824D03*
X021685Y010824D03*
X007385Y010024D03*
X006716Y010024D03*
X004785Y009924D03*
X004116Y009924D03*
X002385Y009924D03*
X001716Y009924D03*
X001716Y008524D03*
X002385Y008524D03*
X006716Y008524D03*
X007385Y008524D03*
X051216Y008924D03*
X051885Y008924D03*
X053216Y008924D03*
X053885Y008924D03*
X053885Y020024D03*
X053216Y020024D03*
X051885Y020024D03*
X051216Y020024D03*
D14*
X050851Y031174D03*
X048651Y031174D03*
X045051Y031174D03*
X042851Y031174D03*
X040651Y031174D03*
X037551Y031174D03*
X035351Y031174D03*
X033151Y031174D03*
X029551Y031174D03*
X027351Y031174D03*
X025151Y031174D03*
X022051Y031174D03*
X019851Y031174D03*
X017651Y031174D03*
X014051Y031174D03*
X011851Y031174D03*
X009651Y031174D03*
X006551Y031174D03*
X004351Y031174D03*
X002151Y031174D03*
X002151Y003974D03*
X004351Y003974D03*
X006551Y003974D03*
X009651Y003974D03*
X011851Y003974D03*
X014051Y003974D03*
X017651Y003974D03*
X019851Y003974D03*
X022051Y003974D03*
X025151Y003974D03*
X027351Y003974D03*
X029551Y003974D03*
X033151Y003974D03*
X035351Y003974D03*
X037551Y003974D03*
X040651Y003974D03*
X042851Y003974D03*
X045051Y003974D03*
X048651Y003974D03*
X050851Y003974D03*
X053051Y003974D03*
X056151Y003974D03*
X058351Y003974D03*
X060551Y003974D03*
X060551Y031174D03*
X058351Y031174D03*
X056151Y031174D03*
X053051Y031174D03*
D15*
X053051Y029324D03*
X050851Y029324D03*
X045051Y029324D03*
X042851Y029324D03*
X037551Y029324D03*
X035351Y029324D03*
X029551Y029324D03*
X027351Y029324D03*
X022051Y029324D03*
X019851Y029324D03*
X014051Y029324D03*
X011851Y029324D03*
X006551Y029324D03*
X004351Y029324D03*
X004351Y005824D03*
X002151Y005824D03*
X009651Y005824D03*
X011851Y005824D03*
X017651Y005824D03*
X019851Y005824D03*
X025151Y005824D03*
X027351Y005824D03*
X033151Y005824D03*
X035351Y005824D03*
X040651Y005824D03*
X042851Y005824D03*
X048651Y005824D03*
X050851Y005824D03*
X056151Y005824D03*
X058351Y005824D03*
X058351Y029324D03*
X060551Y029324D03*
D16*
X048351Y026824D03*
X048351Y023324D03*
X048351Y019824D03*
X048351Y016324D03*
X048351Y012824D03*
X048351Y009324D03*
X013851Y008824D03*
X013851Y012324D03*
X013851Y015824D03*
X013851Y019324D03*
X013851Y022824D03*
X013851Y026324D03*
D17*
X012851Y026324D03*
X012851Y022824D03*
X012851Y019324D03*
X012851Y015824D03*
X012851Y012324D03*
X012851Y008824D03*
X047351Y009324D03*
X047351Y012824D03*
X047351Y016324D03*
X047351Y019824D03*
X047351Y023324D03*
X047351Y026824D03*
D18*
X035251Y027224D03*
X029251Y027224D03*
D19*
X011351Y016824D03*
X011351Y011824D03*
X010851Y010824D03*
X010851Y008824D03*
X045351Y008324D03*
X045351Y010324D03*
X045851Y011324D03*
X045851Y016324D03*
D20*
X008801Y015541D03*
X008301Y015541D03*
X007801Y015541D03*
X007301Y015541D03*
X006801Y015541D03*
X006301Y015541D03*
X005801Y015541D03*
X005301Y015541D03*
X005301Y012907D03*
X005801Y012907D03*
X006301Y012907D03*
X006801Y012907D03*
X007301Y012907D03*
X007801Y012907D03*
X008301Y012907D03*
X008801Y012907D03*
D21*
X016832Y020543D03*
X017817Y020543D03*
X018801Y020543D03*
X019785Y020543D03*
X020769Y020543D03*
X032432Y020543D03*
X033417Y020543D03*
X034401Y020543D03*
X035385Y020543D03*
X036369Y020543D03*
X055269Y020389D03*
X055269Y021374D03*
X055269Y022358D03*
X055269Y023342D03*
X055269Y019405D03*
D22*
X057632Y020980D03*
X057632Y013500D03*
X042275Y022905D03*
X034795Y022905D03*
X026675Y022905D03*
X019195Y022905D03*
D23*
X009445Y026624D03*
X007456Y026624D03*
X018656Y017724D03*
X020645Y017724D03*
X039356Y020324D03*
X041345Y020324D03*
X042856Y020324D03*
X044845Y020324D03*
X050956Y015924D03*
X052945Y015924D03*
X053445Y027024D03*
X051456Y027024D03*
D24*
X037351Y017824D03*
X037351Y013824D03*
X037351Y009824D03*
X029351Y012824D03*
X029351Y014824D03*
X062951Y007624D03*
X062951Y006124D03*
X062951Y004624D03*
X062951Y003124D03*
X062951Y001624D03*
D25*
X005010Y008524D03*
X003891Y008524D03*
D26*
X028877Y002257D03*
X029625Y002257D03*
X029251Y001391D03*
X059877Y002257D03*
X060625Y002257D03*
X060251Y001391D03*
X060177Y032891D03*
X060925Y032891D03*
X060551Y033757D03*
X029925Y032891D03*
X029177Y032891D03*
X029551Y033757D03*
D27*
X002851Y023524D03*
X002851Y022524D03*
X001851Y022524D03*
X001851Y023524D03*
X001851Y021524D03*
X002851Y021524D03*
X002851Y020524D03*
X001851Y020524D03*
X001851Y019524D03*
X002851Y019524D03*
X002851Y018524D03*
X001851Y018524D03*
X001851Y017524D03*
X002851Y017524D03*
X002851Y016524D03*
X001851Y016524D03*
X001851Y015524D03*
X002851Y015524D03*
X002851Y014524D03*
X001851Y014524D03*
X061851Y012224D03*
X061851Y019224D03*
D28*
X063651Y019024D03*
X063651Y020724D03*
X062551Y020724D03*
X061351Y020724D03*
X061351Y024724D03*
X062551Y024724D03*
X063651Y024724D03*
X063651Y015024D03*
D29*
X061351Y010674D03*
X063351Y009974D03*
D30*
X060051Y006824D02*
X060051Y006724D01*
X060351Y006424D01*
X060551Y006259D01*
X060551Y005589D02*
X060551Y003974D01*
X053051Y003974D02*
X053051Y005589D01*
X053051Y006259D02*
X052851Y006424D01*
X052601Y006674D01*
X053151Y007224D01*
X052601Y006674D02*
X050351Y008924D01*
X050351Y010124D01*
X050301Y010494D01*
X050051Y008624D02*
X049551Y008124D01*
X049551Y007424D01*
X049351Y007224D01*
X044851Y007224D01*
X044851Y006424D01*
X045051Y006259D01*
X045051Y005589D02*
X045051Y003974D01*
X040351Y007224D02*
X039851Y006724D01*
X039851Y006424D01*
X037751Y006424D01*
X037551Y006259D01*
X037551Y005589D02*
X037551Y003974D01*
X040351Y007224D02*
X044851Y007224D01*
X053851Y010124D02*
X053801Y010494D01*
X053851Y010124D02*
X054051Y009924D01*
X054051Y009724D01*
X053801Y021594D02*
X053851Y021924D01*
X053951Y022024D01*
X053951Y023324D01*
X052551Y024724D01*
X049751Y026024D02*
X049751Y027824D01*
X048851Y028724D01*
X048651Y028889D01*
X048651Y029559D02*
X048651Y031174D01*
X054151Y028724D02*
X055951Y028724D01*
X056151Y028889D01*
X056151Y029559D02*
X056151Y031174D01*
X049751Y026024D02*
X049751Y022624D01*
X050251Y022124D01*
X050251Y021924D01*
X050301Y021594D01*
X049151Y024924D02*
X046151Y024924D01*
X046151Y027824D01*
X045951Y028024D01*
X045451Y028024D01*
X045351Y027924D01*
X040451Y027924D01*
X040451Y026524D01*
X034551Y026524D01*
X034151Y026924D01*
X034151Y027924D01*
X033351Y028724D01*
X033151Y028889D01*
X033151Y029559D02*
X033151Y031174D01*
X040651Y031174D02*
X040651Y029559D01*
X040651Y028889D02*
X040451Y028724D01*
X040451Y027924D01*
X025151Y028889D02*
X024951Y028724D01*
X024951Y027924D01*
X019551Y027924D01*
X019051Y028424D01*
X019051Y028724D01*
X017851Y028724D01*
X017651Y028889D01*
X017451Y028724D01*
X015551Y028724D01*
X013351Y026524D01*
X013351Y026024D01*
X011051Y023724D01*
X010851Y023724D01*
X010451Y024224D02*
X010751Y024524D01*
X010751Y026724D01*
X009101Y028374D01*
X008651Y027924D01*
X009101Y028374D02*
X009451Y028724D01*
X009651Y028889D01*
X009651Y029559D02*
X009651Y031174D01*
X003251Y028724D02*
X002351Y028724D01*
X002151Y028889D01*
X002151Y029559D02*
X002151Y031174D01*
X010451Y024224D02*
X010451Y021524D01*
X010401Y021194D01*
X006951Y021524D02*
X006901Y021194D01*
X006951Y021524D02*
X006951Y022824D01*
X017651Y029559D02*
X017651Y031174D01*
X025151Y031174D02*
X025151Y029559D01*
X021051Y013324D02*
X015551Y013324D01*
X015551Y008924D01*
X013851Y007224D01*
X013851Y006424D01*
X014051Y006259D01*
X014051Y005589D02*
X014051Y003974D01*
X009351Y007224D02*
X008851Y006724D01*
X008851Y006424D01*
X006751Y006424D01*
X006551Y006259D01*
X006551Y005589D02*
X006551Y003974D01*
X009351Y007224D02*
X013851Y007224D01*
X017451Y010224D02*
X017451Y011424D01*
X018051Y012024D01*
X018101Y012394D01*
X021051Y013324D02*
X021451Y012924D01*
X021451Y012824D01*
X021551Y012724D01*
X021601Y012394D01*
X028551Y007224D02*
X029351Y006424D01*
X029551Y006259D01*
X029551Y005589D02*
X029551Y003974D01*
X024051Y006424D02*
X022251Y006424D01*
X022051Y006259D01*
X022051Y005589D02*
X022051Y003974D01*
D31*
X024051Y006424D03*
X028551Y007224D03*
X033751Y007624D03*
X030451Y010624D03*
X024551Y010224D03*
X023951Y011824D03*
X021351Y010224D03*
X020251Y011524D03*
X018151Y010224D03*
X017451Y010224D03*
X015151Y010224D03*
X014651Y012224D03*
X014651Y013424D03*
X012051Y014624D03*
X011651Y013824D03*
X010051Y012824D03*
X009551Y013824D03*
X007951Y014524D03*
X007051Y014124D03*
X007051Y013624D03*
X006851Y014924D03*
X006451Y016124D03*
X005951Y016124D03*
X005551Y016924D03*
X005051Y016924D03*
X006251Y017024D03*
X007851Y017024D03*
X007451Y016124D03*
X009651Y016624D03*
X010051Y016324D03*
X009651Y017224D03*
X011951Y016724D03*
X010051Y015324D03*
X014651Y015524D03*
X014651Y016024D03*
X014651Y016524D03*
X014651Y017024D03*
X015551Y016624D03*
X017851Y018624D03*
X015151Y019824D03*
X016151Y020224D03*
X010851Y020224D03*
X010851Y020724D03*
X009851Y020324D03*
X010851Y019024D03*
X007051Y020224D03*
X005051Y020924D03*
X003751Y021024D03*
X006951Y022824D03*
X007151Y024024D03*
X009451Y022024D03*
X009951Y022024D03*
X010851Y021624D03*
X010851Y022424D03*
X010851Y023724D03*
X008651Y027924D03*
X003251Y028724D03*
X012951Y032224D03*
X018651Y027924D03*
X029751Y022124D03*
X032351Y021624D03*
X033851Y019624D03*
X037751Y017024D03*
X041451Y016824D03*
X043751Y019624D03*
X044051Y020424D03*
X045251Y021124D03*
X045351Y021824D03*
X049351Y021824D03*
X049851Y021924D03*
X049151Y020524D03*
X049151Y019724D03*
X053751Y017824D03*
X052251Y016624D03*
X052051Y015124D03*
X049651Y016224D03*
X049151Y016224D03*
X046151Y013224D03*
X046551Y011824D03*
X050051Y008624D03*
X049151Y008224D03*
X049151Y007624D03*
X046051Y008224D03*
X052951Y011224D03*
X054051Y009724D03*
X053151Y007224D03*
X059751Y008224D03*
X060051Y006824D03*
X059851Y002824D03*
X037751Y012324D03*
X021451Y017424D03*
X019651Y015524D03*
X018951Y015524D03*
X011651Y010224D03*
X004551Y010624D03*
X003751Y009324D03*
X001751Y009324D03*
X002651Y007924D03*
X004451Y007924D03*
X001351Y013324D03*
X001351Y013824D03*
X004151Y015024D03*
X004551Y018524D03*
X006251Y018624D03*
X045751Y027624D03*
X049751Y026024D03*
X049151Y024924D03*
X050351Y023924D03*
X049151Y023424D03*
X051951Y023224D03*
X052551Y024724D03*
X050151Y027724D03*
X054151Y028724D03*
X059051Y024624D03*
X059951Y022024D03*
D32*
X059051Y024624D02*
X055951Y021524D01*
X055851Y021524D01*
X055851Y021324D01*
X059351Y017824D01*
X059351Y001624D01*
X060151Y001624D01*
X060251Y001391D01*
X053951Y001824D02*
X053951Y006924D01*
X053551Y007324D01*
X053551Y008124D01*
X053351Y008324D01*
X053351Y008724D01*
X053216Y008924D01*
X053051Y009124D01*
X052851Y009324D01*
X052851Y010124D01*
X052801Y010494D01*
X053301Y010494D02*
X053351Y010124D01*
X053351Y009824D01*
X053751Y009424D01*
X053751Y009124D01*
X053885Y008924D01*
X054551Y008224D02*
X054551Y019324D01*
X054051Y019824D01*
X053885Y020024D01*
X053751Y020224D01*
X053751Y020424D01*
X053451Y020724D01*
X053451Y021124D01*
X053351Y021224D01*
X053301Y021594D01*
X052801Y021594D02*
X052851Y021224D01*
X052851Y020424D01*
X053051Y020224D01*
X053216Y020024D01*
X052051Y019824D02*
X051885Y020024D01*
X051751Y020224D01*
X051751Y020424D01*
X051451Y020724D01*
X051451Y021124D01*
X051351Y021224D01*
X051301Y021594D01*
X050801Y021594D02*
X050851Y021224D01*
X050851Y020424D01*
X050751Y020424D01*
X050451Y020124D01*
X050851Y020424D02*
X051051Y020224D01*
X051216Y020024D01*
X051751Y019824D02*
X051751Y019624D01*
X051151Y019024D01*
X050880Y018824D01*
X052021Y018824D02*
X052251Y018624D01*
X052251Y016624D01*
X051451Y015524D02*
X050956Y015924D01*
X050551Y016324D01*
X049701Y017174D01*
X049751Y017224D01*
X049751Y021824D01*
X049851Y021924D01*
X051951Y023224D02*
X051951Y025024D01*
X051851Y025124D01*
X051801Y025454D01*
X051851Y025824D01*
X051851Y026624D01*
X051456Y027024D01*
X051051Y026624D01*
X050951Y026524D01*
X050951Y025924D01*
X050851Y025824D01*
X050801Y025454D01*
X049151Y024324D02*
X047451Y024324D01*
X047451Y023624D01*
X047351Y023324D01*
X052851Y023024D02*
X052851Y021924D01*
X052801Y021594D01*
X055269Y022358D02*
X055551Y022124D01*
X055851Y021824D01*
X055851Y021524D01*
X054751Y023824D02*
X058051Y027124D01*
X058051Y028224D01*
X058351Y029324D01*
X060651Y033524D02*
X060551Y033757D01*
X060651Y033524D02*
X061351Y033524D01*
X061351Y024724D01*
X053651Y018224D02*
X052051Y019824D01*
X051885Y020024D02*
X051751Y019824D01*
X053651Y018224D02*
X054151Y018224D01*
X054151Y013724D01*
X052201Y011774D01*
X052151Y011824D01*
X046551Y011824D01*
X046751Y012824D02*
X045951Y012824D01*
X045751Y013024D01*
X045751Y013424D01*
X046851Y014524D01*
X046851Y014724D01*
X046751Y014824D01*
X046551Y014724D01*
X048051Y016224D01*
X048351Y016324D01*
X047351Y016324D02*
X047051Y016224D01*
X046651Y015824D01*
X049701Y017174D02*
X047651Y019224D01*
X043351Y019224D01*
X043351Y019924D01*
X042856Y020324D01*
X041345Y020324D01*
X040851Y019924D01*
X040851Y017024D01*
X037951Y014124D01*
X037351Y013824D01*
X037351Y011124D01*
X038351Y010124D01*
X038351Y009524D01*
X038051Y009224D01*
X032151Y009224D01*
X032151Y001624D01*
X029351Y001624D01*
X029251Y001391D01*
X019851Y005824D02*
X020151Y006924D01*
X020151Y009924D01*
X020851Y010624D01*
X021016Y010824D01*
X020851Y011024D01*
X020651Y011224D01*
X020651Y012024D01*
X020601Y012394D01*
X021101Y012394D02*
X021151Y012024D01*
X021251Y011924D01*
X021251Y011524D01*
X021551Y011224D01*
X021551Y011024D01*
X021685Y010824D01*
X021551Y010624D01*
X021551Y010424D01*
X021351Y010224D01*
X020251Y011524D02*
X019551Y011524D01*
X019151Y011924D01*
X019151Y012024D01*
X019101Y012394D01*
X019051Y012724D01*
X019051Y013024D01*
X017851Y013024D01*
X017151Y012324D01*
X017151Y011124D01*
X017051Y011024D01*
X016780Y010824D01*
X017921Y010824D02*
X018151Y010624D01*
X018151Y010224D01*
X018551Y010324D02*
X018851Y010624D01*
X019016Y010824D01*
X018851Y011024D01*
X018651Y011224D01*
X018651Y012024D01*
X018601Y012394D01*
X019551Y011524D02*
X019551Y011024D01*
X019685Y010824D01*
X018551Y010324D02*
X018551Y007524D01*
X017951Y006924D01*
X017651Y005824D01*
X013851Y008824D02*
X013751Y009124D01*
X013751Y009824D01*
X012051Y009824D01*
X013651Y011724D02*
X015151Y011724D01*
X015151Y012624D01*
X013651Y011724D02*
X013151Y012224D01*
X012851Y012324D01*
X009551Y013824D02*
X008851Y013124D01*
X008801Y012907D01*
X008751Y012924D01*
X008351Y012924D01*
X008301Y012907D01*
X008251Y012724D01*
X007951Y012724D01*
X007836Y012704D01*
X007801Y012907D01*
X007751Y012924D01*
X007351Y012924D01*
X007301Y012907D01*
X007251Y012924D01*
X006851Y012924D01*
X006801Y012907D01*
X006751Y012924D01*
X006351Y012924D01*
X006301Y012907D01*
X006251Y012924D01*
X005851Y012924D01*
X005801Y012907D01*
X005751Y012924D01*
X005351Y012924D01*
X005301Y012907D01*
X005251Y013124D01*
X004651Y013724D01*
X004651Y018524D01*
X004551Y018524D01*
X004651Y018524D02*
X004651Y023824D01*
X007051Y026224D01*
X007456Y026624D01*
X007951Y026224D01*
X008251Y025924D01*
X008251Y025524D01*
X008351Y025424D01*
X008401Y025054D01*
X007401Y025054D02*
X007451Y025424D01*
X007451Y026224D01*
X007456Y026624D01*
X010851Y023124D02*
X013751Y026024D01*
X013851Y026324D01*
X017951Y027924D02*
X018551Y027324D01*
X027851Y027324D01*
X029251Y027224D02*
X029251Y028224D01*
X029551Y029324D01*
X029251Y027224D02*
X029851Y026824D01*
X030151Y026524D01*
X030151Y015324D01*
X029951Y015124D01*
X029351Y014824D01*
X023951Y014924D02*
X023951Y011824D01*
X018551Y014624D02*
X018551Y015924D01*
X018601Y016254D01*
X018651Y016624D01*
X018651Y017324D01*
X018656Y017724D01*
X018251Y018124D01*
X018251Y019924D01*
X017951Y020224D01*
X017817Y020543D01*
X017851Y018624D02*
X009851Y018624D01*
X009351Y019124D01*
X009351Y019424D01*
X008651Y019424D01*
X008485Y019624D01*
X008351Y019824D01*
X008351Y020024D01*
X008051Y020324D01*
X008051Y020724D01*
X007951Y020824D01*
X007901Y021194D01*
X007401Y021194D02*
X007451Y021524D01*
X007551Y021624D01*
X007551Y022824D01*
X007401Y021194D02*
X007451Y020824D01*
X007451Y020024D01*
X007651Y019824D01*
X007816Y019624D01*
X008351Y019424D02*
X008351Y019224D01*
X008151Y019024D01*
X008151Y018224D01*
X006051Y018224D01*
X005851Y018424D01*
X005851Y019424D01*
X005580Y019624D01*
X006721Y019624D02*
X006951Y019824D01*
X007051Y019924D01*
X007051Y020224D01*
X008351Y019424D02*
X008485Y019624D01*
X009851Y020324D02*
X009951Y020424D01*
X010351Y020024D01*
X010351Y019824D01*
X010485Y019624D01*
X009851Y020324D02*
X009851Y020824D01*
X009901Y021194D01*
X003351Y021024D02*
X003351Y019024D01*
X002851Y018524D01*
X003351Y021024D02*
X002851Y021524D01*
X012051Y014624D02*
X018551Y014624D01*
X019601Y016254D02*
X019551Y016624D01*
X019451Y016724D01*
X019451Y017024D01*
X019151Y017324D01*
X018656Y017724D01*
X021451Y017424D02*
X023951Y014924D01*
X032151Y019124D02*
X033251Y020224D01*
X033417Y020543D01*
X033251Y020824D01*
X032451Y021624D01*
X032351Y021624D01*
X032451Y021624D02*
X032451Y033624D01*
X029651Y033624D01*
X029551Y033757D01*
X035351Y029324D02*
X035251Y028224D01*
X035251Y027224D01*
X032151Y019124D02*
X032151Y009224D01*
X035951Y010124D02*
X036051Y010224D01*
X036051Y015174D01*
X046751Y013024D02*
X046751Y012824D01*
X046751Y013024D02*
X047151Y013424D01*
X048251Y013424D01*
X048251Y013124D01*
X048351Y012824D01*
X048651Y012724D01*
X049051Y012724D01*
X050451Y011324D02*
X050551Y011224D01*
X050551Y011124D01*
X048451Y011124D01*
X048451Y009624D01*
X048351Y009324D01*
X050851Y009324D02*
X050851Y010124D01*
X050801Y010494D01*
X050751Y010824D01*
X050651Y010924D01*
X050651Y011024D01*
X050551Y011124D01*
X051351Y010924D02*
X051351Y010824D01*
X051301Y010494D01*
X051351Y010124D01*
X051451Y010024D01*
X051451Y009624D01*
X051751Y009324D01*
X051751Y009124D01*
X051885Y008924D01*
X052051Y008724D01*
X052751Y008024D01*
X052980Y007824D01*
X054121Y007824D02*
X054351Y008024D01*
X054551Y008224D01*
X051216Y008924D02*
X051051Y009124D01*
X050851Y009324D01*
X053301Y010494D02*
X053251Y010824D01*
X053251Y010924D01*
X052951Y011224D01*
X052201Y011774D02*
X051351Y010924D01*
X051801Y014354D02*
X051751Y014724D01*
X051651Y014824D01*
X051651Y015324D01*
X051451Y015524D01*
X050851Y015524D02*
X050956Y015924D01*
X050851Y015524D02*
X050851Y014724D01*
X050801Y014354D01*
X007851Y012624D02*
X007851Y008024D01*
X006951Y008024D01*
X006851Y008124D01*
X006851Y008324D01*
X006716Y008524D01*
X007351Y009324D02*
X007351Y009824D01*
X007385Y010024D01*
X005251Y008824D02*
X005010Y008524D01*
X004751Y008224D01*
X004451Y007924D01*
X003891Y008524D02*
X004151Y008824D01*
X004551Y009224D01*
X005251Y008824D02*
X005251Y012624D01*
X005301Y012907D01*
X007836Y012704D02*
X007851Y012624D01*
X002385Y009924D02*
X002351Y009724D01*
X002351Y008724D01*
X002385Y008524D01*
X002551Y008324D01*
X002651Y008224D01*
X002651Y007924D01*
D33*
X003351Y008124D02*
X003951Y007524D01*
X005751Y007524D01*
X005751Y009024D01*
X006551Y009824D01*
X006716Y010024D01*
X006951Y009824D01*
X006951Y009124D01*
X007151Y008924D01*
X007151Y008724D01*
X007385Y008524D01*
X005951Y007524D02*
X005951Y007324D01*
X005851Y007224D01*
X003051Y007224D01*
X003051Y013624D01*
X002351Y014324D01*
X002351Y023024D01*
X001851Y023524D01*
X001351Y023024D02*
X001851Y022524D01*
X001351Y023024D02*
X001351Y027124D01*
X006051Y027124D01*
X007451Y028524D01*
X007451Y032224D01*
X012951Y032224D01*
X014051Y031174D02*
X014051Y029324D01*
X018651Y027924D02*
X018651Y027624D01*
X027351Y027624D01*
X028251Y028524D01*
X028251Y033324D01*
X029551Y033324D01*
X029751Y033124D01*
X029925Y032891D01*
X029351Y032724D02*
X029177Y032891D01*
X029351Y032724D02*
X030451Y031624D01*
X030451Y010624D01*
X030451Y003224D01*
X029751Y002524D01*
X029625Y002257D01*
X028877Y002257D02*
X028751Y002524D01*
X028251Y003024D01*
X028251Y007024D01*
X021051Y014224D01*
X009651Y014224D01*
X009651Y016624D01*
X010051Y016324D02*
X014051Y016324D01*
X014351Y016024D01*
X014651Y016024D01*
X014651Y015524D02*
X014251Y015524D01*
X014051Y015324D01*
X010051Y015324D01*
X008801Y015541D02*
X008751Y015324D01*
X007951Y014524D01*
X008251Y015324D02*
X008301Y015541D01*
X008251Y015324D02*
X007051Y014124D01*
X007051Y013624D02*
X005351Y015324D01*
X005301Y015541D01*
X005251Y015824D01*
X005051Y016024D01*
X005051Y016924D01*
X005551Y016924D02*
X005551Y016024D01*
X005751Y015824D01*
X005801Y015541D01*
X006301Y015541D02*
X006251Y015824D01*
X005951Y016124D01*
X006051Y016224D01*
X006051Y016524D01*
X006851Y016524D01*
X008851Y018524D01*
X008851Y018624D01*
X009151Y018624D01*
X009451Y018324D01*
X013851Y018324D01*
X015551Y016624D01*
X014651Y016524D02*
X011951Y016524D01*
X011951Y016724D01*
X012151Y017024D02*
X011951Y017224D01*
X009651Y017224D01*
X007851Y017024D02*
X006851Y016024D01*
X006851Y015824D01*
X006801Y015541D01*
X006751Y015824D01*
X006451Y016124D01*
X007451Y016124D02*
X007751Y015824D01*
X007801Y015541D01*
X007301Y015541D02*
X007251Y015324D01*
X006851Y014924D01*
X004151Y015024D02*
X004151Y023724D01*
X006551Y026124D01*
X006551Y027324D01*
X008051Y027324D01*
X008551Y026824D01*
X008551Y025724D01*
X008851Y025424D01*
X008901Y025054D01*
X009401Y025054D02*
X009351Y024724D01*
X008051Y023424D01*
X009451Y022024D01*
X009951Y022024D02*
X009451Y021524D01*
X009401Y021194D01*
X009451Y020824D01*
X009451Y020024D01*
X009651Y019824D01*
X009816Y019624D01*
X010851Y019024D02*
X011851Y019024D01*
X012651Y019824D01*
X015151Y019824D01*
X016151Y020224D02*
X010851Y020224D01*
X010851Y020724D02*
X016251Y020724D01*
X016651Y021124D01*
X018651Y021124D01*
X018651Y020824D01*
X018801Y020543D01*
X020551Y020824D02*
X020551Y021624D01*
X010851Y021624D01*
X010851Y022424D02*
X012551Y022424D01*
X012951Y022024D01*
X029751Y022024D01*
X029751Y022124D01*
X033851Y019624D02*
X034251Y020024D01*
X034251Y020224D01*
X034401Y020543D01*
X036369Y020543D02*
X036451Y020224D01*
X036451Y010424D01*
X036751Y010124D01*
X037351Y009824D01*
X033751Y007624D02*
X049151Y007624D01*
X049151Y008224D02*
X046051Y008224D01*
X049551Y012324D02*
X037751Y012324D01*
X041451Y016824D02*
X049051Y016824D01*
X049651Y016224D01*
X049151Y016224D02*
X046151Y013224D01*
X049551Y012324D02*
X051251Y014024D01*
X051301Y014354D01*
X052051Y014924D02*
X052251Y014724D01*
X052301Y014354D01*
X052801Y014354D02*
X052851Y014724D01*
X052851Y015524D01*
X052945Y015924D01*
X053351Y016324D01*
X053751Y016724D01*
X053751Y017824D01*
X055269Y019405D02*
X055151Y019724D01*
X054751Y020124D01*
X054751Y023224D01*
X052851Y025124D01*
X052801Y025454D01*
X052851Y025824D01*
X052951Y025924D01*
X052951Y026624D01*
X053445Y027024D01*
X052151Y027624D02*
X052051Y027724D01*
X050151Y027724D01*
X052151Y027624D02*
X052151Y025924D01*
X052251Y025824D01*
X052301Y025454D01*
X051301Y025454D02*
X051251Y025124D01*
X050351Y024224D01*
X050351Y023924D01*
X049151Y023424D02*
X047951Y022224D01*
X043651Y022224D01*
X043651Y019724D01*
X043751Y019624D01*
X044351Y020424D02*
X044845Y020324D01*
X048551Y020324D01*
X049151Y019724D01*
X049151Y020524D02*
X045551Y020524D01*
X045551Y020824D01*
X045251Y021124D01*
X045351Y021824D02*
X049351Y021824D01*
X044351Y020424D02*
X044051Y020424D01*
X040051Y019324D02*
X037751Y017024D01*
X037351Y017824D02*
X037951Y018124D01*
X037951Y018924D01*
X038951Y019924D01*
X039356Y020324D01*
X040051Y019324D02*
X040051Y021924D01*
X045751Y027624D01*
X059551Y032324D02*
X059551Y021924D01*
X059651Y021824D01*
X059651Y008224D01*
X059751Y008224D01*
X059651Y008224D02*
X059651Y003524D01*
X060251Y002924D01*
X060251Y002724D01*
X060451Y002524D01*
X060625Y002257D01*
X059877Y002257D02*
X059851Y002524D01*
X059851Y002824D01*
X052051Y014924D02*
X052051Y015124D01*
X059751Y022224D02*
X059951Y022024D01*
X059751Y022224D02*
X059751Y032224D01*
X060351Y032224D01*
X060751Y032624D01*
X060925Y032891D01*
X060177Y032891D02*
X060051Y032824D01*
X059551Y032324D01*
X027351Y031174D02*
X027351Y029324D01*
X019851Y029324D02*
X019851Y031174D01*
X009445Y026624D02*
X009451Y026224D01*
X009451Y025424D01*
X009401Y025054D01*
X007901Y025054D02*
X007851Y024724D01*
X007151Y024024D01*
X007851Y023224D02*
X006251Y023224D01*
X006251Y018624D01*
X005051Y018224D02*
X005051Y020924D01*
X003751Y021024D02*
X003651Y020924D01*
X003651Y009724D01*
X003351Y009424D01*
X003351Y008124D01*
X003751Y009324D02*
X003751Y009524D01*
X003951Y009724D01*
X004116Y009924D01*
X004551Y010124D02*
X004785Y009924D01*
X004551Y010124D02*
X004551Y010624D01*
X001716Y009924D02*
X001751Y009724D01*
X001751Y009324D01*
X001751Y008724D01*
X001716Y008524D01*
X005951Y007524D02*
X009351Y007524D01*
X009651Y007824D01*
X009651Y013424D01*
X014651Y013424D01*
X014051Y012824D02*
X010051Y012824D01*
X011651Y013824D02*
X020951Y013824D01*
X024551Y010224D01*
X019651Y015524D02*
X020051Y015924D01*
X020101Y016254D01*
X020601Y016254D02*
X020651Y016624D01*
X020651Y017324D01*
X020645Y017724D01*
X020651Y018124D01*
X020651Y020224D01*
X020769Y020543D01*
X020551Y020824D01*
X014651Y017024D02*
X012151Y017024D01*
X006251Y017024D02*
X005051Y018224D01*
X001851Y018524D02*
X001351Y018024D01*
X001351Y013824D01*
X001751Y013724D02*
X001751Y014324D01*
X001851Y014524D01*
X001751Y013724D02*
X001351Y013324D01*
X011651Y010224D02*
X015151Y010224D01*
X014651Y012224D02*
X014051Y012824D01*
X018951Y015524D02*
X018951Y015824D01*
X019051Y015924D01*
X019101Y016254D01*
X008051Y023424D02*
X007851Y023224D01*
X006551Y029324D02*
X006551Y031174D01*
D34*
X017951Y027924D03*
X010851Y023124D03*
X007551Y022824D03*
X015151Y012624D03*
X012051Y009824D03*
X007351Y009324D03*
X004551Y009224D03*
X035951Y010124D03*
X036051Y015174D03*
X046551Y014724D03*
X046651Y015824D03*
X049051Y012724D03*
X050451Y011324D03*
X050451Y020124D03*
X052851Y023024D03*
X054751Y023824D03*
X049151Y024324D03*
X027851Y027324D03*
D35*
X009651Y001824D02*
X002151Y001824D01*
X002151Y005824D01*
X009651Y005824D02*
X009651Y001824D01*
X019851Y001824D01*
X027351Y001824D01*
X027351Y005824D01*
X033151Y005824D02*
X033151Y003974D01*
X033151Y001824D01*
X053951Y001824D01*
X050851Y001824D01*
X050851Y003924D01*
X050851Y005824D01*
X050851Y003974D02*
X050851Y003924D01*
X053951Y001824D02*
X058351Y001824D01*
X058351Y003974D01*
X058351Y005824D01*
X040651Y005824D02*
X040651Y003974D01*
X040651Y001824D01*
X033151Y001824D01*
X019851Y001824D02*
X019851Y005824D01*
X037551Y029324D02*
X037551Y031174D01*
X037551Y033324D01*
X058351Y033324D01*
X050851Y033324D01*
X050851Y031174D01*
X050851Y029324D01*
X045051Y029324D02*
X045051Y031174D01*
X045051Y033324D01*
X037551Y033324D01*
X027351Y033324D02*
X027351Y031174D01*
X027351Y033324D02*
X019851Y033324D01*
X014051Y033324D01*
X006551Y033324D01*
X006551Y031174D01*
X014051Y031174D02*
X014051Y033324D01*
X019851Y033324D02*
X019851Y031174D01*
X058351Y031174D02*
X058351Y029324D01*
X058351Y031174D02*
X058351Y033324D01*
D36*
X062551Y024724D02*
X062451Y024424D01*
X062451Y022024D01*
X061451Y021024D01*
X061351Y020724D01*
X061251Y020424D01*
X060551Y019824D01*
X060651Y008324D01*
X062351Y006424D01*
X062951Y006124D01*
X062951Y004624D01*
X063551Y003424D02*
X064351Y004224D01*
X064351Y023824D01*
X063751Y024424D01*
X063651Y024724D01*
X061851Y019224D02*
X062051Y019024D01*
X062051Y016824D01*
X063551Y015324D01*
X063651Y015024D01*
X061851Y012224D02*
X061651Y012024D01*
X061651Y011424D01*
X061451Y011224D01*
X061351Y010674D01*
X063351Y009974D02*
X063351Y007924D01*
X062951Y007624D01*
X063551Y003424D02*
X062951Y003124D01*
M02*
