G75*
G70*
%OFA0B0*%
%FSLAX24Y24*%
%IPPOS*%
%LPD*%
%AMOC8*
5,1,8,0,0,1.08239X$1,22.5*
%
%ADD10R,0.0671X0.0592*%
%ADD11R,0.0340X0.0880*%
%ADD12R,0.0671X0.0552*%
%ADD13R,0.0592X0.0671*%
%ADD14O,0.0965X0.1850*%
%ADD15O,0.1265X0.2450*%
%ADD16OC8,0.0710*%
%ADD17C,0.0710*%
%ADD18O,0.1850X0.0965*%
%ADD19OC8,0.0600*%
%ADD20R,0.0356X0.0671*%
%ADD21C,0.0830*%
%ADD22C,0.1480*%
%ADD23R,0.1084X0.1064*%
%ADD24O,0.1580X0.0830*%
%ADD25R,0.0710X0.0790*%
%ADD26R,0.0474X0.0631*%
%ADD27OC8,0.0680*%
%ADD28C,0.0740*%
%ADD29O,0.0640X0.1200*%
%ADD30C,0.0480*%
%ADD31C,0.0560*%
D10*
X006551Y005589D03*
X006551Y006259D03*
X014051Y006259D03*
X014051Y005589D03*
X022051Y005589D03*
X022051Y006259D03*
X029551Y006259D03*
X029551Y005589D03*
X037551Y005589D03*
X037551Y006259D03*
X045051Y006259D03*
X045051Y005589D03*
X053051Y005589D03*
X053051Y006259D03*
X060551Y006259D03*
X060551Y005589D03*
X056151Y028889D03*
X056151Y029559D03*
X048651Y029559D03*
X048651Y028889D03*
X040651Y028889D03*
X040651Y029559D03*
X033151Y029559D03*
X033151Y028889D03*
X025151Y028889D03*
X025151Y029559D03*
X017651Y029559D03*
X017651Y028889D03*
X009651Y028889D03*
X009651Y029559D03*
X002151Y029559D03*
X002151Y028889D03*
D11*
X006901Y025054D03*
X007401Y025054D03*
X007901Y025054D03*
X008401Y025054D03*
X008901Y025054D03*
X009401Y025054D03*
X009901Y025054D03*
X010401Y025054D03*
X010401Y021194D03*
X009901Y021194D03*
X009401Y021194D03*
X008901Y021194D03*
X008401Y021194D03*
X007901Y021194D03*
X007401Y021194D03*
X006901Y021194D03*
X018101Y016254D03*
X018601Y016254D03*
X019101Y016254D03*
X019601Y016254D03*
X020101Y016254D03*
X020601Y016254D03*
X021101Y016254D03*
X021601Y016254D03*
X021601Y012394D03*
X021101Y012394D03*
X020601Y012394D03*
X020101Y012394D03*
X019601Y012394D03*
X019101Y012394D03*
X018601Y012394D03*
X018101Y012394D03*
X050301Y010494D03*
X050801Y010494D03*
X051301Y010494D03*
X051801Y010494D03*
X052301Y010494D03*
X052801Y010494D03*
X053301Y010494D03*
X053801Y010494D03*
X053801Y014354D03*
X053301Y014354D03*
X052801Y014354D03*
X052301Y014354D03*
X051801Y014354D03*
X051301Y014354D03*
X050801Y014354D03*
X050301Y014354D03*
X050301Y021594D03*
X050801Y021594D03*
X051301Y021594D03*
X051801Y021594D03*
X052301Y021594D03*
X052801Y021594D03*
X053301Y021594D03*
X053801Y021594D03*
X053801Y025454D03*
X053301Y025454D03*
X052801Y025454D03*
X052301Y025454D03*
X051801Y025454D03*
X051301Y025454D03*
X050801Y025454D03*
X050301Y025454D03*
D12*
X050880Y018824D03*
X052021Y018824D03*
X052980Y007824D03*
X054121Y007824D03*
X017921Y010824D03*
X016780Y010824D03*
X006721Y019624D03*
X005580Y019624D03*
D13*
X007816Y019624D03*
X008485Y019624D03*
X009816Y019624D03*
X010485Y019624D03*
X019016Y010824D03*
X019685Y010824D03*
X021016Y010824D03*
X021685Y010824D03*
X007385Y010024D03*
X006716Y010024D03*
X004785Y009924D03*
X004116Y009924D03*
X002385Y009924D03*
X001716Y009924D03*
X001716Y008524D03*
X002385Y008524D03*
X006716Y008524D03*
X007385Y008524D03*
X051216Y008924D03*
X051885Y008924D03*
X053216Y008924D03*
X053885Y008924D03*
X053885Y020024D03*
X053216Y020024D03*
X051885Y020024D03*
X051216Y020024D03*
D14*
X002151Y003974D03*
X004351Y003974D03*
X006551Y003974D03*
X009651Y003974D03*
X011851Y003974D03*
X014051Y003974D03*
X017651Y003974D03*
X019851Y003974D03*
X022051Y003974D03*
X025151Y003974D03*
X027351Y003974D03*
X029551Y003974D03*
X033151Y003974D03*
X035351Y003974D03*
X037551Y003974D03*
X040651Y003974D03*
X042851Y003974D03*
X045051Y003974D03*
X048651Y003974D03*
X050851Y003974D03*
X053051Y003974D03*
X056151Y003974D03*
X058351Y003974D03*
X060551Y003974D03*
X060551Y031174D03*
X058351Y031174D03*
X056151Y031174D03*
X053051Y031174D03*
X050851Y031174D03*
X048651Y031174D03*
X045051Y031174D03*
X042851Y031174D03*
X040651Y031174D03*
X037551Y031174D03*
X035351Y031174D03*
X033151Y031174D03*
X029551Y031174D03*
X027351Y031174D03*
X025151Y031174D03*
X022051Y031174D03*
X019851Y031174D03*
X017651Y031174D03*
X014051Y031174D03*
X011851Y031174D03*
X009651Y031174D03*
X006551Y031174D03*
X004351Y031174D03*
X002151Y031174D03*
D15*
X004351Y029324D03*
X006551Y029324D03*
X011851Y029324D03*
X014051Y029324D03*
X019851Y029324D03*
X022051Y029324D03*
X027351Y029324D03*
X029551Y029324D03*
X035351Y029324D03*
X037551Y029324D03*
X042851Y029324D03*
X045051Y029324D03*
X050851Y029324D03*
X053051Y029324D03*
X058351Y029324D03*
X060551Y029324D03*
X058351Y005824D03*
X056151Y005824D03*
X050851Y005824D03*
X048651Y005824D03*
X042851Y005824D03*
X040651Y005824D03*
X035351Y005824D03*
X033151Y005824D03*
X027351Y005824D03*
X025151Y005824D03*
X019851Y005824D03*
X017651Y005824D03*
X011851Y005824D03*
X009651Y005824D03*
X004351Y005824D03*
X002151Y005824D03*
D16*
X013851Y008824D03*
X013851Y012324D03*
X013851Y015824D03*
X013851Y019324D03*
X013851Y022824D03*
X013851Y026324D03*
X048351Y026824D03*
X048351Y023324D03*
X048351Y019824D03*
X048351Y016324D03*
X048351Y012824D03*
X048351Y009324D03*
D17*
X047351Y009324D03*
X047351Y012824D03*
X047351Y016324D03*
X047351Y019824D03*
X047351Y023324D03*
X047351Y026824D03*
X012851Y026324D03*
X012851Y022824D03*
X012851Y019324D03*
X012851Y015824D03*
X012851Y012324D03*
X012851Y008824D03*
D18*
X029251Y027224D03*
X035251Y027224D03*
D19*
X045851Y016324D03*
X045851Y011324D03*
X045351Y010324D03*
X045351Y008324D03*
X011351Y011824D03*
X010851Y010824D03*
X010851Y008824D03*
X011351Y016824D03*
D20*
X008801Y015541D03*
X008301Y015541D03*
X007801Y015541D03*
X007301Y015541D03*
X006801Y015541D03*
X006301Y015541D03*
X005801Y015541D03*
X005301Y015541D03*
X005301Y012907D03*
X005801Y012907D03*
X006301Y012907D03*
X006801Y012907D03*
X007301Y012907D03*
X007801Y012907D03*
X008301Y012907D03*
X008801Y012907D03*
D21*
X016832Y020543D03*
X017817Y020543D03*
X018801Y020543D03*
X019785Y020543D03*
X020769Y020543D03*
X032432Y020543D03*
X033417Y020543D03*
X034401Y020543D03*
X035385Y020543D03*
X036369Y020543D03*
X055269Y020389D03*
X055269Y021374D03*
X055269Y022358D03*
X055269Y023342D03*
X055269Y019405D03*
D22*
X057632Y020980D03*
X057632Y013500D03*
X042275Y022905D03*
X034795Y022905D03*
X026675Y022905D03*
X019195Y022905D03*
D23*
X009445Y026624D03*
X007456Y026624D03*
X018656Y017724D03*
X020645Y017724D03*
X039356Y020324D03*
X041345Y020324D03*
X042856Y020324D03*
X044845Y020324D03*
X050956Y015924D03*
X052945Y015924D03*
X053445Y027024D03*
X051456Y027024D03*
D24*
X037351Y017824D03*
X037351Y013824D03*
X037351Y009824D03*
X029351Y012824D03*
X029351Y014824D03*
X062951Y007624D03*
X062951Y006124D03*
X062951Y004624D03*
X062951Y003124D03*
X062951Y001624D03*
D25*
X005010Y008524D03*
X003891Y008524D03*
D26*
X028877Y002257D03*
X029625Y002257D03*
X029251Y001391D03*
X059877Y002257D03*
X060625Y002257D03*
X060251Y001391D03*
X060177Y032891D03*
X060925Y032891D03*
X060551Y033757D03*
X029925Y032891D03*
X029177Y032891D03*
X029551Y033757D03*
D27*
X002851Y023524D03*
X002851Y022524D03*
X001851Y022524D03*
X001851Y023524D03*
X001851Y021524D03*
X002851Y021524D03*
X002851Y020524D03*
X001851Y020524D03*
X001851Y019524D03*
X002851Y019524D03*
X002851Y018524D03*
X001851Y018524D03*
X001851Y017524D03*
X002851Y017524D03*
X002851Y016524D03*
X001851Y016524D03*
X001851Y015524D03*
X002851Y015524D03*
X002851Y014524D03*
X001851Y014524D03*
X061851Y012224D03*
X061851Y019224D03*
D28*
X063651Y019024D03*
X063651Y020724D03*
X062551Y020724D03*
X061351Y020724D03*
X061351Y024724D03*
X062551Y024724D03*
X063651Y024724D03*
X063651Y015024D03*
D29*
X061351Y010674D03*
X063351Y009974D03*
D30*
X059751Y008224D03*
X060051Y006824D03*
X054051Y009724D03*
X052951Y011224D03*
X050051Y008624D03*
X049151Y008224D03*
X049151Y007624D03*
X046051Y008224D03*
X046551Y011824D03*
X046151Y013224D03*
X049151Y016224D03*
X049651Y016224D03*
X052251Y016624D03*
X053751Y017824D03*
X052051Y015124D03*
X043751Y019624D03*
X044051Y020424D03*
X045251Y021124D03*
X045351Y021824D03*
X049351Y021824D03*
X049851Y021924D03*
X049151Y020524D03*
X049151Y019724D03*
X049151Y023424D03*
X050351Y023924D03*
X049151Y024924D03*
X049751Y026024D03*
X050151Y027724D03*
X054151Y028724D03*
X052551Y024724D03*
X051951Y023224D03*
X059051Y024624D03*
X059951Y022024D03*
X045751Y027624D03*
X032351Y021624D03*
X029751Y022124D03*
X033851Y019624D03*
X037751Y017024D03*
X041451Y016824D03*
X037751Y012324D03*
X030451Y010624D03*
X024551Y010224D03*
X023951Y011824D03*
X021351Y010224D03*
X020251Y011524D03*
X018151Y010224D03*
X017451Y010224D03*
X015151Y010224D03*
X014651Y012224D03*
X014651Y013424D03*
X012051Y014624D03*
X011651Y013824D03*
X010051Y012824D03*
X009551Y013824D03*
X007951Y014524D03*
X007051Y014124D03*
X007051Y013624D03*
X006851Y014924D03*
X006451Y016124D03*
X005951Y016124D03*
X005551Y016924D03*
X005051Y016924D03*
X006251Y017024D03*
X007851Y017024D03*
X007451Y016124D03*
X009651Y016624D03*
X010051Y016324D03*
X009651Y017224D03*
X011951Y016724D03*
X010051Y015324D03*
X014651Y015524D03*
X014651Y016024D03*
X014651Y016524D03*
X014651Y017024D03*
X015551Y016624D03*
X017851Y018624D03*
X015151Y019824D03*
X016151Y020224D03*
X010851Y020224D03*
X010851Y020724D03*
X009851Y020324D03*
X010851Y019024D03*
X007051Y020224D03*
X005051Y020924D03*
X003751Y021024D03*
X006951Y022824D03*
X007151Y024024D03*
X009451Y022024D03*
X009951Y022024D03*
X010851Y021624D03*
X010851Y022424D03*
X010851Y023724D03*
X008651Y027924D03*
X003251Y028724D03*
X012951Y032224D03*
X018651Y027924D03*
X006251Y018624D03*
X004551Y018524D03*
X004151Y015024D03*
X001351Y013824D03*
X001351Y013324D03*
X004551Y010624D03*
X003751Y009324D03*
X001751Y009324D03*
X002651Y007924D03*
X004451Y007924D03*
X011651Y010224D03*
X018951Y015524D03*
X019651Y015524D03*
X021451Y017424D03*
X033751Y007624D03*
X028551Y007224D03*
X024051Y006424D03*
X053151Y007224D03*
X059851Y002824D03*
D31*
X050451Y011324D03*
X049051Y012724D03*
X046551Y014724D03*
X046651Y015824D03*
X050451Y020124D03*
X052851Y023024D03*
X054751Y023824D03*
X049151Y024324D03*
X036051Y015174D03*
X035951Y010124D03*
X015151Y012624D03*
X012051Y009824D03*
X007351Y009324D03*
X004551Y009224D03*
X007551Y022824D03*
X010851Y023124D03*
X017951Y027924D03*
X027851Y027324D03*
M02*
