G75*
G70*
%OFA0B0*%
%FSLAX24Y24*%
%IPPOS*%
%LPD*%
%AMOC8*
5,1,8,0,0,1.08239X$1,22.5*
%
%ADD10O,0.0885X0.1770*%
%ADD11O,0.1185X0.2370*%
%ADD12OC8,0.0630*%
%ADD13C,0.0630*%
%ADD14O,0.1770X0.0885*%
%ADD15OC8,0.0520*%
%ADD16C,0.0750*%
%ADD17C,0.1400*%
%ADD18O,0.1500X0.0750*%
%ADD19OC8,0.0600*%
%ADD20C,0.0660*%
%ADD21O,0.0560X0.1120*%
%ADD22C,0.0160*%
%ADD23C,0.0400*%
%ADD24C,0.0240*%
%ADD25C,0.0100*%
%ADD26C,0.1500*%
%ADD27C,0.0860*%
%ADD28C,0.0480*%
%ADD29C,0.0320*%
%ADD30C,0.0400*%
D10*
X002151Y003974D03*
X004351Y003974D03*
X006551Y003974D03*
X009651Y003974D03*
X011851Y003974D03*
X014051Y003974D03*
X017651Y003974D03*
X019851Y003974D03*
X022051Y003974D03*
X025151Y003974D03*
X027351Y003974D03*
X029551Y003974D03*
X033151Y003974D03*
X035351Y003974D03*
X037551Y003974D03*
X040651Y003974D03*
X042851Y003974D03*
X045051Y003974D03*
X048651Y003974D03*
X050851Y003974D03*
X053051Y003974D03*
X056151Y003974D03*
X058351Y003974D03*
X060551Y003974D03*
X060551Y031174D03*
X058351Y031174D03*
X056151Y031174D03*
X053051Y031174D03*
X050851Y031174D03*
X048651Y031174D03*
X045051Y031174D03*
X042851Y031174D03*
X040651Y031174D03*
X037551Y031174D03*
X035351Y031174D03*
X033151Y031174D03*
X029551Y031174D03*
X027351Y031174D03*
X025151Y031174D03*
X022051Y031174D03*
X019851Y031174D03*
X017651Y031174D03*
X014051Y031174D03*
X011851Y031174D03*
X009651Y031174D03*
X006551Y031174D03*
X004351Y031174D03*
X002151Y031174D03*
D11*
X004351Y029324D03*
X006551Y029324D03*
X011851Y029324D03*
X014051Y029324D03*
X019851Y029324D03*
X022051Y029324D03*
X027351Y029324D03*
X029551Y029324D03*
X035351Y029324D03*
X037551Y029324D03*
X042851Y029324D03*
X045051Y029324D03*
X050851Y029324D03*
X053051Y029324D03*
X058351Y029324D03*
X060551Y029324D03*
X058351Y005824D03*
X056151Y005824D03*
X050851Y005824D03*
X048651Y005824D03*
X042851Y005824D03*
X040651Y005824D03*
X035351Y005824D03*
X033151Y005824D03*
X027351Y005824D03*
X025151Y005824D03*
X019851Y005824D03*
X017651Y005824D03*
X011851Y005824D03*
X009651Y005824D03*
X004351Y005824D03*
X002151Y005824D03*
D12*
X013851Y008824D03*
X013851Y012324D03*
X013851Y015824D03*
X013851Y019324D03*
X013851Y022824D03*
X013851Y026324D03*
X048351Y026824D03*
X048351Y023324D03*
X048351Y019824D03*
X048351Y016324D03*
X048351Y012824D03*
X048351Y009324D03*
D13*
X047351Y009324D03*
X047351Y012824D03*
X047351Y016324D03*
X047351Y019824D03*
X047351Y023324D03*
X047351Y026824D03*
X012851Y026324D03*
X012851Y022824D03*
X012851Y019324D03*
X012851Y015824D03*
X012851Y012324D03*
X012851Y008824D03*
D14*
X029251Y027224D03*
X035251Y027224D03*
D15*
X045851Y016324D03*
X045851Y011324D03*
X045351Y010324D03*
X045351Y008324D03*
X011351Y011824D03*
X010851Y010824D03*
X010851Y008824D03*
X011351Y016824D03*
D16*
X016832Y020543D03*
X017817Y020543D03*
X018801Y020543D03*
X019785Y020543D03*
X020769Y020543D03*
X032432Y020543D03*
X033417Y020543D03*
X034401Y020543D03*
X035385Y020543D03*
X036369Y020543D03*
X055269Y020389D03*
X055269Y021374D03*
X055269Y022358D03*
X055269Y023342D03*
X055269Y019405D03*
D17*
X057632Y020980D03*
X057632Y013500D03*
X042275Y022905D03*
X034795Y022905D03*
X026675Y022905D03*
X019195Y022905D03*
D18*
X029351Y014824D03*
X029351Y012824D03*
X037351Y013824D03*
X037351Y017824D03*
X037351Y009824D03*
X062951Y007624D03*
X062951Y006124D03*
X062951Y004624D03*
X062951Y003124D03*
X062951Y001624D03*
D19*
X061851Y012224D03*
X061851Y019224D03*
X002851Y019524D03*
X001851Y019524D03*
X001851Y018524D03*
X002851Y018524D03*
X002851Y017524D03*
X002851Y016524D03*
X001851Y016524D03*
X001851Y017524D03*
X001851Y015524D03*
X002851Y015524D03*
X002851Y014524D03*
X001851Y014524D03*
X001851Y020524D03*
X002851Y020524D03*
X002851Y021524D03*
X001851Y021524D03*
X001851Y022524D03*
X002851Y022524D03*
X002851Y023524D03*
X001851Y023524D03*
D20*
X061351Y024724D03*
X062551Y024724D03*
X063651Y024724D03*
X063651Y020724D03*
X062551Y020724D03*
X061351Y020724D03*
X063651Y019024D03*
X063651Y015024D03*
D21*
X061351Y010674D03*
X063351Y009974D03*
D22*
X060051Y006824D02*
X059651Y007224D01*
X053151Y007224D01*
X052951Y008624D02*
X050051Y008624D01*
X052951Y008624D02*
X054051Y009724D01*
X063751Y015524D02*
X063851Y015524D01*
X052551Y024724D02*
X052351Y024924D01*
X049151Y024924D01*
X049751Y026024D02*
X051451Y026024D01*
X054151Y028724D01*
X021151Y006524D02*
X017451Y010224D01*
X021151Y006524D02*
X023951Y006524D01*
X024051Y006424D01*
X024851Y007224D01*
X028551Y007224D01*
X007851Y023724D02*
X006951Y022824D01*
X007851Y023724D02*
X010851Y023724D01*
X008651Y027924D02*
X004051Y027924D01*
X003251Y028724D01*
D23*
X003251Y028724D03*
X008651Y027924D03*
X007151Y024024D03*
X006951Y022824D03*
X009451Y022024D03*
X009951Y022024D03*
X010851Y021624D03*
X010851Y022424D03*
X010851Y023724D03*
X010851Y020724D03*
X010851Y020224D03*
X009851Y020324D03*
X010851Y019024D03*
X009651Y017224D03*
X009651Y016624D03*
X010051Y016324D03*
X010051Y015324D03*
X012051Y014624D03*
X011651Y013824D03*
X010051Y012824D03*
X009551Y013824D03*
X007951Y014524D03*
X007051Y014124D03*
X007051Y013624D03*
X006851Y014924D03*
X006451Y016124D03*
X005951Y016124D03*
X005551Y016924D03*
X005051Y016924D03*
X006251Y017024D03*
X007851Y017024D03*
X007451Y016124D03*
X004151Y015024D03*
X001351Y013824D03*
X001351Y013324D03*
X004551Y010624D03*
X003751Y009324D03*
X001751Y009324D03*
X002651Y007924D03*
X004451Y007924D03*
X011651Y010224D03*
X015151Y010224D03*
X017451Y010224D03*
X018151Y010224D03*
X020251Y011524D03*
X021351Y010224D03*
X023951Y011824D03*
X024551Y010224D03*
X030451Y010624D03*
X033751Y007624D03*
X028551Y007224D03*
X024051Y006424D03*
X014651Y012224D03*
X014651Y013424D03*
X014651Y015524D03*
X014651Y016024D03*
X014651Y016524D03*
X014651Y017024D03*
X015551Y016624D03*
X017851Y018624D03*
X015151Y019824D03*
X016151Y020224D03*
X021451Y017424D03*
X019651Y015524D03*
X018951Y015524D03*
X011951Y016724D03*
X006251Y018624D03*
X004551Y018524D03*
X007051Y020224D03*
X005051Y020924D03*
X003751Y021024D03*
X018651Y027924D03*
X012951Y032224D03*
X029751Y022124D03*
X032351Y021624D03*
X033851Y019624D03*
X037751Y017024D03*
X041451Y016824D03*
X043751Y019624D03*
X044051Y020424D03*
X045251Y021124D03*
X045351Y021824D03*
X049351Y021824D03*
X049851Y021924D03*
X049151Y020524D03*
X049151Y019724D03*
X053751Y017824D03*
X052251Y016624D03*
X052051Y015124D03*
X049651Y016224D03*
X049151Y016224D03*
X046151Y013224D03*
X046551Y011824D03*
X050051Y008624D03*
X049151Y008224D03*
X049151Y007624D03*
X046051Y008224D03*
X052951Y011224D03*
X054051Y009724D03*
X053151Y007224D03*
X059751Y008224D03*
X060051Y006824D03*
X059851Y002824D03*
X037751Y012324D03*
X049151Y023424D03*
X050351Y023924D03*
X049151Y024924D03*
X049751Y026024D03*
X050151Y027724D03*
X054151Y028724D03*
X052551Y024724D03*
X051951Y023224D03*
X059051Y024624D03*
X059951Y022024D03*
X045751Y027624D03*
D24*
X049151Y024324D02*
X058751Y024324D01*
X062251Y020824D01*
X062551Y020724D01*
X055269Y022358D02*
X054951Y022524D01*
X052651Y022524D01*
X051951Y023224D01*
X050651Y021924D01*
X049851Y021924D01*
X052851Y023024D02*
X053651Y023824D01*
X054751Y023824D01*
X059051Y024624D02*
X061051Y024624D01*
X061351Y024724D01*
X050451Y020124D02*
X048351Y020124D01*
X052251Y016624D02*
X052251Y015524D01*
X052951Y014824D01*
X052951Y011224D01*
X050451Y011324D02*
X049051Y012724D01*
X047351Y012824D02*
X029351Y012824D01*
X028651Y012624D01*
X015151Y012624D01*
X012051Y014624D02*
X010351Y014624D01*
X009551Y013824D01*
X012051Y009824D02*
X005151Y009824D01*
X004551Y009224D01*
X004451Y007924D02*
X002651Y007924D01*
X004751Y006824D02*
X004351Y005824D01*
X004751Y006824D02*
X004851Y006824D01*
X007351Y009324D01*
X018151Y010224D02*
X021351Y010224D01*
X020251Y011524D02*
X020551Y011824D01*
X023951Y011824D01*
X046551Y011824D01*
X046551Y014724D02*
X030051Y014724D01*
X029351Y014824D01*
X036051Y015174D02*
X036701Y015824D01*
X046651Y015824D01*
X035951Y010124D02*
X035951Y006374D01*
X035901Y006324D01*
X035351Y005824D01*
X021451Y017424D02*
X019051Y017424D01*
X017851Y018624D01*
X017817Y020543D02*
X018051Y020824D01*
X018851Y021624D01*
X032351Y021624D01*
X034451Y027424D02*
X035251Y027224D01*
X034451Y027424D02*
X033951Y027924D01*
X028451Y027924D01*
X027851Y027324D01*
X017951Y027924D02*
X011851Y027924D01*
X010851Y023124D02*
X007851Y023124D01*
X007551Y022824D01*
X007151Y020324D02*
X009851Y020324D01*
X007151Y020324D02*
X007051Y020224D01*
X004551Y018524D02*
X002851Y018524D01*
D25*
X002351Y018024D02*
X001851Y018524D01*
X002351Y018024D02*
X005651Y018024D01*
X006251Y018624D01*
X006851Y019024D02*
X007251Y019424D01*
X010451Y019424D01*
X010851Y019024D01*
X010451Y019824D02*
X010851Y020224D01*
X010851Y020724D02*
X005851Y020724D01*
X005651Y020524D01*
X002851Y020524D01*
X002351Y021024D02*
X001851Y021524D01*
X002051Y022024D02*
X001351Y022024D01*
X001351Y021324D01*
X001651Y021024D01*
X001651Y020724D01*
X001851Y020524D01*
X002351Y021024D02*
X003751Y021024D01*
X005051Y020924D02*
X003651Y022324D01*
X003051Y022324D01*
X002851Y022524D01*
X002451Y022824D02*
X002651Y023024D01*
X006251Y023024D01*
X006851Y022424D01*
X010851Y022424D01*
X011351Y022024D02*
X009951Y022024D01*
X009851Y021624D02*
X010851Y021624D01*
X009851Y021624D02*
X009451Y022024D01*
X010451Y019824D02*
X003151Y019824D01*
X002851Y019524D01*
X002351Y019024D02*
X001851Y019524D01*
X002351Y019024D02*
X006851Y019024D01*
X006351Y017724D02*
X005551Y016924D01*
X005151Y017324D01*
X003051Y017324D01*
X002851Y017524D01*
X002351Y017024D02*
X001851Y017524D01*
X002351Y017024D02*
X004951Y017024D01*
X005051Y016924D01*
X006051Y016524D02*
X002851Y016524D01*
X002351Y016024D02*
X001851Y016524D01*
X002351Y016024D02*
X005851Y016024D01*
X005951Y016124D01*
X006051Y016524D02*
X006451Y016124D01*
X007051Y015724D02*
X003051Y015724D01*
X002851Y015524D01*
X002351Y015024D02*
X001851Y015524D01*
X002351Y015024D02*
X004151Y015024D01*
X006751Y015024D01*
X006851Y014924D01*
X007051Y014124D02*
X006951Y014024D01*
X002351Y014024D01*
X001851Y014524D01*
X001151Y014524D02*
X001151Y023024D01*
X002351Y023024D01*
X002851Y023524D01*
X002451Y022824D02*
X002351Y022824D01*
X002351Y022324D01*
X002051Y022024D01*
X000951Y023324D02*
X000951Y013324D01*
X001351Y013324D01*
X001351Y013824D02*
X004551Y010624D01*
X004651Y010224D02*
X003751Y009324D01*
X001751Y009324D01*
X004651Y010224D02*
X011651Y010224D01*
X015151Y010224D02*
X015551Y010624D01*
X030451Y010624D01*
X030551Y010524D01*
X043751Y010524D01*
X046051Y008224D01*
X049151Y008224D02*
X059751Y008224D01*
X060751Y007624D02*
X049151Y007624D01*
X046151Y013224D02*
X030151Y013224D01*
X029951Y013424D01*
X014651Y013424D01*
X014651Y012224D02*
X037651Y012224D01*
X037751Y012324D01*
X033751Y007624D02*
X031151Y010224D01*
X024551Y010224D01*
X019651Y015524D02*
X019151Y016024D01*
X014651Y016024D01*
X014951Y016224D02*
X014651Y016524D01*
X014951Y016224D02*
X040851Y016224D01*
X041451Y016824D01*
X040751Y016624D02*
X015551Y016624D01*
X014651Y017024D02*
X037751Y017024D01*
X037351Y017824D02*
X038051Y018024D01*
X040051Y020024D01*
X044151Y020024D01*
X045251Y021124D01*
X045351Y021824D02*
X034551Y021824D01*
X034251Y022124D01*
X029751Y022124D01*
X033851Y019624D02*
X015351Y019624D01*
X015151Y019824D01*
X016151Y020224D02*
X016351Y020024D01*
X019251Y020024D01*
X019551Y020324D01*
X019785Y020543D01*
X020051Y020324D01*
X020351Y020024D01*
X035751Y020024D01*
X035551Y020224D01*
X035385Y020543D01*
X035651Y021124D02*
X036051Y020724D01*
X036369Y020543D01*
X036651Y020424D01*
X044051Y020424D01*
X043751Y019624D02*
X040751Y016624D01*
X037651Y018124D02*
X037351Y017824D01*
X037651Y018124D02*
X035751Y020024D01*
X035651Y021124D02*
X021451Y021124D01*
X021051Y020724D01*
X020769Y020543D01*
X011951Y016724D02*
X011651Y016424D01*
X011151Y016424D01*
X010951Y016624D01*
X010951Y017724D01*
X006351Y017724D01*
X006251Y017024D02*
X006651Y016624D01*
X009651Y016624D01*
X009451Y017024D02*
X007851Y017024D01*
X007551Y016224D02*
X007451Y016124D01*
X007051Y015724D01*
X007551Y016224D02*
X009951Y016224D01*
X010051Y016324D01*
X009451Y017024D02*
X009651Y017224D01*
X010051Y015324D02*
X009351Y014624D01*
X008051Y014624D01*
X007951Y014524D01*
X002851Y014524D01*
X001151Y014524D02*
X003251Y012424D01*
X010251Y012424D01*
X011651Y013824D01*
X010051Y012824D02*
X009751Y013124D01*
X007551Y013124D01*
X007051Y013624D01*
X014651Y015524D02*
X018951Y015524D01*
X007151Y024024D02*
X001651Y024024D01*
X000951Y023324D01*
X012951Y032224D02*
X014351Y032224D01*
X018651Y027924D01*
X045751Y027624D02*
X050051Y027624D01*
X050151Y027724D01*
X050351Y023924D02*
X049851Y023424D01*
X049151Y023424D01*
X049351Y021824D02*
X049651Y021524D01*
X054951Y021524D01*
X055269Y021374D01*
X054951Y020524D02*
X055269Y020389D01*
X054951Y020524D02*
X049151Y020524D01*
X049151Y019724D02*
X051851Y019724D01*
X053751Y017824D01*
X055051Y019124D01*
X055269Y019405D01*
X054951Y017024D02*
X049951Y017024D01*
X049151Y016224D01*
X049651Y016224D02*
X050951Y016224D01*
X052051Y015124D01*
X054951Y017024D02*
X059951Y022024D01*
X060751Y007624D02*
X060751Y006724D01*
X060451Y006424D01*
X059851Y006424D01*
X059851Y002824D01*
D26*
X011851Y001824D02*
X004351Y001824D01*
X004351Y003974D01*
X004351Y005824D01*
X002151Y005824D02*
X002151Y003974D01*
X009651Y003974D02*
X009651Y005824D01*
X011851Y005824D02*
X011851Y003974D01*
X011851Y001824D01*
X009651Y003924D02*
X009651Y003974D01*
X017651Y003974D02*
X017651Y001824D01*
X025151Y001824D01*
X025151Y003974D01*
X025151Y005824D01*
X027351Y005824D02*
X027351Y003974D01*
X027351Y003924D01*
X033151Y004024D02*
X033151Y005824D01*
X035351Y005824D02*
X035351Y003974D01*
X035351Y001824D01*
X042851Y001824D01*
X042851Y003974D01*
X042851Y005824D01*
X040651Y005824D02*
X040651Y004024D01*
X048651Y003974D02*
X048651Y001824D01*
X056151Y001824D01*
X056151Y003974D01*
X056151Y005824D01*
X058351Y005824D02*
X058351Y004024D01*
X050851Y003974D02*
X050851Y005824D01*
X048651Y005824D02*
X048651Y003974D01*
X050851Y003974D02*
X050851Y003924D01*
X019851Y003974D02*
X019851Y003924D01*
X019851Y003974D02*
X019851Y005824D01*
X017651Y005824D02*
X017651Y003974D01*
X022051Y029324D02*
X022051Y031174D01*
X022051Y033324D01*
X029551Y033324D01*
X029551Y031174D01*
X029551Y029324D01*
X035351Y029324D02*
X035351Y031174D01*
X035351Y033324D01*
X042851Y033324D01*
X042851Y031174D01*
X042851Y029324D01*
X053051Y029324D02*
X053051Y031174D01*
X053051Y033324D01*
X060551Y033324D01*
X060551Y031174D01*
X060551Y029324D01*
X011851Y029324D02*
X011851Y031174D01*
X011851Y033324D01*
X004351Y033324D01*
X004351Y031174D01*
X004351Y029324D01*
D27*
X011851Y029324D02*
X011851Y027924D01*
X011851Y027424D01*
X012851Y026324D01*
X012851Y022824D01*
X012851Y019324D01*
X012851Y015824D01*
X012851Y019324D01*
X012851Y022824D01*
X013851Y022824D02*
X013851Y019324D01*
X013851Y022824D01*
X013851Y026324D01*
X013851Y026424D01*
X014551Y027124D01*
X020451Y027124D01*
X022051Y028724D01*
X022051Y029324D01*
X013851Y019324D02*
X013851Y015824D01*
X013851Y012324D01*
X013851Y008824D01*
X014651Y008824D01*
X017651Y005824D01*
X013851Y008824D02*
X013851Y012224D01*
X013851Y012324D01*
X013851Y015824D01*
X012851Y015824D02*
X012851Y008824D01*
X011851Y007824D01*
X011851Y005824D01*
X042851Y005824D02*
X045551Y005824D01*
X047351Y007624D01*
X047351Y009324D01*
X047351Y012824D01*
X047351Y019524D01*
X047351Y019824D01*
X047351Y023324D01*
X047351Y026824D01*
X047351Y023324D01*
X048351Y023324D02*
X048351Y019824D01*
X048351Y020124D01*
X048351Y023324D01*
X048351Y026824D01*
X050951Y026824D01*
X053051Y028924D01*
X053051Y029324D01*
X047351Y026824D02*
X044951Y026824D01*
X042851Y028924D01*
X042851Y029324D01*
X048351Y019824D02*
X048351Y009324D01*
X048351Y006124D01*
X048651Y005824D01*
D28*
X050451Y011324D03*
X049051Y012724D03*
X046551Y014724D03*
X046651Y015824D03*
X050451Y020124D03*
X052851Y023024D03*
X054751Y023824D03*
X049151Y024324D03*
X036051Y015174D03*
X035951Y010124D03*
X015151Y012624D03*
X012051Y009824D03*
X007351Y009324D03*
X004551Y009224D03*
X007551Y022824D03*
X010851Y023124D03*
X017951Y027924D03*
X027851Y027324D03*
D29*
X037551Y029324D02*
X038951Y027924D01*
X041751Y027924D01*
X043951Y025724D01*
X045851Y025724D01*
X045851Y016324D01*
X045851Y011324D02*
X045351Y010824D01*
X045351Y010324D01*
X045351Y008324D02*
X043351Y008324D01*
X040851Y005824D01*
X040651Y005824D01*
X011351Y011324D02*
X010851Y010824D01*
X011351Y011324D02*
X011351Y011824D01*
X010851Y008824D02*
X010851Y006824D01*
X009851Y005824D01*
X009651Y005824D01*
X011351Y016824D02*
X011351Y022024D01*
X011351Y026324D01*
X008351Y029324D01*
X006551Y029324D01*
X006351Y029324D01*
X044851Y029324D02*
X045051Y029324D01*
D30*
X061851Y019224D02*
X063651Y020424D01*
X063651Y020724D01*
X063651Y019024D02*
X063751Y018724D01*
X063751Y015524D01*
X063851Y015524D02*
X064151Y015224D01*
X064151Y001924D01*
X063551Y001924D01*
X062951Y001624D01*
M02*
