%
M48
M72
T01C0.0590
T02C0.0790
T03C0.0320
T04C0.0500
T05C0.1000
T06C0.0400
T07C0.0440
T08C0.0360
T09C0.0240
%
T01
X215Y397
X435Y397
X655Y397
X965Y397
X1185Y397
X1405Y397
X1765Y397
X1985Y397
X2205Y397
X2515Y397
X2735Y397
X2955Y397
X3315Y397
X3535Y397
X3755Y397
X4065Y397
X4285Y397
X4505Y397
X4865Y397
X5085Y397
X5305Y397
X5615Y397
X5835Y397
X6055Y397
X3525Y2722
X2925Y2722
X2955Y3117
X2735Y3117
X2515Y3117
X2205Y3117
X1985Y3117
X1765Y3117
X1405Y3117
X1185Y3117
X965Y3117
X655Y3117
X435Y3117
X215Y3117
X3315Y3117
X3535Y3117
X3755Y3117
X4065Y3117
X4285Y3117
X4505Y3117
X4865Y3117
X5085Y3117
X5305Y3117
X5615Y3117
X5835Y3117
X6055Y3117
T02
X6055Y2932
X5835Y2932
X5305Y2932
X5085Y2932
X4505Y2932
X4285Y2932
X3755Y2932
X3535Y2932
X2955Y2932
X2735Y2932
X2205Y2932
X1985Y2932
X1405Y2932
X1185Y2932
X655Y2932
X435Y2932
X435Y582
X215Y582
X965Y582
X1185Y582
X1765Y582
X1985Y582
X2515Y582
X2735Y582
X3315Y582
X3535Y582
X4065Y582
X4285Y582
X4865Y582
X5085Y582
X5615Y582
X5835Y582
T03
X4835Y932
X4735Y932
X4535Y832
X4535Y1032
X4585Y1132
X4735Y1282
X4835Y1282
X4905Y1272
X5045Y1132
X4655Y1472
X4665Y1582
X4735Y1632
X4835Y1632
X4585Y1632
X4735Y1982
X4835Y1982
X5045Y2012
X5285Y2302
X5475Y2382
X4915Y2432
X4835Y2332
X4735Y2332
X4735Y2682
X4835Y2682
X2785Y2732
X1795Y2792
X1385Y2632
X1285Y2632
X1085Y2312
X1285Y2282
X1385Y2282
X755Y2282
X1285Y1932
X1385Y1932
X1135Y1682
X1285Y1582
X1385Y1582
X1515Y1262
X1385Y1232
X1285Y1232
X1135Y1182
X1085Y1082
X1205Y982
X1285Y882
X1385Y882
X1085Y882
X735Y932
X455Y922
X3595Y1012
X3605Y1517
T04
X3735Y1382
X3735Y1782
X3637Y2054
X3539Y2054
X3440Y2054
X3342Y2054
X3243Y2054
X2935Y1482
X2935Y1282
X3735Y982
X5527Y1941
X5527Y2039
X5527Y2137
X5527Y2236
X5527Y2334
X6295Y762
X6295Y612
X6295Y462
X6295Y312
X6295Y162
X2077Y2054
X1979Y2054
X1880Y2054
X1782Y2054
X1683Y2054
T05
X1919Y2291
X2667Y2291
X3479Y2291
X4227Y2291
X5763Y2098
X5763Y1350
T06
X6185Y1222
X6185Y1922
X285Y1952
X185Y1952
X185Y1852
X285Y1852
X285Y1752
X285Y1652
X185Y1652
X185Y1752
X185Y1552
X285Y1552
X285Y1452
X185Y1452
X185Y2052
X285Y2052
X285Y2152
X185Y2152
X185Y2252
X285Y2252
X285Y2352
X185Y2352
T07
X6135Y2472
X6255Y2472
X6365Y2472
X6365Y2072
X6255Y2072
X6135Y2072
X6365Y1902
X6365Y1502
T08
X6135Y1067
X6335Y997
T09
X5975Y822
X6005Y682
X5405Y972
X5295Y1122
X5005Y862
X4915Y822
X4915Y762
X4605Y822
X4655Y1182
X4615Y1322
X4915Y1622
X4965Y1622
X5225Y1662
X5375Y1782
X5205Y1512
X4375Y1962
X4405Y2042
X4525Y2112
X4535Y2182
X4935Y2182
X4985Y2192
X4915Y2052
X4915Y1972
X4915Y2342
X5035Y2392
X4915Y2492
X4975Y2602
X5015Y2772
X5415Y2872
X5255Y2472
X5195Y2322
X5905Y2462
X5995Y2202
X4575Y2762
X3235Y2162
X2975Y2212
X3385Y1962
X3775Y1702
X4145Y1682
X3775Y1232
X3045Y1062
X2455Y1022
X2395Y1182
X2135Y1022
X2025Y1152
X1815Y1022
X1745Y1022
X1515Y1022
X1465Y1222
X1465Y1342
X1205Y1462
X1165Y1382
X1005Y1282
X955Y1382
X795Y1452
X705Y1412
X705Y1362
X685Y1492
X645Y1612
X595Y1612
X555Y1692
X505Y1692
X625Y1702
X785Y1702
X745Y1612
X965Y1662
X1005Y1632
X965Y1722
X1195Y1672
X1005Y1532
X1465Y1552
X1465Y1602
X1465Y1652
X1465Y1702
X1555Y1662
X1785Y1862
X1515Y1982
X1615Y2022
X1085Y2022
X1085Y2072
X985Y2032
X1085Y1902
X705Y2022
X505Y2092
X375Y2102
X695Y2282
X715Y2402
X945Y2202
X995Y2202
X1085Y2162
X1085Y2242
X1085Y2372
X865Y2792
X325Y2872
X1295Y3222
X1865Y2792
X625Y1862
X455Y1852
X415Y1502
X135Y1382
X135Y1332
X455Y1062
X375Y932
X175Y932
X265Y792
X445Y792
X1165Y1022
X1895Y1552
X1965Y1552
X2145Y1742
X3375Y762
X2855Y722
X2405Y642
X5315Y722
X5985Y282
M30
