G75*
G70*
%OFA0B0*%
%FSLAX24Y24*%
%IPPOS*%
%LPD*%
%AMOC8*
5,1,8,0,0,1.08239X$1,22.5*
%
%ADD10R,0.0512X0.0591*%
%ADD11O,0.0885X0.1770*%
%ADD12O,0.1005X0.2010*%
%ADD13C,0.1000*%
%ADD14OC8,0.1000*%
%ADD15OC8,0.0600*%
%ADD16R,0.0276X0.0591*%
%ADD17C,0.0750*%
%ADD18C,0.1400*%
%ADD19O,0.1500X0.0750*%
%ADD20R,0.0394X0.0551*%
%ADD21C,0.0660*%
%ADD22O,0.1120X0.0560*%
%ADD23R,0.0260X0.0800*%
%ADD24R,0.0591X0.0512*%
%ADD25R,0.0460X0.0630*%
%ADD26OC8,0.0700*%
%ADD27O,0.0520X0.1040*%
%ADD28R,0.0630X0.0709*%
%ADD29R,0.0709X0.0630*%
%ADD30C,0.0240*%
%ADD31C,0.0500*%
%ADD32C,0.0100*%
%ADD33C,0.0400*%
%ADD34C,0.0480*%
%ADD35C,0.2000*%
%ADD36C,0.1500*%
%ADD37C,0.0860*%
%ADD38C,0.0400*%
%ADD39C,0.0160*%
%ADD40C,0.1000*%
D10*
X006523Y005455D03*
X007193Y005455D03*
X012873Y005505D03*
X013543Y005505D03*
X019973Y005455D03*
X020643Y005455D03*
X027073Y005455D03*
X027743Y005455D03*
X034273Y005455D03*
X034943Y005455D03*
X041023Y005405D03*
X041693Y005405D03*
X048023Y005405D03*
X048693Y005405D03*
X055023Y005455D03*
X055693Y005455D03*
X060673Y023905D03*
X061343Y023905D03*
X061343Y025105D03*
X060673Y025105D03*
X060673Y026305D03*
X061343Y026305D03*
X058843Y032605D03*
X058173Y032605D03*
X051943Y032555D03*
X051273Y032555D03*
X044993Y032555D03*
X044323Y032555D03*
X037243Y032555D03*
X036573Y032555D03*
X030293Y032555D03*
X029623Y032555D03*
X023993Y032505D03*
X023323Y032505D03*
X016943Y032555D03*
X016273Y032555D03*
X009043Y032555D03*
X008373Y032555D03*
X002243Y032605D03*
X001573Y032605D03*
X001773Y011205D03*
X002443Y011205D03*
X003673Y011205D03*
X004343Y011205D03*
X004343Y010105D03*
X003673Y010105D03*
X002443Y010105D03*
X001773Y010105D03*
X001773Y009005D03*
X002443Y009005D03*
D11*
X002308Y004055D03*
X004508Y004055D03*
X006708Y004055D03*
X009308Y004055D03*
X011508Y004055D03*
X013708Y004055D03*
X016308Y004055D03*
X018508Y004055D03*
X020708Y004055D03*
X023308Y004055D03*
X025508Y004055D03*
X027708Y004055D03*
X030308Y004055D03*
X032508Y004055D03*
X034708Y004055D03*
X037308Y004055D03*
X039508Y004055D03*
X041708Y004055D03*
X044308Y004055D03*
X046508Y004055D03*
X048708Y004055D03*
X051308Y004055D03*
X053508Y004055D03*
X055708Y004055D03*
X054058Y016005D03*
X054058Y022005D03*
X053508Y033955D03*
X051308Y033955D03*
X048708Y033955D03*
X046508Y033955D03*
X044308Y033955D03*
X041708Y033955D03*
X039508Y033955D03*
X037308Y033955D03*
X034708Y033955D03*
X032508Y033955D03*
X030308Y033955D03*
X027708Y033955D03*
X025508Y033955D03*
X023308Y033955D03*
X020708Y033955D03*
X018508Y033955D03*
X016308Y033955D03*
X013708Y033955D03*
X011508Y033955D03*
X009308Y033955D03*
X006708Y033955D03*
X004508Y033955D03*
X002308Y033955D03*
X055708Y033955D03*
X058308Y033955D03*
X060508Y033955D03*
X062708Y033955D03*
D12*
X060508Y032705D03*
X055708Y032705D03*
X053508Y032705D03*
X048708Y032705D03*
X046508Y032705D03*
X041708Y032705D03*
X039508Y032705D03*
X034708Y032705D03*
X032508Y032705D03*
X027708Y032705D03*
X025508Y032705D03*
X020708Y032705D03*
X018508Y032705D03*
X013708Y032705D03*
X011508Y032705D03*
X006708Y032705D03*
X004508Y032705D03*
X018508Y005405D03*
X016308Y005305D03*
X011508Y005305D03*
X009308Y005305D03*
X004508Y005305D03*
X002308Y005305D03*
X023308Y005305D03*
X025508Y005405D03*
X030308Y005305D03*
X032508Y005305D03*
X037308Y005305D03*
X039508Y005305D03*
X044308Y005305D03*
X046508Y005305D03*
X051308Y005305D03*
X053508Y005305D03*
X062108Y028105D03*
D13*
X055008Y028755D03*
X051008Y028805D03*
X047008Y028805D03*
X043008Y028805D03*
X039008Y028805D03*
X035008Y028805D03*
X031008Y028805D03*
X027008Y028805D03*
X023008Y028805D03*
X019008Y028805D03*
X015008Y028805D03*
X011008Y028805D03*
X007008Y028805D03*
X035358Y012605D03*
X034008Y007305D03*
X038008Y007305D03*
X042008Y007305D03*
X046008Y007305D03*
X050008Y007305D03*
X030008Y007305D03*
X026008Y007305D03*
X022008Y007305D03*
X018008Y007305D03*
X014008Y007305D03*
X010008Y007305D03*
X006008Y007305D03*
D14*
X006008Y009305D03*
X010008Y009305D03*
X014008Y009305D03*
X018008Y009305D03*
X022008Y009305D03*
X026008Y009305D03*
X030008Y009305D03*
X034008Y009305D03*
X038008Y009305D03*
X042008Y009305D03*
X046008Y009305D03*
X050008Y009305D03*
X037358Y012605D03*
X039008Y030805D03*
X043008Y030805D03*
X047008Y030805D03*
X051008Y030805D03*
X055008Y030755D03*
X035008Y030805D03*
X031008Y030805D03*
X027008Y030805D03*
X023008Y030805D03*
X019008Y030805D03*
X015008Y030805D03*
X011008Y030805D03*
X007008Y030805D03*
D15*
X003308Y022905D03*
X002308Y022905D03*
X002308Y021905D03*
X003308Y021905D03*
X003308Y020905D03*
X002308Y020905D03*
X002308Y019905D03*
X003308Y019905D03*
X003308Y018905D03*
X002308Y018905D03*
X002308Y017905D03*
X003308Y017905D03*
X003308Y016905D03*
X002308Y016905D03*
X002308Y015905D03*
X003308Y015905D03*
X003308Y014905D03*
X002308Y014905D03*
X002308Y013905D03*
X003308Y013905D03*
X011408Y014305D03*
X011408Y015005D03*
X011408Y010305D03*
X011408Y021005D03*
X041008Y021855D03*
X041008Y015855D03*
X041008Y015205D03*
X041008Y011205D03*
X054908Y014955D03*
X055008Y012555D03*
X061008Y012555D03*
X060908Y014955D03*
D16*
X004908Y025437D03*
X004408Y025437D03*
X003908Y025437D03*
X003408Y025437D03*
X002908Y025437D03*
X002408Y025437D03*
X001908Y025437D03*
X001408Y025437D03*
X001408Y028072D03*
X001908Y028072D03*
X002408Y028072D03*
X002908Y028072D03*
X003408Y028072D03*
X003908Y028072D03*
X004408Y028072D03*
X004908Y028072D03*
D17*
X011890Y022124D03*
X012874Y022124D03*
X013858Y022124D03*
X014843Y022124D03*
X015827Y022124D03*
X027890Y022124D03*
X028874Y022124D03*
X029858Y022124D03*
X030843Y022124D03*
X031827Y022124D03*
X047627Y022170D03*
X047627Y021186D03*
X047627Y023154D03*
X047627Y024139D03*
X047627Y025123D03*
D18*
X049989Y022761D03*
X037732Y024486D03*
X030252Y024486D03*
X021732Y024486D03*
X014252Y024486D03*
X049989Y015280D03*
D19*
X062108Y007705D03*
X062108Y006205D03*
X062108Y004705D03*
X062108Y003205D03*
X027558Y011805D03*
X027558Y015805D03*
X027558Y019805D03*
X019558Y016805D03*
X019558Y014805D03*
D20*
X006932Y011572D03*
X006184Y011572D03*
X006558Y012438D03*
X006332Y020822D03*
X005584Y020822D03*
X005958Y021688D03*
X027334Y036172D03*
X028082Y036172D03*
X027708Y037038D03*
X042808Y022088D03*
X043182Y021222D03*
X042434Y021222D03*
X043308Y012788D03*
X043682Y011922D03*
X042934Y011922D03*
X055034Y002338D03*
X055782Y002338D03*
X055408Y001472D03*
X027782Y002338D03*
X027034Y002338D03*
X027408Y001472D03*
X055334Y036172D03*
X056082Y036172D03*
X055708Y037038D03*
D21*
X057108Y020905D03*
X058258Y020905D03*
X059408Y020905D03*
X060558Y020905D03*
X060558Y016905D03*
X059408Y016905D03*
X058258Y016905D03*
X057108Y016905D03*
D22*
X061908Y014955D03*
X062608Y016955D03*
D23*
X058008Y024595D03*
X057508Y024595D03*
X057008Y024595D03*
X056508Y024595D03*
X056008Y024595D03*
X055508Y024595D03*
X055008Y024595D03*
X055008Y027015D03*
X055508Y027015D03*
X056008Y027015D03*
X056508Y027015D03*
X057008Y027015D03*
X057508Y027015D03*
X058008Y027015D03*
X045808Y026015D03*
X045308Y026015D03*
X044808Y026015D03*
X044308Y026015D03*
X043808Y026015D03*
X043308Y026015D03*
X042808Y026015D03*
X042808Y023595D03*
X043308Y023595D03*
X043808Y023595D03*
X044308Y023595D03*
X044808Y023595D03*
X045308Y023595D03*
X045808Y023595D03*
X045708Y016915D03*
X046208Y016915D03*
X045208Y016915D03*
X044708Y016915D03*
X044208Y016915D03*
X043708Y016915D03*
X043208Y016915D03*
X043208Y014495D03*
X043708Y014495D03*
X044208Y014495D03*
X044708Y014495D03*
X045208Y014495D03*
X045708Y014495D03*
X046208Y014495D03*
X009208Y014195D03*
X008708Y014195D03*
X008208Y014195D03*
X007708Y014195D03*
X007208Y014195D03*
X006708Y014195D03*
X006208Y014195D03*
X006208Y016615D03*
X006708Y016615D03*
X007208Y016615D03*
X007708Y016615D03*
X008208Y016615D03*
X008708Y016615D03*
X009208Y016615D03*
X009138Y022975D03*
X008638Y022975D03*
X008138Y022975D03*
X007638Y022975D03*
X007138Y022975D03*
X006638Y022975D03*
X006138Y022975D03*
X006138Y025395D03*
X006638Y025395D03*
X007138Y025395D03*
X007638Y025395D03*
X008138Y025395D03*
X008638Y025395D03*
X009138Y025395D03*
D24*
X007308Y020939D03*
X007308Y020270D03*
X007758Y012039D03*
X007758Y011370D03*
X044108Y020770D03*
X044108Y021439D03*
X044558Y012489D03*
X044558Y011820D03*
D25*
X025908Y015805D03*
X025308Y015805D03*
D26*
X060508Y027855D03*
X060508Y031855D03*
D27*
X062508Y026205D03*
X062508Y022205D03*
D28*
X058109Y023455D03*
X057007Y023455D03*
X045959Y022555D03*
X044857Y022555D03*
X044809Y018105D03*
X043707Y018105D03*
X045207Y013405D03*
X046309Y013405D03*
X044409Y027055D03*
X043307Y027055D03*
X009309Y021805D03*
X008207Y021805D03*
X007809Y017955D03*
X006707Y017955D03*
X008307Y013105D03*
X009409Y013105D03*
X007709Y026805D03*
X006607Y026805D03*
D29*
X035908Y019306D03*
X035908Y018204D03*
X035908Y017256D03*
X035908Y016154D03*
D30*
X035908Y016155D02*
X036233Y015830D01*
X038183Y015830D01*
X041558Y012505D01*
X041508Y011705D02*
X041008Y011205D01*
X040608Y011605D01*
X038008Y011605D01*
X036608Y010205D01*
X032808Y010205D01*
X032808Y008405D01*
X030308Y005705D01*
X030308Y005305D01*
X031508Y005376D02*
X033657Y005376D01*
X033657Y005614D02*
X031508Y005614D01*
X031508Y005853D02*
X033657Y005853D01*
X033657Y005899D02*
X033657Y005010D01*
X033868Y004799D01*
X033905Y004799D01*
X033905Y004055D01*
X031668Y004055D01*
X031668Y004618D01*
X031508Y004778D01*
X031508Y006294D01*
X033154Y008072D01*
X033288Y008206D01*
X033288Y008555D01*
X033542Y008555D01*
X033652Y008445D01*
X034364Y008445D01*
X034474Y008555D01*
X035668Y008555D01*
X035668Y008287D01*
X034668Y007287D01*
X034668Y007009D01*
X033980Y006149D01*
X033941Y006110D01*
X033868Y006110D01*
X033657Y005899D01*
X033849Y006091D02*
X031508Y006091D01*
X031541Y006330D02*
X034125Y006330D01*
X034315Y006568D02*
X031762Y006568D01*
X031982Y006807D02*
X034506Y006807D01*
X034668Y007045D02*
X032203Y007045D01*
X032424Y007284D02*
X034668Y007284D01*
X034903Y007522D02*
X032645Y007522D01*
X032866Y007761D02*
X035142Y007761D01*
X035381Y008000D02*
X033087Y008000D01*
X033288Y008238D02*
X035619Y008238D01*
X035668Y008477D02*
X034396Y008477D01*
X033620Y008477D02*
X033288Y008477D01*
X035548Y006922D02*
X036290Y007665D01*
X036548Y007922D01*
X036548Y008555D01*
X037542Y008555D01*
X037652Y008445D01*
X038364Y008445D01*
X038474Y008555D01*
X039408Y008555D01*
X039458Y008205D01*
X039458Y004105D01*
X039508Y004055D01*
X038668Y004055D01*
X038668Y004618D01*
X038418Y004868D01*
X038418Y005764D01*
X038170Y006012D01*
X038170Y006164D01*
X037665Y006670D01*
X036951Y006670D01*
X036445Y006164D01*
X036445Y006012D01*
X036198Y005764D01*
X036198Y004868D01*
X035948Y004618D01*
X035948Y004055D01*
X035510Y004055D01*
X035510Y004830D01*
X035468Y004872D01*
X035468Y004920D01*
X035558Y005010D01*
X035558Y005899D01*
X035348Y006110D01*
X035075Y006110D01*
X035436Y006561D01*
X035548Y006672D01*
X035548Y006922D01*
X035548Y006807D02*
X039458Y006807D01*
X039458Y007045D02*
X035671Y007045D01*
X035909Y007284D02*
X039458Y007284D01*
X039458Y007522D02*
X036148Y007522D01*
X036386Y007761D02*
X039458Y007761D01*
X039458Y008000D02*
X036548Y008000D01*
X036548Y008238D02*
X039453Y008238D01*
X039419Y008477D02*
X038396Y008477D01*
X037620Y008477D02*
X036548Y008477D01*
X036849Y006568D02*
X035444Y006568D01*
X035251Y006330D02*
X036611Y006330D01*
X036445Y006091D02*
X035366Y006091D01*
X035558Y005853D02*
X036286Y005853D01*
X036198Y005614D02*
X035558Y005614D01*
X035558Y005376D02*
X036198Y005376D01*
X036198Y005137D02*
X035558Y005137D01*
X035468Y004899D02*
X036198Y004899D01*
X035990Y004660D02*
X035510Y004660D01*
X035510Y004421D02*
X035948Y004421D01*
X035948Y004183D02*
X035510Y004183D01*
X033905Y004183D02*
X031668Y004183D01*
X031668Y004421D02*
X033905Y004421D01*
X033905Y004660D02*
X031626Y004660D01*
X031508Y004899D02*
X033769Y004899D01*
X033657Y005137D02*
X031508Y005137D01*
X027073Y005455D02*
X026808Y005605D01*
X026808Y010105D01*
X026208Y010705D01*
X022008Y010705D01*
X021708Y010105D02*
X018308Y013505D01*
X018308Y016805D01*
X019508Y016805D01*
X024308Y016805D01*
X025308Y015805D01*
X025908Y015805D02*
X026608Y015805D01*
X027558Y015805D01*
X027008Y016155D01*
X026458Y016705D01*
X026458Y020005D01*
X026458Y020205D01*
X025608Y021055D01*
X026458Y020005D02*
X027958Y021505D01*
X028258Y021505D01*
X028508Y021755D01*
X028874Y022124D01*
X028808Y022205D01*
X028808Y025805D01*
X042008Y025805D01*
X043808Y024005D01*
X043808Y023595D01*
X043808Y023205D01*
X043608Y023005D01*
X043608Y020955D01*
X043858Y020955D01*
X044108Y020770D01*
X044358Y020555D01*
X044908Y020005D01*
X044908Y019505D01*
X045008Y019405D01*
X046558Y019405D01*
X046558Y016205D01*
X045558Y016205D01*
X044208Y015005D01*
X044208Y014495D01*
X043558Y013755D02*
X043308Y013505D01*
X043308Y012788D01*
X042934Y011922D02*
X042951Y011255D01*
X043958Y011255D01*
X046158Y011255D01*
X046158Y013254D01*
X046309Y013405D01*
X046308Y013406D01*
X046308Y014395D01*
X046208Y014495D01*
X045708Y014495D02*
X045708Y015105D01*
X045858Y015255D01*
X046958Y015255D01*
X047608Y014605D01*
X047608Y010705D01*
X053308Y010705D01*
X053908Y010105D01*
X053908Y007405D01*
X054958Y006155D01*
X054958Y005505D01*
X055023Y005455D01*
X057608Y004055D02*
X057608Y016255D01*
X058258Y016905D01*
X059358Y016905D02*
X058058Y015605D01*
X058058Y006805D01*
X058658Y006205D01*
X062108Y006205D01*
X062108Y007705D02*
X062808Y008405D01*
X062808Y016755D01*
X062608Y016955D01*
X061408Y017505D02*
X060808Y016905D01*
X060558Y016905D01*
X061408Y017505D02*
X061408Y021255D01*
X059958Y022705D01*
X060308Y023055D01*
X059958Y022705D02*
X059708Y022955D01*
X059708Y023905D01*
X060673Y023905D01*
X059708Y023905D02*
X059708Y025105D01*
X060673Y025105D01*
X058808Y025705D02*
X058508Y025405D01*
X057508Y025405D01*
X057508Y024595D01*
X058008Y024595D02*
X058008Y023705D01*
X058108Y023605D01*
X058109Y023455D01*
X058108Y023455D01*
X056258Y021605D01*
X055408Y021605D01*
X057108Y020905D02*
X054858Y018655D01*
X054858Y015005D01*
X054908Y014955D01*
X055808Y013355D02*
X055808Y017305D01*
X059408Y020905D01*
X058258Y020905D02*
X057108Y020905D01*
X060558Y020905D02*
X060558Y018055D01*
X059408Y016905D01*
X059358Y016905D01*
X060908Y014955D02*
X061908Y014955D01*
X061008Y012555D02*
X058908Y010455D01*
X058908Y009755D01*
X055808Y013355D02*
X055008Y012555D01*
X047608Y010705D02*
X047608Y006405D01*
X048008Y005805D01*
X048023Y005405D01*
X046508Y004055D02*
X046508Y004005D01*
X044808Y005405D02*
X044308Y005305D01*
X039458Y005376D02*
X038418Y005376D01*
X038418Y005614D02*
X039458Y005614D01*
X039458Y005853D02*
X038330Y005853D01*
X038170Y006091D02*
X039458Y006091D01*
X039458Y006330D02*
X038005Y006330D01*
X037767Y006568D02*
X039458Y006568D01*
X039458Y005137D02*
X038418Y005137D01*
X038418Y004899D02*
X039458Y004899D01*
X039458Y004660D02*
X038626Y004660D01*
X038668Y004421D02*
X039458Y004421D01*
X039458Y004183D02*
X038668Y004183D01*
X046008Y009305D02*
X046108Y009905D01*
X045558Y011755D02*
X045558Y013055D01*
X045208Y013405D01*
X045207Y013405D01*
X045208Y013656D01*
X045208Y014495D01*
X043758Y015605D02*
X042508Y015605D01*
X042508Y011905D01*
X042308Y011705D01*
X041508Y011705D01*
X041008Y015205D02*
X041008Y015855D01*
X043758Y015605D02*
X044708Y016555D01*
X044708Y016915D01*
X044708Y018005D01*
X044808Y018105D01*
X044809Y018105D01*
X043708Y018105D02*
X043708Y016915D01*
X043407Y017805D02*
X042858Y017805D01*
X043407Y017805D02*
X043707Y018105D01*
X043708Y018105D01*
X044708Y016915D02*
X044708Y016905D01*
X046558Y019405D02*
X048208Y019405D01*
X048208Y023505D01*
X047858Y023855D01*
X047627Y024139D01*
X046308Y024705D02*
X046058Y024455D01*
X045658Y024455D01*
X045308Y024105D01*
X045308Y023595D01*
X045808Y023595D02*
X045808Y022605D01*
X045959Y022605D01*
X045959Y022555D01*
X045959Y021554D01*
X046208Y021305D01*
X044858Y022555D02*
X044857Y022555D01*
X044808Y022555D01*
X044808Y023605D01*
X044808Y024405D01*
X045508Y025105D01*
X046308Y024705D02*
X046308Y026655D01*
X048008Y026655D01*
X049258Y027905D01*
X051308Y027905D01*
X051908Y028505D01*
X051908Y032005D01*
X051943Y032555D01*
X048508Y030805D02*
X048358Y030655D01*
X048358Y027955D01*
X047508Y027105D01*
X046308Y026655D02*
X046308Y027655D01*
X044958Y029005D01*
X044958Y032255D01*
X044993Y032555D01*
X044008Y031505D02*
X044008Y029405D01*
X044408Y029005D01*
X044408Y027055D01*
X044409Y027055D01*
X044408Y027055D02*
X044308Y026955D01*
X044308Y026015D01*
X044308Y026005D01*
X043308Y026005D02*
X043307Y026006D01*
X043307Y027055D01*
X043308Y026015D02*
X043308Y026005D01*
X043308Y025255D01*
X042358Y024305D02*
X042358Y023155D01*
X042558Y022955D01*
X042558Y022155D01*
X042608Y022105D01*
X042808Y022105D01*
X042808Y022088D01*
X042208Y022455D02*
X042208Y021205D01*
X042417Y021205D01*
X042434Y021222D01*
X042208Y021205D02*
X042208Y020005D01*
X042283Y019930D01*
X042708Y020355D01*
X043358Y020355D01*
X042283Y019930D02*
X038183Y015830D01*
X035408Y019805D02*
X036058Y020455D01*
X040808Y020455D01*
X041608Y021255D01*
X042208Y022455D02*
X032158Y022455D01*
X031827Y022124D01*
X030843Y022124D02*
X030858Y021755D01*
X030858Y019805D01*
X022308Y025505D02*
X025508Y028705D01*
X025508Y032705D01*
X025508Y033955D01*
X026523Y033047D02*
X027948Y033047D01*
X027948Y033285D02*
X026762Y033285D01*
X026781Y033305D02*
X027948Y033305D01*
X027948Y029855D01*
X025988Y029855D01*
X025988Y031462D01*
X026370Y031845D01*
X026370Y032894D01*
X026781Y033305D01*
X026370Y032808D02*
X027948Y032808D01*
X027948Y032570D02*
X026370Y032570D01*
X026370Y032331D02*
X027948Y032331D01*
X027948Y032092D02*
X026370Y032092D01*
X026370Y031854D02*
X027948Y031854D01*
X027948Y031615D02*
X026141Y031615D01*
X025988Y031377D02*
X027948Y031377D01*
X027948Y031138D02*
X025988Y031138D01*
X025988Y030900D02*
X027948Y030900D01*
X027948Y030661D02*
X025988Y030661D01*
X025988Y030423D02*
X027948Y030423D01*
X027948Y030184D02*
X025988Y030184D01*
X025988Y029946D02*
X027948Y029946D01*
X023908Y030189D02*
X023893Y027689D01*
X022858Y026655D01*
X014008Y026655D01*
X010608Y026655D01*
X010608Y024005D01*
X009108Y024005D01*
X008658Y023555D01*
X008658Y023055D01*
X008638Y022975D01*
X009138Y022975D02*
X009138Y021975D01*
X009308Y021805D01*
X009308Y020905D01*
X009508Y020705D01*
X009508Y020755D01*
X009308Y021805D02*
X009309Y021805D01*
X008208Y021805D02*
X008108Y021905D01*
X008108Y022945D01*
X008138Y022975D01*
X008138Y023635D01*
X009008Y024505D01*
X009958Y024505D01*
X009958Y025855D01*
X010058Y026805D02*
X010408Y027155D01*
X013758Y027155D01*
X014258Y027655D01*
X014258Y032105D01*
X013658Y032705D01*
X013708Y032705D01*
X013708Y033955D01*
X016943Y032555D02*
X016943Y031939D01*
X016408Y031405D01*
X016408Y029055D01*
X014008Y026655D01*
X012808Y025505D02*
X022308Y025505D01*
X019958Y027105D02*
X019958Y030255D01*
X020008Y030305D01*
X018508Y030423D02*
X023428Y030423D01*
X023428Y030191D02*
X023426Y029855D01*
X018508Y029855D01*
X018508Y031340D01*
X018865Y031340D01*
X019370Y031845D01*
X019370Y032894D01*
X019781Y033305D01*
X022505Y033305D01*
X022505Y033180D01*
X022722Y032963D01*
X022707Y032949D01*
X022707Y032060D01*
X022918Y031849D01*
X023428Y031849D01*
X023428Y030191D01*
X023428Y030184D02*
X018508Y030184D01*
X018508Y029946D02*
X023426Y029946D01*
X023908Y030189D02*
X023908Y032305D01*
X023993Y032505D01*
X023428Y031615D02*
X019141Y031615D01*
X019370Y031854D02*
X022914Y031854D01*
X022707Y032092D02*
X019370Y032092D01*
X019370Y032331D02*
X022707Y032331D01*
X022707Y032570D02*
X019370Y032570D01*
X019370Y032808D02*
X022707Y032808D01*
X022639Y033047D02*
X019523Y033047D01*
X019762Y033285D02*
X022505Y033285D01*
X023428Y031377D02*
X018902Y031377D01*
X018508Y031138D02*
X023428Y031138D01*
X023428Y030900D02*
X018508Y030900D01*
X018508Y030661D02*
X023428Y030661D01*
X018508Y032705D02*
X018508Y033955D01*
X008373Y032555D02*
X007908Y032089D01*
X007908Y027905D01*
X007158Y027905D01*
X007158Y025455D01*
X007128Y025405D01*
X007138Y025395D01*
X007638Y025395D02*
X007658Y025365D01*
X007658Y026555D01*
X007958Y026805D01*
X010058Y026805D01*
X007958Y026805D02*
X007709Y026805D01*
X007708Y026805D01*
X006607Y026805D02*
X006607Y026754D01*
X006608Y026405D01*
X006608Y025755D01*
X006638Y025395D01*
X006658Y024955D01*
X006558Y024955D01*
X005808Y024205D01*
X005808Y021755D01*
X005958Y021755D01*
X005958Y021705D01*
X005983Y021680D01*
X005958Y021655D01*
X005958Y021688D01*
X005983Y021680D02*
X006008Y021655D01*
X006808Y022255D02*
X007033Y022480D01*
X007258Y022255D01*
X007033Y022480D02*
X007158Y022605D01*
X007138Y022975D01*
X006808Y022255D02*
X006808Y020455D01*
X007058Y020455D01*
X007308Y020270D01*
X007058Y020055D01*
X006408Y019405D01*
X005558Y019005D02*
X005558Y019955D01*
X005608Y020105D01*
X005608Y020755D01*
X005584Y020779D01*
X005584Y020822D01*
X005008Y020705D02*
X005008Y019305D01*
X004308Y018405D01*
X002808Y018305D02*
X002458Y018655D01*
X002308Y018905D01*
X002808Y018305D02*
X002808Y016505D01*
X002733Y016430D01*
X002808Y016355D01*
X002808Y011605D01*
X002658Y011455D01*
X002443Y011205D01*
X002658Y010955D01*
X003408Y010205D01*
X003408Y010155D01*
X003458Y010055D01*
X003673Y010105D01*
X003458Y010055D02*
X002658Y009255D01*
X002443Y009005D01*
X002443Y010105D02*
X002258Y010355D01*
X002258Y010505D01*
X002108Y010655D01*
X001358Y010655D01*
X004343Y011205D02*
X004558Y010955D01*
X004808Y010705D01*
X004808Y006505D01*
X004508Y005305D01*
X005308Y003405D02*
X005591Y003122D01*
X005308Y003405D02*
X005308Y012655D01*
X005408Y012905D01*
X005408Y015405D01*
X005858Y015855D01*
X005058Y016655D02*
X006158Y017755D01*
X006558Y017755D01*
X006708Y017905D01*
X006707Y017955D01*
X006708Y017555D01*
X006708Y017755D01*
X006708Y017555D02*
X006708Y016615D01*
X007558Y016205D02*
X007558Y015855D01*
X007558Y016205D02*
X007608Y016255D01*
X007708Y016615D01*
X007708Y017805D01*
X007808Y017905D01*
X007809Y017955D01*
X005058Y016655D02*
X005058Y013255D01*
X005008Y013205D01*
X006208Y013055D02*
X006208Y012805D01*
X006558Y012455D01*
X006558Y012438D01*
X006184Y011572D02*
X006184Y011481D01*
X006158Y011455D01*
X006658Y010955D01*
X006858Y010955D01*
X007008Y010905D01*
X008358Y010905D01*
X008358Y011905D01*
X009409Y012956D01*
X009409Y013105D01*
X009408Y013105D01*
X009208Y013305D01*
X009208Y014195D01*
X009248Y014195D01*
X010008Y014955D01*
X009408Y015605D02*
X008708Y014905D01*
X008708Y014195D01*
X008208Y014195D02*
X008208Y013255D01*
X008308Y013155D01*
X008307Y013154D01*
X008307Y013105D01*
X008208Y014195D02*
X008208Y015105D01*
X009058Y015955D01*
X014958Y015955D01*
X020808Y010105D01*
X021708Y010105D01*
X022708Y010105D01*
X022008Y009305D01*
X019508Y010705D02*
X019358Y010855D01*
X019208Y010705D01*
X019358Y010855D02*
X014658Y015605D01*
X009408Y015605D01*
X011408Y015005D02*
X011408Y014305D01*
X007208Y014195D02*
X007208Y015005D01*
X002733Y016430D02*
X002458Y016155D01*
X002308Y015905D01*
X011008Y021455D02*
X011008Y022405D01*
X012808Y024205D01*
X012808Y025505D01*
X012874Y022124D02*
X013008Y021755D01*
X013358Y021405D01*
X013358Y021105D01*
X014308Y020505D02*
X014308Y017105D01*
X019508Y016805D02*
X019558Y016805D01*
X015808Y022005D02*
X014308Y020505D01*
X015808Y022005D02*
X015827Y022124D01*
X011408Y021005D02*
X011008Y021455D01*
X008208Y021805D02*
X008207Y021805D01*
X005408Y022805D02*
X005408Y027405D01*
X005008Y027805D01*
X004908Y028072D01*
X004808Y028055D01*
X004508Y028055D01*
X004408Y028072D01*
X004308Y028055D01*
X004008Y028055D01*
X003908Y028072D01*
X003808Y028055D01*
X003508Y028055D01*
X003408Y028072D01*
X003308Y028055D01*
X003008Y028055D01*
X002908Y028072D01*
X002808Y028055D01*
X002508Y028055D01*
X002408Y028072D01*
X002308Y028055D01*
X002008Y028055D01*
X001908Y028072D01*
X001808Y028055D01*
X001508Y028055D01*
X001408Y028072D01*
X001708Y029605D02*
X004808Y029605D01*
X006508Y027905D01*
X007158Y027905D01*
X001708Y029605D02*
X001573Y029739D01*
X001573Y032605D01*
X006708Y032705D02*
X006708Y033955D01*
X034708Y032705D02*
X034858Y032255D01*
X035808Y031305D01*
X035808Y028205D01*
X036108Y027905D01*
X041908Y031505D02*
X044008Y031505D01*
X042008Y031805D02*
X041908Y031505D01*
X044808Y023605D02*
X044808Y023595D01*
X056008Y023905D02*
X056008Y024595D01*
X056108Y024605D01*
X056408Y024605D01*
X056508Y024595D01*
X057008Y024595D02*
X057008Y023655D01*
X057007Y023654D01*
X057007Y023455D01*
X057008Y024595D02*
X057008Y025405D01*
X057408Y025805D01*
X058158Y025805D01*
X058408Y026055D01*
X058408Y029755D01*
X058208Y029955D01*
X058808Y031770D02*
X058808Y025705D01*
X058808Y031770D02*
X058843Y032605D01*
X019508Y010705D02*
X019508Y006420D01*
X019958Y005955D01*
X019973Y005455D01*
X014758Y006005D02*
X014808Y001905D01*
X014758Y006005D02*
X014358Y006555D01*
X013108Y006555D01*
X011408Y008305D01*
X011408Y010305D01*
X057608Y004055D02*
X058458Y003205D01*
X062108Y003205D01*
D31*
X053208Y007005D02*
X053208Y009942D01*
X053055Y010095D01*
X048218Y010095D01*
X048218Y007005D01*
X049061Y007005D01*
X049018Y007108D01*
X049018Y007502D01*
X049169Y007865D01*
X049447Y008144D01*
X049811Y008295D01*
X050205Y008295D01*
X050569Y008144D01*
X050847Y007865D01*
X050998Y007502D01*
X050998Y007108D01*
X050955Y007005D01*
X053208Y007005D01*
X053208Y007086D02*
X050989Y007086D01*
X050964Y007584D02*
X053208Y007584D01*
X053208Y008083D02*
X050630Y008083D01*
X049386Y008083D02*
X048218Y008083D01*
X048218Y008581D02*
X053208Y008581D01*
X053208Y009080D02*
X048218Y009080D01*
X048218Y009579D02*
X053208Y009579D01*
X053073Y010077D02*
X048218Y010077D01*
X046998Y010077D02*
X041386Y010077D01*
X041614Y010305D02*
X046998Y010305D01*
X046998Y007005D01*
X046955Y007005D01*
X046998Y007108D01*
X046998Y007502D01*
X046847Y007865D01*
X046569Y008144D01*
X046205Y008295D01*
X045811Y008295D01*
X045447Y008144D01*
X045169Y007865D01*
X045018Y007502D01*
X045018Y007108D01*
X045061Y007005D01*
X042955Y007005D01*
X042998Y007108D01*
X042998Y007502D01*
X042847Y007865D01*
X042569Y008144D01*
X042205Y008295D01*
X041811Y008295D01*
X041447Y008144D01*
X041169Y007865D01*
X041018Y007502D01*
X041018Y007108D01*
X041061Y007005D01*
X041008Y007005D01*
X041008Y009699D01*
X041078Y009769D01*
X041614Y010305D01*
X041008Y009579D02*
X046998Y009579D01*
X046998Y009080D02*
X041008Y009080D01*
X041008Y008581D02*
X046998Y008581D01*
X046998Y008083D02*
X046630Y008083D01*
X046964Y007584D02*
X046998Y007584D01*
X046989Y007086D02*
X046998Y007086D01*
X048218Y007086D02*
X049027Y007086D01*
X049052Y007584D02*
X048218Y007584D01*
X045386Y008083D02*
X042630Y008083D01*
X042964Y007584D02*
X045052Y007584D01*
X045027Y007086D02*
X042989Y007086D01*
X041386Y008083D02*
X041008Y008083D01*
X041008Y007584D02*
X041052Y007584D01*
X041027Y007086D02*
X041008Y007086D01*
X034464Y014711D02*
X030514Y014711D01*
X027558Y011755D01*
X027558Y011805D01*
X027558Y011755D02*
X027508Y011705D01*
X025908Y010005D02*
X022225Y010005D01*
X022153Y009975D01*
X021863Y009975D01*
X021790Y010005D01*
X020118Y010005D01*
X020118Y006905D01*
X021102Y006905D01*
X021018Y007108D01*
X021018Y007502D01*
X021169Y007865D01*
X021447Y008144D01*
X021811Y008295D01*
X022205Y008295D01*
X022569Y008144D01*
X022847Y007865D01*
X022998Y007502D01*
X022998Y007108D01*
X022914Y006905D01*
X025102Y006905D01*
X025018Y007108D01*
X025018Y007502D01*
X025169Y007865D01*
X025447Y008144D01*
X025811Y008295D01*
X025908Y008295D01*
X025908Y010005D01*
X025908Y009579D02*
X020118Y009579D01*
X020118Y009080D02*
X025908Y009080D01*
X025908Y008581D02*
X020118Y008581D01*
X020118Y008083D02*
X021386Y008083D01*
X021052Y007584D02*
X020118Y007584D01*
X020118Y007086D02*
X021027Y007086D01*
X022630Y008083D02*
X025386Y008083D01*
X025052Y007584D02*
X022964Y007584D01*
X022989Y007086D02*
X025027Y007086D01*
X018898Y007743D02*
X018847Y007865D01*
X018569Y008144D01*
X018205Y008295D01*
X017811Y008295D01*
X017447Y008144D01*
X017169Y007865D01*
X017018Y007502D01*
X017018Y007108D01*
X017102Y006905D01*
X014914Y006905D01*
X014998Y007108D01*
X014998Y007502D01*
X014847Y007865D01*
X014708Y008005D01*
X014708Y010005D01*
X018898Y010005D01*
X018898Y007743D01*
X018898Y008083D02*
X018630Y008083D01*
X018898Y008581D02*
X014708Y008581D01*
X014708Y008083D02*
X017386Y008083D01*
X017052Y007584D02*
X014964Y007584D01*
X014989Y007086D02*
X017027Y007086D01*
X018898Y009080D02*
X014708Y009080D01*
X014708Y009579D02*
X018898Y009579D01*
X027558Y015805D02*
X033958Y015805D01*
X035458Y017305D01*
X035908Y017305D01*
X035908Y018204D01*
X035908Y018205D01*
X035908Y017305D02*
X035908Y017256D01*
X035908Y016155D02*
X034464Y014711D01*
X035908Y016154D02*
X035908Y016155D01*
X035908Y019305D02*
X035408Y019805D01*
X030858Y019805D01*
X027558Y019805D01*
X035908Y019305D02*
X035908Y019306D01*
X026797Y034805D02*
X024219Y034805D01*
X023694Y035330D01*
X022922Y035330D01*
X022397Y034805D01*
X021619Y034805D01*
X021094Y035330D01*
X020322Y035330D01*
X019797Y034805D01*
X017219Y034805D01*
X016694Y035330D01*
X015922Y035330D01*
X015397Y034805D01*
X014928Y034805D01*
X014928Y035086D01*
X014389Y035625D01*
X013627Y035625D01*
X009889Y035625D01*
X009127Y035625D01*
X008588Y035086D01*
X008588Y034996D01*
X008397Y034805D01*
X006148Y034805D01*
X006148Y037455D01*
X027021Y037455D01*
X027021Y036937D01*
X026934Y036937D01*
X026647Y036650D01*
X026647Y035693D01*
X026934Y035406D01*
X027708Y035406D01*
X027708Y035330D01*
X027322Y035330D01*
X026797Y034805D01*
X026996Y035004D02*
X024020Y035004D01*
X022596Y035004D02*
X021420Y035004D01*
X019996Y035004D02*
X017020Y035004D01*
X015596Y035004D02*
X014928Y035004D01*
X014511Y035503D02*
X026837Y035503D01*
X026647Y036001D02*
X006148Y036001D01*
X006148Y035503D02*
X009005Y035503D01*
X008588Y035004D02*
X006148Y035004D01*
X005218Y035004D02*
X003020Y035004D01*
X003240Y034783D02*
X002694Y035330D01*
X002308Y035330D01*
X002308Y037455D01*
X005408Y037455D01*
X005408Y037412D01*
X005218Y037222D01*
X005218Y033338D01*
X005408Y033148D01*
X005408Y029867D01*
X005061Y030215D01*
X004555Y030215D01*
X002308Y030215D01*
X002308Y031819D01*
X002701Y031819D01*
X002988Y032106D01*
X002988Y032359D01*
X002998Y032369D01*
X002998Y032883D01*
X003240Y033126D01*
X003240Y034783D01*
X003240Y034506D02*
X005218Y034506D01*
X005218Y034007D02*
X003240Y034007D01*
X003240Y033509D02*
X005218Y033509D01*
X005408Y033010D02*
X003124Y033010D01*
X002998Y032511D02*
X005408Y032511D01*
X005408Y032013D02*
X002895Y032013D01*
X002308Y031514D02*
X005408Y031514D01*
X005408Y031016D02*
X002308Y031016D01*
X002308Y030517D02*
X005408Y030517D01*
X005408Y030019D02*
X005256Y030019D01*
X005218Y035503D02*
X002308Y035503D01*
X002308Y036001D02*
X005218Y036001D01*
X005218Y036500D02*
X002308Y036500D01*
X002308Y036998D02*
X005218Y036998D01*
X006148Y036998D02*
X027021Y036998D01*
X026647Y036500D02*
X006148Y036500D01*
D32*
X004908Y025437D02*
X004808Y025155D01*
X004608Y024955D01*
X004608Y021055D01*
X003958Y020905D02*
X003958Y024805D01*
X004308Y025155D01*
X004408Y025437D01*
X003908Y025437D02*
X003808Y025155D01*
X003758Y025105D01*
X003758Y021455D01*
X003458Y021155D01*
X003308Y020905D01*
X003408Y020455D02*
X002858Y020455D01*
X002858Y021355D01*
X003158Y021655D01*
X003308Y021905D01*
X002758Y021555D02*
X002458Y021255D01*
X002458Y021155D01*
X002308Y020905D01*
X002758Y021555D02*
X002758Y024605D01*
X003308Y025155D01*
X003408Y025437D01*
X002908Y025437D02*
X002808Y025155D01*
X002458Y024805D01*
X002458Y023155D01*
X002308Y022905D01*
X001858Y023105D02*
X002108Y023355D01*
X002108Y024955D01*
X002308Y025155D01*
X002408Y025437D01*
X001908Y025437D02*
X001808Y025155D01*
X001758Y025105D01*
X001758Y023655D01*
X001858Y023105D02*
X001858Y022455D01*
X001883Y022430D01*
X001858Y022405D01*
X001858Y013505D01*
X001908Y013455D01*
X002408Y012205D02*
X002008Y011805D01*
X002008Y011455D01*
X001773Y011205D01*
X001758Y011205D01*
X001608Y011055D01*
X001008Y011055D01*
X001008Y010305D01*
X001558Y010305D01*
X001773Y010105D01*
X001808Y009855D01*
X001808Y009255D01*
X001773Y009005D01*
X004108Y010355D02*
X004108Y010455D01*
X003908Y010655D01*
X003908Y010955D01*
X003673Y011205D01*
X003758Y011455D01*
X003758Y015355D01*
X003458Y015655D01*
X003308Y015905D01*
X003958Y015355D02*
X003958Y019905D01*
X003408Y020455D01*
X002308Y021905D02*
X002158Y022155D01*
X001883Y022430D01*
X001408Y022905D02*
X001408Y025437D01*
X006208Y023905D02*
X006208Y023355D01*
X006138Y022975D01*
X006638Y022975D02*
X006658Y023355D01*
X006658Y023655D01*
X007638Y022975D02*
X007608Y022605D01*
X007608Y021205D01*
X007558Y021155D01*
X007308Y020939D01*
X009958Y016455D02*
X013708Y020205D01*
X013708Y021755D01*
X013858Y022124D01*
X016708Y017705D02*
X019658Y020655D01*
X022108Y018055D02*
X026658Y022605D01*
X030558Y022905D02*
X041408Y022905D01*
X042958Y022905D02*
X042958Y022955D01*
X043308Y023205D01*
X043308Y023595D01*
X042808Y023595D02*
X042708Y023955D01*
X042708Y024555D01*
X041908Y025355D01*
X029308Y025355D01*
X028808Y025805D02*
X028758Y025805D01*
X028758Y036855D01*
X027858Y036855D01*
X027708Y037038D01*
X027708Y036605D02*
X028558Y036605D01*
X028558Y028055D01*
X016258Y015755D01*
X015958Y016455D02*
X010558Y016455D01*
X007708Y014195D02*
X007708Y012155D01*
X007758Y012039D01*
X007358Y011555D02*
X007758Y011370D01*
X007358Y011555D02*
X007308Y011555D01*
X007308Y013705D01*
X007208Y013805D01*
X007208Y014195D01*
X006708Y014195D02*
X006708Y014605D01*
X006308Y015005D01*
X006208Y015005D01*
X006208Y014195D02*
X006208Y013805D01*
X006508Y013605D01*
X006508Y013505D01*
X004308Y015005D02*
X003958Y015355D01*
X009458Y012405D02*
X010358Y011505D01*
X004343Y010105D02*
X004108Y010355D01*
X015958Y016455D02*
X028358Y028855D01*
X028358Y035805D01*
X028258Y035905D01*
X028082Y036172D01*
X027708Y036605D02*
X027508Y036405D01*
X027334Y036172D01*
X044308Y023595D02*
X044308Y021655D01*
X044108Y021439D01*
X046958Y021755D02*
X047058Y021855D01*
X047058Y022455D01*
X047458Y022855D01*
X047627Y023154D01*
X055008Y024595D02*
X055008Y024855D01*
X055958Y025805D01*
X059658Y025155D02*
X059658Y036605D01*
X055908Y036605D01*
X055708Y037005D01*
X055708Y037038D01*
X056082Y036172D02*
X056258Y035905D01*
X059458Y035905D01*
X059458Y023155D01*
X059058Y022755D01*
X059058Y022505D01*
X058708Y022805D02*
X058208Y022805D01*
X054108Y018705D01*
X054108Y017705D01*
X049008Y016905D02*
X049008Y012655D01*
X048008Y011105D02*
X053308Y011105D01*
X056358Y008055D01*
X056358Y003005D01*
X055608Y003005D01*
X055208Y002605D01*
X055034Y002338D01*
X055782Y002338D02*
X055958Y002305D01*
X056558Y002905D01*
X056558Y008155D01*
X054558Y010155D01*
X054558Y014055D01*
X056758Y012405D02*
X057058Y012705D01*
X056758Y012405D02*
X056758Y002605D01*
X055658Y001505D01*
X055441Y001505D01*
X055408Y001472D01*
X044558Y011820D02*
X044208Y011955D01*
X044108Y011955D01*
X044108Y013905D01*
X044208Y014105D01*
X044208Y014495D01*
X044708Y014495D02*
X044708Y012705D01*
X044558Y012489D01*
X043708Y014495D02*
X043708Y015205D01*
X043208Y015205D02*
X043208Y014495D01*
X035908Y017256D02*
X035908Y017255D01*
X028758Y011855D02*
X028758Y001055D01*
X027058Y001055D01*
X027058Y001905D01*
X027408Y001905D01*
X027608Y002105D01*
X027782Y002338D01*
X027058Y002338D02*
X027058Y002905D01*
X028358Y002905D01*
X028358Y008955D01*
X025458Y011855D01*
X026608Y011505D02*
X026608Y015805D01*
X026608Y011505D02*
X028558Y009555D01*
X028558Y001655D01*
X027558Y001655D01*
X027408Y001472D01*
X027058Y002338D02*
X027034Y002338D01*
X059558Y015205D02*
X060558Y016205D01*
X060558Y016905D01*
X058708Y022805D02*
X059258Y023355D01*
X059258Y035705D01*
X055708Y035705D01*
X055508Y035905D01*
X055334Y036172D01*
X060673Y026305D02*
X060458Y026055D01*
X060208Y025805D01*
X060808Y026005D02*
X060673Y026305D01*
X060808Y026005D02*
X061208Y025405D01*
X061343Y025105D01*
X061358Y024855D01*
X061358Y024155D01*
X061343Y023905D01*
X059708Y025105D02*
X059658Y025155D01*
X061343Y026305D02*
X062458Y026305D01*
X062508Y026205D01*
D33*
X060208Y025805D03*
X055958Y025805D03*
X056008Y023905D03*
X046958Y021755D03*
X046208Y021305D03*
X043358Y020355D03*
X041608Y021255D03*
X041408Y022905D03*
X042958Y022905D03*
X042358Y024305D03*
X043308Y025255D03*
X043858Y025205D03*
X041408Y026705D03*
X030558Y022905D03*
X029308Y025355D03*
X026658Y022605D03*
X025608Y021055D03*
X022108Y018055D03*
X019658Y020655D03*
X016708Y017705D03*
X016258Y015755D03*
X010558Y016455D03*
X009958Y016455D03*
X007208Y015005D03*
X006208Y015005D03*
X004308Y015005D03*
X006508Y013505D03*
X006208Y013055D03*
X005008Y013205D03*
X002408Y012205D03*
X001908Y013455D03*
X001358Y010655D03*
X006858Y010955D03*
X009458Y012405D03*
X010358Y011505D03*
X004308Y018405D03*
X005558Y019005D03*
X006408Y019405D03*
X005608Y020105D03*
X005008Y020705D03*
X004608Y021055D03*
X003958Y020905D03*
X005408Y022805D03*
X006658Y023655D03*
X006208Y023905D03*
X007258Y022255D03*
X009508Y020705D03*
X013358Y021105D03*
X014308Y020505D03*
X001758Y023655D03*
X001408Y022905D03*
X025458Y011855D03*
X028758Y011855D03*
X041558Y012505D03*
X042058Y012105D03*
X042058Y011255D03*
X043958Y011255D03*
X043558Y013755D03*
X043708Y015205D03*
X043208Y015205D03*
X042858Y017805D03*
X048008Y011105D03*
X054558Y014055D03*
D34*
X052908Y013405D03*
X052908Y012855D03*
X052908Y012305D03*
X052908Y011755D03*
X051508Y011755D03*
X051508Y012305D03*
X051508Y012855D03*
X051508Y013405D03*
X049008Y012655D03*
X045558Y011755D03*
X045008Y009805D03*
X045008Y008805D03*
X047008Y008805D03*
X047008Y009805D03*
X049008Y009805D03*
X051008Y009805D03*
X052008Y009805D03*
X052008Y008805D03*
X051158Y008805D03*
X050008Y005605D03*
X050008Y004605D03*
X043008Y004605D03*
X043008Y005605D03*
X043008Y009805D03*
X049008Y016905D03*
X054108Y017705D03*
X059558Y015205D03*
X057058Y012705D03*
X058908Y009755D03*
X055408Y021605D03*
X059058Y022505D03*
X060308Y023055D03*
X052908Y024755D03*
X052908Y025305D03*
X052908Y025855D03*
X052908Y026455D03*
X051508Y023505D03*
X051508Y022755D03*
X051508Y022005D03*
X045508Y025105D03*
X047508Y027105D03*
X052908Y030305D03*
X053808Y030305D03*
X056108Y030605D03*
X058208Y029955D03*
X049958Y031305D03*
X041508Y028305D03*
X040008Y028305D03*
X040008Y029305D03*
X038008Y028305D03*
X036108Y027905D03*
X034008Y028305D03*
X033008Y028305D03*
X032008Y028305D03*
X032008Y029305D03*
X034008Y029305D03*
X022008Y030305D03*
X020008Y030305D03*
X019958Y027105D03*
X013008Y028305D03*
X012008Y029305D03*
X010008Y029305D03*
X005008Y030305D03*
X004008Y030305D03*
X003008Y030305D03*
X003008Y031305D03*
X004008Y031305D03*
X005008Y031305D03*
X009958Y025855D03*
X014308Y017105D03*
X010008Y014955D03*
X007558Y015855D03*
X005858Y015855D03*
X015008Y009805D03*
X016008Y009805D03*
X017008Y009805D03*
X017008Y008805D03*
X019008Y008805D03*
X021008Y008805D03*
X021008Y009805D03*
X022008Y010705D03*
X023008Y009805D03*
X023008Y008805D03*
X025008Y008805D03*
X025008Y009805D03*
X019208Y010705D03*
X015008Y008805D03*
X015508Y006105D03*
X015508Y005105D03*
X015508Y004105D03*
D35*
X018508Y005405D02*
X018508Y001905D01*
X025508Y001905D02*
X025508Y005405D01*
X030308Y004055D02*
X030308Y001905D01*
X037308Y001905D02*
X037308Y004055D01*
X046508Y004005D02*
X046508Y001905D01*
X053508Y001905D02*
X053508Y004055D01*
X009308Y005305D02*
X009308Y001905D01*
X002308Y001905D02*
X002308Y005305D01*
X006708Y033955D02*
X006708Y036605D01*
X013708Y036605D02*
X013708Y033955D01*
X018508Y033955D02*
X018508Y036605D01*
X025508Y036605D02*
X025508Y033955D01*
X034708Y033955D02*
X034708Y036605D01*
X041708Y036605D02*
X041708Y033955D01*
X046508Y033955D02*
X046508Y036605D01*
X053508Y036605D02*
X053508Y033955D01*
D36*
X053508Y032705D01*
X053508Y036605D02*
X046508Y036605D01*
X046508Y033955D02*
X046508Y032705D01*
X041708Y032705D02*
X041708Y032305D01*
X041708Y033955D01*
X041708Y036605D02*
X034708Y036605D01*
X053508Y036605D01*
X034708Y033955D02*
X034708Y032705D01*
X025508Y036605D02*
X018508Y036605D01*
X013708Y036605D01*
X006708Y036605D01*
X030308Y005305D02*
X030308Y004055D01*
X030308Y001905D02*
X037258Y001905D01*
X046508Y001905D01*
X053508Y001905D01*
X053508Y004055D02*
X053508Y005305D01*
X037308Y005305D02*
X037308Y004055D01*
X037258Y001905D02*
X037308Y001905D01*
X025508Y001905D02*
X018508Y001905D01*
X014808Y001905D01*
X009308Y001905D01*
X002308Y001905D01*
D37*
X002108Y000935D02*
X002108Y003305D01*
X003395Y003305D01*
X003395Y003151D01*
X004047Y002500D01*
X004969Y002500D01*
X005608Y003139D01*
X006247Y002500D01*
X007169Y002500D01*
X007820Y003151D01*
X007820Y003305D01*
X010395Y003305D01*
X010395Y003151D01*
X011047Y002500D01*
X011969Y002500D01*
X012608Y003139D01*
X013247Y002500D01*
X014169Y002500D01*
X014674Y003005D01*
X015342Y003005D01*
X015847Y002500D01*
X016769Y002500D01*
X017274Y003005D01*
X018963Y003005D01*
X019263Y003305D01*
X019595Y003305D01*
X019595Y003151D01*
X020247Y002500D01*
X021169Y002500D01*
X021674Y003005D01*
X022342Y003005D01*
X022847Y002500D01*
X023769Y002500D01*
X024274Y003005D01*
X025963Y003005D01*
X026263Y003305D01*
X026440Y003305D01*
X026338Y003203D01*
X026338Y003062D01*
X026167Y002891D01*
X026167Y001785D01*
X026338Y001614D01*
X026338Y001353D01*
X026338Y000935D01*
X002108Y000935D01*
X002108Y001463D02*
X026338Y001463D01*
X026167Y002322D02*
X002108Y002322D01*
X002108Y003180D02*
X003395Y003180D01*
X007820Y003180D02*
X010395Y003180D01*
X015571Y004105D02*
X015548Y006007D01*
X015548Y006262D01*
X015545Y006266D01*
X015544Y006336D01*
X015360Y006520D01*
X015148Y006812D01*
X015148Y006882D01*
X015113Y006916D01*
X015178Y007072D01*
X015178Y007537D01*
X015008Y007948D01*
X015008Y009705D01*
X018508Y009705D01*
X018508Y008364D01*
X018241Y008475D01*
X017775Y008475D01*
X017345Y008297D01*
X017016Y007967D01*
X016838Y007537D01*
X016838Y007072D01*
X017016Y006642D01*
X017200Y006458D01*
X016838Y006096D01*
X016838Y004105D01*
X015571Y004105D01*
X015561Y004897D02*
X016838Y004897D01*
X016308Y005305D02*
X016008Y005605D01*
X016008Y008305D01*
X016508Y008805D01*
X018008Y009305D01*
X018508Y009190D02*
X015008Y009190D01*
X015008Y008332D02*
X017430Y008332D01*
X016838Y007473D02*
X015178Y007473D01*
X015291Y006615D02*
X017043Y006615D01*
X016838Y005756D02*
X015551Y005756D01*
X019139Y003180D02*
X019595Y003180D01*
X022008Y004105D02*
X022008Y006135D01*
X022241Y006135D01*
X022671Y006313D01*
X023000Y006642D01*
X023178Y007072D01*
X023178Y007537D01*
X023000Y007967D01*
X022671Y008297D01*
X022241Y008475D01*
X022008Y008475D01*
X022008Y009705D01*
X025508Y009705D01*
X025508Y008364D01*
X025345Y008297D01*
X025016Y007967D01*
X024838Y007537D01*
X024838Y007075D01*
X024816Y007075D01*
X023838Y006096D01*
X023838Y004105D01*
X022008Y004105D01*
X022008Y004897D02*
X023838Y004897D01*
X023308Y005305D02*
X023508Y005605D01*
X023508Y008805D01*
X022586Y008332D02*
X025430Y008332D01*
X025508Y009190D02*
X022008Y009190D01*
X023178Y007473D02*
X024838Y007473D01*
X024356Y006615D02*
X022972Y006615D01*
X023838Y005756D02*
X022008Y005756D01*
X026139Y003180D02*
X026338Y003180D01*
X029508Y003180D02*
X031395Y003180D01*
X031395Y003205D02*
X031395Y003151D01*
X032047Y002500D01*
X032969Y002500D01*
X033608Y003139D01*
X034247Y002500D01*
X035169Y002500D01*
X035820Y003151D01*
X035820Y003205D01*
X038395Y003205D01*
X038395Y003151D01*
X039047Y002500D01*
X039969Y002500D01*
X040608Y003139D01*
X041247Y002500D01*
X042169Y002500D01*
X042363Y002694D01*
X042552Y002505D01*
X043463Y002505D01*
X043842Y002505D01*
X043847Y002500D01*
X044769Y002500D01*
X044774Y002505D01*
X046463Y002505D01*
X047108Y003149D01*
X047108Y003205D01*
X047595Y003205D01*
X047595Y003151D01*
X048247Y002500D01*
X049169Y002500D01*
X049174Y002505D01*
X049963Y002505D01*
X050842Y002505D01*
X050847Y002500D01*
X051769Y002500D01*
X051774Y002505D01*
X053463Y002505D01*
X054108Y003149D01*
X054108Y003205D01*
X054481Y003205D01*
X054167Y002891D01*
X054167Y001785D01*
X054508Y001444D01*
X054508Y000935D01*
X029508Y000935D01*
X029508Y003205D01*
X031395Y003205D01*
X029508Y002322D02*
X054167Y002322D01*
X054108Y003180D02*
X054456Y003180D01*
X051838Y003605D02*
X051838Y004746D01*
X052088Y004996D01*
X052088Y005893D01*
X052335Y006140D01*
X052335Y006293D01*
X053008Y006965D01*
X053008Y009805D01*
X049508Y009805D01*
X049508Y008364D01*
X049775Y008475D01*
X050241Y008475D01*
X050671Y008297D01*
X051000Y007967D01*
X051178Y007537D01*
X051178Y007072D01*
X051000Y006642D01*
X050671Y006313D01*
X050241Y006135D01*
X049775Y006135D01*
X049508Y006245D01*
X049508Y006088D01*
X049618Y005978D01*
X049618Y005160D01*
X049820Y004958D01*
X049820Y003605D01*
X051838Y003605D01*
X051838Y004039D02*
X049820Y004039D01*
X049820Y004897D02*
X051989Y004897D01*
X051308Y005305D02*
X051158Y005705D01*
X051158Y008805D01*
X050586Y008332D02*
X053008Y008332D01*
X053008Y009190D02*
X049508Y009190D01*
X051178Y007473D02*
X053008Y007473D01*
X052657Y006615D02*
X050972Y006615D01*
X052088Y005756D02*
X049618Y005756D01*
X047595Y003180D02*
X047108Y003180D01*
X044838Y003605D02*
X044838Y004696D01*
X045335Y005194D01*
X045335Y006293D01*
X045352Y006310D01*
X045345Y006313D01*
X045016Y006642D01*
X044838Y007072D01*
X044838Y007537D01*
X045016Y007967D01*
X045345Y008297D01*
X045775Y008475D01*
X046008Y008475D01*
X046008Y009705D01*
X043008Y009705D01*
X043008Y007948D01*
X043178Y007537D01*
X043178Y007072D01*
X043008Y006662D01*
X043008Y003605D01*
X044838Y003605D01*
X044838Y004039D02*
X043008Y004039D01*
X043008Y004897D02*
X045039Y004897D01*
X044308Y005305D02*
X044008Y005705D01*
X044008Y008805D01*
X046008Y009305D01*
X046008Y009190D02*
X043008Y009190D01*
X043008Y008332D02*
X045430Y008332D01*
X044838Y007473D02*
X043178Y007473D01*
X043008Y006615D02*
X045043Y006615D01*
X045335Y005756D02*
X043008Y005756D01*
X038395Y003180D02*
X035820Y003180D01*
X029508Y001463D02*
X054488Y001463D01*
X052908Y016005D02*
X052858Y016005D01*
X051508Y021305D02*
X051458Y021305D01*
X051508Y022005D01*
X041958Y027705D02*
X041976Y030295D01*
X041918Y030353D01*
X041918Y030795D01*
X041614Y030795D01*
X041444Y030965D01*
X041153Y030965D01*
X040368Y031750D01*
X040368Y033046D01*
X040118Y033296D01*
X040118Y034705D01*
X038340Y034705D01*
X038340Y033085D01*
X038143Y032887D01*
X038148Y032882D01*
X038148Y032569D01*
X038148Y032227D01*
X038088Y032168D01*
X038088Y032015D01*
X037743Y031669D01*
X037486Y031669D01*
X037458Y027705D01*
X041958Y027705D01*
X041961Y028078D02*
X037461Y028078D01*
X037467Y028937D02*
X041967Y028937D01*
X041973Y029795D02*
X039540Y029795D01*
X039459Y029715D02*
X040098Y030353D01*
X040098Y031256D01*
X039459Y031895D01*
X038556Y031895D01*
X037918Y031256D01*
X037918Y030353D01*
X038556Y029715D01*
X039459Y029715D01*
X040108Y029805D02*
X039008Y028805D01*
X038476Y029795D02*
X037473Y029795D01*
X037479Y030654D02*
X037918Y030654D01*
X038174Y031512D02*
X037485Y031512D01*
X038148Y032371D02*
X040368Y032371D01*
X039508Y032705D02*
X040108Y031305D01*
X040108Y029805D01*
X040098Y030654D02*
X041918Y030654D01*
X040605Y031512D02*
X039842Y031512D01*
X040185Y033229D02*
X038340Y033229D01*
X038340Y034088D02*
X040118Y034088D01*
X042463Y035805D02*
X043108Y035160D01*
X043108Y034705D01*
X043195Y034705D01*
X043195Y034858D01*
X043847Y035510D01*
X044769Y035510D01*
X045420Y034858D01*
X045420Y034705D01*
X047595Y034705D01*
X047595Y034858D01*
X048247Y035510D01*
X049169Y035510D01*
X049820Y034858D01*
X049820Y034705D01*
X050195Y034705D01*
X050195Y034858D01*
X050847Y035510D01*
X051769Y035510D01*
X052420Y034858D01*
X052420Y034705D01*
X054595Y034705D01*
X054595Y034858D01*
X054963Y035226D01*
X054859Y035226D01*
X054467Y035619D01*
X054467Y036725D01*
X054841Y037099D01*
X054841Y037275D01*
X034358Y037275D01*
X034358Y034705D01*
X036195Y034705D01*
X036195Y034858D01*
X036408Y035071D01*
X036408Y035160D01*
X036411Y035164D01*
X037052Y035805D01*
X037963Y035805D01*
X041552Y035805D01*
X042463Y035805D01*
X043108Y034946D02*
X043284Y034946D01*
X045332Y034946D02*
X047684Y034946D01*
X048178Y033605D02*
X050195Y033605D01*
X050195Y033051D01*
X050347Y032899D01*
X050347Y031982D01*
X050740Y031589D01*
X051118Y031589D01*
X051118Y029975D01*
X050775Y029975D01*
X050365Y029805D01*
X047651Y029805D01*
X047241Y029975D01*
X046775Y029975D01*
X046365Y029805D01*
X045748Y029805D01*
X045748Y031304D01*
X046022Y031030D01*
X046994Y031030D01*
X047680Y031717D01*
X047680Y031869D01*
X047928Y032117D01*
X047928Y033013D01*
X048178Y033263D01*
X048178Y033605D01*
X048144Y033229D02*
X050195Y033229D01*
X050347Y032371D02*
X047928Y032371D01*
X047476Y031512D02*
X051118Y031512D01*
X052698Y031354D02*
X053022Y031030D01*
X053994Y031030D01*
X054680Y031717D01*
X054680Y031869D01*
X054928Y032117D01*
X054928Y033013D01*
X055178Y033263D01*
X055178Y033605D01*
X055463Y033605D01*
X056108Y034249D01*
X056108Y034985D01*
X056158Y034985D01*
X056158Y029805D01*
X055530Y029805D01*
X055241Y029925D01*
X054775Y029925D01*
X054486Y029805D01*
X052698Y029805D01*
X052698Y031354D01*
X052698Y030654D02*
X056158Y030654D01*
X056158Y031512D02*
X054476Y031512D01*
X054928Y032371D02*
X056158Y032371D01*
X056158Y033229D02*
X055144Y033229D01*
X055947Y034088D02*
X056158Y034088D01*
X056158Y034946D02*
X056108Y034946D01*
X054684Y034946D02*
X052332Y034946D01*
X054467Y035805D02*
X034358Y035805D01*
X034358Y036664D02*
X054467Y036664D01*
X050284Y034946D02*
X049732Y034946D01*
X051118Y030654D02*
X045748Y030654D01*
X036284Y034946D02*
X034358Y034946D01*
X033038Y034946D02*
X031332Y034946D01*
X031420Y034858D02*
X030769Y035510D01*
X030508Y035510D01*
X030508Y037275D01*
X033038Y037275D01*
X033038Y033263D01*
X033258Y033043D01*
X033258Y031705D01*
X033838Y031234D01*
X033838Y030320D01*
X034523Y029635D01*
X035018Y029635D01*
X035018Y027877D01*
X035091Y027805D01*
X030508Y027805D01*
X030508Y029650D01*
X030523Y029635D01*
X031492Y029635D01*
X032178Y030320D01*
X032178Y031289D01*
X031492Y031975D01*
X031211Y031975D01*
X031218Y031982D01*
X031218Y032849D01*
X031420Y033051D01*
X031420Y034858D01*
X031420Y034088D02*
X033038Y034088D01*
X033071Y033229D02*
X031420Y033229D01*
X032508Y032705D02*
X032508Y029805D01*
X032008Y029305D01*
X031008Y028805D01*
X030508Y028937D02*
X035018Y028937D01*
X035018Y028078D02*
X030508Y028078D01*
X031653Y029795D02*
X034363Y029795D01*
X033838Y030654D02*
X032178Y030654D01*
X031955Y031512D02*
X033495Y031512D01*
X033258Y032371D02*
X031218Y032371D01*
X030508Y035805D02*
X033038Y035805D01*
X033038Y036664D02*
X030508Y036664D01*
X013468Y031030D02*
X013468Y028155D01*
X009508Y028155D01*
X009508Y031589D01*
X009576Y031589D01*
X009968Y031982D01*
X009968Y032599D01*
X010420Y033051D01*
X010420Y034705D01*
X012038Y034705D01*
X012038Y033263D01*
X012535Y032766D01*
X012535Y031717D01*
X013222Y031030D01*
X013468Y031030D01*
X013468Y030654D02*
X012178Y030654D01*
X012178Y030320D02*
X011492Y029635D01*
X010523Y029635D01*
X009838Y030320D01*
X009838Y031289D01*
X010523Y031975D01*
X011492Y031975D01*
X012178Y031289D01*
X012178Y030320D01*
X011653Y029795D02*
X013468Y029795D01*
X013468Y028937D02*
X009508Y028937D01*
X009508Y029795D02*
X010363Y029795D01*
X009838Y030654D02*
X009508Y030654D01*
X009508Y031512D02*
X010061Y031512D01*
X009968Y032371D02*
X012535Y032371D01*
X012408Y031855D02*
X012008Y032705D01*
X011508Y032705D01*
X012071Y033229D02*
X010420Y033229D01*
X010420Y034088D02*
X012038Y034088D01*
X012408Y031855D02*
X012408Y029305D01*
X011008Y028805D01*
X007008Y028805D02*
X006758Y028805D01*
X004508Y031005D01*
X004508Y032705D01*
X011955Y031512D02*
X012740Y031512D01*
X060508Y032705D02*
X060508Y033955D01*
D38*
X058308Y033955D02*
X058308Y033155D01*
X058173Y032605D01*
X051308Y032605D02*
X051308Y033955D01*
X051308Y032605D02*
X051273Y032555D01*
X044323Y032555D02*
X044308Y032555D01*
X044308Y033955D01*
X041708Y032305D02*
X041508Y032305D01*
X042008Y031805D01*
X037358Y032555D02*
X037308Y033955D01*
X037358Y032555D02*
X037243Y032555D01*
X030308Y032605D02*
X030308Y033955D01*
X030308Y032605D02*
X030293Y032555D01*
X023323Y032505D02*
X023308Y032505D01*
X023308Y033955D01*
X016308Y033955D02*
X016308Y032605D01*
X016273Y032555D01*
X009308Y033955D02*
X009058Y033955D01*
X009058Y032555D01*
X009043Y032555D01*
X002308Y032655D02*
X002243Y032605D01*
X002308Y032655D02*
X002308Y033955D01*
X007158Y005455D02*
X007158Y004055D01*
X006708Y004055D01*
X007158Y005455D02*
X007193Y005455D01*
X013543Y005505D02*
X013708Y005505D01*
X013708Y004055D01*
X013708Y004005D01*
X020708Y004055D02*
X020708Y005555D01*
X020643Y005455D01*
X027708Y005305D02*
X027708Y004055D01*
X027708Y005305D02*
X027743Y005455D01*
X034708Y004055D02*
X034908Y004055D01*
X034908Y005405D01*
X034943Y005455D01*
X041693Y005405D02*
X041708Y005405D01*
X041708Y004055D01*
X048708Y004055D02*
X048708Y005355D01*
X048693Y005405D01*
X055693Y005455D02*
X055708Y005405D01*
X055708Y004055D01*
D39*
X042058Y011255D02*
X041758Y011255D01*
X040508Y010005D01*
X040408Y010005D01*
X040408Y006755D01*
X041008Y005955D01*
X041023Y005405D01*
X036108Y008105D02*
X036108Y009005D01*
X037108Y010005D01*
X040408Y010005D01*
X042058Y012105D02*
X042108Y015905D01*
X043508Y015905D01*
X044108Y016455D01*
X044208Y016555D01*
X044208Y016915D01*
X043858Y025205D02*
X043808Y026005D01*
X043808Y026015D01*
X041408Y026705D02*
X036558Y026705D01*
X036558Y027005D01*
X036508Y027055D01*
X036508Y032455D01*
X036573Y032555D01*
X029623Y032555D02*
X029608Y031855D01*
X029608Y027605D01*
X030158Y027055D01*
X036508Y027055D01*
X007208Y016615D02*
X007108Y016255D01*
X007008Y016155D01*
X007008Y016105D01*
X006308Y015405D01*
X005808Y015405D01*
X005808Y010805D01*
X008608Y008005D01*
X011258Y008005D01*
X011258Y007755D01*
X012858Y005955D01*
X012873Y005505D01*
X008608Y008005D02*
X006508Y005705D01*
X006523Y005455D01*
X034273Y005455D02*
X034308Y005855D01*
X035108Y006855D01*
X035108Y007105D01*
X036108Y008105D01*
D40*
X023508Y008805D02*
X022008Y009305D01*
X051508Y011755D02*
X051508Y021305D01*
X051508Y022705D01*
X051508Y022755D01*
X051508Y026955D01*
X052908Y028355D01*
X052908Y030305D01*
X052908Y026455D02*
X052908Y016005D01*
X054058Y016005D01*
X052908Y016005D02*
X052908Y011755D01*
X051508Y022005D02*
X051508Y022705D01*
M02*
