%
M48
M72
T01C0.0590
T02C0.0670
T03C0.0400
T04C0.0500
T05C0.1000
T06C0.0440
T07C0.0360
T08C0.0320
T09C0.0240
%
T01
X231Y405
X451Y405
X671Y405
X931Y405
X1151Y405
X1371Y405
X1631Y405
X1851Y405
X2071Y405
X2331Y405
X2551Y405
X2771Y405
X3031Y405
X3251Y405
X3471Y405
X3731Y405
X3951Y405
X4171Y405
X4431Y405
X4651Y405
X4871Y405
X5131Y405
X5351Y405
X5571Y405
X5406Y1600
X5406Y2200
X5351Y3395
X5131Y3395
X4871Y3395
X4651Y3395
X4431Y3395
X4171Y3395
X3951Y3395
X3731Y3395
X3471Y3395
X3251Y3395
X3031Y3395
X2771Y3395
X2551Y3395
X2331Y3395
X2071Y3395
X1851Y3395
X1631Y3395
X1371Y3395
X1151Y3395
X931Y3395
X671Y3395
X451Y3395
X231Y3395
X5571Y3395
X5831Y3395
X6051Y3395
X6271Y3395
T02
X6051Y3270
X5571Y3270
X5351Y3270
X4871Y3270
X4651Y3270
X4171Y3270
X3951Y3270
X3471Y3270
X3251Y3270
X2771Y3270
X2551Y3270
X2071Y3270
X1851Y3270
X1371Y3270
X1151Y3270
X671Y3270
X451Y3270
X1851Y540
X1631Y530
X1151Y530
X931Y530
X451Y530
X231Y530
X2331Y530
X2551Y540
X3031Y530
X3251Y530
X3731Y530
X3951Y530
X4431Y530
X4651Y530
X5131Y530
X5351Y530
X6211Y2810
T03
X5501Y2875
X5501Y3075
X5101Y3080
X5101Y2880
X4701Y2880
X4701Y3080
X4301Y3080
X4301Y2880
X3901Y2880
X3901Y3080
X3501Y3080
X3501Y2880
X3101Y2880
X3101Y3080
X2701Y3080
X2701Y2880
X2301Y2880
X2301Y3080
X1901Y3080
X1901Y2880
X1501Y2880
X1501Y3080
X1101Y3080
X1101Y2880
X701Y2880
X701Y3080
X331Y2290
X331Y2190
X231Y2190
X231Y2290
X231Y2090
X331Y2090
X331Y1990
X331Y1890
X231Y1890
X231Y1990
X231Y1790
X231Y1690
X231Y1590
X331Y1590
X331Y1490
X331Y1390
X231Y1390
X231Y1490
X331Y1690
X331Y1790
X1141Y1500
X1141Y1430
X1141Y1030
X1001Y930
X1001Y730
X1401Y730
X1401Y930
X1801Y930
X1801Y730
X2201Y730
X2201Y930
X2601Y930
X2601Y730
X3001Y730
X3001Y930
X3401Y930
X3401Y730
X3801Y730
X3801Y930
X4101Y1120
X4201Y930
X4201Y730
X4601Y730
X4601Y930
X5001Y930
X5001Y730
X5501Y1255
X5491Y1495
X6091Y1495
X6101Y1255
X4101Y1520
X4101Y1585
X3736Y1260
X3536Y1260
X4101Y2185
X1141Y2100
X601Y930
X601Y730
T04
X1956Y1480
X1956Y1680
X2756Y1580
X2756Y1980
X2789Y2212
X2887Y2212
X2986Y2212
X3084Y2212
X3183Y2212
X4763Y2217
X4763Y2119
X4763Y2315
X4763Y2414
X4763Y2512
X2756Y1180
X1583Y2212
X1484Y2212
X1386Y2212
X1287Y2212
X1189Y2212
X6211Y770
X6211Y620
X6211Y470
X6211Y320
T05
X4999Y1528
X4999Y2276
X3773Y2449
X3025Y2449
X2173Y2449
X1425Y2449
T06
X5711Y2090
X5826Y2090
X5941Y2090
X6056Y2090
X6056Y1690
X5941Y1690
X5826Y1690
X5711Y1690
T07
X6191Y1495
X6261Y1695
T08
X5956Y1520
X5706Y1270
X5291Y1285
X5291Y1230
X5291Y1175
X5151Y1175
X5151Y1230
X5151Y1285
X5151Y1340
X5291Y1340
X4901Y1265
X4556Y1175
X4501Y980
X4501Y880
X4701Y880
X4701Y980
X4901Y980
X5101Y980
X5201Y980
X5201Y880
X5116Y880
X5001Y560
X5001Y460
X4301Y460
X4301Y560
X4301Y980
X4901Y1690
X5411Y1770
X5541Y2160
X5906Y2250
X6031Y2305
X6251Y2220
X6251Y2620
X6051Y2785
X5821Y2995
X5611Y3060
X5381Y3030
X5291Y3030
X4996Y3130
X4751Y2710
X4551Y2510
X4151Y2830
X4001Y2830
X4001Y2930
X3801Y2830
X3611Y2790
X3401Y2830
X3301Y2830
X3201Y2830
X3201Y2930
X3401Y2930
X2201Y3030
X2001Y3030
X1996Y2710
X1301Y2830
X1201Y2930
X1001Y2930
X501Y3030
X401Y3030
X301Y3030
X301Y3130
X401Y3130
X501Y3130
X996Y2585
X1431Y1710
X1001Y1495
X756Y1585
X586Y1585
X1501Y980
X1601Y980
X1701Y980
X1701Y880
X1901Y880
X2101Y880
X2101Y980
X2201Y1070
X2301Y980
X2301Y880
X2501Y880
X2501Y980
X1921Y1070
X1501Y880
X1551Y610
X1551Y510
X1551Y410
X5151Y2200
X5151Y2275
X5151Y2350
X5291Y2475
X5291Y2530
X5291Y2585
X5291Y2645
X6051Y3185
X5891Y975
T09
X5456Y1405
X4801Y1110
X4396Y1125
X4206Y1125
X4206Y1210
X4156Y1250
X4356Y1375
X4371Y1520
X4321Y1520
X4286Y1780
X4336Y2035
X4161Y2125
X4141Y2290
X4296Y2290
X4236Y2430
X4331Y2525
X4386Y2520
X4141Y2670
X4696Y2175
X4621Y2130
X5601Y2390
X5596Y2580
X6021Y2580
X3056Y2290
X2931Y2535
X2666Y2260
X2561Y2105
X2211Y1805
X1966Y2065
X1671Y1770
X1626Y1575
X1056Y1645
X996Y1645
X721Y1500
X621Y1500
X431Y1500
X651Y1350
X621Y1305
X501Y1320
X241Y1220
X191Y1345
X136Y1065
X686Y1095
X946Y1240
X1036Y1150
X431Y1840
X556Y1900
X641Y1940
X561Y2010
X501Y2070
X461Y2105
X396Y2090
X541Y2280
X666Y2365
X621Y2390
X726Y2225
X951Y2070
X1336Y2110
X1431Y2050
X176Y2365
X141Y2290
X2546Y1185
X2876Y1185
M30
