G75*
G70*
%OFA0B0*%
%FSLAX24Y24*%
%IPPOS*%
%LPD*%
%AMOC8*
5,1,8,0,0,1.08239X$1,22.5*
%
%ADD10O,0.0965X0.1850*%
%ADD11O,0.1085X0.2090*%
%ADD12C,0.1080*%
%ADD13OC8,0.1080*%
%ADD14OC8,0.0680*%
%ADD15C,0.0830*%
%ADD16C,0.1480*%
%ADD17O,0.1580X0.0830*%
%ADD18C,0.0740*%
%ADD19O,0.1200X0.0640*%
%ADD20OC8,0.0780*%
%ADD21O,0.0600X0.1120*%
%ADD22R,0.1419X0.0828*%
%ADD23C,0.0480*%
%ADD24C,0.0560*%
D10*
X002308Y004055D03*
X004508Y004055D03*
X006708Y004055D03*
X009308Y004055D03*
X011508Y004055D03*
X013708Y004055D03*
X016308Y004055D03*
X018508Y004055D03*
X020708Y004055D03*
X023308Y004055D03*
X025508Y004055D03*
X027708Y004055D03*
X030308Y004055D03*
X032508Y004055D03*
X034708Y004055D03*
X037308Y004055D03*
X039508Y004055D03*
X041708Y004055D03*
X044308Y004055D03*
X046508Y004055D03*
X048708Y004055D03*
X051308Y004055D03*
X053508Y004055D03*
X055708Y004055D03*
X054058Y016005D03*
X054058Y022005D03*
X053508Y033955D03*
X051308Y033955D03*
X048708Y033955D03*
X046508Y033955D03*
X044308Y033955D03*
X041708Y033955D03*
X039508Y033955D03*
X037308Y033955D03*
X034708Y033955D03*
X032508Y033955D03*
X030308Y033955D03*
X027708Y033955D03*
X025508Y033955D03*
X023308Y033955D03*
X020708Y033955D03*
X018508Y033955D03*
X016308Y033955D03*
X013708Y033955D03*
X011508Y033955D03*
X009308Y033955D03*
X006708Y033955D03*
X004508Y033955D03*
X002308Y033955D03*
X055708Y033955D03*
X058308Y033955D03*
X060508Y033955D03*
X062708Y033955D03*
D11*
X060508Y032705D03*
X055708Y032705D03*
X053508Y032705D03*
X048708Y032705D03*
X046508Y032705D03*
X041708Y032705D03*
X039508Y032705D03*
X034708Y032705D03*
X032508Y032705D03*
X027708Y032705D03*
X025508Y032705D03*
X020708Y032705D03*
X018508Y032705D03*
X013708Y032705D03*
X011508Y032705D03*
X006708Y032705D03*
X004508Y032705D03*
X018508Y005405D03*
X016308Y005305D03*
X011508Y005305D03*
X009308Y005305D03*
X004508Y005305D03*
X002308Y005305D03*
X023308Y005305D03*
X025508Y005405D03*
X030308Y005305D03*
X032508Y005305D03*
X037308Y005305D03*
X039508Y005305D03*
X044308Y005305D03*
X046508Y005305D03*
X051308Y005305D03*
X053508Y005305D03*
X062108Y028105D03*
D12*
X055008Y028755D03*
X051008Y028805D03*
X047008Y028805D03*
X043008Y028805D03*
X039008Y028805D03*
X035008Y028805D03*
X031008Y028805D03*
X027008Y028805D03*
X023008Y028805D03*
X019008Y028805D03*
X015008Y028805D03*
X011008Y028805D03*
X007008Y028805D03*
X035358Y012605D03*
X034008Y007305D03*
X038008Y007305D03*
X042008Y007305D03*
X046008Y007305D03*
X050008Y007305D03*
X030008Y007305D03*
X026008Y007305D03*
X022008Y007305D03*
X018008Y007305D03*
X014008Y007305D03*
X010008Y007305D03*
X006008Y007305D03*
D13*
X006008Y009305D03*
X010008Y009305D03*
X014008Y009305D03*
X018008Y009305D03*
X022008Y009305D03*
X026008Y009305D03*
X030008Y009305D03*
X034008Y009305D03*
X038008Y009305D03*
X042008Y009305D03*
X046008Y009305D03*
X050008Y009305D03*
X037358Y012605D03*
X039008Y030805D03*
X043008Y030805D03*
X047008Y030805D03*
X051008Y030805D03*
X055008Y030755D03*
X035008Y030805D03*
X031008Y030805D03*
X027008Y030805D03*
X023008Y030805D03*
X019008Y030805D03*
X015008Y030805D03*
X011008Y030805D03*
X007008Y030805D03*
D14*
X003308Y022905D03*
X002308Y022905D03*
X002308Y021905D03*
X003308Y021905D03*
X003308Y020905D03*
X002308Y020905D03*
X002308Y019905D03*
X003308Y019905D03*
X003308Y018905D03*
X002308Y018905D03*
X002308Y017905D03*
X003308Y017905D03*
X003308Y016905D03*
X002308Y016905D03*
X002308Y015905D03*
X003308Y015905D03*
X003308Y014905D03*
X002308Y014905D03*
X002308Y013905D03*
X003308Y013905D03*
X011408Y014305D03*
X011408Y015005D03*
X011408Y010305D03*
X011408Y021005D03*
X041008Y021855D03*
X041008Y015855D03*
X041008Y015205D03*
X041008Y011205D03*
X054908Y014955D03*
X055008Y012555D03*
X061008Y012555D03*
X060908Y014955D03*
D15*
X047627Y021186D03*
X047627Y022170D03*
X047627Y023154D03*
X047627Y024139D03*
X047627Y025123D03*
X031827Y022124D03*
X030843Y022124D03*
X029858Y022124D03*
X028874Y022124D03*
X027890Y022124D03*
X015827Y022124D03*
X014843Y022124D03*
X013858Y022124D03*
X012874Y022124D03*
X011890Y022124D03*
D16*
X014252Y024486D03*
X021732Y024486D03*
X030252Y024486D03*
X037732Y024486D03*
X049989Y022761D03*
X049989Y015280D03*
D17*
X062108Y007705D03*
X062108Y006205D03*
X062108Y004705D03*
X062108Y003205D03*
X027558Y011805D03*
X027558Y015805D03*
X027558Y019805D03*
X019558Y016805D03*
X019558Y014805D03*
D18*
X057108Y016905D03*
X058258Y016905D03*
X059408Y016905D03*
X060558Y016905D03*
X060558Y020905D03*
X059408Y020905D03*
X058258Y020905D03*
X057108Y020905D03*
D19*
X062608Y016955D03*
X061908Y014955D03*
D20*
X060508Y027855D03*
X060508Y031855D03*
D21*
X062508Y026205D03*
X062508Y022205D03*
D22*
X059958Y028787D03*
X059958Y030322D03*
X049008Y030272D03*
X049008Y028737D03*
X045008Y028837D03*
X045008Y030372D03*
X041008Y030872D03*
X041008Y029337D03*
X037008Y030687D03*
X037008Y032222D03*
X033008Y030922D03*
X033008Y029387D03*
X029008Y029187D03*
X029008Y030722D03*
X025008Y030222D03*
X025008Y028687D03*
X021008Y028687D03*
X021008Y030222D03*
X016958Y030672D03*
X016958Y029137D03*
X013008Y029137D03*
X013008Y030672D03*
X009008Y030687D03*
X009008Y032222D03*
X008058Y009122D03*
X008058Y007587D03*
X012008Y007637D03*
X012008Y009172D03*
X016008Y008822D03*
X016008Y007287D03*
X020208Y007372D03*
X020208Y005837D03*
X024008Y007387D03*
X024008Y008922D03*
X028008Y008922D03*
X028008Y007387D03*
X032008Y007537D03*
X032008Y009072D03*
X036008Y009172D03*
X036008Y007637D03*
X040008Y007587D03*
X040008Y009122D03*
X044008Y008822D03*
X044008Y007287D03*
X048208Y007422D03*
X048208Y005887D03*
D23*
X048008Y011105D03*
X043958Y011255D03*
X042058Y011255D03*
X042058Y012105D03*
X041558Y012505D03*
X043558Y013755D03*
X043708Y015205D03*
X043208Y015205D03*
X042858Y017805D03*
X043358Y020355D03*
X041608Y021255D03*
X041408Y022905D03*
X042958Y022905D03*
X042358Y024305D03*
X043308Y025255D03*
X043858Y025205D03*
X041408Y026705D03*
X046958Y021755D03*
X046208Y021305D03*
X056008Y023905D03*
X055958Y025805D03*
X060208Y025805D03*
X054558Y014055D03*
X030558Y022905D03*
X029308Y025355D03*
X026658Y022605D03*
X025608Y021055D03*
X022108Y018055D03*
X019658Y020655D03*
X016708Y017705D03*
X016258Y015755D03*
X010558Y016455D03*
X009958Y016455D03*
X007208Y015005D03*
X006208Y015005D03*
X004308Y015005D03*
X006508Y013505D03*
X006208Y013055D03*
X005008Y013205D03*
X002408Y012205D03*
X001908Y013455D03*
X001358Y010655D03*
X006858Y010955D03*
X009458Y012405D03*
X010358Y011505D03*
X004308Y018405D03*
X005558Y019005D03*
X006408Y019405D03*
X005608Y020105D03*
X005008Y020705D03*
X004608Y021055D03*
X003958Y020905D03*
X005408Y022805D03*
X006658Y023655D03*
X006208Y023905D03*
X007258Y022255D03*
X009508Y020705D03*
X013358Y021105D03*
X014308Y020505D03*
X001758Y023655D03*
X001408Y022905D03*
X025458Y011855D03*
X028758Y011855D03*
D24*
X025008Y009805D03*
X025008Y008805D03*
X023008Y008805D03*
X023008Y009805D03*
X022008Y010705D03*
X021008Y009805D03*
X021008Y008805D03*
X019008Y008805D03*
X017008Y008805D03*
X017008Y009805D03*
X016008Y009805D03*
X015008Y009805D03*
X015008Y008805D03*
X015508Y006105D03*
X015508Y005105D03*
X015508Y004105D03*
X019208Y010705D03*
X010008Y014955D03*
X007558Y015855D03*
X005858Y015855D03*
X014308Y017105D03*
X009958Y025855D03*
X013008Y028305D03*
X012008Y029305D03*
X010008Y029305D03*
X005008Y030305D03*
X004008Y030305D03*
X003008Y030305D03*
X003008Y031305D03*
X004008Y031305D03*
X005008Y031305D03*
X020008Y030305D03*
X022008Y030305D03*
X019958Y027105D03*
X032008Y028305D03*
X033008Y028305D03*
X034008Y028305D03*
X034008Y029305D03*
X032008Y029305D03*
X036108Y027905D03*
X038008Y028305D03*
X040008Y028305D03*
X041508Y028305D03*
X040008Y029305D03*
X045508Y025105D03*
X047508Y027105D03*
X052908Y026455D03*
X052908Y025855D03*
X052908Y025305D03*
X052908Y024755D03*
X051508Y023505D03*
X051508Y022755D03*
X051508Y022005D03*
X055408Y021605D03*
X059058Y022505D03*
X060308Y023055D03*
X054108Y017705D03*
X049008Y016905D03*
X051508Y013405D03*
X051508Y012855D03*
X051508Y012305D03*
X051508Y011755D03*
X052908Y011755D03*
X052908Y012305D03*
X052908Y012855D03*
X052908Y013405D03*
X049008Y012655D03*
X045558Y011755D03*
X045008Y009805D03*
X045008Y008805D03*
X047008Y008805D03*
X047008Y009805D03*
X049008Y009805D03*
X051008Y009805D03*
X052008Y009805D03*
X052008Y008805D03*
X051158Y008805D03*
X050008Y005605D03*
X050008Y004605D03*
X043008Y004605D03*
X043008Y005605D03*
X043008Y009805D03*
X057058Y012705D03*
X059558Y015205D03*
X058908Y009755D03*
X058208Y029955D03*
X056108Y030605D03*
X053808Y030305D03*
X052908Y030305D03*
X049958Y031305D03*
M02*
