G75*
G70*
%OFA0B0*%
%FSLAX24Y24*%
%IPPOS*%
%LPD*%
%AMOC8*
5,1,8,0,0,1.08239X$1,22.5*
%
%ADD10R,0.0220X0.0470*%
%ADD11R,0.0470X0.0220*%
%ADD12R,0.0354X0.0276*%
%ADD13C,0.0520*%
%ADD14C,0.0600*%
%ADD15OC8,0.0600*%
%ADD16R,0.0800X0.0260*%
%ADD17R,0.0276X0.0354*%
%ADD18R,0.0591X0.0512*%
%ADD19R,0.0472X0.0472*%
%ADD20R,0.0512X0.0591*%
%ADD21R,0.0260X0.0800*%
%ADD22R,0.0300X0.0600*%
%ADD23R,0.0236X0.0866*%
%ADD24R,0.0276X0.0591*%
%ADD25R,0.0591X0.0276*%
%ADD26O,0.0709X0.1417*%
%ADD27R,0.0709X0.0630*%
%ADD28R,0.2126X0.2441*%
%ADD29R,0.0394X0.0630*%
%ADD30C,0.0148*%
%ADD31C,0.0138*%
%ADD32R,0.0768X0.0768*%
%ADD33R,0.0550X0.0137*%
%ADD34R,0.0390X0.0120*%
%ADD35C,0.0160*%
%ADD36C,0.0100*%
%ADD37C,0.0220*%
%ADD38C,0.0400*%
%ADD39C,0.0070*%
%ADD40C,0.0320*%
D10*
X016900Y013287D03*
X017215Y013287D03*
X017530Y013287D03*
X017844Y013287D03*
X018159Y013287D03*
X018474Y013287D03*
X018789Y013287D03*
X019104Y013287D03*
X019419Y013287D03*
X019734Y013287D03*
X020049Y013287D03*
X020364Y013287D03*
X020679Y013287D03*
X020994Y013287D03*
X021309Y013287D03*
X021624Y013287D03*
X021624Y019429D03*
X021309Y019429D03*
X020994Y019429D03*
X020679Y019429D03*
X020364Y019429D03*
X020049Y019429D03*
X019734Y019429D03*
X019419Y019429D03*
X019104Y019429D03*
X018789Y019429D03*
X018474Y019429D03*
X018159Y019429D03*
X017844Y019429D03*
X017530Y019429D03*
X017215Y019429D03*
X016900Y019429D03*
D11*
X016191Y018720D03*
X016191Y018405D03*
X016191Y018090D03*
X016191Y017775D03*
X016191Y017460D03*
X016191Y017145D03*
X016191Y016830D03*
X016191Y016515D03*
X016191Y016200D03*
X016191Y015885D03*
X016191Y015570D03*
X016191Y015256D03*
X016191Y014941D03*
X016191Y014626D03*
X016191Y014311D03*
X016191Y013996D03*
X022333Y013996D03*
X022333Y014311D03*
X022333Y014626D03*
X022333Y014941D03*
X022333Y015256D03*
X022333Y015570D03*
X022333Y015885D03*
X022333Y016200D03*
X022333Y016515D03*
X022333Y016830D03*
X022333Y017145D03*
X022333Y017460D03*
X022333Y017775D03*
X022333Y018090D03*
X022333Y018405D03*
X022333Y018720D03*
D12*
X017412Y020252D03*
X017412Y020764D03*
X016512Y020764D03*
X016512Y020252D03*
X011012Y017764D03*
X011012Y017252D03*
X011012Y016564D03*
X011012Y016052D03*
X010012Y016052D03*
X010012Y016564D03*
X010012Y017252D03*
X010012Y017764D03*
X019512Y012164D03*
X019512Y011652D03*
X020712Y011652D03*
X020712Y012164D03*
X027512Y008264D03*
X027512Y007752D03*
X029512Y009252D03*
X029512Y009764D03*
X030512Y009764D03*
X030512Y009252D03*
X031512Y009252D03*
X031512Y009764D03*
X028512Y010752D03*
X028512Y011264D03*
X028512Y011952D03*
X028512Y012464D03*
X030012Y014252D03*
X030012Y014764D03*
X031012Y014764D03*
X031012Y014252D03*
X032012Y014252D03*
X032012Y014764D03*
X034012Y012664D03*
X034012Y012152D03*
X016012Y026752D03*
X016012Y027264D03*
X012512Y029752D03*
X012512Y030264D03*
D13*
X018862Y009858D03*
X020762Y009858D03*
D14*
X006512Y002508D03*
D15*
X007512Y002508D03*
X008512Y002508D03*
X008512Y003508D03*
X007512Y003508D03*
X006512Y003508D03*
X003512Y006658D03*
X002512Y006658D03*
X002512Y007658D03*
X003512Y007658D03*
X003512Y008658D03*
X002512Y008658D03*
X002512Y009658D03*
X003512Y009658D03*
X003512Y010658D03*
X002512Y010658D03*
X002512Y015008D03*
X003512Y015008D03*
X003512Y016008D03*
X002512Y016008D03*
X002512Y017008D03*
X003512Y017008D03*
X003512Y018008D03*
X002512Y018008D03*
X002512Y019008D03*
X003512Y019008D03*
X003512Y020008D03*
X002512Y020008D03*
X002512Y021008D03*
X003512Y021008D03*
X003512Y022008D03*
X002512Y022008D03*
X002512Y023008D03*
X003512Y023008D03*
X003512Y024008D03*
X002512Y024008D03*
X002512Y025008D03*
X003512Y025008D03*
X003512Y026008D03*
X002512Y026008D03*
X002512Y027008D03*
X003512Y027008D03*
X005512Y031008D03*
X006512Y031008D03*
X006512Y032008D03*
X005512Y032008D03*
X007512Y032008D03*
X008512Y032008D03*
X008512Y031008D03*
X007512Y031008D03*
X035212Y021008D03*
X036212Y021008D03*
X036212Y020008D03*
X036212Y019008D03*
X036212Y018008D03*
X036212Y017008D03*
X036212Y016008D03*
X036212Y015008D03*
X036212Y014008D03*
X036212Y013008D03*
X035212Y013008D03*
X035212Y014008D03*
X035212Y015008D03*
X035212Y016008D03*
X035212Y017008D03*
X035212Y018008D03*
X035212Y019008D03*
X035212Y020008D03*
X024512Y003508D03*
X024512Y002508D03*
X023512Y002508D03*
X022512Y002508D03*
X022512Y003508D03*
X023512Y003508D03*
X021512Y003508D03*
X020512Y003508D03*
X020512Y002508D03*
X021512Y002508D03*
X019512Y002508D03*
X018512Y002508D03*
X018512Y003508D03*
X019512Y003508D03*
X017512Y003508D03*
X016512Y003508D03*
X016512Y002508D03*
X017512Y002508D03*
D16*
X014472Y009858D03*
X014472Y010358D03*
X014472Y010858D03*
X014472Y011358D03*
X014472Y011858D03*
X014472Y012358D03*
X014472Y012858D03*
X012052Y012858D03*
X012052Y012358D03*
X012052Y011858D03*
X012052Y011358D03*
X012052Y010858D03*
X012052Y010358D03*
X012052Y009858D03*
D17*
X010168Y009708D03*
X009656Y009708D03*
X017856Y012258D03*
X018368Y012258D03*
X024256Y014508D03*
X024768Y014508D03*
X028356Y015658D03*
X028868Y015658D03*
X024768Y019008D03*
X024256Y019008D03*
X026256Y021008D03*
X026768Y021008D03*
X026768Y021758D03*
X026256Y021758D03*
X026256Y022508D03*
X026768Y022508D03*
X020768Y020408D03*
X020256Y020408D03*
X031806Y029008D03*
X032318Y029008D03*
X021268Y004508D03*
X020756Y004508D03*
D18*
X009862Y006173D03*
X009862Y006843D03*
X009012Y006843D03*
X009012Y006173D03*
X009012Y007773D03*
X009012Y008443D03*
X009862Y008443D03*
X009862Y007773D03*
X008912Y016823D03*
X008912Y017493D03*
X017612Y022273D03*
X017612Y022943D03*
X018912Y022943D03*
X018912Y022273D03*
X020162Y022273D03*
X020162Y022943D03*
X020062Y029673D03*
X020062Y030343D03*
X021262Y030343D03*
X021262Y029673D03*
X018812Y029673D03*
X018812Y030343D03*
X017612Y030343D03*
X017612Y029673D03*
X016412Y029673D03*
X016412Y030343D03*
X015212Y030343D03*
X015212Y029673D03*
X014012Y029723D03*
X014012Y030393D03*
D19*
X030098Y006508D03*
X030925Y006508D03*
X030925Y005008D03*
X030098Y005008D03*
D20*
X028846Y005008D03*
X028177Y005008D03*
X028177Y006508D03*
X028846Y006508D03*
X030227Y023008D03*
X030896Y023008D03*
X030846Y029008D03*
X030177Y029008D03*
D21*
X020762Y027718D03*
X020262Y027718D03*
X019762Y027718D03*
X019262Y027718D03*
X018762Y027718D03*
X018262Y027718D03*
X017762Y027718D03*
X017262Y027718D03*
X017262Y025298D03*
X017762Y025298D03*
X018262Y025298D03*
X018762Y025298D03*
X019262Y025298D03*
X019762Y025298D03*
X020262Y025298D03*
X020762Y025298D03*
D22*
X029362Y024128D03*
X029862Y024128D03*
X030362Y024128D03*
X030862Y024128D03*
X031362Y024128D03*
X031862Y024128D03*
X032362Y024128D03*
X032862Y024128D03*
X032862Y027888D03*
X032362Y027888D03*
X031862Y027888D03*
X031362Y027888D03*
X030862Y027888D03*
X030362Y027888D03*
X029862Y027888D03*
X029362Y027888D03*
D23*
X031262Y021031D03*
X031762Y021031D03*
X032262Y021031D03*
X032762Y021031D03*
X032762Y018984D03*
X032262Y018984D03*
X031762Y018984D03*
X031262Y018984D03*
X026612Y009031D03*
X026112Y009031D03*
X025612Y009031D03*
X025112Y009031D03*
X025112Y006984D03*
X025612Y006984D03*
X026112Y006984D03*
X026612Y006984D03*
D24*
X026262Y025191D03*
X025762Y025191D03*
X025262Y025191D03*
X024762Y025191D03*
X024262Y025191D03*
X023762Y025191D03*
X023262Y025191D03*
X022762Y025191D03*
X022762Y027825D03*
X023262Y027825D03*
X023762Y027825D03*
X024262Y027825D03*
X024762Y027825D03*
X025262Y027825D03*
X025762Y027825D03*
X026262Y027825D03*
X014762Y027825D03*
X014262Y027825D03*
X013762Y027825D03*
X013262Y027825D03*
X012762Y027825D03*
X012262Y027825D03*
X011762Y027825D03*
X011262Y027825D03*
X009262Y027825D03*
X008762Y027825D03*
X008262Y027825D03*
X007762Y027825D03*
X007262Y027825D03*
X006762Y027825D03*
X006262Y027825D03*
X005762Y027825D03*
X005762Y025191D03*
X006262Y025191D03*
X006762Y025191D03*
X007262Y025191D03*
X007762Y025191D03*
X008262Y025191D03*
X008762Y025191D03*
X009262Y025191D03*
X011262Y025191D03*
X011762Y025191D03*
X012262Y025191D03*
X012762Y025191D03*
X013262Y025191D03*
X013762Y025191D03*
X014262Y025191D03*
X014762Y025191D03*
D25*
X014829Y008258D03*
X014829Y007758D03*
X014829Y007258D03*
X014829Y006758D03*
X014829Y006258D03*
X014829Y005758D03*
X014829Y005258D03*
X014829Y004758D03*
X012194Y004758D03*
X012194Y005258D03*
X012194Y005758D03*
X012194Y006258D03*
X012194Y006758D03*
X012194Y007258D03*
X012194Y007758D03*
X012194Y008258D03*
D26*
X014512Y032008D03*
X015512Y032008D03*
X016512Y032008D03*
X017512Y032008D03*
X018512Y032008D03*
X019512Y032008D03*
X020512Y032008D03*
X023512Y032008D03*
X024512Y032008D03*
X025512Y032008D03*
X026512Y032008D03*
X029512Y032008D03*
X030512Y032008D03*
X031512Y032008D03*
X032512Y032008D03*
D27*
X029762Y021609D03*
X029762Y020507D03*
X029762Y019609D03*
X029762Y018507D03*
X023712Y008409D03*
X023712Y007307D03*
X007662Y016607D03*
X007662Y017709D03*
D28*
X008262Y021442D03*
D29*
X009159Y018568D03*
X007364Y018568D03*
D30*
X030043Y012564D02*
X030091Y012564D01*
X030043Y012564D02*
X030043Y012612D01*
X030091Y012612D01*
X030091Y012564D01*
X030091Y012249D02*
X030043Y012249D01*
X030043Y012297D01*
X030091Y012297D01*
X030091Y012249D01*
X030358Y012249D02*
X030406Y012249D01*
X030358Y012249D02*
X030358Y012297D01*
X030406Y012297D01*
X030406Y012249D01*
X030406Y011934D02*
X030358Y011934D01*
X030358Y011982D01*
X030406Y011982D01*
X030406Y011934D01*
X030406Y011619D02*
X030358Y011619D01*
X030358Y011667D01*
X030406Y011667D01*
X030406Y011619D01*
X030091Y011619D02*
X030043Y011619D01*
X030043Y011667D01*
X030091Y011667D01*
X030091Y011619D01*
X030091Y011304D02*
X030043Y011304D01*
X030043Y011352D01*
X030091Y011352D01*
X030091Y011304D01*
X030358Y010989D02*
X030406Y010989D01*
X030358Y010989D02*
X030358Y011037D01*
X030406Y011037D01*
X030406Y010989D01*
X030673Y010989D02*
X030721Y010989D01*
X030673Y010989D02*
X030673Y011037D01*
X030721Y011037D01*
X030721Y010989D01*
X030988Y010989D02*
X031036Y010989D01*
X030988Y010989D02*
X030988Y011037D01*
X031036Y011037D01*
X031036Y010989D01*
X031303Y010989D02*
X031351Y010989D01*
X031303Y010989D02*
X031303Y011037D01*
X031351Y011037D01*
X031351Y010989D01*
X031618Y010989D02*
X031666Y010989D01*
X031618Y010989D02*
X031618Y011037D01*
X031666Y011037D01*
X031666Y010989D01*
X031933Y011304D02*
X031981Y011304D01*
X031933Y011304D02*
X031933Y011352D01*
X031981Y011352D01*
X031981Y011304D01*
X031981Y011619D02*
X031933Y011619D01*
X031933Y011667D01*
X031981Y011667D01*
X031981Y011619D01*
X031981Y011934D02*
X031933Y011934D01*
X031933Y011982D01*
X031981Y011982D01*
X031981Y011934D01*
X031981Y012249D02*
X031933Y012249D01*
X031933Y012297D01*
X031981Y012297D01*
X031981Y012249D01*
X031981Y012564D02*
X031933Y012564D01*
X031933Y012612D01*
X031981Y012612D01*
X031981Y012564D01*
X031666Y012249D02*
X031618Y012249D01*
X031618Y012297D01*
X031666Y012297D01*
X031666Y012249D01*
X031666Y011934D02*
X031618Y011934D01*
X031618Y011982D01*
X031666Y011982D01*
X031666Y011934D01*
X031666Y011619D02*
X031618Y011619D01*
X031618Y011667D01*
X031666Y011667D01*
X031666Y011619D01*
X031351Y011304D02*
X031303Y011304D01*
X031303Y011352D01*
X031351Y011352D01*
X031351Y011304D01*
X031036Y011304D02*
X030988Y011304D01*
X030988Y011352D01*
X031036Y011352D01*
X031036Y011304D01*
X030721Y011304D02*
X030673Y011304D01*
X030673Y011352D01*
X030721Y011352D01*
X030721Y011304D01*
X030091Y011934D02*
X030043Y011934D01*
X030043Y011982D01*
X030091Y011982D01*
X030091Y011934D01*
X030673Y012564D02*
X030721Y012564D01*
X030673Y012564D02*
X030673Y012612D01*
X030721Y012612D01*
X030721Y012564D01*
X030988Y012564D02*
X031036Y012564D01*
X030988Y012564D02*
X030988Y012612D01*
X031036Y012612D01*
X031036Y012564D01*
X031303Y012564D02*
X031351Y012564D01*
X031303Y012564D02*
X031303Y012612D01*
X031351Y012612D01*
X031351Y012564D01*
X031351Y012879D02*
X031303Y012879D01*
X031303Y012927D01*
X031351Y012927D01*
X031351Y012879D01*
X031618Y012879D02*
X031666Y012879D01*
X031618Y012879D02*
X031618Y012927D01*
X031666Y012927D01*
X031666Y012879D01*
X031036Y012879D02*
X030988Y012879D01*
X030988Y012927D01*
X031036Y012927D01*
X031036Y012879D01*
X030721Y012879D02*
X030673Y012879D01*
X030673Y012927D01*
X030721Y012927D01*
X030721Y012879D01*
X030406Y012879D02*
X030358Y012879D01*
X030358Y012927D01*
X030406Y012927D01*
X030406Y012879D01*
D31*
X025046Y020411D02*
X025046Y020587D01*
X024790Y020587D02*
X024790Y020411D01*
X024534Y020411D02*
X024534Y020587D01*
X024278Y020587D02*
X024278Y020411D01*
X024041Y020824D02*
X023865Y020824D01*
X023865Y021080D02*
X024041Y021080D01*
X024041Y021336D02*
X023865Y021336D01*
X023865Y021592D02*
X024041Y021592D01*
X024278Y021829D02*
X024278Y022005D01*
X024534Y022005D02*
X024534Y021829D01*
X024790Y021829D02*
X024790Y022005D01*
X025046Y022005D02*
X025046Y021829D01*
X025282Y021592D02*
X025458Y021592D01*
X025458Y021336D02*
X025282Y021336D01*
X025282Y021080D02*
X025458Y021080D01*
X025458Y020824D02*
X025282Y020824D01*
D32*
X024662Y021208D03*
D33*
X024572Y018159D03*
X024572Y017904D03*
X024572Y017648D03*
X024572Y017392D03*
X024572Y017136D03*
X024572Y016880D03*
X024572Y016624D03*
X024572Y016368D03*
X024572Y016112D03*
X024572Y015856D03*
X024572Y013659D03*
X024572Y013404D03*
X024572Y013148D03*
X024572Y012892D03*
X024572Y012636D03*
X024572Y012380D03*
X024572Y012124D03*
X024572Y011868D03*
X024572Y011612D03*
X024572Y011356D03*
X027451Y011356D03*
X027451Y011612D03*
X027451Y011868D03*
X027451Y012124D03*
X027451Y012380D03*
X027451Y012636D03*
X027451Y012892D03*
X027451Y013148D03*
X027451Y013404D03*
X027451Y013659D03*
X027451Y015856D03*
X027451Y016112D03*
X027451Y016368D03*
X027451Y016624D03*
X027451Y016880D03*
X027451Y017136D03*
X027451Y017392D03*
X027451Y017648D03*
X027451Y017904D03*
X027451Y018159D03*
D34*
X007661Y008404D03*
X007661Y008148D03*
X007661Y007892D03*
X007661Y007636D03*
X007661Y007380D03*
X007661Y007124D03*
X007661Y006868D03*
X007661Y006612D03*
X005363Y006612D03*
X005363Y006868D03*
X005363Y007124D03*
X005363Y007380D03*
X005363Y007636D03*
X005363Y007892D03*
X005363Y008148D03*
X005363Y008404D03*
D35*
X005012Y013008D02*
X005012Y015605D01*
X005083Y015677D01*
X005132Y015794D01*
X005132Y015922D01*
X005083Y016039D01*
X005012Y016110D01*
X005012Y022332D01*
X005107Y022427D01*
X005107Y022589D01*
X005107Y022989D01*
X005012Y023084D01*
X005012Y025813D01*
X005943Y025813D01*
X006057Y025927D01*
X006857Y026727D01*
X006857Y026889D01*
X006857Y027008D01*
X008423Y027008D01*
X008488Y026943D01*
X008620Y026888D01*
X008763Y026888D01*
X008896Y026943D01*
X008961Y027008D01*
X008992Y027008D01*
X009088Y026968D01*
X009215Y026968D01*
X009312Y027008D01*
X009737Y027008D01*
X009737Y025219D01*
X009715Y025228D01*
X009588Y025228D01*
X009560Y025216D01*
X009560Y025552D01*
X009466Y025646D01*
X009058Y025646D01*
X009012Y025600D01*
X008966Y025646D01*
X008558Y025646D01*
X008512Y025600D01*
X008466Y025646D01*
X008058Y025646D01*
X008012Y025600D01*
X007966Y025646D01*
X007558Y025646D01*
X007512Y025600D01*
X007466Y025646D01*
X007058Y025646D01*
X007012Y025600D01*
X006966Y025646D01*
X006558Y025646D01*
X006512Y025600D01*
X006466Y025646D01*
X006058Y025646D01*
X006012Y025600D01*
X005966Y025646D01*
X005558Y025646D01*
X005464Y025552D01*
X005464Y024829D01*
X005558Y024735D01*
X005966Y024735D01*
X006012Y024781D01*
X006058Y024735D01*
X006197Y024735D01*
X006197Y023460D01*
X006152Y023352D01*
X006152Y023224D01*
X006201Y023107D01*
X006291Y023017D01*
X006408Y022968D01*
X006535Y022968D01*
X006653Y023017D01*
X006743Y023107D01*
X006792Y023224D01*
X006792Y023352D01*
X006743Y023469D01*
X006653Y023559D01*
X006587Y023587D01*
X006587Y024735D01*
X006966Y024735D01*
X007012Y024781D01*
X007058Y024735D01*
X007197Y024735D01*
X007197Y024587D01*
X007311Y024473D01*
X007473Y024473D01*
X007754Y024473D01*
X007831Y024397D01*
X007948Y024348D01*
X008075Y024348D01*
X008137Y024373D01*
X008137Y023887D01*
X008251Y023773D01*
X008413Y023773D01*
X008494Y023773D01*
X008571Y023697D01*
X008688Y023648D01*
X008815Y023648D01*
X008933Y023697D01*
X009023Y023787D01*
X009072Y023904D01*
X009072Y024032D01*
X009023Y024149D01*
X008933Y024239D01*
X008815Y024288D01*
X008688Y024288D01*
X008571Y024239D01*
X008527Y024195D01*
X008527Y024766D01*
X008558Y024735D01*
X008966Y024735D01*
X009012Y024781D01*
X009058Y024735D01*
X009289Y024735D01*
X009311Y024713D01*
X009394Y024713D01*
X009471Y024637D01*
X009588Y024588D01*
X009715Y024588D01*
X009801Y024623D01*
X009851Y024573D01*
X010013Y024573D01*
X012573Y024573D01*
X012687Y024687D01*
X012713Y024713D01*
X012735Y024735D01*
X012966Y024735D01*
X012967Y024736D01*
X012967Y023839D01*
X012967Y023677D01*
X013317Y023327D01*
X013431Y023213D01*
X014012Y023213D01*
X014012Y019210D01*
X013941Y019139D01*
X013892Y019022D01*
X013892Y018894D01*
X013941Y018777D01*
X014012Y018705D01*
X014012Y014303D01*
X012831Y014303D01*
X012717Y014189D01*
X012717Y014027D01*
X012717Y013008D01*
X012612Y013008D01*
X012612Y013054D01*
X012518Y013148D01*
X011586Y013148D01*
X011492Y013054D01*
X011492Y013008D01*
X011167Y013008D01*
X011167Y013012D01*
X011172Y013024D01*
X011172Y013152D01*
X011167Y013164D01*
X011167Y013169D01*
X011163Y013172D01*
X011123Y013269D01*
X011033Y013359D01*
X010915Y013408D01*
X010788Y013408D01*
X010671Y013359D01*
X010581Y013269D01*
X010532Y013152D01*
X010532Y013024D01*
X010539Y013008D01*
X010122Y013008D01*
X010122Y015754D01*
X010255Y015754D01*
X010299Y015798D01*
X010725Y015798D01*
X010768Y015754D01*
X011255Y015754D01*
X011349Y015848D01*
X011425Y015848D01*
X011599Y015848D01*
X011679Y015928D01*
X011722Y015971D01*
X011722Y016000D01*
X011754Y016053D01*
X011822Y016121D01*
X011822Y016295D01*
X011822Y017345D01*
X011699Y017468D01*
X011525Y017468D01*
X011337Y017468D01*
X011311Y017494D01*
X011369Y017551D01*
X011369Y017764D01*
X011369Y017976D01*
X011264Y018082D01*
X011012Y018082D01*
X011012Y017764D01*
X011012Y017764D01*
X011369Y017764D01*
X011012Y017764D01*
X011012Y017764D01*
X011012Y018082D01*
X010760Y018082D01*
X010655Y017976D01*
X010655Y017764D01*
X011011Y017764D01*
X011011Y017764D01*
X010655Y017764D01*
X010655Y017551D01*
X010712Y017494D01*
X010686Y017468D01*
X010337Y017468D01*
X010311Y017494D01*
X010369Y017551D01*
X010369Y017764D01*
X010369Y017976D01*
X010264Y018082D01*
X010012Y018082D01*
X010012Y017764D01*
X010012Y017764D01*
X010369Y017764D01*
X010012Y017764D01*
X010012Y017764D01*
X010012Y018082D01*
X009760Y018082D01*
X009655Y017976D01*
X009655Y017764D01*
X010011Y017764D01*
X010011Y017764D01*
X009655Y017764D01*
X009655Y017551D01*
X009712Y017494D01*
X009686Y017468D01*
X009369Y017468D01*
X009369Y017595D01*
X009369Y018093D01*
X009423Y018093D01*
X009516Y018187D01*
X009516Y018949D01*
X009423Y019043D01*
X008896Y019043D01*
X008803Y018949D01*
X008803Y018187D01*
X008896Y018093D01*
X008949Y018093D01*
X008949Y017908D01*
X008550Y017908D01*
X008457Y017815D01*
X008457Y017174D01*
X008437Y017154D01*
X008437Y016871D01*
X008864Y016871D01*
X008864Y016775D01*
X008960Y016775D01*
X008960Y016871D01*
X009387Y016871D01*
X009387Y017048D01*
X009675Y017048D01*
X009768Y016954D01*
X010255Y016954D01*
X010349Y017048D01*
X010675Y017048D01*
X010768Y016954D01*
X011255Y016954D01*
X011349Y017048D01*
X011402Y017048D01*
X011402Y016295D01*
X011377Y016270D01*
X011377Y016268D01*
X011337Y016268D01*
X011311Y016294D01*
X011369Y016351D01*
X011369Y016564D01*
X011369Y016776D01*
X011264Y016882D01*
X011012Y016882D01*
X011012Y016564D01*
X011012Y016564D01*
X011369Y016564D01*
X011012Y016564D01*
X011012Y016564D01*
X011012Y016882D01*
X010760Y016882D01*
X010655Y016776D01*
X010655Y016564D01*
X011011Y016564D01*
X011011Y016564D01*
X010655Y016564D01*
X010655Y016351D01*
X010712Y016294D01*
X010675Y016256D01*
X010675Y016218D01*
X010349Y016218D01*
X010349Y016256D01*
X010311Y016294D01*
X010369Y016351D01*
X010369Y016564D01*
X010369Y016776D01*
X010264Y016882D01*
X010012Y016882D01*
X010012Y016564D01*
X010012Y016564D01*
X010369Y016564D01*
X010012Y016564D01*
X010012Y016564D01*
X010012Y016882D01*
X009760Y016882D01*
X009655Y016776D01*
X009655Y016564D01*
X010011Y016564D01*
X010011Y016564D01*
X009655Y016564D01*
X009655Y016351D01*
X009712Y016294D01*
X009675Y016256D01*
X009675Y015848D01*
X009702Y015821D01*
X009702Y013008D01*
X005012Y013008D01*
X005012Y013057D02*
X009702Y013057D01*
X009702Y013216D02*
X005012Y013216D01*
X005012Y013374D02*
X009702Y013374D01*
X009702Y013533D02*
X005012Y013533D01*
X005012Y013691D02*
X009702Y013691D01*
X009702Y013850D02*
X005012Y013850D01*
X005012Y014008D02*
X009702Y014008D01*
X009702Y014167D02*
X005012Y014167D01*
X005012Y014326D02*
X009702Y014326D01*
X009702Y014484D02*
X005012Y014484D01*
X005012Y014643D02*
X009702Y014643D01*
X009702Y014801D02*
X005012Y014801D01*
X005012Y014960D02*
X009702Y014960D01*
X009702Y015118D02*
X005012Y015118D01*
X005012Y015277D02*
X009702Y015277D01*
X009702Y015435D02*
X005012Y015435D01*
X005012Y015594D02*
X009702Y015594D01*
X009702Y015752D02*
X005114Y015752D01*
X005132Y015911D02*
X009675Y015911D01*
X009675Y016069D02*
X005053Y016069D01*
X005012Y016228D02*
X007127Y016228D01*
X007127Y016217D02*
X007233Y016112D01*
X007584Y016112D01*
X007584Y016529D01*
X007127Y016529D01*
X007127Y016217D01*
X007127Y016387D02*
X005012Y016387D01*
X005012Y016545D02*
X007584Y016545D01*
X007584Y016529D02*
X007584Y016684D01*
X007127Y016684D01*
X007127Y016996D01*
X007233Y017102D01*
X007584Y017102D01*
X007584Y016684D01*
X007739Y016684D01*
X007739Y017102D01*
X008091Y017102D01*
X008196Y016996D01*
X008196Y016684D01*
X007740Y016684D01*
X007740Y016529D01*
X008196Y016529D01*
X008196Y016217D01*
X008091Y016112D01*
X007739Y016112D01*
X007739Y016529D01*
X007584Y016529D01*
X007584Y016387D02*
X007739Y016387D01*
X007740Y016545D02*
X008437Y016545D01*
X008437Y016493D02*
X008437Y016775D01*
X008864Y016775D01*
X008864Y016387D01*
X008542Y016387D01*
X008437Y016493D01*
X008437Y016704D02*
X008196Y016704D01*
X008196Y016862D02*
X008864Y016862D01*
X008960Y016862D02*
X009741Y016862D01*
X009702Y017021D02*
X009387Y017021D01*
X009387Y016775D02*
X008960Y016775D01*
X008960Y016387D01*
X009282Y016387D01*
X009387Y016493D01*
X009387Y016775D01*
X009387Y016704D02*
X009655Y016704D01*
X009655Y016545D02*
X009387Y016545D01*
X009655Y016387D02*
X008196Y016387D01*
X008196Y016228D02*
X009675Y016228D01*
X010012Y016704D02*
X010012Y016704D01*
X010012Y016862D02*
X010012Y016862D01*
X010283Y016862D02*
X010741Y016862D01*
X010702Y017021D02*
X010322Y017021D01*
X010369Y016704D02*
X010655Y016704D01*
X010655Y016545D02*
X010369Y016545D01*
X010369Y016387D02*
X010655Y016387D01*
X010675Y016228D02*
X010349Y016228D01*
X010122Y015752D02*
X014012Y015752D01*
X014012Y015594D02*
X010122Y015594D01*
X010122Y015435D02*
X014012Y015435D01*
X014012Y015277D02*
X010122Y015277D01*
X010122Y015118D02*
X014012Y015118D01*
X014012Y014960D02*
X010122Y014960D01*
X010122Y014801D02*
X014012Y014801D01*
X014012Y014643D02*
X010122Y014643D01*
X010122Y014484D02*
X014012Y014484D01*
X014012Y014326D02*
X010122Y014326D01*
X010122Y014167D02*
X012717Y014167D01*
X012717Y014008D02*
X010122Y014008D01*
X010122Y013850D02*
X012717Y013850D01*
X012717Y013691D02*
X010122Y013691D01*
X010122Y013533D02*
X012717Y013533D01*
X012717Y013374D02*
X010997Y013374D01*
X011145Y013216D02*
X012717Y013216D01*
X012717Y013057D02*
X012609Y013057D01*
X011495Y013057D02*
X011172Y013057D01*
X010707Y013374D02*
X010122Y013374D01*
X010122Y013216D02*
X010558Y013216D01*
X010532Y013057D02*
X010122Y013057D01*
X011662Y015911D02*
X014012Y015911D01*
X014012Y016069D02*
X011770Y016069D01*
X011822Y016228D02*
X014012Y016228D01*
X014012Y016387D02*
X011822Y016387D01*
X011822Y016545D02*
X014012Y016545D01*
X014012Y016704D02*
X011822Y016704D01*
X011822Y016862D02*
X014012Y016862D01*
X014012Y017021D02*
X011822Y017021D01*
X011822Y017179D02*
X014012Y017179D01*
X014012Y017338D02*
X011822Y017338D01*
X011402Y017021D02*
X011322Y017021D01*
X011283Y016862D02*
X011402Y016862D01*
X011402Y016704D02*
X011369Y016704D01*
X011369Y016545D02*
X011402Y016545D01*
X011402Y016387D02*
X011369Y016387D01*
X011012Y016704D02*
X011012Y016704D01*
X011012Y016862D02*
X011012Y016862D01*
X011314Y017496D02*
X014012Y017496D01*
X014012Y017655D02*
X011369Y017655D01*
X011369Y017813D02*
X014012Y017813D01*
X014012Y017972D02*
X011369Y017972D01*
X011012Y017972D02*
X011012Y017972D01*
X011012Y017813D02*
X011012Y017813D01*
X010655Y017813D02*
X010369Y017813D01*
X010369Y017655D02*
X010655Y017655D01*
X010710Y017496D02*
X010314Y017496D01*
X010012Y017813D02*
X010012Y017813D01*
X010012Y017972D02*
X010012Y017972D01*
X010369Y017972D02*
X010655Y017972D01*
X009655Y017972D02*
X009369Y017972D01*
X009369Y017813D02*
X009655Y017813D01*
X009655Y017655D02*
X009369Y017655D01*
X009369Y017496D02*
X009710Y017496D01*
X009460Y018131D02*
X014012Y018131D01*
X014012Y018289D02*
X009516Y018289D01*
X009516Y018448D02*
X014012Y018448D01*
X014012Y018606D02*
X009516Y018606D01*
X009516Y018765D02*
X013952Y018765D01*
X013892Y018923D02*
X009516Y018923D01*
X008803Y018923D02*
X007721Y018923D01*
X007721Y018949D02*
X007627Y019043D01*
X007572Y019043D01*
X007572Y019059D01*
X007667Y019154D01*
X007722Y019286D01*
X007722Y019429D01*
X007667Y019562D01*
X007566Y019663D01*
X007433Y019718D01*
X007290Y019718D01*
X007158Y019663D01*
X007057Y019562D01*
X007002Y019429D01*
X007002Y019286D01*
X007057Y019154D01*
X007152Y019059D01*
X007152Y019043D01*
X007101Y019043D01*
X007007Y018949D01*
X007007Y018187D01*
X007101Y018093D01*
X007150Y018093D01*
X007147Y018090D01*
X007147Y017328D01*
X007241Y017234D01*
X008082Y017234D01*
X008176Y017328D01*
X008176Y018090D01*
X008082Y018184D01*
X007718Y018184D01*
X007721Y018187D01*
X007721Y018949D01*
X007595Y019082D02*
X013917Y019082D01*
X014012Y019240D02*
X007703Y019240D01*
X007722Y019399D02*
X014012Y019399D01*
X014012Y019557D02*
X007669Y019557D01*
X007438Y019716D02*
X014012Y019716D01*
X014012Y019875D02*
X005012Y019875D01*
X005012Y020033D02*
X014012Y020033D01*
X014012Y020192D02*
X009505Y020192D01*
X009505Y020147D02*
X009505Y021362D01*
X008342Y021362D01*
X008342Y021522D01*
X009505Y021522D01*
X009505Y022737D01*
X009399Y022843D01*
X008342Y022843D01*
X008342Y021522D01*
X008182Y021522D01*
X008182Y022843D01*
X007124Y022843D01*
X007019Y022737D01*
X007019Y021522D01*
X008182Y021522D01*
X008182Y021362D01*
X008342Y021362D01*
X008342Y020042D01*
X009399Y020042D01*
X009505Y020147D01*
X009505Y020350D02*
X014012Y020350D01*
X014012Y020509D02*
X009505Y020509D01*
X009505Y020667D02*
X014012Y020667D01*
X014012Y020826D02*
X009505Y020826D01*
X009505Y020984D02*
X014012Y020984D01*
X014012Y021143D02*
X009505Y021143D01*
X009505Y021301D02*
X014012Y021301D01*
X014012Y021460D02*
X008342Y021460D01*
X008342Y021619D02*
X008182Y021619D01*
X008182Y021777D02*
X008342Y021777D01*
X008342Y021936D02*
X008182Y021936D01*
X008182Y022094D02*
X008342Y022094D01*
X008342Y022253D02*
X008182Y022253D01*
X008182Y022411D02*
X008342Y022411D01*
X008342Y022570D02*
X008182Y022570D01*
X008182Y022728D02*
X008342Y022728D01*
X008612Y023680D02*
X006587Y023680D01*
X006587Y023838D02*
X008186Y023838D01*
X008137Y023997D02*
X006587Y023997D01*
X006587Y024155D02*
X008137Y024155D01*
X008137Y024314D02*
X006587Y024314D01*
X006587Y024472D02*
X007755Y024472D01*
X007197Y024631D02*
X006587Y024631D01*
X006197Y024631D02*
X005012Y024631D01*
X005012Y024789D02*
X005504Y024789D01*
X005464Y024948D02*
X005012Y024948D01*
X005012Y025106D02*
X005464Y025106D01*
X005464Y025265D02*
X005012Y025265D01*
X005012Y025424D02*
X005464Y025424D01*
X005494Y025582D02*
X005012Y025582D01*
X005012Y025741D02*
X009737Y025741D01*
X009737Y025899D02*
X006029Y025899D01*
X006187Y026058D02*
X009737Y026058D01*
X009737Y026216D02*
X006346Y026216D01*
X006504Y026375D02*
X009737Y026375D01*
X009737Y026533D02*
X006663Y026533D01*
X006822Y026692D02*
X009737Y026692D01*
X009737Y026850D02*
X006857Y026850D01*
X008527Y024631D02*
X009484Y024631D01*
X009560Y025265D02*
X009737Y025265D01*
X009737Y025424D02*
X009560Y025424D01*
X009530Y025582D02*
X009737Y025582D01*
X008527Y024472D02*
X012967Y024472D01*
X012967Y024314D02*
X008527Y024314D01*
X009017Y024155D02*
X012967Y024155D01*
X012967Y023997D02*
X009072Y023997D01*
X009044Y023838D02*
X012967Y023838D01*
X012967Y023680D02*
X008892Y023680D01*
X009812Y023108D02*
X009812Y019758D01*
X006762Y019758D01*
X006762Y023108D01*
X009812Y023108D01*
X009812Y023045D02*
X006762Y023045D01*
X006682Y023045D02*
X014012Y023045D01*
X014012Y022887D02*
X005107Y022887D01*
X005107Y022728D02*
X007019Y022728D01*
X007019Y022570D02*
X005107Y022570D01*
X005091Y022411D02*
X007019Y022411D01*
X007019Y022253D02*
X005012Y022253D01*
X005012Y022094D02*
X007019Y022094D01*
X007019Y021936D02*
X005012Y021936D01*
X005012Y021777D02*
X007019Y021777D01*
X007019Y021619D02*
X005012Y021619D01*
X005012Y021460D02*
X008182Y021460D01*
X008182Y021362D02*
X007019Y021362D01*
X007019Y020147D01*
X007124Y020042D01*
X008182Y020042D01*
X008182Y021362D01*
X008182Y021301D02*
X008342Y021301D01*
X008342Y021143D02*
X008182Y021143D01*
X008182Y020984D02*
X008342Y020984D01*
X008342Y020826D02*
X008182Y020826D01*
X008182Y020667D02*
X008342Y020667D01*
X008342Y020509D02*
X008182Y020509D01*
X008182Y020350D02*
X008342Y020350D01*
X008342Y020192D02*
X008182Y020192D01*
X007286Y019716D02*
X005012Y019716D01*
X005012Y019557D02*
X007055Y019557D01*
X007002Y019399D02*
X005012Y019399D01*
X005012Y019240D02*
X007021Y019240D01*
X007129Y019082D02*
X005012Y019082D01*
X005012Y018923D02*
X007007Y018923D01*
X007007Y018765D02*
X005012Y018765D01*
X005012Y018606D02*
X007007Y018606D01*
X007007Y018448D02*
X005012Y018448D01*
X005012Y018289D02*
X007007Y018289D01*
X007064Y018131D02*
X005012Y018131D01*
X005012Y017972D02*
X007147Y017972D01*
X007147Y017813D02*
X005012Y017813D01*
X005012Y017655D02*
X007147Y017655D01*
X007147Y017496D02*
X005012Y017496D01*
X005012Y017338D02*
X007147Y017338D01*
X007152Y017021D02*
X005012Y017021D01*
X005012Y017179D02*
X008457Y017179D01*
X008457Y017338D02*
X008176Y017338D01*
X008176Y017496D02*
X008457Y017496D01*
X008457Y017655D02*
X008176Y017655D01*
X008176Y017813D02*
X008457Y017813D01*
X008176Y017972D02*
X008949Y017972D01*
X008859Y018131D02*
X008136Y018131D01*
X007721Y018289D02*
X008803Y018289D01*
X008803Y018448D02*
X007721Y018448D01*
X007721Y018606D02*
X008803Y018606D01*
X008803Y018765D02*
X007721Y018765D01*
X006762Y019875D02*
X009812Y019875D01*
X009812Y020033D02*
X006762Y020033D01*
X006762Y020192D02*
X009812Y020192D01*
X009812Y020350D02*
X006762Y020350D01*
X006762Y020509D02*
X009812Y020509D01*
X009812Y020667D02*
X006762Y020667D01*
X006762Y020826D02*
X009812Y020826D01*
X009812Y020984D02*
X006762Y020984D01*
X006762Y021143D02*
X009812Y021143D01*
X009812Y021301D02*
X006762Y021301D01*
X006762Y021460D02*
X009812Y021460D01*
X009812Y021619D02*
X006762Y021619D01*
X006762Y021777D02*
X009812Y021777D01*
X009812Y021936D02*
X006762Y021936D01*
X006762Y022094D02*
X009812Y022094D01*
X009812Y022253D02*
X006762Y022253D01*
X006762Y022411D02*
X009812Y022411D01*
X009812Y022570D02*
X006762Y022570D01*
X006762Y022728D02*
X009812Y022728D01*
X009812Y022887D02*
X006762Y022887D01*
X006783Y023204D02*
X014012Y023204D01*
X014012Y022728D02*
X009505Y022728D01*
X009505Y022570D02*
X014012Y022570D01*
X014012Y022411D02*
X009505Y022411D01*
X009505Y022253D02*
X014012Y022253D01*
X014012Y022094D02*
X009505Y022094D01*
X009505Y021936D02*
X014012Y021936D01*
X014012Y021777D02*
X009505Y021777D01*
X009505Y021619D02*
X014012Y021619D01*
X013281Y023362D02*
X006787Y023362D01*
X006691Y023521D02*
X013123Y023521D01*
X012967Y024631D02*
X012631Y024631D01*
X007019Y021301D02*
X005012Y021301D01*
X005012Y021143D02*
X007019Y021143D01*
X007019Y020984D02*
X005012Y020984D01*
X005012Y020826D02*
X007019Y020826D01*
X007019Y020667D02*
X005012Y020667D01*
X005012Y020509D02*
X007019Y020509D01*
X007019Y020350D02*
X005012Y020350D01*
X005012Y020192D02*
X007019Y020192D01*
X006262Y023045D02*
X005050Y023045D01*
X005012Y023204D02*
X006160Y023204D01*
X006156Y023362D02*
X005012Y023362D01*
X005012Y023521D02*
X006197Y023521D01*
X006197Y023680D02*
X005012Y023680D01*
X005012Y023838D02*
X006197Y023838D01*
X006197Y023997D02*
X005012Y023997D01*
X005012Y024155D02*
X006197Y024155D01*
X006197Y024314D02*
X005012Y024314D01*
X005012Y024472D02*
X006197Y024472D01*
X007584Y017021D02*
X007739Y017021D01*
X007739Y016862D02*
X007584Y016862D01*
X007584Y016704D02*
X007739Y016704D01*
X007739Y016228D02*
X007584Y016228D01*
X007127Y016704D02*
X005012Y016704D01*
X005012Y016862D02*
X007127Y016862D01*
X008172Y017021D02*
X008437Y017021D01*
X008864Y016704D02*
X008960Y016704D01*
X008960Y016545D02*
X008864Y016545D01*
X011679Y015928D02*
X011679Y015928D01*
X013857Y013663D02*
X014012Y013663D01*
X014012Y013168D01*
X013997Y013168D01*
X013892Y013062D01*
X013892Y013008D01*
X014312Y013008D01*
X014312Y013408D01*
X014012Y013374D02*
X013857Y013374D01*
X013857Y013216D02*
X014012Y013216D01*
X013892Y013057D02*
X013857Y013057D01*
X013857Y013008D02*
X013857Y013663D01*
X013857Y013533D02*
X014012Y013533D01*
X013892Y013008D02*
X013857Y013008D01*
X031212Y019577D02*
X031212Y020438D01*
X031446Y020438D01*
X031498Y020490D01*
X031569Y020418D01*
X031762Y020418D01*
X031954Y020418D01*
X032012Y020476D01*
X032069Y020418D01*
X032262Y020418D01*
X032454Y020418D01*
X032526Y020490D01*
X032577Y020438D01*
X032862Y020438D01*
X032862Y019577D01*
X032577Y019577D01*
X032526Y019526D01*
X032454Y019597D01*
X032262Y019597D01*
X032262Y018985D01*
X032262Y018985D01*
X032262Y019597D01*
X032069Y019597D01*
X032012Y019540D01*
X031954Y019597D01*
X031762Y019597D01*
X031762Y018985D01*
X031762Y018985D01*
X031762Y019597D01*
X031569Y019597D01*
X031498Y019526D01*
X031446Y019577D01*
X031212Y019577D01*
X031212Y019716D02*
X032862Y019716D01*
X032862Y019875D02*
X031212Y019875D01*
X031212Y020033D02*
X032862Y020033D01*
X032862Y020192D02*
X031212Y020192D01*
X031212Y020350D02*
X032862Y020350D01*
X032262Y020418D02*
X032262Y021031D01*
X032262Y021031D01*
X032262Y020418D01*
X032262Y020509D02*
X032262Y020509D01*
X032262Y020667D02*
X032262Y020667D01*
X032262Y020826D02*
X032262Y020826D01*
X032262Y020984D02*
X032262Y020984D01*
X032261Y021031D02*
X031964Y021031D01*
X031762Y021031D01*
X031762Y020418D01*
X031762Y021031D01*
X031762Y021031D01*
X031762Y021032D01*
X031964Y021032D01*
X032261Y021032D01*
X032261Y021031D01*
X031762Y020984D02*
X031762Y020984D01*
X031762Y020826D02*
X031762Y020826D01*
X031762Y020667D02*
X031762Y020667D01*
X031762Y020509D02*
X031762Y020509D01*
X031762Y019557D02*
X031762Y019557D01*
X031762Y019399D02*
X031762Y019399D01*
X031762Y019240D02*
X031762Y019240D01*
X031762Y019082D02*
X031762Y019082D01*
X031762Y018984D02*
X031964Y018984D01*
X032261Y018984D01*
X032261Y018984D01*
X031964Y018984D01*
X031762Y018984D01*
X031762Y018984D01*
X032262Y019082D02*
X032262Y019082D01*
X032262Y019240D02*
X032262Y019240D01*
X032262Y019399D02*
X032262Y019399D01*
X032262Y019557D02*
X032262Y019557D01*
X032494Y019557D02*
X032558Y019557D01*
X032029Y019557D02*
X031994Y019557D01*
X031529Y019557D02*
X031466Y019557D01*
D36*
X006312Y002058D02*
X006062Y002308D01*
X006062Y002958D01*
X006362Y003258D01*
X006512Y003508D01*
X006362Y003758D01*
X006362Y005708D01*
X005512Y006558D01*
X005363Y006612D01*
X005212Y006658D01*
X004812Y006658D01*
X004362Y007108D01*
X003412Y007108D01*
X003062Y007458D01*
X003062Y009008D01*
X002662Y009408D01*
X002512Y009658D01*
X005363Y006868D02*
X005512Y006858D01*
X005862Y006858D01*
X009362Y009158D02*
X009362Y013008D01*
X010162Y013008D02*
X010162Y009858D01*
X010168Y009708D01*
X009912Y010008D02*
X009762Y009858D01*
X009656Y009708D01*
X009762Y009558D01*
X009962Y009358D01*
X010512Y009358D01*
X010512Y007458D01*
X010112Y007058D01*
X009862Y006843D01*
X010112Y006608D01*
X010312Y006608D01*
X010312Y005658D01*
X011612Y005258D02*
X012194Y005258D01*
X012472Y005388D01*
X012632Y005548D01*
X012632Y005968D01*
X012472Y006128D01*
X012194Y006258D01*
X010312Y008008D02*
X010312Y008758D01*
X009912Y009158D01*
X009362Y009158D01*
X009912Y010008D02*
X009912Y015958D01*
X010012Y016052D01*
X010162Y016008D01*
X010862Y016008D01*
X011012Y016052D01*
X011112Y016058D01*
X011512Y016058D01*
X011587Y016183D01*
X011612Y016208D01*
X011612Y017258D01*
X011162Y017258D01*
X011012Y017252D01*
X010862Y017258D01*
X010162Y017258D01*
X010012Y017252D01*
X009862Y017258D01*
X009162Y017258D01*
X008912Y017493D01*
X008912Y017508D01*
X009159Y017508D01*
X009159Y018568D01*
X007662Y017709D02*
X007372Y018008D01*
X007372Y018268D01*
X007364Y018568D01*
X007362Y018858D01*
X007362Y019358D01*
X013752Y023988D02*
X015032Y023988D01*
X015032Y021708D01*
X016352Y020388D01*
X016512Y020252D01*
X016512Y019808D01*
X016891Y019429D01*
X016900Y019429D01*
X016872Y019208D01*
X016872Y018908D01*
X017215Y019429D02*
X017152Y019648D01*
X017152Y019988D01*
X017092Y020048D01*
X017052Y020028D01*
X016992Y019968D01*
X016992Y019948D01*
X017092Y020048D02*
X017092Y020768D01*
X016672Y020768D01*
X016512Y020764D01*
X017092Y020768D02*
X017252Y020768D01*
X017412Y020764D01*
X019832Y020408D02*
X020256Y020408D01*
X020292Y020248D01*
X020292Y019648D01*
X020364Y019429D01*
X020679Y019429D02*
X020712Y019658D01*
X020712Y020258D01*
X020768Y020408D01*
X020662Y020558D01*
X020662Y020808D01*
X019962Y021508D01*
X019872Y022948D02*
X019192Y022948D01*
X018912Y022943D01*
X018632Y022948D01*
X017892Y022948D01*
X017612Y022943D01*
X015662Y024308D02*
X015662Y026958D01*
X015862Y027158D01*
X016012Y027264D01*
X015852Y027388D01*
X015852Y028268D01*
X014032Y028268D01*
X012672Y029628D01*
X012512Y029752D01*
X012512Y030264D02*
X012672Y030268D01*
X013732Y030268D01*
X014012Y030393D01*
X014292Y030348D01*
X014932Y030348D01*
X015212Y030343D01*
X015492Y030348D01*
X015812Y030348D01*
X016132Y030348D01*
X016412Y030343D01*
X017612Y030343D02*
X017892Y030348D01*
X018532Y030348D01*
X018812Y030343D01*
X019092Y030348D01*
X019772Y030348D01*
X020062Y030343D01*
X020352Y030588D01*
X020372Y030608D01*
X020372Y031308D01*
X020512Y032008D01*
X020352Y030348D02*
X020062Y030343D01*
X020352Y030348D02*
X020972Y030348D01*
X021262Y030343D01*
X021552Y030148D01*
X021692Y030008D01*
X021692Y029048D01*
X022632Y028108D01*
X022762Y027825D01*
X022632Y027548D01*
X020872Y025788D01*
X020872Y025688D01*
X020762Y025298D01*
X020652Y025308D01*
X020372Y025308D01*
X020262Y025298D01*
X020152Y025308D01*
X019872Y025308D01*
X019762Y025298D01*
X019872Y024908D01*
X019872Y023188D01*
X020162Y022943D01*
X019872Y022948D01*
X023472Y022208D02*
X023472Y020148D01*
X024132Y019488D01*
X024132Y019168D01*
X024256Y019008D01*
X024256Y018864D01*
X024572Y018547D01*
X024572Y018159D01*
X024832Y018168D01*
X025472Y017528D01*
X025472Y017368D01*
X025862Y016978D01*
X025552Y016668D01*
X025632Y016488D01*
X025632Y011988D01*
X024882Y011238D01*
X024832Y011288D01*
X024572Y011356D01*
X024882Y011238D02*
X026012Y010108D01*
X026052Y010128D01*
X027352Y010128D01*
X028352Y011128D01*
X028512Y011264D01*
X029032Y011264D01*
X029032Y008788D01*
X031572Y008788D01*
X032012Y009228D01*
X032012Y010688D01*
X033852Y012528D01*
X034012Y012664D01*
X034162Y012258D02*
X034012Y012152D01*
X034162Y012258D02*
X034962Y013058D01*
X035212Y013008D01*
X032672Y011988D02*
X032672Y014328D01*
X032172Y014828D01*
X032012Y014764D01*
X031852Y014768D01*
X031172Y014768D01*
X031012Y014764D01*
X031012Y016208D01*
X030212Y014758D02*
X030012Y014758D01*
X030012Y014764D01*
X030212Y014758D02*
X030412Y014558D01*
X030412Y013908D01*
X030697Y013123D01*
X030697Y012903D01*
X030412Y012908D02*
X030012Y013808D01*
X030012Y014252D01*
X031012Y014252D02*
X031012Y012903D01*
X031327Y012903D02*
X031327Y013873D01*
X031537Y014083D01*
X031512Y014108D01*
X031512Y014158D01*
X031537Y014083D02*
X031712Y014258D01*
X032012Y014258D01*
X032012Y014252D01*
X031672Y013668D02*
X031672Y012988D01*
X031642Y012903D01*
X031732Y012848D01*
X031892Y012688D01*
X031892Y012668D01*
X031957Y012588D01*
X031952Y012508D01*
X031952Y012368D01*
X031957Y012273D01*
X031972Y012188D01*
X031972Y012048D01*
X031957Y011958D01*
X032052Y011368D02*
X031957Y011328D01*
X031892Y011248D01*
X031892Y011228D01*
X031802Y011138D01*
X031832Y011108D01*
X031832Y009548D01*
X031672Y009388D01*
X031512Y009252D01*
X031512Y009708D02*
X031012Y010208D01*
X031012Y011013D01*
X030697Y011013D02*
X030697Y009943D01*
X030512Y009758D01*
X030512Y009764D01*
X030512Y009252D02*
X030018Y009252D01*
X030012Y009258D01*
X029512Y009258D01*
X029512Y009252D01*
X030012Y009258D02*
X030012Y010008D01*
X030382Y010378D01*
X030382Y011013D01*
X030067Y011643D02*
X030067Y011653D01*
X030062Y011658D01*
X029812Y011658D01*
X029418Y011264D01*
X029032Y011264D01*
X028512Y010752D02*
X028352Y010628D01*
X027832Y010108D01*
X027832Y008048D01*
X027672Y007888D01*
X027512Y007752D01*
X027672Y007628D01*
X027672Y007048D01*
X027932Y006788D01*
X028177Y006508D01*
X028192Y006228D01*
X028192Y005288D01*
X028177Y005008D01*
X026512Y006568D02*
X026612Y006984D01*
X026712Y007408D01*
X026712Y007628D01*
X027352Y007628D01*
X027512Y007752D01*
X027512Y008258D02*
X026462Y008258D01*
X026112Y008608D01*
X026112Y009031D01*
X026012Y008648D01*
X024852Y007488D01*
X024852Y005568D01*
X023372Y004088D01*
X024512Y003508D02*
X024652Y003788D01*
X024652Y004708D01*
X026512Y006568D01*
X025612Y006984D02*
X025562Y007408D01*
X025562Y007708D01*
X024362Y007608D02*
X024062Y007608D01*
X023712Y007307D01*
X023712Y008409D02*
X024052Y008408D01*
X024352Y008408D01*
X026112Y009031D02*
X026012Y009448D01*
X026012Y010108D01*
X027512Y008264D02*
X027512Y008258D01*
X031512Y009708D02*
X031512Y009764D01*
X031642Y011013D02*
X031732Y011068D01*
X031802Y011138D01*
X032052Y011368D02*
X032672Y011988D01*
X030412Y012908D02*
X030407Y012903D01*
X030382Y012903D01*
X030067Y012273D02*
X030067Y012263D01*
X030062Y012258D01*
X030056Y012264D01*
X029762Y012258D01*
X029556Y012464D01*
X028512Y012464D01*
X028512Y011958D02*
X030067Y011958D01*
X028512Y011952D02*
X028512Y011958D01*
X028012Y013408D02*
X027712Y013408D01*
X027451Y013404D01*
X027451Y013659D02*
X027192Y013728D01*
X027032Y013888D01*
X027032Y015808D01*
X025862Y016978D01*
X025132Y017388D02*
X024832Y017388D01*
X024572Y017392D01*
X024572Y017448D01*
X024572Y017588D01*
X024572Y017648D01*
X024572Y017904D02*
X024562Y017958D01*
X024562Y018108D01*
X024572Y018159D01*
X024832Y018228D01*
X025932Y019328D01*
X025972Y019308D01*
X025992Y019288D01*
X025932Y019328D02*
X025932Y022148D01*
X026132Y022348D01*
X026256Y022508D01*
X026768Y022508D02*
X026762Y022358D01*
X026762Y021908D01*
X026768Y021758D01*
X026762Y021608D01*
X026762Y021158D01*
X026768Y021008D01*
X026932Y021008D01*
X026962Y020989D01*
X026962Y021739D02*
X026932Y021768D01*
X026892Y021768D01*
X026768Y021758D01*
X026768Y022508D02*
X026932Y022508D01*
X028962Y022508D01*
X028962Y022490D02*
X037062Y022490D01*
X037062Y022392D02*
X028962Y022392D01*
X028962Y022293D02*
X037062Y022293D01*
X037062Y022195D02*
X028962Y022195D01*
X028962Y022096D02*
X037062Y022096D01*
X037062Y021998D02*
X030226Y021998D01*
X030246Y021978D02*
X030170Y022054D01*
X029354Y022054D01*
X029277Y021978D01*
X029277Y021788D01*
X028962Y021788D01*
X028962Y023658D01*
X030067Y023658D01*
X030067Y023433D01*
X029917Y023433D01*
X029841Y023357D01*
X029841Y022659D01*
X029917Y022583D01*
X030537Y022583D01*
X030562Y022608D01*
X030587Y022583D01*
X031206Y022583D01*
X031282Y022659D01*
X031282Y023218D01*
X031377Y023218D01*
X031499Y023268D01*
X031592Y023361D01*
X031642Y023482D01*
X031642Y023614D01*
X031623Y023658D01*
X037062Y023658D01*
X037062Y016208D01*
X036620Y016208D01*
X036390Y016438D01*
X036034Y016438D01*
X035804Y016208D01*
X035620Y016208D01*
X035390Y016438D01*
X035034Y016438D01*
X034804Y016208D01*
X028962Y016208D01*
X028872Y016208D01*
X028872Y015828D01*
X028868Y015658D01*
X028356Y015658D02*
X028232Y015488D01*
X028192Y015448D01*
X028192Y014068D01*
X027852Y013728D01*
X027712Y013728D01*
X027451Y013659D01*
X024768Y014508D02*
X024752Y014668D01*
X024752Y014968D01*
X024312Y014658D02*
X024256Y014508D01*
X024256Y014364D01*
X024572Y014047D01*
X024572Y013659D01*
X024562Y013608D01*
X024562Y013458D01*
X024572Y013404D01*
X024572Y013148D02*
X024572Y013088D01*
X024572Y012948D01*
X024572Y012892D01*
X024312Y012888D01*
X024012Y012888D01*
X024312Y014658D02*
X024312Y015488D01*
X024352Y015488D01*
X024312Y015488D02*
X024312Y015808D01*
X024572Y015856D01*
X027352Y018228D02*
X027451Y018159D01*
X027352Y018228D02*
X027352Y018528D01*
X027451Y017904D02*
X027712Y017908D01*
X028962Y017908D01*
X028962Y017859D02*
X034782Y017859D01*
X034782Y017830D02*
X034782Y018186D01*
X035034Y018438D01*
X035390Y018438D01*
X035642Y018186D01*
X035642Y017830D01*
X035390Y017578D01*
X035034Y017578D01*
X034782Y017830D01*
X034851Y017760D02*
X028962Y017760D01*
X028962Y017662D02*
X034950Y017662D01*
X035025Y017458D02*
X034762Y017194D01*
X034762Y017058D01*
X035162Y017058D01*
X035162Y017458D01*
X035025Y017458D01*
X034934Y017366D02*
X028962Y017366D01*
X028962Y017268D02*
X034835Y017268D01*
X034762Y017169D02*
X028962Y017169D01*
X028962Y017070D02*
X034762Y017070D01*
X034762Y016958D02*
X034762Y016821D01*
X035025Y016558D01*
X035162Y016558D01*
X035162Y016958D01*
X035262Y016958D01*
X035262Y017058D01*
X035662Y017058D01*
X035662Y017194D01*
X035398Y017458D01*
X035262Y017458D01*
X035262Y017058D01*
X035162Y017058D01*
X035162Y016958D01*
X034762Y016958D01*
X034762Y016873D02*
X028962Y016873D01*
X028962Y016775D02*
X034808Y016775D01*
X034907Y016676D02*
X028962Y016676D01*
X028962Y016578D02*
X035006Y016578D01*
X035162Y016578D02*
X035262Y016578D01*
X035262Y016558D02*
X035398Y016558D01*
X035662Y016821D01*
X035662Y016958D01*
X035262Y016958D01*
X035262Y016558D01*
X035262Y016676D02*
X035162Y016676D01*
X035162Y016775D02*
X035262Y016775D01*
X035262Y016873D02*
X035162Y016873D01*
X035162Y016972D02*
X028962Y016972D01*
X028962Y017465D02*
X037062Y017465D01*
X037062Y017563D02*
X028962Y017563D01*
X028962Y017957D02*
X034782Y017957D01*
X034782Y018056D02*
X028962Y018056D01*
X028962Y018154D02*
X029277Y018154D01*
X029277Y018138D02*
X029354Y018062D01*
X030170Y018062D01*
X030246Y018138D01*
X030246Y018503D01*
X030587Y018503D01*
X030668Y018422D01*
X030774Y018378D01*
X030889Y018378D01*
X030996Y018422D01*
X031043Y018469D01*
X031090Y018421D01*
X031434Y018421D01*
X031498Y018485D01*
X031582Y018401D01*
X031753Y018401D01*
X031753Y018975D01*
X031771Y018975D01*
X031771Y018401D01*
X031942Y018401D01*
X032012Y018471D01*
X032082Y018401D01*
X032253Y018401D01*
X032253Y018975D01*
X032271Y018975D01*
X032271Y018401D01*
X032442Y018401D01*
X032526Y018485D01*
X032590Y018421D01*
X032934Y018421D01*
X033010Y018497D01*
X033010Y019471D01*
X032934Y019547D01*
X032590Y019547D01*
X032526Y019483D01*
X032442Y019567D01*
X032271Y019567D01*
X032271Y018994D01*
X032253Y018994D01*
X032253Y019567D01*
X032082Y019567D01*
X032012Y019498D01*
X031942Y019567D01*
X031771Y019567D01*
X031771Y018994D01*
X031753Y018994D01*
X031753Y019567D01*
X031582Y019567D01*
X031498Y019483D01*
X031434Y019547D01*
X031090Y019547D01*
X031014Y019471D01*
X031014Y018896D01*
X030996Y018914D01*
X030889Y018958D01*
X030774Y018958D01*
X030668Y018914D01*
X030587Y018833D01*
X030246Y018833D01*
X030246Y018875D01*
X030170Y018952D01*
X029354Y018952D01*
X029277Y018875D01*
X029277Y018138D01*
X029277Y018253D02*
X028962Y018253D01*
X028962Y018351D02*
X029277Y018351D01*
X029277Y018450D02*
X028962Y018450D01*
X028962Y018549D02*
X029277Y018549D01*
X029277Y018647D02*
X028962Y018647D01*
X028962Y018746D02*
X029277Y018746D01*
X029277Y018844D02*
X028962Y018844D01*
X028962Y018943D02*
X029345Y018943D01*
X029345Y019144D02*
X029257Y019232D01*
X029257Y019559D01*
X029712Y019559D01*
X029812Y019559D01*
X029812Y019659D01*
X030266Y019659D01*
X030266Y019986D01*
X030194Y020058D01*
X030266Y020130D01*
X030266Y020457D01*
X029812Y020457D01*
X029812Y020557D01*
X029712Y020557D01*
X029712Y020972D01*
X029345Y020972D01*
X029257Y020884D01*
X029257Y020557D01*
X029712Y020557D01*
X029712Y020457D01*
X029257Y020457D01*
X029257Y020130D01*
X029329Y020058D01*
X029257Y019986D01*
X029257Y019659D01*
X029712Y019659D01*
X029712Y020074D01*
X029712Y020457D01*
X029812Y020457D01*
X029812Y020074D01*
X029812Y019659D01*
X029712Y019659D01*
X029712Y019559D01*
X029712Y019144D01*
X029345Y019144D01*
X029257Y019238D02*
X028962Y019238D01*
X028962Y019140D02*
X031014Y019140D01*
X031014Y019238D02*
X030266Y019238D01*
X030266Y019232D02*
X030266Y019559D01*
X029812Y019559D01*
X029812Y019144D01*
X030178Y019144D01*
X030266Y019232D01*
X030266Y019337D02*
X031014Y019337D01*
X031014Y019435D02*
X030266Y019435D01*
X030266Y019534D02*
X031077Y019534D01*
X031447Y019534D02*
X031548Y019534D01*
X031753Y019534D02*
X031771Y019534D01*
X031771Y019435D02*
X031753Y019435D01*
X031753Y019337D02*
X031771Y019337D01*
X031771Y019238D02*
X031753Y019238D01*
X031753Y019140D02*
X031771Y019140D01*
X031771Y019041D02*
X031753Y019041D01*
X031771Y018993D02*
X031994Y018993D01*
X032252Y018993D01*
X032252Y018975D01*
X031994Y018975D01*
X031771Y018975D01*
X031771Y018993D01*
X031771Y018943D02*
X031753Y018943D01*
X031753Y018844D02*
X031771Y018844D01*
X031771Y018746D02*
X031753Y018746D01*
X031753Y018647D02*
X031771Y018647D01*
X031771Y018549D02*
X031753Y018549D01*
X031753Y018450D02*
X031771Y018450D01*
X031991Y018450D02*
X032033Y018450D01*
X032253Y018450D02*
X032271Y018450D01*
X032271Y018549D02*
X032253Y018549D01*
X032253Y018647D02*
X032271Y018647D01*
X032271Y018746D02*
X032253Y018746D01*
X032253Y018844D02*
X032271Y018844D01*
X032271Y018943D02*
X032253Y018943D01*
X032253Y019041D02*
X032271Y019041D01*
X032271Y019140D02*
X032253Y019140D01*
X032253Y019238D02*
X032271Y019238D01*
X032271Y019337D02*
X032253Y019337D01*
X032253Y019435D02*
X032271Y019435D01*
X032271Y019534D02*
X032253Y019534D01*
X032048Y019534D02*
X031975Y019534D01*
X032475Y019534D02*
X032577Y019534D01*
X032947Y019534D02*
X037062Y019534D01*
X037062Y019435D02*
X036392Y019435D01*
X036390Y019438D02*
X036034Y019438D01*
X035782Y019186D01*
X035782Y018830D01*
X036034Y018578D01*
X036390Y018578D01*
X036642Y018830D01*
X036642Y019186D01*
X036390Y019438D01*
X036390Y019578D02*
X036034Y019578D01*
X035782Y019830D01*
X035782Y020186D01*
X036034Y020438D01*
X036390Y020438D01*
X036642Y020186D01*
X036642Y019830D01*
X036390Y019578D01*
X036445Y019633D02*
X037062Y019633D01*
X037062Y019731D02*
X036543Y019731D01*
X036642Y019830D02*
X037062Y019830D01*
X037062Y019928D02*
X036642Y019928D01*
X036642Y020027D02*
X037062Y020027D01*
X037062Y020125D02*
X036642Y020125D01*
X036604Y020224D02*
X037062Y020224D01*
X037062Y020322D02*
X036505Y020322D01*
X036407Y020421D02*
X037062Y020421D01*
X037062Y020519D02*
X032985Y020519D01*
X033010Y020545D02*
X033010Y021518D01*
X032934Y021595D01*
X032590Y021595D01*
X032526Y021531D01*
X032442Y021615D01*
X032271Y021615D01*
X032271Y021041D01*
X032253Y021041D01*
X032253Y021615D01*
X032082Y021615D01*
X032012Y021545D01*
X031942Y021615D01*
X031771Y021615D01*
X031771Y021041D01*
X031753Y021041D01*
X031753Y021615D01*
X031582Y021615D01*
X031498Y021531D01*
X031434Y021595D01*
X031280Y021595D01*
X031236Y021638D01*
X031087Y021638D01*
X030246Y021638D01*
X030246Y021978D01*
X030246Y021899D02*
X037062Y021899D01*
X037062Y021801D02*
X030246Y021801D01*
X030246Y021702D02*
X037062Y021702D01*
X037062Y021603D02*
X032453Y021603D01*
X032271Y021603D02*
X032253Y021603D01*
X032253Y021505D02*
X032271Y021505D01*
X032271Y021406D02*
X032253Y021406D01*
X032253Y021308D02*
X032271Y021308D01*
X032271Y021209D02*
X032253Y021209D01*
X032253Y021111D02*
X032271Y021111D01*
X032252Y021041D02*
X032252Y021022D01*
X031994Y021022D01*
X031771Y021022D01*
X031771Y020448D01*
X031942Y020448D01*
X032012Y020518D01*
X032082Y020448D01*
X032253Y020448D01*
X032253Y021022D01*
X032271Y021022D01*
X032271Y020448D01*
X032442Y020448D01*
X032526Y020532D01*
X032590Y020468D01*
X032934Y020468D01*
X033010Y020545D01*
X033010Y020618D02*
X034965Y020618D01*
X035025Y020558D02*
X034762Y020821D01*
X034762Y020958D01*
X035162Y020958D01*
X035262Y020958D01*
X035262Y021058D01*
X035662Y021058D01*
X035662Y021194D01*
X035398Y021458D01*
X035262Y021458D01*
X035262Y021058D01*
X035162Y021058D01*
X035162Y021458D01*
X035025Y021458D01*
X034762Y021194D01*
X034762Y021058D01*
X035162Y021058D01*
X035162Y020958D01*
X035162Y020558D01*
X035025Y020558D01*
X035025Y020458D02*
X034762Y020194D01*
X034762Y020058D01*
X035162Y020058D01*
X035162Y020458D01*
X035025Y020458D01*
X034988Y020421D02*
X030266Y020421D01*
X030266Y020322D02*
X034890Y020322D01*
X034791Y020224D02*
X030266Y020224D01*
X030262Y020125D02*
X034762Y020125D01*
X034762Y019958D02*
X034762Y019821D01*
X035025Y019558D01*
X035162Y019558D01*
X035162Y019958D01*
X035262Y019958D01*
X035262Y020058D01*
X035662Y020058D01*
X035662Y020194D01*
X035398Y020458D01*
X035262Y020458D01*
X035262Y020058D01*
X035162Y020058D01*
X035162Y019958D01*
X034762Y019958D01*
X034762Y019928D02*
X030266Y019928D01*
X030266Y019830D02*
X034762Y019830D01*
X034852Y019731D02*
X030266Y019731D01*
X030226Y020027D02*
X035162Y020027D01*
X035162Y020125D02*
X035262Y020125D01*
X035262Y020027D02*
X035782Y020027D01*
X035782Y020125D02*
X035662Y020125D01*
X035632Y020224D02*
X035820Y020224D01*
X035918Y020322D02*
X035534Y020322D01*
X035435Y020421D02*
X036017Y020421D01*
X036025Y020558D02*
X035762Y020821D01*
X035762Y020958D01*
X036162Y020958D01*
X036262Y020958D01*
X036262Y021058D01*
X036662Y021058D01*
X036662Y021194D01*
X036398Y021458D01*
X036262Y021458D01*
X036262Y021058D01*
X036162Y021058D01*
X036162Y021458D01*
X036025Y021458D01*
X035762Y021194D01*
X035762Y021058D01*
X036162Y021058D01*
X036162Y020958D01*
X036162Y020558D01*
X036025Y020558D01*
X035965Y020618D02*
X035458Y020618D01*
X035398Y020558D02*
X035662Y020821D01*
X035662Y020958D01*
X035262Y020958D01*
X035262Y020558D01*
X035398Y020558D01*
X035262Y020618D02*
X035162Y020618D01*
X035162Y020717D02*
X035262Y020717D01*
X035262Y020815D02*
X035162Y020815D01*
X035162Y020914D02*
X035262Y020914D01*
X035262Y021012D02*
X036162Y021012D01*
X036162Y020914D02*
X036262Y020914D01*
X036262Y020958D02*
X036262Y020558D01*
X036398Y020558D01*
X036662Y020821D01*
X036662Y020958D01*
X036262Y020958D01*
X036262Y021012D02*
X037062Y021012D01*
X037062Y020914D02*
X036662Y020914D01*
X036655Y020815D02*
X037062Y020815D01*
X037062Y020717D02*
X036557Y020717D01*
X036458Y020618D02*
X037062Y020618D01*
X037062Y021111D02*
X036662Y021111D01*
X036647Y021209D02*
X037062Y021209D01*
X037062Y021308D02*
X036548Y021308D01*
X036450Y021406D02*
X037062Y021406D01*
X037062Y021505D02*
X033010Y021505D01*
X033010Y021406D02*
X034974Y021406D01*
X034875Y021308D02*
X033010Y021308D01*
X033010Y021209D02*
X034777Y021209D01*
X034762Y021111D02*
X033010Y021111D01*
X033010Y021012D02*
X035162Y021012D01*
X035162Y021111D02*
X035262Y021111D01*
X035262Y021209D02*
X035162Y021209D01*
X035162Y021308D02*
X035262Y021308D01*
X035262Y021406D02*
X035162Y021406D01*
X035450Y021406D02*
X035974Y021406D01*
X035875Y021308D02*
X035548Y021308D01*
X035647Y021209D02*
X035777Y021209D01*
X035762Y021111D02*
X035662Y021111D01*
X035662Y020914D02*
X035762Y020914D01*
X035768Y020815D02*
X035655Y020815D01*
X035557Y020717D02*
X035867Y020717D01*
X036162Y020717D02*
X036262Y020717D01*
X036262Y020815D02*
X036162Y020815D01*
X036162Y020618D02*
X036262Y020618D01*
X036262Y021111D02*
X036162Y021111D01*
X036162Y021209D02*
X036262Y021209D01*
X036262Y021308D02*
X036162Y021308D01*
X036162Y021406D02*
X036262Y021406D01*
X035262Y020421D02*
X035162Y020421D01*
X035162Y020322D02*
X035262Y020322D01*
X035262Y020224D02*
X035162Y020224D01*
X035262Y019958D02*
X035662Y019958D01*
X035662Y019821D01*
X035398Y019558D01*
X035262Y019558D01*
X035262Y019958D01*
X035262Y019928D02*
X035162Y019928D01*
X035162Y019830D02*
X035262Y019830D01*
X035262Y019731D02*
X035162Y019731D01*
X035162Y019633D02*
X035262Y019633D01*
X035473Y019633D02*
X035979Y019633D01*
X035880Y019731D02*
X035571Y019731D01*
X035662Y019830D02*
X035782Y019830D01*
X035782Y019928D02*
X035662Y019928D01*
X034951Y019633D02*
X029812Y019633D01*
X029812Y019731D02*
X029712Y019731D01*
X029712Y019633D02*
X028962Y019633D01*
X028962Y019731D02*
X029257Y019731D01*
X029257Y019830D02*
X028962Y019830D01*
X028962Y019928D02*
X029257Y019928D01*
X029298Y020027D02*
X028962Y020027D01*
X028962Y020125D02*
X029262Y020125D01*
X029257Y020224D02*
X028962Y020224D01*
X028962Y020322D02*
X029257Y020322D01*
X029257Y020421D02*
X028962Y020421D01*
X028962Y020519D02*
X029712Y020519D01*
X029712Y020421D02*
X029812Y020421D01*
X029812Y020519D02*
X031039Y020519D01*
X031014Y020545D02*
X031090Y020468D01*
X031434Y020468D01*
X031498Y020532D01*
X031582Y020448D01*
X031753Y020448D01*
X031753Y021022D01*
X031771Y021022D01*
X031771Y021041D01*
X031994Y021041D01*
X032252Y021041D01*
X032253Y021012D02*
X032271Y021012D01*
X032271Y020914D02*
X032253Y020914D01*
X032253Y020815D02*
X032271Y020815D01*
X032271Y020717D02*
X032253Y020717D01*
X032253Y020618D02*
X032271Y020618D01*
X032271Y020519D02*
X032253Y020519D01*
X032513Y020519D02*
X032539Y020519D01*
X033010Y020717D02*
X034867Y020717D01*
X034768Y020815D02*
X033010Y020815D01*
X033010Y020914D02*
X034762Y020914D01*
X035034Y019438D02*
X034782Y019186D01*
X034782Y018830D01*
X035034Y018578D01*
X035390Y018578D01*
X035642Y018830D01*
X035642Y019186D01*
X035390Y019438D01*
X035034Y019438D01*
X035031Y019435D02*
X033010Y019435D01*
X033010Y019337D02*
X034933Y019337D01*
X034834Y019238D02*
X033010Y019238D01*
X033010Y019140D02*
X034782Y019140D01*
X034782Y019041D02*
X033010Y019041D01*
X033010Y018943D02*
X034782Y018943D01*
X034782Y018844D02*
X033010Y018844D01*
X033010Y018746D02*
X034866Y018746D01*
X034964Y018647D02*
X033010Y018647D01*
X033010Y018549D02*
X037062Y018549D01*
X037062Y018647D02*
X036459Y018647D01*
X036558Y018746D02*
X037062Y018746D01*
X037062Y018844D02*
X036642Y018844D01*
X036642Y018943D02*
X037062Y018943D01*
X037062Y019041D02*
X036642Y019041D01*
X036642Y019140D02*
X037062Y019140D01*
X037062Y019238D02*
X036589Y019238D01*
X036491Y019337D02*
X037062Y019337D01*
X037062Y018450D02*
X032963Y018450D01*
X032561Y018450D02*
X032491Y018450D01*
X031533Y018450D02*
X031463Y018450D01*
X031061Y018450D02*
X031024Y018450D01*
X030639Y018450D02*
X030246Y018450D01*
X030246Y018351D02*
X034947Y018351D01*
X034849Y018253D02*
X030246Y018253D01*
X030246Y018154D02*
X034782Y018154D01*
X035476Y018351D02*
X035947Y018351D01*
X036034Y018438D02*
X035782Y018186D01*
X035782Y017830D01*
X036034Y017578D01*
X036390Y017578D01*
X036642Y017830D01*
X036642Y018186D01*
X036390Y018438D01*
X036034Y018438D01*
X035964Y018647D02*
X035459Y018647D01*
X035558Y018746D02*
X035866Y018746D01*
X035782Y018844D02*
X035642Y018844D01*
X035642Y018943D02*
X035782Y018943D01*
X035782Y019041D02*
X035642Y019041D01*
X035642Y019140D02*
X035782Y019140D01*
X035834Y019238D02*
X035589Y019238D01*
X035491Y019337D02*
X035933Y019337D01*
X036031Y019435D02*
X035392Y019435D01*
X035575Y018253D02*
X035849Y018253D01*
X035782Y018154D02*
X035642Y018154D01*
X035642Y018056D02*
X035782Y018056D01*
X035782Y017957D02*
X035642Y017957D01*
X035642Y017859D02*
X035782Y017859D01*
X035851Y017760D02*
X035572Y017760D01*
X035474Y017662D02*
X035950Y017662D01*
X036025Y017458D02*
X035762Y017194D01*
X035762Y017058D01*
X036162Y017058D01*
X036162Y017458D01*
X036025Y017458D01*
X035934Y017366D02*
X035490Y017366D01*
X035589Y017268D02*
X035835Y017268D01*
X035762Y017169D02*
X035662Y017169D01*
X035662Y017070D02*
X035762Y017070D01*
X035762Y016958D02*
X035762Y016821D01*
X036025Y016558D01*
X036162Y016558D01*
X036162Y016958D01*
X036262Y016958D01*
X036262Y017058D01*
X036662Y017058D01*
X036662Y017194D01*
X036398Y017458D01*
X036262Y017458D01*
X036262Y017058D01*
X036162Y017058D01*
X036162Y016958D01*
X035762Y016958D01*
X035762Y016873D02*
X035662Y016873D01*
X035615Y016775D02*
X035808Y016775D01*
X035907Y016676D02*
X035517Y016676D01*
X035418Y016578D02*
X036006Y016578D01*
X036162Y016578D02*
X036262Y016578D01*
X036262Y016558D02*
X036398Y016558D01*
X036662Y016821D01*
X036662Y016958D01*
X036262Y016958D01*
X036262Y016558D01*
X036262Y016676D02*
X036162Y016676D01*
X036162Y016775D02*
X036262Y016775D01*
X036262Y016873D02*
X036162Y016873D01*
X036162Y016972D02*
X035262Y016972D01*
X035262Y017070D02*
X035162Y017070D01*
X035162Y017169D02*
X035262Y017169D01*
X035262Y017268D02*
X035162Y017268D01*
X035162Y017366D02*
X035262Y017366D01*
X036162Y017366D02*
X036262Y017366D01*
X036262Y017268D02*
X036162Y017268D01*
X036162Y017169D02*
X036262Y017169D01*
X036262Y017070D02*
X036162Y017070D01*
X036262Y016972D02*
X037062Y016972D01*
X037062Y017070D02*
X036662Y017070D01*
X036662Y017169D02*
X037062Y017169D01*
X037062Y017268D02*
X036589Y017268D01*
X036490Y017366D02*
X037062Y017366D01*
X037062Y017662D02*
X036474Y017662D01*
X036572Y017760D02*
X037062Y017760D01*
X037062Y017859D02*
X036642Y017859D01*
X036642Y017957D02*
X037062Y017957D01*
X037062Y018056D02*
X036642Y018056D01*
X036642Y018154D02*
X037062Y018154D01*
X037062Y018253D02*
X036575Y018253D01*
X036476Y018351D02*
X037062Y018351D01*
X037062Y016873D02*
X036662Y016873D01*
X036615Y016775D02*
X037062Y016775D01*
X037062Y016676D02*
X036517Y016676D01*
X036418Y016578D02*
X037062Y016578D01*
X037062Y016479D02*
X028962Y016479D01*
X028962Y016381D02*
X034976Y016381D01*
X034878Y016282D02*
X028962Y016282D01*
X028962Y016208D02*
X028962Y021428D01*
X029277Y021428D01*
X029277Y021240D01*
X029354Y021164D01*
X030170Y021164D01*
X030246Y021240D01*
X030246Y021278D01*
X031014Y021278D01*
X031014Y020545D01*
X031014Y020618D02*
X030266Y020618D01*
X030266Y020557D02*
X030266Y020884D01*
X030178Y020972D01*
X029812Y020972D01*
X029812Y020557D01*
X030266Y020557D01*
X030266Y020717D02*
X031014Y020717D01*
X031014Y020815D02*
X030266Y020815D01*
X030236Y020914D02*
X031014Y020914D01*
X031014Y021012D02*
X028962Y021012D01*
X028962Y020914D02*
X029287Y020914D01*
X029257Y020815D02*
X028962Y020815D01*
X028962Y020717D02*
X029257Y020717D01*
X029257Y020618D02*
X028962Y020618D01*
X028962Y021111D02*
X031014Y021111D01*
X031014Y021209D02*
X030215Y021209D01*
X030112Y021458D02*
X029762Y021609D01*
X029412Y021608D01*
X028112Y021608D01*
X028962Y021801D02*
X029277Y021801D01*
X029277Y021899D02*
X028962Y021899D01*
X028962Y021998D02*
X029297Y021998D01*
X029277Y021406D02*
X028962Y021406D01*
X028962Y021308D02*
X029277Y021308D01*
X029308Y021209D02*
X028962Y021209D01*
X029712Y020914D02*
X029812Y020914D01*
X029812Y020815D02*
X029712Y020815D01*
X029712Y020717D02*
X029812Y020717D01*
X029812Y020618D02*
X029712Y020618D01*
X029712Y020322D02*
X029812Y020322D01*
X029812Y020224D02*
X029712Y020224D01*
X029712Y020125D02*
X029812Y020125D01*
X029812Y020027D02*
X029712Y020027D01*
X029712Y019928D02*
X029812Y019928D01*
X029812Y019830D02*
X029712Y019830D01*
X029712Y019534D02*
X029812Y019534D01*
X029812Y019435D02*
X029712Y019435D01*
X029712Y019337D02*
X029812Y019337D01*
X029812Y019238D02*
X029712Y019238D01*
X029257Y019337D02*
X028962Y019337D01*
X028962Y019435D02*
X029257Y019435D01*
X029257Y019534D02*
X028962Y019534D01*
X028962Y019041D02*
X031014Y019041D01*
X031014Y018943D02*
X030926Y018943D01*
X030738Y018943D02*
X030179Y018943D01*
X030246Y018844D02*
X030598Y018844D01*
X031485Y020519D02*
X031511Y020519D01*
X031753Y020519D02*
X031771Y020519D01*
X031771Y020618D02*
X031753Y020618D01*
X031753Y020717D02*
X031771Y020717D01*
X031771Y020815D02*
X031753Y020815D01*
X031753Y020914D02*
X031771Y020914D01*
X031771Y021012D02*
X031753Y021012D01*
X031753Y021111D02*
X031771Y021111D01*
X031771Y021209D02*
X031753Y021209D01*
X031753Y021308D02*
X031771Y021308D01*
X031771Y021406D02*
X031753Y021406D01*
X031753Y021505D02*
X031771Y021505D01*
X031771Y021603D02*
X031753Y021603D01*
X031570Y021603D02*
X031271Y021603D01*
X031162Y021458D02*
X031262Y021031D01*
X031162Y021458D02*
X030112Y021458D01*
X029911Y022589D02*
X028962Y022589D01*
X028962Y022687D02*
X029841Y022687D01*
X029841Y022786D02*
X028962Y022786D01*
X028962Y022884D02*
X029841Y022884D01*
X029841Y022983D02*
X028962Y022983D01*
X028962Y023082D02*
X029841Y023082D01*
X029841Y023180D02*
X028962Y023180D01*
X028962Y023279D02*
X029841Y023279D01*
X029861Y023377D02*
X028962Y023377D01*
X028962Y023476D02*
X030067Y023476D01*
X030067Y023574D02*
X028962Y023574D01*
X030543Y022589D02*
X030580Y022589D01*
X031212Y022589D02*
X037062Y022589D01*
X037062Y022687D02*
X031282Y022687D01*
X031282Y022786D02*
X037062Y022786D01*
X037062Y022884D02*
X031282Y022884D01*
X031282Y022983D02*
X037062Y022983D01*
X037062Y023082D02*
X031282Y023082D01*
X031282Y023180D02*
X037062Y023180D01*
X037062Y023279D02*
X031509Y023279D01*
X031598Y023377D02*
X037062Y023377D01*
X037062Y023476D02*
X031639Y023476D01*
X031642Y023574D02*
X037062Y023574D01*
X032872Y023848D02*
X032872Y022658D01*
X032872Y023848D02*
X032862Y024128D01*
X031362Y024128D02*
X031312Y023848D01*
X031312Y023548D01*
X031362Y024128D02*
X031372Y024408D01*
X031372Y027608D01*
X031362Y027888D01*
X031806Y029008D02*
X031672Y029168D01*
X031412Y029428D01*
X031412Y030048D01*
X030012Y031448D01*
X030012Y032568D01*
X029732Y032848D01*
X016652Y032848D01*
X016652Y032708D01*
X016512Y032008D01*
X016852Y031508D01*
X016852Y028408D01*
X017152Y028108D01*
X017262Y027718D01*
X017152Y027328D01*
X016172Y027328D01*
X016012Y027264D01*
X016012Y026752D02*
X016012Y026328D01*
X009462Y027008D02*
X009462Y027458D01*
X009362Y027558D01*
X009262Y027825D01*
X009132Y028108D01*
X008652Y028588D01*
X008652Y030728D01*
X008512Y031008D01*
X007972Y028268D02*
X007392Y028268D01*
X007392Y028108D01*
X007262Y027825D01*
X007132Y028108D01*
X007132Y028268D01*
X006552Y028268D01*
X006392Y028108D01*
X006262Y027825D01*
X007972Y028268D02*
X008132Y028108D01*
X008262Y027825D01*
X008392Y027548D01*
X008692Y027248D01*
X018232Y016748D02*
X020632Y019148D01*
X020632Y019168D01*
X020662Y019208D01*
X020679Y019429D01*
X023652Y020728D02*
X023772Y020608D01*
X024212Y020608D01*
X024278Y020499D01*
X024332Y020508D01*
X024472Y020508D01*
X024534Y020499D01*
X024592Y020508D01*
X024732Y020508D01*
X024790Y020499D01*
X024772Y020348D01*
X024772Y019768D01*
X024772Y019168D01*
X024768Y019008D01*
X023652Y020728D02*
X023652Y021048D01*
X023812Y021048D01*
X023953Y021080D01*
X023952Y021148D01*
X023952Y021268D01*
X023953Y021336D01*
X024512Y021908D02*
X024520Y021917D01*
X024534Y021917D01*
X024512Y022068D01*
X024372Y022208D01*
X023472Y022208D01*
X024534Y021917D02*
X024790Y021917D01*
X024812Y022068D01*
X026532Y023788D01*
X026532Y026408D01*
X025392Y027548D01*
X025262Y027825D01*
X025132Y027828D01*
X024892Y027828D01*
X024762Y027825D01*
X024632Y027828D01*
X024392Y027828D01*
X024262Y027825D01*
X023892Y028108D02*
X023762Y027825D01*
X023632Y027828D01*
X023392Y027828D01*
X023262Y027825D01*
X023132Y027828D01*
X022892Y027828D01*
X022762Y027825D01*
X023892Y028108D02*
X023892Y028268D01*
X025972Y028268D01*
X026132Y028108D01*
X026262Y027825D01*
X032318Y029008D02*
X032372Y029168D01*
X032372Y031308D01*
X032512Y032008D01*
X026932Y022508D02*
X026962Y022489D01*
X031953Y021603D02*
X032070Y021603D01*
X035447Y016381D02*
X035976Y016381D01*
X035878Y016282D02*
X035546Y016282D01*
X036447Y016381D02*
X037062Y016381D01*
X037062Y016282D02*
X036546Y016282D01*
X031012Y014258D02*
X031012Y014252D01*
X020712Y012164D02*
X020552Y012168D01*
X020112Y012168D01*
X019672Y012168D01*
X019512Y012164D01*
X018412Y012428D02*
X018368Y012258D01*
X018372Y012088D01*
X018372Y011788D01*
X017862Y012108D02*
X017856Y012258D01*
X017856Y012652D01*
X018162Y012958D01*
X018162Y013258D01*
X018159Y013260D01*
X018159Y013287D01*
X018232Y013508D01*
X018232Y016748D01*
X018474Y013287D02*
X018412Y013068D01*
X018412Y012428D01*
X017862Y012108D02*
X017862Y008508D01*
X017962Y008408D01*
X017962Y002058D01*
X006312Y002058D01*
X009862Y007773D02*
X010112Y008008D01*
X010312Y008008D01*
X010512Y009358D02*
X011662Y009358D01*
X011662Y009758D01*
X012052Y009858D01*
X013952Y012968D02*
X013892Y013008D01*
X013952Y012968D02*
X014092Y012968D01*
X014472Y012858D01*
X014829Y005758D02*
X015112Y005768D01*
X015412Y005768D01*
X014829Y004758D02*
X015112Y004628D01*
X016232Y003508D01*
X016512Y003508D01*
X017962Y002058D02*
X021712Y002058D01*
X021962Y002308D01*
X021962Y002958D01*
X021662Y003258D01*
X021512Y003508D01*
X021062Y003058D02*
X021362Y002758D01*
X021512Y002508D01*
X021062Y003058D02*
X021062Y004258D01*
X021162Y004358D01*
X021268Y004508D01*
X020756Y004508D02*
X020652Y004348D01*
X020652Y003788D01*
X020512Y003508D01*
D37*
X031362Y018358D02*
X032712Y018358D01*
X032712Y018361D01*
X032565Y018361D01*
X032454Y018472D01*
X032454Y019496D01*
X032565Y019607D01*
X032712Y019607D01*
X032712Y020408D01*
X032565Y020408D01*
X032454Y020520D01*
X032454Y021543D01*
X032565Y021655D01*
X032712Y021655D01*
X032712Y021958D01*
X031362Y021958D01*
X031362Y021655D01*
X031459Y021655D01*
X031570Y021543D01*
X031570Y020520D01*
X031459Y020408D01*
X031362Y020408D01*
X031362Y019607D01*
X031459Y019607D01*
X031570Y019496D01*
X031570Y018472D01*
X031459Y018361D01*
X031362Y018361D01*
X031362Y018358D01*
X031570Y018491D02*
X032454Y018491D01*
X032454Y018710D02*
X031570Y018710D01*
X031570Y018928D02*
X032454Y018928D01*
X032454Y019147D02*
X031570Y019147D01*
X031570Y019366D02*
X032454Y019366D01*
X032542Y019584D02*
X031482Y019584D01*
X031362Y019803D02*
X032712Y019803D01*
X032712Y020021D02*
X031362Y020021D01*
X031362Y020240D02*
X032712Y020240D01*
X032515Y020458D02*
X031508Y020458D01*
X031570Y020677D02*
X032454Y020677D01*
X032454Y020895D02*
X031570Y020895D01*
X031570Y021114D02*
X032454Y021114D01*
X032454Y021332D02*
X031570Y021332D01*
X031562Y021551D02*
X032461Y021551D01*
X032712Y021769D02*
X031362Y021769D01*
D38*
X031312Y023548D03*
X028112Y021608D03*
X025992Y019288D03*
X024772Y019768D03*
X027352Y018528D03*
X025132Y017388D03*
X025552Y016668D03*
X024352Y015488D03*
X024752Y014968D03*
X024012Y012888D03*
X020112Y012168D03*
X018372Y011788D03*
X014312Y013408D03*
X016872Y018908D03*
X016992Y019948D03*
X019832Y020408D03*
X019962Y021508D03*
X015662Y024308D03*
X013752Y023988D03*
X016012Y026328D03*
X015812Y030348D03*
X008692Y027248D03*
X007362Y019358D03*
X005862Y006858D03*
X010312Y005658D03*
X011612Y005258D03*
X015412Y005768D03*
X023372Y004088D03*
X024362Y007608D03*
X024352Y008408D03*
X025562Y007708D03*
X028012Y013408D03*
X031512Y014158D03*
X031672Y013668D03*
D39*
X032492Y014268D02*
X032252Y014508D01*
X030592Y014508D01*
X030592Y014668D01*
X029912Y015348D01*
X028612Y015348D01*
X028612Y015908D01*
X028492Y016028D01*
X028032Y016028D01*
X028032Y016408D01*
X028012Y016428D01*
X027712Y016428D01*
X027451Y016368D01*
X027451Y016112D02*
X027712Y016048D01*
X027792Y016048D01*
X027852Y015988D01*
X027852Y014228D01*
X027892Y014188D01*
X027492Y014108D02*
X027492Y015788D01*
X027451Y015856D01*
X027192Y016568D02*
X026652Y016568D01*
X026652Y020628D01*
X026512Y020768D01*
X026512Y021468D01*
X026392Y021588D01*
X026256Y021758D01*
X026392Y021928D01*
X026512Y022048D01*
X026512Y022808D01*
X026052Y022808D01*
X025752Y022508D01*
X025752Y021908D01*
X025492Y021648D01*
X025370Y021592D01*
X025370Y021080D02*
X025512Y021048D01*
X025652Y020908D01*
X025652Y020568D01*
X025632Y020548D01*
X026232Y020588D02*
X026312Y020448D01*
X026312Y016948D01*
X026372Y016888D01*
X026932Y016928D02*
X027192Y016928D01*
X027451Y016880D01*
X027451Y017136D02*
X027712Y017108D01*
X028012Y017108D01*
X028012Y017058D01*
X027712Y017358D02*
X028312Y017358D01*
X028312Y016408D01*
X027451Y016624D02*
X027192Y016568D01*
X027451Y017392D02*
X027712Y017358D01*
X027451Y017648D02*
X027192Y017708D01*
X026932Y017708D01*
X025232Y017068D02*
X025232Y016148D01*
X025332Y016048D01*
X025072Y015888D02*
X024832Y016128D01*
X024572Y016112D01*
X024312Y016158D01*
X023712Y015558D01*
X023452Y015908D02*
X023772Y016228D01*
X023772Y016468D01*
X023932Y016628D01*
X024312Y016628D01*
X024572Y016624D01*
X024572Y016368D02*
X024312Y016348D01*
X024052Y016348D01*
X023652Y016748D02*
X023452Y016948D01*
X023452Y018328D01*
X022552Y018328D01*
X022333Y018405D01*
X022333Y018090D02*
X022552Y018008D01*
X023172Y018008D01*
X023172Y012468D01*
X023792Y011848D01*
X024312Y011848D01*
X024572Y011868D01*
X024572Y011612D02*
X024312Y011658D01*
X022262Y009608D01*
X023052Y009508D02*
X023052Y003108D01*
X023372Y002788D01*
X023512Y002508D01*
X023332Y002088D02*
X030692Y002088D01*
X030692Y004788D01*
X030925Y005008D01*
X030098Y005008D02*
X028846Y005008D01*
X028846Y006508D02*
X030098Y006508D01*
X029512Y006888D02*
X030692Y006888D01*
X030692Y006728D01*
X030925Y006508D01*
X030762Y008958D02*
X029212Y008958D01*
X029212Y009508D01*
X029362Y009658D01*
X029512Y009764D01*
X030512Y009764D02*
X030662Y009658D01*
X030812Y009658D01*
X030812Y009008D01*
X030762Y008958D01*
X031352Y010288D02*
X031352Y010928D01*
X031327Y011013D01*
X031957Y011643D02*
X032052Y011688D01*
X032492Y012128D01*
X032492Y014268D01*
X028912Y012908D02*
X028912Y012758D01*
X028912Y012908D02*
X028062Y012908D01*
X027862Y013108D01*
X027712Y013108D01*
X027451Y013148D01*
X027451Y012892D02*
X027192Y012948D01*
X026932Y012948D01*
X026932Y013048D01*
X027451Y012636D02*
X027712Y012628D01*
X028092Y012628D01*
X027972Y012328D02*
X027712Y012328D01*
X027451Y012380D01*
X027451Y012124D02*
X027192Y012188D01*
X026932Y012188D01*
X026932Y012288D01*
X026932Y011888D02*
X027192Y011888D01*
X027451Y011868D01*
X027451Y011612D02*
X027712Y011558D01*
X028012Y011558D01*
X028012Y011508D01*
X027972Y011948D02*
X027972Y012328D01*
X027451Y011356D02*
X027212Y011408D01*
X026612Y011408D01*
X026612Y014758D01*
X026712Y014858D01*
X025072Y015888D02*
X025072Y011668D01*
X024832Y011668D01*
X024572Y011612D01*
X024572Y012124D02*
X024312Y012128D01*
X024052Y012128D01*
X023812Y012408D02*
X024312Y012408D01*
X024572Y012380D01*
X024572Y012636D02*
X024312Y012568D01*
X023872Y012568D01*
X023692Y012748D01*
X023692Y012988D01*
X023452Y013228D01*
X022862Y013008D02*
X022862Y016158D01*
X022562Y016158D01*
X022333Y016200D01*
X022333Y016515D02*
X022112Y016558D01*
X021962Y016558D01*
X021962Y019058D01*
X021292Y019208D02*
X021309Y019429D01*
X021292Y019208D02*
X021292Y013848D01*
X021309Y013287D02*
X021392Y013068D01*
X021392Y004888D01*
X022092Y004188D01*
X022092Y003328D01*
X022492Y002928D01*
X023012Y002928D01*
X023012Y002408D01*
X023332Y002088D01*
X019932Y003068D02*
X019652Y002788D01*
X019512Y002508D01*
X019932Y003068D02*
X019932Y005688D01*
X020652Y006408D01*
X021162Y008658D02*
X018162Y008658D01*
X018862Y009858D02*
X018972Y010108D01*
X018972Y011148D01*
X019352Y011528D01*
X019512Y011652D01*
X019352Y011608D01*
X018872Y012088D01*
X018872Y013068D01*
X018789Y013287D01*
X019104Y013287D02*
X019192Y013068D01*
X019192Y011988D01*
X019272Y011908D01*
X019912Y011908D01*
X020032Y011788D01*
X020552Y011788D01*
X020712Y011652D01*
X020712Y010108D01*
X020762Y009858D01*
X021162Y008658D02*
X021162Y012258D01*
X020412Y013008D01*
X020412Y013058D01*
X020364Y013287D01*
X020049Y013287D02*
X019962Y013508D01*
X019962Y013808D01*
X018562Y015208D01*
X017312Y016288D02*
X017312Y018948D01*
X017530Y019429D02*
X017452Y019648D01*
X017452Y020128D01*
X017412Y020252D01*
X018232Y019648D02*
X018159Y019429D01*
X018232Y019648D02*
X018232Y021628D01*
X018632Y022028D01*
X018912Y022273D01*
X018632Y022168D01*
X018152Y022648D01*
X017612Y022273D02*
X017332Y022488D01*
X017192Y022628D01*
X017192Y024648D01*
X016892Y024948D01*
X017262Y025298D02*
X017152Y025688D01*
X016892Y025688D01*
X016612Y025808D02*
X017592Y026788D01*
X019652Y026788D01*
X019652Y027328D01*
X019762Y027718D01*
X020262Y027718D02*
X020172Y027328D01*
X020172Y026148D01*
X020372Y025948D01*
X020452Y026428D02*
X020652Y026628D01*
X020652Y027328D01*
X020762Y027718D01*
X020012Y028468D02*
X020012Y026328D01*
X019372Y025688D01*
X019262Y025298D01*
X019152Y025688D01*
X018492Y026348D01*
X018132Y026348D01*
X018132Y025948D02*
X017872Y025688D01*
X017762Y025298D01*
X018262Y025298D02*
X018372Y024908D01*
X018372Y024448D01*
X019572Y023248D01*
X020452Y022528D02*
X020162Y022273D01*
X019872Y022028D01*
X019872Y021888D01*
X019512Y021528D01*
X019112Y021748D02*
X019452Y022088D01*
X019452Y022128D01*
X019112Y021748D02*
X019112Y019648D01*
X019104Y019429D01*
X018789Y019429D02*
X018832Y019648D01*
X018832Y020988D01*
X018552Y021268D01*
X018552Y020868D02*
X018552Y019648D01*
X018474Y019429D01*
X019392Y019648D02*
X019392Y019908D01*
X019392Y019648D02*
X019419Y019429D01*
X019992Y019648D02*
X019992Y019948D01*
X019992Y019648D02*
X020049Y019429D01*
X020994Y019429D02*
X021072Y019648D01*
X021072Y019728D01*
X021132Y019788D01*
X023592Y019788D01*
X023592Y018408D01*
X024172Y017828D01*
X024172Y017008D01*
X024312Y016868D01*
X024572Y016880D01*
X024572Y017136D02*
X024832Y017068D01*
X025232Y017068D01*
X022692Y015168D02*
X022692Y013828D01*
X022372Y013508D01*
X021624Y013287D02*
X021692Y013068D01*
X021692Y008588D01*
X022772Y007508D01*
X023052Y009508D02*
X024572Y011028D01*
X023812Y012408D02*
X023632Y012588D01*
X023452Y012588D01*
X021972Y012708D02*
X021972Y014548D01*
X022112Y014548D01*
X022333Y014626D01*
X022333Y014941D02*
X022112Y014948D01*
X021852Y014948D01*
X021572Y014648D02*
X021572Y015488D01*
X022112Y015488D01*
X022333Y015570D01*
X022333Y015256D02*
X022552Y015168D01*
X022692Y015168D01*
X017844Y013287D02*
X017762Y013058D01*
X017762Y012808D01*
X016962Y012008D01*
X016962Y003358D01*
X016562Y002958D01*
X011562Y002958D01*
X011262Y002658D01*
X008762Y002658D01*
X008512Y002508D01*
X007512Y003508D02*
X007662Y003758D01*
X007662Y003958D01*
X012062Y003958D01*
X012962Y004858D01*
X012962Y012058D01*
X013662Y012758D01*
X013662Y013858D01*
X014662Y013858D01*
X014662Y018358D01*
X015962Y018358D01*
X016191Y018405D01*
X016191Y018090D02*
X015962Y018008D01*
X015262Y018008D01*
X015262Y011908D01*
X014962Y011608D01*
X013112Y011608D01*
X013112Y004758D01*
X011412Y003058D01*
X006962Y003058D01*
X006662Y002758D01*
X006512Y002508D01*
X006962Y003058D02*
X006962Y007858D01*
X005512Y007858D01*
X005363Y007892D01*
X005363Y008148D02*
X005512Y008158D01*
X005812Y008158D01*
X005812Y008508D01*
X005512Y008458D02*
X005363Y008404D01*
X005512Y008458D02*
X005512Y008658D01*
X008962Y012108D01*
X010852Y013088D02*
X010972Y013088D01*
X010972Y011168D01*
X011672Y010468D01*
X012052Y010358D01*
X012052Y010858D02*
X012432Y010748D01*
X012812Y010368D01*
X012812Y005228D01*
X012472Y004888D01*
X012194Y004758D01*
X012194Y005758D02*
X011912Y005858D01*
X010912Y006858D01*
X010912Y009058D01*
X009862Y008443D02*
X009612Y008658D01*
X009612Y008858D01*
X008662Y008858D01*
X008412Y008608D01*
X008412Y007908D01*
X007812Y007908D01*
X007661Y007892D01*
X007661Y008148D02*
X007512Y008108D01*
X007212Y008108D01*
X007212Y008058D01*
X006912Y008358D02*
X007512Y008358D01*
X007661Y008404D01*
X007812Y007658D02*
X007661Y007636D01*
X007812Y007658D02*
X008562Y007658D01*
X008562Y008108D01*
X008762Y008308D01*
X009012Y008443D01*
X009012Y007773D02*
X008762Y007558D01*
X008762Y007408D01*
X007812Y007408D01*
X007661Y007380D01*
X007661Y007124D02*
X007812Y007108D01*
X008762Y007108D01*
X008762Y007058D01*
X009012Y006843D01*
X008562Y006558D02*
X008562Y006508D01*
X008762Y006308D01*
X009012Y006173D01*
X008562Y006558D02*
X007812Y006558D01*
X007661Y006612D01*
X007661Y006868D02*
X007512Y006858D01*
X007312Y006858D01*
X007312Y006508D01*
X008062Y005758D01*
X009612Y005758D01*
X009612Y005958D01*
X009862Y006173D01*
X006212Y006558D02*
X006212Y007608D01*
X005512Y007608D01*
X005363Y007636D01*
X005363Y007380D02*
X005212Y007408D01*
X004912Y007408D01*
X004912Y007508D01*
X005212Y007158D02*
X004562Y007158D01*
X004562Y008158D01*
X004212Y008508D01*
X003762Y008508D01*
X003512Y008658D01*
X005212Y007158D02*
X005363Y007124D01*
X011412Y011458D02*
X011662Y011458D01*
X012052Y011358D01*
X012052Y010858D02*
X012432Y010968D01*
X012572Y011108D01*
X012572Y012308D01*
X012792Y012308D01*
X013292Y012808D01*
X012912Y012808D02*
X012912Y014108D01*
X014512Y014108D01*
X014512Y019908D01*
X014212Y018958D02*
X014212Y023408D01*
X013512Y023408D01*
X013162Y023758D01*
X013162Y024908D01*
X013262Y025191D01*
X012892Y025468D02*
X012762Y025191D01*
X012632Y024908D01*
X012492Y024768D01*
X009932Y024768D01*
X009932Y030188D01*
X008532Y031588D01*
X005652Y031588D01*
X005652Y031728D01*
X005512Y032008D01*
X006512Y032008D02*
X006792Y032148D01*
X007092Y032448D01*
X012212Y032448D01*
X012212Y029988D01*
X012232Y029968D01*
X010992Y028728D01*
X010992Y026608D01*
X012132Y025468D01*
X012262Y025191D01*
X012392Y025468D01*
X012392Y025508D01*
X012612Y025728D01*
X012892Y025468D02*
X012892Y026208D01*
X013612Y026928D01*
X013392Y027548D02*
X013262Y027825D01*
X013392Y027548D02*
X015372Y025568D01*
X015372Y025448D01*
X016612Y025808D02*
X016612Y024008D01*
X015332Y022728D01*
X014732Y022128D02*
X014732Y021768D01*
X015692Y020808D01*
X015692Y020388D01*
X016552Y019528D01*
X016552Y018428D01*
X016952Y018028D01*
X016952Y016908D01*
X016412Y016908D01*
X016191Y016830D01*
X016191Y016515D02*
X016412Y016588D01*
X017032Y016588D01*
X017312Y016288D02*
X016412Y016288D01*
X016191Y016200D01*
X016191Y015570D02*
X015962Y015508D01*
X015712Y015508D01*
X016191Y015256D02*
X016412Y015248D01*
X017012Y015248D01*
X017012Y015768D01*
X016672Y014868D02*
X016412Y014868D01*
X016191Y014941D01*
X016672Y014868D02*
X016672Y014108D01*
X016191Y013996D02*
X015972Y013888D01*
X015812Y013728D01*
X015812Y005708D01*
X015492Y005388D01*
X015112Y005388D01*
X014829Y005258D01*
X014552Y005388D01*
X014412Y005528D01*
X014412Y009748D01*
X014472Y009858D01*
X014852Y009968D01*
X014992Y010108D01*
X014992Y011108D01*
X014852Y011248D01*
X014472Y011358D01*
X014472Y010858D02*
X014112Y010958D01*
X013812Y010958D01*
X013832Y010468D02*
X014092Y010468D01*
X014472Y010358D01*
X015512Y009008D02*
X015262Y008758D01*
X015262Y006508D01*
X015112Y006358D01*
X014829Y006258D01*
X014472Y011858D02*
X014852Y011968D01*
X014992Y012108D01*
X014992Y014648D01*
X014972Y014668D01*
X015712Y014228D02*
X015712Y014108D01*
X015712Y014228D02*
X015972Y014228D01*
X016191Y014311D01*
X014472Y012358D02*
X014112Y012458D01*
X013812Y012458D01*
X013812Y012508D01*
X012912Y012808D02*
X012412Y012808D01*
X012052Y012858D01*
X012052Y012358D02*
X012432Y012308D01*
X012572Y012308D01*
X012052Y011858D02*
X011672Y011868D01*
X011432Y012108D01*
X015712Y017058D02*
X015962Y017058D01*
X016191Y017145D01*
X016191Y017460D02*
X015962Y017458D01*
X015712Y017458D01*
X016191Y017775D02*
X016412Y017848D01*
X016672Y017848D01*
X016672Y017888D01*
X020452Y022528D02*
X023252Y022528D01*
X025632Y024908D01*
X025762Y025191D01*
X025892Y025188D01*
X026132Y025188D01*
X026262Y025191D01*
X025262Y025191D02*
X025132Y025468D01*
X025132Y025728D01*
X024772Y025728D01*
X024632Y025468D02*
X024762Y025191D01*
X024632Y024908D01*
X024632Y024768D01*
X023532Y024768D01*
X023392Y024908D01*
X023262Y025191D01*
X022892Y025468D02*
X022762Y025191D01*
X022892Y025468D02*
X023152Y025728D01*
X022412Y026468D01*
X023152Y025728D02*
X023432Y026008D01*
X024272Y026008D01*
X024272Y025468D01*
X024262Y025191D01*
X024632Y025468D02*
X024432Y025668D01*
X024432Y026308D01*
X023992Y025728D02*
X023992Y025568D01*
X023892Y025468D01*
X023762Y025191D01*
X025892Y027548D02*
X026152Y027288D01*
X025892Y027548D02*
X025762Y027825D01*
X028972Y027628D02*
X028972Y024668D01*
X029232Y024408D01*
X029362Y024128D01*
X029862Y024128D02*
X029992Y024408D01*
X030312Y024728D01*
X030312Y025588D01*
X031672Y024668D02*
X031732Y024608D01*
X031732Y024408D01*
X031862Y024128D01*
X032362Y024128D01*
X031952Y024968D02*
X032732Y025748D01*
X032732Y027608D01*
X032862Y027888D01*
X032732Y028168D01*
X032192Y028708D01*
X031232Y028708D01*
X031232Y029728D01*
X029652Y031308D01*
X029512Y032008D01*
X026732Y031168D02*
X025652Y031168D01*
X025652Y031308D01*
X025512Y032008D01*
X024652Y031008D02*
X026392Y031008D01*
X029232Y028168D01*
X029362Y027888D01*
X029732Y028168D02*
X029862Y027888D01*
X029732Y028168D02*
X026732Y031168D01*
X024652Y031308D02*
X024512Y032008D01*
X024652Y031308D02*
X024652Y031008D01*
X021262Y029673D02*
X020972Y029428D01*
X020012Y028468D01*
X019372Y028108D02*
X019262Y027718D01*
X019152Y027328D01*
X018892Y027068D01*
X018762Y027718D02*
X018812Y028108D01*
X018812Y029673D01*
X019092Y029928D01*
X019352Y029928D01*
X019772Y029428D02*
X020062Y029673D01*
X019772Y029428D02*
X019372Y029028D01*
X019372Y028108D01*
X018262Y027718D02*
X018152Y028108D01*
X018152Y029168D01*
X017892Y029428D01*
X017612Y029673D01*
X017332Y029928D01*
X017192Y029928D01*
X017192Y030648D01*
X018172Y031628D01*
X018512Y032008D01*
X017512Y032008D02*
X017372Y031308D01*
X017032Y030968D01*
X017032Y028728D01*
X017652Y028108D01*
X017762Y027718D01*
X016412Y029673D02*
X016132Y029908D01*
X015872Y029908D01*
X015212Y029673D02*
X014932Y029928D01*
X014672Y029928D01*
X014012Y029723D02*
X013732Y029968D01*
X013732Y030008D01*
X012272Y030008D01*
X012232Y029968D01*
X010092Y030288D02*
X008652Y031728D01*
X008512Y032008D01*
X010092Y030288D02*
X010092Y026508D01*
X011132Y025468D01*
X011262Y025191D01*
X011632Y025468D02*
X011762Y025191D01*
X011632Y025468D02*
X010372Y026728D01*
X010372Y027188D01*
X009152Y027288D02*
X008892Y027548D01*
X008762Y027825D01*
X007762Y027825D02*
X007662Y027558D01*
X007312Y027208D01*
X006662Y027208D01*
X006662Y026808D01*
X005862Y026008D01*
X004812Y026008D01*
X004812Y022908D01*
X004912Y022908D01*
X004912Y022508D01*
X004812Y022508D01*
X004312Y022008D01*
X004612Y022708D02*
X004612Y027558D01*
X005662Y027558D01*
X005762Y027825D01*
X006362Y027258D02*
X006662Y027558D01*
X006762Y027825D01*
X006762Y025191D02*
X006892Y025188D01*
X007132Y025188D01*
X007262Y025191D01*
X007392Y024908D01*
X007392Y024668D01*
X008012Y024668D01*
X008332Y024908D02*
X008262Y025191D01*
X008132Y025188D01*
X007892Y025188D01*
X007762Y025191D01*
X008332Y024908D02*
X008332Y023968D01*
X008752Y023968D01*
X009392Y024908D02*
X009262Y025191D01*
X009132Y025188D01*
X008892Y025188D01*
X008762Y025191D01*
X009392Y024908D02*
X009652Y024908D01*
X006392Y024908D02*
X006392Y023288D01*
X006472Y023288D01*
X006392Y024908D02*
X006262Y025191D01*
X006132Y025188D01*
X005892Y025188D01*
X005762Y025191D01*
X003962Y025158D02*
X003562Y025558D01*
X002962Y025558D01*
X002962Y026458D01*
X002662Y026758D01*
X002512Y027008D01*
X002062Y027458D02*
X002062Y021558D01*
X002362Y021258D01*
X002512Y021008D01*
X002962Y023458D02*
X002662Y023758D01*
X002512Y024008D01*
X002962Y023458D02*
X002962Y015758D01*
X003212Y015508D01*
X003962Y016708D02*
X003962Y025158D01*
X003512Y025008D02*
X003512Y024008D01*
X003512Y026008D02*
X003512Y027008D01*
X003912Y027458D02*
X002062Y027458D01*
X003962Y016708D02*
X004812Y015858D01*
X026232Y020588D02*
X026232Y020848D01*
X026256Y021008D01*
X029762Y018507D02*
X030112Y018668D01*
X030832Y018668D01*
X031152Y018668D01*
X031262Y018984D01*
X030896Y023008D02*
X030912Y023288D01*
X030912Y023848D01*
X030862Y024128D01*
X030362Y024128D02*
X030232Y023848D01*
X030232Y023288D01*
X030227Y023008D01*
X031672Y027348D02*
X031732Y027408D01*
X031732Y027608D01*
X031862Y027888D01*
X032362Y027888D01*
X030862Y027888D02*
X030852Y028168D01*
X030852Y028728D01*
X030846Y029008D01*
X030177Y029008D02*
X030232Y028728D01*
X030232Y028168D01*
X030362Y027888D01*
X030382Y011013D02*
X030292Y010968D01*
X029352Y010968D01*
X030312Y011008D02*
X030382Y011013D01*
D40*
X031352Y010288D03*
X029352Y010968D03*
X028012Y011508D03*
X027972Y011948D03*
X028092Y012628D03*
X028912Y012758D03*
X027492Y014108D03*
X027892Y014188D03*
X026712Y014858D03*
X025332Y016048D03*
X024052Y016348D03*
X023652Y016748D03*
X023452Y015908D03*
X023712Y015558D03*
X021852Y014948D03*
X021572Y014648D03*
X021292Y013848D03*
X022372Y013508D03*
X022862Y013008D03*
X023452Y013228D03*
X023452Y012588D03*
X024052Y012128D03*
X024572Y011028D03*
X026932Y011888D03*
X026932Y012288D03*
X026932Y013048D03*
X028312Y016408D03*
X028012Y017058D03*
X026932Y016928D03*
X026372Y016888D03*
X026932Y017708D03*
X025632Y020548D03*
X026232Y020588D03*
X021962Y019058D03*
X019992Y019948D03*
X019392Y019908D03*
X018552Y020868D03*
X018552Y021268D03*
X019512Y021528D03*
X019452Y022128D03*
X019572Y023248D03*
X018152Y022648D03*
X016892Y024948D03*
X016892Y025688D03*
X018132Y025948D03*
X018132Y026348D03*
X018892Y027068D03*
X020372Y025948D03*
X020452Y026428D03*
X022412Y026468D03*
X023992Y025728D03*
X024432Y026308D03*
X024772Y025728D03*
X026152Y027288D03*
X028972Y027628D03*
X030312Y025588D03*
X031672Y024668D03*
X031952Y024968D03*
X031672Y027348D03*
X030832Y018668D03*
X021972Y012708D03*
X022262Y009608D03*
X022772Y007508D03*
X020652Y006408D03*
X018162Y008658D03*
X015512Y009008D03*
X013832Y010468D03*
X013812Y010958D03*
X013812Y012508D03*
X013292Y012808D03*
X011432Y012108D03*
X011412Y011458D03*
X010852Y013088D03*
X008962Y012108D03*
X010912Y009058D03*
X007212Y008058D03*
X006912Y008358D03*
X005812Y008508D03*
X004912Y007508D03*
X006212Y006558D03*
X014972Y014668D03*
X015712Y014108D03*
X016672Y014108D03*
X017012Y015768D03*
X017032Y016588D03*
X015712Y017058D03*
X015712Y017458D03*
X016672Y017888D03*
X017312Y018948D03*
X014512Y019908D03*
X014212Y018958D03*
X014732Y022128D03*
X015332Y022728D03*
X015372Y025448D03*
X013612Y026928D03*
X012612Y025728D03*
X010372Y027188D03*
X009152Y027288D03*
X009652Y024908D03*
X008752Y023968D03*
X008012Y024668D03*
X006472Y023288D03*
X004612Y022708D03*
X004312Y022008D03*
X006362Y027258D03*
X003912Y027458D03*
X014672Y029928D03*
X015872Y029908D03*
X019352Y029928D03*
X004812Y015858D03*
X003212Y015508D03*
X015712Y015508D03*
X018562Y015208D03*
X029512Y006888D03*
M02*
