%
M48
M72
T01C0.0160
T02C0.0240
T03C0.0320
T04C0.0400
T05C0.0472
T06C0.1250
%
T01
X6212Y6558
X4912Y7508
X5812Y8508
X6912Y8358
X7212Y8058
X10912Y9058
X11412Y11458
X11432Y12108
X10852Y13088
X8962Y12108
X13292Y12808
X13812Y12508
X13812Y10958
X13832Y10468
X15512Y9008
X18162Y8658
X20652Y6408
X22772Y7508
X22262Y9608
X24572Y11028
X24052Y12128
X23452Y12588
X22862Y13008
X23452Y13228
X22372Y13508
X21972Y12708
X21292Y13848
X21572Y14648
X21852Y14948
X23452Y15908
X23712Y15558
X24052Y16348
X23652Y16748
X25332Y16048
X26372Y16888
X26932Y16928
X26932Y17708
X28012Y17058
X28312Y16408
X26712Y14858
X27492Y14108
X27892Y14188
X26932Y13048
X26932Y12288
X26932Y11888
X27972Y11948
X28012Y11508
X28092Y12628
X28912Y12758
X29352Y10968
X31352Y10288
X29512Y6888
X18562Y15208
X17012Y15768
X17032Y16588
X15712Y17058
X15712Y17458
X16672Y17888
X17312Y18948
X18552Y20868
X18552Y21268
X19512Y21528
X19452Y22128
X19572Y23248
X18152Y22648
X16892Y24948
X16892Y25688
X18132Y25948
X18132Y26348
X18892Y27068
X20372Y25948
X20452Y26428
X22412Y26468
X23992Y25728
X24432Y26308
X24772Y25728
X26152Y27288
X28972Y27628
X30312Y25588
X31672Y24668
X31952Y24968
X31672Y27348
X26232Y20588
X25632Y20548
X21962Y19058
X19992Y19948
X19392Y19908
X15332Y22728
X14732Y22128
X14512Y19908
X14212Y18958
X15712Y15508
X14972Y14668
X15712Y14108
X16672Y14108
X6472Y23288
X8012Y24668
X8752Y23968
X9652Y24908
X10372Y27188
X9152Y27288
X6362Y27258
X3912Y27458
X4612Y22708
X4312Y22008
X4812Y15858
X3212Y15508
X12612Y25728
X13612Y26928
X15372Y25448
X15872Y29908
X14672Y29928
X19352Y29928
X30832Y18668
T02
X27352Y18528
X25992Y19288
X24772Y19768
X25132Y17388
X25552Y16668
X24352Y15488
X24752Y14968
X24012Y12888
X20112Y12168
X18372Y11788
X14312Y13408
X16872Y18908
X16992Y19948
X19832Y20408
X19962Y21508
X15662Y24308
X13752Y23988
X16012Y26328
X15812Y30348
X8692Y27248
X7362Y19358
X5862Y6858
X10312Y5658
X11612Y5258
X15412Y5768
X23372Y4088
X24362Y7608
X24352Y8408
X25562Y7708
X28012Y13408
X31512Y14158
X31672Y13668
X28112Y21608
X31312Y23548
T03
X20762Y9858
X18862Y9858
T04
X18512Y3508
X19512Y3508
X20512Y3508
X21512Y3508
X22512Y3508
X23512Y3508
X24512Y3508
X24512Y2508
X23512Y2508
X22512Y2508
X21512Y2508
X20512Y2508
X19512Y2508
X18512Y2508
X17512Y2508
X16512Y2508
X16512Y3508
X17512Y3508
X8512Y3508
X7512Y3508
X7512Y2508
X8512Y2508
X6512Y2508
X6512Y3508
X3512Y6658
X2512Y6658
X2512Y7658
X3512Y7658
X3512Y8658
X2512Y8658
X2512Y9658
X3512Y9658
X3512Y10658
X2512Y10658
X2512Y15008
X3512Y15008
X3512Y16008
X2512Y16008
X2512Y17008
X3512Y17008
X3512Y18008
X2512Y18008
X2512Y19008
X3512Y19008
X3512Y20008
X2512Y20008
X2512Y21008
X3512Y21008
X3512Y22008
X2512Y22008
X2512Y23008
X3512Y23008
X3512Y24008
X2512Y24008
X2512Y25008
X3512Y25008
X3512Y26008
X2512Y26008
X2512Y27008
X3512Y27008
X5512Y31008
X6512Y31008
X6512Y32008
X5512Y32008
X7512Y32008
X8512Y32008
X8512Y31008
X7512Y31008
X35212Y21008
X36212Y21008
X36212Y20008
X36212Y19008
X36212Y18008
X36212Y17008
X36212Y16008
X36212Y15008
X36212Y14008
X36212Y13008
X35212Y13008
X35212Y14008
X35212Y15008
X35212Y16008
X35212Y17008
X35212Y18008
X35212Y19008
X35212Y20008
T05
X32512Y32008
X31512Y32008
X30512Y32008
X29512Y32008
X26512Y32008
X25512Y32008
X24512Y32008
X23512Y32008
X20512Y32008
X19512Y32008
X18512Y32008
X17512Y32008
X16512Y32008
X15512Y32008
X14512Y32008
T06
X3012Y2508
X36012Y2508
X36012Y32008
X3012Y32008
M30
