%
M48
M72
T01C0.1250
T02C0.0320
T03C0.0400
T04C0.0472
T05C0.0160
T06C0.0240
%
T01
X301Y169
X3501Y169
X3501Y3369
X301Y3369
T02
X2366Y1469
X2366Y1369
X2366Y1269
X2366Y1169
X2366Y1069
X2366Y969
X2366Y869
X2366Y769
X2366Y669
X2366Y569
X2666Y569
X2666Y669
X2666Y769
X2666Y869
X2666Y969
X2666Y1069
X2666Y1169
X2666Y1269
X2666Y1369
X2666Y1469
X2091Y1199
X1901Y1199
T03
X2341Y1739
X2341Y1839
X2441Y1839
X2541Y1839
X2541Y1739
X2441Y1739
X3451Y984
X3451Y884
X3451Y784
X3451Y684
X3451Y584
X3551Y584
X3551Y684
X3551Y784
X3551Y884
X3551Y984
X3001Y369
X2901Y369
X2801Y369
X2351Y369
X2251Y369
X2151Y369
X1701Y369
X1601Y369
X1501Y369
X351Y569
X351Y669
X251Y669
X251Y569
X251Y769
X251Y869
X251Y969
X351Y969
X351Y869
X351Y769
X351Y1369
X251Y1369
X251Y1469
X251Y1569
X251Y1669
X251Y1769
X251Y1869
X251Y1969
X251Y2069
X251Y2169
X251Y2269
X351Y2269
X351Y2169
X351Y2069
X351Y1969
X351Y1869
X351Y1769
X351Y1669
X351Y1569
X351Y1469
X351Y2669
X351Y2769
X251Y2769
X251Y2669
X251Y2869
X251Y2969
X351Y2969
X351Y2869
T04
X3501Y2819
X3501Y2719
X3501Y2519
X3501Y2419
X3501Y2319
X3501Y2219
X3501Y1969
X3501Y1869
X3501Y1769
X3501Y1669
X3501Y1569
X3501Y1469
X3501Y1369
X3501Y2919
X3501Y3019
T05
X3251Y2774
X3076Y2629
X3056Y2569
X3151Y2584
X3286Y2499
X3316Y2529
X3036Y2704
X2926Y2799
X2876Y2914
X2926Y2944
X2976Y2944
X3036Y2974
X3096Y3014
X2956Y3014
X2816Y2914
X2756Y2984
X2776Y3154
X2741Y3424
X2871Y3419
X2451Y3159
X2401Y3104
X2361Y3174
X2286Y3259
X2381Y3354
X2091Y3139
X1956Y3039
X1796Y2964
X1766Y2934
X1826Y2854
X2006Y2769
X1986Y2654
X2036Y2654
X2116Y2684
X2306Y2694
X2316Y2624
X2356Y2624
X2406Y2539
X2496Y2669
X2576Y2529
X2606Y2499
X2546Y2384
X2676Y2384
X2851Y2424
X2901Y2539
X2866Y2579
X2846Y2639
X2741Y2579
X2691Y2644
X2726Y2754
X2626Y2849
X2436Y2879
X2436Y2924
X2396Y3014
X2336Y2924
X2221Y2964
X2086Y2894
X1926Y2629
X1886Y2629
X1826Y2614
X1851Y2554
X1806Y2519
X1766Y2519
X1661Y2519
X1616Y2519
X1661Y2434
X1616Y2404
X1611Y2299
X1746Y2199
X1776Y2229
X1816Y2229
X1856Y2229
X1776Y2299
X1766Y2344
X1921Y2374
X2001Y2299
X1951Y2209
X1986Y2074
X2031Y2059
X2106Y2024
X2136Y2059
X2171Y2089
X2211Y2094
X2316Y2069
X2301Y2029
X2256Y1949
X2256Y1909
X2286Y1849
X2256Y1809
X2151Y1794
X2136Y1709
X2061Y1694
X2011Y1629
X2076Y1574
X2016Y1464
X1971Y1444
X1886Y1439
X1916Y1369
X1891Y1334
X1821Y1319
X1781Y1309
X1646Y1244
X1591Y1229
X1561Y1259
X1521Y1249
X1561Y1419
X1591Y1464
X1531Y1504
X1446Y1474
X1416Y1429
X1446Y1564
X1446Y1604
X1431Y1664
X1411Y1724
X1431Y1784
X1461Y1814
X1476Y1854
X1536Y1834
X1546Y1899
X1546Y1964
X1546Y2019
X1481Y2094
X1411Y2104
X1411Y2044
X1421Y2229
X1456Y2359
X1481Y2444
X1426Y2519
X1376Y2539
X1446Y2649
X1511Y2649
X1596Y2724
X1566Y2759
X1511Y2759
X1396Y2759
X1346Y2789
X1396Y2849
X1436Y2894
X1336Y2969
X1296Y2969
X1316Y3084
X1476Y3119
X1521Y3114
X1516Y3024
X1566Y2949
X1646Y3009
X1736Y3114
X1596Y3164
X1736Y3344
X1896Y3294
X1936Y3284
X1301Y3419
X1021Y3424
X881Y3419
X1006Y3164
X1141Y3149
X1116Y2984
X1056Y2954
X986Y2924
X881Y3024
X806Y3124
X716Y3029
X686Y2954
X831Y2864
X996Y2759
X1046Y2759
X1001Y2649
X951Y2659
X971Y2509
X941Y2479
X1071Y2489
X1106Y2649
X1146Y2649
X1176Y2759
X1131Y2889
X1406Y2664
X1716Y2664
X1756Y2649
X1801Y2694
X1891Y2504
X2046Y2434
X2086Y2404
X1791Y2074
X1766Y2039
X1676Y2004
X1776Y1909
X1886Y1829
X1716Y1669
X1676Y1669
X1646Y1739
X1706Y1739
X1776Y1639
X1776Y1599
X1746Y1564
X1706Y1569
X1646Y1589
X1751Y1464
X1646Y1419
X1821Y1564
X1861Y1564
X1856Y1639
X2061Y1784
X2061Y1824
X2061Y1939
X2156Y1954
X1886Y2039
X1546Y1759
X1506Y1769
X1521Y1699
X1246Y1329
X1221Y1249
X1061Y1089
X991Y1134
X986Y1044
X986Y994
X1046Y954
X1026Y894
X1161Y924
X1191Y894
X1191Y854
X1221Y984
X1251Y1014
X1356Y859
X1386Y809
X1501Y859
X1531Y829
X1536Y769
X1716Y674
X1756Y654
X1781Y894
X1861Y919
X1926Y919
X1976Y919
X2026Y919
X2151Y919
X2141Y824
X2136Y719
X2136Y624
X2271Y624
X2431Y819
X2246Y889
X2236Y979
X2191Y1079
X2331Y1219
X2281Y1249
X2241Y1249
X2211Y1309
X2311Y1324
X2171Y1389
X2166Y1429
X2136Y1464
X2196Y1539
X2236Y1539
X2271Y1629
X2401Y1619
X2401Y1579
X2481Y1539
X2541Y1509
X2636Y1524
X2771Y1554
X2761Y1429
X2586Y1364
X2511Y1129
X2431Y1119
X1986Y1039
X1921Y1079
X1851Y1069
X1776Y1104
X1821Y979
X1911Y1009
X1631Y989
X1411Y1099
X1281Y719
X1191Y744
X1166Y644
X1071Y719
X916Y634
X896Y774
X741Y774
X656Y759
X656Y719
X686Y664
X656Y614
X726Y604
X611Y554
X521Y524
X451Y659
X481Y754
X421Y799
X401Y904
X611Y829
X651Y999
X646Y1044
X826Y969
X856Y1044
X891Y1189
X751Y1259
X691Y1294
X646Y1259
X571Y1254
X541Y1284
X616Y1404
X636Y1454
X711Y1434
X406Y1339
X1101Y494
X1061Y419
X1226Y419
X801Y329
X771Y269
X566Y209
X506Y269
X2006Y1319
X2446Y1684
X2511Y1669
X2586Y1704
X2631Y1754
X2631Y1839
X2566Y1909
X2566Y1969
X2531Y2009
X2476Y1939
X2436Y1979
X2561Y2094
X2556Y2209
X2811Y2034
X2786Y1999
X2871Y1999
X2826Y1839
X2761Y1809
X2781Y1689
X2721Y1679
X2901Y1669
X2951Y1769
X3031Y1669
X3071Y1739
X3141Y1669
X3071Y1819
X3266Y1984
X3326Y1924
X3346Y1699
X3316Y1589
X3196Y1489
X3156Y1489
X3151Y1319
X3121Y1229
X3161Y1064
X3256Y1054
X3316Y949
X3311Y874
X3271Y724
X2976Y739
X2816Y594
X2241Y269
X2961Y1524
X2916Y1554
X3571Y2269
X731Y2629
X686Y2654
X546Y2714
X471Y2654
X486Y2569
X471Y2479
X496Y2429
X411Y2349
X366Y2459
X306Y2479
X366Y2569
X471Y2774
X561Y2824
X561Y2864
X531Y2974
X516Y3069
X336Y3154
X526Y2314
X381Y2219
T06
X456Y2154
X521Y2194
X521Y2244
X651Y2244
X701Y2244
X751Y2244
X751Y2194
X751Y2144
X751Y2094
X751Y2044
X751Y1994
X751Y1944
X751Y1894
X751Y1844
X751Y1794
X811Y1749
X921Y1754
X981Y1754
X981Y1699
X956Y1559
X1076Y1559
X1151Y1544
X1151Y1594
X1151Y1644
X1151Y1694
X1151Y1744
X1151Y1794
X1151Y1844
X1151Y1894
X1151Y1944
X1101Y1944
X1101Y1894
X1101Y1994
X1101Y2044
X1101Y2094
X1101Y2144
X1101Y2194
X1051Y2194
X1001Y2194
X951Y2194
X901Y2194
X851Y2194
X801Y2194
X801Y2144
X801Y2094
X801Y2044
X801Y1994
X801Y1944
X801Y1894
X741Y1649
X691Y1649
X691Y1599
X641Y1549
X591Y1499
X541Y1449
X491Y1449
X491Y1399
X526Y1334
X491Y1499
X491Y1549
X491Y1599
X491Y1649
X541Y1649
X591Y1649
X641Y1649
X801Y1544
X816Y1369
X741Y1354
X501Y1819
X801Y2244
X851Y2244
X901Y2244
X951Y2244
X1001Y2244
X1051Y2244
X1101Y2244
X1151Y2244
X1201Y2244
X1251Y2244
X1151Y2194
X1151Y2144
X1151Y2094
X1151Y2044
X1151Y1994
X1336Y1979
X1336Y1929
X1336Y1879
X1566Y2154
X1341Y2284
X1236Y2374
X1186Y2374
X1136Y2374
X1086Y2374
X1036Y2374
X986Y2374
X936Y2374
X696Y2469
X476Y2384
X1186Y2484
X1356Y1429
X1301Y1329
X1486Y1329
X1486Y1399
X1711Y1424
X1711Y1319
X1666Y934
X736Y349
X2871Y2074
X2876Y2144
X2876Y2194
X2936Y2169
X2976Y2144
X2976Y2194
X3026Y2194
X3066Y2169
X3026Y2144
X3111Y2144
X3111Y2194
X3161Y2194
X3161Y2144
X3416Y2084
X3251Y2459
X3076Y2759
X3001Y2759
X2776Y2759
X2971Y1464
M30
