G75*
G70*
%OFA0B0*%
%FSLAX24Y24*%
%IPPOS*%
%LPD*%
%AMOC8*
5,1,8,0,0,1.08239X$1,22.5*
%
%ADD10R,0.0220X0.0470*%
%ADD11R,0.0470X0.0220*%
%ADD12R,0.0354X0.0276*%
%ADD13C,0.0520*%
%ADD14R,0.0394X0.0394*%
%ADD15C,0.0600*%
%ADD16OC8,0.0600*%
%ADD17R,0.0260X0.0800*%
%ADD18O,0.0600X0.1200*%
%ADD19R,0.0276X0.0354*%
%ADD20R,0.0512X0.0591*%
%ADD21R,0.0472X0.0472*%
%ADD22R,0.0591X0.0512*%
%ADD23R,0.0300X0.0600*%
%ADD24R,0.0236X0.0866*%
%ADD25R,0.0276X0.0591*%
%ADD26R,0.0866X0.0236*%
%ADD27R,0.0217X0.0472*%
%ADD28R,0.0250X0.0500*%
%ADD29R,0.0500X0.0250*%
%ADD30R,0.0240X0.0870*%
%ADD31O,0.1417X0.0709*%
%ADD32C,0.0148*%
%ADD33R,0.0709X0.0630*%
%ADD34O,0.1040X0.0520*%
%ADD35R,0.2126X0.2441*%
%ADD36R,0.0394X0.0630*%
%ADD37C,0.0160*%
%ADD38C,0.0240*%
%ADD39C,0.0100*%
%ADD40C,0.0320*%
%ADD41C,0.0400*%
%ADD42C,0.0400*%
%ADD43C,0.0070*%
%ADD44C,0.0220*%
D10*
X016650Y015121D03*
X016965Y015121D03*
X017280Y015121D03*
X017594Y015121D03*
X017909Y015121D03*
X018224Y015121D03*
X018539Y015121D03*
X018854Y015121D03*
X019169Y015121D03*
X019484Y015121D03*
X019799Y015121D03*
X020114Y015121D03*
X020429Y015121D03*
X020744Y015121D03*
X021059Y015121D03*
X021374Y015121D03*
X021374Y021262D03*
X021059Y021262D03*
X020744Y021262D03*
X020429Y021262D03*
X020114Y021262D03*
X019799Y021262D03*
X019484Y021262D03*
X019169Y021262D03*
X018854Y021262D03*
X018539Y021262D03*
X018224Y021262D03*
X017909Y021262D03*
X017594Y021262D03*
X017280Y021262D03*
X016965Y021262D03*
X016650Y021262D03*
D11*
X015941Y020554D03*
X015941Y020239D03*
X015941Y019924D03*
X015941Y019609D03*
X015941Y019294D03*
X015941Y018979D03*
X015941Y018664D03*
X015941Y018349D03*
X015941Y018034D03*
X015941Y017719D03*
X015941Y017404D03*
X015941Y017089D03*
X015941Y016774D03*
X015941Y016459D03*
X015941Y016144D03*
X015941Y015829D03*
X022083Y015829D03*
X022083Y016144D03*
X022083Y016459D03*
X022083Y016774D03*
X022083Y017089D03*
X022083Y017404D03*
X022083Y017719D03*
X022083Y018034D03*
X022083Y018349D03*
X022083Y018664D03*
X022083Y018979D03*
X022083Y019294D03*
X022083Y019609D03*
X022083Y019924D03*
X022083Y020239D03*
X022083Y020554D03*
D12*
X017312Y022486D03*
X017312Y022997D03*
X016562Y022997D03*
X016562Y022486D03*
X008412Y026936D03*
X008412Y027447D03*
X022162Y032586D03*
X022162Y033097D03*
X027362Y027147D03*
X027362Y026636D03*
X021262Y013997D03*
X021262Y013486D03*
X020462Y013486D03*
X020462Y013997D03*
X017612Y008397D03*
X017612Y007886D03*
X017612Y007447D03*
X017612Y006936D03*
X012212Y010886D03*
X012212Y011397D03*
D13*
X019012Y011991D03*
X020912Y011991D03*
D14*
X015562Y022398D03*
X015562Y023185D03*
D15*
X023412Y017391D03*
D16*
X024412Y017391D03*
X025412Y017391D03*
X025412Y018391D03*
X024412Y018391D03*
X023412Y018391D03*
X034512Y009841D03*
X034512Y008841D03*
X034512Y007841D03*
X034512Y006841D03*
X034512Y005841D03*
X035512Y005841D03*
X035512Y006841D03*
X035512Y007841D03*
X035512Y008841D03*
X035512Y009841D03*
X003512Y009691D03*
X003512Y008691D03*
X003512Y007691D03*
X003512Y006691D03*
X003512Y005691D03*
X002512Y005691D03*
X002512Y006691D03*
X002512Y007691D03*
X002512Y008691D03*
X002512Y009691D03*
X002512Y013691D03*
X003512Y013691D03*
X003512Y014691D03*
X002512Y014691D03*
X002512Y015691D03*
X003512Y015691D03*
X003512Y016691D03*
X003512Y017691D03*
X002512Y017691D03*
X002512Y016691D03*
X002512Y018691D03*
X003512Y018691D03*
X003512Y019691D03*
X002512Y019691D03*
X002512Y020691D03*
X003512Y020691D03*
X003512Y021691D03*
X003512Y022691D03*
X002512Y022691D03*
X002512Y021691D03*
X002512Y026691D03*
X002512Y027691D03*
X003512Y027691D03*
X003512Y026691D03*
X003512Y028691D03*
X002512Y028691D03*
X002512Y029691D03*
X003512Y029691D03*
D17*
X009362Y028251D03*
X009862Y028251D03*
X010362Y028251D03*
X010862Y028251D03*
X011362Y028251D03*
X011862Y028251D03*
X012362Y028251D03*
X012862Y028251D03*
X014362Y028251D03*
X014862Y028251D03*
X015362Y028251D03*
X015862Y028251D03*
X016362Y028251D03*
X016862Y028251D03*
X017362Y028251D03*
X017862Y028251D03*
X017862Y025831D03*
X017362Y025831D03*
X016862Y025831D03*
X016362Y025831D03*
X015862Y025831D03*
X015362Y025831D03*
X014862Y025831D03*
X014362Y025831D03*
X012862Y025831D03*
X012362Y025831D03*
X011862Y025831D03*
X011362Y025831D03*
X010862Y025831D03*
X010362Y025831D03*
X009862Y025831D03*
X009362Y025831D03*
X013012Y011651D03*
X013512Y011651D03*
X014012Y011651D03*
X014512Y011651D03*
X015012Y011651D03*
X015512Y011651D03*
X016012Y011651D03*
X016012Y009231D03*
X015512Y009231D03*
X015012Y009231D03*
X014512Y009231D03*
X014012Y009231D03*
X013512Y009231D03*
X013012Y009231D03*
X028762Y009961D03*
X029262Y009961D03*
X029762Y009961D03*
X030262Y009961D03*
X030762Y009961D03*
X031262Y009961D03*
X031762Y009961D03*
X032262Y009961D03*
X032262Y013821D03*
X031762Y013821D03*
X031262Y013821D03*
X030762Y013821D03*
X030262Y013821D03*
X029762Y013821D03*
X029262Y013821D03*
X028762Y013821D03*
D18*
X029012Y003691D03*
X030012Y003691D03*
X028012Y003691D03*
X023512Y003691D03*
X022512Y003691D03*
X021512Y003691D03*
X017012Y003691D03*
X016012Y003691D03*
X015012Y003691D03*
D19*
X015106Y005291D03*
X015618Y005291D03*
X011218Y008891D03*
X010706Y008891D03*
X008018Y006641D03*
X007506Y006641D03*
X007506Y013041D03*
X008018Y013041D03*
X017906Y014191D03*
X018418Y014191D03*
X019606Y009641D03*
X020118Y009641D03*
X021556Y008741D03*
X022068Y008741D03*
X022318Y007991D03*
X021806Y007991D03*
X021806Y007241D03*
X022318Y007241D03*
X022168Y005291D03*
X021656Y005291D03*
X028156Y005291D03*
X028668Y005291D03*
X028756Y014891D03*
X029268Y014891D03*
X020518Y022241D03*
X020006Y022241D03*
X017068Y023891D03*
X016556Y023891D03*
D20*
X016846Y030691D03*
X016177Y030691D03*
X016177Y032191D03*
X016846Y032191D03*
X018177Y032191D03*
X018846Y032191D03*
X020177Y032191D03*
X020846Y032191D03*
X020846Y030691D03*
X020177Y030691D03*
X018846Y030691D03*
X018177Y030691D03*
X018177Y033691D03*
X018846Y033691D03*
X020177Y033691D03*
X020846Y033691D03*
X022677Y030691D03*
X023346Y030691D03*
X024677Y030691D03*
X025346Y030691D03*
X027177Y030691D03*
X027846Y030691D03*
X029177Y030691D03*
X029846Y030691D03*
X031177Y030691D03*
X031846Y030691D03*
X031846Y032191D03*
X031177Y032191D03*
X029846Y032191D03*
X029177Y032191D03*
X027846Y032191D03*
X027177Y032191D03*
X027177Y033691D03*
X027846Y033691D03*
X029177Y033691D03*
X029846Y033691D03*
X016846Y033691D03*
X016177Y033691D03*
X014346Y033691D03*
X013677Y033691D03*
X012346Y033691D03*
X011677Y033691D03*
X010346Y033691D03*
X009677Y033691D03*
X008346Y033691D03*
X007677Y033691D03*
X006346Y033691D03*
X005677Y033691D03*
X005677Y032191D03*
X006346Y032191D03*
X007677Y032191D03*
X008346Y032191D03*
X009677Y032191D03*
X010346Y032191D03*
X011677Y032191D03*
X012346Y032191D03*
X013677Y032191D03*
X014346Y032191D03*
X014346Y030691D03*
X013677Y030691D03*
X012346Y030691D03*
X011677Y030691D03*
X010346Y030691D03*
X009677Y030691D03*
X008346Y030691D03*
X007677Y030691D03*
X006346Y030691D03*
X005677Y030691D03*
X005677Y029191D03*
X006346Y029191D03*
X007677Y029191D03*
X008346Y029191D03*
X006346Y027691D03*
X005677Y027691D03*
X005677Y026191D03*
X006346Y026191D03*
X006346Y024691D03*
X005677Y024691D03*
X010577Y005491D03*
X011246Y005491D03*
X026827Y016241D03*
X027496Y016241D03*
X027496Y017441D03*
X026827Y017441D03*
X026827Y018641D03*
X027496Y018641D03*
X029177Y008391D03*
X029846Y008391D03*
X031177Y008391D03*
X031846Y008391D03*
X031846Y006841D03*
X031177Y006841D03*
X029846Y006841D03*
X029177Y006841D03*
D21*
X024812Y020278D03*
X024812Y021105D03*
X023562Y021105D03*
X023562Y020278D03*
D22*
X023562Y022007D03*
X023562Y022676D03*
X024812Y022676D03*
X024812Y022007D03*
X010162Y016326D03*
X010162Y015657D03*
D23*
X028362Y024811D03*
X028862Y024811D03*
X029362Y024811D03*
X029862Y024811D03*
X030362Y024811D03*
X030862Y024811D03*
X031362Y024811D03*
X031862Y024811D03*
X031862Y028571D03*
X031362Y028571D03*
X030862Y028571D03*
X030362Y028571D03*
X029862Y028571D03*
X029362Y028571D03*
X028862Y028571D03*
X028362Y028571D03*
D24*
X029262Y022715D03*
X029762Y022715D03*
X030262Y022715D03*
X030762Y022715D03*
X030762Y020668D03*
X030262Y020668D03*
X029762Y020668D03*
X029262Y020668D03*
X008512Y011884D03*
X008012Y011884D03*
X007512Y011884D03*
X007012Y011884D03*
X006512Y011884D03*
X006512Y008499D03*
X007012Y008499D03*
X007512Y008499D03*
X008012Y008499D03*
X008512Y008499D03*
X008512Y005384D03*
X008012Y005384D03*
X007512Y005384D03*
X007012Y005384D03*
X006512Y005384D03*
X006512Y001999D03*
X007012Y001999D03*
X007512Y001999D03*
X008012Y001999D03*
X008512Y001999D03*
D25*
X028912Y016124D03*
X029412Y016124D03*
X029912Y016124D03*
X030412Y016124D03*
X030912Y016124D03*
X031412Y016124D03*
X031912Y016124D03*
X032412Y016124D03*
X032412Y018759D03*
X031912Y018759D03*
X031412Y018759D03*
X030912Y018759D03*
X030412Y018759D03*
X029912Y018759D03*
X029412Y018759D03*
X028912Y018759D03*
X022862Y025724D03*
X022362Y025724D03*
X021862Y025724D03*
X021362Y025724D03*
X020862Y025724D03*
X020362Y025724D03*
X019862Y025724D03*
X019362Y025724D03*
X019362Y028359D03*
X019862Y028359D03*
X020362Y028359D03*
X020862Y028359D03*
X021362Y028359D03*
X021862Y028359D03*
X022362Y028359D03*
X022862Y028359D03*
D26*
X009205Y011191D03*
X009205Y010691D03*
X009205Y010191D03*
X009205Y009691D03*
X009205Y009191D03*
X005819Y009191D03*
X005819Y009691D03*
X005819Y010191D03*
X005819Y010691D03*
X005819Y011191D03*
X005819Y004691D03*
X005819Y004191D03*
X005819Y003691D03*
X005819Y003191D03*
X005819Y002691D03*
X009205Y002691D03*
X009205Y003191D03*
X009205Y003691D03*
X009205Y004191D03*
X009205Y004691D03*
D27*
X010538Y006680D03*
X010912Y006680D03*
X011286Y006680D03*
X011286Y007703D03*
X010538Y007703D03*
D28*
X023862Y032241D03*
X024362Y032241D03*
X024862Y032241D03*
X024862Y034041D03*
X024362Y034041D03*
X023862Y034041D03*
D29*
X023462Y033141D03*
X025262Y033141D03*
D30*
X025362Y028071D03*
X024862Y028071D03*
X024362Y028071D03*
X025862Y028071D03*
X025862Y026011D03*
X025362Y026011D03*
X024862Y026011D03*
X024362Y026011D03*
D31*
X035012Y025191D03*
X035012Y024191D03*
X035012Y023191D03*
X035012Y022191D03*
X035012Y019691D03*
X035012Y018691D03*
X035012Y017691D03*
X035012Y016691D03*
X035012Y015691D03*
X035012Y014691D03*
X035012Y013691D03*
X035012Y027191D03*
X035012Y028191D03*
X035012Y029191D03*
X035012Y030191D03*
D32*
X020366Y008462D02*
X020318Y008462D01*
X020318Y008510D01*
X020366Y008510D01*
X020366Y008462D01*
X020051Y008462D02*
X020003Y008462D01*
X020003Y008510D01*
X020051Y008510D01*
X020051Y008462D01*
X020051Y008147D02*
X020003Y008147D01*
X020003Y008195D01*
X020051Y008195D01*
X020051Y008147D01*
X019736Y008147D02*
X019688Y008147D01*
X019688Y008195D01*
X019736Y008195D01*
X019736Y008147D01*
X019421Y008147D02*
X019373Y008147D01*
X019373Y008195D01*
X019421Y008195D01*
X019421Y008147D01*
X019421Y008462D02*
X019373Y008462D01*
X019373Y008510D01*
X019421Y008510D01*
X019421Y008462D01*
X019688Y008462D02*
X019736Y008462D01*
X019688Y008462D02*
X019688Y008510D01*
X019736Y008510D01*
X019736Y008462D01*
X019106Y008462D02*
X019058Y008462D01*
X019058Y008510D01*
X019106Y008510D01*
X019106Y008462D01*
X018791Y008147D02*
X018743Y008147D01*
X018743Y008195D01*
X018791Y008195D01*
X018791Y008147D01*
X018791Y007832D02*
X018743Y007832D01*
X018743Y007880D01*
X018791Y007880D01*
X018791Y007832D01*
X018791Y007517D02*
X018743Y007517D01*
X018743Y007565D01*
X018791Y007565D01*
X018791Y007517D01*
X018791Y007203D02*
X018743Y007203D01*
X018743Y007251D01*
X018791Y007251D01*
X018791Y007203D01*
X019058Y007203D02*
X019106Y007203D01*
X019058Y007203D02*
X019058Y007251D01*
X019106Y007251D01*
X019106Y007203D01*
X019106Y007517D02*
X019058Y007517D01*
X019058Y007565D01*
X019106Y007565D01*
X019106Y007517D01*
X019106Y007832D02*
X019058Y007832D01*
X019058Y007880D01*
X019106Y007880D01*
X019106Y007832D01*
X019373Y006888D02*
X019421Y006888D01*
X019373Y006888D02*
X019373Y006936D01*
X019421Y006936D01*
X019421Y006888D01*
X019688Y006888D02*
X019736Y006888D01*
X019688Y006888D02*
X019688Y006936D01*
X019736Y006936D01*
X019736Y006888D01*
X020003Y006888D02*
X020051Y006888D01*
X020003Y006888D02*
X020003Y006936D01*
X020051Y006936D01*
X020051Y006888D01*
X020051Y006573D02*
X020003Y006573D01*
X020003Y006621D01*
X020051Y006621D01*
X020051Y006573D01*
X020318Y006573D02*
X020366Y006573D01*
X020318Y006573D02*
X020318Y006621D01*
X020366Y006621D01*
X020366Y006573D01*
X020633Y006888D02*
X020681Y006888D01*
X020633Y006888D02*
X020633Y006936D01*
X020681Y006936D01*
X020681Y006888D01*
X020681Y007203D02*
X020633Y007203D01*
X020633Y007251D01*
X020681Y007251D01*
X020681Y007203D01*
X020681Y007517D02*
X020633Y007517D01*
X020633Y007565D01*
X020681Y007565D01*
X020681Y007517D01*
X020366Y007517D02*
X020318Y007517D01*
X020318Y007565D01*
X020366Y007565D01*
X020366Y007517D01*
X020366Y007203D02*
X020318Y007203D01*
X020318Y007251D01*
X020366Y007251D01*
X020366Y007203D01*
X020366Y007832D02*
X020318Y007832D01*
X020318Y007880D01*
X020366Y007880D01*
X020366Y007832D01*
X020633Y007832D02*
X020681Y007832D01*
X020633Y007832D02*
X020633Y007880D01*
X020681Y007880D01*
X020681Y007832D01*
X020681Y008147D02*
X020633Y008147D01*
X020633Y008195D01*
X020681Y008195D01*
X020681Y008147D01*
X019736Y006573D02*
X019688Y006573D01*
X019688Y006621D01*
X019736Y006621D01*
X019736Y006573D01*
X019421Y006573D02*
X019373Y006573D01*
X019373Y006621D01*
X019421Y006621D01*
X019421Y006573D01*
X019106Y006573D02*
X019058Y006573D01*
X019058Y006621D01*
X019106Y006621D01*
X019106Y006573D01*
X018791Y006888D02*
X018743Y006888D01*
X018743Y006936D01*
X018791Y006936D01*
X018791Y006888D01*
D33*
X008912Y015440D03*
X008912Y016543D03*
X027262Y020190D03*
X027262Y021293D03*
X027262Y022190D03*
X027262Y023293D03*
D34*
X026662Y014691D03*
X026662Y013691D03*
X026662Y012691D03*
X026662Y011691D03*
X026662Y010691D03*
X026662Y009691D03*
X026662Y008691D03*
X026662Y007691D03*
X026662Y006691D03*
X026662Y005691D03*
X023662Y005691D03*
X023662Y006691D03*
X023662Y007691D03*
X023662Y008691D03*
X023662Y009691D03*
X023662Y010691D03*
X023662Y011691D03*
X023662Y012691D03*
X023662Y013691D03*
X023662Y014691D03*
D35*
X009512Y020276D03*
D36*
X010409Y017402D03*
X008614Y017402D03*
D37*
X008612Y017399D01*
X008612Y017391D01*
X008974Y017314D02*
X009625Y017314D01*
X009608Y017297D02*
X009608Y017297D01*
X009507Y017195D01*
X009452Y017141D01*
X009452Y017063D01*
X009452Y016920D01*
X009452Y016842D01*
X009507Y016788D01*
X009608Y016686D01*
X009663Y016631D01*
X009707Y016631D01*
X009707Y016007D01*
X009687Y015987D01*
X009687Y015705D01*
X010114Y015705D01*
X010114Y015609D01*
X010210Y015609D01*
X010210Y015705D01*
X010637Y015705D01*
X010637Y015987D01*
X010617Y016007D01*
X010617Y016648D01*
X010597Y016668D01*
X010772Y016842D01*
X010772Y017141D01*
X010772Y017551D01*
X010766Y017556D01*
X010766Y017783D01*
X010673Y017877D01*
X010146Y017877D01*
X010053Y017783D01*
X010053Y017554D01*
X010049Y017551D01*
X010049Y017351D01*
X009883Y017351D01*
X009740Y017351D01*
X009663Y017351D01*
X009608Y017297D01*
X009507Y017195D02*
X009507Y017195D01*
X009467Y017156D02*
X009007Y017156D01*
X008972Y017191D02*
X008972Y017242D01*
X008972Y017250D01*
X008974Y017253D01*
X008974Y017551D01*
X008971Y017554D01*
X008971Y017783D01*
X008877Y017877D01*
X008351Y017877D01*
X008284Y017810D01*
X008183Y017851D01*
X008040Y017851D01*
X007908Y017797D01*
X007807Y017695D01*
X007752Y017563D01*
X007752Y017420D01*
X007807Y017288D01*
X007908Y017186D01*
X008040Y017131D01*
X008183Y017131D01*
X008252Y017160D01*
X008252Y016892D01*
X008378Y016766D01*
X008252Y016641D01*
X008252Y016342D01*
X008397Y016197D01*
X008397Y016161D01*
X008491Y016068D01*
X009332Y016068D01*
X009426Y016161D01*
X009426Y016924D01*
X009332Y017018D01*
X009145Y017018D01*
X009061Y017101D01*
X008972Y017191D01*
X008974Y017473D02*
X010049Y017473D01*
X010053Y017631D02*
X008971Y017631D01*
X008964Y017790D02*
X010059Y017790D01*
X010759Y017790D02*
X013817Y017790D01*
X013817Y017861D02*
X013817Y017661D01*
X013931Y017546D01*
X013955Y017523D01*
X013931Y017513D01*
X013841Y017423D01*
X013792Y017305D01*
X013792Y017178D01*
X013817Y017117D01*
X013817Y015322D01*
X012267Y013772D01*
X012267Y013611D01*
X012267Y013549D01*
X012191Y013473D01*
X012142Y013355D01*
X012142Y013228D01*
X012165Y013171D01*
X008328Y013171D01*
X008315Y013184D01*
X008315Y013285D01*
X008222Y013379D01*
X007957Y013379D01*
X007957Y013772D01*
X007843Y013886D01*
X007432Y014297D01*
X007432Y014405D01*
X007383Y014523D01*
X007293Y014613D01*
X007175Y014661D01*
X007048Y014661D01*
X006931Y014613D01*
X006841Y014523D01*
X006792Y014405D01*
X006792Y014387D01*
X006682Y014497D01*
X006682Y014605D01*
X006633Y014723D01*
X006543Y014813D01*
X006425Y014861D01*
X006298Y014861D01*
X006181Y014813D01*
X006091Y014723D01*
X006042Y014605D01*
X006042Y014478D01*
X006091Y014360D01*
X006092Y014359D01*
X005981Y014313D01*
X005891Y014223D01*
X005842Y014105D01*
X005842Y013978D01*
X005891Y013860D01*
X005967Y013784D01*
X005967Y012739D01*
X005893Y012813D01*
X005775Y012861D01*
X005732Y012861D01*
X005732Y012905D01*
X005683Y013023D01*
X005593Y013113D01*
X005475Y013161D01*
X005348Y013161D01*
X005231Y013113D01*
X005141Y013023D01*
X005092Y012905D01*
X005092Y012797D01*
X004917Y012622D01*
X004917Y012461D01*
X004917Y012291D01*
X004507Y012291D01*
X004507Y012661D01*
X004507Y012822D01*
X004219Y013110D01*
X004243Y013120D01*
X004333Y013210D01*
X004382Y013328D01*
X004382Y013455D01*
X004333Y013573D01*
X004243Y013663D01*
X004157Y013698D01*
X004157Y016061D01*
X004157Y016222D01*
X003925Y016454D01*
X003972Y016501D01*
X003972Y016882D01*
X003702Y017151D01*
X003321Y017151D01*
X003052Y016882D01*
X003052Y016501D01*
X003321Y016231D01*
X003596Y016231D01*
X003676Y016151D01*
X003321Y016151D01*
X003052Y015882D01*
X003052Y015501D01*
X003321Y015231D01*
X003702Y015231D01*
X003767Y015296D01*
X003767Y015087D01*
X003702Y015151D01*
X003321Y015151D01*
X003052Y014882D01*
X003052Y014501D01*
X003099Y014454D01*
X002867Y014222D01*
X002867Y014061D01*
X002867Y013987D01*
X002707Y014147D01*
X002707Y014236D01*
X002972Y014501D01*
X002972Y014882D01*
X002702Y015151D01*
X002428Y015151D01*
X002347Y015231D01*
X002702Y015231D01*
X002972Y015501D01*
X002972Y015882D01*
X002707Y016147D01*
X002707Y016236D01*
X002972Y016501D01*
X002972Y016882D01*
X002702Y017151D01*
X002321Y017151D01*
X002257Y017087D01*
X002257Y017296D01*
X002321Y017231D01*
X002702Y017231D01*
X002972Y017501D01*
X002972Y017612D01*
X003071Y017711D01*
X003492Y017711D01*
X003492Y017671D01*
X003532Y017671D01*
X003532Y017211D01*
X003711Y017211D01*
X003992Y017493D01*
X003992Y017671D01*
X003532Y017671D01*
X003532Y017711D01*
X003992Y017711D01*
X003992Y017890D01*
X003931Y017951D01*
X004743Y017951D01*
X004808Y017886D01*
X004940Y017831D01*
X005083Y017831D01*
X005216Y017886D01*
X005317Y017988D01*
X005372Y018120D01*
X005372Y018263D01*
X005317Y018395D01*
X005216Y018497D01*
X005083Y018551D01*
X004940Y018551D01*
X004808Y018497D01*
X004743Y018431D01*
X003902Y018431D01*
X003972Y018501D01*
X003972Y018882D01*
X003702Y019151D01*
X003321Y019151D01*
X003052Y018882D01*
X003052Y018501D01*
X003121Y018431D01*
X003112Y018431D01*
X002767Y018086D01*
X002702Y018151D01*
X002321Y018151D01*
X002257Y018087D01*
X002257Y018296D01*
X002321Y018231D01*
X002702Y018231D01*
X002972Y018501D01*
X002972Y018882D01*
X002702Y019151D01*
X002321Y019151D01*
X002257Y019087D01*
X002257Y019296D01*
X002321Y019231D01*
X002702Y019231D01*
X002972Y019501D01*
X002972Y019882D01*
X002907Y019946D01*
X003116Y019946D01*
X003052Y019882D01*
X003052Y019501D01*
X003321Y019231D01*
X003702Y019231D01*
X003972Y019501D01*
X003972Y019882D01*
X003775Y020079D01*
X003993Y020296D01*
X004793Y020296D01*
X004907Y020411D01*
X005807Y021311D01*
X005807Y021472D01*
X005807Y023322D01*
X005693Y023436D01*
X005607Y023522D01*
X005607Y024236D01*
X005767Y024236D01*
X005767Y024161D01*
X005881Y024046D01*
X007231Y024046D01*
X007393Y024046D01*
X007507Y024161D01*
X007507Y025291D01*
X009146Y025291D01*
X009166Y025271D01*
X009217Y025271D01*
X009217Y025049D01*
X009141Y024973D01*
X009092Y024855D01*
X009092Y024728D01*
X009141Y024610D01*
X009231Y024520D01*
X009348Y024471D01*
X009475Y024471D01*
X009593Y024520D01*
X009683Y024610D01*
X009732Y024728D01*
X009732Y024771D01*
X009775Y024771D01*
X009893Y024820D01*
X009983Y024910D01*
X010032Y025028D01*
X010032Y025155D01*
X009984Y025271D01*
X010058Y025271D01*
X010078Y025291D01*
X010117Y025291D01*
X010117Y024411D01*
X010231Y024296D01*
X010393Y024296D01*
X013717Y024296D01*
X013717Y021161D01*
X013792Y021086D01*
X013792Y020978D01*
X013841Y020860D01*
X013931Y020770D01*
X014000Y020741D01*
X013931Y020713D01*
X013841Y020623D01*
X013792Y020505D01*
X013792Y020378D01*
X013841Y020260D01*
X013917Y020184D01*
X013917Y018122D01*
X013817Y018022D01*
X013817Y017861D01*
X013817Y017948D02*
X005278Y017948D01*
X005366Y018107D02*
X013901Y018107D01*
X013917Y018265D02*
X005371Y018265D01*
X005288Y018424D02*
X013917Y018424D01*
X013917Y018583D02*
X003972Y018583D01*
X003972Y018741D02*
X013917Y018741D01*
X013917Y018900D02*
X010674Y018900D01*
X010649Y018875D02*
X010755Y018981D01*
X010755Y020196D01*
X009592Y020196D01*
X009592Y020356D01*
X009432Y020356D01*
X009432Y021676D01*
X008374Y021676D01*
X008269Y021571D01*
X008269Y020356D01*
X009432Y020356D01*
X009432Y020196D01*
X009592Y020196D01*
X009592Y018875D01*
X010649Y018875D01*
X010755Y019058D02*
X013917Y019058D01*
X013917Y019217D02*
X010755Y019217D01*
X010755Y019375D02*
X013917Y019375D01*
X013917Y019534D02*
X010755Y019534D01*
X010755Y019692D02*
X013917Y019692D01*
X013917Y019851D02*
X010755Y019851D01*
X010755Y020009D02*
X013917Y020009D01*
X013917Y020168D02*
X010755Y020168D01*
X010755Y020356D02*
X010755Y021571D01*
X010649Y021676D01*
X009592Y021676D01*
X009592Y020356D01*
X010755Y020356D01*
X010755Y020485D02*
X013792Y020485D01*
X013813Y020326D02*
X009592Y020326D01*
X009592Y020168D02*
X009432Y020168D01*
X009432Y020196D02*
X009432Y018875D01*
X008374Y018875D01*
X008269Y018981D01*
X008269Y020196D01*
X009432Y020196D01*
X009432Y020326D02*
X004823Y020326D01*
X004981Y020485D02*
X008269Y020485D01*
X008269Y020644D02*
X005140Y020644D01*
X005298Y020802D02*
X008269Y020802D01*
X008269Y020961D02*
X005457Y020961D01*
X005615Y021119D02*
X008269Y021119D01*
X008269Y021278D02*
X005774Y021278D01*
X005807Y021436D02*
X008269Y021436D01*
X008293Y021595D02*
X005807Y021595D01*
X005807Y021753D02*
X013717Y021753D01*
X013717Y021595D02*
X010731Y021595D01*
X010755Y021436D02*
X013717Y021436D01*
X013717Y021278D02*
X010755Y021278D01*
X010755Y021119D02*
X013758Y021119D01*
X013799Y020961D02*
X010755Y020961D01*
X010755Y020802D02*
X013899Y020802D01*
X013861Y020644D02*
X010755Y020644D01*
X011062Y020644D02*
X008012Y020644D01*
X008012Y020802D02*
X011062Y020802D01*
X011062Y020961D02*
X008012Y020961D01*
X008012Y021119D02*
X011062Y021119D01*
X011062Y021278D02*
X008012Y021278D01*
X008012Y021436D02*
X011062Y021436D01*
X011062Y021595D02*
X008012Y021595D01*
X008012Y021753D02*
X011062Y021753D01*
X011062Y021912D02*
X008012Y021912D01*
X008012Y021941D02*
X011062Y021941D01*
X011062Y018591D01*
X008012Y018591D01*
X008012Y021941D01*
X009432Y021595D02*
X009592Y021595D01*
X009592Y021436D02*
X009432Y021436D01*
X009432Y021278D02*
X009592Y021278D01*
X009592Y021119D02*
X009432Y021119D01*
X009432Y020961D02*
X009592Y020961D01*
X009592Y020802D02*
X009432Y020802D01*
X009432Y020644D02*
X009592Y020644D01*
X009592Y020485D02*
X009432Y020485D01*
X009432Y020009D02*
X009592Y020009D01*
X009592Y019851D02*
X009432Y019851D01*
X009432Y019692D02*
X009592Y019692D01*
X009592Y019534D02*
X009432Y019534D01*
X009432Y019375D02*
X009592Y019375D01*
X009592Y019217D02*
X009432Y019217D01*
X009432Y019058D02*
X009592Y019058D01*
X009592Y018900D02*
X009432Y018900D01*
X008350Y018900D02*
X003954Y018900D01*
X003796Y019058D02*
X008269Y019058D01*
X008269Y019217D02*
X002257Y019217D01*
X002796Y019058D02*
X003228Y019058D01*
X003069Y018900D02*
X002954Y018900D01*
X002972Y018741D02*
X003052Y018741D01*
X003052Y018583D02*
X002972Y018583D01*
X002895Y018424D02*
X003105Y018424D01*
X002946Y018265D02*
X002736Y018265D01*
X002747Y018107D02*
X002788Y018107D01*
X002712Y017691D02*
X003212Y018191D01*
X005012Y018191D01*
X004746Y017948D02*
X003934Y017948D01*
X003992Y017790D02*
X007901Y017790D01*
X007780Y017631D02*
X003992Y017631D01*
X003972Y017473D02*
X007752Y017473D01*
X007796Y017314D02*
X003813Y017314D01*
X003532Y017314D02*
X003492Y017314D01*
X003492Y017211D02*
X003492Y017671D01*
X003032Y017671D01*
X003032Y017493D01*
X003313Y017211D01*
X003492Y017211D01*
X003492Y017473D02*
X003532Y017473D01*
X003532Y017631D02*
X003492Y017631D01*
X003512Y017691D02*
X003762Y017841D01*
X004512Y017841D01*
X003562Y018741D02*
X003512Y018691D01*
X003846Y019375D02*
X008269Y019375D01*
X008269Y019534D02*
X003972Y019534D01*
X003972Y019692D02*
X008269Y019692D01*
X008269Y019851D02*
X003972Y019851D01*
X003844Y020009D02*
X008269Y020009D01*
X008269Y020168D02*
X003864Y020168D01*
X003816Y020671D02*
X003532Y020671D01*
X003532Y020711D01*
X003992Y020711D01*
X003992Y020890D01*
X003839Y021043D01*
X003857Y021061D01*
X004221Y021425D01*
X004257Y021338D01*
X004358Y021236D01*
X004490Y021181D01*
X004633Y021181D01*
X004766Y021236D01*
X004867Y021338D01*
X004922Y021470D01*
X004922Y021506D01*
X005042Y021626D01*
X005042Y022909D01*
X005081Y022870D01*
X005198Y022821D01*
X005325Y022821D01*
X005417Y022859D01*
X005417Y021472D01*
X004631Y020686D01*
X003993Y020686D01*
X003831Y020686D01*
X003816Y020671D01*
X003992Y020802D02*
X004747Y020802D01*
X004905Y020961D02*
X003921Y020961D01*
X003857Y021061D02*
X003857Y021061D01*
X003915Y021119D02*
X005064Y021119D01*
X005222Y021278D02*
X004807Y021278D01*
X004908Y021436D02*
X005381Y021436D01*
X005417Y021595D02*
X005011Y021595D01*
X005042Y021753D02*
X005417Y021753D01*
X005417Y021912D02*
X005042Y021912D01*
X005042Y022070D02*
X005417Y022070D01*
X005417Y022229D02*
X005042Y022229D01*
X005042Y022388D02*
X005417Y022388D01*
X005417Y022546D02*
X005042Y022546D01*
X005042Y022705D02*
X005417Y022705D01*
X005097Y022863D02*
X005042Y022863D01*
X005807Y022863D02*
X013717Y022863D01*
X013717Y022705D02*
X005807Y022705D01*
X005807Y022546D02*
X013717Y022546D01*
X013717Y022388D02*
X005807Y022388D01*
X005807Y022229D02*
X013717Y022229D01*
X013717Y022070D02*
X005807Y022070D01*
X005807Y021912D02*
X013717Y021912D01*
X013717Y023022D02*
X005807Y023022D01*
X005807Y023180D02*
X013717Y023180D01*
X013717Y023339D02*
X005790Y023339D01*
X005632Y023497D02*
X013717Y023497D01*
X013717Y023656D02*
X005607Y023656D01*
X005607Y023814D02*
X013717Y023814D01*
X013717Y023973D02*
X005607Y023973D01*
X005607Y024132D02*
X005796Y024132D01*
X006346Y024691D02*
X006362Y024941D01*
X006362Y025941D02*
X006346Y026191D01*
X006362Y026441D01*
X006362Y027441D02*
X006346Y027691D01*
X006562Y027541D01*
X006346Y027691D02*
X006362Y027941D01*
X006362Y028941D01*
X006346Y029191D01*
X003512Y028691D02*
X003512Y027691D01*
X003512Y026691D01*
X003512Y028691D02*
X003512Y029691D01*
X007507Y025241D02*
X009217Y025241D01*
X009217Y025083D02*
X007507Y025083D01*
X007507Y024924D02*
X009120Y024924D01*
X009092Y024766D02*
X007507Y024766D01*
X007507Y024607D02*
X009144Y024607D01*
X009680Y024607D02*
X010117Y024607D01*
X010117Y024449D02*
X007507Y024449D01*
X007507Y024290D02*
X013717Y024290D01*
X013717Y024132D02*
X007478Y024132D01*
X009732Y024766D02*
X010117Y024766D01*
X010117Y024924D02*
X009989Y024924D01*
X010032Y025083D02*
X010117Y025083D01*
X010117Y025241D02*
X009996Y025241D01*
X010957Y025241D02*
X013478Y025241D01*
X013491Y025210D02*
X013567Y025134D01*
X013567Y025111D01*
X013681Y024996D01*
X013917Y024761D01*
X013917Y024686D01*
X010959Y024686D01*
X010983Y024710D01*
X011032Y024828D01*
X011032Y024955D01*
X010983Y025073D01*
X010957Y025099D01*
X010957Y025271D01*
X011058Y025271D01*
X011078Y025291D01*
X011146Y025291D01*
X011166Y025271D01*
X011558Y025271D01*
X011578Y025291D01*
X011617Y025291D01*
X011657Y025251D01*
X011862Y025251D01*
X012066Y025251D01*
X012106Y025291D01*
X012117Y025291D01*
X012157Y025251D01*
X012362Y025251D01*
X012566Y025251D01*
X012606Y025291D01*
X012617Y025291D01*
X012657Y025251D01*
X012862Y025251D01*
X013066Y025251D01*
X013106Y025291D01*
X013457Y025291D01*
X013491Y025210D01*
X013595Y025083D02*
X010973Y025083D01*
X011032Y024924D02*
X013753Y024924D01*
X013912Y024766D02*
X011006Y024766D01*
X011862Y024841D02*
X011862Y025841D01*
X011862Y025831D02*
X011962Y025841D01*
X011862Y025291D02*
X011862Y025251D01*
X011862Y025291D01*
X011862Y025291D01*
X012362Y025291D02*
X012362Y025291D01*
X012362Y025251D01*
X012362Y025291D01*
X012862Y025291D02*
X012862Y025291D01*
X012862Y025251D01*
X012862Y025291D01*
X011862Y023741D02*
X011862Y023591D01*
X011062Y020485D02*
X008012Y020485D01*
X008012Y020326D02*
X011062Y020326D01*
X011062Y020168D02*
X008012Y020168D01*
X008012Y020009D02*
X011062Y020009D01*
X011062Y019851D02*
X008012Y019851D01*
X008012Y019692D02*
X011062Y019692D01*
X011062Y019534D02*
X008012Y019534D01*
X008012Y019375D02*
X011062Y019375D01*
X011062Y019217D02*
X008012Y019217D01*
X008012Y019058D02*
X011062Y019058D01*
X011062Y018900D02*
X008012Y018900D01*
X008012Y018741D02*
X011062Y018741D01*
X010766Y017631D02*
X013846Y017631D01*
X013890Y017473D02*
X010772Y017473D01*
X010772Y017314D02*
X013796Y017314D01*
X013801Y017156D02*
X010772Y017156D01*
X010772Y016997D02*
X013817Y016997D01*
X013817Y016839D02*
X010768Y016839D01*
X010609Y016680D02*
X013817Y016680D01*
X013817Y016521D02*
X010617Y016521D01*
X010617Y016363D02*
X013817Y016363D01*
X013817Y016204D02*
X010617Y016204D01*
X010617Y016046D02*
X013817Y016046D01*
X013817Y015887D02*
X010637Y015887D01*
X010637Y015729D02*
X013817Y015729D01*
X013817Y015570D02*
X010637Y015570D01*
X010637Y015609D02*
X010210Y015609D01*
X010210Y015221D01*
X010532Y015221D01*
X010637Y015326D01*
X010637Y015609D01*
X010637Y015412D02*
X013817Y015412D01*
X013748Y015253D02*
X010564Y015253D01*
X010210Y015253D02*
X010114Y015253D01*
X010114Y015221D02*
X010114Y015609D01*
X009687Y015609D01*
X009687Y015326D01*
X009792Y015221D01*
X010114Y015221D01*
X010114Y015412D02*
X010210Y015412D01*
X010210Y015570D02*
X010114Y015570D01*
X009687Y015570D02*
X009446Y015570D01*
X009446Y015518D02*
X009446Y015830D01*
X009341Y015935D01*
X008989Y015935D01*
X008989Y015518D01*
X008834Y015518D01*
X008834Y015363D01*
X008377Y015363D01*
X008377Y015051D01*
X008483Y014945D01*
X008834Y014945D01*
X008834Y015363D01*
X008989Y015363D01*
X008989Y014945D01*
X009341Y014945D01*
X009446Y015051D01*
X009446Y015363D01*
X008990Y015363D01*
X008990Y015518D01*
X009446Y015518D01*
X009446Y015729D02*
X009687Y015729D01*
X009687Y015887D02*
X009389Y015887D01*
X009426Y016204D02*
X009707Y016204D01*
X009707Y016046D02*
X004157Y016046D01*
X004157Y016204D02*
X008390Y016204D01*
X008252Y016363D02*
X004016Y016363D01*
X003972Y016521D02*
X008252Y016521D01*
X008291Y016680D02*
X003972Y016680D01*
X003972Y016839D02*
X008306Y016839D01*
X008252Y016997D02*
X003857Y016997D01*
X003167Y016997D02*
X002857Y016997D01*
X002972Y016839D02*
X003052Y016839D01*
X003052Y016680D02*
X002972Y016680D01*
X002972Y016521D02*
X003052Y016521D01*
X003190Y016363D02*
X002834Y016363D01*
X002707Y016204D02*
X003623Y016204D01*
X003216Y016046D02*
X002808Y016046D01*
X002966Y015887D02*
X003057Y015887D01*
X003052Y015729D02*
X002972Y015729D01*
X002972Y015570D02*
X003052Y015570D01*
X003141Y015412D02*
X002882Y015412D01*
X002724Y015253D02*
X003300Y015253D01*
X003264Y015095D02*
X002759Y015095D01*
X002918Y014936D02*
X003106Y014936D01*
X003052Y014777D02*
X002972Y014777D01*
X002972Y014619D02*
X003052Y014619D01*
X003092Y014460D02*
X002931Y014460D01*
X002946Y014302D02*
X002773Y014302D01*
X002710Y014143D02*
X002867Y014143D01*
X004157Y014143D02*
X005858Y014143D01*
X005842Y013985D02*
X004157Y013985D01*
X004157Y013826D02*
X005924Y013826D01*
X005967Y013668D02*
X004231Y013668D01*
X004359Y013509D02*
X005967Y013509D01*
X005967Y013351D02*
X004382Y013351D01*
X004315Y013192D02*
X005967Y013192D01*
X005967Y013034D02*
X005672Y013034D01*
X005732Y012875D02*
X005967Y012875D01*
X005151Y013034D02*
X004296Y013034D01*
X004454Y012875D02*
X005092Y012875D01*
X005011Y012716D02*
X004507Y012716D01*
X004507Y012558D02*
X004917Y012558D01*
X004917Y012399D02*
X004507Y012399D01*
X004157Y014302D02*
X005970Y014302D01*
X006049Y014460D02*
X004157Y014460D01*
X004157Y014619D02*
X006048Y014619D01*
X006145Y014777D02*
X004157Y014777D01*
X004157Y014936D02*
X013431Y014936D01*
X013589Y015095D02*
X009446Y015095D01*
X009446Y015253D02*
X009760Y015253D01*
X009687Y015412D02*
X008990Y015412D01*
X008834Y015412D02*
X004157Y015412D01*
X004157Y015570D02*
X008377Y015570D01*
X008377Y015518D02*
X008834Y015518D01*
X008834Y015935D01*
X008483Y015935D01*
X008377Y015830D01*
X008377Y015518D01*
X008377Y015729D02*
X004157Y015729D01*
X004157Y015887D02*
X008435Y015887D01*
X008834Y015887D02*
X008989Y015887D01*
X008989Y015729D02*
X008834Y015729D01*
X008834Y015570D02*
X008989Y015570D01*
X008989Y015253D02*
X008834Y015253D01*
X008834Y015095D02*
X008989Y015095D01*
X008377Y015095D02*
X004157Y015095D01*
X004157Y015253D02*
X008377Y015253D01*
X007409Y014460D02*
X012955Y014460D01*
X012796Y014302D02*
X007432Y014302D01*
X007586Y014143D02*
X012638Y014143D01*
X012479Y013985D02*
X007744Y013985D01*
X007903Y013826D02*
X012321Y013826D01*
X012267Y013668D02*
X007957Y013668D01*
X007957Y013509D02*
X012227Y013509D01*
X012142Y013351D02*
X008250Y013351D01*
X008315Y013192D02*
X012157Y013192D01*
X012758Y013171D02*
X012782Y013228D01*
X012782Y013355D01*
X012733Y013473D01*
X012657Y013549D01*
X012657Y013611D01*
X014093Y015046D01*
X014207Y015161D01*
X014207Y015444D01*
X014281Y015370D01*
X014398Y015321D01*
X014416Y015321D01*
X014267Y015172D01*
X014267Y015011D01*
X014267Y014999D01*
X014191Y014923D01*
X014142Y014805D01*
X014142Y014678D01*
X014169Y014611D01*
X014098Y014611D01*
X013981Y014563D01*
X013891Y014473D01*
X013842Y014355D01*
X013842Y014228D01*
X013891Y014110D01*
X013981Y014020D01*
X014098Y013971D01*
X014225Y013971D01*
X014317Y014009D01*
X014317Y013722D01*
X014317Y013561D01*
X014431Y013446D01*
X014712Y013446D01*
X014712Y013171D01*
X012896Y013171D01*
X012758Y013171D01*
X012767Y013192D02*
X014712Y013192D01*
X014712Y013191D02*
X013912Y013191D01*
X014368Y013509D02*
X012697Y013509D01*
X012714Y013668D02*
X014317Y013668D01*
X014317Y013826D02*
X012872Y013826D01*
X013031Y013985D02*
X014066Y013985D01*
X014257Y013985D02*
X014317Y013985D01*
X014707Y013985D02*
X014712Y013985D01*
X014707Y014011D02*
X014707Y013836D01*
X014712Y013836D01*
X014712Y014016D01*
X014707Y014011D01*
X014862Y013991D02*
X014712Y013841D01*
X018162Y013841D01*
X018212Y013891D01*
X018212Y013941D01*
X018312Y014041D01*
X018418Y014191D01*
X018512Y014041D01*
X020412Y014041D01*
X020462Y013997D01*
X020612Y013991D01*
X021112Y013991D01*
X021262Y013997D01*
X021412Y013891D01*
X021712Y013891D01*
X018418Y014191D02*
X018312Y014341D01*
X018262Y014391D01*
X018262Y014891D01*
X018224Y015121D01*
X017909Y015121D02*
X017912Y014891D01*
X017912Y014341D01*
X017906Y014191D01*
X014862Y013291D02*
X014712Y013191D01*
X014712Y013351D02*
X012782Y013351D01*
X013189Y014143D02*
X013877Y014143D01*
X013842Y014302D02*
X013348Y014302D01*
X013506Y014460D02*
X013885Y014460D01*
X013665Y014619D02*
X014166Y014619D01*
X014142Y014777D02*
X013824Y014777D01*
X013982Y014936D02*
X014204Y014936D01*
X014141Y015095D02*
X014267Y015095D01*
X014207Y015253D02*
X014348Y015253D01*
X014239Y015412D02*
X014207Y015412D01*
X013272Y014777D02*
X006578Y014777D01*
X006676Y014619D02*
X006945Y014619D01*
X006815Y014460D02*
X006719Y014460D01*
X007007Y014039D02*
X007048Y014021D01*
X007156Y014021D01*
X007567Y013611D01*
X007567Y013399D01*
X007506Y013399D01*
X007506Y013042D01*
X007506Y013042D01*
X007506Y013399D01*
X007294Y013399D01*
X007212Y013317D01*
X007007Y013522D01*
X007007Y014011D01*
X007007Y014039D01*
X007007Y013985D02*
X007193Y013985D01*
X007351Y013826D02*
X007007Y013826D01*
X007007Y013668D02*
X007510Y013668D01*
X007512Y013641D02*
X007512Y013241D01*
X007506Y013041D01*
X007506Y013192D02*
X007506Y013192D01*
X007506Y013351D02*
X007506Y013351D01*
X007567Y013509D02*
X007020Y013509D01*
X007178Y013351D02*
X007246Y013351D01*
X008018Y013041D02*
X008012Y012941D01*
X008012Y011941D01*
X008012Y011884D01*
X007278Y014619D02*
X013114Y014619D01*
X009707Y016363D02*
X009426Y016363D01*
X009426Y016521D02*
X009707Y016521D01*
X009614Y016680D02*
X009426Y016680D01*
X009507Y016788D02*
X009507Y016788D01*
X009456Y016839D02*
X009426Y016839D01*
X009452Y016997D02*
X009353Y016997D01*
X009608Y016686D02*
X009608Y016686D01*
X008252Y017156D02*
X008242Y017156D01*
X007982Y017156D02*
X002257Y017156D01*
X002785Y017314D02*
X003210Y017314D01*
X003052Y017473D02*
X002944Y017473D01*
X002991Y017631D02*
X003032Y017631D01*
X002277Y018107D02*
X002257Y018107D01*
X002257Y018265D02*
X002287Y018265D01*
X002846Y019375D02*
X003178Y019375D01*
X003052Y019534D02*
X002972Y019534D01*
X002972Y019692D02*
X003052Y019692D01*
X003052Y019851D02*
X002972Y019851D01*
X002807Y020336D02*
X002972Y020501D01*
X002972Y020882D01*
X002907Y020946D01*
X003088Y020946D01*
X003032Y020890D01*
X003032Y020711D01*
X003492Y020711D01*
X003492Y020671D01*
X003032Y020671D01*
X003032Y020493D01*
X003188Y020336D01*
X002807Y020336D01*
X002956Y020485D02*
X003039Y020485D01*
X003032Y020644D02*
X002972Y020644D01*
X002972Y020802D02*
X003032Y020802D01*
X003512Y020691D02*
X004512Y020691D01*
X004316Y021278D02*
X004074Y021278D01*
X003767Y015253D02*
X003724Y015253D01*
X003759Y015095D02*
X003767Y015095D01*
X008018Y006641D02*
X008012Y006491D01*
X008012Y005384D01*
X007362Y003491D02*
X007262Y003491D01*
X007012Y001999D02*
X007012Y001991D01*
X010577Y005491D02*
X010562Y005741D01*
X015106Y005291D02*
X015112Y005141D01*
X015618Y005291D02*
X015712Y005441D01*
X015712Y008641D01*
X015912Y008841D01*
X016012Y009231D01*
X016112Y009291D01*
X016662Y009291D01*
X016662Y009341D01*
X019082Y006597D02*
X019012Y006491D01*
X019012Y006191D01*
X019762Y006191D01*
X019762Y006597D01*
X019712Y006597D01*
X019762Y006591D01*
X019962Y006591D01*
X020027Y006597D01*
X020112Y006591D01*
X020262Y006591D01*
X020342Y006597D01*
X020362Y006591D01*
X021762Y006591D01*
X022262Y007091D01*
X022318Y007241D01*
X022312Y007391D01*
X022312Y007891D01*
X022318Y007991D01*
X022168Y005291D02*
X022262Y005141D01*
X022262Y004341D01*
X022362Y004241D01*
X022512Y003691D01*
X021512Y003691D02*
X021662Y004241D01*
X021662Y005141D01*
X021656Y005291D01*
X016012Y003691D02*
X015862Y004241D01*
X015862Y004991D01*
X015712Y005141D01*
X015618Y005291D01*
X026827Y016241D02*
X026862Y016291D01*
X026862Y017191D01*
X026827Y017441D01*
X026862Y017691D01*
X026862Y018391D01*
X026827Y018641D01*
X026712Y018641D01*
X026712Y020791D01*
X026912Y020991D01*
X027262Y021293D01*
X027962Y021291D01*
X027962Y021591D01*
X028512Y021591D01*
X028512Y022191D01*
X027262Y022191D01*
X027262Y022190D01*
X026912Y022491D01*
X026412Y022991D01*
X026412Y025141D01*
X025962Y025591D01*
X025862Y026011D01*
X026762Y023841D02*
X026762Y023741D01*
X026912Y023591D01*
X027262Y023293D01*
X028661Y023293D01*
X029262Y022691D01*
X029498Y022174D02*
X029569Y022102D01*
X029762Y022102D01*
X029954Y022102D01*
X030012Y022159D01*
X030069Y022102D01*
X030262Y022102D01*
X030454Y022102D01*
X030526Y022174D01*
X030577Y022122D01*
X030862Y022122D01*
X030862Y021261D01*
X030577Y021261D01*
X030526Y021209D01*
X030454Y021281D01*
X030262Y021281D01*
X030262Y020668D01*
X030162Y020691D01*
X029762Y020691D01*
X029762Y021591D01*
X028512Y021591D01*
X029212Y021595D02*
X030862Y021595D01*
X030862Y021753D02*
X029212Y021753D01*
X029212Y021912D02*
X030862Y021912D01*
X030862Y022070D02*
X029212Y022070D01*
X029212Y022122D02*
X029446Y022122D01*
X029498Y022174D01*
X029762Y022229D02*
X029762Y022229D01*
X029762Y022102D02*
X029762Y022715D01*
X029762Y022715D01*
X030060Y022715D01*
X030261Y022715D01*
X030261Y022715D01*
X030060Y022715D01*
X029762Y022715D01*
X029762Y021691D01*
X029762Y021591D01*
X029762Y021281D02*
X029569Y021281D01*
X029498Y021209D01*
X029446Y021261D01*
X029212Y021261D01*
X029212Y022122D01*
X029762Y022102D02*
X029762Y022715D01*
X029862Y022741D01*
X030162Y022741D01*
X030262Y022715D01*
X030262Y022102D01*
X030262Y022715D01*
X030262Y022715D01*
X030262Y022705D02*
X030262Y022705D01*
X030262Y022546D02*
X030262Y022546D01*
X030262Y022388D02*
X030262Y022388D01*
X030262Y022229D02*
X030262Y022229D01*
X029762Y022388D02*
X029762Y022388D01*
X029762Y022546D02*
X029762Y022546D01*
X029762Y022705D02*
X029762Y022705D01*
X029762Y022715D02*
X029762Y022715D01*
X029212Y021436D02*
X030862Y021436D01*
X030862Y021278D02*
X030458Y021278D01*
X030262Y021278D02*
X030262Y021278D01*
X030262Y021281D02*
X030069Y021281D01*
X030012Y021224D01*
X029954Y021281D01*
X029762Y021281D01*
X029762Y020668D01*
X029964Y020668D01*
X030261Y020668D01*
X030261Y020668D01*
X029964Y020668D01*
X029762Y020668D01*
X029762Y020668D01*
X029762Y020691D01*
X029762Y020668D02*
X029762Y021281D01*
X029762Y021278D02*
X029762Y021278D01*
X029762Y021119D02*
X029762Y021119D01*
X029762Y020961D02*
X029762Y020961D01*
X029762Y020802D02*
X029762Y020802D01*
X029762Y020668D02*
X029762Y020668D01*
X029862Y020541D01*
X029862Y018791D01*
X029912Y018759D01*
X029812Y018791D01*
X029512Y018791D01*
X029412Y018759D01*
X029312Y018791D01*
X029012Y018791D01*
X028912Y018759D01*
X030412Y018759D02*
X030512Y018791D01*
X030812Y018791D01*
X030912Y018759D01*
X031012Y018791D01*
X031312Y018791D01*
X031412Y018759D01*
X030262Y020668D02*
X030262Y020668D01*
X030262Y021281D01*
X030262Y021119D02*
X030262Y021119D01*
X030262Y020961D02*
X030262Y020961D01*
X030262Y020802D02*
X030262Y020802D01*
X030066Y021278D02*
X029958Y021278D01*
X029566Y021278D02*
X029212Y021278D01*
X027262Y021293D02*
X027262Y022190D01*
X024812Y022676D02*
X024562Y022691D01*
X024062Y022691D01*
X023812Y022691D01*
X023562Y022676D01*
X020518Y022241D02*
X020462Y022141D01*
X020462Y021491D01*
X020429Y021262D01*
X020114Y021262D02*
X020112Y021491D01*
X020112Y022141D01*
X020006Y022241D01*
X017312Y022997D02*
X017162Y023091D01*
X017162Y023741D01*
X017068Y023891D01*
X016962Y024041D01*
X016962Y025441D01*
X016862Y025831D01*
X016962Y025841D01*
X017262Y025841D01*
X017362Y025831D01*
X017462Y025841D01*
X017762Y025841D01*
X017862Y025831D01*
X017312Y022997D02*
X017162Y022991D01*
X016962Y022991D01*
X016962Y021491D01*
X016964Y021315D01*
X016964Y020791D01*
X016412Y020791D01*
X015662Y021541D01*
X016964Y021315D02*
X016965Y021262D01*
X016962Y022991D02*
X016712Y022991D01*
X016562Y022997D01*
X023346Y030691D02*
X024012Y030691D01*
X024012Y031041D01*
X024012Y030691D02*
X024677Y030691D01*
X024862Y030941D01*
X024862Y032241D01*
X022862Y032541D02*
X022862Y032691D01*
X018962Y032941D02*
X018862Y032941D01*
X013012Y034141D02*
X013012Y034191D01*
X031862Y024811D02*
X031962Y024691D01*
X034462Y027191D01*
X035012Y027191D01*
X033012Y024541D02*
X033862Y023691D01*
X033862Y022791D01*
X034462Y022191D01*
X035012Y022191D01*
X035512Y021841D01*
X035912Y021441D01*
X035912Y014441D01*
X035512Y014041D01*
X035012Y013691D01*
X035512Y013341D01*
X035512Y009841D01*
X029712Y014641D02*
X029462Y014891D01*
X029268Y014891D01*
X028668Y005291D02*
X028762Y005141D01*
X028162Y005141D02*
X028156Y005291D01*
X032112Y024541D02*
X031862Y024811D01*
X032112Y024541D02*
X033012Y024541D01*
D38*
X032862Y024191D02*
X030362Y024191D01*
X030362Y024811D01*
X030412Y025041D01*
X030412Y025541D01*
X030562Y025691D01*
X030362Y027041D02*
X027512Y027041D01*
X027362Y027141D02*
X024362Y027147D01*
X024362Y028071D01*
X024362Y028791D01*
X020862Y028941D02*
X020862Y028359D01*
X020762Y028091D01*
X020762Y026391D01*
X020362Y025991D01*
X020362Y025724D01*
X020462Y025441D01*
X020462Y024341D01*
X020462Y022391D01*
X014362Y027191D02*
X014362Y028251D01*
X014362Y028941D01*
X014362Y027191D02*
X009362Y027191D01*
X008812Y027191D01*
X008412Y027447D01*
X008262Y027541D01*
X006562Y027541D01*
X006362Y027441D02*
X006362Y026441D01*
X006362Y025941D02*
X006362Y024941D01*
X006362Y024691D02*
X006562Y024691D01*
X006962Y024691D01*
X004762Y023841D02*
X004762Y021741D01*
X004562Y021541D01*
X008018Y013041D02*
X008062Y013041D01*
X008212Y012891D01*
X013012Y012891D01*
X015062Y012891D01*
X015362Y013191D01*
X017112Y013191D01*
X017112Y014241D02*
X017812Y014241D01*
X013012Y012891D02*
X013012Y011651D01*
X013012Y011391D02*
X012212Y011391D01*
X011912Y011391D01*
X011462Y010941D01*
X011462Y009991D01*
X010706Y009236D01*
X010706Y008891D01*
X010612Y008741D02*
X010112Y008241D01*
X010112Y007091D01*
X010462Y006891D01*
X010562Y006491D02*
X010562Y005741D01*
X010577Y005491D02*
X010562Y005041D01*
X010562Y004941D02*
X011012Y004941D01*
X015112Y005141D02*
X015112Y004241D01*
X015012Y003691D01*
X028012Y003691D02*
X028162Y004241D01*
X028162Y005141D01*
X028162Y005441D02*
X028162Y005941D01*
X027862Y006241D01*
X027862Y012641D01*
X028662Y013441D01*
X029262Y013341D02*
X029262Y013871D01*
X029268Y013897D02*
X029268Y014891D01*
X028756Y014891D02*
X028756Y013847D01*
X029262Y013341D02*
X028212Y012291D01*
X028212Y006891D01*
X028762Y006341D01*
X028762Y005441D01*
X028668Y005291D01*
X028762Y005141D02*
X028862Y005041D01*
X028862Y004241D01*
X029012Y003691D01*
X029846Y006841D02*
X029762Y007141D01*
X029762Y007391D01*
X032712Y007241D02*
X032712Y008841D01*
X033162Y009391D01*
X033162Y009491D01*
X032962Y009791D01*
X032962Y013591D01*
X032662Y013891D01*
X032662Y015541D01*
X032762Y015741D01*
X032762Y017041D01*
X031412Y018391D01*
X031412Y018741D01*
X031412Y019291D01*
X032762Y019291D01*
X033762Y020291D01*
X033762Y020841D01*
X034162Y020841D01*
X033762Y020841D02*
X033762Y022391D01*
X033512Y022641D01*
X033512Y023541D01*
X032862Y024191D01*
X031412Y018759D02*
X031412Y018741D01*
D39*
X031162Y019291D02*
X028077Y019291D01*
X028077Y019796D01*
X028108Y019827D01*
X028152Y019934D01*
X028152Y020049D01*
X028151Y020051D01*
X028169Y020051D01*
X028276Y020096D01*
X028325Y020145D01*
X028422Y020048D01*
X028422Y019934D01*
X028466Y019827D01*
X028548Y019746D01*
X028654Y019701D01*
X028769Y019701D01*
X028876Y019746D01*
X028958Y019827D01*
X029002Y019934D01*
X029002Y020049D01*
X028958Y020156D01*
X028876Y020237D01*
X028769Y020281D01*
X028655Y020281D01*
X028527Y020410D01*
X028435Y020501D01*
X028485Y020501D01*
X028525Y020462D01*
X028646Y020411D01*
X028777Y020411D01*
X028899Y020462D01*
X028938Y020501D01*
X029014Y020501D01*
X029014Y020181D01*
X029090Y020105D01*
X029434Y020105D01*
X029498Y020169D01*
X029582Y020085D01*
X029753Y020085D01*
X029753Y020659D01*
X029771Y020659D01*
X029771Y020677D01*
X030030Y020677D01*
X030252Y020677D01*
X030252Y020659D01*
X029994Y020659D01*
X029771Y020659D01*
X029771Y020085D01*
X029942Y020085D01*
X030012Y020155D01*
X030082Y020085D01*
X030253Y020085D01*
X030253Y020659D01*
X030271Y020659D01*
X030271Y020085D01*
X030442Y020085D01*
X030526Y020169D01*
X030590Y020105D01*
X030934Y020105D01*
X031010Y020181D01*
X031010Y021155D01*
X030934Y021231D01*
X030590Y021231D01*
X030526Y021167D01*
X030442Y021251D01*
X030271Y021251D01*
X030271Y020677D01*
X030253Y020677D01*
X030253Y021251D01*
X030082Y021251D01*
X030012Y021181D01*
X030012Y021181D01*
X029942Y021251D01*
X029771Y021251D01*
X029771Y020677D01*
X029753Y020677D01*
X029753Y021251D01*
X029582Y021251D01*
X029498Y021167D01*
X029434Y021231D01*
X029090Y021231D01*
X029014Y021155D01*
X029014Y020981D01*
X028938Y020981D01*
X028899Y021021D01*
X028777Y021071D01*
X028646Y021071D01*
X028525Y021021D01*
X028485Y020981D01*
X027812Y020981D01*
X027766Y020935D01*
X027766Y021243D01*
X027512Y021243D01*
X027512Y021343D01*
X027766Y021343D01*
X027766Y021670D01*
X027694Y021741D01*
X027766Y021813D01*
X027766Y022140D01*
X027512Y022140D01*
X027512Y022240D01*
X027766Y022240D01*
X027766Y022567D01*
X027678Y022655D01*
X027512Y022655D01*
X027512Y022848D01*
X027670Y022848D01*
X027746Y022924D01*
X027746Y023083D01*
X028574Y023083D01*
X029014Y022643D01*
X029014Y022228D01*
X029090Y022152D01*
X029434Y022152D01*
X029498Y022216D01*
X029582Y022132D01*
X029753Y022132D01*
X029753Y022706D01*
X029771Y022706D01*
X029771Y022724D01*
X030030Y022724D01*
X030252Y022724D01*
X030252Y022706D01*
X030030Y022706D01*
X029771Y022706D01*
X029771Y022132D01*
X029942Y022132D01*
X030012Y022202D01*
X030082Y022132D01*
X030253Y022132D01*
X030253Y022706D01*
X030271Y022706D01*
X030271Y022132D01*
X030442Y022132D01*
X030526Y022216D01*
X030590Y022152D01*
X030934Y022152D01*
X031010Y022228D01*
X031010Y023202D01*
X030934Y023278D01*
X030590Y023278D01*
X030526Y023214D01*
X030442Y023298D01*
X030271Y023298D01*
X030271Y022724D01*
X030253Y022724D01*
X030253Y023298D01*
X030082Y023298D01*
X030012Y023228D01*
X029942Y023298D01*
X029771Y023298D01*
X029771Y022724D01*
X029753Y022724D01*
X029753Y023298D01*
X029582Y023298D01*
X029498Y023214D01*
X029434Y023278D01*
X029090Y023278D01*
X029031Y023219D01*
X028748Y023503D01*
X028574Y023503D01*
X027746Y023503D01*
X027746Y023661D01*
X027670Y023738D01*
X027512Y023738D01*
X027512Y024341D01*
X027697Y024341D01*
X027697Y023873D01*
X027793Y023776D01*
X027930Y023776D01*
X032643Y023776D01*
X033097Y023323D01*
X033097Y022423D01*
X033193Y022326D01*
X033347Y022173D01*
X033347Y020760D01*
X032719Y020131D01*
X032604Y020131D01*
X032498Y020087D01*
X032416Y020006D01*
X032372Y019899D01*
X032372Y019784D01*
X032416Y019677D01*
X032498Y019596D01*
X032604Y019551D01*
X032668Y019551D01*
X032658Y019541D01*
X031515Y019541D01*
X031308Y019541D01*
X031162Y019395D01*
X031162Y019291D01*
X031162Y019309D02*
X028077Y019309D01*
X028077Y019407D02*
X031174Y019407D01*
X031273Y019506D02*
X028077Y019506D01*
X028077Y019605D02*
X032489Y019605D01*
X032405Y019703D02*
X028773Y019703D01*
X028650Y019703D02*
X028077Y019703D01*
X028082Y019802D02*
X028492Y019802D01*
X028436Y019900D02*
X028138Y019900D01*
X028152Y019999D02*
X028422Y019999D01*
X028373Y020097D02*
X028278Y020097D01*
X028544Y020393D02*
X029014Y020393D01*
X029014Y020491D02*
X028928Y020491D01*
X029014Y020294D02*
X028642Y020294D01*
X028495Y020491D02*
X028445Y020491D01*
X028488Y020984D02*
X027766Y020984D01*
X027766Y021083D02*
X029014Y021083D01*
X029014Y020984D02*
X028936Y020984D01*
X029040Y021181D02*
X027766Y021181D01*
X027766Y021378D02*
X033347Y021378D01*
X033347Y021280D02*
X027512Y021280D01*
X027766Y021477D02*
X033347Y021477D01*
X033347Y021575D02*
X027766Y021575D01*
X027762Y021674D02*
X033347Y021674D01*
X033347Y021772D02*
X027725Y021772D01*
X027766Y021871D02*
X033347Y021871D01*
X033347Y021970D02*
X027766Y021970D01*
X027766Y022068D02*
X033347Y022068D01*
X033347Y022167D02*
X030948Y022167D01*
X031010Y022265D02*
X033255Y022265D01*
X033156Y022364D02*
X031010Y022364D01*
X031010Y022462D02*
X033097Y022462D01*
X033097Y022561D02*
X031010Y022561D01*
X031010Y022659D02*
X033097Y022659D01*
X033097Y022758D02*
X031010Y022758D01*
X031010Y022856D02*
X033097Y022856D01*
X033097Y022955D02*
X031010Y022955D01*
X031010Y023054D02*
X033097Y023054D01*
X033097Y023152D02*
X031010Y023152D01*
X030961Y023251D02*
X033097Y023251D01*
X033071Y023349D02*
X028901Y023349D01*
X029000Y023251D02*
X029062Y023251D01*
X028803Y023448D02*
X032972Y023448D01*
X032874Y023546D02*
X027746Y023546D01*
X027746Y023645D02*
X032775Y023645D01*
X032677Y023743D02*
X027512Y023743D01*
X027512Y023842D02*
X027728Y023842D01*
X027697Y023940D02*
X027512Y023940D01*
X027512Y024039D02*
X027697Y024039D01*
X027697Y024138D02*
X027512Y024138D01*
X027512Y024236D02*
X027697Y024236D01*
X027697Y024335D02*
X027512Y024335D01*
X027746Y023054D02*
X028603Y023054D01*
X028701Y022955D02*
X027746Y022955D01*
X027679Y022856D02*
X028800Y022856D01*
X028898Y022758D02*
X027512Y022758D01*
X027512Y022659D02*
X028997Y022659D01*
X029014Y022561D02*
X027766Y022561D01*
X027766Y022462D02*
X029014Y022462D01*
X029014Y022364D02*
X027766Y022364D01*
X027766Y022265D02*
X029014Y022265D01*
X029075Y022167D02*
X027512Y022167D01*
X029262Y022691D02*
X029262Y022715D01*
X029448Y022167D02*
X029547Y022167D01*
X029753Y022167D02*
X029771Y022167D01*
X029771Y022265D02*
X029753Y022265D01*
X029753Y022364D02*
X029771Y022364D01*
X029771Y022462D02*
X029753Y022462D01*
X029753Y022561D02*
X029771Y022561D01*
X029771Y022659D02*
X029753Y022659D01*
X029753Y022758D02*
X029771Y022758D01*
X029771Y022856D02*
X029753Y022856D01*
X029753Y022955D02*
X029771Y022955D01*
X029771Y023054D02*
X029753Y023054D01*
X029753Y023152D02*
X029771Y023152D01*
X029771Y023251D02*
X029753Y023251D01*
X029534Y023251D02*
X029461Y023251D01*
X029990Y023251D02*
X030034Y023251D01*
X030253Y023251D02*
X030271Y023251D01*
X030271Y023152D02*
X030253Y023152D01*
X030253Y023054D02*
X030271Y023054D01*
X030271Y022955D02*
X030253Y022955D01*
X030253Y022856D02*
X030271Y022856D01*
X030271Y022758D02*
X030253Y022758D01*
X030253Y022659D02*
X030271Y022659D01*
X030271Y022561D02*
X030253Y022561D01*
X030253Y022462D02*
X030271Y022462D01*
X030271Y022364D02*
X030253Y022364D01*
X030253Y022265D02*
X030271Y022265D01*
X030271Y022167D02*
X030253Y022167D01*
X030047Y022167D02*
X029977Y022167D01*
X030477Y022167D02*
X030575Y022167D01*
X030540Y021181D02*
X030512Y021181D01*
X030271Y021181D02*
X030253Y021181D01*
X030253Y021083D02*
X030271Y021083D01*
X030271Y020984D02*
X030253Y020984D01*
X030253Y020886D02*
X030271Y020886D01*
X030271Y020787D02*
X030253Y020787D01*
X030253Y020689D02*
X030271Y020689D01*
X030271Y020590D02*
X030253Y020590D01*
X030253Y020491D02*
X030271Y020491D01*
X030271Y020393D02*
X030253Y020393D01*
X030253Y020294D02*
X030271Y020294D01*
X030271Y020196D02*
X030253Y020196D01*
X030253Y020097D02*
X030271Y020097D01*
X030454Y020097D02*
X032521Y020097D01*
X032413Y019999D02*
X029002Y019999D01*
X028988Y019900D02*
X032372Y019900D01*
X032372Y019802D02*
X028932Y019802D01*
X028982Y020097D02*
X029569Y020097D01*
X029753Y020097D02*
X029771Y020097D01*
X029771Y020196D02*
X029753Y020196D01*
X029753Y020294D02*
X029771Y020294D01*
X029771Y020393D02*
X029753Y020393D01*
X029753Y020491D02*
X029771Y020491D01*
X029771Y020590D02*
X029753Y020590D01*
X029753Y020689D02*
X029771Y020689D01*
X029771Y020787D02*
X029753Y020787D01*
X029753Y020886D02*
X029771Y020886D01*
X029771Y020984D02*
X029753Y020984D01*
X029753Y021083D02*
X029771Y021083D01*
X029771Y021181D02*
X029753Y021181D01*
X029512Y021181D02*
X029483Y021181D01*
X029014Y020196D02*
X028918Y020196D01*
X029954Y020097D02*
X030069Y020097D01*
X031010Y020196D02*
X032783Y020196D01*
X032881Y020294D02*
X031010Y020294D01*
X031010Y020393D02*
X032980Y020393D01*
X033078Y020491D02*
X031010Y020491D01*
X031010Y020590D02*
X033177Y020590D01*
X033276Y020689D02*
X031010Y020689D01*
X031010Y020787D02*
X033347Y020787D01*
X033347Y020886D02*
X031010Y020886D01*
X031010Y020984D02*
X033347Y020984D01*
X033347Y021083D02*
X031010Y021083D01*
X030983Y021181D02*
X033347Y021181D01*
X033962Y022545D02*
X033962Y023658D01*
X033279Y024341D01*
X033065Y024341D01*
X033112Y024295D01*
X033762Y023645D01*
X033762Y023438D01*
X033762Y022745D01*
X033962Y022545D01*
X033962Y022561D02*
X033946Y022561D01*
X033962Y022659D02*
X033847Y022659D01*
X033762Y022758D02*
X033962Y022758D01*
X033962Y022856D02*
X033762Y022856D01*
X033762Y022955D02*
X033962Y022955D01*
X033962Y023054D02*
X033762Y023054D01*
X033762Y023152D02*
X033962Y023152D01*
X033962Y023251D02*
X033762Y023251D01*
X033762Y023349D02*
X033962Y023349D01*
X033962Y023448D02*
X033762Y023448D01*
X033762Y023546D02*
X033962Y023546D01*
X033962Y023645D02*
X033762Y023645D01*
X033663Y023743D02*
X033877Y023743D01*
X033778Y023842D02*
X033565Y023842D01*
X033466Y023940D02*
X033680Y023940D01*
X033581Y024039D02*
X033368Y024039D01*
X033269Y024138D02*
X033482Y024138D01*
X033384Y024236D02*
X033171Y024236D01*
X033072Y024335D02*
X033285Y024335D01*
X031862Y024811D02*
X031862Y024841D01*
X031812Y024891D01*
X031812Y026291D01*
X031362Y026741D01*
X027512Y026741D01*
X027362Y026641D01*
X027362Y026636D01*
X027112Y026741D01*
X025862Y026741D01*
X025862Y026011D01*
X027362Y027141D02*
X027362Y027147D01*
X027512Y027041D01*
X030362Y027041D02*
X030362Y028571D01*
X034112Y027691D02*
X035912Y027691D01*
X030562Y023251D02*
X030490Y023251D01*
X034062Y018841D02*
X034912Y019691D01*
X035012Y019691D01*
X034062Y018841D02*
X034062Y018341D01*
X034712Y017691D01*
X035012Y017691D01*
X030412Y018759D02*
X030312Y018491D01*
X029512Y017691D01*
X028812Y018491D02*
X028912Y018759D01*
X028812Y018491D02*
X028312Y017991D01*
X028312Y016091D01*
X028212Y015991D01*
X028212Y015691D01*
X028662Y015241D01*
X029162Y015241D01*
X029162Y015041D01*
X029268Y014891D01*
X029268Y013897D02*
X029262Y013891D01*
X029262Y013871D01*
X029262Y013821D01*
X029262Y013871D02*
X029212Y013841D01*
X028762Y013841D02*
X028756Y013847D01*
X028762Y013841D02*
X028762Y013821D01*
X028662Y013441D01*
X026662Y014691D02*
X026662Y015991D01*
X026827Y016241D01*
X026612Y018391D02*
X026312Y018391D01*
X026612Y018391D02*
X026827Y018641D01*
X025412Y018391D02*
X025162Y018541D01*
X024062Y019641D01*
X024062Y022691D01*
X020518Y022241D02*
X020462Y022391D01*
X020012Y022391D02*
X020006Y022241D01*
X020012Y022391D02*
X020012Y022991D01*
X017762Y022991D02*
X017462Y022991D01*
X017312Y022997D01*
X016562Y023891D02*
X015856Y023185D01*
X015562Y023185D01*
X016556Y023891D02*
X016612Y024041D01*
X016612Y024341D01*
X016562Y023891D02*
X016556Y023891D01*
X016862Y025831D02*
X016862Y026941D01*
X011862Y026941D01*
X011862Y025841D01*
X011862Y025831D01*
X011962Y025841D02*
X012262Y025841D01*
X012362Y025831D01*
X012462Y025841D01*
X012762Y025841D01*
X012862Y025831D01*
X011862Y026941D02*
X008762Y026941D01*
X008412Y026936D01*
X009362Y027191D02*
X009362Y028251D01*
X009262Y028641D01*
X009262Y029491D01*
X010112Y030341D01*
X010112Y030441D01*
X010346Y030691D01*
X009262Y030941D02*
X009262Y029491D01*
X008346Y030691D02*
X008562Y030941D01*
X009262Y030941D01*
X008346Y033691D02*
X008562Y033941D01*
X008812Y034191D01*
X008962Y034241D01*
X009712Y034241D01*
X009712Y034591D01*
X009862Y034741D01*
X016612Y034741D01*
X016612Y033941D01*
X016846Y033691D01*
X016862Y033441D01*
X016862Y032941D01*
X018862Y032941D01*
X018862Y033441D01*
X018846Y033691D01*
X019062Y033941D01*
X019762Y034641D01*
X021062Y034641D01*
X021062Y034741D01*
X027812Y034741D01*
X028312Y034241D01*
X028562Y034241D01*
X028712Y034191D01*
X028962Y033941D01*
X029177Y033691D01*
X027412Y033941D02*
X027177Y033691D01*
X027412Y033941D02*
X027412Y034241D01*
X024862Y032691D02*
X024862Y032241D01*
X024862Y032691D02*
X022862Y032691D01*
X022162Y032691D01*
X022162Y032586D01*
X022012Y032491D01*
X021062Y032491D01*
X021062Y032441D01*
X020846Y032191D01*
X020862Y032441D01*
X020862Y033441D01*
X020846Y033691D01*
X021062Y033941D01*
X021062Y034641D01*
X018862Y032941D02*
X018862Y032441D01*
X018846Y032191D01*
X018862Y031941D01*
X018862Y030941D01*
X018846Y030691D01*
X018612Y030441D01*
X018612Y026841D01*
X018562Y026791D01*
X018562Y025831D01*
X019272Y025831D01*
X019362Y025741D01*
X019362Y025724D01*
X019462Y025991D01*
X019562Y026091D01*
X019562Y027891D01*
X019762Y028091D01*
X019862Y028359D01*
X020846Y030691D02*
X020862Y030941D01*
X020862Y031391D01*
X020912Y031391D01*
X020862Y031391D02*
X020862Y031941D01*
X020846Y032191D01*
X016862Y031941D02*
X016862Y030941D01*
X016846Y030691D01*
X016862Y031941D02*
X016846Y032191D01*
X016862Y032441D01*
X016862Y032941D01*
X014362Y033691D02*
X014362Y032191D01*
X014346Y032191D01*
X014346Y033691D02*
X014346Y033707D01*
X014112Y033941D01*
X014112Y034041D01*
X014012Y034141D01*
X013012Y034141D01*
X012562Y034141D01*
X012562Y033941D01*
X012346Y033691D01*
X012362Y033441D01*
X012362Y032191D01*
X012346Y032191D01*
X012346Y033691D02*
X012112Y033941D01*
X012112Y034141D01*
X011312Y034141D01*
X011262Y034091D01*
X011262Y033941D01*
X010562Y033941D01*
X010346Y033691D01*
X010212Y033941D01*
X010212Y034241D01*
X008346Y033691D02*
X008112Y033941D01*
X008112Y034141D01*
X007312Y034141D01*
X007262Y034091D01*
X007262Y033941D01*
X006562Y033941D01*
X006346Y033691D01*
X006112Y033941D01*
X006112Y034041D01*
X006012Y034141D01*
X004712Y034141D01*
X004712Y032441D01*
X003562Y031291D01*
X003562Y029941D01*
X003512Y029691D01*
X006362Y029441D02*
X006346Y029191D01*
X006362Y029441D02*
X006362Y030441D01*
X006346Y030691D01*
X006346Y024691D02*
X006562Y024691D01*
X002712Y017691D02*
X002512Y017691D01*
X004512Y013641D02*
X004512Y007191D01*
X002962Y007191D01*
X002937Y007166D01*
X002962Y007141D01*
X002962Y006341D01*
X003362Y005941D01*
X003512Y005691D01*
X002512Y006691D02*
X002062Y007141D01*
X002062Y008891D01*
X002412Y009241D01*
X003062Y009241D01*
X003512Y009691D01*
X002512Y007691D02*
X002662Y007441D01*
X002937Y007166D01*
X007112Y007091D02*
X007112Y008091D01*
X007012Y008499D01*
X007112Y007091D02*
X007262Y006641D01*
X007262Y006041D01*
X007262Y003491D01*
X007262Y002591D01*
X007012Y001991D01*
X010562Y004941D02*
X010562Y005041D01*
X010562Y006491D02*
X010538Y006680D01*
X010462Y006641D01*
X008018Y006641D01*
X008012Y006641D01*
X008262Y006891D01*
X008262Y009691D01*
X008262Y011291D01*
X008012Y011941D01*
X008018Y013041D02*
X008012Y013041D01*
X011312Y009391D02*
X012212Y010291D01*
X012212Y010886D01*
X012218Y010886D01*
X012912Y010191D01*
X015768Y010186D01*
X016012Y009941D01*
X016012Y009231D01*
X017612Y006936D02*
X017562Y006841D01*
X017562Y006541D01*
X019397Y008486D02*
X019412Y008541D01*
X019412Y008991D01*
X019262Y009191D01*
X020657Y007227D02*
X021212Y007227D01*
X021362Y007191D01*
X021212Y007227D02*
X021847Y007227D01*
X021862Y007241D01*
X021806Y007241D01*
X021762Y006591D02*
X022062Y006291D01*
X022062Y005441D01*
X022168Y005291D01*
X021656Y005291D02*
X021562Y005441D01*
X021562Y006041D01*
X021362Y006241D01*
X028162Y005441D02*
X028156Y005291D01*
X028762Y006291D02*
X030612Y006291D01*
X030612Y006841D01*
X031177Y006841D01*
X028762Y006341D02*
X028762Y006291D01*
X023662Y013691D02*
X023662Y014691D01*
X017912Y014191D02*
X017906Y014191D01*
X017862Y014191D01*
X017812Y014241D01*
X013012Y011651D02*
X013012Y011391D01*
X012212Y011391D02*
X012212Y011397D01*
X011312Y009391D02*
X011312Y009041D01*
X011218Y008891D01*
X011212Y008741D01*
X011212Y007891D01*
X011286Y007703D01*
X011212Y007491D01*
X011012Y007291D01*
X011012Y006891D01*
X010912Y006680D01*
X010538Y006680D02*
X010462Y006891D01*
X010612Y008741D02*
X010706Y008891D01*
X007506Y006641D02*
X007262Y006641D01*
X017862Y025831D02*
X018562Y025831D01*
X024362Y028071D02*
X024362Y028091D01*
X014362Y033691D02*
X014346Y033691D01*
D40*
X013012Y034191D03*
X015962Y031641D03*
X015212Y031141D03*
X014762Y031191D03*
X015162Y030241D03*
X015662Y029491D03*
X016462Y030091D03*
X017362Y031141D03*
X017962Y029641D03*
X017662Y029341D03*
X018262Y028541D03*
X020062Y027691D03*
X019862Y026541D03*
X020362Y026541D03*
X021162Y026841D03*
X023062Y026941D03*
X023162Y026241D03*
X023562Y026241D03*
X024062Y025391D03*
X024962Y026691D03*
X025762Y025291D03*
X026062Y024991D03*
X025462Y023841D03*
X026762Y023841D03*
X028512Y024241D03*
X029012Y025391D03*
X028662Y025791D03*
X028462Y026391D03*
X027412Y025791D03*
X026912Y026441D03*
X027262Y027541D03*
X026262Y028491D03*
X027562Y029841D03*
X028162Y029141D03*
X028762Y029141D03*
X029262Y029441D03*
X029762Y029441D03*
X030362Y029741D03*
X030962Y030141D03*
X029562Y030141D03*
X027762Y031541D03*
X027412Y034241D03*
X028712Y034191D03*
X024512Y031591D03*
X024012Y031041D03*
X023612Y031741D03*
X022862Y032591D03*
X023812Y033541D03*
X020912Y031391D03*
X019562Y030391D03*
X020862Y028941D03*
X022212Y029641D03*
X023362Y029241D03*
X023962Y030141D03*
X024362Y029241D03*
X024362Y028791D03*
X029262Y027991D03*
X030362Y027041D03*
X030762Y026291D03*
X030562Y025691D03*
X031512Y025841D03*
X032862Y024991D03*
X033162Y025291D03*
X032512Y027741D03*
X035712Y022691D03*
X032662Y019841D03*
X033262Y019241D03*
X033462Y016991D03*
X033162Y015891D03*
X031962Y014891D03*
X031562Y014891D03*
X031512Y013191D03*
X031212Y012291D03*
X031612Y010641D03*
X032562Y010541D03*
X033162Y009491D03*
X033112Y008741D03*
X032712Y007241D03*
X029762Y007391D03*
X028162Y005941D03*
X024312Y008191D03*
X022462Y008891D03*
X022362Y009791D03*
X021512Y009191D03*
X021412Y008241D03*
X021362Y007191D03*
X021362Y006241D03*
X022712Y006241D03*
X020262Y009191D03*
X019762Y009191D03*
X019262Y009191D03*
X018612Y009191D03*
X018212Y009791D03*
X017812Y008941D03*
X019112Y010091D03*
X019212Y010791D03*
X018512Y010691D03*
X017762Y011041D03*
X016312Y009891D03*
X015012Y008591D03*
X015312Y008291D03*
X015362Y007691D03*
X013862Y008091D03*
X013562Y008591D03*
X012212Y009841D03*
X012512Y010141D03*
X011612Y009241D03*
X011912Y008941D03*
X011912Y008541D03*
X011912Y007441D03*
X012812Y007191D03*
X011662Y006441D03*
X010712Y007191D03*
X009162Y006341D03*
X008962Y007741D03*
X007412Y007741D03*
X006562Y007591D03*
X006562Y007191D03*
X006862Y006641D03*
X006562Y006141D03*
X007262Y006041D03*
X006112Y005541D03*
X005212Y005241D03*
X004512Y006591D03*
X004812Y007541D03*
X004212Y007991D03*
X004012Y009041D03*
X006112Y008291D03*
X006512Y009991D03*
X006462Y010441D03*
X008262Y009691D03*
X008562Y010441D03*
X009862Y010441D03*
X009862Y009941D03*
X010462Y009541D03*
X010262Y008941D03*
X010612Y010891D03*
X009912Y011341D03*
X008912Y011891D03*
X007512Y012591D03*
X006912Y012941D03*
X006462Y012591D03*
X005712Y012541D03*
X005412Y012841D03*
X006162Y014041D03*
X006362Y014541D03*
X007112Y014341D03*
X004062Y013391D03*
X012212Y012491D03*
X012462Y013291D03*
X014162Y014291D03*
X014462Y014741D03*
X015312Y015041D03*
X015912Y014641D03*
X015612Y014191D03*
X016462Y014191D03*
X017512Y014641D03*
X017462Y015641D03*
X017062Y015691D03*
X016462Y015891D03*
X016762Y016691D03*
X017162Y016691D03*
X017762Y016391D03*
X017762Y015991D03*
X018212Y015641D03*
X018612Y015641D03*
X018562Y016391D03*
X020112Y016291D03*
X020612Y016941D03*
X021362Y017091D03*
X021512Y017941D03*
X020612Y017841D03*
X020612Y018241D03*
X020612Y019391D03*
X021562Y019541D03*
X021062Y020241D03*
X021362Y020591D03*
X021712Y020891D03*
X022112Y020941D03*
X023162Y020691D03*
X023012Y020291D03*
X022562Y019491D03*
X022562Y019091D03*
X022862Y018491D03*
X022562Y018091D03*
X022712Y016291D03*
X022362Y015391D03*
X021962Y015391D03*
X021362Y014641D03*
X021662Y014291D03*
X021712Y013891D03*
X022112Y013091D03*
X022412Y012491D03*
X022812Y012491D03*
X023312Y012191D03*
X023112Y013241D03*
X024312Y011191D03*
X025112Y011291D03*
X025862Y013641D03*
X025412Y015091D03*
X024812Y015391D03*
X024012Y015791D03*
X024012Y016191D03*
X024462Y016841D03*
X025112Y016691D03*
X025862Y017041D03*
X026312Y017541D03*
X026312Y018391D03*
X025662Y019091D03*
X025662Y019691D03*
X025312Y020091D03*
X024762Y019391D03*
X024362Y019791D03*
X025612Y020941D03*
X025562Y022091D03*
X028112Y020341D03*
X027862Y019991D03*
X028712Y019991D03*
X028262Y018391D03*
X027612Y018091D03*
X027812Y016891D03*
X027212Y016791D03*
X027712Y015541D03*
X027612Y014291D03*
X026362Y015241D03*
X029162Y015541D03*
X029612Y015241D03*
X029012Y016691D03*
X029512Y017691D03*
X030312Y016691D03*
X030712Y017391D03*
X031412Y016691D03*
X030712Y018191D03*
X021912Y010791D03*
X019862Y010391D03*
X017812Y013091D03*
X018212Y013191D03*
X018912Y013341D03*
X019162Y013691D03*
X018862Y014391D03*
X019712Y014441D03*
X020162Y014641D03*
X020762Y015741D03*
X020062Y013191D03*
X016462Y012441D03*
X015912Y012291D03*
X015612Y012591D03*
X015212Y012491D03*
X014112Y010991D03*
X017162Y006741D03*
X017562Y006541D03*
X022412Y002691D03*
X012262Y004191D03*
X011012Y004941D03*
X010612Y004191D03*
X008012Y003291D03*
X007712Y002691D03*
X005662Y002091D03*
X005062Y002691D03*
X014462Y015641D03*
X014462Y016041D03*
X014312Y016641D03*
X014112Y017241D03*
X014312Y017841D03*
X014612Y018141D03*
X014762Y018541D03*
X015362Y018341D03*
X015462Y018991D03*
X015462Y019641D03*
X015462Y020191D03*
X014812Y020941D03*
X014112Y021041D03*
X014112Y020441D03*
X014212Y022291D03*
X014562Y023591D03*
X014812Y024441D03*
X014262Y025191D03*
X013762Y025391D03*
X014462Y026491D03*
X015112Y026491D03*
X015962Y027241D03*
X015662Y027591D03*
X015112Y027591D03*
X013962Y027591D03*
X013462Y027891D03*
X013962Y028491D03*
X014362Y028941D03*
X013362Y029691D03*
X012962Y029691D03*
X013162Y030841D03*
X011412Y031491D03*
X010062Y031641D03*
X008812Y030241D03*
X008062Y031241D03*
X007162Y030291D03*
X006862Y029541D03*
X008312Y028641D03*
X009862Y029241D03*
X010562Y029541D03*
X011162Y029841D03*
X011312Y028891D03*
X011762Y027591D03*
X011462Y026491D03*
X011062Y026491D03*
X010012Y026491D03*
X009512Y026591D03*
X009962Y027591D03*
X010462Y027591D03*
X009712Y025091D03*
X009412Y024791D03*
X010712Y024891D03*
X014062Y026641D03*
X016162Y025191D03*
X016612Y025191D03*
X016612Y024341D03*
X016162Y024041D03*
X016112Y022991D03*
X017462Y021991D03*
X017762Y022291D03*
X018162Y022291D03*
X018562Y022291D03*
X017762Y022991D03*
X017662Y023441D03*
X019212Y023741D03*
X020012Y022991D03*
X019512Y022091D03*
X019862Y020741D03*
X020312Y020591D03*
X018862Y020391D03*
X017912Y020741D03*
X017662Y020391D03*
X016762Y020041D03*
X017762Y019091D03*
X018862Y018291D03*
X017062Y017391D03*
X016462Y017391D03*
X015462Y017591D03*
X015062Y017691D03*
X015212Y016991D03*
X020862Y024041D03*
X020462Y024341D03*
X018912Y025041D03*
X018512Y025541D03*
X018062Y025191D03*
X017662Y025191D03*
X018262Y026141D03*
X018862Y026291D03*
X019262Y026291D03*
X018012Y026941D03*
X017562Y026491D03*
X017162Y026641D03*
X018962Y032941D03*
X019362Y032841D03*
X017362Y033441D03*
X010212Y034241D03*
X008812Y034191D03*
X005162Y030691D03*
X005312Y029741D03*
X005612Y028641D03*
X005612Y028241D03*
X004712Y027741D03*
X005462Y027141D03*
X004712Y026541D03*
X004862Y025691D03*
X004712Y024791D03*
X004962Y024291D03*
X004112Y023491D03*
X003662Y024591D03*
X003062Y024791D03*
X003662Y025691D03*
X005262Y023141D03*
X003812Y022191D03*
X006862Y026541D03*
X007312Y026291D03*
X003362Y031541D03*
D41*
X006962Y024691D03*
X007012Y022441D03*
X007512Y022441D03*
X007512Y021941D03*
X007512Y021441D03*
X007512Y020941D03*
X007512Y020441D03*
X007512Y019941D03*
X007512Y019441D03*
X007512Y018941D03*
X007512Y018441D03*
X007512Y017941D03*
X008112Y017491D03*
X009212Y017541D03*
X009812Y017541D03*
X009812Y016991D03*
X009562Y015591D03*
X010762Y015591D03*
X011512Y015441D03*
X011512Y015941D03*
X011512Y016441D03*
X011512Y016941D03*
X011512Y017441D03*
X011512Y017941D03*
X011512Y018441D03*
X011512Y018941D03*
X011512Y019441D03*
X011012Y019441D03*
X011012Y018941D03*
X011012Y019941D03*
X011012Y020441D03*
X011012Y020941D03*
X011512Y020941D03*
X011512Y020441D03*
X011512Y019941D03*
X011512Y021441D03*
X011512Y021941D03*
X011012Y021941D03*
X011012Y021441D03*
X010512Y021941D03*
X010012Y021941D03*
X009512Y021941D03*
X009012Y021941D03*
X008512Y021941D03*
X008012Y021941D03*
X008012Y021441D03*
X008012Y020941D03*
X008012Y020441D03*
X008012Y019941D03*
X008012Y019441D03*
X008012Y018941D03*
X007412Y016491D03*
X006912Y016491D03*
X006912Y015991D03*
X006412Y015491D03*
X005912Y014991D03*
X005412Y014491D03*
X004912Y014491D03*
X004912Y013991D03*
X005262Y013341D03*
X004912Y014991D03*
X004912Y015491D03*
X004912Y015991D03*
X004912Y016491D03*
X005412Y016491D03*
X005912Y016491D03*
X006412Y016491D03*
X008012Y015441D03*
X008162Y013691D03*
X007412Y013541D03*
X005012Y018191D03*
X004562Y021541D03*
X005212Y021941D03*
X005212Y022441D03*
X006512Y022441D03*
X008012Y022441D03*
X008512Y022441D03*
X009012Y022441D03*
X009512Y022441D03*
X010012Y022441D03*
X010512Y022441D03*
X011012Y022441D03*
X011512Y022441D03*
X012012Y022441D03*
X012512Y022441D03*
X013412Y022841D03*
X012362Y023741D03*
X011862Y023741D03*
X011362Y023741D03*
X010862Y023741D03*
X010362Y023741D03*
X009862Y023741D03*
X009362Y023741D03*
X011862Y024841D03*
X015662Y021541D03*
X013362Y019791D03*
X013362Y019291D03*
X013362Y018791D03*
X013562Y014291D03*
X013012Y013291D03*
X014862Y013291D03*
X014862Y013991D03*
X017112Y014241D03*
X017112Y013191D03*
X016662Y009341D03*
X007362Y003491D03*
X028712Y020741D03*
X028762Y021441D03*
X028762Y021941D03*
X029362Y021691D03*
X029762Y021441D03*
X030262Y021441D03*
X030662Y021691D03*
X030262Y021941D03*
X029762Y021941D03*
X031112Y021941D03*
X031112Y021441D03*
X031612Y021441D03*
X031612Y021941D03*
X034162Y020841D03*
X032512Y024591D03*
X030762Y027591D03*
X030012Y027591D03*
X027762Y027591D03*
X029712Y014641D03*
X004762Y023841D03*
D42*
X008612Y017402D02*
X008612Y017391D01*
X008612Y017041D01*
X008912Y016741D01*
X008912Y016543D01*
X008612Y016491D01*
X008612Y017402D02*
X008614Y017402D01*
X009812Y016991D02*
X010412Y016991D01*
X010412Y017402D01*
X010409Y017402D01*
X010412Y016991D02*
X010162Y016741D01*
X010162Y016326D01*
D43*
X004512Y005691D02*
X004512Y002391D01*
X006412Y002391D01*
X006512Y001999D01*
X006762Y001441D02*
X006762Y004041D01*
X006212Y004591D01*
X005819Y004691D01*
X005262Y004891D02*
X005812Y005441D01*
X005812Y008441D01*
X005262Y008991D01*
X005262Y009941D01*
X005412Y009791D01*
X005819Y009691D01*
X005819Y009191D02*
X006212Y009291D01*
X006512Y009591D01*
X006512Y009991D01*
X006462Y010441D02*
X006912Y010891D01*
X006912Y011491D01*
X007012Y011884D01*
X006912Y012291D01*
X006912Y012941D01*
X007212Y013041D02*
X007212Y012441D01*
X007262Y012391D01*
X007262Y009491D01*
X006762Y008991D01*
X006762Y007791D01*
X006862Y007691D01*
X006862Y006641D01*
X006562Y006541D02*
X006912Y006191D01*
X006912Y005791D01*
X007012Y005384D01*
X007512Y005384D02*
X007612Y005791D01*
X007762Y005941D01*
X007762Y010941D01*
X007612Y011091D01*
X007612Y011491D01*
X007512Y011884D01*
X007512Y012591D01*
X007762Y012441D02*
X007762Y011191D01*
X007912Y011041D01*
X007912Y008891D01*
X008012Y008499D01*
X008512Y008499D02*
X008612Y008091D01*
X008962Y007741D01*
X008512Y008499D02*
X008562Y008891D01*
X008562Y010441D01*
X009205Y010691D02*
X009612Y010691D01*
X009862Y010441D01*
X009862Y009941D02*
X009762Y009841D01*
X009762Y009441D01*
X009612Y009291D01*
X009205Y009191D01*
X010162Y009041D02*
X010162Y010991D01*
X009962Y011191D01*
X009912Y011341D01*
X009612Y011341D01*
X009612Y011291D01*
X009205Y011191D01*
X009062Y011841D02*
X008912Y011891D01*
X008612Y011891D01*
X008512Y011884D01*
X009062Y011841D02*
X009812Y011841D01*
X010312Y011341D01*
X010312Y009691D01*
X010462Y009541D01*
X010162Y009041D02*
X010262Y008941D01*
X010538Y007703D02*
X010612Y007491D01*
X010712Y007391D01*
X010712Y007191D01*
X011286Y006680D02*
X011312Y006491D01*
X011312Y005741D01*
X011246Y005491D01*
X011312Y004491D02*
X012312Y004491D01*
X012362Y004541D01*
X012362Y009691D01*
X012212Y009841D01*
X012512Y010141D02*
X012512Y004441D01*
X012262Y004191D01*
X012212Y004641D02*
X012212Y008641D01*
X011912Y008941D01*
X011912Y008541D02*
X011912Y007441D01*
X012812Y007191D02*
X012812Y002391D01*
X008612Y002391D01*
X008512Y001999D01*
X008012Y001999D02*
X008012Y003291D01*
X007712Y002691D02*
X007612Y002591D01*
X007612Y002391D01*
X007512Y001999D01*
X006762Y001441D02*
X014662Y001441D01*
X016462Y003241D01*
X016462Y006841D01*
X017012Y007391D01*
X017012Y011891D01*
X016462Y012441D01*
X015912Y012291D02*
X015912Y012041D01*
X016012Y011651D01*
X015512Y011651D02*
X015612Y012041D01*
X015612Y012591D01*
X015212Y012491D02*
X015112Y012391D01*
X015112Y012041D01*
X015012Y011651D01*
X015512Y011651D02*
X015412Y011291D01*
X015412Y011091D01*
X014812Y011091D01*
X014762Y011141D01*
X014762Y012191D01*
X014262Y012191D01*
X014112Y012041D01*
X014012Y011651D01*
X014512Y011651D02*
X014412Y011291D01*
X014112Y010991D01*
X013612Y010691D02*
X013612Y011291D01*
X013512Y011651D01*
X013612Y010691D02*
X015512Y010691D01*
X016312Y009891D01*
X015512Y009231D02*
X015412Y008841D01*
X015312Y008741D01*
X015312Y008291D01*
X015012Y008591D02*
X015012Y009231D01*
X014512Y009231D02*
X014612Y008841D01*
X014712Y008741D01*
X014712Y008341D01*
X015362Y007691D01*
X013862Y008091D02*
X013862Y008791D01*
X013912Y008841D01*
X014012Y009231D01*
X013512Y009231D02*
X013562Y008841D01*
X013562Y008591D01*
X013012Y009231D02*
X013112Y009591D01*
X013312Y009791D01*
X014412Y009791D01*
X014412Y009591D01*
X014512Y009231D01*
X017312Y008641D02*
X017312Y008141D01*
X017462Y007991D01*
X017612Y007886D01*
X017762Y007891D01*
X018712Y007891D01*
X018767Y007856D01*
X018712Y007841D01*
X018767Y007541D02*
X017762Y007541D01*
X017612Y007447D01*
X017762Y007341D01*
X017912Y007191D01*
X017912Y004691D01*
X020212Y002391D01*
X023912Y002391D01*
X026012Y004491D01*
X026012Y008141D01*
X026312Y008441D01*
X026662Y008691D01*
X028512Y007541D02*
X028512Y010491D01*
X029162Y010491D01*
X029162Y010341D01*
X029262Y009961D01*
X028762Y009961D02*
X028862Y009591D01*
X028862Y008741D01*
X028962Y008641D01*
X029177Y008391D01*
X029846Y008391D02*
X029862Y008641D01*
X029862Y009591D01*
X029762Y009961D01*
X030262Y009961D02*
X030362Y010341D01*
X030362Y010491D01*
X031012Y010491D01*
X031012Y008641D01*
X031177Y008391D01*
X031562Y008091D02*
X031562Y007991D01*
X031512Y007941D01*
X030762Y007941D01*
X030762Y009961D01*
X031262Y009961D02*
X031162Y010341D01*
X031162Y010641D01*
X030162Y010641D01*
X030012Y010491D01*
X030012Y009441D01*
X030262Y009191D01*
X030262Y007791D01*
X031012Y007791D01*
X031562Y007241D01*
X031562Y007141D01*
X031612Y007091D01*
X031846Y006841D01*
X032262Y007041D02*
X032512Y006791D01*
X034262Y006791D01*
X034512Y006841D01*
X034062Y006941D02*
X034062Y007291D01*
X034362Y007591D01*
X034512Y007841D01*
X034062Y006941D02*
X032612Y006941D01*
X032412Y007141D01*
X032412Y009541D01*
X032362Y009591D01*
X032262Y009961D01*
X031762Y009961D02*
X031862Y009591D01*
X032262Y009191D01*
X032262Y007041D01*
X031562Y008091D02*
X031612Y008141D01*
X031846Y008391D01*
X033112Y008741D02*
X033462Y009091D01*
X033462Y016991D01*
X033162Y015891D02*
X033162Y019141D01*
X033262Y019241D01*
X032662Y019841D02*
X033512Y020691D01*
X033512Y022241D01*
X033262Y022491D01*
X033262Y023391D01*
X032712Y023941D01*
X027862Y023941D01*
X027862Y024691D01*
X026912Y025641D01*
X026912Y026441D01*
X027412Y025791D02*
X028662Y025791D01*
X029012Y025391D02*
X029012Y025191D01*
X028962Y025091D01*
X028862Y024811D01*
X028512Y024491D02*
X028512Y024241D01*
X028512Y024491D02*
X028462Y024541D01*
X028362Y024811D01*
X029362Y024811D02*
X029362Y025491D01*
X028462Y026391D01*
X027262Y027541D02*
X027862Y028141D01*
X027862Y029941D01*
X028262Y030341D01*
X028262Y031041D01*
X027762Y031541D01*
X027462Y031691D02*
X027462Y030991D01*
X027412Y030941D01*
X027177Y030691D01*
X026962Y030441D01*
X026962Y027491D01*
X025612Y027491D01*
X025462Y027641D01*
X025362Y028071D01*
X025862Y028071D02*
X025762Y028491D01*
X025562Y028691D01*
X025562Y030441D01*
X025346Y030691D01*
X025112Y030941D01*
X025112Y032691D01*
X024862Y032941D01*
X024862Y033441D01*
X024462Y033841D01*
X024362Y034041D01*
X023862Y034041D02*
X023812Y033841D01*
X023812Y033541D01*
X023512Y033241D02*
X023462Y033141D01*
X023262Y033091D01*
X022312Y033091D01*
X022162Y033097D01*
X023512Y033241D02*
X023512Y034441D01*
X025062Y034441D01*
X025062Y034541D01*
X027762Y034541D01*
X028262Y034041D01*
X028262Y033141D01*
X028962Y032441D01*
X029177Y032191D01*
X029612Y031941D02*
X029846Y032191D01*
X029862Y032441D01*
X029862Y033441D01*
X029846Y033691D01*
X031177Y032191D02*
X030962Y031941D01*
X030262Y031241D01*
X030262Y030341D01*
X030112Y030191D01*
X029862Y030191D01*
X029862Y030041D01*
X029262Y029441D01*
X029462Y029141D02*
X029462Y028841D01*
X029362Y028571D01*
X028962Y028291D02*
X028862Y028571D01*
X028962Y028291D02*
X029262Y027991D01*
X029862Y028571D02*
X029962Y028841D01*
X030062Y028941D01*
X030062Y030041D01*
X030462Y030041D01*
X030662Y029841D01*
X031112Y029841D01*
X031562Y030291D01*
X031562Y030391D01*
X031612Y030441D01*
X031846Y030691D01*
X031177Y030691D02*
X030962Y030441D01*
X030962Y030141D01*
X030362Y029741D02*
X030762Y029341D01*
X030762Y028841D01*
X030862Y028571D01*
X030962Y028591D01*
X031262Y028591D01*
X031362Y028571D01*
X032512Y027741D02*
X032512Y031491D01*
X032062Y031941D01*
X031846Y032191D01*
X029846Y030691D02*
X029612Y030441D01*
X029562Y030391D01*
X029562Y030141D01*
X028962Y029941D02*
X028962Y030441D01*
X029177Y030691D01*
X029412Y030941D01*
X029462Y030991D01*
X029462Y031691D01*
X029612Y031841D01*
X029612Y031941D01*
X027846Y032191D02*
X027862Y032441D01*
X027862Y033441D01*
X027846Y033691D01*
X026762Y032641D02*
X026762Y028991D01*
X026262Y028491D01*
X024862Y028071D02*
X024762Y028491D01*
X024762Y028841D01*
X024362Y029241D01*
X024062Y029841D02*
X024262Y030041D01*
X024262Y030241D01*
X024062Y030441D01*
X023762Y030441D01*
X023762Y030341D01*
X023662Y030241D01*
X022912Y030241D01*
X022912Y030441D01*
X022677Y030691D01*
X022912Y030941D01*
X022912Y031041D01*
X023612Y031741D01*
X023962Y031591D02*
X023962Y032041D01*
X023862Y032241D01*
X023962Y031591D02*
X024512Y031591D01*
X023962Y030141D02*
X023662Y029841D01*
X023662Y027041D01*
X024262Y026441D01*
X024362Y026011D01*
X024262Y025591D01*
X024062Y025391D01*
X024612Y025441D02*
X024612Y026541D01*
X024262Y026891D01*
X024062Y026891D01*
X024062Y029841D01*
X023362Y029241D02*
X023362Y026441D01*
X023162Y026241D01*
X023562Y026241D02*
X023562Y025191D01*
X025262Y023491D01*
X025262Y020141D01*
X025312Y020091D01*
X025012Y020091D02*
X025012Y019741D01*
X025662Y019091D01*
X025962Y018691D02*
X025862Y018591D01*
X025862Y017041D01*
X025412Y016791D02*
X025412Y016191D01*
X026362Y015241D01*
X025862Y014641D02*
X025862Y013641D01*
X025862Y014641D02*
X025412Y015091D01*
X024812Y015391D02*
X024762Y015341D01*
X024762Y005341D01*
X023662Y004241D01*
X023512Y003691D01*
X022962Y004041D02*
X022962Y003241D01*
X022412Y002691D01*
X022962Y004041D02*
X024612Y005691D01*
X024612Y011291D01*
X024512Y011391D01*
X024512Y016791D01*
X024462Y016841D01*
X023962Y016641D02*
X024312Y016291D01*
X024312Y011191D01*
X023662Y011691D02*
X023312Y011441D01*
X021812Y009941D01*
X021812Y008141D01*
X021806Y007991D01*
X021662Y007841D01*
X021662Y007591D01*
X020712Y007591D01*
X020657Y007541D01*
X020657Y007856D02*
X020712Y007941D01*
X021412Y007941D01*
X021412Y008241D01*
X021462Y008591D02*
X021062Y008591D01*
X020712Y008241D01*
X020657Y008171D01*
X020062Y008541D02*
X020062Y009191D01*
X020262Y009191D01*
X020062Y009191D02*
X020062Y009491D01*
X020118Y009641D01*
X019762Y009441D02*
X019712Y009491D01*
X019606Y009641D01*
X019762Y009441D02*
X019762Y009191D01*
X019762Y008541D01*
X019712Y008486D01*
X020027Y008486D02*
X020062Y008541D01*
X018767Y008171D02*
X018712Y008191D01*
X018212Y008191D01*
X018212Y008491D01*
X017762Y008491D01*
X017612Y008397D01*
X017312Y008641D02*
X017462Y008791D01*
X017662Y008791D01*
X017812Y008941D01*
X018212Y008491D02*
X018212Y009791D01*
X018212Y013191D01*
X017812Y013091D02*
X017762Y013041D01*
X017762Y011041D01*
X017462Y011041D02*
X017162Y010741D01*
X017162Y006741D01*
X017612Y007886D02*
X017612Y007991D01*
X018612Y009191D02*
X019512Y010091D01*
X019512Y012641D01*
X020062Y013191D01*
X020312Y013491D02*
X019512Y013491D01*
X019362Y013341D01*
X018912Y013341D01*
X019162Y013691D02*
X018612Y013691D01*
X018612Y011391D01*
X019212Y010791D01*
X018512Y010691D02*
X019112Y010091D01*
X019862Y010391D02*
X021312Y011841D01*
X021312Y012291D01*
X022112Y013091D01*
X022412Y012491D02*
X022412Y015341D01*
X022362Y015391D01*
X022012Y015341D02*
X022012Y013791D01*
X021812Y013591D01*
X021412Y013591D01*
X021262Y013486D01*
X021112Y013391D01*
X021012Y013291D01*
X021012Y012241D01*
X020912Y011991D01*
X021912Y010791D02*
X023312Y012191D01*
X022812Y012491D02*
X022812Y016191D01*
X022712Y016291D01*
X022562Y016541D02*
X022312Y016541D01*
X022083Y016459D01*
X022083Y016774D02*
X021862Y016691D01*
X021662Y016691D01*
X021662Y014291D01*
X021362Y014641D02*
X021362Y014891D01*
X021374Y015121D01*
X021059Y015121D02*
X021062Y015341D01*
X021062Y020241D01*
X020762Y020391D02*
X021012Y020641D01*
X021012Y021041D01*
X021059Y021262D01*
X020744Y021262D02*
X020662Y021041D01*
X020662Y020541D01*
X020312Y020191D01*
X020312Y016491D01*
X020412Y016391D01*
X020412Y016191D01*
X020212Y015991D01*
X018862Y015991D01*
X018862Y018291D01*
X017762Y019091D02*
X017762Y016391D01*
X018062Y016291D02*
X017762Y015991D01*
X018062Y016291D02*
X018062Y020591D01*
X017912Y020741D01*
X018212Y021041D02*
X018224Y021262D01*
X018212Y021041D02*
X018212Y015641D01*
X018612Y015641D02*
X018612Y015341D01*
X018539Y015121D01*
X018854Y015121D02*
X018862Y014891D01*
X018862Y014391D01*
X019712Y014441D02*
X019712Y014891D01*
X019799Y015121D01*
X020114Y015121D02*
X020162Y014891D01*
X020162Y014641D01*
X020312Y013491D02*
X020462Y013486D01*
X019362Y013341D02*
X019362Y012491D01*
X019112Y012241D01*
X019012Y011991D01*
X017462Y011041D02*
X017462Y013291D01*
X017412Y013341D01*
X017412Y013641D01*
X014512Y013641D01*
X014512Y014091D01*
X015012Y014591D01*
X015012Y015141D01*
X015162Y015291D01*
X015162Y016691D01*
X015712Y016691D01*
X015941Y016774D01*
X015941Y016459D02*
X015712Y016391D01*
X015312Y016391D01*
X015312Y015041D01*
X015562Y015191D02*
X015612Y015141D01*
X015612Y014191D01*
X015912Y014641D02*
X015912Y014941D01*
X016762Y015791D01*
X016762Y016691D01*
X017162Y016691D02*
X017162Y015791D01*
X017062Y015691D01*
X017462Y015641D02*
X017462Y020191D01*
X017662Y020391D01*
X017062Y020341D02*
X017062Y017391D01*
X016462Y017391D02*
X016462Y017641D01*
X016162Y017641D01*
X015941Y017719D01*
X015941Y017404D02*
X015712Y017491D01*
X015462Y017491D01*
X015462Y017591D01*
X015062Y017691D02*
X015362Y017991D01*
X015712Y017991D01*
X015941Y018034D01*
X015941Y018349D02*
X015712Y018341D01*
X015362Y018341D01*
X015062Y018091D02*
X014762Y017791D01*
X014762Y017491D01*
X014912Y017341D01*
X014912Y015291D01*
X014862Y015241D01*
X014862Y014691D01*
X014612Y014441D01*
X014312Y014441D01*
X014162Y014291D01*
X014462Y014741D02*
X014462Y015091D01*
X014762Y015391D01*
X014762Y017241D01*
X014612Y017391D01*
X014612Y018141D01*
X014412Y018341D02*
X014412Y021091D01*
X014562Y021241D01*
X014562Y023591D01*
X014812Y024441D02*
X014812Y025091D01*
X014462Y025441D01*
X014362Y025831D01*
X014862Y025831D02*
X014762Y026191D01*
X014462Y026491D01*
X015112Y026491D02*
X015112Y019991D01*
X015462Y019641D01*
X015712Y019291D02*
X015062Y019291D01*
X015062Y018091D01*
X014462Y017441D02*
X014362Y017541D01*
X014212Y017541D01*
X014012Y017741D01*
X014012Y017941D01*
X014112Y018041D01*
X014112Y020441D01*
X014812Y020941D02*
X014912Y020941D01*
X014912Y018541D01*
X014762Y018541D01*
X014412Y018341D02*
X014312Y018241D01*
X014312Y017841D01*
X014462Y017441D02*
X014462Y017291D01*
X014612Y017141D01*
X014612Y016141D01*
X014462Y016041D01*
X014162Y015941D02*
X014162Y016491D01*
X014312Y016641D01*
X014012Y017141D02*
X014012Y015241D01*
X012462Y013691D01*
X012462Y013291D01*
X012212Y012491D02*
X010612Y010891D01*
X011612Y009241D02*
X011612Y006491D01*
X011662Y006441D01*
X012212Y004641D02*
X009612Y004641D01*
X009205Y004691D01*
X009205Y004191D02*
X010612Y004191D01*
X011312Y004491D02*
X009612Y002791D01*
X009205Y002691D01*
X008512Y005384D02*
X008612Y005791D01*
X009162Y006341D01*
X007412Y007741D02*
X007412Y008091D01*
X007512Y008499D01*
X006512Y008499D02*
X006412Y008291D01*
X006112Y008291D01*
X006562Y007591D02*
X006112Y007141D01*
X006112Y005541D01*
X006512Y005384D02*
X006562Y005791D01*
X006562Y006141D01*
X006562Y006541D02*
X006562Y007191D01*
X004812Y007541D02*
X004812Y003391D01*
X005412Y002791D01*
X005819Y002691D01*
X005819Y003191D02*
X005412Y003291D01*
X005262Y003441D01*
X005262Y004891D01*
X005212Y005241D02*
X005112Y005341D01*
X005112Y012541D01*
X005412Y012841D01*
X005362Y012541D02*
X005362Y011491D01*
X005262Y011391D01*
X005262Y009941D01*
X004012Y009041D02*
X003962Y009091D01*
X003962Y012241D01*
X003062Y013141D01*
X003062Y014141D01*
X003362Y014441D01*
X003512Y014691D01*
X003512Y013691D02*
X003662Y013441D01*
X003662Y013391D01*
X004312Y012741D01*
X004312Y008091D01*
X004212Y007991D01*
X004512Y006591D02*
X004662Y006441D01*
X004662Y003091D01*
X005062Y002691D01*
X005662Y002091D02*
X006462Y001291D01*
X016762Y001291D01*
X016762Y003241D01*
X017012Y003691D01*
X021462Y008591D02*
X021556Y008741D01*
X021512Y008891D01*
X021512Y009191D01*
X022062Y008891D02*
X022062Y009891D01*
X022262Y010091D01*
X023012Y010091D01*
X023012Y009391D01*
X023312Y009091D01*
X023312Y008941D01*
X023662Y008691D01*
X023012Y008191D02*
X024312Y008191D01*
X023662Y007691D02*
X023212Y007841D01*
X022662Y007841D01*
X022662Y008691D01*
X022462Y008891D01*
X022062Y008891D02*
X022068Y008741D01*
X023012Y009141D02*
X023012Y008191D01*
X023012Y009141D02*
X022362Y009791D01*
X025112Y011291D02*
X025112Y016691D01*
X025412Y016791D02*
X024862Y017341D01*
X024862Y017841D01*
X024562Y018141D01*
X024412Y018391D01*
X023962Y018441D02*
X023962Y016641D01*
X023562Y016641D02*
X024012Y016191D01*
X023712Y016141D02*
X023712Y016091D01*
X024012Y015791D01*
X023712Y016141D02*
X022962Y016891D01*
X022962Y017641D01*
X022312Y017641D01*
X022083Y017719D01*
X022083Y017404D02*
X021862Y017491D01*
X021212Y017491D01*
X021212Y019191D01*
X021562Y019541D01*
X021512Y019241D02*
X021512Y017941D01*
X022083Y018034D02*
X022312Y018091D01*
X022562Y018091D01*
X022562Y018391D02*
X022312Y018391D01*
X022083Y018349D01*
X022562Y018391D02*
X022562Y019091D01*
X022562Y019491D02*
X022562Y019541D01*
X022312Y019541D01*
X022083Y019609D01*
X022083Y019924D02*
X022312Y019841D01*
X022862Y019841D01*
X022862Y018491D01*
X023212Y019191D02*
X023962Y018441D01*
X023212Y019191D02*
X023212Y019991D01*
X022912Y019991D01*
X022712Y020191D01*
X022312Y020191D01*
X022083Y020239D01*
X022083Y020554D02*
X022112Y020641D01*
X022112Y020941D01*
X021712Y020891D02*
X021612Y020991D01*
X021612Y023291D01*
X020862Y024041D01*
X021862Y024541D02*
X021012Y025391D01*
X021012Y026691D01*
X021162Y026841D01*
X020362Y026541D02*
X020362Y028359D01*
X020062Y027691D02*
X020062Y026741D01*
X019862Y026541D01*
X019262Y026291D02*
X019262Y028091D01*
X019362Y028359D01*
X018862Y028491D02*
X018862Y026291D01*
X018262Y026141D02*
X018112Y026291D01*
X018112Y026941D01*
X018012Y026941D01*
X018112Y026941D02*
X018112Y027241D01*
X017462Y027891D01*
X017362Y028251D01*
X017862Y028251D02*
X017962Y028641D01*
X017962Y029641D01*
X017662Y029341D02*
X017662Y031641D01*
X017962Y031941D01*
X018177Y032191D01*
X017362Y031141D02*
X017262Y031041D01*
X017262Y028891D01*
X017112Y028741D01*
X017112Y027591D01*
X017562Y027141D01*
X017562Y026491D01*
X017162Y026641D02*
X017062Y026741D01*
X017062Y027391D01*
X016962Y027491D01*
X016962Y027891D01*
X016862Y028251D01*
X016762Y028641D01*
X016762Y029791D01*
X016462Y030091D01*
X016162Y030441D02*
X016177Y030691D01*
X016162Y030441D02*
X016162Y029191D01*
X016612Y028741D01*
X016612Y027741D01*
X016562Y027691D01*
X016112Y027691D01*
X016112Y028741D01*
X016062Y028791D01*
X015112Y028791D01*
X015112Y027591D01*
X015462Y027891D02*
X015362Y028251D01*
X015462Y027891D02*
X015662Y027691D01*
X015662Y027591D01*
X015962Y027891D02*
X015962Y027241D01*
X015962Y027891D02*
X015862Y028251D01*
X016362Y028251D02*
X016262Y028641D01*
X016262Y028841D01*
X015912Y029191D01*
X015362Y029191D01*
X015362Y030041D01*
X015512Y030191D01*
X015512Y033291D01*
X014262Y034541D01*
X009912Y034541D01*
X009912Y033941D01*
X009677Y033691D01*
X009712Y033441D01*
X009712Y032441D01*
X009677Y032191D01*
X009712Y031941D01*
X009712Y030941D01*
X009677Y030691D01*
X008812Y030241D02*
X007912Y030241D01*
X007912Y030441D01*
X007677Y030691D01*
X007712Y030941D01*
X007712Y031941D01*
X007677Y032191D01*
X007712Y032441D01*
X007712Y033441D01*
X007677Y033691D01*
X008346Y032191D02*
X008112Y031941D01*
X008062Y031891D01*
X008062Y031241D01*
X006862Y031641D02*
X006862Y029541D01*
X007462Y029441D02*
X007677Y029191D01*
X007462Y029441D02*
X007462Y029991D01*
X007162Y030291D01*
X005677Y030691D02*
X005712Y030941D01*
X005712Y031941D01*
X005677Y032191D01*
X005712Y032441D01*
X005712Y033441D01*
X005677Y033691D01*
X006346Y032191D02*
X006562Y031941D01*
X006862Y031641D01*
X005677Y030691D02*
X005462Y030441D01*
X005012Y029991D01*
X005012Y025841D01*
X004862Y025691D01*
X004562Y026391D02*
X004562Y024941D01*
X004712Y024791D01*
X005162Y024491D02*
X005412Y024241D01*
X005412Y023441D01*
X005612Y023241D01*
X005612Y021391D01*
X004712Y020491D01*
X003912Y020491D01*
X003562Y020141D01*
X002662Y020141D01*
X002662Y019941D01*
X002512Y019691D01*
X002512Y020691D02*
X002662Y020941D01*
X002662Y021141D01*
X003662Y021141D01*
X004412Y021891D01*
X004412Y027441D01*
X004712Y027741D01*
X005162Y028191D02*
X005162Y024491D01*
X005112Y024291D02*
X005262Y024141D01*
X005262Y023141D01*
X005112Y024291D02*
X004962Y024291D01*
X005677Y024691D02*
X005912Y024441D01*
X005962Y024391D01*
X005962Y024241D01*
X007312Y024241D01*
X007312Y026291D01*
X007162Y026541D02*
X007212Y026591D01*
X009512Y026591D01*
X009962Y026441D02*
X009962Y026191D01*
X009862Y025831D01*
X009762Y025441D01*
X009762Y025141D01*
X009712Y025091D01*
X009412Y024791D02*
X009412Y025441D01*
X009362Y025831D01*
X009962Y026441D02*
X010012Y026491D01*
X010362Y025831D02*
X010312Y025441D01*
X010312Y024491D01*
X013912Y024491D01*
X013912Y021241D01*
X014112Y021041D01*
X014212Y022291D02*
X014112Y022391D01*
X014112Y024841D01*
X013762Y025191D01*
X013762Y025391D01*
X014062Y025391D02*
X014062Y026641D01*
X013962Y027591D02*
X012762Y027591D01*
X012462Y027891D01*
X012362Y028251D01*
X012862Y028251D02*
X012962Y028641D01*
X013362Y029041D01*
X013362Y029691D01*
X012962Y029691D02*
X012962Y029641D01*
X011962Y028641D01*
X011862Y028251D01*
X011612Y027741D02*
X011612Y030441D01*
X011677Y030691D01*
X011712Y030941D01*
X011712Y031941D01*
X011677Y032191D01*
X011712Y032441D01*
X011712Y033441D01*
X011677Y033691D01*
X010346Y032191D02*
X010112Y031941D01*
X010062Y031891D01*
X010062Y031641D01*
X010862Y030941D02*
X010862Y028251D01*
X010762Y027891D01*
X010462Y027591D01*
X010262Y027891D02*
X010362Y028251D01*
X010462Y028641D01*
X010462Y029441D01*
X010562Y029541D01*
X011162Y029841D02*
X011262Y029741D01*
X011262Y029041D01*
X011312Y028891D01*
X011312Y028641D01*
X011362Y028251D01*
X011612Y027741D02*
X011762Y027591D01*
X011462Y026491D02*
X011462Y026191D01*
X011362Y025831D01*
X010862Y025831D02*
X010762Y025441D01*
X010762Y024941D01*
X010712Y024891D01*
X010862Y025831D02*
X010962Y026191D01*
X010962Y026391D01*
X011062Y026491D01*
X009962Y027591D02*
X010262Y027891D01*
X009862Y028251D02*
X009862Y029241D01*
X008346Y029191D02*
X008312Y029041D01*
X008312Y028641D01*
X007162Y026541D02*
X006862Y026541D01*
X005677Y026191D02*
X005462Y026441D01*
X005462Y027141D01*
X005677Y027691D02*
X005612Y027941D01*
X005612Y028241D01*
X005612Y028641D02*
X005162Y028191D01*
X005677Y029191D02*
X005462Y029441D01*
X005312Y029591D01*
X005312Y029741D01*
X005162Y030691D02*
X003962Y029491D01*
X003962Y023741D01*
X003812Y023591D01*
X003812Y022991D01*
X003962Y022841D01*
X003962Y022341D01*
X003812Y022191D01*
X003762Y021841D02*
X003512Y021691D01*
X003762Y021841D02*
X004112Y021841D01*
X004112Y023491D01*
X003062Y023991D02*
X003662Y024591D01*
X003662Y024991D02*
X003662Y025691D01*
X003662Y024991D02*
X002062Y023391D01*
X002062Y015241D01*
X002362Y014941D01*
X002512Y014691D01*
X002512Y013691D01*
X003962Y013491D02*
X004062Y013391D01*
X003962Y013491D02*
X003962Y016141D01*
X003662Y016441D01*
X003512Y016691D01*
X002512Y016691D02*
X002512Y015691D01*
X005362Y012541D02*
X005712Y012541D01*
X006012Y012491D02*
X006012Y011291D01*
X005819Y011191D01*
X006512Y011884D02*
X006462Y012291D01*
X006462Y012591D01*
X006162Y012641D02*
X006012Y012491D01*
X006162Y012641D02*
X006162Y014041D01*
X006362Y014541D02*
X006812Y014091D01*
X006812Y013441D01*
X007212Y013041D01*
X007762Y012791D02*
X007762Y013691D01*
X007112Y014341D01*
X007762Y012791D02*
X007812Y012741D01*
X007812Y012491D01*
X007762Y012441D01*
X014012Y017141D02*
X014112Y017241D01*
X015212Y017041D02*
X015212Y016991D01*
X015212Y017041D02*
X015712Y017041D01*
X015941Y017089D01*
X015941Y016144D02*
X015712Y016091D01*
X015562Y016091D01*
X015562Y015191D01*
X015941Y015829D02*
X016162Y015891D01*
X016462Y015891D01*
X016650Y015121D02*
X016562Y014891D01*
X016462Y014791D01*
X016462Y014191D01*
X017512Y014641D02*
X017512Y014891D01*
X017594Y015121D01*
X018562Y016391D02*
X018562Y021041D01*
X018539Y021262D01*
X018854Y021262D02*
X018912Y021491D01*
X018912Y025041D01*
X018562Y025491D02*
X018562Y022291D01*
X018162Y022291D02*
X018062Y022391D01*
X018062Y025191D01*
X017662Y025191D02*
X017662Y023441D01*
X017312Y022486D02*
X017162Y022391D01*
X017162Y021641D01*
X017212Y021591D01*
X017212Y021491D01*
X017280Y021262D01*
X017594Y021262D02*
X017512Y021491D01*
X017512Y021941D01*
X017462Y021991D01*
X017762Y022291D02*
X017862Y022191D01*
X017862Y021491D01*
X017909Y021262D01*
X018862Y020391D02*
X019412Y020941D01*
X019412Y021041D01*
X019484Y021262D01*
X019169Y021262D02*
X019212Y021491D01*
X019212Y023741D01*
X019712Y022291D02*
X019712Y025391D01*
X019762Y025441D01*
X019862Y025724D01*
X020862Y025724D02*
X020962Y025441D01*
X021012Y025391D01*
X021862Y024541D02*
X021862Y021991D01*
X023162Y020691D01*
X023012Y020291D02*
X023362Y020291D01*
X023562Y020278D01*
X023562Y021105D02*
X023562Y022007D01*
X024812Y022007D02*
X024812Y021105D01*
X025612Y020941D02*
X025612Y019741D01*
X025662Y019691D01*
X025012Y020091D02*
X024812Y020278D01*
X024362Y019791D02*
X024762Y019391D01*
X025962Y018691D02*
X025962Y022091D01*
X025762Y022291D01*
X025762Y025291D01*
X026062Y024991D02*
X026112Y024941D01*
X026112Y018591D01*
X026012Y018491D01*
X026012Y017841D01*
X026312Y017541D01*
X027212Y016791D02*
X027262Y016741D01*
X027262Y016491D01*
X027496Y016241D01*
X027712Y015991D01*
X027712Y015541D01*
X028012Y014691D02*
X028012Y016691D01*
X028112Y016791D01*
X028112Y017591D01*
X027612Y018091D01*
X027712Y018391D02*
X027496Y018641D01*
X027712Y018391D02*
X027912Y018391D01*
X027912Y019991D01*
X027862Y019991D01*
X028112Y020341D02*
X028362Y020341D01*
X028712Y019991D01*
X029262Y020668D02*
X029262Y020741D01*
X028262Y018391D02*
X027912Y018391D01*
X027496Y017441D02*
X027712Y017191D01*
X027812Y017091D01*
X027812Y016891D01*
X029012Y016691D02*
X029312Y016391D01*
X029412Y016124D01*
X029512Y016391D01*
X029812Y016691D01*
X029812Y016791D01*
X030012Y016991D01*
X030812Y016991D01*
X030812Y016391D01*
X030912Y016124D01*
X031012Y015841D01*
X031962Y014891D01*
X031562Y014891D02*
X031562Y014391D01*
X031362Y014191D01*
X031262Y013821D01*
X031762Y013821D02*
X031662Y013441D01*
X031662Y013341D01*
X031512Y013191D01*
X030912Y012891D02*
X030912Y012191D01*
X032562Y010541D01*
X031612Y010641D02*
X030762Y011491D01*
X030762Y012541D01*
X029862Y013441D01*
X029762Y013821D01*
X030262Y013821D02*
X030362Y013441D01*
X030912Y012891D01*
X031212Y012291D02*
X032162Y013241D01*
X032162Y013441D01*
X032262Y013821D01*
X030762Y013821D02*
X030662Y014191D01*
X029612Y015241D01*
X029162Y015541D02*
X029162Y015691D01*
X030312Y015691D01*
X030312Y015841D01*
X030412Y016124D01*
X030012Y016391D02*
X029912Y016124D01*
X030012Y016391D02*
X030312Y016691D01*
X030712Y017391D02*
X030712Y018191D01*
X031412Y016691D02*
X031412Y016124D01*
X029162Y015691D02*
X029012Y015841D01*
X028912Y016124D01*
X028012Y014691D02*
X027612Y014291D01*
X023562Y016641D02*
X023562Y017141D01*
X023412Y017391D01*
X023012Y016591D02*
X022612Y016591D01*
X022562Y016541D01*
X023012Y016591D02*
X023012Y013341D01*
X023112Y013241D01*
X022012Y015341D02*
X021962Y015391D01*
X020912Y015891D02*
X020762Y015741D01*
X020912Y015891D02*
X020912Y019491D01*
X020762Y019641D01*
X020762Y020391D01*
X020312Y020591D02*
X020112Y020391D01*
X020112Y016291D01*
X020612Y016941D02*
X020612Y017841D01*
X020612Y018241D02*
X020612Y019391D01*
X021512Y019241D02*
X021862Y019241D01*
X022083Y019294D01*
X021362Y020591D02*
X021362Y021041D01*
X021374Y021262D01*
X019862Y021041D02*
X019862Y020741D01*
X019862Y021041D02*
X019799Y021262D01*
X019512Y022091D02*
X019712Y022291D01*
X017062Y020341D02*
X016462Y020341D01*
X016462Y019991D01*
X016162Y019991D01*
X015941Y019924D01*
X015941Y020239D02*
X015712Y020191D01*
X015462Y020191D01*
X015941Y019609D02*
X016162Y019691D01*
X016762Y019691D01*
X016762Y020041D01*
X015941Y019294D02*
X015712Y019291D01*
X015462Y018991D02*
X015462Y018741D01*
X015712Y018741D01*
X015941Y018664D01*
X016650Y021262D02*
X016662Y021491D01*
X016662Y022391D01*
X016562Y022486D01*
X016412Y022491D01*
X016112Y022491D01*
X016112Y022991D01*
X016112Y022491D02*
X015712Y022491D01*
X015562Y022398D01*
X016162Y024041D02*
X015462Y024741D01*
X015462Y025441D01*
X015362Y025831D01*
X015862Y025831D02*
X015962Y026191D01*
X016162Y026391D01*
X016612Y026391D01*
X016612Y025191D01*
X016262Y025441D02*
X016362Y025831D01*
X016262Y025441D02*
X016162Y025341D01*
X016162Y025191D01*
X014262Y025191D02*
X014062Y025391D01*
X013462Y027891D02*
X013662Y028091D01*
X013662Y030441D01*
X013677Y030691D01*
X013712Y030941D01*
X013712Y031941D01*
X013677Y032191D01*
X013712Y032441D01*
X013712Y033441D01*
X013677Y033691D01*
X015662Y033141D02*
X015662Y029491D01*
X014962Y030041D02*
X015162Y030241D01*
X014962Y030041D02*
X014962Y028641D01*
X014862Y028251D01*
X013962Y028491D02*
X013962Y028941D01*
X014762Y029741D01*
X014762Y030691D01*
X015212Y031141D01*
X014762Y031141D02*
X014762Y031191D01*
X014762Y031141D02*
X014562Y030941D01*
X014346Y030691D01*
X013162Y030841D02*
X012562Y030841D01*
X012346Y030691D01*
X011412Y031491D02*
X010862Y030941D01*
X015962Y031641D02*
X015962Y031941D01*
X016177Y032191D01*
X015662Y033141D02*
X015962Y033441D01*
X016177Y033691D01*
X017362Y033441D02*
X017962Y033441D01*
X018177Y033691D01*
X019362Y032841D02*
X019962Y033441D01*
X020177Y033691D01*
X020177Y032191D02*
X019962Y031941D01*
X019262Y031241D01*
X019262Y028891D01*
X018862Y028491D01*
X018262Y028541D02*
X018262Y030441D01*
X018177Y030691D01*
X019562Y030441D02*
X019562Y030391D01*
X019562Y030441D02*
X019962Y030441D01*
X020177Y030691D01*
X022212Y029641D02*
X023162Y028691D01*
X023162Y027041D01*
X023062Y026941D01*
X024612Y025441D02*
X025112Y025441D01*
X025262Y025591D01*
X025362Y026011D01*
X024862Y026011D02*
X024962Y026441D01*
X024962Y026691D01*
X025462Y023841D02*
X025462Y022191D01*
X025562Y022091D01*
X029862Y024811D02*
X029962Y025091D01*
X029962Y025491D01*
X030762Y026291D01*
X031462Y025791D02*
X031462Y025091D01*
X031362Y024811D01*
X031262Y024841D01*
X030962Y024841D01*
X030862Y024811D01*
X031462Y025791D02*
X031512Y025841D01*
X032862Y024991D02*
X034412Y023441D01*
X035012Y023191D01*
X034462Y023691D02*
X035862Y023691D01*
X035862Y022841D01*
X035712Y022691D01*
X034462Y023691D02*
X033162Y024991D01*
X033162Y025291D01*
X029462Y029141D02*
X029762Y029441D01*
X028962Y029941D02*
X028162Y029141D01*
X028462Y028841D02*
X028362Y028571D01*
X028462Y028841D02*
X028762Y029141D01*
X027562Y029841D02*
X027562Y030391D01*
X027612Y030441D01*
X027846Y030691D01*
X027462Y031691D02*
X027612Y031841D01*
X027612Y031941D01*
X027846Y032191D01*
X027177Y032191D02*
X026962Y032441D01*
X026762Y032641D01*
X025112Y034291D01*
X025112Y034391D01*
X025062Y034441D01*
X018512Y025541D02*
X018562Y025491D01*
X021362Y017091D02*
X021862Y017091D01*
X022083Y017089D01*
X014462Y015641D02*
X014162Y015941D01*
X022712Y006241D02*
X023162Y005791D01*
X023662Y005691D01*
X026662Y006691D02*
X027012Y006441D01*
X027562Y005891D01*
X027562Y003241D01*
X027862Y002941D01*
X029762Y002941D01*
X029762Y003241D01*
X030012Y003691D01*
X029177Y006841D02*
X028962Y007091D01*
X028512Y007541D01*
X004712Y026541D02*
X004562Y026391D01*
X003062Y024791D02*
X003062Y031241D01*
X003362Y031541D01*
X003062Y023991D02*
X003062Y022341D01*
X002662Y021941D01*
X002512Y021691D01*
X003512Y006691D02*
X004512Y005691D01*
D44*
X008612Y017391D02*
X008512Y017491D01*
X008112Y017491D01*
X027262Y020190D02*
X027362Y020191D01*
X027912Y020741D01*
X028712Y020741D01*
X029262Y020741D01*
X035012Y025191D02*
X035512Y025541D01*
X035912Y025891D01*
X035912Y027691D01*
X034112Y027691D02*
X034112Y029441D01*
X034512Y029841D01*
X035012Y030191D01*
X034112Y027691D02*
X033762Y027341D01*
X032262Y027341D01*
X032012Y027591D01*
X030762Y027591D01*
X030012Y027591D02*
X027762Y027591D01*
X031862Y028571D02*
X031962Y028291D01*
X032012Y028091D01*
X032012Y027591D01*
M02*
