G75*
G70*
%OFA0B0*%
%FSLAX24Y24*%
%IPPOS*%
%LPD*%
%AMOC8*
5,1,8,0,0,1.08239X$1,22.5*
%
%ADD10C,0.1330*%
%ADD11C,0.0600*%
%ADD12C,0.0680*%
%ADD13OC8,0.0680*%
%ADD14O,0.0680X0.1280*%
%ADD15O,0.1497X0.0789*%
%ADD16O,0.1120X0.0600*%
%ADD17C,0.0400*%
%ADD18C,0.0480*%
D10*
X003012Y001691D03*
X035012Y001691D03*
X035012Y033691D03*
X003012Y033691D03*
D11*
X019012Y011991D03*
X020912Y011991D03*
D12*
X023412Y017391D03*
D13*
X024412Y017391D03*
X025412Y017391D03*
X025412Y018391D03*
X024412Y018391D03*
X023412Y018391D03*
X034512Y009841D03*
X034512Y008841D03*
X034512Y007841D03*
X034512Y006841D03*
X034512Y005841D03*
X035512Y005841D03*
X035512Y006841D03*
X035512Y007841D03*
X035512Y008841D03*
X035512Y009841D03*
X003512Y009691D03*
X003512Y008691D03*
X003512Y007691D03*
X003512Y006691D03*
X003512Y005691D03*
X002512Y005691D03*
X002512Y006691D03*
X002512Y007691D03*
X002512Y008691D03*
X002512Y009691D03*
X002512Y013691D03*
X003512Y013691D03*
X003512Y014691D03*
X002512Y014691D03*
X002512Y015691D03*
X003512Y015691D03*
X003512Y016691D03*
X003512Y017691D03*
X002512Y017691D03*
X002512Y016691D03*
X002512Y018691D03*
X003512Y018691D03*
X003512Y019691D03*
X002512Y019691D03*
X002512Y020691D03*
X003512Y020691D03*
X003512Y021691D03*
X003512Y022691D03*
X002512Y022691D03*
X002512Y021691D03*
X002512Y026691D03*
X002512Y027691D03*
X003512Y027691D03*
X003512Y026691D03*
X003512Y028691D03*
X002512Y028691D03*
X002512Y029691D03*
X003512Y029691D03*
D14*
X015012Y003691D03*
X016012Y003691D03*
X017012Y003691D03*
X021512Y003691D03*
X022512Y003691D03*
X023512Y003691D03*
X028012Y003691D03*
X029012Y003691D03*
X030012Y003691D03*
D15*
X035012Y013691D03*
X035012Y014691D03*
X035012Y015691D03*
X035012Y016691D03*
X035012Y017691D03*
X035012Y018691D03*
X035012Y019691D03*
X035012Y022191D03*
X035012Y023191D03*
X035012Y024191D03*
X035012Y025191D03*
X035012Y027191D03*
X035012Y028191D03*
X035012Y029191D03*
X035012Y030191D03*
D16*
X026662Y014691D03*
X026662Y013691D03*
X026662Y012691D03*
X026662Y011691D03*
X026662Y010691D03*
X026662Y009691D03*
X026662Y008691D03*
X026662Y007691D03*
X026662Y006691D03*
X026662Y005691D03*
X023662Y005691D03*
X023662Y006691D03*
X023662Y007691D03*
X023662Y008691D03*
X023662Y009691D03*
X023662Y010691D03*
X023662Y011691D03*
X023662Y012691D03*
X023662Y013691D03*
X023662Y014691D03*
D17*
X024012Y015791D03*
X024012Y016191D03*
X024462Y016841D03*
X025112Y016691D03*
X025862Y017041D03*
X026312Y017541D03*
X026312Y018391D03*
X025662Y019091D03*
X025662Y019691D03*
X025312Y020091D03*
X024762Y019391D03*
X024362Y019791D03*
X025612Y020941D03*
X025562Y022091D03*
X025462Y023841D03*
X026062Y024991D03*
X025762Y025291D03*
X026912Y026441D03*
X027412Y025791D03*
X028462Y026391D03*
X028662Y025791D03*
X029012Y025391D03*
X028512Y024241D03*
X026762Y023841D03*
X024062Y025391D03*
X023562Y026241D03*
X023162Y026241D03*
X023062Y026941D03*
X021162Y026841D03*
X020362Y026541D03*
X019862Y026541D03*
X019262Y026291D03*
X018862Y026291D03*
X018262Y026141D03*
X018512Y025541D03*
X018062Y025191D03*
X017662Y025191D03*
X016612Y025191D03*
X016162Y025191D03*
X016612Y024341D03*
X016162Y024041D03*
X016112Y022991D03*
X017462Y021991D03*
X017762Y022291D03*
X018162Y022291D03*
X018562Y022291D03*
X017762Y022991D03*
X017662Y023441D03*
X019212Y023741D03*
X020012Y022991D03*
X019512Y022091D03*
X019862Y020741D03*
X020312Y020591D03*
X021062Y020241D03*
X021362Y020591D03*
X021712Y020891D03*
X022112Y020941D03*
X023162Y020691D03*
X023012Y020291D03*
X022562Y019491D03*
X022562Y019091D03*
X022862Y018491D03*
X022562Y018091D03*
X021512Y017941D03*
X021362Y017091D03*
X020612Y016941D03*
X020112Y016291D03*
X020762Y015741D03*
X021962Y015391D03*
X022362Y015391D03*
X022712Y016291D03*
X021362Y014641D03*
X021662Y014291D03*
X021712Y013891D03*
X022112Y013091D03*
X022412Y012491D03*
X022812Y012491D03*
X023312Y012191D03*
X023112Y013241D03*
X024312Y011191D03*
X025112Y011291D03*
X025862Y013641D03*
X025412Y015091D03*
X024812Y015391D03*
X026362Y015241D03*
X027712Y015541D03*
X027612Y014291D03*
X029162Y015541D03*
X029612Y015241D03*
X029012Y016691D03*
X029512Y017691D03*
X030312Y016691D03*
X030712Y017391D03*
X031412Y016691D03*
X030712Y018191D03*
X032662Y019841D03*
X033262Y019241D03*
X033462Y016991D03*
X033162Y015891D03*
X031962Y014891D03*
X031562Y014891D03*
X031512Y013191D03*
X031212Y012291D03*
X031612Y010641D03*
X032562Y010541D03*
X033162Y009491D03*
X033112Y008741D03*
X032712Y007241D03*
X029762Y007391D03*
X028162Y005941D03*
X024312Y008191D03*
X022462Y008891D03*
X022362Y009791D03*
X021512Y009191D03*
X021412Y008241D03*
X021362Y007191D03*
X021362Y006241D03*
X022712Y006241D03*
X020262Y009191D03*
X019762Y009191D03*
X019262Y009191D03*
X018612Y009191D03*
X018212Y009791D03*
X017812Y008941D03*
X019112Y010091D03*
X019212Y010791D03*
X018512Y010691D03*
X017762Y011041D03*
X016312Y009891D03*
X015012Y008591D03*
X015312Y008291D03*
X015362Y007691D03*
X013862Y008091D03*
X013562Y008591D03*
X012212Y009841D03*
X012512Y010141D03*
X011612Y009241D03*
X011912Y008941D03*
X011912Y008541D03*
X011912Y007441D03*
X012812Y007191D03*
X011662Y006441D03*
X010712Y007191D03*
X009162Y006341D03*
X008962Y007741D03*
X007412Y007741D03*
X006562Y007591D03*
X006562Y007191D03*
X006862Y006641D03*
X006562Y006141D03*
X007262Y006041D03*
X006112Y005541D03*
X005212Y005241D03*
X004512Y006591D03*
X004812Y007541D03*
X004212Y007991D03*
X004012Y009041D03*
X006112Y008291D03*
X006512Y009991D03*
X006462Y010441D03*
X008262Y009691D03*
X008562Y010441D03*
X009862Y010441D03*
X009862Y009941D03*
X010462Y009541D03*
X010262Y008941D03*
X010612Y010891D03*
X009912Y011341D03*
X008912Y011891D03*
X007512Y012591D03*
X006912Y012941D03*
X006462Y012591D03*
X005712Y012541D03*
X005412Y012841D03*
X006162Y014041D03*
X006362Y014541D03*
X007112Y014341D03*
X004062Y013391D03*
X012212Y012491D03*
X012462Y013291D03*
X014162Y014291D03*
X014462Y014741D03*
X015312Y015041D03*
X015912Y014641D03*
X015612Y014191D03*
X016462Y014191D03*
X017512Y014641D03*
X017462Y015641D03*
X017062Y015691D03*
X016462Y015891D03*
X016762Y016691D03*
X017162Y016691D03*
X017762Y016391D03*
X017762Y015991D03*
X018212Y015641D03*
X018612Y015641D03*
X018562Y016391D03*
X017062Y017391D03*
X016462Y017391D03*
X015462Y017591D03*
X015062Y017691D03*
X014612Y018141D03*
X014312Y017841D03*
X014112Y017241D03*
X014312Y016641D03*
X014462Y016041D03*
X014462Y015641D03*
X015212Y016991D03*
X015362Y018341D03*
X014762Y018541D03*
X015462Y018991D03*
X015462Y019641D03*
X015462Y020191D03*
X014812Y020941D03*
X014112Y021041D03*
X014112Y020441D03*
X014212Y022291D03*
X014562Y023591D03*
X014812Y024441D03*
X014262Y025191D03*
X013762Y025391D03*
X014462Y026491D03*
X015112Y026491D03*
X015962Y027241D03*
X015662Y027591D03*
X015112Y027591D03*
X013962Y027591D03*
X013462Y027891D03*
X013962Y028491D03*
X014362Y028941D03*
X013362Y029691D03*
X012962Y029691D03*
X013162Y030841D03*
X014762Y031191D03*
X015212Y031141D03*
X015162Y030241D03*
X015662Y029491D03*
X016462Y030091D03*
X017362Y031141D03*
X015962Y031641D03*
X017362Y033441D03*
X018962Y032941D03*
X019362Y032841D03*
X020912Y031391D03*
X019562Y030391D03*
X017962Y029641D03*
X017662Y029341D03*
X018262Y028541D03*
X020062Y027691D03*
X020862Y028941D03*
X022212Y029641D03*
X023362Y029241D03*
X023962Y030141D03*
X024362Y029241D03*
X024362Y028791D03*
X026262Y028491D03*
X027262Y027541D03*
X028162Y029141D03*
X028762Y029141D03*
X029262Y029441D03*
X029762Y029441D03*
X030362Y029741D03*
X030962Y030141D03*
X029562Y030141D03*
X027762Y031541D03*
X027562Y029841D03*
X029262Y027991D03*
X030362Y027041D03*
X030762Y026291D03*
X030562Y025691D03*
X031512Y025841D03*
X032862Y024991D03*
X033162Y025291D03*
X032512Y027741D03*
X035712Y022691D03*
X028712Y019991D03*
X028112Y020341D03*
X027862Y019991D03*
X028262Y018391D03*
X027612Y018091D03*
X027812Y016891D03*
X027212Y016791D03*
X021562Y019541D03*
X020612Y019391D03*
X020612Y018241D03*
X020612Y017841D03*
X018862Y018291D03*
X017762Y019091D03*
X016762Y020041D03*
X017662Y020391D03*
X017912Y020741D03*
X018862Y020391D03*
X020862Y024041D03*
X020462Y024341D03*
X018912Y025041D03*
X017562Y026491D03*
X017162Y026641D03*
X018012Y026941D03*
X014062Y026641D03*
X011762Y027591D03*
X011462Y026491D03*
X011062Y026491D03*
X010012Y026491D03*
X009512Y026591D03*
X009962Y027591D03*
X010462Y027591D03*
X011312Y028891D03*
X010562Y029541D03*
X011162Y029841D03*
X009862Y029241D03*
X008812Y030241D03*
X008062Y031241D03*
X007162Y030291D03*
X006862Y029541D03*
X008312Y028641D03*
X006862Y026541D03*
X007312Y026291D03*
X005462Y027141D03*
X004712Y026541D03*
X004862Y025691D03*
X004712Y024791D03*
X004962Y024291D03*
X004112Y023491D03*
X003662Y024591D03*
X003062Y024791D03*
X003662Y025691D03*
X004712Y027741D03*
X005612Y028241D03*
X005612Y028641D03*
X005312Y029741D03*
X005162Y030691D03*
X003362Y031541D03*
X008812Y034191D03*
X010212Y034241D03*
X010062Y031641D03*
X011412Y031491D03*
X013012Y034191D03*
X010712Y024891D03*
X009712Y025091D03*
X009412Y024791D03*
X005262Y023141D03*
X003812Y022191D03*
X015212Y012491D03*
X015612Y012591D03*
X015912Y012291D03*
X016462Y012441D03*
X017812Y013091D03*
X018212Y013191D03*
X018912Y013341D03*
X019162Y013691D03*
X018862Y014391D03*
X019712Y014441D03*
X020162Y014641D03*
X020062Y013191D03*
X021912Y010791D03*
X019862Y010391D03*
X017562Y006541D03*
X017162Y006741D03*
X014112Y010991D03*
X011012Y004941D03*
X010612Y004191D03*
X012262Y004191D03*
X008012Y003291D03*
X007712Y002691D03*
X005662Y002091D03*
X005062Y002691D03*
X022412Y002691D03*
X024962Y026691D03*
X024012Y031041D03*
X024512Y031591D03*
X023612Y031741D03*
X022862Y032591D03*
X023812Y033541D03*
X027412Y034241D03*
X028712Y034191D03*
D18*
X027762Y027591D03*
X030012Y027591D03*
X030762Y027591D03*
X032512Y024591D03*
X031612Y021941D03*
X031612Y021441D03*
X031112Y021441D03*
X031112Y021941D03*
X030662Y021691D03*
X030262Y021441D03*
X029762Y021441D03*
X029362Y021691D03*
X029762Y021941D03*
X030262Y021941D03*
X028762Y021941D03*
X028762Y021441D03*
X028712Y020741D03*
X034162Y020841D03*
X029712Y014641D03*
X017112Y014241D03*
X017112Y013191D03*
X014862Y013291D03*
X014862Y013991D03*
X013562Y014291D03*
X013012Y013291D03*
X011512Y015441D03*
X011512Y015941D03*
X011512Y016441D03*
X011512Y016941D03*
X011512Y017441D03*
X011512Y017941D03*
X011512Y018441D03*
X011512Y018941D03*
X011512Y019441D03*
X011012Y019441D03*
X011012Y018941D03*
X011012Y019941D03*
X011012Y020441D03*
X011012Y020941D03*
X011512Y020941D03*
X011512Y020441D03*
X011512Y019941D03*
X011512Y021441D03*
X011512Y021941D03*
X011012Y021941D03*
X011012Y021441D03*
X010512Y021941D03*
X010012Y021941D03*
X009512Y021941D03*
X009012Y021941D03*
X008512Y021941D03*
X008012Y021941D03*
X008012Y021441D03*
X008012Y020941D03*
X008012Y020441D03*
X008012Y019941D03*
X008012Y019441D03*
X008012Y018941D03*
X007512Y018941D03*
X007512Y019441D03*
X007512Y019941D03*
X007512Y020441D03*
X007512Y020941D03*
X007512Y021441D03*
X007512Y021941D03*
X007512Y022441D03*
X007012Y022441D03*
X006512Y022441D03*
X005212Y022441D03*
X005212Y021941D03*
X004562Y021541D03*
X004762Y023841D03*
X006962Y024691D03*
X008012Y022441D03*
X008512Y022441D03*
X009012Y022441D03*
X009512Y022441D03*
X010012Y022441D03*
X010512Y022441D03*
X011012Y022441D03*
X011512Y022441D03*
X012012Y022441D03*
X012512Y022441D03*
X013412Y022841D03*
X012362Y023741D03*
X011862Y023741D03*
X011362Y023741D03*
X010862Y023741D03*
X010362Y023741D03*
X009862Y023741D03*
X009362Y023741D03*
X011862Y024841D03*
X015662Y021541D03*
X013362Y019791D03*
X013362Y019291D03*
X013362Y018791D03*
X010762Y015591D03*
X009562Y015591D03*
X009812Y016991D03*
X009812Y017541D03*
X009212Y017541D03*
X008112Y017491D03*
X007512Y017941D03*
X007512Y018441D03*
X007412Y016491D03*
X006912Y016491D03*
X006912Y015991D03*
X006412Y015491D03*
X005912Y014991D03*
X005412Y014491D03*
X004912Y014491D03*
X004912Y013991D03*
X005262Y013341D03*
X004912Y014991D03*
X004912Y015491D03*
X004912Y015991D03*
X004912Y016491D03*
X005412Y016491D03*
X005912Y016491D03*
X006412Y016491D03*
X008012Y015441D03*
X008162Y013691D03*
X007412Y013541D03*
X005012Y018191D03*
X016662Y009341D03*
X007362Y003491D03*
M02*
