%
M48
M72
T01C0.0590
T02C0.0670
T03C0.0400
T04C0.0500
T05C0.1000
T06C0.0440
T07C0.0360
T08C0.0320
T09C0.0472
T10C0.0520
T11C0.0240
%
T01
X909Y637
X1129Y637
X1349Y637
X1609Y637
X1829Y637
X2049Y637
X2309Y637
X2529Y637
X2749Y637
X3009Y637
X3229Y637
X3449Y637
X3629Y657
X3629Y1257
X3449Y3307
X3229Y3307
X3009Y3307
X2749Y3307
X2529Y3307
X2309Y3307
X2049Y3307
X1829Y3307
X1609Y3307
X1349Y3307
X1129Y3307
X909Y3307
T02
X1129Y3122
X1349Y3122
X1829Y3122
X2049Y3122
X2529Y3122
X2749Y3122
X3229Y3122
X3449Y3122
X3229Y822
X3009Y822
X2529Y822
X2309Y822
X1829Y822
X1609Y822
X1129Y822
X909Y822
T03
X729Y717
X1079Y1022
X1079Y1222
X729Y1117
X1529Y1022
X1529Y1222
X1979Y1222
X1979Y1022
X2429Y1022
X2429Y1222
X2879Y1222
X2879Y1022
X3329Y1022
X3329Y1222
X1784Y1892
X1784Y2092
X1579Y2722
X1579Y2922
X2029Y2922
X2029Y2722
X2479Y2722
X2479Y2922
X2929Y2922
X2929Y2722
X3379Y2722
X3379Y2922
X1129Y2922
X1129Y2722
X729Y2972
X729Y3572
X779Y2372
X579Y2372
X579Y1772
X779Y1772
X5524Y387
X5624Y387
X5724Y387
X5824Y387
X5924Y387
X5924Y287
X5824Y287
X5724Y287
X5624Y287
X5524Y287
X5829Y672
X5929Y672
X5929Y772
X5829Y772
X5829Y872
X5929Y872
X5829Y3322
X5829Y3422
X5829Y3522
T04
X547Y261
X547Y359
X547Y457
X547Y556
X547Y654
X354Y1772
X354Y1922
X354Y2072
X354Y2222
X354Y2372
X547Y2661
X547Y2759
X547Y2857
X547Y2956
X547Y3054
X2679Y2022
X2679Y1822
X3479Y1922
X3479Y1522
X3479Y2322
T05
X311Y2897
X311Y3645
X311Y1245
X311Y497
T06
X979Y1507
X1129Y1872
X1129Y2022
X979Y2022
X979Y1907
X1529Y1872
X1529Y2022
X979Y2422
T07
X764Y1622
X694Y1422
T08
X4729Y3272
X4829Y3272
X4929Y3272
X5029Y3272
X5129Y3272
X5229Y3272
X5329Y3272
X5429Y3272
X5529Y3272
X5629Y3272
X5629Y3572
X5529Y3572
X5429Y3572
X5329Y3572
X5229Y3572
X5129Y3572
X5029Y3572
X4929Y3572
X4829Y3572
X4729Y3572
X5549Y887
X5549Y697
T09
X5929Y1672
X5929Y1772
X5929Y1872
X5929Y1972
X5929Y2072
X5929Y2172
X5929Y2272
T10
X5479Y2572
X4694Y2417
X5199Y3147
X5844Y3147
X4604Y437
X4604Y292
T11
X4729Y272
X4479Y272
X4279Y472
X4479Y572
X4529Y622
X4579Y572
X4529Y522
X4579Y672
X4529Y722
X4479Y672
X4479Y772
X4529Y822
X4579Y772
X4579Y872
X4529Y922
X4579Y972
X4529Y1022
X4579Y1072
X4529Y1122
X4479Y1072
X4429Y1022
X4379Y1072
X4429Y1122
X4329Y1122
X4279Y1072
X4329Y1022
X4229Y1022
X4179Y1072
X4229Y1122
X4129Y1122
X4079Y1072
X4129Y1022
X4029Y1022
X3979Y1072
X4029Y1122
X4079Y972
X4129Y922
X4179Y972
X4229Y922
X4279Y972
X4329Y922
X4379Y972
X4429Y922
X4479Y872
X4479Y972
X4079Y872
X4029Y822
X4079Y772
X3979Y772
X4029Y722
X4079Y672
X4029Y622
X4079Y572
X3979Y572
X4029Y522
X4079Y472
X3979Y472
X3979Y272
X4079Y272
X3979Y672
X3979Y872
X4029Y922
X3979Y972
X4599Y1537
X4724Y1512
X4874Y1492
X4979Y1592
X5069Y1697
X5189Y1697
X5154Y1802
X5104Y1877
X5019Y1907
X4989Y1977
X4704Y1952
X4634Y2022
X4489Y1952
X4384Y1937
X4329Y1937
X4269Y1937
X4179Y1847
X4129Y1847
X4079Y1847
X4029Y1847
X4029Y1697
X4079Y1697
X4129Y1697
X4179Y1697
X4489Y1767
X4524Y1662
X4774Y1697
X4824Y1697
X4904Y1717
X5284Y2012
X5439Y1977
X5479Y2032
X5569Y2012
X5464Y2172
X5604Y2237
X5684Y2202
X5749Y2317
X5624Y2422
X5764Y2457
X5849Y2457
X5429Y2272
X5159Y2147
X4989Y2182
X4739Y2147
X4669Y2237
X4539Y2237
X4334Y2457
X4379Y2482
X4434Y2502
X4434Y2592
X4489Y2617
X4574Y2472
X4779Y2577
X4839Y2562
X4834Y2642
X4904Y2782
X5049Y2707
X5049Y2622
X4934Y2447
X5154Y2427
X5699Y2792
X5839Y2797
X5909Y2932
X5749Y2947
X5534Y2947
X5459Y2882
X5324Y2882
X5254Y2982
X5254Y3077
X5089Y3022
X4699Y3152
X4639Y3127
X4674Y3027
X4539Y3017
X4469Y3032
X4334Y3187
X4199Y3122
X3954Y3372
X4454Y3402
X4599Y3337
X4554Y2837
X4144Y2827
X3954Y2862
X4084Y2502
X4204Y2442
X3244Y2537
X2874Y2272
X2794Y2202
X2849Y1987
X2854Y1867
X2864Y1767
X2544Y1432
X2169Y1542
X2144Y1487
X1929Y1537
X1824Y1537
X1819Y1622
X1669Y1722
X1654Y1932
X1689Y2112
X1529Y2237
X1529Y2377
X1459Y2432
X1514Y2547
X1669Y2497
X1924Y2237
X2139Y2492
X2729Y2542
X3354Y1847
X4874Y1257
X5069Y1117
X5034Y1082
X5139Y1132
X5169Y1082
X5319Y1172
X5489Y1202
X5609Y1292
X5454Y1332
X5309Y1297
X5249Y1337
X5129Y1217
X4909Y1082
X4914Y972
X4909Y892
X5059Y742
X5099Y662
X5004Y617
X4844Y617
X5154Y777
X5349Y892
X5349Y982
X5719Y912
X5674Y762
X5889Y1222
X5544Y1627
X5504Y1677
X5614Y1732
X5579Y1807
X5704Y1767
X2159Y3322
X1179Y2547
X1009Y2517
X1254Y2332
X1119Y2202
X1094Y2157
X799Y1942
X679Y2072
X554Y1902
X1274Y1632
X1289Y1522
X1524Y1532
X529Y737
X469Y3322
M30
