G75*
G70*
%OFA0B0*%
%FSLAX24Y24*%
%IPPOS*%
%LPD*%
%AMOC8*
5,1,8,0,0,1.08239X$1,22.5*
%
%ADD10O,0.0885X0.1770*%
%ADD11O,0.1005X0.2010*%
%ADD12C,0.1000*%
%ADD13OC8,0.1000*%
%ADD14OC8,0.0600*%
%ADD15C,0.0750*%
%ADD16C,0.1400*%
%ADD17O,0.1500X0.0750*%
%ADD18C,0.0660*%
%ADD19O,0.1120X0.0560*%
%ADD20R,0.1339X0.0748*%
%ADD21C,0.0520*%
%ADD22C,0.0600*%
%ADD23O,0.1200X0.0600*%
%ADD24O,0.1417X0.0709*%
%ADD25O,0.0520X0.1040*%
%ADD26OC8,0.0850*%
%ADD27C,0.0500*%
%ADD28C,0.0400*%
%ADD29C,0.0240*%
%ADD30C,0.0100*%
%ADD31C,0.0320*%
%ADD32C,0.1500*%
D10*
X009086Y006373D03*
X011286Y006373D03*
X013486Y006373D03*
X016086Y006373D03*
X018286Y006373D03*
X020486Y006373D03*
X023086Y006373D03*
X025286Y006373D03*
X027486Y006373D03*
X030086Y006373D03*
X032286Y006373D03*
X034486Y006373D03*
X036286Y006573D03*
X036286Y012573D03*
X034486Y033073D03*
X032286Y033073D03*
X030086Y033073D03*
X027486Y033073D03*
X025286Y033073D03*
X023086Y033073D03*
X020486Y033073D03*
X018286Y033073D03*
X016086Y033073D03*
X013486Y033073D03*
X011286Y033073D03*
X009086Y033073D03*
D11*
X011286Y031223D03*
X013486Y031223D03*
X018286Y031223D03*
X020486Y031223D03*
X025286Y031223D03*
X027486Y031223D03*
X032286Y031223D03*
X034486Y031223D03*
X032286Y008223D03*
X030086Y008223D03*
X025286Y008223D03*
X023086Y008223D03*
X018286Y008223D03*
X016086Y008223D03*
X011286Y008223D03*
X009086Y008223D03*
D12*
X010786Y012223D03*
X015286Y012223D03*
X019786Y012223D03*
X024286Y012223D03*
X028786Y012223D03*
X033286Y012223D03*
X017836Y018923D03*
X015786Y027223D03*
X011286Y027223D03*
X020286Y027223D03*
X024786Y027223D03*
X029286Y027223D03*
X033786Y027223D03*
D13*
X033786Y029223D03*
X029286Y029223D03*
X024786Y029223D03*
X020286Y029223D03*
X015786Y029223D03*
X011286Y029223D03*
X017836Y020923D03*
X019786Y010223D03*
X015286Y010223D03*
X010786Y010223D03*
X024286Y010223D03*
X028786Y010223D03*
X033286Y010223D03*
D14*
X055236Y003873D03*
X056236Y003873D03*
X056236Y002873D03*
X055236Y002873D03*
X057236Y002873D03*
X058236Y002873D03*
X059236Y002873D03*
X059236Y003873D03*
X058236Y003873D03*
X057236Y003873D03*
X058286Y006723D03*
X058286Y007723D03*
X059286Y007723D03*
X059286Y008723D03*
X058286Y008723D03*
X007786Y017723D03*
X005786Y017723D03*
X005786Y023723D03*
X007786Y023723D03*
X007286Y029723D03*
X007286Y035723D03*
X007286Y011173D03*
X007286Y007173D03*
D15*
X005467Y002605D03*
X005467Y003590D03*
X005467Y004574D03*
X005467Y005558D03*
X005467Y006542D03*
X005467Y026605D03*
X005467Y027590D03*
X005467Y028574D03*
X005467Y029558D03*
X005467Y030542D03*
D16*
X003105Y028968D03*
X003105Y036448D03*
X003105Y012448D03*
X003105Y004968D03*
D17*
X003536Y017723D03*
X003536Y019223D03*
X003536Y020723D03*
X003536Y022223D03*
X003536Y023723D03*
X026786Y020223D03*
X026786Y018223D03*
X034786Y019223D03*
X034786Y015223D03*
X034786Y023223D03*
D18*
X015286Y020223D03*
X015286Y018723D03*
X011286Y018723D03*
X011286Y020223D03*
X009786Y020223D03*
X009786Y019073D03*
X009786Y015073D03*
X009786Y024223D03*
D19*
X007636Y016223D03*
X006936Y014223D03*
D20*
X012786Y011991D03*
X012786Y010456D03*
X017786Y010456D03*
X017786Y011991D03*
X022286Y011991D03*
X022286Y010456D03*
X026786Y010456D03*
X026786Y011991D03*
X031286Y011991D03*
X031286Y010456D03*
X034886Y010456D03*
X034886Y011991D03*
X035786Y027456D03*
X035786Y028991D03*
X031786Y028991D03*
X031786Y027456D03*
X027286Y027456D03*
X027286Y028991D03*
X022786Y028991D03*
X022786Y027456D03*
X018286Y027456D03*
X018286Y028991D03*
X013786Y028991D03*
X013786Y027456D03*
D21*
X055486Y008873D03*
X055486Y006973D03*
D22*
X059286Y006723D03*
D23*
X058286Y033223D03*
X058286Y034223D03*
X058286Y035223D03*
D24*
X059286Y022723D03*
X059286Y021723D03*
X059286Y020723D03*
X059286Y019723D03*
X059286Y018723D03*
X059286Y017723D03*
X059286Y016723D03*
D25*
X056286Y032723D03*
X055286Y032723D03*
X054286Y032723D03*
X053286Y032723D03*
X052286Y032723D03*
X051286Y032723D03*
X050286Y032723D03*
X049286Y032723D03*
X048286Y032723D03*
X047286Y032723D03*
X047286Y035723D03*
X048286Y035723D03*
X049286Y035723D03*
X050286Y035723D03*
X051286Y035723D03*
X052286Y035723D03*
X053286Y035723D03*
X054286Y035723D03*
X055286Y035723D03*
X056286Y035723D03*
D26*
X058436Y031473D03*
X051986Y031473D03*
X054786Y025723D03*
X046936Y024173D03*
X046036Y004373D03*
X046036Y002923D03*
D27*
X026786Y018223D02*
X026136Y018873D01*
X017786Y018873D01*
X017836Y018923D01*
X015286Y020223D02*
X015286Y020273D01*
X014636Y020923D01*
X008936Y020923D01*
X008736Y020723D01*
X006786Y020723D01*
X007986Y019423D02*
X008336Y019423D01*
X009436Y018323D01*
X010886Y018323D01*
X011286Y018723D01*
X009786Y017023D02*
X008086Y018723D01*
X007186Y018723D01*
X003936Y022223D01*
X003536Y022223D01*
X004936Y022673D02*
X004136Y023723D01*
X003536Y023723D01*
X002686Y024923D02*
X002236Y024473D01*
X002236Y017123D01*
X007286Y012073D01*
X007286Y011173D01*
X009786Y015073D02*
X009786Y017023D01*
X005536Y019023D02*
X004486Y017723D01*
X003536Y017723D01*
X004936Y022673D02*
X008136Y022673D01*
X009736Y024273D01*
X009786Y024223D01*
X007786Y023723D02*
X011286Y027223D01*
X007286Y026923D02*
X007286Y029723D01*
X007286Y026923D02*
X005286Y024923D01*
X002686Y024923D01*
X017836Y020923D02*
X026086Y020923D01*
X026786Y020223D01*
X033536Y018473D02*
X038336Y018473D01*
D28*
X040286Y018473D03*
X040786Y018473D03*
X041286Y018473D03*
X041786Y018473D03*
X042686Y019373D03*
X043286Y019373D03*
X043836Y019373D03*
X044886Y019523D03*
X046336Y020223D03*
X047036Y019523D03*
X049886Y019773D03*
X050186Y019073D03*
X051036Y018773D03*
X051536Y018023D03*
X051886Y016973D03*
X050686Y016973D03*
X049786Y015923D03*
X048736Y014923D03*
X047236Y015123D03*
X045986Y015373D03*
X045236Y016623D03*
X044886Y017673D03*
X047736Y016973D03*
X048236Y016973D03*
X049036Y017173D03*
X052836Y020123D03*
X054386Y019773D03*
X054786Y020323D03*
X055686Y020123D03*
X054636Y021723D03*
X056036Y022373D03*
X056836Y022023D03*
X057486Y023173D03*
X056236Y024223D03*
X057636Y024573D03*
X058486Y024573D03*
X054286Y022723D03*
X051586Y021473D03*
X049886Y021823D03*
X047386Y021473D03*
X046686Y022373D03*
X045386Y022373D03*
X043336Y024573D03*
X043786Y024823D03*
X044336Y025023D03*
X044336Y025923D03*
X044886Y026173D03*
X045736Y024723D03*
X047786Y025773D03*
X048386Y025623D03*
X048336Y026423D03*
X049036Y027823D03*
X050486Y027073D03*
X050486Y026223D03*
X049336Y024473D03*
X051536Y024273D03*
X056986Y027923D03*
X058386Y027973D03*
X059086Y029323D03*
X057486Y029473D03*
X055336Y029473D03*
X054586Y028823D03*
X053236Y028823D03*
X052536Y029823D03*
X052536Y030773D03*
X050886Y030223D03*
X046986Y031523D03*
X046386Y031273D03*
X046736Y030273D03*
X045386Y030173D03*
X044686Y030323D03*
X043336Y031873D03*
X041986Y031223D03*
X039536Y033723D03*
X044536Y034023D03*
X045986Y033373D03*
X045536Y028373D03*
X041436Y028273D03*
X039536Y028623D03*
X040836Y025023D03*
X042036Y024423D03*
X032436Y025373D03*
X028736Y022723D03*
X027936Y022023D03*
X028486Y019873D03*
X028536Y018673D03*
X028636Y017673D03*
X025436Y014323D03*
X021686Y015423D03*
X021436Y014873D03*
X019286Y015373D03*
X018236Y015373D03*
X018186Y016223D03*
X016686Y017223D03*
X016536Y019323D03*
X016886Y021123D03*
X015286Y022373D03*
X015286Y023773D03*
X014586Y024323D03*
X015136Y025473D03*
X016686Y024973D03*
X019236Y022373D03*
X021386Y024923D03*
X027286Y025423D03*
X033536Y018473D03*
X040286Y016973D03*
X040786Y016973D03*
X041286Y016973D03*
X041786Y016973D03*
X048736Y012573D03*
X050686Y011173D03*
X050336Y010823D03*
X051386Y011323D03*
X051686Y010823D03*
X053186Y011723D03*
X054886Y012023D03*
X056086Y012923D03*
X054536Y013323D03*
X053086Y012973D03*
X052486Y013373D03*
X051286Y012173D03*
X049086Y010823D03*
X049136Y009723D03*
X049086Y008923D03*
X050586Y007423D03*
X050986Y006623D03*
X050036Y006173D03*
X048436Y006173D03*
X045786Y005723D03*
X045286Y006223D03*
X044786Y005723D03*
X045286Y005223D03*
X044786Y006723D03*
X045286Y007223D03*
X045786Y006723D03*
X045786Y007723D03*
X045286Y008223D03*
X044786Y007723D03*
X044786Y008723D03*
X044286Y009223D03*
X043786Y009723D03*
X043286Y009223D03*
X042786Y009723D03*
X042286Y009223D03*
X041786Y009723D03*
X041286Y009223D03*
X040786Y008723D03*
X040286Y008223D03*
X039786Y007723D03*
X040786Y007723D03*
X040286Y007223D03*
X039786Y006723D03*
X040286Y006223D03*
X039786Y005723D03*
X040786Y005723D03*
X040286Y005223D03*
X039786Y004723D03*
X040786Y004723D03*
X042786Y004723D03*
X040786Y002723D03*
X039786Y002723D03*
X044786Y002723D03*
X047286Y002723D03*
X040786Y006723D03*
X039786Y008723D03*
X040286Y009223D03*
X039786Y009723D03*
X040786Y009723D03*
X040286Y010223D03*
X039786Y010723D03*
X040286Y011223D03*
X040786Y010723D03*
X041286Y010223D03*
X041786Y010723D03*
X042286Y010223D03*
X042786Y010723D03*
X043286Y010223D03*
X043786Y010723D03*
X044286Y010223D03*
X044786Y010723D03*
X045286Y010223D03*
X045786Y010723D03*
X045286Y011223D03*
X044286Y011223D03*
X043286Y011223D03*
X042286Y011223D03*
X041286Y011223D03*
X044786Y009723D03*
X045286Y009223D03*
X045786Y008723D03*
X045786Y009723D03*
X051536Y007773D03*
X053486Y008923D03*
X053486Y009823D03*
X057186Y009123D03*
X056736Y007623D03*
X058886Y012223D03*
X055436Y016273D03*
X055036Y016773D03*
X056136Y017323D03*
X055786Y018073D03*
X057036Y017673D03*
X021586Y033223D03*
X011786Y025473D03*
X010086Y025173D03*
X012536Y023323D03*
X011186Y022023D03*
X010936Y021573D03*
X007986Y019423D03*
X006786Y020723D03*
X005536Y019023D03*
X012736Y016323D03*
X012886Y015223D03*
X015236Y015323D03*
X005286Y007373D03*
X004686Y033223D03*
D29*
X004686Y030223D01*
X005336Y029573D01*
X005467Y029558D01*
X005136Y029373D01*
X001636Y025873D01*
X001636Y009423D01*
X005236Y005823D01*
X005467Y005558D01*
X006136Y006823D02*
X006136Y004123D01*
X005636Y003623D01*
X005467Y003590D01*
X006136Y006823D02*
X005586Y007373D01*
X005286Y007373D01*
X015236Y015323D02*
X013061Y017498D01*
X015036Y019423D01*
X015336Y019423D01*
X016636Y020723D01*
X017536Y019823D01*
X018486Y019823D01*
X018786Y019523D01*
X028136Y019523D01*
X028486Y019873D01*
X028736Y022723D02*
X028486Y022823D01*
X012386Y022823D01*
X010086Y025173D01*
X015286Y023773D02*
X015486Y023773D01*
X016686Y024973D01*
X016886Y021123D02*
X016636Y020873D01*
X016636Y020723D01*
X013061Y017498D02*
X011986Y018573D01*
X011586Y018573D01*
X011286Y018723D01*
X016686Y017223D02*
X016686Y016923D01*
X017786Y015823D01*
X021286Y015823D01*
X021686Y015423D01*
X044986Y027823D02*
X044986Y029073D01*
X045986Y030073D01*
X045986Y030273D01*
X046736Y030273D01*
X045986Y030273D02*
X045986Y030623D01*
X045836Y030773D01*
X045136Y030773D01*
X044686Y030323D01*
X045836Y030773D02*
X045836Y032373D01*
X046936Y032373D01*
X047286Y032723D01*
X043336Y031873D02*
X041386Y031873D01*
X039536Y033723D01*
X044986Y027823D02*
X047786Y027823D01*
X047786Y025773D01*
X047786Y025323D01*
X048086Y025023D01*
X051536Y025023D01*
X051536Y024273D01*
X051536Y025023D02*
X056386Y025023D01*
X058586Y022873D01*
X059286Y022723D01*
X059286Y016723D02*
X058586Y016573D01*
X055736Y016573D01*
X055436Y016273D01*
X055286Y016223D01*
X052686Y016223D01*
X051886Y016973D01*
X056736Y007623D02*
X057286Y007623D01*
X058036Y006873D01*
X058286Y006723D01*
X050036Y006173D02*
X048436Y006173D01*
X049036Y027823D02*
X047786Y027823D01*
D30*
X048336Y026423D02*
X049186Y027273D01*
X049286Y027273D01*
X050886Y028873D01*
X050886Y030223D01*
X052436Y029673D02*
X052536Y029823D01*
X058586Y029823D01*
X059086Y029323D01*
X059436Y029023D02*
X059436Y032223D01*
X056386Y032223D01*
X056286Y032723D01*
X056036Y033073D01*
X055736Y033373D01*
X054836Y033373D01*
X054536Y033073D01*
X054286Y032723D01*
X054086Y032323D01*
X052536Y030773D01*
X051986Y031473D02*
X051786Y031673D01*
X051786Y033573D01*
X049036Y033573D01*
X048536Y033073D01*
X048286Y032723D01*
X048286Y032523D01*
X047786Y032023D01*
X046386Y032023D01*
X046386Y031273D01*
X046986Y031523D02*
X048186Y031523D01*
X049036Y032373D01*
X049286Y032723D01*
X050086Y032323D02*
X050286Y032723D01*
X050086Y032323D02*
X046136Y028373D01*
X045536Y028373D01*
X044736Y027223D02*
X044736Y029523D01*
X045386Y030173D01*
X043786Y031173D02*
X045986Y033373D01*
X046336Y033123D02*
X046336Y033623D01*
X046536Y033823D01*
X052486Y033823D01*
X054036Y035373D01*
X054286Y035723D01*
X054536Y035373D01*
X054886Y035023D01*
X057786Y035023D01*
X058286Y035223D01*
X057536Y033573D02*
X057736Y033373D01*
X058286Y033223D01*
X058736Y032973D01*
X060136Y032973D01*
X060136Y022523D01*
X059836Y022223D01*
X058436Y022223D01*
X058436Y020523D01*
X058736Y020223D01*
X060136Y020223D01*
X060136Y016523D01*
X059536Y015923D01*
X049786Y015923D01*
X050686Y016973D02*
X051386Y017673D01*
X057036Y017673D01*
X056136Y017323D02*
X055586Y017323D01*
X055036Y016773D01*
X056136Y017323D02*
X058336Y017323D01*
X058586Y017573D01*
X059286Y017723D01*
X059286Y018723D02*
X058586Y018873D01*
X056936Y018873D01*
X056761Y019048D01*
X055786Y018073D01*
X056761Y019048D02*
X055686Y020123D01*
X055686Y020673D01*
X054636Y021723D01*
X054236Y022073D02*
X055836Y022073D01*
X055886Y022023D01*
X056836Y022023D01*
X057186Y021473D02*
X057186Y022723D01*
X054286Y022723D01*
X054136Y022373D02*
X056036Y022373D01*
X057186Y021473D02*
X058686Y019973D01*
X059286Y019723D01*
X059786Y021373D02*
X059286Y021723D01*
X059786Y021373D02*
X060336Y021373D01*
X060336Y016423D01*
X059636Y015723D01*
X056436Y015723D01*
X055636Y014923D01*
X048736Y014923D01*
X048386Y014473D02*
X045186Y017673D01*
X044886Y017673D01*
X045236Y016623D02*
X047936Y013923D01*
X051936Y013923D01*
X052486Y013373D01*
X053036Y013023D02*
X048336Y013023D01*
X045986Y015373D01*
X047236Y015123D02*
X048086Y014223D01*
X053086Y014223D01*
X054786Y012573D01*
X059036Y012573D01*
X059936Y011673D01*
X059936Y007373D01*
X059286Y006723D01*
X058736Y006273D02*
X057586Y006273D01*
X056436Y007423D01*
X050586Y007423D01*
X050986Y006623D02*
X054286Y003323D01*
X056686Y003323D01*
X056986Y003023D01*
X057236Y002873D01*
X058736Y003373D02*
X059236Y002873D01*
X058736Y003373D02*
X058736Y006273D01*
X058736Y008273D01*
X058286Y008723D01*
X058536Y009473D02*
X059286Y008723D01*
X059736Y008173D02*
X059286Y007723D01*
X059736Y008173D02*
X059736Y009423D01*
X057486Y011673D01*
X054736Y011673D01*
X053836Y012573D01*
X048736Y012573D01*
X048736Y012023D02*
X051086Y012023D01*
X051136Y012073D01*
X051286Y012173D01*
X051236Y012223D01*
X051086Y011623D02*
X048486Y011623D01*
X043036Y017073D01*
X043036Y019023D01*
X042686Y019373D01*
X043286Y019373D02*
X043286Y017123D01*
X048586Y011823D01*
X053036Y011823D01*
X053186Y011723D01*
X051686Y010823D02*
X052686Y009823D01*
X053486Y009823D01*
X053486Y008923D02*
X049086Y008923D01*
X048786Y009273D02*
X054936Y009273D01*
X055236Y008973D01*
X055486Y008873D01*
X055736Y008973D01*
X057036Y008973D01*
X057186Y009123D01*
X058536Y009473D02*
X049336Y009473D01*
X049136Y009723D01*
X048786Y009923D02*
X048786Y009273D01*
X047786Y009311D02*
X039536Y009311D01*
X039536Y009213D02*
X047786Y009213D01*
X047786Y009114D02*
X039536Y009114D01*
X039536Y009016D02*
X047786Y009016D01*
X047786Y008917D02*
X039536Y008917D01*
X039536Y008819D02*
X047786Y008819D01*
X047786Y008720D02*
X039536Y008720D01*
X039536Y008621D02*
X047786Y008621D01*
X047786Y008523D02*
X039536Y008523D01*
X039536Y008424D02*
X047786Y008424D01*
X047786Y008326D02*
X039536Y008326D01*
X039536Y008227D02*
X047786Y008227D01*
X047786Y008129D02*
X039536Y008129D01*
X039536Y008030D02*
X047786Y008030D01*
X047786Y007932D02*
X039536Y007932D01*
X039536Y007833D02*
X047786Y007833D01*
X047786Y007735D02*
X039536Y007735D01*
X039536Y007636D02*
X047786Y007636D01*
X047786Y007538D02*
X039536Y007538D01*
X039536Y007439D02*
X047786Y007439D01*
X047786Y007340D02*
X039536Y007340D01*
X039536Y007242D02*
X047786Y007242D01*
X047786Y007272D02*
X047786Y006775D01*
X047836Y006725D01*
X047836Y002273D01*
X039536Y002273D01*
X039536Y010585D01*
X039636Y010685D01*
X039636Y011762D01*
X039636Y018823D01*
X042176Y018823D01*
X042261Y018738D01*
X042436Y018665D01*
X042436Y016825D01*
X042788Y016473D01*
X047836Y011425D01*
X047836Y010922D01*
X047786Y010872D01*
X047786Y007272D01*
X047786Y007143D02*
X039536Y007143D01*
X039536Y007045D02*
X047786Y007045D01*
X047786Y006946D02*
X039536Y006946D01*
X039536Y006848D02*
X047786Y006848D01*
X047812Y006749D02*
X039536Y006749D01*
X039536Y006651D02*
X047836Y006651D01*
X047836Y006552D02*
X039536Y006552D01*
X039536Y006454D02*
X047836Y006454D01*
X047836Y006355D02*
X039536Y006355D01*
X039536Y006256D02*
X047836Y006256D01*
X047836Y006158D02*
X039536Y006158D01*
X039536Y006059D02*
X047836Y006059D01*
X047836Y005961D02*
X039536Y005961D01*
X039536Y005862D02*
X047836Y005862D01*
X047836Y005764D02*
X039536Y005764D01*
X039536Y005665D02*
X047836Y005665D01*
X047836Y005567D02*
X039536Y005567D01*
X039536Y005468D02*
X047836Y005468D01*
X047836Y005370D02*
X039536Y005370D01*
X039536Y005271D02*
X045555Y005271D01*
X045632Y005348D02*
X045061Y004777D01*
X045061Y003970D01*
X045632Y003398D01*
X046440Y003398D01*
X047011Y003970D01*
X047011Y004777D01*
X046440Y005348D01*
X045632Y005348D01*
X045456Y005172D02*
X039536Y005172D01*
X039536Y005074D02*
X045358Y005074D01*
X045259Y004975D02*
X039536Y004975D01*
X039536Y004877D02*
X045161Y004877D01*
X045062Y004778D02*
X039536Y004778D01*
X039536Y004680D02*
X045061Y004680D01*
X045061Y004581D02*
X039536Y004581D01*
X039536Y004483D02*
X045061Y004483D01*
X045061Y004384D02*
X039536Y004384D01*
X039536Y004286D02*
X045061Y004286D01*
X045061Y004187D02*
X039536Y004187D01*
X039536Y004089D02*
X045061Y004089D01*
X045061Y003990D02*
X039536Y003990D01*
X039536Y003891D02*
X045139Y003891D01*
X045238Y003793D02*
X039536Y003793D01*
X039536Y003694D02*
X045336Y003694D01*
X045435Y003596D02*
X039536Y003596D01*
X039536Y003497D02*
X045534Y003497D01*
X045632Y003399D02*
X039536Y003399D01*
X039536Y003300D02*
X047836Y003300D01*
X047836Y003202D02*
X039536Y003202D01*
X039536Y003103D02*
X047836Y003103D01*
X047836Y003005D02*
X039536Y003005D01*
X039536Y002906D02*
X047836Y002906D01*
X047836Y002807D02*
X039536Y002807D01*
X039536Y002709D02*
X047836Y002709D01*
X047836Y002610D02*
X039536Y002610D01*
X039536Y002512D02*
X047836Y002512D01*
X047836Y002413D02*
X039536Y002413D01*
X039536Y002315D02*
X047836Y002315D01*
X047836Y003399D02*
X046440Y003399D01*
X046539Y003497D02*
X047836Y003497D01*
X047836Y003596D02*
X046637Y003596D01*
X046736Y003694D02*
X047836Y003694D01*
X047836Y003793D02*
X046834Y003793D01*
X046933Y003891D02*
X047836Y003891D01*
X047836Y003990D02*
X047011Y003990D01*
X047011Y004089D02*
X047836Y004089D01*
X047836Y004187D02*
X047011Y004187D01*
X047011Y004286D02*
X047836Y004286D01*
X047836Y004384D02*
X047011Y004384D01*
X047011Y004483D02*
X047836Y004483D01*
X047836Y004581D02*
X047011Y004581D01*
X047011Y004680D02*
X047836Y004680D01*
X047836Y004778D02*
X047010Y004778D01*
X046912Y004877D02*
X047836Y004877D01*
X047836Y004975D02*
X046813Y004975D01*
X046714Y005074D02*
X047836Y005074D01*
X047836Y005172D02*
X046616Y005172D01*
X046517Y005271D02*
X047836Y005271D01*
X048386Y007023D02*
X055386Y007023D01*
X055486Y006973D01*
X055236Y007773D02*
X055436Y007973D01*
X058136Y007973D01*
X058286Y007723D01*
X055236Y007773D02*
X051536Y007773D01*
X048586Y007773D01*
X048586Y010023D01*
X049086Y010523D01*
X049086Y010823D01*
X048936Y011173D02*
X048386Y010623D01*
X048386Y007023D01*
X047786Y009410D02*
X039536Y009410D01*
X039536Y009508D02*
X047786Y009508D01*
X047786Y009607D02*
X039536Y009607D01*
X039536Y009705D02*
X047786Y009705D01*
X047786Y009804D02*
X039536Y009804D01*
X039536Y009903D02*
X047786Y009903D01*
X047786Y010001D02*
X039536Y010001D01*
X039536Y010100D02*
X047786Y010100D01*
X047786Y010198D02*
X039536Y010198D01*
X039536Y010297D02*
X047786Y010297D01*
X047786Y010395D02*
X039536Y010395D01*
X039536Y010494D02*
X047786Y010494D01*
X047786Y010592D02*
X039543Y010592D01*
X039636Y010691D02*
X047786Y010691D01*
X047786Y010789D02*
X039636Y010789D01*
X039636Y010888D02*
X047802Y010888D01*
X047836Y010987D02*
X039636Y010987D01*
X039636Y011085D02*
X047836Y011085D01*
X047836Y011184D02*
X039636Y011184D01*
X039636Y011282D02*
X047836Y011282D01*
X047836Y011381D02*
X039636Y011381D01*
X039636Y011479D02*
X047782Y011479D01*
X047683Y011578D02*
X039636Y011578D01*
X039636Y011676D02*
X047585Y011676D01*
X047486Y011775D02*
X039636Y011775D01*
X039636Y011873D02*
X047388Y011873D01*
X047289Y011972D02*
X039636Y011972D01*
X039636Y012071D02*
X047191Y012071D01*
X047092Y012169D02*
X039636Y012169D01*
X039636Y012268D02*
X046993Y012268D01*
X046895Y012366D02*
X039636Y012366D01*
X039636Y012465D02*
X046796Y012465D01*
X046698Y012563D02*
X039636Y012563D01*
X039636Y012662D02*
X046599Y012662D01*
X046501Y012760D02*
X039636Y012760D01*
X039636Y012859D02*
X046402Y012859D01*
X046304Y012957D02*
X039636Y012957D01*
X039636Y013056D02*
X046205Y013056D01*
X046107Y013154D02*
X039636Y013154D01*
X039636Y013253D02*
X046008Y013253D01*
X045909Y013352D02*
X039636Y013352D01*
X039636Y013450D02*
X045811Y013450D01*
X045712Y013549D02*
X039636Y013549D01*
X039636Y013647D02*
X045614Y013647D01*
X045515Y013746D02*
X039636Y013746D01*
X039636Y013844D02*
X045417Y013844D01*
X045318Y013943D02*
X039636Y013943D01*
X039636Y014041D02*
X045220Y014041D01*
X045121Y014140D02*
X039636Y014140D01*
X039636Y014238D02*
X045023Y014238D01*
X044924Y014337D02*
X039636Y014337D01*
X039636Y014436D02*
X044826Y014436D01*
X044727Y014534D02*
X039636Y014534D01*
X039636Y014633D02*
X044628Y014633D01*
X044530Y014731D02*
X039636Y014731D01*
X039636Y014830D02*
X044431Y014830D01*
X044333Y014928D02*
X039636Y014928D01*
X039636Y015027D02*
X044234Y015027D01*
X044136Y015125D02*
X039636Y015125D01*
X039636Y015224D02*
X044037Y015224D01*
X043939Y015322D02*
X039636Y015322D01*
X039636Y015421D02*
X043840Y015421D01*
X043742Y015520D02*
X039636Y015520D01*
X039636Y015618D02*
X043643Y015618D01*
X043544Y015717D02*
X039636Y015717D01*
X039636Y015815D02*
X043446Y015815D01*
X043347Y015914D02*
X039636Y015914D01*
X039636Y016012D02*
X043249Y016012D01*
X043150Y016111D02*
X039636Y016111D01*
X039636Y016209D02*
X043052Y016209D01*
X042953Y016308D02*
X039636Y016308D01*
X039636Y016406D02*
X042855Y016406D01*
X042756Y016505D02*
X039636Y016505D01*
X039636Y016604D02*
X042658Y016604D01*
X042559Y016702D02*
X039636Y016702D01*
X039636Y016801D02*
X042460Y016801D01*
X042436Y016899D02*
X039636Y016899D01*
X039636Y016998D02*
X042436Y016998D01*
X042436Y017096D02*
X039636Y017096D01*
X039636Y017195D02*
X042436Y017195D01*
X042436Y017293D02*
X039636Y017293D01*
X039636Y017392D02*
X042436Y017392D01*
X042436Y017490D02*
X039636Y017490D01*
X039636Y017589D02*
X042436Y017589D01*
X042436Y017687D02*
X039636Y017687D01*
X039636Y017786D02*
X042436Y017786D01*
X042436Y017885D02*
X039636Y017885D01*
X039636Y017983D02*
X042436Y017983D01*
X042436Y018082D02*
X039636Y018082D01*
X039636Y018180D02*
X042436Y018180D01*
X042436Y018279D02*
X039636Y018279D01*
X039636Y018377D02*
X042436Y018377D01*
X042436Y018476D02*
X039636Y018476D01*
X039636Y018574D02*
X042436Y018574D01*
X042418Y018673D02*
X039636Y018673D01*
X039636Y018771D02*
X042227Y018771D01*
X043536Y019073D02*
X043836Y019373D01*
X043536Y019073D02*
X043536Y017223D01*
X048736Y012023D01*
X048936Y011173D02*
X050686Y011173D01*
X050336Y010823D02*
X049836Y010323D01*
X049186Y010323D01*
X048786Y009923D01*
X051086Y011623D02*
X051386Y011323D01*
X053036Y013023D02*
X053086Y012973D01*
X054536Y013323D02*
X053386Y014473D01*
X048386Y014473D01*
X048236Y016973D02*
X048836Y016973D01*
X049036Y017173D01*
X047736Y016973D02*
X049486Y018723D01*
X050486Y018723D01*
X054136Y022373D01*
X054236Y022073D02*
X051036Y018873D01*
X051036Y018773D01*
X050186Y019073D02*
X050186Y019773D01*
X049886Y019773D01*
X049736Y019873D01*
X046186Y019873D01*
X044886Y021173D01*
X044886Y026173D01*
X044336Y025923D02*
X044336Y025023D01*
X043786Y024823D02*
X043786Y031173D01*
X041986Y031223D02*
X041986Y025923D01*
X043336Y024573D01*
X042036Y024423D02*
X041436Y025023D01*
X041436Y028273D01*
X040836Y027323D02*
X039536Y028623D01*
X040836Y027323D02*
X040836Y025023D01*
X044736Y027223D02*
X045386Y027223D01*
X045386Y022373D01*
X045736Y022823D02*
X045736Y024723D01*
X046936Y024173D02*
X047236Y024473D01*
X049336Y024473D01*
X048236Y023923D02*
X055936Y023923D01*
X056236Y024223D01*
X057486Y023173D02*
X054236Y023173D01*
X052186Y021123D01*
X047236Y021123D01*
X046336Y020223D01*
X047036Y019523D02*
X044886Y019523D01*
X047386Y021473D02*
X051586Y021473D01*
X049886Y021823D02*
X049686Y022023D01*
X046536Y022023D01*
X045736Y022823D01*
X046686Y022373D02*
X048236Y023923D01*
X048386Y025623D02*
X052436Y029673D01*
X053236Y028823D02*
X054586Y028823D01*
X054636Y028723D01*
X056186Y028723D01*
X056986Y027923D01*
X058386Y027973D02*
X059436Y029023D01*
X057486Y029473D02*
X055336Y029473D01*
X050486Y027073D02*
X050486Y026223D01*
X057636Y024573D02*
X058486Y024573D01*
X054786Y020323D02*
X054586Y020123D01*
X052836Y020123D01*
X053286Y019773D02*
X054386Y019773D01*
X053286Y019773D02*
X051536Y018023D01*
X054536Y013323D02*
X054636Y013223D01*
X055786Y013223D01*
X056086Y012923D01*
X055086Y012223D02*
X058886Y012223D01*
X055086Y012223D02*
X054886Y012023D01*
X032436Y025373D02*
X031186Y025373D01*
X031136Y025373D01*
X027936Y022023D02*
X011186Y022023D01*
X010936Y021573D02*
X018636Y021573D01*
X018736Y021473D01*
X028836Y021473D01*
X028836Y018973D01*
X028536Y018673D01*
X028636Y017673D02*
X018186Y017673D01*
X016536Y019323D01*
X018186Y017673D02*
X018186Y016223D01*
X018236Y015373D02*
X019286Y015373D01*
X019236Y022373D02*
X015286Y022373D01*
X021586Y033223D02*
X021586Y033823D01*
X021886Y034123D01*
X044436Y034123D01*
X044536Y034023D01*
X046336Y033123D02*
X047086Y033123D01*
X047286Y032723D01*
X051786Y033573D02*
X057536Y033573D01*
D31*
X038486Y030173D02*
X038486Y010023D01*
X035736Y007323D01*
X035729Y010993D01*
X035796Y010993D01*
X035886Y011083D01*
X036371Y011083D01*
X036901Y011083D01*
X037276Y011458D01*
X037276Y013508D01*
X037276Y014039D01*
X036901Y014413D01*
X035722Y014413D01*
X035722Y014575D01*
X036016Y014869D01*
X036016Y015578D01*
X035719Y015874D01*
X035714Y018567D01*
X036016Y018869D01*
X036016Y019578D01*
X035712Y019882D01*
X035706Y022560D01*
X036016Y022869D01*
X036016Y023578D01*
X035704Y023890D01*
X035701Y025383D01*
X035826Y025508D01*
X035826Y025993D01*
X036296Y025993D01*
X037016Y026714D01*
X037016Y027733D01*
X036935Y027814D01*
X036935Y028029D01*
X036654Y028310D01*
X036439Y028310D01*
X036296Y028453D01*
X035711Y028453D01*
X035695Y028470D01*
X035690Y030688D01*
X035716Y030714D01*
X035716Y032894D01*
X038486Y030173D01*
X038486Y030074D02*
X035692Y030074D01*
X035691Y030392D02*
X038263Y030392D01*
X037939Y030711D02*
X035713Y030711D01*
X036036Y030711D01*
X036036Y031029D02*
X035716Y031029D01*
X037615Y031029D01*
X037290Y031348D02*
X035716Y031348D01*
X036036Y031348D01*
X036036Y031667D02*
X035716Y031667D01*
X036966Y031667D01*
X036642Y031985D02*
X035716Y031985D01*
X036036Y031985D01*
X036036Y032304D02*
X035716Y032304D01*
X036317Y032304D01*
X036036Y032622D02*
X035716Y032622D01*
X035993Y032622D01*
X036036Y032941D02*
X035716Y032941D01*
X035716Y033259D02*
X036036Y033259D01*
X036036Y033273D02*
X035716Y033273D01*
X035716Y030714D01*
X035469Y030466D01*
X035469Y030314D01*
X034893Y029738D01*
X034079Y029738D01*
X033504Y030314D01*
X033504Y030466D01*
X033386Y030584D01*
X033269Y030466D01*
X033269Y030314D01*
X032693Y029738D01*
X031879Y029738D01*
X031304Y030314D01*
X031304Y030466D01*
X031056Y030714D01*
X031056Y033273D01*
X031009Y033273D01*
X031009Y032249D01*
X030468Y031708D01*
X029704Y031708D01*
X029164Y032249D01*
X029164Y033273D01*
X028716Y033273D01*
X028716Y030714D01*
X028469Y030466D01*
X028469Y030314D01*
X027893Y029738D01*
X027079Y029738D01*
X026504Y030314D01*
X026504Y030466D01*
X026386Y030584D01*
X026269Y030466D01*
X026269Y030314D01*
X025693Y029738D01*
X024879Y029738D01*
X024304Y030314D01*
X024304Y030466D01*
X024056Y030714D01*
X024056Y033273D01*
X024009Y033273D01*
X024009Y032249D01*
X023468Y031708D01*
X022704Y031708D01*
X022164Y032249D01*
X022164Y032841D01*
X022163Y032838D01*
X021971Y032647D01*
X021721Y032543D01*
X021451Y032543D01*
X021201Y032647D01*
X021010Y032838D01*
X020906Y033088D01*
X020906Y033273D01*
X019516Y033273D01*
X019516Y030714D01*
X019269Y030467D01*
X019269Y030314D01*
X018693Y029738D01*
X017879Y029738D01*
X017304Y030314D01*
X017304Y030467D01*
X017056Y030714D01*
X017056Y033273D01*
X017009Y033273D01*
X017009Y032249D01*
X016468Y031708D01*
X015704Y031708D01*
X015164Y032249D01*
X015164Y033273D01*
X012516Y033273D01*
X012516Y030714D01*
X012269Y030467D01*
X012269Y030314D01*
X011693Y029738D01*
X011286Y029738D01*
X011286Y028453D01*
X016296Y028453D01*
X019777Y028453D01*
X025296Y028453D01*
X029796Y028453D01*
X030677Y028453D01*
X034296Y028453D01*
X036036Y028453D01*
X036036Y033273D01*
X036036Y030392D02*
X035469Y030392D01*
X035228Y030074D02*
X036036Y030074D01*
X036036Y029755D02*
X034910Y029755D01*
X035692Y029755D02*
X038486Y029755D01*
X038486Y029437D02*
X035693Y029437D01*
X035694Y029118D02*
X038486Y029118D01*
X038486Y028800D02*
X035694Y028800D01*
X035695Y028481D02*
X038486Y028481D01*
X038486Y028163D02*
X036801Y028163D01*
X036935Y027844D02*
X038486Y027844D01*
X038486Y027525D02*
X037016Y027525D01*
X037016Y027207D02*
X038486Y027207D01*
X038486Y026888D02*
X037016Y026888D01*
X036872Y026570D02*
X038486Y026570D01*
X038486Y026251D02*
X036553Y026251D01*
X035826Y025933D02*
X038486Y025933D01*
X038486Y025614D02*
X035826Y025614D01*
X035701Y025296D02*
X038486Y025296D01*
X038486Y024977D02*
X035702Y024977D01*
X035702Y024659D02*
X038486Y024659D01*
X038486Y024340D02*
X035703Y024340D01*
X035704Y024021D02*
X038486Y024021D01*
X038486Y023703D02*
X035891Y023703D01*
X036016Y023384D02*
X038486Y023384D01*
X038486Y023066D02*
X036016Y023066D01*
X035894Y022747D02*
X038486Y022747D01*
X038486Y022429D02*
X035707Y022429D01*
X035707Y022110D02*
X038486Y022110D01*
X038486Y021792D02*
X035708Y021792D01*
X035709Y021473D02*
X038486Y021473D01*
X038486Y021155D02*
X035709Y021155D01*
X035710Y020836D02*
X038486Y020836D01*
X038486Y020518D02*
X035710Y020518D01*
X035711Y020199D02*
X038486Y020199D01*
X038486Y019880D02*
X035713Y019880D01*
X036016Y019562D02*
X038486Y019562D01*
X038486Y019243D02*
X036016Y019243D01*
X036016Y018925D02*
X038486Y018925D01*
X038486Y018606D02*
X035753Y018606D01*
X035715Y018288D02*
X038486Y018288D01*
X038486Y017969D02*
X035715Y017969D01*
X035716Y017651D02*
X038486Y017651D01*
X038486Y017332D02*
X035717Y017332D01*
X035717Y017014D02*
X038486Y017014D01*
X038486Y016695D02*
X035718Y016695D01*
X035718Y016376D02*
X038486Y016376D01*
X038486Y016058D02*
X035719Y016058D01*
X035854Y015739D02*
X038486Y015739D01*
X038486Y015421D02*
X036016Y015421D01*
X036016Y015102D02*
X038486Y015102D01*
X038486Y014784D02*
X035931Y014784D01*
X035722Y014465D02*
X038486Y014465D01*
X038486Y014147D02*
X037168Y014147D01*
X037276Y013828D02*
X038486Y013828D01*
X038486Y013510D02*
X037276Y013510D01*
X037276Y013191D02*
X038486Y013191D01*
X038486Y012872D02*
X037276Y012872D01*
X037276Y012554D02*
X038486Y012554D01*
X038486Y012235D02*
X037276Y012235D01*
X037276Y011917D02*
X038486Y011917D01*
X038486Y011598D02*
X037276Y011598D01*
X037098Y011280D02*
X038486Y011280D01*
X038486Y010961D02*
X035729Y010961D01*
X035796Y010993D02*
X036011Y011208D01*
X036668Y011208D01*
X036733Y011273D01*
X036786Y011273D01*
X036786Y006723D01*
X035409Y006723D01*
X035409Y007198D01*
X034868Y007738D01*
X034104Y007738D01*
X033564Y007198D01*
X033564Y006723D01*
X033516Y006723D01*
X033516Y008733D01*
X033269Y008980D01*
X033269Y009133D01*
X032693Y009708D01*
X031879Y009708D01*
X031304Y009133D01*
X031304Y008980D01*
X031186Y008863D01*
X031069Y008980D01*
X031069Y009133D01*
X030493Y009708D01*
X029679Y009708D01*
X029104Y009133D01*
X029104Y008980D01*
X028856Y008733D01*
X028856Y006723D01*
X028409Y006723D01*
X028409Y007198D01*
X027868Y007738D01*
X027104Y007738D01*
X026564Y007198D01*
X026564Y006723D01*
X026516Y006723D01*
X026516Y008683D01*
X026269Y008930D01*
X026269Y009133D01*
X025693Y009708D01*
X024879Y009708D01*
X024304Y009133D01*
X024304Y008930D01*
X024069Y008695D01*
X024069Y009133D01*
X023493Y009708D01*
X022679Y009708D01*
X022104Y009133D01*
X022104Y007314D01*
X022192Y007226D01*
X022164Y007198D01*
X022164Y006723D01*
X021409Y006723D01*
X021409Y007198D01*
X020868Y007738D01*
X020104Y007738D01*
X019564Y007198D01*
X019564Y006723D01*
X019516Y006723D01*
X019516Y008733D01*
X019269Y008980D01*
X019269Y009133D01*
X018693Y009708D01*
X017879Y009708D01*
X017304Y009133D01*
X017304Y008980D01*
X017056Y008733D01*
X017056Y006723D01*
X014409Y006723D01*
X014409Y007198D01*
X013868Y007738D01*
X013104Y007738D01*
X012564Y007198D01*
X012564Y006723D01*
X012516Y006723D01*
X012516Y008733D01*
X012269Y008980D01*
X012269Y009133D01*
X011693Y009708D01*
X010879Y009708D01*
X010304Y009133D01*
X010304Y008980D01*
X010056Y008733D01*
X010056Y006723D01*
X008286Y006723D01*
X008286Y011273D01*
X009997Y011273D01*
X010277Y010993D01*
X014777Y010993D01*
X019277Y010993D01*
X023777Y010993D01*
X028277Y010993D01*
X030677Y010993D01*
X032777Y010993D01*
X035796Y010993D01*
X035730Y010643D02*
X038486Y010643D01*
X038486Y010324D02*
X035730Y010324D01*
X035731Y010006D02*
X038468Y010006D01*
X038144Y009687D02*
X035732Y009687D01*
X035732Y009369D02*
X037819Y009369D01*
X037495Y009050D02*
X035733Y009050D01*
X035733Y008731D02*
X037170Y008731D01*
X036786Y008731D02*
X033516Y008731D01*
X033516Y008413D02*
X036786Y008413D01*
X036846Y008413D02*
X035734Y008413D01*
X035735Y008094D02*
X036521Y008094D01*
X036786Y008094D02*
X033516Y008094D01*
X033516Y007776D02*
X036786Y007776D01*
X036786Y007457D02*
X035149Y007457D01*
X035409Y007139D02*
X036786Y007139D01*
X036786Y006820D02*
X035409Y006820D01*
X035736Y007457D02*
X035872Y007457D01*
X035735Y007776D02*
X036197Y007776D01*
X036786Y009050D02*
X033269Y009050D01*
X033033Y009369D02*
X036786Y009369D01*
X036786Y009687D02*
X032714Y009687D01*
X031858Y009687D02*
X030514Y009687D01*
X030833Y009369D02*
X031539Y009369D01*
X031304Y009050D02*
X031069Y009050D01*
X029658Y009687D02*
X025714Y009687D01*
X026033Y009369D02*
X029339Y009369D01*
X029104Y009050D02*
X026269Y009050D01*
X026468Y008731D02*
X028856Y008731D01*
X028856Y008413D02*
X026516Y008413D01*
X026516Y008094D02*
X028856Y008094D01*
X028856Y007776D02*
X026516Y007776D01*
X026516Y007457D02*
X026823Y007457D01*
X026564Y007139D02*
X026516Y007139D01*
X026516Y006820D02*
X026564Y006820D01*
X028149Y007457D02*
X028856Y007457D01*
X028856Y007139D02*
X028409Y007139D01*
X028409Y006820D02*
X028856Y006820D01*
X024858Y009687D02*
X023514Y009687D01*
X023833Y009369D02*
X024539Y009369D01*
X024304Y009050D02*
X024069Y009050D01*
X024069Y008731D02*
X024105Y008731D01*
X022658Y009687D02*
X018714Y009687D01*
X019033Y009369D02*
X022339Y009369D01*
X022104Y009050D02*
X019269Y009050D01*
X019516Y008731D02*
X022104Y008731D01*
X022104Y008413D02*
X019516Y008413D01*
X019516Y008094D02*
X022104Y008094D01*
X022104Y007776D02*
X019516Y007776D01*
X019516Y007457D02*
X019823Y007457D01*
X019564Y007139D02*
X019516Y007139D01*
X019516Y006820D02*
X019564Y006820D01*
X021149Y007457D02*
X022104Y007457D01*
X022164Y007139D02*
X021409Y007139D01*
X021409Y006820D02*
X022164Y006820D01*
X017858Y009687D02*
X011714Y009687D01*
X012033Y009369D02*
X017539Y009369D01*
X017304Y009050D02*
X012269Y009050D01*
X012516Y008731D02*
X017056Y008731D01*
X017056Y008413D02*
X012516Y008413D01*
X012516Y008094D02*
X017056Y008094D01*
X017056Y007776D02*
X012516Y007776D01*
X012516Y007457D02*
X012823Y007457D01*
X012564Y007139D02*
X012516Y007139D01*
X012516Y006820D02*
X012564Y006820D01*
X014149Y007457D02*
X017056Y007457D01*
X017056Y007139D02*
X014409Y007139D01*
X014409Y006820D02*
X017056Y006820D01*
X010858Y009687D02*
X008286Y009687D01*
X008286Y009369D02*
X010539Y009369D01*
X010304Y009050D02*
X008286Y009050D01*
X008286Y008731D02*
X010056Y008731D01*
X010056Y008413D02*
X008286Y008413D01*
X008286Y008094D02*
X010056Y008094D01*
X010056Y007776D02*
X008286Y007776D01*
X008286Y007457D02*
X010056Y007457D01*
X010056Y007139D02*
X008286Y007139D01*
X008286Y006820D02*
X010056Y006820D01*
X008286Y010006D02*
X036786Y010006D01*
X036786Y010324D02*
X008286Y010324D01*
X008286Y010643D02*
X036786Y010643D01*
X036786Y010961D02*
X008286Y010961D01*
X009836Y011913D02*
X009836Y013773D01*
X013431Y013773D01*
X013521Y013683D01*
X014051Y013683D01*
X025204Y013683D01*
X025301Y013643D01*
X025571Y013643D01*
X025668Y013683D01*
X025701Y013683D01*
X025725Y013707D01*
X025821Y013747D01*
X025848Y013773D01*
X036636Y013773D01*
X036636Y011913D01*
X009836Y011913D01*
X009836Y011917D02*
X036636Y011917D01*
X036636Y012235D02*
X009836Y012235D01*
X009836Y012554D02*
X036636Y012554D01*
X036636Y012872D02*
X009836Y012872D01*
X009836Y013191D02*
X036636Y013191D01*
X036636Y013510D02*
X009836Y013510D01*
X012886Y015223D02*
X013786Y014323D01*
X025436Y014323D01*
X029386Y014465D02*
X032786Y014465D01*
X032786Y014147D02*
X029386Y014147D01*
X029386Y013828D02*
X032786Y013828D01*
X032786Y013510D02*
X029386Y013510D01*
X029386Y013191D02*
X032786Y013191D01*
X032786Y012872D02*
X029386Y012872D01*
X029386Y012773D02*
X032786Y012773D01*
X032786Y027223D01*
X029386Y027223D01*
X029386Y022931D01*
X029416Y022859D01*
X029416Y022588D01*
X029386Y022516D01*
X029386Y012773D01*
X029386Y014784D02*
X032786Y014784D01*
X032786Y015102D02*
X029386Y015102D01*
X029386Y015421D02*
X032786Y015421D01*
X032786Y015739D02*
X029386Y015739D01*
X029386Y016058D02*
X032786Y016058D01*
X032786Y016376D02*
X029386Y016376D01*
X029386Y016695D02*
X032786Y016695D01*
X032786Y017014D02*
X029386Y017014D01*
X029386Y017332D02*
X032786Y017332D01*
X032786Y017651D02*
X029386Y017651D01*
X029386Y017969D02*
X032786Y017969D01*
X032786Y018288D02*
X029386Y018288D01*
X029386Y018606D02*
X032786Y018606D01*
X032786Y018925D02*
X029386Y018925D01*
X029386Y019243D02*
X032786Y019243D01*
X032786Y019562D02*
X029386Y019562D01*
X029386Y019880D02*
X032786Y019880D01*
X032786Y020199D02*
X029386Y020199D01*
X029386Y020518D02*
X032786Y020518D01*
X032786Y020836D02*
X029386Y020836D01*
X029386Y021155D02*
X032786Y021155D01*
X032786Y021473D02*
X029386Y021473D01*
X029386Y021792D02*
X032786Y021792D01*
X032786Y022110D02*
X029386Y022110D01*
X029386Y022429D02*
X032786Y022429D01*
X032786Y022747D02*
X029416Y022747D01*
X029386Y023066D02*
X032786Y023066D01*
X032786Y023384D02*
X029386Y023384D01*
X029386Y023703D02*
X032786Y023703D01*
X032786Y024021D02*
X029386Y024021D01*
X029386Y024340D02*
X032786Y024340D01*
X032786Y024659D02*
X029386Y024659D01*
X029386Y024977D02*
X032786Y024977D01*
X032786Y025296D02*
X029386Y025296D01*
X029386Y025614D02*
X032786Y025614D01*
X032786Y025933D02*
X029386Y025933D01*
X029386Y026251D02*
X032786Y026251D01*
X032786Y026570D02*
X029386Y026570D01*
X029386Y026888D02*
X032786Y026888D01*
X032786Y027207D02*
X029386Y027207D01*
X027863Y025809D02*
X027671Y026000D01*
X027575Y026040D01*
X027551Y026063D01*
X027518Y026063D01*
X027421Y026103D01*
X027151Y026103D01*
X027054Y026063D01*
X016001Y026063D01*
X015489Y026063D01*
X015425Y026090D01*
X015401Y026113D01*
X015368Y026113D01*
X015271Y026153D01*
X015001Y026153D01*
X014904Y026113D01*
X012018Y026113D01*
X011921Y026153D01*
X011651Y026153D01*
X011554Y026113D01*
X011521Y026113D01*
X011498Y026090D01*
X011401Y026050D01*
X011210Y025859D01*
X011174Y025773D01*
X010414Y025773D01*
X010221Y025853D01*
X009951Y025853D01*
X009786Y025785D01*
X009786Y028073D01*
X010646Y028073D01*
X010646Y027958D01*
X011021Y027583D01*
X011551Y027583D01*
X035186Y027583D01*
X035186Y025773D01*
X027877Y025773D01*
X027863Y025809D01*
X027738Y025933D02*
X035186Y025933D01*
X035186Y026251D02*
X009786Y026251D01*
X009786Y025933D02*
X011284Y025933D01*
X011786Y025473D02*
X015136Y025473D01*
X015736Y025423D02*
X014586Y024323D01*
X015736Y025423D02*
X027286Y025423D01*
X021386Y024923D02*
X019436Y023323D01*
X012536Y023323D01*
X009786Y026570D02*
X035186Y026570D01*
X035186Y026888D02*
X009786Y026888D01*
X009786Y027207D02*
X035186Y027207D01*
X035186Y027525D02*
X009786Y027525D01*
X009786Y027844D02*
X010760Y027844D01*
X011286Y028481D02*
X036036Y028481D01*
X036036Y028800D02*
X011286Y028800D01*
X011286Y029118D02*
X036036Y029118D01*
X036036Y029437D02*
X011286Y029437D01*
X011710Y029755D02*
X017862Y029755D01*
X017544Y030074D02*
X012028Y030074D01*
X012269Y030392D02*
X017304Y030392D01*
X017059Y030711D02*
X012513Y030711D01*
X012516Y031029D02*
X017056Y031029D01*
X017056Y031348D02*
X012516Y031348D01*
X012516Y031667D02*
X017056Y031667D01*
X017056Y031985D02*
X016745Y031985D01*
X017009Y032304D02*
X017056Y032304D01*
X017056Y032622D02*
X017009Y032622D01*
X017009Y032941D02*
X017056Y032941D01*
X017056Y033259D02*
X017009Y033259D01*
X015164Y033259D02*
X012516Y033259D01*
X012516Y032941D02*
X015164Y032941D01*
X015164Y032622D02*
X012516Y032622D01*
X012516Y032304D02*
X015164Y032304D01*
X015427Y031985D02*
X012516Y031985D01*
X018710Y029755D02*
X024862Y029755D01*
X024544Y030074D02*
X019028Y030074D01*
X019269Y030392D02*
X024304Y030392D01*
X024059Y030711D02*
X019513Y030711D01*
X019516Y031029D02*
X024056Y031029D01*
X024056Y031348D02*
X019516Y031348D01*
X019516Y031667D02*
X024056Y031667D01*
X024056Y031985D02*
X023745Y031985D01*
X024009Y032304D02*
X024056Y032304D01*
X024056Y032622D02*
X024009Y032622D01*
X024009Y032941D02*
X024056Y032941D01*
X024056Y033259D02*
X024009Y033259D01*
X022164Y032622D02*
X021911Y032622D01*
X022164Y032304D02*
X019516Y032304D01*
X019516Y032622D02*
X021261Y032622D01*
X020967Y032941D02*
X019516Y032941D01*
X019516Y033259D02*
X020906Y033259D01*
X019516Y031985D02*
X022427Y031985D01*
X025710Y029755D02*
X027062Y029755D01*
X026744Y030074D02*
X026028Y030074D01*
X026269Y030392D02*
X026504Y030392D01*
X027910Y029755D02*
X031862Y029755D01*
X031544Y030074D02*
X028228Y030074D01*
X028469Y030392D02*
X031304Y030392D01*
X031059Y030711D02*
X028713Y030711D01*
X028716Y031029D02*
X031056Y031029D01*
X031056Y031348D02*
X028716Y031348D01*
X028716Y031667D02*
X031056Y031667D01*
X031056Y031985D02*
X030745Y031985D01*
X031009Y032304D02*
X031056Y032304D01*
X031056Y032622D02*
X031009Y032622D01*
X031009Y032941D02*
X031056Y032941D01*
X031056Y033259D02*
X031009Y033259D01*
X029164Y033259D02*
X028716Y033259D01*
X028716Y032941D02*
X029164Y032941D01*
X029164Y032622D02*
X028716Y032622D01*
X028716Y032304D02*
X029164Y032304D01*
X029427Y031985D02*
X028716Y031985D01*
X032710Y029755D02*
X034062Y029755D01*
X033744Y030074D02*
X033028Y030074D01*
X033269Y030392D02*
X033504Y030392D01*
X035786Y027456D02*
X035786Y027223D01*
X021436Y014873D02*
X021386Y014773D01*
X014286Y014773D01*
X012736Y016323D01*
X033516Y007457D02*
X033823Y007457D01*
X033564Y007139D02*
X033516Y007139D01*
X033516Y006820D02*
X033564Y006820D01*
X034886Y011991D02*
X035286Y012223D01*
D32*
X033286Y012223D01*
X031186Y012223D01*
X031186Y025373D01*
X031186Y027223D01*
X033786Y027223D01*
X035786Y027223D01*
X036886Y029223D02*
X038336Y027773D01*
X038336Y018473D01*
X038336Y011223D01*
X036836Y010273D01*
X036286Y010223D02*
X036286Y006573D01*
X032286Y006373D02*
X032286Y008223D01*
X030086Y008223D02*
X030086Y006373D01*
X025286Y006373D02*
X025286Y008173D01*
X024286Y010223D02*
X028786Y010223D01*
X033286Y010223D01*
X036286Y010223D01*
X031186Y012223D02*
X028786Y012223D01*
X024286Y012223D01*
X019786Y012223D01*
X015286Y012223D01*
X010786Y012223D01*
X010786Y010223D02*
X009086Y010223D01*
X009086Y008223D01*
X009086Y006373D01*
X011286Y006373D02*
X011286Y008223D01*
X010786Y010223D02*
X015286Y010223D01*
X016086Y010223D01*
X016086Y008223D01*
X016086Y006373D01*
X018286Y006323D02*
X018286Y008223D01*
X019786Y010223D02*
X016086Y010223D01*
X019786Y010223D02*
X024286Y010223D01*
X024786Y027223D02*
X020286Y027223D01*
X015786Y027223D01*
X011286Y027223D01*
X011286Y029223D02*
X013486Y029223D01*
X013486Y031223D01*
X013486Y033073D01*
X011286Y033073D02*
X011286Y031223D01*
X013486Y029223D02*
X013486Y029173D01*
X013486Y029223D02*
X015786Y029223D01*
X020286Y029223D01*
X020486Y029223D01*
X020486Y031223D01*
X020486Y033073D01*
X018286Y033123D02*
X018286Y031223D01*
X020486Y029223D02*
X024786Y029223D01*
X029286Y029223D01*
X033786Y029223D01*
X036886Y029223D01*
X035586Y029223D02*
X033786Y029223D01*
X034486Y031223D02*
X034486Y033073D01*
X032286Y033073D02*
X032286Y031223D01*
X027486Y031223D02*
X027486Y033123D01*
X025286Y033073D02*
X025286Y031223D01*
X024786Y027223D02*
X029286Y027223D01*
X031186Y027223D01*
M02*
