G75*
G70*
%OFA0B0*%
%FSLAX24Y24*%
%IPPOS*%
%LPD*%
%AMOC8*
5,1,8,0,0,1.08239X$1,22.5*
%
%ADD10C,0.1330*%
%ADD11C,0.0600*%
%ADD12C,0.0680*%
%ADD13OC8,0.0680*%
%ADD14O,0.0680X0.1280*%
%ADD15O,0.1497X0.0789*%
%ADD16O,0.1120X0.0600*%
%ADD17C,0.0400*%
%ADD18C,0.0480*%
D10*
X003012Y001691D03*
X037512Y001691D03*
X037512Y036191D03*
X003012Y036191D03*
D11*
X021512Y014491D03*
X023412Y014491D03*
D12*
X007662Y027391D03*
D13*
X006662Y027391D03*
X006662Y028391D03*
X007662Y028391D03*
X007662Y029391D03*
X006662Y029391D03*
X003512Y029191D03*
X002512Y029191D03*
X002512Y030191D03*
X003512Y030191D03*
X003512Y031191D03*
X002512Y031191D03*
X002512Y032191D03*
X003512Y032191D03*
X003512Y025191D03*
X002512Y025191D03*
X002512Y024191D03*
X002512Y023191D03*
X003512Y023191D03*
X003512Y024191D03*
X003512Y022191D03*
X002512Y022191D03*
X002512Y021191D03*
X002512Y020191D03*
X003512Y020191D03*
X003512Y021191D03*
X003512Y019191D03*
X002512Y019191D03*
X002512Y018191D03*
X002512Y017191D03*
X003512Y017191D03*
X003512Y018191D03*
X003512Y016191D03*
X002512Y016191D03*
X002512Y011191D03*
X003512Y011191D03*
X003512Y010191D03*
X003512Y009191D03*
X002512Y009191D03*
X002512Y010191D03*
X002512Y008191D03*
X003512Y008191D03*
X003512Y007191D03*
X002512Y007191D03*
X037012Y008341D03*
X038012Y008341D03*
X038012Y009341D03*
X037012Y009341D03*
X037012Y010341D03*
X038012Y010341D03*
X038012Y011341D03*
X037012Y011341D03*
X037012Y012341D03*
X038012Y012341D03*
D14*
X032512Y005091D03*
X031512Y005091D03*
X030512Y005091D03*
X026012Y005091D03*
X025012Y005091D03*
X024012Y005091D03*
X019512Y005091D03*
X018512Y005091D03*
X017512Y005091D03*
D15*
X037512Y016191D03*
X037512Y017191D03*
X037512Y018191D03*
X037512Y019191D03*
X037512Y020191D03*
X037512Y021191D03*
X037512Y022191D03*
X037512Y024691D03*
X037512Y025691D03*
X037512Y026691D03*
X037512Y027691D03*
X037512Y029691D03*
X037512Y030691D03*
X037512Y031691D03*
X037512Y032691D03*
D16*
X029162Y017191D03*
X029162Y016191D03*
X029162Y015191D03*
X029162Y014191D03*
X029162Y013191D03*
X029162Y012191D03*
X029162Y011191D03*
X029162Y010191D03*
X029162Y009191D03*
X029162Y008191D03*
X026162Y008191D03*
X026162Y009191D03*
X026162Y010191D03*
X026162Y011191D03*
X026162Y012191D03*
X026162Y013191D03*
X026162Y014191D03*
X026162Y015191D03*
X026162Y016191D03*
X026162Y017191D03*
D17*
X026512Y016691D03*
X026812Y015791D03*
X027112Y015141D03*
X027412Y014841D03*
X027612Y015591D03*
X028062Y016791D03*
X028812Y018541D03*
X027612Y018691D03*
X027612Y019091D03*
X027612Y020041D03*
X028212Y020241D03*
X027712Y020541D03*
X027412Y020841D03*
X026512Y021241D03*
X027112Y021841D03*
X027112Y022291D03*
X027562Y021841D03*
X028662Y022341D03*
X028662Y022741D03*
X029562Y021841D03*
X028812Y020891D03*
X028862Y020441D03*
X029712Y020591D03*
X030512Y019691D03*
X031512Y019191D03*
X032612Y019191D03*
X032012Y020191D03*
X033912Y019191D03*
X034262Y017741D03*
X034662Y017841D03*
X034562Y017441D03*
X033962Y016991D03*
X032862Y016991D03*
X031662Y018091D03*
X030412Y018241D03*
X026512Y019541D03*
X025512Y019791D03*
X025512Y019241D03*
X025512Y018841D03*
X025812Y017941D03*
X024762Y017891D03*
X024262Y017891D03*
X024062Y018941D03*
X024062Y019341D03*
X024062Y019941D03*
X024012Y020541D03*
X024012Y020941D03*
X024012Y021891D03*
X023862Y022291D03*
X023562Y022591D03*
X023812Y023241D03*
X023812Y024241D03*
X023462Y024491D03*
X022512Y025491D03*
X021812Y025791D03*
X022962Y026841D03*
X023662Y026541D03*
X024262Y026341D03*
X025512Y025841D03*
X025362Y024341D03*
X025362Y023941D03*
X025262Y022741D03*
X025062Y021241D03*
X022762Y020391D03*
X021012Y020491D03*
X019612Y020641D03*
X019012Y020491D03*
X019012Y019641D03*
X018962Y018891D03*
X018962Y018491D03*
X019362Y018841D03*
X019662Y018141D03*
X020312Y018541D03*
X020712Y018141D03*
X021112Y018141D03*
X021412Y018541D03*
X022662Y018191D03*
X022362Y017141D03*
X022012Y016891D03*
X021412Y016991D03*
X021712Y015991D03*
X022012Y015691D03*
X022562Y015691D03*
X024212Y016391D03*
X025062Y014891D03*
X025512Y013841D03*
X027112Y012191D03*
X027412Y011891D03*
X028112Y011241D03*
X028362Y011591D03*
X027112Y009291D03*
X028412Y008441D03*
X030662Y008441D03*
X032262Y009891D03*
X035212Y009741D03*
X036062Y009741D03*
X037462Y007741D03*
X035662Y011991D03*
X034112Y013141D03*
X035062Y013691D03*
X035562Y017141D03*
X036512Y019491D03*
X036062Y021641D03*
X035662Y021641D03*
X038212Y025191D03*
X036112Y027441D03*
X037862Y029091D03*
X035262Y030241D03*
X034862Y030241D03*
X033262Y028791D03*
X033062Y028191D03*
X033362Y027891D03*
X032862Y029541D03*
X031862Y028941D03*
X031562Y027891D03*
X031162Y027891D03*
X029262Y026341D03*
X028212Y026291D03*
X028012Y026891D03*
X027512Y026591D03*
X026812Y027741D03*
X026212Y027191D03*
X027062Y029191D03*
X027462Y029241D03*
X025912Y030691D03*
X026862Y031291D03*
X027162Y031591D03*
X026512Y032591D03*
X026212Y031891D03*
X024962Y032641D03*
X024462Y033391D03*
X025212Y034241D03*
X025362Y035091D03*
X026462Y035491D03*
X026512Y033541D03*
X028762Y030991D03*
X029812Y031341D03*
X030062Y032041D03*
X030512Y031641D03*
X031262Y031641D03*
X032062Y032641D03*
X032862Y031741D03*
X034062Y032641D03*
X033162Y033241D03*
X030762Y033691D03*
X031212Y036691D03*
X029912Y036741D03*
X031762Y030491D03*
X028662Y024941D03*
X028962Y024641D03*
X026762Y024341D03*
X022212Y022491D03*
X021712Y023241D03*
X021362Y022941D03*
X020412Y022991D03*
X020012Y022941D03*
X019012Y022041D03*
X018962Y021291D03*
X017912Y021241D03*
X017912Y021641D03*
X017912Y022041D03*
X017662Y020891D03*
X017962Y020591D03*
X017962Y019291D03*
X016562Y020191D03*
X016562Y020591D03*
X016162Y021741D03*
X016012Y022141D03*
X015862Y024941D03*
X016762Y025241D03*
X017162Y025341D03*
X017162Y026541D03*
X017462Y027141D03*
X017862Y027141D03*
X018162Y026841D03*
X018512Y027691D03*
X019112Y026841D03*
X020162Y027691D03*
X021062Y027491D03*
X021362Y028041D03*
X021362Y028791D03*
X021762Y028791D03*
X022362Y029041D03*
X022862Y029441D03*
X022562Y030191D03*
X023362Y031441D03*
X021412Y031841D03*
X019862Y033091D03*
X019862Y034491D03*
X021462Y035441D03*
X021862Y034941D03*
X022212Y035691D03*
X023412Y033891D03*
X019862Y036491D03*
X018262Y034041D03*
X017362Y033391D03*
X017262Y032691D03*
X017962Y032791D03*
X018362Y032641D03*
X019062Y031841D03*
X018312Y030041D03*
X019112Y029741D03*
X019962Y029441D03*
X019662Y028991D03*
X017062Y027691D03*
X016562Y029141D03*
X016162Y029141D03*
X015562Y029141D03*
X015612Y030091D03*
X015212Y030091D03*
X014612Y030091D03*
X013412Y030091D03*
X014062Y031391D03*
X014362Y031941D03*
X015012Y031941D03*
X013662Y033091D03*
X013262Y033941D03*
X013362Y034441D03*
X013362Y034841D03*
X014962Y033741D03*
X012812Y032541D03*
X011362Y032841D03*
X011362Y034541D03*
X009712Y035141D03*
X008562Y033791D03*
X009462Y033391D03*
X008612Y032641D03*
X008562Y031141D03*
X009312Y029841D03*
X010412Y028941D03*
X010162Y028141D03*
X011312Y027391D03*
X012862Y027191D03*
X013712Y027691D03*
X011212Y030841D03*
X007662Y034541D03*
X006962Y032641D03*
X005662Y032641D03*
X005662Y033741D03*
X005062Y034541D03*
X005462Y035141D03*
X002962Y033641D03*
X004062Y031441D03*
X004762Y030841D03*
X005062Y031141D03*
X005662Y030541D03*
X005062Y029341D03*
X004462Y027841D03*
X005062Y026841D03*
X004712Y025791D03*
X003862Y026841D03*
X007012Y025241D03*
X005162Y022141D03*
X006162Y019091D03*
X005812Y018241D03*
X007112Y016341D03*
X007862Y015291D03*
X008162Y014991D03*
X008462Y015591D03*
X008412Y016041D03*
X008812Y016441D03*
X010312Y015691D03*
X010812Y017041D03*
X012112Y017791D03*
X014312Y014991D03*
X015062Y014241D03*
X015162Y013791D03*
X015162Y013291D03*
X015562Y013291D03*
X015862Y014341D03*
X015762Y014991D03*
X015062Y015841D03*
X015612Y015991D03*
X016262Y016141D03*
X016562Y015791D03*
X016862Y014991D03*
X017662Y014891D03*
X018562Y015191D03*
X017962Y016091D03*
X018562Y016891D03*
X018562Y017691D03*
X017662Y017241D03*
X017362Y016941D03*
X016862Y016591D03*
X016562Y017841D03*
X015812Y018491D03*
X015962Y018891D03*
X020712Y015691D03*
X019712Y013391D03*
X020262Y012941D03*
X020262Y012441D03*
X020862Y011691D03*
X021762Y011691D03*
X022312Y011591D03*
X023012Y012441D03*
X022762Y013291D03*
X021262Y013091D03*
X019362Y011541D03*
X017862Y011741D03*
X016962Y011341D03*
X015662Y011691D03*
X015412Y011341D03*
X015412Y010841D03*
X015412Y010441D03*
X016462Y009241D03*
X017312Y009691D03*
X018212Y009991D03*
X020062Y009041D03*
X020562Y009491D03*
X020912Y010041D03*
X020562Y010591D03*
X022212Y007991D03*
X023862Y008741D03*
X023862Y009691D03*
X023512Y010441D03*
X023912Y010691D03*
X023662Y011291D03*
X024962Y011291D03*
X025362Y011291D03*
X027962Y014291D03*
X028362Y014091D03*
X029962Y014091D03*
X025162Y006341D03*
X018062Y013241D03*
X016962Y012791D03*
X013812Y010841D03*
X013812Y010441D03*
X013412Y011241D03*
X012212Y011141D03*
X012212Y011541D03*
X012212Y012341D03*
X013412Y013291D03*
X010862Y012391D03*
X010512Y012991D03*
X010512Y013841D03*
X009112Y011491D03*
X008262Y011341D03*
X008262Y010941D03*
X007662Y010891D03*
X007212Y010091D03*
X006912Y009241D03*
X007212Y008541D03*
X006462Y007841D03*
X005512Y009641D03*
X005512Y010841D03*
X005512Y011241D03*
X005262Y011591D03*
X004912Y011341D03*
X007412Y012041D03*
X007962Y012041D03*
X009162Y010191D03*
X010762Y010941D03*
X012412Y010341D03*
X012412Y009941D03*
X011012Y009091D03*
X010862Y007541D03*
X011112Y006291D03*
X010512Y006091D03*
X009162Y006191D03*
X008162Y004841D03*
X008462Y004541D03*
X007962Y004441D03*
X007812Y004041D03*
X007512Y003741D03*
X009062Y003941D03*
X009062Y004491D03*
X010512Y004491D03*
X010512Y004091D03*
X010512Y003091D03*
X005512Y003041D03*
X005512Y003541D03*
X005512Y004041D03*
X005312Y005141D03*
X005512Y002641D03*
X013562Y008391D03*
X013862Y008091D03*
X014812Y009041D03*
X005462Y014241D03*
X004962Y013941D03*
X005662Y014841D03*
X004262Y016291D03*
X018612Y025491D03*
X020162Y025941D03*
X020262Y025491D03*
X020162Y024641D03*
X020462Y024241D03*
X021662Y024241D03*
X021062Y022041D03*
X022212Y027141D03*
X016862Y031441D03*
X015712Y035741D03*
X015512Y036691D03*
X012712Y036741D03*
X011312Y036691D03*
D18*
X014362Y027341D03*
X014812Y027341D03*
X015262Y027341D03*
X015762Y027341D03*
X015262Y026191D03*
X014762Y026191D03*
X014262Y026191D03*
X013762Y026191D03*
X013262Y026191D03*
X012762Y026191D03*
X012262Y026191D03*
X011762Y026191D03*
X011262Y026191D03*
X010762Y026191D03*
X010262Y026191D03*
X009762Y026191D03*
X009262Y026191D03*
X008762Y026191D03*
X008762Y026691D03*
X009262Y026691D03*
X009762Y026691D03*
X010262Y026691D03*
X010762Y026691D03*
X011012Y024941D03*
X011012Y024441D03*
X011512Y024441D03*
X012012Y024441D03*
X012512Y024441D03*
X012512Y024941D03*
X012012Y024941D03*
X011512Y024941D03*
X010512Y024941D03*
X010512Y024441D03*
X010012Y024441D03*
X010012Y024941D03*
X009512Y024941D03*
X009012Y024941D03*
X010012Y023941D03*
X010012Y023441D03*
X010012Y022941D03*
X010012Y022441D03*
X010512Y022441D03*
X010512Y022941D03*
X010512Y023441D03*
X010512Y023941D03*
X010512Y021941D03*
X010512Y021441D03*
X010012Y021441D03*
X010012Y020941D03*
X010012Y020441D03*
X010612Y019991D03*
X011712Y020041D03*
X012312Y020041D03*
X012312Y019491D03*
X014012Y019441D03*
X014012Y019941D03*
X014012Y020441D03*
X014012Y020941D03*
X014012Y021441D03*
X013512Y021441D03*
X013512Y021941D03*
X014012Y021941D03*
X014012Y022441D03*
X013512Y022441D03*
X013512Y022941D03*
X014012Y022941D03*
X014012Y023441D03*
X013512Y023441D03*
X013512Y023941D03*
X014012Y023941D03*
X014012Y024441D03*
X013512Y024441D03*
X013012Y024441D03*
X013012Y024941D03*
X013512Y024941D03*
X014012Y024941D03*
X014512Y024941D03*
X018162Y024041D03*
X014012Y018941D03*
X014012Y018441D03*
X010512Y018941D03*
X010012Y018941D03*
X009512Y018941D03*
X009012Y018941D03*
X008512Y018941D03*
X008012Y018941D03*
X007512Y018941D03*
X007012Y018941D03*
X007512Y020441D03*
X006512Y020441D03*
X006512Y020941D03*
X006512Y021441D03*
X006512Y021941D03*
X006512Y022441D03*
X006512Y022941D03*
X006512Y023441D03*
X006512Y023941D03*
X006512Y024441D03*
X006512Y024941D03*
X006762Y026191D03*
X006262Y026191D03*
X010012Y021941D03*
X008512Y020441D03*
X004912Y020691D03*
X003462Y014641D03*
X004262Y013841D03*
X004462Y012941D03*
X004762Y009441D03*
X004762Y007841D03*
X004462Y005941D03*
X009062Y004941D03*
X013112Y003441D03*
X015362Y003541D03*
X015362Y002191D03*
X022262Y005441D03*
X022262Y006691D03*
X028262Y006541D03*
X028262Y005341D03*
X034212Y005491D03*
X035162Y004591D03*
X032212Y017141D03*
X033262Y021941D03*
X033612Y023941D03*
X033162Y024191D03*
X032762Y023941D03*
X032262Y023941D03*
X031862Y024191D03*
X032262Y024441D03*
X032762Y024441D03*
X033612Y024441D03*
X034112Y024441D03*
X034112Y023941D03*
X035612Y024041D03*
X035612Y023141D03*
X036662Y023341D03*
X037412Y023741D03*
X035412Y025991D03*
X036262Y026391D03*
X035012Y027091D03*
X033262Y030091D03*
X032512Y030091D03*
X030262Y030091D03*
X027912Y027691D03*
X029312Y026941D03*
X030762Y026491D03*
X030712Y025391D03*
X031262Y024441D03*
X031262Y023941D03*
X031212Y022841D03*
X030662Y021941D03*
X028862Y021891D03*
X026912Y026191D03*
X019612Y016741D03*
X019612Y015691D03*
X021362Y016541D03*
X018012Y013691D03*
X013712Y013941D03*
X009062Y011941D03*
X013062Y008741D03*
M02*
