G75*
G70*
%OFA0B0*%
%FSLAX24Y24*%
%IPPOS*%
%LPD*%
%AMOC8*
5,1,8,0,0,1.08239X$1,22.5*
%
%ADD10C,0.0000*%
%ADD11C,0.0100*%
%ADD12C,0.0060*%
%ADD13C,0.0040*%
%ADD14C,0.0010*%
%ADD15C,0.0160*%
%ADD16C,0.0050*%
%ADD17C,0.0030*%
%ADD18C,0.0020*%
%ADD19R,0.0200X0.0050*%
%ADD20R,0.0059X0.0118*%
%ADD21R,0.0118X0.0118*%
%ADD22R,0.0193X0.0433*%
%ADD23C,0.0080*%
%ADD24R,0.0350X0.0350*%
%ADD25R,0.0340X0.0300*%
%ADD26R,0.0050X0.0200*%
D10*
X001512Y037691D02*
X001512Y000191D01*
X039012Y000191D01*
X039012Y037691D01*
X001512Y037691D01*
X002387Y036191D02*
X002390Y036248D01*
X002397Y036304D01*
X002410Y036360D01*
X002428Y036414D01*
X002451Y036466D01*
X002478Y036516D01*
X002510Y036563D01*
X002546Y036607D01*
X002585Y036648D01*
X002629Y036685D01*
X002675Y036717D01*
X002724Y036746D01*
X002776Y036770D01*
X002830Y036789D01*
X002885Y036803D01*
X002941Y036812D01*
X002998Y036816D01*
X003055Y036815D01*
X003111Y036808D01*
X003167Y036797D01*
X003221Y036780D01*
X003274Y036758D01*
X003324Y036732D01*
X003372Y036702D01*
X003417Y036667D01*
X003459Y036628D01*
X003497Y036585D01*
X003531Y036540D01*
X003560Y036491D01*
X003585Y036440D01*
X003606Y036387D01*
X003621Y036332D01*
X003631Y036276D01*
X003636Y036219D01*
X003636Y036163D01*
X003631Y036106D01*
X003621Y036050D01*
X003606Y035995D01*
X003585Y035942D01*
X003560Y035891D01*
X003531Y035842D01*
X003497Y035797D01*
X003459Y035754D01*
X003417Y035715D01*
X003372Y035680D01*
X003325Y035650D01*
X003274Y035624D01*
X003221Y035602D01*
X003167Y035585D01*
X003111Y035574D01*
X003055Y035567D01*
X002998Y035566D01*
X002941Y035570D01*
X002885Y035579D01*
X002830Y035593D01*
X002776Y035612D01*
X002724Y035636D01*
X002675Y035665D01*
X002629Y035697D01*
X002585Y035734D01*
X002546Y035775D01*
X002510Y035819D01*
X002478Y035866D01*
X002451Y035916D01*
X002428Y035968D01*
X002410Y036022D01*
X002397Y036078D01*
X002390Y036134D01*
X002387Y036191D01*
X036887Y036191D02*
X036890Y036248D01*
X036897Y036304D01*
X036910Y036360D01*
X036928Y036414D01*
X036951Y036466D01*
X036978Y036516D01*
X037010Y036563D01*
X037046Y036607D01*
X037085Y036648D01*
X037129Y036685D01*
X037175Y036717D01*
X037224Y036746D01*
X037276Y036770D01*
X037330Y036789D01*
X037385Y036803D01*
X037441Y036812D01*
X037498Y036816D01*
X037555Y036815D01*
X037611Y036808D01*
X037667Y036797D01*
X037721Y036780D01*
X037774Y036758D01*
X037824Y036732D01*
X037872Y036702D01*
X037917Y036667D01*
X037959Y036628D01*
X037997Y036585D01*
X038031Y036540D01*
X038060Y036491D01*
X038085Y036440D01*
X038106Y036387D01*
X038121Y036332D01*
X038131Y036276D01*
X038136Y036219D01*
X038136Y036163D01*
X038131Y036106D01*
X038121Y036050D01*
X038106Y035995D01*
X038085Y035942D01*
X038060Y035891D01*
X038031Y035842D01*
X037997Y035797D01*
X037959Y035754D01*
X037917Y035715D01*
X037872Y035680D01*
X037825Y035650D01*
X037774Y035624D01*
X037721Y035602D01*
X037667Y035585D01*
X037611Y035574D01*
X037555Y035567D01*
X037498Y035566D01*
X037441Y035570D01*
X037385Y035579D01*
X037330Y035593D01*
X037276Y035612D01*
X037224Y035636D01*
X037175Y035665D01*
X037129Y035697D01*
X037085Y035734D01*
X037046Y035775D01*
X037010Y035819D01*
X036978Y035866D01*
X036951Y035916D01*
X036928Y035968D01*
X036910Y036022D01*
X036897Y036078D01*
X036890Y036134D01*
X036887Y036191D01*
X036887Y001691D02*
X036890Y001748D01*
X036897Y001804D01*
X036910Y001860D01*
X036928Y001914D01*
X036951Y001966D01*
X036978Y002016D01*
X037010Y002063D01*
X037046Y002107D01*
X037085Y002148D01*
X037129Y002185D01*
X037175Y002217D01*
X037224Y002246D01*
X037276Y002270D01*
X037330Y002289D01*
X037385Y002303D01*
X037441Y002312D01*
X037498Y002316D01*
X037555Y002315D01*
X037611Y002308D01*
X037667Y002297D01*
X037721Y002280D01*
X037774Y002258D01*
X037824Y002232D01*
X037872Y002202D01*
X037917Y002167D01*
X037959Y002128D01*
X037997Y002085D01*
X038031Y002040D01*
X038060Y001991D01*
X038085Y001940D01*
X038106Y001887D01*
X038121Y001832D01*
X038131Y001776D01*
X038136Y001719D01*
X038136Y001663D01*
X038131Y001606D01*
X038121Y001550D01*
X038106Y001495D01*
X038085Y001442D01*
X038060Y001391D01*
X038031Y001342D01*
X037997Y001297D01*
X037959Y001254D01*
X037917Y001215D01*
X037872Y001180D01*
X037825Y001150D01*
X037774Y001124D01*
X037721Y001102D01*
X037667Y001085D01*
X037611Y001074D01*
X037555Y001067D01*
X037498Y001066D01*
X037441Y001070D01*
X037385Y001079D01*
X037330Y001093D01*
X037276Y001112D01*
X037224Y001136D01*
X037175Y001165D01*
X037129Y001197D01*
X037085Y001234D01*
X037046Y001275D01*
X037010Y001319D01*
X036978Y001366D01*
X036951Y001416D01*
X036928Y001468D01*
X036910Y001522D01*
X036897Y001578D01*
X036890Y001634D01*
X036887Y001691D01*
X002387Y001691D02*
X002390Y001748D01*
X002397Y001804D01*
X002410Y001860D01*
X002428Y001914D01*
X002451Y001966D01*
X002478Y002016D01*
X002510Y002063D01*
X002546Y002107D01*
X002585Y002148D01*
X002629Y002185D01*
X002675Y002217D01*
X002724Y002246D01*
X002776Y002270D01*
X002830Y002289D01*
X002885Y002303D01*
X002941Y002312D01*
X002998Y002316D01*
X003055Y002315D01*
X003111Y002308D01*
X003167Y002297D01*
X003221Y002280D01*
X003274Y002258D01*
X003324Y002232D01*
X003372Y002202D01*
X003417Y002167D01*
X003459Y002128D01*
X003497Y002085D01*
X003531Y002040D01*
X003560Y001991D01*
X003585Y001940D01*
X003606Y001887D01*
X003621Y001832D01*
X003631Y001776D01*
X003636Y001719D01*
X003636Y001663D01*
X003631Y001606D01*
X003621Y001550D01*
X003606Y001495D01*
X003585Y001442D01*
X003560Y001391D01*
X003531Y001342D01*
X003497Y001297D01*
X003459Y001254D01*
X003417Y001215D01*
X003372Y001180D01*
X003325Y001150D01*
X003274Y001124D01*
X003221Y001102D01*
X003167Y001085D01*
X003111Y001074D01*
X003055Y001067D01*
X002998Y001066D01*
X002941Y001070D01*
X002885Y001079D01*
X002830Y001093D01*
X002776Y001112D01*
X002724Y001136D01*
X002675Y001165D01*
X002629Y001197D01*
X002585Y001234D01*
X002546Y001275D01*
X002510Y001319D01*
X002478Y001366D01*
X002451Y001416D01*
X002428Y001468D01*
X002410Y001522D01*
X002397Y001578D01*
X002390Y001634D01*
X002387Y001691D01*
D11*
X019762Y008141D02*
X019762Y012491D01*
X024912Y012491D01*
X024912Y008141D01*
X019762Y008141D01*
X030212Y008591D02*
X030212Y017141D01*
X035412Y017141D01*
X035412Y008591D01*
X030212Y008591D01*
X036941Y015640D02*
X038083Y015640D01*
X038083Y022743D01*
X036941Y022743D01*
X036941Y015640D01*
X034862Y021991D02*
X029012Y021991D01*
X029012Y037191D01*
X034862Y037191D01*
X034862Y021991D01*
X036941Y024140D02*
X038083Y024140D01*
X038083Y028243D01*
X036941Y028243D01*
X036941Y024140D01*
X036941Y029140D02*
X038083Y029140D01*
X038083Y033243D01*
X036941Y033243D01*
X036941Y029140D01*
D12*
X037079Y029184D02*
X037079Y033199D01*
X034602Y030651D02*
X030592Y030651D01*
X030592Y027732D01*
X034602Y027732D01*
X034602Y030651D01*
X037079Y028199D02*
X037079Y024184D01*
X037079Y022699D02*
X037079Y015684D01*
X035082Y015711D02*
X035082Y013071D01*
X035080Y013048D01*
X035075Y013025D01*
X035066Y013003D01*
X035053Y012983D01*
X035038Y012965D01*
X035020Y012950D01*
X035000Y012937D01*
X034978Y012928D01*
X034955Y012923D01*
X034932Y012921D01*
X031092Y012921D01*
X031069Y012923D01*
X031046Y012928D01*
X031024Y012937D01*
X031004Y012950D01*
X030986Y012965D01*
X030971Y012983D01*
X030958Y013003D01*
X030949Y013025D01*
X030944Y013048D01*
X030942Y013071D01*
X030942Y015711D01*
X030944Y015734D01*
X030949Y015757D01*
X030958Y015779D01*
X030971Y015799D01*
X030986Y015817D01*
X031004Y015832D01*
X031024Y015845D01*
X031046Y015854D01*
X031069Y015859D01*
X031092Y015861D01*
X034932Y015861D01*
X034955Y015859D01*
X034978Y015854D01*
X035000Y015845D01*
X035020Y015832D01*
X035038Y015817D01*
X035053Y015799D01*
X035066Y015779D01*
X035075Y015757D01*
X035080Y015734D01*
X035082Y015711D01*
X036762Y012841D02*
X036512Y012591D01*
X036512Y012091D01*
X036762Y011841D01*
X036512Y011591D01*
X036512Y011091D01*
X036762Y010841D01*
X036512Y010591D01*
X036512Y010091D01*
X036762Y009841D01*
X036512Y009591D01*
X036512Y009091D01*
X036762Y008841D01*
X036512Y008591D01*
X036512Y008091D01*
X036762Y007841D01*
X038262Y007841D01*
X038512Y008091D01*
X038512Y008591D01*
X038262Y008841D01*
X038512Y009091D01*
X038512Y009591D01*
X038262Y009841D01*
X038512Y010091D01*
X038512Y010591D01*
X038262Y010841D01*
X038512Y011091D01*
X038512Y011591D01*
X038262Y011841D01*
X038512Y012091D01*
X038512Y012591D01*
X038262Y012841D01*
X036762Y012841D01*
X030942Y013891D02*
X030986Y013893D01*
X031029Y013899D01*
X031071Y013908D01*
X031113Y013921D01*
X031153Y013938D01*
X031192Y013958D01*
X031229Y013981D01*
X031263Y014008D01*
X031296Y014037D01*
X031325Y014070D01*
X031352Y014104D01*
X031375Y014141D01*
X031395Y014180D01*
X031412Y014220D01*
X031425Y014262D01*
X031434Y014304D01*
X031440Y014347D01*
X031442Y014391D01*
X031440Y014435D01*
X031434Y014478D01*
X031425Y014520D01*
X031412Y014562D01*
X031395Y014602D01*
X031375Y014641D01*
X031352Y014678D01*
X031325Y014712D01*
X031296Y014745D01*
X031263Y014774D01*
X031229Y014801D01*
X031192Y014824D01*
X031153Y014844D01*
X031113Y014861D01*
X031071Y014874D01*
X031029Y014883D01*
X030986Y014889D01*
X030942Y014891D01*
X028812Y017691D02*
X026512Y017691D01*
X026512Y007691D01*
X027262Y007691D01*
X027264Y007730D01*
X027270Y007769D01*
X027279Y007807D01*
X027292Y007844D01*
X027309Y007880D01*
X027329Y007913D01*
X027353Y007945D01*
X027379Y007974D01*
X027408Y008000D01*
X027440Y008024D01*
X027473Y008044D01*
X027509Y008061D01*
X027546Y008074D01*
X027584Y008083D01*
X027623Y008089D01*
X027662Y008091D01*
X027701Y008089D01*
X027740Y008083D01*
X027778Y008074D01*
X027815Y008061D01*
X027851Y008044D01*
X027884Y008024D01*
X027916Y008000D01*
X027945Y007974D01*
X027971Y007945D01*
X027995Y007913D01*
X028015Y007880D01*
X028032Y007844D01*
X028045Y007807D01*
X028054Y007769D01*
X028060Y007730D01*
X028062Y007691D01*
X028812Y007691D01*
X028812Y017691D01*
X024282Y017921D02*
X018742Y017921D01*
X018742Y023291D01*
X018912Y023462D01*
X024282Y023462D01*
X024282Y017921D01*
X023662Y015141D02*
X021262Y015141D01*
X021212Y015139D01*
X021163Y015133D01*
X021114Y015124D01*
X021066Y015111D01*
X021019Y015094D01*
X020974Y015074D01*
X020930Y015050D01*
X020888Y015023D01*
X020848Y014992D01*
X020811Y014959D01*
X020777Y014923D01*
X020745Y014885D01*
X020716Y014844D01*
X020691Y014802D01*
X020669Y014757D01*
X020650Y014711D01*
X020635Y014663D01*
X020624Y014615D01*
X020616Y014566D01*
X020612Y014516D01*
X020612Y014466D01*
X020616Y014416D01*
X020624Y014367D01*
X020635Y014319D01*
X020650Y014271D01*
X020669Y014225D01*
X020691Y014180D01*
X020716Y014138D01*
X020745Y014097D01*
X020777Y014059D01*
X020811Y014023D01*
X020848Y013990D01*
X020888Y013959D01*
X020930Y013932D01*
X020974Y013908D01*
X021019Y013888D01*
X021066Y013871D01*
X021114Y013858D01*
X021163Y013849D01*
X021212Y013843D01*
X021262Y013841D01*
X023662Y013841D01*
X023712Y013843D01*
X023761Y013849D01*
X023810Y013858D01*
X023858Y013871D01*
X023905Y013888D01*
X023950Y013908D01*
X023994Y013932D01*
X024036Y013959D01*
X024076Y013990D01*
X024113Y014023D01*
X024147Y014059D01*
X024179Y014097D01*
X024208Y014138D01*
X024233Y014180D01*
X024255Y014225D01*
X024274Y014271D01*
X024289Y014319D01*
X024300Y014367D01*
X024308Y014416D01*
X024312Y014466D01*
X024312Y014516D01*
X024308Y014566D01*
X024300Y014615D01*
X024289Y014663D01*
X024274Y014711D01*
X024255Y014757D01*
X024233Y014802D01*
X024208Y014844D01*
X024179Y014885D01*
X024147Y014923D01*
X024113Y014959D01*
X024076Y014992D01*
X024036Y015023D01*
X023994Y015050D01*
X023950Y015074D01*
X023905Y015094D01*
X023858Y015111D01*
X023810Y015124D01*
X023761Y015133D01*
X023712Y015139D01*
X023662Y015141D01*
X022962Y014491D02*
X022712Y014491D01*
X022712Y014191D01*
X022562Y014191D02*
X022562Y014791D01*
X022362Y014791D01*
X022362Y014191D01*
X022562Y014191D01*
X022712Y014491D02*
X022712Y014791D01*
X022212Y014791D02*
X022212Y014491D01*
X021962Y014491D01*
X022212Y014491D02*
X022212Y014191D01*
X018132Y013941D02*
X016892Y013941D01*
X013982Y014101D02*
X013982Y009281D01*
X013980Y009258D01*
X013975Y009235D01*
X013966Y009213D01*
X013953Y009193D01*
X013938Y009175D01*
X013920Y009160D01*
X013900Y009147D01*
X013878Y009138D01*
X013855Y009133D01*
X013832Y009131D01*
X012192Y009131D01*
X012169Y009133D01*
X012146Y009138D01*
X012124Y009147D01*
X012104Y009160D01*
X012086Y009175D01*
X012071Y009193D01*
X012058Y009213D01*
X012049Y009235D01*
X012044Y009258D01*
X012042Y009281D01*
X012042Y014101D01*
X012044Y014124D01*
X012049Y014147D01*
X012058Y014169D01*
X012071Y014189D01*
X012086Y014207D01*
X012104Y014222D01*
X012124Y014235D01*
X012146Y014244D01*
X012169Y014249D01*
X012192Y014251D01*
X013832Y014251D01*
X013855Y014249D01*
X013878Y014244D01*
X013900Y014235D01*
X013920Y014222D01*
X013938Y014207D01*
X013953Y014189D01*
X013966Y014169D01*
X013975Y014147D01*
X013980Y014124D01*
X013982Y014101D01*
X016892Y010441D02*
X018132Y010441D01*
X017712Y010441D02*
X017710Y010468D01*
X017705Y010495D01*
X017695Y010521D01*
X017683Y010545D01*
X017667Y010567D01*
X017649Y010587D01*
X017627Y010604D01*
X017604Y010619D01*
X017579Y010629D01*
X017553Y010637D01*
X017526Y010641D01*
X017498Y010641D01*
X017471Y010637D01*
X017445Y010629D01*
X017420Y010619D01*
X017397Y010604D01*
X017375Y010587D01*
X017357Y010567D01*
X017341Y010545D01*
X017329Y010521D01*
X017319Y010495D01*
X017314Y010468D01*
X017312Y010441D01*
X017272Y008160D02*
X017235Y008160D01*
X017272Y008160D02*
X017272Y007523D01*
X017235Y007523D01*
X016917Y007523D02*
X016880Y007523D01*
X016543Y007523D02*
X016506Y007523D01*
X016189Y007523D02*
X016152Y007523D01*
X016152Y008160D01*
X016189Y008160D01*
X016506Y008160D02*
X016917Y008160D01*
X017262Y005591D02*
X017012Y005341D01*
X017012Y004841D01*
X017262Y004591D01*
X017762Y004591D01*
X018012Y004841D01*
X018262Y004591D01*
X018762Y004591D01*
X019012Y004841D01*
X019262Y004591D01*
X019762Y004591D01*
X020012Y004841D01*
X020012Y005341D01*
X019762Y005591D01*
X019262Y005591D01*
X019012Y005341D01*
X018762Y005591D01*
X018262Y005591D01*
X018012Y005341D01*
X017762Y005591D01*
X017262Y005591D01*
X013632Y003941D02*
X012392Y003941D01*
X012812Y003941D02*
X012814Y003968D01*
X012819Y003995D01*
X012829Y004021D01*
X012841Y004045D01*
X012857Y004067D01*
X012875Y004087D01*
X012897Y004104D01*
X012920Y004119D01*
X012945Y004129D01*
X012971Y004137D01*
X012998Y004141D01*
X013026Y004141D01*
X013053Y004137D01*
X013079Y004129D01*
X013104Y004119D01*
X013127Y004104D01*
X013149Y004087D01*
X013167Y004067D01*
X013183Y004045D01*
X013195Y004021D01*
X013205Y003995D01*
X013210Y003968D01*
X013212Y003941D01*
X013632Y007441D02*
X012392Y007441D01*
X012512Y009131D02*
X012514Y009175D01*
X012520Y009218D01*
X012529Y009260D01*
X012542Y009302D01*
X012559Y009342D01*
X012579Y009381D01*
X012602Y009418D01*
X012629Y009452D01*
X012658Y009485D01*
X012691Y009514D01*
X012725Y009541D01*
X012762Y009564D01*
X012801Y009584D01*
X012841Y009601D01*
X012883Y009614D01*
X012925Y009623D01*
X012968Y009629D01*
X013012Y009631D01*
X013056Y009629D01*
X013099Y009623D01*
X013141Y009614D01*
X013183Y009601D01*
X013223Y009584D01*
X013262Y009564D01*
X013299Y009541D01*
X013333Y009514D01*
X013366Y009485D01*
X013395Y009452D01*
X013422Y009418D01*
X013445Y009381D01*
X013465Y009342D01*
X013482Y009302D01*
X013495Y009260D01*
X013504Y009218D01*
X013510Y009175D01*
X013512Y009131D01*
X004012Y008941D02*
X003762Y008691D01*
X004012Y008441D01*
X004012Y007941D01*
X003762Y007691D01*
X004012Y007441D01*
X004012Y006941D01*
X003762Y006691D01*
X002262Y006691D01*
X002012Y006941D01*
X002012Y007441D01*
X002262Y007691D01*
X002012Y007941D01*
X002012Y008441D01*
X002262Y008691D01*
X002012Y008941D01*
X002012Y009441D01*
X002262Y009691D01*
X002012Y009941D01*
X002012Y010441D01*
X002262Y010691D01*
X002012Y010941D01*
X002012Y011441D01*
X002262Y011691D01*
X003762Y011691D01*
X004012Y011441D01*
X004012Y010941D01*
X003762Y010691D01*
X004012Y010441D01*
X004012Y009941D01*
X003762Y009691D01*
X004012Y009441D01*
X004012Y008941D01*
X003762Y015691D02*
X002262Y015691D01*
X002012Y015941D01*
X002012Y016441D01*
X002262Y016691D01*
X002012Y016941D01*
X002012Y017441D01*
X002262Y017691D01*
X002012Y017941D01*
X002012Y018441D01*
X002262Y018691D01*
X002012Y018941D01*
X002012Y019441D01*
X002262Y019691D01*
X002012Y019941D01*
X002012Y020441D01*
X002262Y020691D01*
X002012Y020941D01*
X002012Y021441D01*
X002262Y021691D01*
X002012Y021941D01*
X002012Y022441D01*
X002262Y022691D01*
X002012Y022941D01*
X002012Y023441D01*
X002262Y023691D01*
X002012Y023941D01*
X002012Y024441D01*
X002262Y024691D01*
X002012Y024941D01*
X002012Y025441D01*
X002262Y025691D01*
X003762Y025691D01*
X004012Y025441D01*
X004012Y024941D01*
X003762Y024691D01*
X004012Y024441D01*
X004012Y023941D01*
X003762Y023691D01*
X004012Y023441D01*
X004012Y022941D01*
X003762Y022691D01*
X004012Y022441D01*
X004012Y021941D01*
X003762Y021691D01*
X004012Y021441D01*
X004012Y020941D01*
X003762Y020691D01*
X004012Y020441D01*
X004012Y019941D01*
X003762Y019691D01*
X004012Y019441D01*
X004012Y018941D01*
X003762Y018691D01*
X004012Y018441D01*
X004012Y017941D01*
X003762Y017691D01*
X004012Y017441D01*
X004012Y016941D01*
X003762Y016691D01*
X004012Y016441D01*
X004012Y015941D01*
X003762Y015691D01*
X006412Y026891D02*
X007912Y026891D01*
X008162Y027141D01*
X008162Y027641D01*
X007912Y027891D01*
X008162Y028141D01*
X008162Y028641D01*
X007912Y028891D01*
X008162Y029141D01*
X008162Y029641D01*
X007912Y029891D01*
X006412Y029891D01*
X006162Y029641D01*
X006162Y029141D01*
X006412Y028891D01*
X006162Y028641D01*
X006162Y028141D01*
X006412Y027891D01*
X006162Y027641D01*
X006162Y027141D01*
X006412Y026891D01*
X004012Y028941D02*
X004012Y029441D01*
X003762Y029691D01*
X004012Y029941D01*
X004012Y030441D01*
X003762Y030691D01*
X004012Y030941D01*
X004012Y031441D01*
X003762Y031691D01*
X004012Y031941D01*
X004012Y032441D01*
X003762Y032691D01*
X002262Y032691D01*
X002012Y032441D01*
X002012Y031941D01*
X002262Y031691D01*
X002012Y031441D01*
X002012Y030941D01*
X002262Y030691D01*
X002012Y030441D01*
X002012Y029941D01*
X002262Y029691D01*
X002012Y029441D01*
X002012Y028941D01*
X002262Y028691D01*
X003762Y028691D01*
X004012Y028941D01*
X011612Y028921D02*
X011612Y030161D01*
X011614Y030184D01*
X011619Y030207D01*
X011628Y030229D01*
X011641Y030249D01*
X011656Y030267D01*
X011674Y030282D01*
X011694Y030295D01*
X011716Y030304D01*
X011739Y030309D01*
X011762Y030311D01*
X015462Y030311D01*
X015485Y030309D01*
X015508Y030304D01*
X015530Y030295D01*
X015550Y030282D01*
X015568Y030267D01*
X015583Y030249D01*
X015596Y030229D01*
X015605Y030207D01*
X015610Y030184D01*
X015612Y030161D01*
X015612Y028921D01*
X015610Y028898D01*
X015605Y028875D01*
X015596Y028853D01*
X015583Y028833D01*
X015568Y028815D01*
X015550Y028800D01*
X015530Y028787D01*
X015508Y028778D01*
X015485Y028773D01*
X015462Y028771D01*
X011762Y028771D01*
X011739Y028773D01*
X011716Y028778D01*
X011694Y028787D01*
X011674Y028800D01*
X011656Y028815D01*
X011641Y028833D01*
X011628Y028853D01*
X011619Y028875D01*
X011614Y028898D01*
X011612Y028921D01*
X011612Y029341D02*
X011639Y029343D01*
X011666Y029348D01*
X011692Y029358D01*
X011716Y029370D01*
X011738Y029386D01*
X011758Y029404D01*
X011775Y029426D01*
X011790Y029449D01*
X011800Y029474D01*
X011808Y029500D01*
X011812Y029527D01*
X011812Y029555D01*
X011808Y029582D01*
X011800Y029608D01*
X011790Y029633D01*
X011775Y029656D01*
X011758Y029678D01*
X011738Y029696D01*
X011716Y029712D01*
X011692Y029724D01*
X011666Y029734D01*
X011639Y029739D01*
X011612Y029741D01*
X016612Y029741D02*
X016639Y029739D01*
X016666Y029734D01*
X016692Y029724D01*
X016716Y029712D01*
X016738Y029696D01*
X016758Y029678D01*
X016775Y029656D01*
X016790Y029633D01*
X016800Y029608D01*
X016808Y029582D01*
X016812Y029555D01*
X016812Y029527D01*
X016808Y029500D01*
X016800Y029474D01*
X016790Y029449D01*
X016775Y029426D01*
X016758Y029404D01*
X016738Y029386D01*
X016716Y029370D01*
X016692Y029358D01*
X016666Y029348D01*
X016639Y029343D01*
X016612Y029341D01*
X016612Y028921D02*
X016612Y030161D01*
X016614Y030184D01*
X016619Y030207D01*
X016628Y030229D01*
X016641Y030249D01*
X016656Y030267D01*
X016674Y030282D01*
X016694Y030295D01*
X016716Y030304D01*
X016739Y030309D01*
X016762Y030311D01*
X020462Y030311D01*
X020485Y030309D01*
X020508Y030304D01*
X020530Y030295D01*
X020550Y030282D01*
X020568Y030267D01*
X020583Y030249D01*
X020596Y030229D01*
X020605Y030207D01*
X020610Y030184D01*
X020612Y030161D01*
X020612Y028921D01*
X020610Y028898D01*
X020605Y028875D01*
X020596Y028853D01*
X020583Y028833D01*
X020568Y028815D01*
X020550Y028800D01*
X020530Y028787D01*
X020508Y028778D01*
X020485Y028773D01*
X020462Y028771D01*
X016762Y028771D01*
X016739Y028773D01*
X016716Y028778D01*
X016694Y028787D01*
X016674Y028800D01*
X016656Y028815D01*
X016641Y028833D01*
X016628Y028853D01*
X016619Y028875D01*
X016614Y028898D01*
X016612Y028921D01*
X018977Y023006D02*
X018979Y023036D01*
X018985Y023065D01*
X018995Y023094D01*
X019009Y023120D01*
X019026Y023145D01*
X019047Y023167D01*
X019070Y023186D01*
X019096Y023201D01*
X019123Y023213D01*
X019152Y023221D01*
X019182Y023225D01*
X019212Y023225D01*
X019242Y023221D01*
X019271Y023213D01*
X019298Y023201D01*
X019324Y023186D01*
X019347Y023167D01*
X019368Y023145D01*
X019385Y023120D01*
X019399Y023094D01*
X019409Y023065D01*
X019415Y023036D01*
X019417Y023006D01*
X019415Y022976D01*
X019409Y022947D01*
X019399Y022918D01*
X019385Y022892D01*
X019368Y022867D01*
X019347Y022845D01*
X019324Y022826D01*
X019298Y022811D01*
X019271Y022799D01*
X019242Y022791D01*
X019212Y022787D01*
X019182Y022787D01*
X019152Y022791D01*
X019123Y022799D01*
X019096Y022811D01*
X019070Y022826D01*
X019047Y022845D01*
X019026Y022867D01*
X019009Y022892D01*
X018995Y022918D01*
X018985Y022947D01*
X018979Y022976D01*
X018977Y023006D01*
X026682Y028832D02*
X026682Y030251D01*
X028542Y030251D02*
X028542Y028832D01*
X030742Y028081D02*
X030744Y028110D01*
X030750Y028139D01*
X030760Y028166D01*
X030774Y028192D01*
X030791Y028216D01*
X030811Y028237D01*
X030835Y028255D01*
X030860Y028270D01*
X030887Y028281D01*
X030916Y028288D01*
X030945Y028291D01*
X030974Y028290D01*
X031003Y028285D01*
X031031Y028276D01*
X031057Y028263D01*
X031081Y028246D01*
X031103Y028227D01*
X031122Y028204D01*
X031137Y028180D01*
X031149Y028153D01*
X031157Y028125D01*
X031161Y028096D01*
X031161Y028066D01*
X031157Y028037D01*
X031149Y028009D01*
X031137Y027982D01*
X031122Y027958D01*
X031103Y027935D01*
X031081Y027916D01*
X031057Y027899D01*
X031031Y027886D01*
X031003Y027877D01*
X030974Y027872D01*
X030945Y027871D01*
X030916Y027874D01*
X030887Y027881D01*
X030860Y027892D01*
X030835Y027907D01*
X030811Y027925D01*
X030791Y027946D01*
X030774Y027970D01*
X030760Y027996D01*
X030750Y028023D01*
X030744Y028052D01*
X030742Y028081D01*
X030762Y005591D02*
X030262Y005591D01*
X030012Y005341D01*
X030012Y004841D01*
X030262Y004591D01*
X030762Y004591D01*
X031012Y004841D01*
X031262Y004591D01*
X031762Y004591D01*
X032012Y004841D01*
X032262Y004591D01*
X032762Y004591D01*
X033012Y004841D01*
X033012Y005341D01*
X032762Y005591D01*
X032262Y005591D01*
X032012Y005341D01*
X031762Y005591D01*
X031262Y005591D01*
X031012Y005341D01*
X030762Y005591D01*
X026512Y005341D02*
X026512Y004841D01*
X026262Y004591D01*
X025762Y004591D01*
X025512Y004841D01*
X025262Y004591D01*
X024762Y004591D01*
X024512Y004841D01*
X024262Y004591D01*
X023762Y004591D01*
X023512Y004841D01*
X023512Y005341D01*
X023762Y005591D01*
X024262Y005591D01*
X024512Y005341D01*
X024762Y005591D01*
X025262Y005591D01*
X025512Y005341D01*
X025762Y005591D01*
X026262Y005591D01*
X026512Y005341D01*
D13*
X027577Y007061D02*
X027501Y007138D01*
X027501Y007522D01*
X027808Y007522D02*
X027808Y007138D01*
X027731Y007061D01*
X027577Y007061D01*
X027961Y007061D02*
X028268Y007061D01*
X028114Y007061D02*
X028114Y007522D01*
X027961Y007368D01*
X028421Y007292D02*
X028421Y007138D01*
X028498Y007061D01*
X028652Y007061D01*
X028728Y007138D01*
X028728Y007215D01*
X028652Y007292D01*
X028421Y007292D01*
X028575Y007445D01*
X028728Y007522D01*
X027792Y008861D02*
X027485Y008861D01*
X027331Y009015D01*
X027485Y009168D01*
X027792Y009168D01*
X027792Y009322D02*
X027792Y009552D01*
X027715Y009629D01*
X027408Y009629D01*
X027331Y009552D01*
X027331Y009322D01*
X027792Y009322D01*
X027562Y009168D02*
X027562Y008861D01*
X027792Y009782D02*
X027331Y010089D01*
X027331Y010243D02*
X027331Y010473D01*
X027408Y010549D01*
X027562Y010549D01*
X027638Y010473D01*
X027638Y010243D01*
X027638Y010396D02*
X027792Y010549D01*
X027715Y010703D02*
X027792Y010780D01*
X027792Y010933D01*
X027715Y011010D01*
X027638Y011010D01*
X027562Y010933D01*
X027562Y010780D01*
X027485Y010703D01*
X027408Y010703D01*
X027331Y010780D01*
X027331Y010933D01*
X027408Y011010D01*
X027485Y011163D02*
X027331Y011317D01*
X027792Y011317D01*
X027792Y011470D02*
X027792Y011163D01*
X027715Y011624D02*
X027792Y011700D01*
X027792Y011854D01*
X027715Y011931D01*
X027562Y011931D01*
X027485Y011854D01*
X027485Y011777D01*
X027562Y011624D01*
X027331Y011624D01*
X027331Y011931D01*
X027408Y012084D02*
X027331Y012161D01*
X027331Y012314D01*
X027408Y012391D01*
X027715Y012084D01*
X027792Y012161D01*
X027792Y012314D01*
X027715Y012391D01*
X027408Y012391D01*
X027485Y012544D02*
X027331Y012698D01*
X027485Y012851D01*
X027792Y012851D01*
X027792Y013005D02*
X027331Y013005D01*
X027331Y013235D01*
X027408Y013312D01*
X027485Y013312D01*
X027562Y013235D01*
X027562Y013005D01*
X027562Y012851D02*
X027562Y012544D01*
X027485Y012544D02*
X027792Y012544D01*
X027792Y013005D02*
X027792Y013235D01*
X027715Y013312D01*
X027638Y013312D01*
X027562Y013235D01*
X027408Y013465D02*
X027715Y013465D01*
X027792Y013542D01*
X027792Y013695D01*
X027715Y013772D01*
X027562Y013772D01*
X027562Y013618D01*
X027408Y013465D02*
X027331Y013542D01*
X027331Y013695D01*
X027408Y013772D01*
X027331Y013925D02*
X027792Y013925D01*
X027792Y014232D01*
X027792Y014386D02*
X027792Y014616D01*
X027715Y014693D01*
X027638Y014693D01*
X027562Y014616D01*
X027562Y014386D01*
X027792Y014386D02*
X027331Y014386D01*
X027331Y014616D01*
X027408Y014693D01*
X027485Y014693D01*
X027562Y014616D01*
X027331Y014232D02*
X027331Y013925D01*
X027562Y013925D02*
X027562Y014079D01*
X027715Y012084D02*
X027408Y012084D01*
X027331Y010243D02*
X027792Y010243D01*
X027792Y010089D02*
X027331Y009782D01*
X036331Y015611D02*
X036792Y015918D01*
X036792Y016072D02*
X036331Y016072D01*
X036331Y016302D01*
X036408Y016379D01*
X036715Y016379D01*
X036792Y016302D01*
X036792Y016072D01*
X036792Y016532D02*
X036485Y016532D01*
X036331Y016686D01*
X036485Y016839D01*
X036792Y016839D01*
X036715Y016993D02*
X036792Y017069D01*
X036792Y017223D01*
X036715Y017299D01*
X036638Y017299D01*
X036562Y017223D01*
X036562Y017069D01*
X036485Y016993D01*
X036408Y016993D01*
X036331Y017069D01*
X036331Y017223D01*
X036408Y017299D01*
X036331Y017453D02*
X036792Y017453D01*
X036562Y017453D02*
X036562Y017760D01*
X036792Y017760D02*
X036331Y017760D01*
X036562Y016839D02*
X036562Y016532D01*
X036331Y015918D02*
X036792Y015611D01*
X028092Y022461D02*
X028092Y022768D01*
X028092Y022922D02*
X027631Y022922D01*
X027631Y023229D01*
X027631Y023382D02*
X027631Y023612D01*
X027708Y023689D01*
X028015Y023689D01*
X028092Y023612D01*
X028092Y023382D01*
X027631Y023382D01*
X027862Y023075D02*
X027862Y022922D01*
X028092Y022922D02*
X028092Y023229D01*
X028092Y023843D02*
X028092Y024149D01*
X028092Y023996D02*
X027631Y023996D01*
X027785Y023843D01*
X026742Y023843D02*
X026435Y024149D01*
X026358Y024149D01*
X026281Y024073D01*
X026281Y023919D01*
X026358Y023843D01*
X026358Y023689D02*
X026281Y023612D01*
X026281Y023382D01*
X026742Y023382D01*
X026742Y023612D01*
X026665Y023689D01*
X026358Y023689D01*
X026742Y023843D02*
X026742Y024149D01*
X026742Y023229D02*
X026742Y022922D01*
X026281Y022922D01*
X026281Y023229D01*
X026512Y023075D02*
X026512Y022922D01*
X026742Y022768D02*
X026742Y022461D01*
X026281Y022461D01*
X027631Y022461D02*
X028092Y022461D01*
X022943Y020273D02*
X022943Y019966D01*
X022943Y020197D02*
X022636Y020197D01*
X022636Y020273D02*
X022789Y020427D01*
X022943Y020273D01*
X022636Y020273D02*
X022636Y019966D01*
X022482Y020197D02*
X022176Y020197D01*
X022022Y020273D02*
X021945Y020197D01*
X021792Y020197D01*
X021715Y020273D01*
X021715Y020350D01*
X021792Y020427D01*
X021945Y020427D01*
X022022Y020350D01*
X022022Y020273D01*
X021945Y020197D02*
X022022Y020120D01*
X022022Y020043D01*
X021945Y019966D01*
X021792Y019966D01*
X021715Y020043D01*
X021715Y020120D01*
X021792Y020197D01*
X021562Y020273D02*
X021562Y020350D01*
X021485Y020427D01*
X021332Y020427D01*
X021255Y020350D01*
X021562Y020273D02*
X021255Y019966D01*
X021562Y019966D01*
X021101Y019966D02*
X020794Y019966D01*
X020641Y019966D02*
X020641Y020273D01*
X020488Y020427D01*
X020334Y020273D01*
X020334Y019966D01*
X020181Y020043D02*
X020181Y020197D01*
X020027Y020197D01*
X019874Y020350D02*
X019874Y020043D01*
X019950Y019966D01*
X020104Y019966D01*
X020181Y020043D01*
X020334Y020197D02*
X020641Y020197D01*
X020794Y020273D02*
X020948Y020427D01*
X020948Y019966D01*
X020181Y020350D02*
X020104Y020427D01*
X019950Y020427D01*
X019874Y020350D01*
X019720Y020427D02*
X019413Y020427D01*
X019413Y019966D01*
X019720Y019966D01*
X019567Y020197D02*
X019413Y020197D01*
X019260Y020427D02*
X019260Y019966D01*
X018953Y019966D02*
X018953Y020427D01*
X019106Y020273D01*
X019260Y020427D01*
X019359Y024216D02*
X019512Y024216D01*
X019589Y024293D01*
X019589Y024677D01*
X019742Y024600D02*
X019819Y024677D01*
X019972Y024677D01*
X020049Y024600D01*
X020049Y024523D01*
X019742Y024216D01*
X020049Y024216D01*
X019359Y024216D02*
X019282Y024293D01*
X019282Y024677D01*
X014792Y024358D02*
X014331Y024358D01*
X014331Y024205D02*
X014331Y024512D01*
X014408Y024051D02*
X014331Y023974D01*
X014331Y023744D01*
X014792Y023744D01*
X014792Y023974D01*
X014715Y024051D01*
X014408Y024051D01*
X014408Y023591D02*
X014331Y023514D01*
X014331Y023361D01*
X014408Y023284D01*
X014715Y023284D01*
X014792Y023361D01*
X014792Y023514D01*
X014715Y023591D01*
X014715Y023131D02*
X014562Y023131D01*
X014485Y023054D01*
X014485Y022977D01*
X014562Y022824D01*
X014331Y022824D01*
X014331Y023131D01*
X014715Y023131D02*
X014792Y023054D01*
X014792Y022900D01*
X014715Y022824D01*
X014715Y022670D02*
X014408Y022670D01*
X014715Y022363D01*
X014792Y022440D01*
X014792Y022593D01*
X014715Y022670D01*
X014715Y022363D02*
X014408Y022363D01*
X014331Y022440D01*
X014331Y022593D01*
X014408Y022670D01*
X014331Y022210D02*
X014792Y022210D01*
X014792Y021903D02*
X014331Y021903D01*
X014485Y022056D01*
X014331Y022210D01*
X014408Y021749D02*
X014485Y021749D01*
X014562Y021673D01*
X014562Y021519D01*
X014485Y021443D01*
X014408Y021443D01*
X014331Y021519D01*
X014331Y021673D01*
X014408Y021749D01*
X014562Y021673D02*
X014638Y021749D01*
X014715Y021749D01*
X014792Y021673D01*
X014792Y021519D01*
X014715Y021443D01*
X014638Y021443D01*
X014562Y021519D01*
X014408Y021289D02*
X014715Y020982D01*
X014792Y020982D01*
X014792Y020829D02*
X014331Y020829D01*
X014485Y020675D01*
X014331Y020522D01*
X014792Y020522D01*
X014792Y020368D02*
X014792Y020061D01*
X014331Y020061D01*
X014331Y020982D02*
X014331Y021289D01*
X014408Y021289D01*
X009692Y021938D02*
X009692Y022092D01*
X009615Y022168D01*
X009231Y022168D01*
X009385Y022322D02*
X009231Y022475D01*
X009692Y022475D01*
X009692Y022322D02*
X009692Y022629D01*
X009615Y022782D02*
X009692Y022859D01*
X009692Y023012D01*
X009615Y023089D01*
X009538Y023089D01*
X009462Y023012D01*
X009462Y022936D01*
X009462Y023012D02*
X009385Y023089D01*
X009308Y023089D01*
X009231Y023012D01*
X009231Y022859D01*
X009308Y022782D01*
X009231Y021861D02*
X009615Y021861D01*
X009692Y021938D01*
X011082Y028761D02*
X011382Y028761D01*
X011442Y028822D01*
X011442Y028942D01*
X011382Y029002D01*
X011082Y029002D01*
X011262Y029130D02*
X011262Y029310D01*
X011322Y029370D01*
X011382Y029370D01*
X011442Y029310D01*
X011442Y029190D01*
X011382Y029130D01*
X011262Y029130D01*
X011142Y029250D01*
X011082Y029370D01*
X012032Y029372D02*
X012032Y029311D01*
X012032Y029372D02*
X012272Y029612D01*
X012272Y029672D01*
X012032Y029672D01*
X012400Y029492D02*
X012640Y029492D01*
X012768Y029492D02*
X013009Y029492D01*
X013137Y029612D02*
X013137Y029372D01*
X013197Y029311D01*
X013317Y029311D01*
X013377Y029372D01*
X013505Y029492D02*
X013745Y029492D01*
X013873Y029612D02*
X013933Y029672D01*
X014053Y029672D01*
X014114Y029612D01*
X013873Y029372D01*
X013933Y029311D01*
X014053Y029311D01*
X014114Y029372D01*
X014114Y029612D01*
X014242Y029672D02*
X014242Y029492D01*
X014362Y029552D01*
X014422Y029552D01*
X014482Y029492D01*
X014482Y029372D01*
X014422Y029311D01*
X014302Y029311D01*
X014242Y029372D01*
X014242Y029672D02*
X014482Y029672D01*
X014610Y029552D02*
X014730Y029672D01*
X014730Y029311D01*
X014610Y029311D02*
X014850Y029311D01*
X014978Y029311D02*
X015158Y029311D01*
X015218Y029372D01*
X015218Y029612D01*
X015158Y029672D01*
X014978Y029672D01*
X014978Y029311D01*
X013873Y029372D02*
X013873Y029612D01*
X013685Y029672D02*
X013505Y029492D01*
X013377Y029612D02*
X013317Y029672D01*
X013197Y029672D01*
X013137Y029612D01*
X013009Y029672D02*
X013009Y029311D01*
X012768Y029311D02*
X012768Y029672D01*
X012580Y029672D02*
X012400Y029492D01*
X012580Y029672D02*
X012580Y029311D01*
X013685Y029311D02*
X013685Y029672D01*
X016082Y029678D02*
X016082Y029558D01*
X016142Y029498D01*
X016382Y029498D01*
X016142Y029738D01*
X016382Y029738D01*
X016442Y029678D01*
X016442Y029558D01*
X016382Y029498D01*
X016442Y029370D02*
X016442Y029130D01*
X016442Y029250D02*
X016082Y029250D01*
X016202Y029130D01*
X016082Y029002D02*
X016382Y029002D01*
X016442Y028942D01*
X016442Y028822D01*
X016382Y028761D01*
X016082Y028761D01*
X016082Y029678D02*
X016142Y029738D01*
X017032Y029672D02*
X017272Y029672D01*
X017272Y029612D01*
X017032Y029372D01*
X017032Y029311D01*
X017400Y029492D02*
X017640Y029492D01*
X017768Y029492D02*
X018009Y029492D01*
X018137Y029612D02*
X018137Y029372D01*
X018197Y029311D01*
X018317Y029311D01*
X018377Y029372D01*
X018505Y029492D02*
X018745Y029492D01*
X018873Y029612D02*
X018933Y029672D01*
X019053Y029672D01*
X019114Y029612D01*
X018873Y029372D01*
X018933Y029311D01*
X019053Y029311D01*
X019114Y029372D01*
X019114Y029612D01*
X019242Y029672D02*
X019242Y029492D01*
X019362Y029552D01*
X019422Y029552D01*
X019482Y029492D01*
X019482Y029372D01*
X019422Y029311D01*
X019302Y029311D01*
X019242Y029372D01*
X019242Y029672D02*
X019482Y029672D01*
X019610Y029552D02*
X019730Y029672D01*
X019730Y029311D01*
X019610Y029311D02*
X019850Y029311D01*
X019978Y029311D02*
X019978Y029672D01*
X020158Y029672D01*
X020218Y029612D01*
X020218Y029372D01*
X020158Y029311D01*
X019978Y029311D01*
X018873Y029372D02*
X018873Y029612D01*
X018685Y029672D02*
X018685Y029311D01*
X018505Y029492D02*
X018685Y029672D01*
X018377Y029612D02*
X018317Y029672D01*
X018197Y029672D01*
X018137Y029612D01*
X018009Y029672D02*
X018009Y029311D01*
X017768Y029311D02*
X017768Y029672D01*
X017580Y029672D02*
X017400Y029492D01*
X017580Y029672D02*
X017580Y029311D01*
X026207Y029420D02*
X026207Y029180D01*
X026387Y029180D01*
X026327Y029300D01*
X026327Y029360D01*
X026387Y029420D01*
X026507Y029420D01*
X026567Y029360D01*
X026567Y029240D01*
X026507Y029180D01*
X026507Y029052D02*
X026207Y029052D01*
X026207Y028811D02*
X026507Y028811D01*
X026567Y028872D01*
X026567Y028992D01*
X026507Y029052D01*
X026792Y029336D02*
X026732Y029397D01*
X026732Y029637D01*
X026792Y029697D01*
X026912Y029697D01*
X026972Y029637D01*
X026972Y029397D01*
X026912Y029336D01*
X026792Y029336D01*
X027100Y029336D02*
X027100Y029697D01*
X027280Y029697D01*
X027340Y029637D01*
X027340Y029517D01*
X027280Y029457D01*
X027100Y029457D01*
X027468Y029517D02*
X027709Y029517D01*
X027709Y029577D02*
X027709Y029336D01*
X027837Y029336D02*
X028077Y029577D01*
X028077Y029637D01*
X028017Y029697D01*
X027897Y029697D01*
X027837Y029637D01*
X027709Y029577D02*
X027589Y029697D01*
X027468Y029577D01*
X027468Y029336D01*
X027837Y029336D02*
X028077Y029336D01*
X028205Y029397D02*
X028265Y029336D01*
X028385Y029336D01*
X028445Y029397D01*
X028445Y029457D01*
X028385Y029517D01*
X028325Y029517D01*
X028385Y029517D02*
X028445Y029577D01*
X028445Y029637D01*
X028385Y029697D01*
X028265Y029697D01*
X028205Y029637D01*
X028573Y029517D02*
X028753Y029697D01*
X028753Y029336D01*
X028814Y029517D02*
X028573Y029517D01*
X028942Y029637D02*
X029002Y029697D01*
X029122Y029697D01*
X029182Y029637D01*
X028942Y029397D01*
X029002Y029336D01*
X029122Y029336D01*
X029182Y029397D01*
X029182Y029637D01*
X029310Y029697D02*
X029310Y029397D01*
X029370Y029336D01*
X029490Y029336D01*
X029550Y029397D01*
X029550Y029697D01*
X028942Y029637D02*
X028942Y029397D01*
X036331Y029418D02*
X036792Y029111D01*
X036792Y029418D02*
X036331Y029111D01*
X036408Y029572D02*
X036485Y029572D01*
X036562Y029649D01*
X036562Y029802D01*
X036638Y029879D01*
X036715Y029879D01*
X036792Y029802D01*
X036792Y029649D01*
X036715Y029572D01*
X036408Y029572D02*
X036331Y029649D01*
X036331Y029802D01*
X036408Y029879D01*
X036408Y030032D02*
X036715Y030032D01*
X036792Y030109D01*
X036792Y030262D01*
X036715Y030339D01*
X036562Y030339D01*
X036562Y030186D01*
X036408Y030339D02*
X036331Y030262D01*
X036331Y030109D01*
X036408Y030032D01*
X036408Y030493D02*
X036331Y030569D01*
X036331Y030723D01*
X036408Y030799D01*
X036485Y030799D01*
X036792Y030493D01*
X036792Y030799D01*
X036792Y025799D02*
X036792Y025493D01*
X036792Y025646D02*
X036331Y025646D01*
X036485Y025493D01*
X036562Y025339D02*
X036562Y025186D01*
X036562Y025339D02*
X036715Y025339D01*
X036792Y025262D01*
X036792Y025109D01*
X036715Y025032D01*
X036408Y025032D01*
X036331Y025109D01*
X036331Y025262D01*
X036408Y025339D01*
X036408Y024879D02*
X036331Y024802D01*
X036331Y024649D01*
X036408Y024572D01*
X036485Y024572D01*
X036562Y024649D01*
X036562Y024802D01*
X036638Y024879D01*
X036715Y024879D01*
X036792Y024802D01*
X036792Y024649D01*
X036715Y024572D01*
X036792Y024418D02*
X036331Y024111D01*
X036331Y024418D02*
X036792Y024111D01*
X008992Y011570D02*
X008531Y011570D01*
X008685Y011417D01*
X008531Y011263D01*
X008992Y011263D01*
X008915Y011110D02*
X008608Y011110D01*
X008531Y011033D01*
X008531Y010880D01*
X008608Y010803D01*
X008685Y010803D01*
X008762Y010880D01*
X008762Y011110D01*
X008915Y011110D02*
X008992Y011033D01*
X008992Y010880D01*
X008915Y010803D01*
X008992Y010649D02*
X008992Y010343D01*
X008685Y010649D01*
X008608Y010649D01*
X008531Y010573D01*
X008531Y010419D01*
X008608Y010343D01*
X008531Y010189D02*
X008608Y010036D01*
X008762Y009882D01*
X008762Y010112D01*
X008838Y010189D01*
X008915Y010189D01*
X008992Y010112D01*
X008992Y009959D01*
X008915Y009882D01*
X008762Y009882D01*
X008992Y009729D02*
X008531Y009729D01*
X008685Y009575D01*
X008531Y009422D01*
X008992Y009422D01*
X008992Y009268D02*
X008992Y008961D01*
X008531Y008961D01*
X007492Y009038D02*
X007492Y009192D01*
X007415Y009268D01*
X007031Y009268D01*
X007108Y009422D02*
X007185Y009422D01*
X007262Y009499D01*
X007262Y009652D01*
X007338Y009729D01*
X007415Y009729D01*
X007492Y009652D01*
X007492Y009499D01*
X007415Y009422D01*
X007338Y009422D01*
X007262Y009499D01*
X007262Y009652D02*
X007185Y009729D01*
X007108Y009729D01*
X007031Y009652D01*
X007031Y009499D01*
X007108Y009422D01*
X007031Y008961D02*
X007415Y008961D01*
X007492Y009038D01*
X008531Y004570D02*
X008992Y004570D01*
X008992Y004263D02*
X008531Y004263D01*
X008685Y004417D01*
X008531Y004570D01*
X008608Y004110D02*
X008531Y004033D01*
X008531Y003880D01*
X008608Y003803D01*
X008685Y003803D01*
X008762Y003880D01*
X008762Y004110D01*
X008915Y004110D02*
X008608Y004110D01*
X008915Y004110D02*
X008992Y004033D01*
X008992Y003880D01*
X008915Y003803D01*
X008992Y003649D02*
X008992Y003343D01*
X008685Y003649D01*
X008608Y003649D01*
X008531Y003573D01*
X008531Y003419D01*
X008608Y003343D01*
X008531Y003189D02*
X008608Y003036D01*
X008762Y002882D01*
X008762Y003112D01*
X008838Y003189D01*
X008915Y003189D01*
X008992Y003112D01*
X008992Y002959D01*
X008915Y002882D01*
X008762Y002882D01*
X008992Y002729D02*
X008531Y002729D01*
X008685Y002575D01*
X008531Y002422D01*
X008992Y002422D01*
X008992Y002268D02*
X008992Y001961D01*
X008531Y001961D01*
X007492Y002038D02*
X007492Y002192D01*
X007415Y002268D01*
X007031Y002268D01*
X007031Y002422D02*
X007031Y002729D01*
X007108Y002729D01*
X007415Y002422D01*
X007492Y002422D01*
X007492Y002038D02*
X007415Y001961D01*
X007031Y001961D01*
D14*
X005495Y005586D02*
X005394Y005586D01*
X005445Y005586D02*
X005445Y005737D01*
X005394Y005687D01*
X005347Y005712D02*
X005347Y005611D01*
X005322Y005586D01*
X005247Y005586D01*
X005247Y005737D01*
X005322Y005737D01*
X005347Y005712D01*
X005200Y005712D02*
X005175Y005737D01*
X005125Y005737D01*
X005100Y005712D01*
X005100Y005611D01*
X005125Y005586D01*
X005175Y005586D01*
X005200Y005611D01*
X005272Y006161D02*
X005247Y006186D01*
X005247Y006237D01*
X005322Y006237D01*
X005347Y006212D01*
X005347Y006186D01*
X005322Y006161D01*
X005272Y006161D01*
X005247Y006237D02*
X005297Y006287D01*
X005347Y006312D01*
X005394Y006262D02*
X005445Y006161D01*
X005495Y006262D01*
X005053Y006312D02*
X004953Y006312D01*
X004953Y006161D01*
X004905Y006161D02*
X004905Y006262D01*
X004953Y006237D02*
X005003Y006237D01*
X004905Y006161D02*
X004830Y006161D01*
X004805Y006186D01*
X004805Y006262D01*
X004708Y006312D02*
X004708Y006161D01*
X004658Y006161D02*
X004758Y006161D01*
X004658Y006262D02*
X004708Y006312D01*
X005125Y012586D02*
X005175Y012586D01*
X005200Y012611D01*
X005247Y012586D02*
X005322Y012586D01*
X005347Y012611D01*
X005347Y012712D01*
X005322Y012737D01*
X005247Y012737D01*
X005247Y012586D01*
X005125Y012586D02*
X005100Y012611D01*
X005100Y012712D01*
X005125Y012737D01*
X005175Y012737D01*
X005200Y012712D01*
X005394Y012712D02*
X005419Y012737D01*
X005470Y012737D01*
X005495Y012712D01*
X005495Y012687D01*
X005470Y012662D01*
X005495Y012637D01*
X005495Y012611D01*
X005470Y012586D01*
X005419Y012586D01*
X005394Y012611D01*
X005445Y012662D02*
X005470Y012662D01*
X005445Y013161D02*
X005495Y013262D01*
X005394Y013262D02*
X005445Y013161D01*
X005347Y013186D02*
X005347Y013212D01*
X005322Y013237D01*
X005247Y013237D01*
X005247Y013186D01*
X005272Y013161D01*
X005322Y013161D01*
X005347Y013186D01*
X005297Y013287D02*
X005247Y013237D01*
X005297Y013287D02*
X005347Y013312D01*
X005053Y013312D02*
X004953Y013312D01*
X004953Y013161D01*
X004905Y013161D02*
X004905Y013262D01*
X004953Y013237D02*
X005003Y013237D01*
X004905Y013161D02*
X004830Y013161D01*
X004805Y013186D01*
X004805Y013262D01*
X004708Y013312D02*
X004708Y013161D01*
X004658Y013161D02*
X004758Y013161D01*
X004658Y013262D02*
X004708Y013312D01*
X011442Y009072D02*
X011442Y008971D01*
X011467Y008946D01*
X011517Y008946D01*
X011542Y008971D01*
X011589Y008946D02*
X011664Y008946D01*
X011689Y008971D01*
X011689Y009072D01*
X011664Y009097D01*
X011589Y009097D01*
X011589Y008946D01*
X011542Y009072D02*
X011517Y009097D01*
X011467Y009097D01*
X011442Y009072D01*
X011736Y009022D02*
X011837Y009022D01*
X011811Y009097D02*
X011736Y009022D01*
X011811Y008946D02*
X011811Y009097D01*
X011837Y008522D02*
X011736Y008522D01*
X011736Y008371D01*
X011689Y008371D02*
X011689Y008472D01*
X011736Y008447D02*
X011786Y008447D01*
X011689Y008371D02*
X011614Y008371D01*
X011589Y008396D01*
X011589Y008472D01*
X011492Y008522D02*
X011492Y008371D01*
X011442Y008371D02*
X011542Y008371D01*
X011442Y008472D02*
X011492Y008522D01*
X012031Y008447D02*
X012106Y008447D01*
X012131Y008422D01*
X012131Y008396D01*
X012106Y008371D01*
X012056Y008371D01*
X012031Y008396D01*
X012031Y008447D01*
X012081Y008497D01*
X012131Y008522D01*
X012178Y008472D02*
X012228Y008371D01*
X012279Y008472D01*
X012388Y007465D02*
X012388Y007415D01*
X012387Y007416D02*
X012366Y007413D01*
X012347Y007407D01*
X012328Y007398D01*
X012311Y007386D01*
X012297Y007372D01*
X012285Y007355D01*
X012276Y007336D01*
X012270Y007317D01*
X012267Y007296D01*
X012218Y007295D01*
X012217Y007296D01*
X012220Y007322D01*
X012227Y007348D01*
X012237Y007372D01*
X012251Y007395D01*
X012268Y007415D01*
X012288Y007432D01*
X012311Y007446D01*
X012335Y007456D01*
X012361Y007463D01*
X012387Y007466D01*
X012387Y007457D01*
X012362Y007454D01*
X012338Y007448D01*
X012315Y007438D01*
X012294Y007425D01*
X012275Y007408D01*
X012258Y007389D01*
X012245Y007368D01*
X012235Y007345D01*
X012229Y007321D01*
X012226Y007296D01*
X012235Y007296D01*
X012238Y007320D01*
X012244Y007342D01*
X012253Y007364D01*
X012266Y007384D01*
X012281Y007402D01*
X012299Y007417D01*
X012319Y007430D01*
X012341Y007439D01*
X012363Y007445D01*
X012387Y007448D01*
X012387Y007439D01*
X012365Y007436D01*
X012343Y007431D01*
X012323Y007422D01*
X012304Y007410D01*
X012287Y007396D01*
X012273Y007379D01*
X012261Y007360D01*
X012252Y007340D01*
X012247Y007318D01*
X012244Y007296D01*
X012253Y007296D01*
X012256Y007319D01*
X012262Y007341D01*
X012272Y007362D01*
X012286Y007381D01*
X012302Y007397D01*
X012321Y007411D01*
X012342Y007421D01*
X012364Y007427D01*
X012387Y007430D01*
X012387Y007421D01*
X012366Y007418D01*
X012345Y007412D01*
X012326Y007403D01*
X012308Y007390D01*
X012293Y007375D01*
X012280Y007357D01*
X012271Y007338D01*
X012265Y007317D01*
X012262Y007296D01*
X013806Y007295D02*
X013756Y007295D01*
X013757Y007296D02*
X013754Y007317D01*
X013748Y007336D01*
X013739Y007355D01*
X013727Y007372D01*
X013713Y007386D01*
X013696Y007398D01*
X013677Y007407D01*
X013658Y007413D01*
X013637Y007416D01*
X013636Y007465D01*
X013637Y007466D01*
X013663Y007463D01*
X013689Y007456D01*
X013713Y007446D01*
X013736Y007432D01*
X013756Y007415D01*
X013773Y007395D01*
X013787Y007372D01*
X013797Y007348D01*
X013804Y007322D01*
X013807Y007296D01*
X013798Y007296D01*
X013795Y007321D01*
X013789Y007345D01*
X013779Y007368D01*
X013766Y007389D01*
X013749Y007408D01*
X013730Y007425D01*
X013709Y007438D01*
X013686Y007448D01*
X013662Y007454D01*
X013637Y007457D01*
X013637Y007448D01*
X013661Y007445D01*
X013683Y007439D01*
X013705Y007430D01*
X013725Y007417D01*
X013743Y007402D01*
X013758Y007384D01*
X013771Y007364D01*
X013780Y007342D01*
X013786Y007320D01*
X013789Y007296D01*
X013780Y007296D01*
X013777Y007318D01*
X013772Y007340D01*
X013763Y007360D01*
X013751Y007379D01*
X013737Y007396D01*
X013720Y007410D01*
X013701Y007422D01*
X013681Y007431D01*
X013659Y007436D01*
X013637Y007439D01*
X013637Y007430D01*
X013660Y007427D01*
X013682Y007421D01*
X013703Y007411D01*
X013722Y007397D01*
X013738Y007381D01*
X013752Y007362D01*
X013762Y007341D01*
X013768Y007319D01*
X013771Y007296D01*
X013762Y007296D01*
X013759Y007317D01*
X013753Y007338D01*
X013744Y007357D01*
X013731Y007375D01*
X013716Y007390D01*
X013698Y007403D01*
X013679Y007412D01*
X013658Y007418D01*
X013637Y007421D01*
X016242Y009321D02*
X016342Y009321D01*
X016292Y009321D02*
X016292Y009472D01*
X016242Y009422D01*
X016389Y009422D02*
X016389Y009346D01*
X016414Y009321D01*
X016489Y009321D01*
X016489Y009422D01*
X016536Y009397D02*
X016586Y009397D01*
X016536Y009472D02*
X016637Y009472D01*
X016536Y009472D02*
X016536Y009321D01*
X016831Y009346D02*
X016856Y009321D01*
X016906Y009321D01*
X016931Y009346D01*
X016931Y009372D01*
X016906Y009397D01*
X016831Y009397D01*
X016831Y009346D01*
X016831Y009397D02*
X016881Y009447D01*
X016931Y009472D01*
X016978Y009422D02*
X017028Y009321D01*
X017079Y009422D01*
X016759Y009896D02*
X016759Y010047D01*
X016684Y009972D01*
X016784Y009972D01*
X016637Y009896D02*
X016536Y009896D01*
X016586Y009896D02*
X016586Y010047D01*
X016536Y009997D01*
X016489Y010022D02*
X016464Y010047D01*
X016389Y010047D01*
X016389Y009896D01*
X016464Y009896D01*
X016489Y009921D01*
X016489Y010022D01*
X016342Y010022D02*
X016317Y010047D01*
X016267Y010047D01*
X016242Y010022D01*
X016242Y009921D01*
X016267Y009896D01*
X016317Y009896D01*
X016342Y009921D01*
X016718Y010587D02*
X016768Y010587D01*
X016767Y010586D02*
X016770Y010565D01*
X016776Y010546D01*
X016785Y010527D01*
X016797Y010510D01*
X016811Y010496D01*
X016828Y010484D01*
X016847Y010475D01*
X016866Y010469D01*
X016887Y010466D01*
X016888Y010417D01*
X016887Y010416D01*
X016861Y010419D01*
X016835Y010426D01*
X016811Y010436D01*
X016788Y010450D01*
X016768Y010467D01*
X016751Y010487D01*
X016737Y010510D01*
X016727Y010534D01*
X016720Y010560D01*
X016717Y010586D01*
X016726Y010586D01*
X016729Y010561D01*
X016735Y010537D01*
X016745Y010514D01*
X016758Y010493D01*
X016775Y010474D01*
X016794Y010457D01*
X016815Y010444D01*
X016838Y010434D01*
X016862Y010428D01*
X016887Y010425D01*
X016887Y010434D01*
X016863Y010437D01*
X016841Y010443D01*
X016819Y010452D01*
X016799Y010465D01*
X016781Y010480D01*
X016766Y010498D01*
X016753Y010518D01*
X016744Y010540D01*
X016738Y010562D01*
X016735Y010586D01*
X016744Y010586D01*
X016747Y010564D01*
X016752Y010542D01*
X016761Y010522D01*
X016773Y010503D01*
X016787Y010486D01*
X016804Y010472D01*
X016823Y010460D01*
X016843Y010451D01*
X016865Y010446D01*
X016887Y010443D01*
X016887Y010452D01*
X016864Y010455D01*
X016842Y010461D01*
X016821Y010471D01*
X016802Y010485D01*
X016786Y010501D01*
X016772Y010520D01*
X016762Y010541D01*
X016756Y010563D01*
X016753Y010586D01*
X016762Y010586D01*
X016765Y010565D01*
X016771Y010544D01*
X016780Y010525D01*
X016793Y010507D01*
X016808Y010492D01*
X016826Y010479D01*
X016845Y010470D01*
X016866Y010464D01*
X016887Y010461D01*
X018136Y010417D02*
X018136Y010467D01*
X018137Y010466D02*
X018158Y010469D01*
X018177Y010475D01*
X018196Y010484D01*
X018213Y010496D01*
X018227Y010510D01*
X018239Y010527D01*
X018248Y010546D01*
X018254Y010565D01*
X018257Y010586D01*
X018306Y010587D01*
X018307Y010586D01*
X018304Y010560D01*
X018297Y010534D01*
X018287Y010510D01*
X018273Y010487D01*
X018256Y010467D01*
X018236Y010450D01*
X018213Y010436D01*
X018189Y010426D01*
X018163Y010419D01*
X018137Y010416D01*
X018137Y010425D01*
X018162Y010428D01*
X018186Y010434D01*
X018209Y010444D01*
X018230Y010457D01*
X018249Y010474D01*
X018266Y010493D01*
X018279Y010514D01*
X018289Y010537D01*
X018295Y010561D01*
X018298Y010586D01*
X018289Y010586D01*
X018286Y010562D01*
X018280Y010540D01*
X018271Y010518D01*
X018258Y010498D01*
X018243Y010480D01*
X018225Y010465D01*
X018205Y010452D01*
X018183Y010443D01*
X018161Y010437D01*
X018137Y010434D01*
X018137Y010443D01*
X018159Y010446D01*
X018181Y010451D01*
X018201Y010460D01*
X018220Y010472D01*
X018237Y010486D01*
X018251Y010503D01*
X018263Y010522D01*
X018272Y010542D01*
X018277Y010564D01*
X018280Y010586D01*
X018271Y010586D01*
X018268Y010563D01*
X018262Y010541D01*
X018252Y010520D01*
X018238Y010501D01*
X018222Y010485D01*
X018203Y010471D01*
X018182Y010461D01*
X018160Y010455D01*
X018137Y010452D01*
X018137Y010461D01*
X018158Y010464D01*
X018179Y010470D01*
X018198Y010479D01*
X018216Y010492D01*
X018231Y010507D01*
X018244Y010525D01*
X018253Y010544D01*
X018259Y010565D01*
X018262Y010586D01*
X019757Y010591D02*
X019782Y010566D01*
X019757Y010591D02*
X019757Y010641D01*
X019782Y010666D01*
X019807Y010666D01*
X019907Y010566D01*
X019907Y010666D01*
X019907Y010519D02*
X019907Y010419D01*
X019807Y010519D01*
X019782Y010519D01*
X019757Y010494D01*
X019757Y010444D01*
X019782Y010419D01*
X019782Y010372D02*
X019757Y010347D01*
X019757Y010296D01*
X019782Y010271D01*
X019882Y010271D01*
X019907Y010296D01*
X019907Y010347D01*
X019882Y010372D01*
X020332Y010322D02*
X020482Y010322D01*
X020482Y010372D02*
X020482Y010271D01*
X020382Y010271D02*
X020332Y010322D01*
X020357Y010419D02*
X020332Y010444D01*
X020332Y010494D01*
X020357Y010519D01*
X020457Y010419D01*
X020482Y010444D01*
X020482Y010494D01*
X020457Y010519D01*
X020357Y010519D01*
X020382Y010566D02*
X020382Y010641D01*
X020407Y010666D01*
X020482Y010666D01*
X020482Y010713D02*
X020332Y010713D01*
X020332Y010814D01*
X020407Y010764D02*
X020407Y010713D01*
X020382Y010566D02*
X020482Y010566D01*
X020457Y010419D02*
X020357Y010419D01*
X020382Y010158D02*
X020482Y010108D01*
X020382Y010058D01*
X020432Y010011D02*
X020407Y009986D01*
X020407Y009911D01*
X020457Y009911D01*
X020482Y009936D01*
X020482Y009986D01*
X020457Y010011D01*
X020432Y010011D01*
X020357Y009961D02*
X020407Y009911D01*
X020357Y009961D02*
X020332Y010011D01*
X020332Y009716D02*
X020332Y009616D01*
X020482Y009616D01*
X020482Y009569D02*
X020382Y009569D01*
X020407Y009616D02*
X020407Y009666D01*
X020482Y009569D02*
X020482Y009494D01*
X020457Y009469D01*
X020382Y009469D01*
X020332Y009372D02*
X020482Y009372D01*
X020482Y009422D02*
X020482Y009321D01*
X020382Y009321D02*
X020332Y009372D01*
X019907Y009397D02*
X019882Y009422D01*
X019907Y009397D02*
X019907Y009346D01*
X019882Y009321D01*
X019782Y009321D01*
X019757Y009346D01*
X019757Y009397D01*
X019782Y009422D01*
X019757Y009469D02*
X019757Y009544D01*
X019782Y009569D01*
X019882Y009569D01*
X019907Y009544D01*
X019907Y009469D01*
X019757Y009469D01*
X019832Y009616D02*
X019832Y009691D01*
X019857Y009716D01*
X019882Y009716D01*
X019907Y009691D01*
X019907Y009641D01*
X019882Y009616D01*
X019832Y009616D01*
X019782Y009666D01*
X019757Y009716D01*
X021992Y011771D02*
X022092Y011872D01*
X022092Y011897D01*
X022067Y011922D01*
X022017Y011922D01*
X021992Y011897D01*
X021992Y011771D02*
X022092Y011771D01*
X022139Y011771D02*
X022239Y011872D01*
X022239Y011897D01*
X022214Y011922D01*
X022164Y011922D01*
X022139Y011897D01*
X022139Y011771D02*
X022239Y011771D01*
X022286Y011771D02*
X022286Y011872D01*
X022361Y011872D01*
X022387Y011847D01*
X022387Y011771D01*
X022434Y011771D02*
X022434Y011922D01*
X022534Y011922D01*
X022484Y011847D02*
X022434Y011847D01*
X022214Y012346D02*
X022164Y012346D01*
X022139Y012371D01*
X022139Y012397D01*
X022164Y012422D01*
X022214Y012422D01*
X022239Y012397D01*
X022239Y012371D01*
X022214Y012346D01*
X022214Y012422D02*
X022239Y012447D01*
X022239Y012472D01*
X022214Y012497D01*
X022164Y012497D01*
X022139Y012472D01*
X022139Y012447D01*
X022164Y012422D01*
X022092Y012472D02*
X022067Y012497D01*
X022017Y012497D01*
X021992Y012472D01*
X021992Y012371D01*
X022017Y012346D01*
X022067Y012346D01*
X022092Y012371D01*
X023942Y011572D02*
X023942Y011471D01*
X023967Y011446D01*
X024017Y011446D01*
X024042Y011471D01*
X024089Y011471D02*
X024114Y011446D01*
X024164Y011446D01*
X024189Y011471D01*
X024189Y011572D01*
X024164Y011597D01*
X024114Y011597D01*
X024089Y011572D01*
X024089Y011547D01*
X024114Y011522D01*
X024189Y011522D01*
X024042Y011572D02*
X024017Y011597D01*
X023967Y011597D01*
X023942Y011572D01*
X023967Y011022D02*
X023942Y010997D01*
X023967Y011022D02*
X024017Y011022D01*
X024042Y010997D01*
X024042Y010972D01*
X023942Y010871D01*
X024042Y010871D01*
X024089Y010871D02*
X024189Y010972D01*
X024189Y010997D01*
X024164Y011022D01*
X024114Y011022D01*
X024089Y010997D01*
X024089Y010871D02*
X024189Y010871D01*
X024217Y010847D02*
X024192Y010822D01*
X024192Y010721D01*
X024217Y010696D01*
X024267Y010696D01*
X024292Y010721D01*
X024339Y010696D02*
X024439Y010696D01*
X024389Y010696D02*
X024389Y010847D01*
X024339Y010797D01*
X024292Y010822D02*
X024267Y010847D01*
X024217Y010847D01*
X024236Y010871D02*
X024236Y010972D01*
X024311Y010972D01*
X024337Y010947D01*
X024337Y010871D01*
X024384Y010871D02*
X024384Y011022D01*
X024484Y011022D01*
X024434Y010947D02*
X024384Y010947D01*
X024486Y010847D02*
X024486Y010772D01*
X024536Y010797D01*
X024561Y010797D01*
X024587Y010772D01*
X024587Y010721D01*
X024561Y010696D01*
X024511Y010696D01*
X024486Y010721D01*
X024486Y010847D02*
X024587Y010847D01*
X024634Y010272D02*
X024734Y010272D01*
X024684Y010197D02*
X024634Y010197D01*
X024587Y010197D02*
X024587Y010121D01*
X024587Y010097D02*
X024486Y010097D01*
X024486Y010022D01*
X024536Y010047D01*
X024561Y010047D01*
X024587Y010022D01*
X024587Y009971D01*
X024561Y009946D01*
X024511Y009946D01*
X024486Y009971D01*
X024439Y009971D02*
X024439Y010072D01*
X024414Y010097D01*
X024339Y010097D01*
X024339Y009946D01*
X024414Y009946D01*
X024439Y009971D01*
X024292Y009971D02*
X024267Y009946D01*
X024217Y009946D01*
X024192Y009971D01*
X024192Y010072D01*
X024217Y010097D01*
X024267Y010097D01*
X024292Y010072D01*
X024267Y010121D02*
X024267Y010272D01*
X024192Y010197D01*
X024292Y010197D01*
X024339Y010146D02*
X024339Y010121D01*
X024339Y010146D02*
X024439Y010247D01*
X024439Y010272D01*
X024339Y010272D01*
X024486Y010222D02*
X024561Y010222D01*
X024587Y010197D01*
X024634Y010272D02*
X024634Y010121D01*
X024486Y010121D02*
X024486Y010222D01*
X024486Y009522D02*
X024587Y009522D01*
X024536Y009447D02*
X024486Y009447D01*
X024439Y009472D02*
X024439Y009371D01*
X024364Y009371D01*
X024339Y009396D01*
X024339Y009472D01*
X024242Y009522D02*
X024242Y009371D01*
X024192Y009371D02*
X024292Y009371D01*
X024192Y009472D02*
X024242Y009522D01*
X024486Y009522D02*
X024486Y009371D01*
X024781Y009396D02*
X024806Y009371D01*
X024856Y009371D01*
X024881Y009396D01*
X024881Y009422D01*
X024856Y009447D01*
X024781Y009447D01*
X024781Y009396D01*
X024781Y009447D02*
X024831Y009497D01*
X024881Y009522D01*
X024928Y009472D02*
X024978Y009371D01*
X025029Y009472D01*
X024534Y006547D02*
X024534Y006396D01*
X024484Y006396D02*
X024584Y006396D01*
X024484Y006497D02*
X024534Y006547D01*
X024386Y006547D02*
X024386Y006396D01*
X024336Y006396D02*
X024437Y006396D01*
X024336Y006497D02*
X024386Y006547D01*
X024289Y006522D02*
X024289Y006421D01*
X024264Y006396D01*
X024189Y006396D01*
X024189Y006547D01*
X024264Y006547D01*
X024289Y006522D01*
X024142Y006522D02*
X024117Y006547D01*
X024067Y006547D01*
X024042Y006522D01*
X024042Y006421D01*
X024067Y006396D01*
X024117Y006396D01*
X024142Y006421D01*
X024092Y005972D02*
X024092Y005821D01*
X024042Y005821D02*
X024142Y005821D01*
X024189Y005846D02*
X024214Y005821D01*
X024289Y005821D01*
X024289Y005922D01*
X024336Y005897D02*
X024386Y005897D01*
X024336Y005972D02*
X024437Y005972D01*
X024336Y005972D02*
X024336Y005821D01*
X024189Y005846D02*
X024189Y005922D01*
X024092Y005972D02*
X024042Y005922D01*
X024631Y005897D02*
X024706Y005897D01*
X024731Y005872D01*
X024731Y005846D01*
X024706Y005821D01*
X024656Y005821D01*
X024631Y005846D01*
X024631Y005897D01*
X024681Y005947D01*
X024731Y005972D01*
X024778Y005922D02*
X024828Y005821D01*
X024879Y005922D01*
X030542Y005922D02*
X030592Y005972D01*
X030592Y005821D01*
X030542Y005821D02*
X030642Y005821D01*
X030689Y005846D02*
X030714Y005821D01*
X030789Y005821D01*
X030789Y005922D01*
X030836Y005897D02*
X030886Y005897D01*
X030836Y005972D02*
X030937Y005972D01*
X030836Y005972D02*
X030836Y005821D01*
X030689Y005846D02*
X030689Y005922D01*
X031131Y005897D02*
X031206Y005897D01*
X031231Y005872D01*
X031231Y005846D01*
X031206Y005821D01*
X031156Y005821D01*
X031131Y005846D01*
X031131Y005897D01*
X031181Y005947D01*
X031231Y005972D01*
X031278Y005922D02*
X031328Y005821D01*
X031379Y005922D01*
X030911Y006396D02*
X030937Y006421D01*
X030937Y006522D01*
X030911Y006547D01*
X030861Y006547D01*
X030836Y006522D01*
X030836Y006497D01*
X030861Y006472D01*
X030937Y006472D01*
X030911Y006396D02*
X030861Y006396D01*
X030836Y006421D01*
X030789Y006421D02*
X030789Y006522D01*
X030764Y006547D01*
X030689Y006547D01*
X030689Y006396D01*
X030764Y006396D01*
X030789Y006421D01*
X030642Y006421D02*
X030617Y006396D01*
X030567Y006396D01*
X030542Y006421D01*
X030542Y006522D01*
X030567Y006547D01*
X030617Y006547D01*
X030642Y006522D01*
X024132Y015871D02*
X024132Y015972D01*
X024132Y015922D02*
X023982Y015922D01*
X024032Y015871D01*
X024032Y016019D02*
X024007Y016019D01*
X023982Y016044D01*
X023982Y016094D01*
X024007Y016119D01*
X024032Y016119D01*
X024057Y016094D01*
X024057Y016044D01*
X024032Y016019D01*
X024057Y016044D02*
X024082Y016019D01*
X024107Y016019D01*
X024132Y016044D01*
X024132Y016094D01*
X024107Y016119D01*
X024082Y016119D01*
X024057Y016094D01*
X024032Y016166D02*
X024032Y016241D01*
X024057Y016266D01*
X024107Y016266D01*
X024132Y016241D01*
X024132Y016166D01*
X024182Y016166D02*
X024032Y016166D01*
X024057Y016313D02*
X024057Y016364D01*
X023982Y016313D02*
X023982Y016414D01*
X023982Y016313D02*
X024132Y016313D01*
X023557Y016266D02*
X023557Y016166D01*
X023457Y016266D01*
X023432Y016266D01*
X023407Y016241D01*
X023407Y016191D01*
X023432Y016166D01*
X023382Y016166D02*
X023232Y016166D01*
X023232Y016241D01*
X023257Y016266D01*
X023307Y016266D01*
X023332Y016241D01*
X023332Y016166D01*
X023307Y016119D02*
X023332Y016094D01*
X023332Y016044D01*
X023307Y016019D01*
X023282Y016019D01*
X023257Y016044D01*
X023257Y016094D01*
X023282Y016119D01*
X023307Y016119D01*
X023257Y016094D02*
X023232Y016119D01*
X023207Y016119D01*
X023182Y016094D01*
X023182Y016044D01*
X023207Y016019D01*
X023232Y016019D01*
X023257Y016044D01*
X023332Y015972D02*
X023332Y015871D01*
X023332Y015922D02*
X023182Y015922D01*
X023232Y015871D01*
X023407Y015896D02*
X023432Y015871D01*
X023532Y015871D01*
X023557Y015896D01*
X023557Y015947D01*
X023532Y015972D01*
X023557Y016019D02*
X023407Y016119D01*
X023407Y016019D02*
X023557Y016119D01*
X023432Y015972D02*
X023407Y015947D01*
X023407Y015896D01*
X023332Y016313D02*
X023182Y016313D01*
X023182Y016414D01*
X023257Y016364D02*
X023257Y016313D01*
X022757Y016266D02*
X022757Y016166D01*
X022757Y016119D02*
X022607Y016019D01*
X022632Y015972D02*
X022607Y015947D01*
X022607Y015896D01*
X022632Y015871D01*
X022732Y015871D01*
X022757Y015896D01*
X022757Y015947D01*
X022732Y015972D01*
X022757Y016019D02*
X022607Y016119D01*
X022657Y016166D02*
X022607Y016216D01*
X022757Y016216D01*
X021129Y016422D02*
X021078Y016321D01*
X021028Y016422D01*
X020981Y016472D02*
X020931Y016447D01*
X020881Y016397D01*
X020956Y016397D01*
X020981Y016372D01*
X020981Y016346D01*
X020956Y016321D01*
X020906Y016321D01*
X020881Y016346D01*
X020881Y016397D01*
X020687Y016472D02*
X020586Y016472D01*
X020586Y016321D01*
X020539Y016321D02*
X020539Y016422D01*
X020586Y016397D02*
X020636Y016397D01*
X020539Y016321D02*
X020464Y016321D01*
X020439Y016346D01*
X020439Y016422D01*
X020342Y016472D02*
X020342Y016321D01*
X020292Y016321D02*
X020392Y016321D01*
X020292Y016422D02*
X020342Y016472D01*
X020367Y016896D02*
X020392Y016921D01*
X020367Y016896D02*
X020317Y016896D01*
X020292Y016921D01*
X020292Y017022D01*
X020317Y017047D01*
X020367Y017047D01*
X020392Y017022D01*
X020439Y017047D02*
X020514Y017047D01*
X020539Y017022D01*
X020539Y016921D01*
X020514Y016896D01*
X020439Y016896D01*
X020439Y017047D01*
X020586Y017047D02*
X020687Y017047D01*
X020687Y017022D01*
X020586Y016921D01*
X020586Y016896D01*
X018306Y013795D02*
X018256Y013795D01*
X018257Y013796D02*
X018254Y013817D01*
X018248Y013836D01*
X018239Y013855D01*
X018227Y013872D01*
X018213Y013886D01*
X018196Y013898D01*
X018177Y013907D01*
X018158Y013913D01*
X018137Y013916D01*
X018136Y013965D01*
X018137Y013966D01*
X018163Y013963D01*
X018189Y013956D01*
X018213Y013946D01*
X018236Y013932D01*
X018256Y013915D01*
X018273Y013895D01*
X018287Y013872D01*
X018297Y013848D01*
X018304Y013822D01*
X018307Y013796D01*
X018298Y013796D01*
X018295Y013821D01*
X018289Y013845D01*
X018279Y013868D01*
X018266Y013889D01*
X018249Y013908D01*
X018230Y013925D01*
X018209Y013938D01*
X018186Y013948D01*
X018162Y013954D01*
X018137Y013957D01*
X018137Y013948D01*
X018161Y013945D01*
X018183Y013939D01*
X018205Y013930D01*
X018225Y013917D01*
X018243Y013902D01*
X018258Y013884D01*
X018271Y013864D01*
X018280Y013842D01*
X018286Y013820D01*
X018289Y013796D01*
X018280Y013796D01*
X018277Y013818D01*
X018272Y013840D01*
X018263Y013860D01*
X018251Y013879D01*
X018237Y013896D01*
X018220Y013910D01*
X018201Y013922D01*
X018181Y013931D01*
X018159Y013936D01*
X018137Y013939D01*
X018137Y013930D01*
X018160Y013927D01*
X018182Y013921D01*
X018203Y013911D01*
X018222Y013897D01*
X018238Y013881D01*
X018252Y013862D01*
X018262Y013841D01*
X018268Y013819D01*
X018271Y013796D01*
X018262Y013796D01*
X018259Y013817D01*
X018253Y013838D01*
X018244Y013857D01*
X018231Y013875D01*
X018216Y013890D01*
X018198Y013903D01*
X018179Y013912D01*
X018158Y013918D01*
X018137Y013921D01*
X016888Y013965D02*
X016888Y013915D01*
X016887Y013916D02*
X016866Y013913D01*
X016847Y013907D01*
X016828Y013898D01*
X016811Y013886D01*
X016797Y013872D01*
X016785Y013855D01*
X016776Y013836D01*
X016770Y013817D01*
X016767Y013796D01*
X016718Y013795D01*
X016717Y013796D01*
X016720Y013822D01*
X016727Y013848D01*
X016737Y013872D01*
X016751Y013895D01*
X016768Y013915D01*
X016788Y013932D01*
X016811Y013946D01*
X016835Y013956D01*
X016861Y013963D01*
X016887Y013966D01*
X016887Y013957D01*
X016862Y013954D01*
X016838Y013948D01*
X016815Y013938D01*
X016794Y013925D01*
X016775Y013908D01*
X016758Y013889D01*
X016745Y013868D01*
X016735Y013845D01*
X016729Y013821D01*
X016726Y013796D01*
X016735Y013796D01*
X016738Y013820D01*
X016744Y013842D01*
X016753Y013864D01*
X016766Y013884D01*
X016781Y013902D01*
X016799Y013917D01*
X016819Y013930D01*
X016841Y013939D01*
X016863Y013945D01*
X016887Y013948D01*
X016887Y013939D01*
X016865Y013936D01*
X016843Y013931D01*
X016823Y013922D01*
X016804Y013910D01*
X016787Y013896D01*
X016773Y013879D01*
X016761Y013860D01*
X016752Y013840D01*
X016747Y013818D01*
X016744Y013796D01*
X016753Y013796D01*
X016756Y013819D01*
X016762Y013841D01*
X016772Y013862D01*
X016786Y013881D01*
X016802Y013897D01*
X016821Y013911D01*
X016842Y013921D01*
X016864Y013927D01*
X016887Y013930D01*
X016887Y013921D01*
X016866Y013918D01*
X016845Y013912D01*
X016826Y013903D01*
X016808Y013890D01*
X016793Y013875D01*
X016780Y013857D01*
X016771Y013838D01*
X016765Y013817D01*
X016762Y013796D01*
X017517Y006547D02*
X017492Y006522D01*
X017492Y006421D01*
X017517Y006396D01*
X017567Y006396D01*
X017592Y006421D01*
X017639Y006396D02*
X017714Y006396D01*
X017739Y006421D01*
X017739Y006522D01*
X017714Y006547D01*
X017639Y006547D01*
X017639Y006396D01*
X017592Y006522D02*
X017567Y006547D01*
X017517Y006547D01*
X017786Y006497D02*
X017836Y006547D01*
X017836Y006396D01*
X017786Y006396D02*
X017887Y006396D01*
X017934Y006421D02*
X017959Y006396D01*
X018009Y006396D01*
X018034Y006421D01*
X018034Y006447D01*
X018009Y006472D01*
X017984Y006472D01*
X018009Y006472D02*
X018034Y006497D01*
X018034Y006522D01*
X018009Y006547D01*
X017959Y006547D01*
X017934Y006522D01*
X017887Y005972D02*
X017786Y005972D01*
X017786Y005821D01*
X017739Y005821D02*
X017739Y005922D01*
X017786Y005897D02*
X017836Y005897D01*
X017739Y005821D02*
X017664Y005821D01*
X017639Y005846D01*
X017639Y005922D01*
X017542Y005972D02*
X017542Y005821D01*
X017492Y005821D02*
X017592Y005821D01*
X017492Y005922D02*
X017542Y005972D01*
X018081Y005897D02*
X018156Y005897D01*
X018181Y005872D01*
X018181Y005846D01*
X018156Y005821D01*
X018106Y005821D01*
X018081Y005846D01*
X018081Y005897D01*
X018131Y005947D01*
X018181Y005972D01*
X018228Y005922D02*
X018278Y005821D01*
X018329Y005922D01*
X013636Y003917D02*
X013636Y003967D01*
X013637Y003966D02*
X013658Y003969D01*
X013677Y003975D01*
X013696Y003984D01*
X013713Y003996D01*
X013727Y004010D01*
X013739Y004027D01*
X013748Y004046D01*
X013754Y004065D01*
X013757Y004086D01*
X013806Y004087D01*
X013807Y004086D01*
X013804Y004060D01*
X013797Y004034D01*
X013787Y004010D01*
X013773Y003987D01*
X013756Y003967D01*
X013736Y003950D01*
X013713Y003936D01*
X013689Y003926D01*
X013663Y003919D01*
X013637Y003916D01*
X013637Y003925D01*
X013662Y003928D01*
X013686Y003934D01*
X013709Y003944D01*
X013730Y003957D01*
X013749Y003974D01*
X013766Y003993D01*
X013779Y004014D01*
X013789Y004037D01*
X013795Y004061D01*
X013798Y004086D01*
X013789Y004086D01*
X013786Y004062D01*
X013780Y004040D01*
X013771Y004018D01*
X013758Y003998D01*
X013743Y003980D01*
X013725Y003965D01*
X013705Y003952D01*
X013683Y003943D01*
X013661Y003937D01*
X013637Y003934D01*
X013637Y003943D01*
X013659Y003946D01*
X013681Y003951D01*
X013701Y003960D01*
X013720Y003972D01*
X013737Y003986D01*
X013751Y004003D01*
X013763Y004022D01*
X013772Y004042D01*
X013777Y004064D01*
X013780Y004086D01*
X013771Y004086D01*
X013768Y004063D01*
X013762Y004041D01*
X013752Y004020D01*
X013738Y004001D01*
X013722Y003985D01*
X013703Y003971D01*
X013682Y003961D01*
X013660Y003955D01*
X013637Y003952D01*
X013637Y003961D01*
X013658Y003964D01*
X013679Y003970D01*
X013698Y003979D01*
X013716Y003992D01*
X013731Y004007D01*
X013744Y004025D01*
X013753Y004044D01*
X013759Y004065D01*
X013762Y004086D01*
X012218Y004087D02*
X012268Y004087D01*
X012267Y004086D02*
X012270Y004065D01*
X012276Y004046D01*
X012285Y004027D01*
X012297Y004010D01*
X012311Y003996D01*
X012328Y003984D01*
X012347Y003975D01*
X012366Y003969D01*
X012387Y003966D01*
X012388Y003917D01*
X012387Y003916D01*
X012361Y003919D01*
X012335Y003926D01*
X012311Y003936D01*
X012288Y003950D01*
X012268Y003967D01*
X012251Y003987D01*
X012237Y004010D01*
X012227Y004034D01*
X012220Y004060D01*
X012217Y004086D01*
X012226Y004086D01*
X012229Y004061D01*
X012235Y004037D01*
X012245Y004014D01*
X012258Y003993D01*
X012275Y003974D01*
X012294Y003957D01*
X012315Y003944D01*
X012338Y003934D01*
X012362Y003928D01*
X012387Y003925D01*
X012387Y003934D01*
X012363Y003937D01*
X012341Y003943D01*
X012319Y003952D01*
X012299Y003965D01*
X012281Y003980D01*
X012266Y003998D01*
X012253Y004018D01*
X012244Y004040D01*
X012238Y004062D01*
X012235Y004086D01*
X012244Y004086D01*
X012247Y004064D01*
X012252Y004042D01*
X012261Y004022D01*
X012273Y004003D01*
X012287Y003986D01*
X012304Y003972D01*
X012323Y003960D01*
X012343Y003951D01*
X012365Y003946D01*
X012387Y003943D01*
X012387Y003952D01*
X012364Y003955D01*
X012342Y003961D01*
X012321Y003971D01*
X012302Y003985D01*
X012286Y004001D01*
X012272Y004020D01*
X012262Y004041D01*
X012256Y004063D01*
X012253Y004086D01*
X012262Y004086D01*
X012265Y004065D01*
X012271Y004044D01*
X012280Y004025D01*
X012293Y004007D01*
X012308Y003992D01*
X012326Y003979D01*
X012345Y003970D01*
X012366Y003964D01*
X012387Y003961D01*
X012037Y003772D02*
X012037Y003747D01*
X012011Y003722D01*
X011961Y003722D01*
X011936Y003747D01*
X011936Y003772D01*
X011961Y003797D01*
X012011Y003797D01*
X012037Y003772D01*
X012011Y003722D02*
X012037Y003697D01*
X012037Y003671D01*
X012011Y003646D01*
X011961Y003646D01*
X011936Y003671D01*
X011936Y003697D01*
X011961Y003722D01*
X011889Y003772D02*
X011864Y003797D01*
X011789Y003797D01*
X011789Y003646D01*
X011864Y003646D01*
X011889Y003671D01*
X011889Y003772D01*
X011742Y003772D02*
X011717Y003797D01*
X011667Y003797D01*
X011642Y003772D01*
X011642Y003671D01*
X011667Y003646D01*
X011717Y003646D01*
X011742Y003671D01*
X011692Y003222D02*
X011692Y003071D01*
X011642Y003071D02*
X011742Y003071D01*
X011789Y003096D02*
X011814Y003071D01*
X011889Y003071D01*
X011889Y003172D01*
X011936Y003147D02*
X011986Y003147D01*
X011936Y003222D02*
X012037Y003222D01*
X011936Y003222D02*
X011936Y003071D01*
X011789Y003096D02*
X011789Y003172D01*
X011692Y003222D02*
X011642Y003172D01*
X012231Y003147D02*
X012306Y003147D01*
X012331Y003122D01*
X012331Y003096D01*
X012306Y003071D01*
X012256Y003071D01*
X012231Y003096D01*
X012231Y003147D01*
X012281Y003197D01*
X012331Y003222D01*
X012378Y003172D02*
X012428Y003071D01*
X012479Y003172D01*
X031142Y017021D02*
X031242Y017021D01*
X031192Y017021D02*
X031192Y017172D01*
X031142Y017122D01*
X031289Y017122D02*
X031289Y017046D01*
X031314Y017021D01*
X031389Y017021D01*
X031389Y017122D01*
X031436Y017097D02*
X031486Y017097D01*
X031436Y017021D02*
X031436Y017172D01*
X031537Y017172D01*
X031731Y017097D02*
X031806Y017097D01*
X031831Y017072D01*
X031831Y017046D01*
X031806Y017021D01*
X031756Y017021D01*
X031731Y017046D01*
X031731Y017097D01*
X031781Y017147D01*
X031831Y017172D01*
X031878Y017122D02*
X031928Y017021D01*
X031979Y017122D01*
X031659Y017596D02*
X031609Y017596D01*
X031584Y017621D01*
X031684Y017722D01*
X031684Y017621D01*
X031659Y017596D01*
X031584Y017621D02*
X031584Y017722D01*
X031609Y017747D01*
X031659Y017747D01*
X031684Y017722D01*
X031537Y017596D02*
X031436Y017596D01*
X031486Y017596D02*
X031486Y017747D01*
X031436Y017697D01*
X031389Y017722D02*
X031364Y017747D01*
X031289Y017747D01*
X031289Y017596D01*
X031364Y017596D01*
X031389Y017621D01*
X031389Y017722D01*
X031242Y017722D02*
X031217Y017747D01*
X031167Y017747D01*
X031142Y017722D01*
X031142Y017621D01*
X031167Y017596D01*
X031217Y017596D01*
X031242Y017621D01*
X023095Y024386D02*
X022994Y024386D01*
X023095Y024487D01*
X023095Y024512D01*
X023070Y024537D01*
X023019Y024537D01*
X022994Y024512D01*
X022947Y024512D02*
X022922Y024537D01*
X022847Y024537D01*
X022847Y024386D01*
X022922Y024386D01*
X022947Y024411D01*
X022947Y024512D01*
X022800Y024512D02*
X022775Y024537D01*
X022725Y024537D01*
X022700Y024512D01*
X022700Y024411D01*
X022725Y024386D01*
X022775Y024386D01*
X022800Y024411D01*
X022872Y024961D02*
X022922Y024961D01*
X022947Y024986D01*
X022947Y025012D01*
X022922Y025037D01*
X022847Y025037D01*
X022847Y024986D01*
X022872Y024961D01*
X022847Y025037D02*
X022897Y025087D01*
X022947Y025112D01*
X022994Y025062D02*
X023045Y024961D01*
X023095Y025062D01*
X022653Y025112D02*
X022553Y025112D01*
X022553Y024961D01*
X022505Y024961D02*
X022505Y025062D01*
X022553Y025037D02*
X022603Y025037D01*
X022505Y024961D02*
X022430Y024961D01*
X022405Y024986D01*
X022405Y025062D01*
X022308Y025112D02*
X022308Y024961D01*
X022258Y024961D02*
X022358Y024961D01*
X022258Y025062D02*
X022308Y025112D01*
X020182Y025119D02*
X020182Y025044D01*
X020157Y025019D01*
X020082Y025019D01*
X020082Y025119D02*
X020182Y025119D01*
X020182Y025166D02*
X020032Y025166D01*
X020032Y025266D01*
X020107Y025216D02*
X020107Y025166D01*
X020182Y024972D02*
X020182Y024871D01*
X020182Y024922D02*
X020032Y024922D01*
X020082Y024871D01*
X019607Y024896D02*
X019607Y024947D01*
X019582Y024972D01*
X019607Y025019D02*
X019607Y025094D01*
X019582Y025119D01*
X019482Y025119D01*
X019457Y025094D01*
X019457Y025019D01*
X019607Y025019D01*
X019607Y024896D02*
X019582Y024871D01*
X019482Y024871D01*
X019457Y024896D01*
X019457Y024947D01*
X019482Y024972D01*
X019432Y024972D02*
X019432Y024871D01*
X019432Y024922D02*
X019282Y024922D01*
X019332Y024871D01*
X019332Y025019D02*
X019407Y025019D01*
X019432Y025044D01*
X019432Y025119D01*
X019332Y025119D01*
X019357Y025166D02*
X019357Y025216D01*
X019432Y025166D02*
X019282Y025166D01*
X019282Y025266D01*
X019457Y025241D02*
X019457Y025191D01*
X019482Y025166D01*
X019457Y025241D02*
X019482Y025266D01*
X019507Y025266D01*
X019607Y025166D01*
X019607Y025266D01*
X019582Y025313D02*
X019482Y025414D01*
X019582Y025414D01*
X019607Y025389D01*
X019607Y025338D01*
X019582Y025313D01*
X019482Y025313D01*
X019457Y025338D01*
X019457Y025389D01*
X019482Y025414D01*
X019432Y025486D02*
X019432Y025536D01*
X019407Y025561D01*
X019382Y025561D01*
X019357Y025536D01*
X019357Y025461D01*
X019407Y025461D01*
X019432Y025486D01*
X019357Y025461D02*
X019307Y025511D01*
X019282Y025561D01*
X019332Y025608D02*
X019432Y025658D01*
X019332Y025708D01*
X019236Y026021D02*
X019236Y026172D01*
X019337Y026172D01*
X019286Y026097D02*
X019236Y026097D01*
X019189Y026122D02*
X019189Y026021D01*
X019114Y026021D01*
X019089Y026046D01*
X019089Y026122D01*
X018992Y026172D02*
X018992Y026021D01*
X018942Y026021D02*
X019042Y026021D01*
X018942Y026122D02*
X018992Y026172D01*
X019017Y026596D02*
X019042Y026621D01*
X019017Y026596D02*
X018967Y026596D01*
X018942Y026621D01*
X018942Y026722D01*
X018967Y026747D01*
X019017Y026747D01*
X019042Y026722D01*
X019089Y026747D02*
X019089Y026596D01*
X019164Y026596D01*
X019189Y026621D01*
X019189Y026722D01*
X019164Y026747D01*
X019089Y026747D01*
X019236Y026697D02*
X019286Y026747D01*
X019286Y026596D01*
X019236Y026596D02*
X019337Y026596D01*
X019384Y026621D02*
X019409Y026596D01*
X019459Y026596D01*
X019484Y026621D01*
X019484Y026647D01*
X019459Y026672D01*
X019384Y026672D01*
X019384Y026621D01*
X019384Y026672D02*
X019434Y026722D01*
X019484Y026747D01*
X019631Y026172D02*
X019581Y026147D01*
X019531Y026097D01*
X019606Y026097D01*
X019631Y026072D01*
X019631Y026046D01*
X019606Y026021D01*
X019556Y026021D01*
X019531Y026046D01*
X019531Y026097D01*
X019678Y026122D02*
X019728Y026021D01*
X019779Y026122D01*
X020082Y025708D02*
X020182Y025658D01*
X020082Y025608D01*
X020132Y025561D02*
X020107Y025536D01*
X020107Y025461D01*
X020157Y025461D01*
X020182Y025486D01*
X020182Y025536D01*
X020157Y025561D01*
X020132Y025561D01*
X020057Y025511D02*
X020107Y025461D01*
X020057Y025511D02*
X020032Y025561D01*
X018857Y025389D02*
X018832Y025414D01*
X018732Y025414D01*
X018707Y025389D01*
X018707Y025338D01*
X018732Y025313D01*
X018757Y025313D01*
X018782Y025338D01*
X018782Y025414D01*
X018857Y025389D02*
X018857Y025338D01*
X018832Y025313D01*
X018857Y025266D02*
X018857Y025166D01*
X018857Y025216D02*
X018707Y025216D01*
X018757Y025166D01*
X018732Y025119D02*
X018707Y025094D01*
X018707Y025019D01*
X018857Y025019D01*
X018857Y025094D01*
X018832Y025119D01*
X018732Y025119D01*
X018732Y024972D02*
X018707Y024947D01*
X018707Y024896D01*
X018732Y024871D01*
X018832Y024871D01*
X018857Y024896D01*
X018857Y024947D01*
X018832Y024972D01*
X011267Y029507D02*
X011267Y029557D01*
X011242Y029582D01*
X011267Y029630D02*
X011267Y029705D01*
X011242Y029730D01*
X011142Y029730D01*
X011117Y029705D01*
X011117Y029630D01*
X011267Y029630D01*
X011267Y029507D02*
X011242Y029482D01*
X011142Y029482D01*
X011117Y029507D01*
X011117Y029557D01*
X011142Y029582D01*
X011167Y029777D02*
X011117Y029827D01*
X011267Y029827D01*
X011267Y029777D02*
X011267Y029877D01*
X011242Y029924D02*
X011267Y029949D01*
X011267Y029999D01*
X011242Y030024D01*
X011192Y030024D01*
X011167Y029999D01*
X011167Y029974D01*
X011192Y029924D01*
X011117Y029924D01*
X011117Y030024D01*
X010692Y029974D02*
X010592Y030024D01*
X010592Y029924D02*
X010692Y029974D01*
X010667Y029877D02*
X010642Y029877D01*
X010617Y029852D01*
X010617Y029777D01*
X010667Y029777D01*
X010692Y029802D01*
X010692Y029852D01*
X010667Y029877D01*
X010567Y029827D02*
X010617Y029777D01*
X010567Y029827D02*
X010542Y029877D01*
X010542Y029582D02*
X010542Y029482D01*
X010692Y029482D01*
X010692Y029435D02*
X010592Y029435D01*
X010617Y029482D02*
X010617Y029532D01*
X010692Y029435D02*
X010692Y029360D01*
X010667Y029335D01*
X010592Y029335D01*
X010542Y029238D02*
X010692Y029238D01*
X010692Y029188D02*
X010692Y029288D01*
X010592Y029188D02*
X010542Y029238D01*
X024292Y034888D02*
X024442Y034888D01*
X024442Y034838D02*
X024442Y034938D01*
X024417Y034985D02*
X024442Y035010D01*
X024442Y035085D01*
X024342Y035085D01*
X024367Y035132D02*
X024367Y035182D01*
X024442Y035132D02*
X024292Y035132D01*
X024292Y035232D01*
X024367Y035427D02*
X024367Y035502D01*
X024392Y035527D01*
X024417Y035527D01*
X024442Y035502D01*
X024442Y035452D01*
X024417Y035427D01*
X024367Y035427D01*
X024317Y035477D01*
X024292Y035527D01*
X024342Y035574D02*
X024442Y035624D01*
X024342Y035674D01*
X024867Y035649D02*
X024892Y035674D01*
X024917Y035674D01*
X024942Y035649D01*
X024942Y035599D01*
X024917Y035574D01*
X024892Y035574D01*
X024867Y035599D01*
X024867Y035649D01*
X024942Y035649D02*
X024967Y035674D01*
X024992Y035674D01*
X025017Y035649D01*
X025017Y035599D01*
X024992Y035574D01*
X024967Y035574D01*
X024942Y035599D01*
X025017Y035527D02*
X025017Y035427D01*
X025017Y035477D02*
X024867Y035477D01*
X024917Y035427D01*
X024892Y035380D02*
X024867Y035355D01*
X024867Y035280D01*
X025017Y035280D01*
X025017Y035355D01*
X024992Y035380D01*
X024892Y035380D01*
X024892Y035232D02*
X024867Y035207D01*
X024867Y035157D01*
X024892Y035132D01*
X024992Y035132D01*
X025017Y035157D01*
X025017Y035207D01*
X024992Y035232D01*
X024417Y034985D02*
X024342Y034985D01*
X024292Y034888D02*
X024342Y034838D01*
X029542Y029724D02*
X029642Y029674D01*
X029542Y029624D01*
X029592Y029577D02*
X029567Y029552D01*
X029567Y029477D01*
X029617Y029477D01*
X029642Y029502D01*
X029642Y029552D01*
X029617Y029577D01*
X029592Y029577D01*
X029517Y029527D02*
X029567Y029477D01*
X029517Y029527D02*
X029492Y029577D01*
X029492Y029282D02*
X029492Y029182D01*
X029642Y029182D01*
X029642Y029135D02*
X029542Y029135D01*
X029567Y029182D02*
X029567Y029232D01*
X029642Y029135D02*
X029642Y029060D01*
X029617Y029035D01*
X029542Y029035D01*
X029492Y028938D02*
X029642Y028938D01*
X029642Y028888D02*
X029642Y028988D01*
X029542Y028888D02*
X029492Y028938D01*
X030067Y029207D02*
X030092Y029182D01*
X030192Y029182D01*
X030217Y029207D01*
X030217Y029257D01*
X030192Y029282D01*
X030217Y029330D02*
X030217Y029405D01*
X030192Y029430D01*
X030092Y029430D01*
X030067Y029405D01*
X030067Y029330D01*
X030217Y029330D01*
X030092Y029282D02*
X030067Y029257D01*
X030067Y029207D01*
X030117Y029477D02*
X030067Y029527D01*
X030217Y029527D01*
X030217Y029477D02*
X030217Y029577D01*
X030217Y029624D02*
X030117Y029724D01*
X030092Y029724D01*
X030067Y029699D01*
X030067Y029649D01*
X030092Y029624D01*
X030217Y029624D02*
X030217Y029724D01*
D15*
X023662Y015341D02*
X021262Y015341D01*
X021204Y015339D01*
X021146Y015333D01*
X021089Y015323D01*
X021033Y015309D01*
X020977Y015292D01*
X020923Y015271D01*
X020871Y015246D01*
X020820Y015217D01*
X020772Y015185D01*
X020726Y015150D01*
X020682Y015112D01*
X020641Y015071D01*
X020603Y015027D01*
X020568Y014981D01*
X020536Y014933D01*
X020507Y014882D01*
X020482Y014830D01*
X020461Y014776D01*
X020444Y014720D01*
X020430Y014664D01*
X020420Y014607D01*
X020414Y014549D01*
X020412Y014491D01*
X020414Y014433D01*
X020420Y014375D01*
X020430Y014318D01*
X020444Y014262D01*
X020461Y014206D01*
X020482Y014152D01*
X020507Y014100D01*
X020536Y014049D01*
X020568Y014001D01*
X020603Y013955D01*
X020641Y013911D01*
X020682Y013870D01*
X020726Y013832D01*
X020772Y013797D01*
X020820Y013765D01*
X020871Y013736D01*
X020923Y013711D01*
X020977Y013690D01*
X021033Y013673D01*
X021089Y013659D01*
X021146Y013649D01*
X021204Y013643D01*
X021262Y013641D01*
X023662Y013641D01*
X023720Y013643D01*
X023778Y013649D01*
X023835Y013659D01*
X023891Y013673D01*
X023947Y013690D01*
X024001Y013711D01*
X024053Y013736D01*
X024104Y013765D01*
X024152Y013797D01*
X024198Y013832D01*
X024242Y013870D01*
X024283Y013911D01*
X024321Y013955D01*
X024356Y014001D01*
X024388Y014049D01*
X024417Y014100D01*
X024442Y014152D01*
X024463Y014206D01*
X024480Y014262D01*
X024494Y014318D01*
X024504Y014375D01*
X024510Y014433D01*
X024512Y014491D01*
X024510Y014549D01*
X024504Y014607D01*
X024494Y014664D01*
X024480Y014720D01*
X024463Y014776D01*
X024442Y014830D01*
X024417Y014882D01*
X024388Y014933D01*
X024356Y014981D01*
X024321Y015027D01*
X024283Y015071D01*
X024242Y015112D01*
X024198Y015150D01*
X024152Y015185D01*
X024104Y015217D01*
X024053Y015246D01*
X024001Y015271D01*
X023947Y015292D01*
X023891Y015309D01*
X023835Y015323D01*
X023778Y015333D01*
X023720Y015339D01*
X023662Y015341D01*
D16*
X021938Y013417D02*
X021638Y013417D01*
X021938Y013417D02*
X021938Y013342D01*
X021638Y013042D01*
X021638Y012966D01*
X021483Y012966D02*
X021408Y012966D01*
X021408Y013042D01*
X021483Y013042D01*
X021483Y012966D01*
X021172Y012966D02*
X021172Y013417D01*
X020947Y013192D01*
X021247Y013192D01*
X020787Y012966D02*
X020487Y012966D01*
X020637Y012966D02*
X020637Y013417D01*
X020487Y013267D01*
X020794Y011460D02*
X020794Y008623D01*
X023630Y008623D01*
X023630Y011460D01*
X020794Y011460D01*
X021053Y011104D02*
X021055Y011119D01*
X021061Y011133D01*
X021071Y011145D01*
X021083Y011154D01*
X021098Y011159D01*
X021113Y011160D01*
X021128Y011157D01*
X021141Y011150D01*
X021152Y011139D01*
X021160Y011126D01*
X021164Y011112D01*
X021164Y011096D01*
X021160Y011082D01*
X021152Y011069D01*
X021141Y011058D01*
X021128Y011051D01*
X021113Y011048D01*
X021098Y011049D01*
X021083Y011054D01*
X021071Y011063D01*
X021061Y011075D01*
X021055Y011089D01*
X021053Y011104D01*
X018127Y010042D02*
X017826Y010042D01*
X018052Y010267D01*
X018052Y009816D01*
X017666Y009892D02*
X017666Y010267D01*
X017366Y010267D02*
X017366Y009892D01*
X017441Y009816D01*
X017591Y009816D01*
X017666Y009892D01*
X017712Y010966D02*
X017787Y010966D01*
X017712Y010966D02*
X017411Y011267D01*
X017336Y011267D01*
X017336Y010966D01*
X017562Y011427D02*
X017336Y011652D01*
X017787Y011652D01*
X017787Y011887D02*
X017336Y011887D01*
X017562Y011887D02*
X017562Y012187D01*
X017712Y012348D02*
X017787Y012423D01*
X017787Y012573D01*
X017712Y012648D01*
X017712Y012808D02*
X017411Y013108D01*
X017712Y013108D01*
X017787Y013033D01*
X017787Y012883D01*
X017712Y012808D01*
X017411Y012808D01*
X017336Y012883D01*
X017336Y013033D01*
X017411Y013108D01*
X017411Y013268D02*
X017487Y013268D01*
X017562Y013343D01*
X017562Y013493D01*
X017637Y013569D01*
X017712Y013569D01*
X017787Y013493D01*
X017787Y013343D01*
X017712Y013268D01*
X017637Y013268D01*
X017562Y013343D01*
X017562Y013493D02*
X017487Y013569D01*
X017411Y013569D01*
X017336Y013493D01*
X017336Y013343D01*
X017411Y013268D01*
X017411Y012648D02*
X017336Y012573D01*
X017336Y012423D01*
X017411Y012348D01*
X017712Y012348D01*
X017787Y012187D02*
X017336Y012187D01*
X017562Y011727D02*
X017562Y011427D01*
X017787Y013729D02*
X017336Y013729D01*
X017336Y013954D01*
X017411Y014029D01*
X017712Y014029D01*
X017787Y013954D01*
X017787Y013729D01*
X020487Y015642D02*
X020562Y015566D01*
X020712Y015566D01*
X020787Y015642D01*
X020787Y015942D01*
X020712Y016017D01*
X020562Y016017D01*
X020487Y015942D01*
X020487Y015642D01*
X020637Y015717D02*
X020787Y015566D01*
X020947Y015566D02*
X021247Y015566D01*
X021097Y015566D02*
X021097Y016017D01*
X020947Y015867D01*
X013687Y013739D02*
X013236Y013739D01*
X013387Y013589D01*
X013236Y013439D01*
X013687Y013439D01*
X013612Y013279D02*
X013687Y013204D01*
X013687Y013054D01*
X013612Y012979D01*
X013462Y013129D02*
X013462Y013204D01*
X013537Y013279D01*
X013612Y013279D01*
X013462Y013204D02*
X013387Y013279D01*
X013311Y013279D01*
X013236Y013204D01*
X013236Y013054D01*
X013311Y012979D01*
X013311Y012819D02*
X013612Y012518D01*
X013687Y012518D01*
X013612Y012358D02*
X013687Y012283D01*
X013687Y012133D01*
X013612Y012058D01*
X013462Y012058D02*
X013387Y012208D01*
X013387Y012283D01*
X013462Y012358D01*
X013612Y012358D01*
X013462Y012058D02*
X013236Y012058D01*
X013236Y012358D01*
X013236Y012518D02*
X013236Y012819D01*
X013311Y012819D01*
X013311Y011898D02*
X013236Y011823D01*
X013236Y011673D01*
X013311Y011598D01*
X013612Y011598D01*
X013687Y011673D01*
X013687Y011823D01*
X013612Y011898D01*
X013687Y011437D02*
X013236Y011437D01*
X013462Y011437D02*
X013462Y011137D01*
X013462Y010977D02*
X013462Y010677D01*
X013236Y010902D01*
X013687Y010902D01*
X013687Y011137D02*
X013236Y011137D01*
X013236Y010517D02*
X013311Y010517D01*
X013612Y010216D01*
X013687Y010216D01*
X013236Y010216D02*
X013236Y010517D01*
X013166Y008967D02*
X013166Y008516D01*
X013016Y008516D02*
X013316Y008516D01*
X013476Y008516D02*
X013476Y008592D01*
X013777Y008892D01*
X013777Y008967D01*
X013476Y008967D01*
X013166Y008967D02*
X013016Y008817D01*
X012856Y008967D02*
X012856Y008592D01*
X012781Y008516D01*
X012631Y008516D01*
X012556Y008592D01*
X012556Y008967D01*
X012911Y007529D02*
X012836Y007454D01*
X012836Y007229D01*
X013287Y007229D01*
X013287Y007454D01*
X013212Y007529D01*
X012911Y007529D01*
X013062Y007069D02*
X013062Y006768D01*
X012836Y006993D01*
X013287Y006993D01*
X013212Y006608D02*
X012911Y006608D01*
X013212Y006308D01*
X013287Y006383D01*
X013287Y006533D01*
X013212Y006608D01*
X013212Y006308D02*
X012911Y006308D01*
X012836Y006383D01*
X012836Y006533D01*
X012911Y006608D01*
X012911Y006148D02*
X012836Y006073D01*
X012836Y005923D01*
X012911Y005848D01*
X013212Y005848D01*
X013287Y005923D01*
X013287Y006073D01*
X013212Y006148D01*
X013287Y005687D02*
X012836Y005687D01*
X013062Y005687D02*
X013062Y005387D01*
X013062Y005227D02*
X013062Y004927D01*
X012836Y005152D01*
X013287Y005152D01*
X013287Y005387D02*
X012836Y005387D01*
X012836Y004767D02*
X012911Y004767D01*
X013212Y004466D01*
X013287Y004466D01*
X012836Y004466D02*
X012836Y004767D01*
X012706Y003767D02*
X012706Y003392D01*
X012631Y003316D01*
X012481Y003316D01*
X012406Y003392D01*
X012406Y003767D01*
X012866Y003617D02*
X013016Y003767D01*
X013016Y003316D01*
X012866Y003316D02*
X013166Y003316D01*
X013326Y003392D02*
X013326Y003467D01*
X013401Y003542D01*
X013552Y003542D01*
X013627Y003467D01*
X013627Y003392D01*
X013552Y003316D01*
X013401Y003316D01*
X013326Y003392D01*
X013401Y003542D02*
X013326Y003617D01*
X013326Y003692D01*
X013401Y003767D01*
X013552Y003767D01*
X013627Y003692D01*
X013627Y003617D01*
X013552Y003542D01*
X016537Y004866D02*
X016837Y004866D01*
X016687Y004866D02*
X016687Y005317D01*
X016537Y005167D01*
X017037Y005766D02*
X017337Y006217D01*
X017497Y006217D02*
X017497Y005766D01*
X017497Y005917D02*
X017722Y005917D01*
X017797Y005992D01*
X017797Y006142D01*
X017722Y006217D01*
X017497Y006217D01*
X017037Y006217D02*
X017337Y005766D01*
X017958Y005766D02*
X018108Y005766D01*
X018033Y005766D02*
X018033Y006217D01*
X017958Y006217D02*
X018108Y006217D01*
X018264Y006217D02*
X018565Y006217D01*
X018415Y006217D02*
X018415Y005766D01*
X018725Y005842D02*
X018725Y006142D01*
X018800Y006217D01*
X018950Y006217D01*
X019025Y006142D01*
X019185Y006217D02*
X019185Y005766D01*
X019025Y005842D02*
X018950Y005766D01*
X018800Y005766D01*
X018725Y005842D01*
X019185Y005992D02*
X019485Y005992D01*
X019645Y006142D02*
X019645Y005842D01*
X019721Y005766D01*
X019871Y005766D01*
X019946Y005842D01*
X019946Y005992D01*
X019796Y005992D01*
X019946Y006142D02*
X019871Y006217D01*
X019721Y006217D01*
X019645Y006142D01*
X019485Y006217D02*
X019485Y005766D01*
X020106Y006142D02*
X020256Y005992D01*
X020256Y005766D01*
X020256Y005992D02*
X020406Y006142D01*
X020406Y006217D01*
X020566Y006217D02*
X020791Y006217D01*
X020866Y006142D01*
X020866Y005992D01*
X020791Y005917D01*
X020566Y005917D01*
X020716Y005917D02*
X020866Y005766D01*
X021027Y005842D02*
X021102Y005766D01*
X021252Y005766D01*
X021327Y005842D01*
X021327Y006142D01*
X021252Y006217D01*
X021102Y006217D01*
X021027Y006142D01*
X021027Y005842D01*
X020566Y005766D02*
X020566Y006217D01*
X020106Y006217D02*
X020106Y006142D01*
X023037Y005167D02*
X023187Y005317D01*
X023187Y004866D01*
X023037Y004866D02*
X023337Y004866D01*
X023537Y005766D02*
X023837Y006217D01*
X023997Y006217D02*
X023997Y005766D01*
X023997Y005917D02*
X024222Y005917D01*
X024297Y005992D01*
X024297Y006142D01*
X024222Y006217D01*
X023997Y006217D01*
X024147Y005917D02*
X024297Y005766D01*
X024458Y005842D02*
X024458Y006142D01*
X024533Y006217D01*
X024683Y006217D01*
X024758Y006142D01*
X024758Y005842D01*
X024683Y005766D01*
X024533Y005766D01*
X024458Y005842D01*
X024918Y005766D02*
X024918Y006217D01*
X024918Y005766D02*
X025218Y005766D01*
X025378Y005766D02*
X025678Y005766D01*
X025839Y005842D02*
X025914Y005766D01*
X026064Y005766D01*
X026139Y005842D01*
X026139Y005992D01*
X025989Y005992D01*
X026139Y006142D02*
X026064Y006217D01*
X025914Y006217D01*
X025839Y006142D01*
X025839Y005842D01*
X025378Y005766D02*
X025378Y006217D01*
X026299Y006217D02*
X026299Y006142D01*
X026449Y005992D01*
X026449Y005766D01*
X026449Y005992D02*
X026599Y006142D01*
X026599Y006217D01*
X026759Y006217D02*
X026759Y005766D01*
X026759Y005917D02*
X026984Y005917D01*
X027060Y005992D01*
X027060Y006142D01*
X026984Y006217D01*
X026759Y006217D01*
X026909Y005917D02*
X027060Y005766D01*
X027220Y005842D02*
X027220Y006142D01*
X027295Y006217D01*
X027445Y006217D01*
X027520Y006142D01*
X027520Y005842D01*
X027445Y005766D01*
X027295Y005766D01*
X027220Y005842D01*
X029537Y005167D02*
X029687Y005317D01*
X029687Y004866D01*
X029537Y004866D02*
X029837Y004866D01*
X030037Y005766D02*
X030337Y006217D01*
X030497Y006217D02*
X030497Y006142D01*
X030647Y005992D01*
X030647Y005766D01*
X030647Y005992D02*
X030797Y006142D01*
X030797Y006217D01*
X030958Y006067D02*
X031108Y006217D01*
X031258Y006067D01*
X031258Y005766D01*
X031418Y005766D02*
X031568Y005917D01*
X031718Y005766D01*
X031718Y006217D01*
X031878Y006142D02*
X031878Y005842D01*
X031953Y005766D01*
X032103Y005766D01*
X032178Y005842D01*
X032178Y005992D01*
X032028Y005992D01*
X031878Y006142D02*
X031953Y006217D01*
X032103Y006217D01*
X032178Y006142D01*
X032339Y006142D02*
X032489Y005992D01*
X032489Y005766D01*
X032489Y005992D02*
X032639Y006142D01*
X032639Y006217D01*
X032799Y006217D02*
X033024Y006217D01*
X033099Y006142D01*
X033099Y005992D01*
X033024Y005917D01*
X032799Y005917D01*
X032949Y005917D02*
X033099Y005766D01*
X033259Y005842D02*
X033259Y006142D01*
X033334Y006217D01*
X033484Y006217D01*
X033560Y006142D01*
X033560Y005842D01*
X033484Y005766D01*
X033334Y005766D01*
X033259Y005842D01*
X032799Y005766D02*
X032799Y006217D01*
X032339Y006217D02*
X032339Y006142D01*
X031418Y006217D02*
X031418Y005766D01*
X031258Y005992D02*
X030958Y005992D01*
X030958Y006067D02*
X030958Y005766D01*
X030337Y005766D02*
X030037Y006217D01*
X035886Y007942D02*
X035961Y007866D01*
X036037Y007866D01*
X036112Y007942D01*
X036112Y008092D01*
X036187Y008167D01*
X036262Y008167D01*
X036337Y008092D01*
X036337Y007942D01*
X036262Y007866D01*
X035886Y007942D02*
X035886Y008092D01*
X035961Y008167D01*
X035886Y008327D02*
X036337Y008327D01*
X036337Y008627D01*
X036337Y008787D02*
X035886Y008787D01*
X035886Y009012D01*
X035961Y009087D01*
X036112Y009087D01*
X036187Y009012D01*
X036187Y008787D01*
X036187Y008937D02*
X036337Y009087D01*
X036337Y009248D02*
X036337Y009398D01*
X036337Y009323D02*
X035886Y009323D01*
X035886Y009248D02*
X035886Y009398D01*
X036037Y009554D02*
X035886Y009705D01*
X036037Y009855D01*
X036337Y009855D01*
X036337Y010015D02*
X035886Y010015D01*
X036112Y009855D02*
X036112Y009554D01*
X036037Y009554D02*
X036337Y009554D01*
X036337Y010015D02*
X036337Y010315D01*
X035886Y008627D02*
X035886Y008327D01*
X036112Y008327D02*
X036112Y008477D01*
X038686Y008317D02*
X039137Y008317D01*
X039137Y008467D02*
X039137Y008166D01*
X038837Y008166D02*
X038686Y008317D01*
X036337Y012166D02*
X036337Y012467D01*
X036337Y012317D02*
X035886Y012317D01*
X036037Y012166D01*
X035961Y012627D02*
X035886Y012702D01*
X035886Y012852D01*
X035961Y012927D01*
X036262Y012627D01*
X036337Y012702D01*
X036337Y012852D01*
X036262Y012927D01*
X035961Y012927D01*
X035961Y012627D02*
X036262Y012627D01*
X036080Y014116D02*
X035780Y014116D01*
X035780Y014567D01*
X036080Y014567D01*
X035930Y014342D02*
X035780Y014342D01*
X035620Y014116D02*
X035620Y014567D01*
X035320Y014567D02*
X035320Y014116D01*
X035470Y014267D01*
X035620Y014116D01*
X035160Y014192D02*
X035084Y014116D01*
X034934Y014116D01*
X034859Y014192D01*
X034859Y014492D01*
X034934Y014567D01*
X035084Y014567D01*
X035160Y014492D01*
X034699Y014567D02*
X034399Y014567D01*
X034399Y014116D01*
X034699Y014116D01*
X034549Y014342D02*
X034399Y014342D01*
X034239Y014417D02*
X034239Y014492D01*
X034164Y014567D01*
X034014Y014567D01*
X033939Y014492D01*
X033778Y014492D02*
X033778Y014417D01*
X033703Y014342D01*
X033778Y014267D01*
X033778Y014192D01*
X033703Y014116D01*
X033553Y014116D01*
X033478Y014192D01*
X033318Y014116D02*
X033018Y014116D01*
X033318Y014417D01*
X033318Y014492D01*
X033243Y014567D01*
X033093Y014567D01*
X033018Y014492D01*
X032858Y014567D02*
X032558Y014116D01*
X032397Y014116D02*
X032397Y014417D01*
X032247Y014567D01*
X032097Y014417D01*
X032097Y014116D01*
X031937Y014116D02*
X031937Y014567D01*
X031787Y014417D01*
X031637Y014567D01*
X031637Y014116D01*
X032097Y014342D02*
X032397Y014342D01*
X032558Y014567D02*
X032858Y014116D01*
X033478Y014492D02*
X033553Y014567D01*
X033703Y014567D01*
X033778Y014492D01*
X033703Y014342D02*
X033628Y014342D01*
X033939Y014116D02*
X034239Y014417D01*
X034239Y014116D02*
X033939Y014116D01*
X030787Y013702D02*
X030787Y013552D01*
X030712Y013477D01*
X030712Y013317D02*
X030336Y013317D01*
X030411Y013477D02*
X030336Y013552D01*
X030336Y013702D01*
X030411Y013777D01*
X030487Y013777D01*
X030562Y013702D01*
X030637Y013777D01*
X030712Y013777D01*
X030787Y013702D01*
X030562Y013702D02*
X030562Y013627D01*
X030712Y013317D02*
X030787Y013242D01*
X030787Y013092D01*
X030712Y013016D01*
X030336Y013016D01*
X023537Y006217D02*
X023837Y005766D01*
X004637Y007016D02*
X004637Y007317D01*
X004637Y007167D02*
X004186Y007167D01*
X004337Y007016D01*
X001837Y007017D02*
X001386Y006716D01*
X001386Y007017D02*
X001837Y006716D01*
X001837Y007177D02*
X001386Y007177D01*
X001386Y007477D01*
X001386Y007637D02*
X001837Y007937D01*
X001386Y007937D01*
X001461Y008098D02*
X001762Y008098D01*
X001837Y008173D01*
X001837Y008323D01*
X001762Y008398D01*
X001461Y008398D02*
X001386Y008323D01*
X001386Y008173D01*
X001461Y008098D01*
X001386Y007637D02*
X001837Y007637D01*
X001837Y007477D02*
X001837Y007177D01*
X001612Y007177D02*
X001612Y007327D01*
X001537Y011016D02*
X001386Y011167D01*
X001837Y011167D01*
X001837Y011317D02*
X001837Y011016D01*
X001762Y011477D02*
X001461Y011777D01*
X001762Y011777D01*
X001837Y011702D01*
X001837Y011552D01*
X001762Y011477D01*
X001461Y011477D01*
X001386Y011552D01*
X001386Y011702D01*
X001461Y011777D01*
X001386Y015716D02*
X001837Y016017D01*
X001837Y016177D02*
X001386Y016177D01*
X001386Y016402D01*
X001461Y016477D01*
X001612Y016477D01*
X001687Y016402D01*
X001687Y016177D01*
X001386Y016017D02*
X001837Y015716D01*
X001837Y016637D02*
X001386Y016637D01*
X001386Y016937D02*
X001837Y016937D01*
X001687Y016787D01*
X001837Y016637D01*
X001837Y017098D02*
X001386Y017098D01*
X001537Y017248D01*
X001386Y017398D01*
X001837Y017398D01*
X004186Y016167D02*
X004637Y016167D01*
X004637Y016317D02*
X004637Y016016D01*
X004337Y016016D02*
X004186Y016167D01*
X001837Y024716D02*
X001537Y025017D01*
X001461Y025017D01*
X001386Y024942D01*
X001386Y024792D01*
X001461Y024716D01*
X001837Y024716D02*
X001837Y025017D01*
X001762Y025177D02*
X001461Y025177D01*
X001386Y025252D01*
X001386Y025402D01*
X001461Y025477D01*
X001762Y025177D01*
X001837Y025252D01*
X001837Y025402D01*
X001762Y025477D01*
X001461Y025477D01*
X001386Y028716D02*
X001837Y029017D01*
X001837Y029177D02*
X001386Y029177D01*
X001386Y029477D01*
X001461Y029637D02*
X001762Y029637D01*
X001837Y029712D01*
X001837Y029862D01*
X001762Y029937D01*
X001461Y029937D01*
X001386Y029862D01*
X001386Y029712D01*
X001461Y029637D01*
X001612Y029327D02*
X001612Y029177D01*
X001386Y029017D02*
X001837Y028716D01*
X001762Y030098D02*
X001461Y030098D01*
X001386Y030173D01*
X001386Y030323D01*
X001461Y030398D01*
X001762Y030398D01*
X001837Y030323D01*
X001837Y030173D01*
X001762Y030098D01*
X001386Y030558D02*
X001386Y030858D01*
X001386Y030708D02*
X001837Y030708D01*
X001837Y031018D02*
X001386Y031018D01*
X001386Y031243D01*
X001461Y031319D01*
X001612Y031319D01*
X001687Y031243D01*
X001687Y031018D01*
X001612Y031479D02*
X001612Y031779D01*
X001537Y031779D02*
X001837Y031779D01*
X001837Y031939D02*
X001386Y031939D01*
X001386Y032164D01*
X001461Y032239D01*
X001762Y032239D01*
X001837Y032164D01*
X001837Y031939D01*
X001762Y032216D02*
X001687Y032216D01*
X001612Y032292D01*
X001612Y032442D01*
X001687Y032517D01*
X001762Y032517D01*
X001837Y032442D01*
X001837Y032292D01*
X001762Y032216D01*
X001612Y032292D02*
X001537Y032216D01*
X001461Y032216D01*
X001386Y032292D01*
X001386Y032442D01*
X001461Y032517D01*
X001537Y032517D01*
X001612Y032442D01*
X001537Y031779D02*
X001386Y031629D01*
X001537Y031479D01*
X001837Y031479D01*
X004186Y029167D02*
X004637Y029167D01*
X004637Y029317D02*
X004637Y029016D01*
X004337Y029016D02*
X004186Y029167D01*
X005536Y028523D02*
X005536Y028373D01*
X005611Y028298D01*
X005912Y028298D01*
X005987Y028373D01*
X005987Y028523D01*
X005912Y028598D01*
X005762Y028598D01*
X005762Y028448D01*
X005611Y028598D02*
X005536Y028523D01*
X005611Y028137D02*
X005536Y028062D01*
X005536Y027912D01*
X005611Y027837D01*
X005912Y027837D01*
X005987Y027912D01*
X005987Y028062D01*
X005912Y028137D01*
X005611Y028137D01*
X005611Y027677D02*
X005762Y027677D01*
X005837Y027602D01*
X005837Y027377D01*
X005987Y027377D02*
X005536Y027377D01*
X005536Y027602D01*
X005611Y027677D01*
X005837Y027527D02*
X005987Y027677D01*
X005762Y027217D02*
X005611Y027217D01*
X005536Y027142D01*
X005536Y026916D01*
X005987Y026916D01*
X005837Y026916D02*
X005837Y027142D01*
X005762Y027217D01*
X008336Y027317D02*
X008787Y027317D01*
X008787Y027467D02*
X008787Y027166D01*
X008487Y027166D02*
X008336Y027317D01*
X006812Y030016D02*
X006887Y030092D01*
X006887Y030242D01*
X006812Y030317D01*
X006737Y030317D01*
X006662Y030242D01*
X006662Y030016D01*
X006812Y030016D01*
X006662Y030016D02*
X006511Y030167D01*
X006436Y030317D01*
X025862Y034641D02*
X027862Y034641D01*
X027862Y036641D01*
X025862Y036641D01*
X025862Y034641D01*
X030011Y028937D02*
X029936Y028862D01*
X029936Y028712D01*
X030011Y028637D01*
X030011Y028937D02*
X030087Y028937D01*
X030387Y028637D01*
X030387Y028937D01*
X031137Y028766D02*
X031287Y028766D01*
X031212Y028766D02*
X031212Y029217D01*
X031137Y029217D02*
X031287Y029217D01*
X031444Y029217D02*
X031744Y028766D01*
X031744Y029217D01*
X031904Y029067D02*
X032054Y029217D01*
X032204Y029067D01*
X032204Y028766D01*
X032364Y028766D02*
X032665Y029067D01*
X032665Y029142D01*
X032590Y029217D01*
X032439Y029217D01*
X032364Y029142D01*
X032204Y028992D02*
X031904Y028992D01*
X031904Y029067D02*
X031904Y028766D01*
X031444Y028766D02*
X031444Y029217D01*
X032364Y028766D02*
X032665Y028766D01*
X032825Y028766D02*
X033125Y028766D01*
X032975Y028766D02*
X032975Y029217D01*
X032825Y029067D01*
X033285Y029142D02*
X033360Y029217D01*
X033510Y029217D01*
X033585Y029142D01*
X033585Y029067D01*
X033285Y028766D01*
X033585Y028766D01*
X033745Y028842D02*
X033745Y028917D01*
X033821Y028992D01*
X033971Y028992D01*
X034046Y028917D01*
X034046Y028842D01*
X033971Y028766D01*
X033821Y028766D01*
X033745Y028842D01*
X033821Y028992D02*
X033745Y029067D01*
X033745Y029142D01*
X033821Y029217D01*
X033971Y029217D01*
X034046Y029142D01*
X034046Y029067D01*
X033971Y028992D01*
X034206Y028842D02*
X034281Y028766D01*
X034431Y028766D01*
X034506Y028842D01*
X034506Y029217D01*
X034206Y029217D02*
X034206Y028842D01*
X030387Y028477D02*
X030387Y028177D01*
X030387Y028327D02*
X029936Y028327D01*
X030087Y028177D01*
X029936Y028017D02*
X030312Y028017D01*
X030387Y027942D01*
X030387Y027792D01*
X030312Y027716D01*
X029936Y027716D01*
D17*
X031117Y026137D02*
X031364Y026137D01*
X031485Y026137D02*
X031485Y025766D01*
X031732Y025766D01*
X031853Y025766D02*
X031853Y025828D01*
X032100Y026075D01*
X032100Y026137D01*
X031853Y026137D01*
X032222Y026137D02*
X032222Y025952D01*
X032345Y026013D01*
X032407Y026013D01*
X032469Y025952D01*
X032469Y025828D01*
X032407Y025766D01*
X032283Y025766D01*
X032222Y025828D01*
X032222Y026137D02*
X032469Y026137D01*
X032590Y026075D02*
X032652Y026137D01*
X032775Y026137D01*
X032837Y026075D01*
X032590Y025828D01*
X032652Y025766D01*
X032775Y025766D01*
X032837Y025828D01*
X032837Y026075D01*
X032958Y026137D02*
X032958Y025766D01*
X033205Y025766D01*
X033327Y025828D02*
X033574Y026075D01*
X033574Y025828D01*
X033512Y025766D01*
X033388Y025766D01*
X033327Y025828D01*
X033327Y026075D01*
X033388Y026137D01*
X033512Y026137D01*
X033574Y026075D01*
X033695Y026013D02*
X033818Y026137D01*
X033818Y025766D01*
X033695Y025766D02*
X033942Y025766D01*
X034063Y025828D02*
X034310Y026075D01*
X034310Y025828D01*
X034248Y025766D01*
X034125Y025766D01*
X034063Y025828D01*
X034063Y026075D01*
X034125Y026137D01*
X034248Y026137D01*
X034310Y026075D01*
X034432Y026075D02*
X034432Y025828D01*
X034493Y025766D01*
X034617Y025766D01*
X034678Y025828D01*
X034678Y026075D02*
X034617Y026137D01*
X034493Y026137D01*
X034432Y026075D01*
X034559Y025147D02*
X034373Y024962D01*
X034620Y024962D01*
X034559Y025147D02*
X034559Y024776D01*
X034252Y024776D02*
X034005Y024776D01*
X034129Y024776D02*
X034129Y025147D01*
X034005Y025023D01*
X033884Y025147D02*
X033884Y024838D01*
X033822Y024776D01*
X033699Y024776D01*
X033637Y024838D01*
X033637Y025147D01*
X032590Y025828D02*
X032590Y026075D01*
X031240Y026137D02*
X031240Y025766D01*
X031366Y019958D02*
X031366Y019588D01*
X031243Y019588D02*
X031489Y019588D01*
X031611Y019650D02*
X031858Y019897D01*
X031858Y019650D01*
X031796Y019588D01*
X031673Y019588D01*
X031611Y019650D01*
X031611Y019897D01*
X031673Y019958D01*
X031796Y019958D01*
X031858Y019897D01*
X031979Y019958D02*
X031979Y019588D01*
X031979Y019711D02*
X032164Y019835D01*
X031979Y019711D02*
X032164Y019588D01*
X031366Y019958D02*
X031243Y019835D01*
X030878Y019487D02*
X030878Y019241D01*
X030878Y019119D02*
X030755Y018996D01*
X030755Y019057D02*
X030755Y018872D01*
X030878Y018872D02*
X030508Y018872D01*
X030508Y019057D01*
X030570Y019119D01*
X030693Y019119D01*
X030755Y019057D01*
X030631Y019241D02*
X030508Y019364D01*
X030878Y019364D01*
X021643Y012343D02*
X021450Y012343D01*
X021450Y012198D01*
X021547Y012246D01*
X021595Y012246D01*
X021643Y012198D01*
X021643Y012101D01*
X021595Y012053D01*
X021498Y012053D01*
X021450Y012101D01*
X021349Y012053D02*
X021155Y012053D01*
X021252Y012053D02*
X021252Y012343D01*
X021155Y012246D01*
X021054Y012343D02*
X021054Y012101D01*
X021006Y012053D01*
X020909Y012053D01*
X020861Y012101D01*
X020861Y012343D01*
X016865Y008898D02*
X016865Y008705D01*
X016817Y008656D01*
X016720Y008656D01*
X016671Y008705D01*
X016570Y008705D02*
X016570Y008947D01*
X016671Y008898D02*
X016671Y008850D01*
X016720Y008802D01*
X016865Y008802D01*
X016865Y008898D02*
X016817Y008947D01*
X016720Y008947D01*
X016671Y008898D01*
X016570Y008705D02*
X016522Y008656D01*
X016425Y008656D01*
X016377Y008705D01*
X016377Y008947D01*
X016007Y008992D02*
X015958Y008944D01*
X016007Y008992D02*
X016007Y009089D01*
X015958Y009137D01*
X015862Y009137D01*
X015813Y009089D01*
X015813Y009040D01*
X015862Y008944D01*
X015717Y008944D01*
X015717Y009137D01*
X015765Y008842D02*
X015717Y008794D01*
X015717Y008697D01*
X015765Y008649D01*
X015813Y008649D01*
X015862Y008697D01*
X015862Y008794D01*
X015910Y008842D01*
X015958Y008842D01*
X016007Y008794D01*
X016007Y008697D01*
X015958Y008649D01*
X015958Y008548D02*
X015765Y008548D01*
X015717Y008499D01*
X015717Y008403D01*
X015765Y008354D01*
X015813Y008354D01*
X015862Y008403D01*
X015862Y008548D01*
X015958Y008548D02*
X016007Y008499D01*
X016007Y008403D01*
X015958Y008354D01*
X015958Y008253D02*
X015765Y008253D01*
X015717Y008205D01*
X015717Y008108D01*
X015765Y008060D01*
X015813Y008060D01*
X015862Y008108D01*
X015862Y008253D01*
X015958Y008253D02*
X016007Y008205D01*
X016007Y008108D01*
X015958Y008060D01*
X015765Y007959D02*
X015958Y007765D01*
X016007Y007765D01*
X016007Y007664D02*
X016007Y007470D01*
X016007Y007567D02*
X015717Y007567D01*
X015813Y007470D01*
X015765Y007369D02*
X015717Y007321D01*
X015717Y007224D01*
X015765Y007176D01*
X015958Y007176D01*
X016007Y007224D01*
X016007Y007321D01*
X015958Y007369D01*
X015717Y007075D02*
X015717Y006881D01*
X015717Y006978D02*
X016007Y006978D01*
X016007Y006780D02*
X016007Y006586D01*
X015717Y006586D01*
X015717Y007765D02*
X015717Y007959D01*
X015765Y007959D01*
X017623Y024578D02*
X017527Y024675D01*
X017817Y024675D01*
X017817Y024771D02*
X017817Y024578D01*
X017768Y024873D02*
X017575Y025066D01*
X017768Y025066D01*
X017817Y025018D01*
X017817Y024921D01*
X017768Y024873D01*
X017575Y024873D01*
X017527Y024921D01*
X017527Y025018D01*
X017575Y025066D01*
X017623Y025167D02*
X017768Y025167D01*
X017817Y025216D01*
X017817Y025361D01*
X017623Y025361D01*
X017672Y025462D02*
X017672Y025655D01*
X017527Y025655D02*
X017817Y025655D01*
X017817Y025462D02*
X017527Y025462D01*
X018377Y025559D02*
X018473Y025462D01*
X018377Y025559D02*
X018667Y025559D01*
X018667Y025655D02*
X018667Y025462D01*
X018667Y025361D02*
X018667Y025167D01*
X018377Y025167D01*
X020958Y028472D02*
X020958Y028657D01*
X021020Y028719D01*
X021143Y028719D01*
X021205Y028657D01*
X021205Y028472D01*
X021328Y028472D02*
X020958Y028472D01*
X021205Y028596D02*
X021328Y028719D01*
X021143Y028841D02*
X021143Y029087D01*
X021328Y029026D02*
X020958Y029026D01*
X021143Y028841D01*
X021693Y029188D02*
X021939Y029188D01*
X021816Y029188D02*
X021816Y029558D01*
X021693Y029435D01*
X022061Y029497D02*
X022061Y029250D01*
X022308Y029497D01*
X022308Y029250D01*
X022246Y029188D01*
X022123Y029188D01*
X022061Y029250D01*
X022061Y029497D02*
X022123Y029558D01*
X022246Y029558D01*
X022308Y029497D01*
X022429Y029558D02*
X022429Y029188D01*
X022429Y029311D02*
X022614Y029188D01*
X022429Y029311D02*
X022614Y029435D01*
X025276Y034656D02*
X025585Y034656D01*
X025647Y034718D01*
X025647Y034842D01*
X025585Y034903D01*
X025276Y034903D01*
X025400Y035025D02*
X025276Y035148D01*
X025647Y035148D01*
X025647Y035025D02*
X025647Y035272D01*
X025647Y035393D02*
X025647Y035640D01*
X025647Y035517D02*
X025276Y035517D01*
X025400Y035393D01*
X028126Y035541D02*
X028126Y035665D01*
X028188Y035727D01*
X028250Y035727D01*
X028312Y035665D01*
X028373Y035727D01*
X028435Y035727D01*
X028497Y035665D01*
X028497Y035541D01*
X028435Y035480D01*
X028497Y035358D02*
X028497Y035111D01*
X028126Y035111D01*
X028126Y034990D02*
X028497Y034743D01*
X028435Y034622D02*
X028188Y034622D01*
X028126Y034560D01*
X028126Y034375D01*
X028497Y034375D01*
X028497Y034560D01*
X028435Y034622D01*
X028126Y034743D02*
X028497Y034990D01*
X028188Y035480D02*
X028126Y035541D01*
X028312Y035603D02*
X028312Y035665D01*
X028250Y035848D02*
X028126Y035971D01*
X028497Y035971D01*
X028497Y035848D02*
X028497Y036095D01*
X028497Y036216D02*
X028497Y036463D01*
X028497Y036340D02*
X028126Y036340D01*
X028250Y036216D01*
X028435Y036585D02*
X028497Y036646D01*
X028497Y036708D01*
X028435Y036770D01*
X028126Y036770D01*
X028126Y036831D02*
X028126Y036708D01*
X028126Y036953D02*
X028497Y036953D01*
X028497Y037200D01*
X028312Y037076D02*
X028312Y036953D01*
X028126Y036953D02*
X028126Y037200D01*
X028250Y034253D02*
X028497Y034253D01*
X028312Y034253D02*
X028312Y034006D01*
X028250Y034006D02*
X028126Y034130D01*
X028250Y034253D01*
X028250Y034006D02*
X028497Y034006D01*
D18*
X029472Y034101D02*
X029619Y034101D01*
X029545Y034101D02*
X029545Y034322D01*
X029472Y034248D01*
X029693Y034285D02*
X029693Y034138D01*
X029840Y034285D01*
X029840Y034138D01*
X029803Y034101D01*
X029729Y034101D01*
X029693Y034138D01*
X029693Y034285D02*
X029729Y034322D01*
X029803Y034322D01*
X029840Y034285D01*
X029914Y034322D02*
X029914Y034101D01*
X029914Y034175D02*
X030024Y034248D01*
X029914Y034175D02*
X030024Y034101D01*
X030319Y034138D02*
X030466Y034285D01*
X030466Y034138D01*
X030429Y034101D01*
X030356Y034101D01*
X030319Y034138D01*
X030319Y034285D01*
X030356Y034322D01*
X030429Y034322D01*
X030466Y034285D01*
X030540Y034138D02*
X030577Y034138D01*
X030577Y034101D01*
X030540Y034101D01*
X030540Y034138D01*
X030650Y034101D02*
X030797Y034101D01*
X030724Y034101D02*
X030724Y034322D01*
X030650Y034248D01*
X030871Y034285D02*
X030871Y034322D01*
X030908Y034322D01*
X030908Y034285D01*
X030871Y034285D01*
X030871Y034101D02*
X031055Y034322D01*
X031055Y034138D02*
X031055Y034101D01*
X031018Y034101D01*
X031018Y034138D01*
X031055Y034138D01*
X031472Y034101D02*
X031619Y034101D01*
X031545Y034101D02*
X031545Y034322D01*
X031472Y034248D01*
X031693Y034285D02*
X031693Y034138D01*
X031840Y034285D01*
X031840Y034138D01*
X031803Y034101D01*
X031729Y034101D01*
X031693Y034138D01*
X031693Y034285D02*
X031729Y034322D01*
X031803Y034322D01*
X031840Y034285D01*
X031914Y034322D02*
X031914Y034101D01*
X031914Y034175D02*
X032024Y034248D01*
X031914Y034175D02*
X032024Y034101D01*
X032319Y034138D02*
X032466Y034285D01*
X032466Y034138D01*
X032429Y034101D01*
X032356Y034101D01*
X032319Y034138D01*
X032319Y034285D01*
X032356Y034322D01*
X032429Y034322D01*
X032466Y034285D01*
X032540Y034138D02*
X032577Y034138D01*
X032577Y034101D01*
X032540Y034101D01*
X032540Y034138D01*
X032650Y034101D02*
X032797Y034101D01*
X032724Y034101D02*
X032724Y034322D01*
X032650Y034248D01*
X032871Y034285D02*
X032871Y034322D01*
X032908Y034322D01*
X032908Y034285D01*
X032871Y034285D01*
X032871Y034101D02*
X033055Y034322D01*
X033055Y034138D02*
X033055Y034101D01*
X033018Y034101D01*
X033018Y034138D01*
X033055Y034138D01*
X033472Y034212D02*
X033619Y034212D01*
X033693Y034285D02*
X033693Y034138D01*
X033840Y034285D01*
X033840Y034138D01*
X033803Y034101D01*
X033729Y034101D01*
X033693Y034138D01*
X033582Y034101D02*
X033582Y034322D01*
X033472Y034212D01*
X033693Y034285D02*
X033729Y034322D01*
X033803Y034322D01*
X033840Y034285D01*
X033914Y034285D02*
X033950Y034322D01*
X034024Y034322D01*
X034061Y034285D01*
X033914Y034138D01*
X033950Y034101D01*
X034024Y034101D01*
X034061Y034138D01*
X034061Y034285D01*
X033914Y034285D02*
X033914Y034138D01*
X033853Y033772D02*
X033779Y033772D01*
X033743Y033735D01*
X033669Y033735D02*
X033669Y033662D01*
X033632Y033625D01*
X033522Y033625D01*
X033595Y033625D02*
X033669Y033551D01*
X033743Y033551D02*
X033890Y033698D01*
X033890Y033735D01*
X033853Y033772D01*
X033964Y033735D02*
X034000Y033772D01*
X034074Y033772D01*
X034111Y033735D01*
X033964Y033588D01*
X034000Y033551D01*
X034074Y033551D01*
X034111Y033588D01*
X034111Y033735D01*
X033964Y033735D02*
X033964Y033588D01*
X033890Y033551D02*
X033743Y033551D01*
X033669Y033735D02*
X033632Y033772D01*
X033522Y033772D01*
X033522Y033551D01*
X033582Y032822D02*
X033472Y032712D01*
X033619Y032712D01*
X033693Y032785D02*
X033693Y032638D01*
X033840Y032785D01*
X033840Y032638D01*
X033803Y032601D01*
X033729Y032601D01*
X033693Y032638D01*
X033582Y032601D02*
X033582Y032822D01*
X033693Y032785D02*
X033729Y032822D01*
X033803Y032822D01*
X033840Y032785D01*
X033914Y032785D02*
X033950Y032822D01*
X034024Y032822D01*
X034061Y032785D01*
X033914Y032638D01*
X033950Y032601D01*
X034024Y032601D01*
X034061Y032638D01*
X034061Y032785D01*
X033914Y032785D02*
X033914Y032638D01*
X033055Y032638D02*
X033055Y032601D01*
X033018Y032601D01*
X033018Y032638D01*
X033055Y032638D01*
X033055Y032822D02*
X032871Y032601D01*
X032797Y032601D02*
X032650Y032601D01*
X032577Y032601D02*
X032540Y032601D01*
X032540Y032638D01*
X032577Y032638D01*
X032577Y032601D01*
X032466Y032638D02*
X032429Y032601D01*
X032356Y032601D01*
X032319Y032638D01*
X032466Y032785D01*
X032466Y032638D01*
X032466Y032785D02*
X032429Y032822D01*
X032356Y032822D01*
X032319Y032785D01*
X032319Y032638D01*
X032024Y032601D02*
X031914Y032675D01*
X032024Y032748D01*
X031914Y032822D02*
X031914Y032601D01*
X031840Y032638D02*
X031803Y032601D01*
X031729Y032601D01*
X031693Y032638D01*
X031840Y032785D01*
X031840Y032638D01*
X031840Y032785D02*
X031803Y032822D01*
X031729Y032822D01*
X031693Y032785D01*
X031693Y032638D01*
X031619Y032601D02*
X031472Y032601D01*
X031545Y032601D02*
X031545Y032822D01*
X031472Y032748D01*
X031055Y032822D02*
X030871Y032601D01*
X030797Y032601D02*
X030650Y032601D01*
X030577Y032601D02*
X030540Y032601D01*
X030540Y032638D01*
X030577Y032638D01*
X030577Y032601D01*
X030466Y032638D02*
X030429Y032601D01*
X030356Y032601D01*
X030319Y032638D01*
X030466Y032785D01*
X030466Y032638D01*
X030466Y032785D02*
X030429Y032822D01*
X030356Y032822D01*
X030319Y032785D01*
X030319Y032638D01*
X030024Y032601D02*
X029914Y032675D01*
X030024Y032748D01*
X029914Y032822D02*
X029914Y032601D01*
X029840Y032638D02*
X029803Y032601D01*
X029729Y032601D01*
X029693Y032638D01*
X029840Y032785D01*
X029840Y032638D01*
X029840Y032785D02*
X029803Y032822D01*
X029729Y032822D01*
X029693Y032785D01*
X029693Y032638D01*
X029619Y032601D02*
X029472Y032601D01*
X029545Y032601D02*
X029545Y032822D01*
X029472Y032748D01*
X029522Y033551D02*
X029522Y033772D01*
X029632Y033772D01*
X029669Y033735D01*
X029669Y033662D01*
X029632Y033625D01*
X029522Y033625D01*
X029595Y033625D02*
X029669Y033551D01*
X029743Y033588D02*
X029779Y033551D01*
X029853Y033551D01*
X029890Y033588D01*
X029890Y033625D01*
X029853Y033662D01*
X029816Y033662D01*
X029853Y033662D02*
X029890Y033698D01*
X029890Y033735D01*
X029853Y033772D01*
X029779Y033772D01*
X029743Y033735D01*
X030724Y032822D02*
X030724Y032601D01*
X030650Y032748D02*
X030724Y032822D01*
X030871Y032822D02*
X030871Y032785D01*
X030908Y032785D01*
X030908Y032822D01*
X030871Y032822D01*
X031018Y032638D02*
X031055Y032638D01*
X031055Y032601D01*
X031018Y032601D01*
X031018Y032638D01*
X031522Y033551D02*
X031522Y033772D01*
X031632Y033772D01*
X031669Y033735D01*
X031669Y033662D01*
X031632Y033625D01*
X031522Y033625D01*
X031595Y033625D02*
X031669Y033551D01*
X031743Y033551D02*
X031890Y033551D01*
X031816Y033551D02*
X031816Y033772D01*
X031743Y033698D01*
X031964Y033735D02*
X032000Y033772D01*
X032074Y033772D01*
X032111Y033735D01*
X031964Y033588D01*
X032000Y033551D01*
X032074Y033551D01*
X032111Y033588D01*
X032111Y033735D01*
X031964Y033735D02*
X031964Y033588D01*
X032724Y032822D02*
X032724Y032601D01*
X032650Y032748D02*
X032724Y032822D01*
X032871Y032822D02*
X032871Y032785D01*
X032908Y032785D01*
X032908Y032822D01*
X032871Y032822D01*
X033522Y035051D02*
X033522Y035272D01*
X033632Y035272D01*
X033669Y035235D01*
X033669Y035162D01*
X033632Y035125D01*
X033522Y035125D01*
X033595Y035125D02*
X033669Y035051D01*
X033743Y035051D02*
X033890Y035051D01*
X033816Y035051D02*
X033816Y035272D01*
X033743Y035198D01*
X033964Y035198D02*
X034000Y035162D01*
X034111Y035162D01*
X034111Y035235D02*
X034074Y035272D01*
X034000Y035272D01*
X033964Y035235D01*
X033964Y035198D01*
X033964Y035088D02*
X034000Y035051D01*
X034074Y035051D01*
X034111Y035088D01*
X034111Y035235D01*
X033055Y035601D02*
X033018Y035601D01*
X033018Y035638D01*
X033055Y035638D01*
X033055Y035601D01*
X032871Y035601D02*
X033055Y035822D01*
X032908Y035822D02*
X032908Y035785D01*
X032871Y035785D01*
X032871Y035822D01*
X032908Y035822D01*
X032724Y035822D02*
X032724Y035601D01*
X032797Y035601D02*
X032650Y035601D01*
X032577Y035601D02*
X032540Y035601D01*
X032540Y035638D01*
X032577Y035638D01*
X032577Y035601D01*
X032466Y035638D02*
X032429Y035601D01*
X032356Y035601D01*
X032319Y035638D01*
X032466Y035785D01*
X032466Y035638D01*
X032466Y035785D02*
X032429Y035822D01*
X032356Y035822D01*
X032319Y035785D01*
X032319Y035638D01*
X032024Y035601D02*
X031914Y035675D01*
X032024Y035748D01*
X031914Y035822D02*
X031914Y035601D01*
X031840Y035638D02*
X031803Y035601D01*
X031729Y035601D01*
X031693Y035638D01*
X031840Y035785D01*
X031840Y035638D01*
X031840Y035785D02*
X031803Y035822D01*
X031729Y035822D01*
X031693Y035785D01*
X031693Y035638D01*
X031619Y035601D02*
X031472Y035601D01*
X031545Y035601D02*
X031545Y035822D01*
X031472Y035748D01*
X031055Y035822D02*
X030871Y035601D01*
X030797Y035601D02*
X030650Y035601D01*
X030577Y035601D02*
X030540Y035601D01*
X030540Y035638D01*
X030577Y035638D01*
X030577Y035601D01*
X030466Y035638D02*
X030429Y035601D01*
X030356Y035601D01*
X030319Y035638D01*
X030466Y035785D01*
X030466Y035638D01*
X030466Y035785D02*
X030429Y035822D01*
X030356Y035822D01*
X030319Y035785D01*
X030319Y035638D01*
X030024Y035601D02*
X029914Y035675D01*
X030024Y035748D01*
X029914Y035822D02*
X029914Y035601D01*
X029840Y035638D02*
X029803Y035601D01*
X029729Y035601D01*
X029693Y035638D01*
X029840Y035785D01*
X029840Y035638D01*
X029840Y035785D02*
X029803Y035822D01*
X029729Y035822D01*
X029693Y035785D01*
X029693Y035638D01*
X029619Y035601D02*
X029472Y035601D01*
X029545Y035601D02*
X029545Y035822D01*
X029472Y035748D01*
X029522Y035272D02*
X029632Y035272D01*
X029669Y035235D01*
X029669Y035162D01*
X029632Y035125D01*
X029522Y035125D01*
X029595Y035125D02*
X029669Y035051D01*
X029743Y035088D02*
X029743Y035125D01*
X029779Y035162D01*
X029853Y035162D01*
X029890Y035125D01*
X029890Y035088D01*
X029853Y035051D01*
X029779Y035051D01*
X029743Y035088D01*
X029779Y035162D02*
X029743Y035198D01*
X029743Y035235D01*
X029779Y035272D01*
X029853Y035272D01*
X029890Y035235D01*
X029890Y035198D01*
X029853Y035162D01*
X029522Y035272D02*
X029522Y035051D01*
X030724Y035601D02*
X030724Y035822D01*
X030650Y035748D01*
X030871Y035785D02*
X030871Y035822D01*
X030908Y035822D01*
X030908Y035785D01*
X030871Y035785D01*
X031018Y035638D02*
X031055Y035638D01*
X031055Y035601D01*
X031018Y035601D01*
X031018Y035638D01*
X031522Y035272D02*
X031632Y035272D01*
X031669Y035235D01*
X031669Y035162D01*
X031632Y035125D01*
X031522Y035125D01*
X031595Y035125D02*
X031669Y035051D01*
X031743Y035051D02*
X031890Y035051D01*
X031816Y035051D02*
X031816Y035272D01*
X031743Y035198D01*
X031964Y035198D02*
X031964Y035235D01*
X032000Y035272D01*
X032074Y035272D01*
X032111Y035235D01*
X032111Y035198D01*
X032074Y035162D01*
X032000Y035162D01*
X031964Y035198D01*
X032000Y035162D02*
X031964Y035125D01*
X031964Y035088D01*
X032000Y035051D01*
X032074Y035051D01*
X032111Y035088D01*
X032111Y035125D01*
X032074Y035162D01*
X031522Y035272D02*
X031522Y035051D01*
X032650Y035748D02*
X032724Y035822D01*
X032074Y036551D02*
X032000Y036551D01*
X031964Y036588D01*
X031964Y036662D02*
X032037Y036698D01*
X032074Y036698D01*
X032111Y036662D01*
X032111Y036588D01*
X032074Y036551D01*
X031964Y036662D02*
X031964Y036772D01*
X032111Y036772D01*
X031816Y036772D02*
X031816Y036551D01*
X031743Y036551D02*
X031890Y036551D01*
X031743Y036698D02*
X031816Y036772D01*
X031669Y036735D02*
X031669Y036662D01*
X031632Y036625D01*
X031522Y036625D01*
X031595Y036625D02*
X031669Y036551D01*
X031522Y036551D02*
X031522Y036772D01*
X031632Y036772D01*
X031669Y036735D01*
X029890Y036735D02*
X029743Y036588D01*
X029743Y036551D01*
X029669Y036551D02*
X029595Y036625D01*
X029632Y036625D02*
X029522Y036625D01*
X029522Y036551D02*
X029522Y036772D01*
X029632Y036772D01*
X029669Y036735D01*
X029669Y036662D01*
X029632Y036625D01*
X029743Y036772D02*
X029890Y036772D01*
X029890Y036735D01*
X027341Y033747D02*
X027341Y033526D01*
X027268Y033526D02*
X027415Y033526D01*
X027268Y033673D02*
X027341Y033747D01*
X027194Y033710D02*
X027157Y033747D01*
X027084Y033747D01*
X027047Y033710D01*
X027047Y033563D01*
X027084Y033526D01*
X027157Y033526D01*
X027194Y033563D01*
X027107Y032847D02*
X027144Y032810D01*
X026997Y032663D01*
X027034Y032626D01*
X027107Y032626D01*
X027144Y032663D01*
X027144Y032810D01*
X027107Y032847D02*
X027034Y032847D01*
X026997Y032810D01*
X026997Y032663D01*
X027218Y032663D02*
X027254Y032663D01*
X027254Y032626D01*
X027218Y032626D01*
X027218Y032663D01*
X027328Y032626D02*
X027475Y032773D01*
X027475Y032810D01*
X027438Y032847D01*
X027365Y032847D01*
X027328Y032810D01*
X027328Y032626D02*
X027475Y032626D01*
X027549Y032626D02*
X027696Y032773D01*
X027696Y032810D01*
X027659Y032847D01*
X027586Y032847D01*
X027549Y032810D01*
X027549Y032626D02*
X027696Y032626D01*
X027770Y032663D02*
X027807Y032626D01*
X027917Y032626D01*
X027917Y032773D01*
X027991Y032737D02*
X028065Y032737D01*
X027991Y032847D02*
X028138Y032847D01*
X027991Y032847D02*
X027991Y032626D01*
X027770Y032663D02*
X027770Y032773D01*
X026138Y032847D02*
X025991Y032847D01*
X025991Y032626D01*
X025917Y032626D02*
X025917Y032773D01*
X025991Y032737D02*
X026065Y032737D01*
X025917Y032626D02*
X025807Y032626D01*
X025770Y032663D01*
X025770Y032773D01*
X025696Y032773D02*
X025696Y032810D01*
X025659Y032847D01*
X025586Y032847D01*
X025549Y032810D01*
X025475Y032810D02*
X025438Y032847D01*
X025365Y032847D01*
X025328Y032810D01*
X025475Y032810D02*
X025475Y032773D01*
X025328Y032626D01*
X025475Y032626D01*
X025549Y032626D02*
X025696Y032773D01*
X025696Y032626D02*
X025549Y032626D01*
X025254Y032626D02*
X025218Y032626D01*
X025218Y032663D01*
X025254Y032663D01*
X025254Y032626D01*
X025144Y032663D02*
X025107Y032626D01*
X025034Y032626D01*
X024997Y032663D01*
X025144Y032810D01*
X025144Y032663D01*
X025144Y032810D02*
X025107Y032847D01*
X025034Y032847D01*
X024997Y032810D01*
X024997Y032663D01*
X025084Y033526D02*
X025157Y033526D01*
X025194Y033563D01*
X025268Y033526D02*
X025415Y033673D01*
X025415Y033710D01*
X025378Y033747D01*
X025304Y033747D01*
X025268Y033710D01*
X025194Y033710D02*
X025157Y033747D01*
X025084Y033747D01*
X025047Y033710D01*
X025047Y033563D01*
X025084Y033526D01*
X025268Y033526D02*
X025415Y033526D01*
X023417Y032847D02*
X023270Y032847D01*
X023270Y032626D01*
X023196Y032626D02*
X023196Y032773D01*
X023270Y032737D02*
X023344Y032737D01*
X023196Y032626D02*
X023086Y032626D01*
X023049Y032663D01*
X023049Y032773D01*
X022975Y032626D02*
X022828Y032626D01*
X022754Y032626D02*
X022718Y032626D01*
X022718Y032663D01*
X022754Y032663D01*
X022754Y032626D01*
X022644Y032663D02*
X022644Y032810D01*
X022497Y032663D01*
X022534Y032626D01*
X022607Y032626D01*
X022644Y032663D01*
X022644Y032810D02*
X022607Y032847D01*
X022534Y032847D01*
X022497Y032810D01*
X022497Y032663D01*
X022828Y032773D02*
X022902Y032847D01*
X022902Y032626D01*
X022915Y033526D02*
X022768Y033526D01*
X022841Y033526D02*
X022841Y033747D01*
X022768Y033673D01*
X022694Y033710D02*
X022657Y033747D01*
X022584Y033747D01*
X022547Y033710D01*
X022547Y033563D01*
X022584Y033526D01*
X022657Y033526D01*
X022694Y033563D01*
X022989Y033563D02*
X023136Y033710D01*
X023136Y033563D01*
X023099Y033526D01*
X023025Y033526D01*
X022989Y033563D01*
X022989Y033710D01*
X023025Y033747D01*
X023099Y033747D01*
X023136Y033710D01*
X023086Y034126D02*
X023196Y034126D01*
X023196Y034273D01*
X023270Y034237D02*
X023344Y034237D01*
X023270Y034347D02*
X023417Y034347D01*
X023270Y034347D02*
X023270Y034126D01*
X023086Y034126D02*
X023049Y034163D01*
X023049Y034273D01*
X022975Y034126D02*
X022828Y034126D01*
X022754Y034126D02*
X022718Y034126D01*
X022718Y034163D01*
X022754Y034163D01*
X022754Y034126D01*
X022644Y034163D02*
X022644Y034310D01*
X022497Y034163D01*
X022534Y034126D01*
X022607Y034126D01*
X022644Y034163D01*
X022644Y034310D02*
X022607Y034347D01*
X022534Y034347D01*
X022497Y034310D01*
X022497Y034163D01*
X022828Y034273D02*
X022902Y034347D01*
X022902Y034126D01*
X022915Y035026D02*
X022768Y035026D01*
X022915Y035173D01*
X022915Y035210D01*
X022878Y035247D01*
X022804Y035247D01*
X022768Y035210D01*
X022694Y035210D02*
X022657Y035247D01*
X022584Y035247D01*
X022547Y035210D01*
X022547Y035063D01*
X022584Y035026D01*
X022657Y035026D01*
X022694Y035063D01*
X022989Y035063D02*
X022989Y035026D01*
X022989Y035063D02*
X023136Y035210D01*
X023136Y035247D01*
X022989Y035247D01*
X022975Y035626D02*
X022828Y035626D01*
X022754Y035626D02*
X022718Y035626D01*
X022718Y035663D01*
X022754Y035663D01*
X022754Y035626D01*
X022644Y035663D02*
X022644Y035810D01*
X022497Y035663D01*
X022534Y035626D01*
X022607Y035626D01*
X022644Y035663D01*
X022644Y035810D02*
X022607Y035847D01*
X022534Y035847D01*
X022497Y035810D01*
X022497Y035663D01*
X022828Y035773D02*
X022902Y035847D01*
X022902Y035626D01*
X023049Y035663D02*
X023086Y035626D01*
X023196Y035626D01*
X023196Y035773D01*
X023270Y035737D02*
X023344Y035737D01*
X023270Y035847D02*
X023417Y035847D01*
X023270Y035847D02*
X023270Y035626D01*
X023049Y035663D02*
X023049Y035773D01*
X023025Y036526D02*
X022989Y036563D01*
X023136Y036710D01*
X023136Y036563D01*
X023099Y036526D01*
X023025Y036526D01*
X022989Y036563D02*
X022989Y036710D01*
X023025Y036747D01*
X023099Y036747D01*
X023136Y036710D01*
X022915Y036710D02*
X022915Y036673D01*
X022878Y036637D01*
X022915Y036600D01*
X022915Y036563D01*
X022878Y036526D01*
X022804Y036526D01*
X022768Y036563D01*
X022694Y036563D02*
X022657Y036526D01*
X022584Y036526D01*
X022547Y036563D01*
X022547Y036710D01*
X022584Y036747D01*
X022657Y036747D01*
X022694Y036710D01*
X022768Y036710D02*
X022804Y036747D01*
X022878Y036747D01*
X022915Y036710D01*
X022878Y036637D02*
X022841Y036637D01*
X021417Y035847D02*
X021270Y035847D01*
X021270Y035626D01*
X021196Y035626D02*
X021196Y035773D01*
X021270Y035737D02*
X021344Y035737D01*
X021196Y035626D02*
X021086Y035626D01*
X021049Y035663D01*
X021049Y035773D01*
X020975Y035626D02*
X020828Y035626D01*
X020754Y035626D02*
X020718Y035626D01*
X020718Y035663D01*
X020754Y035663D01*
X020754Y035626D01*
X020644Y035663D02*
X020644Y035810D01*
X020497Y035663D01*
X020534Y035626D01*
X020607Y035626D01*
X020644Y035663D01*
X020644Y035810D02*
X020607Y035847D01*
X020534Y035847D01*
X020497Y035810D01*
X020497Y035663D01*
X020828Y035773D02*
X020902Y035847D01*
X020902Y035626D01*
X020878Y035247D02*
X020804Y035247D01*
X020768Y035210D01*
X020694Y035210D02*
X020657Y035247D01*
X020584Y035247D01*
X020547Y035210D01*
X020547Y035063D01*
X020584Y035026D01*
X020657Y035026D01*
X020694Y035063D01*
X020768Y035026D02*
X020915Y035173D01*
X020915Y035210D01*
X020878Y035247D01*
X020989Y035247D02*
X020989Y035137D01*
X021062Y035173D01*
X021099Y035173D01*
X021136Y035137D01*
X021136Y035063D01*
X021099Y035026D01*
X021025Y035026D01*
X020989Y035063D01*
X020915Y035026D02*
X020768Y035026D01*
X020989Y035247D02*
X021136Y035247D01*
X021270Y034347D02*
X021417Y034347D01*
X021344Y034237D02*
X021270Y034237D01*
X021196Y034273D02*
X021196Y034126D01*
X021086Y034126D01*
X021049Y034163D01*
X021049Y034273D01*
X020975Y034126D02*
X020828Y034126D01*
X020754Y034126D02*
X020718Y034126D01*
X020718Y034163D01*
X020754Y034163D01*
X020754Y034126D01*
X020644Y034163D02*
X020644Y034310D01*
X020497Y034163D01*
X020534Y034126D01*
X020607Y034126D01*
X020644Y034163D01*
X020644Y034310D02*
X020607Y034347D01*
X020534Y034347D01*
X020497Y034310D01*
X020497Y034163D01*
X020828Y034273D02*
X020902Y034347D01*
X020902Y034126D01*
X021270Y034126D02*
X021270Y034347D01*
X021136Y033747D02*
X021062Y033710D01*
X020989Y033637D01*
X021099Y033637D01*
X021136Y033600D01*
X021136Y033563D01*
X021099Y033526D01*
X021025Y033526D01*
X020989Y033563D01*
X020989Y033637D01*
X020915Y033673D02*
X020915Y033710D01*
X020878Y033747D01*
X020804Y033747D01*
X020768Y033710D01*
X020694Y033710D02*
X020657Y033747D01*
X020584Y033747D01*
X020547Y033710D01*
X020547Y033563D01*
X020584Y033526D01*
X020657Y033526D01*
X020694Y033563D01*
X020768Y033526D02*
X020915Y033673D01*
X020915Y033526D02*
X020768Y033526D01*
X020902Y032847D02*
X020902Y032626D01*
X020975Y032626D02*
X020828Y032626D01*
X020754Y032626D02*
X020718Y032626D01*
X020718Y032663D01*
X020754Y032663D01*
X020754Y032626D01*
X020644Y032663D02*
X020644Y032810D01*
X020497Y032663D01*
X020534Y032626D01*
X020607Y032626D01*
X020644Y032663D01*
X020644Y032810D02*
X020607Y032847D01*
X020534Y032847D01*
X020497Y032810D01*
X020497Y032663D01*
X020828Y032773D02*
X020902Y032847D01*
X021049Y032773D02*
X021049Y032663D01*
X021086Y032626D01*
X021196Y032626D01*
X021196Y032773D01*
X021270Y032737D02*
X021344Y032737D01*
X021270Y032847D02*
X021417Y032847D01*
X021270Y032847D02*
X021270Y032626D01*
X019417Y032847D02*
X019270Y032847D01*
X019270Y032626D01*
X019196Y032626D02*
X019196Y032773D01*
X019270Y032737D02*
X019344Y032737D01*
X019196Y032626D02*
X019086Y032626D01*
X019049Y032663D01*
X019049Y032773D01*
X018975Y032626D02*
X018828Y032626D01*
X018754Y032626D02*
X018718Y032626D01*
X018718Y032663D01*
X018754Y032663D01*
X018754Y032626D01*
X018644Y032663D02*
X018607Y032626D01*
X018534Y032626D01*
X018497Y032663D01*
X018644Y032810D01*
X018644Y032663D01*
X018644Y032810D02*
X018607Y032847D01*
X018534Y032847D01*
X018497Y032810D01*
X018497Y032663D01*
X018828Y032773D02*
X018902Y032847D01*
X018902Y032626D01*
X018915Y033526D02*
X018768Y033526D01*
X018915Y033673D01*
X018915Y033710D01*
X018878Y033747D01*
X018804Y033747D01*
X018768Y033710D01*
X018694Y033710D02*
X018657Y033747D01*
X018584Y033747D01*
X018547Y033710D01*
X018547Y033563D01*
X018584Y033526D01*
X018657Y033526D01*
X018694Y033563D01*
X018989Y033563D02*
X018989Y033600D01*
X019025Y033637D01*
X019099Y033637D01*
X019136Y033600D01*
X019136Y033563D01*
X019099Y033526D01*
X019025Y033526D01*
X018989Y033563D01*
X019025Y033637D02*
X018989Y033673D01*
X018989Y033710D01*
X019025Y033747D01*
X019099Y033747D01*
X019136Y033710D01*
X019136Y033673D01*
X019099Y033637D01*
X019086Y034126D02*
X019196Y034126D01*
X019196Y034273D01*
X019270Y034237D02*
X019344Y034237D01*
X019270Y034347D02*
X019417Y034347D01*
X019270Y034347D02*
X019270Y034126D01*
X019086Y034126D02*
X019049Y034163D01*
X019049Y034273D01*
X018975Y034126D02*
X018828Y034126D01*
X018754Y034126D02*
X018718Y034126D01*
X018718Y034163D01*
X018754Y034163D01*
X018754Y034126D01*
X018644Y034163D02*
X018607Y034126D01*
X018534Y034126D01*
X018497Y034163D01*
X018644Y034310D01*
X018644Y034163D01*
X018644Y034310D02*
X018607Y034347D01*
X018534Y034347D01*
X018497Y034310D01*
X018497Y034163D01*
X018828Y034273D02*
X018902Y034347D01*
X018902Y034126D01*
X018915Y035026D02*
X018768Y035026D01*
X018915Y035173D01*
X018915Y035210D01*
X018878Y035247D01*
X018804Y035247D01*
X018768Y035210D01*
X018694Y035210D02*
X018657Y035247D01*
X018584Y035247D01*
X018547Y035210D01*
X018547Y035063D01*
X018584Y035026D01*
X018657Y035026D01*
X018694Y035063D01*
X018989Y035063D02*
X019025Y035026D01*
X019099Y035026D01*
X019136Y035063D01*
X019136Y035210D01*
X019099Y035247D01*
X019025Y035247D01*
X018989Y035210D01*
X018989Y035173D01*
X019025Y035137D01*
X019136Y035137D01*
X019086Y035626D02*
X019196Y035626D01*
X019196Y035773D01*
X019270Y035737D02*
X019344Y035737D01*
X019270Y035847D02*
X019417Y035847D01*
X019270Y035847D02*
X019270Y035626D01*
X019086Y035626D02*
X019049Y035663D01*
X019049Y035773D01*
X018975Y035626D02*
X018828Y035626D01*
X018754Y035626D02*
X018718Y035626D01*
X018718Y035663D01*
X018754Y035663D01*
X018754Y035626D01*
X018644Y035663D02*
X018607Y035626D01*
X018534Y035626D01*
X018497Y035663D01*
X018644Y035810D01*
X018644Y035663D01*
X018644Y035810D02*
X018607Y035847D01*
X018534Y035847D01*
X018497Y035810D01*
X018497Y035663D01*
X018828Y035773D02*
X018902Y035847D01*
X018902Y035626D01*
X018915Y036526D02*
X018768Y036526D01*
X018915Y036673D01*
X018915Y036710D01*
X018878Y036747D01*
X018804Y036747D01*
X018768Y036710D01*
X018694Y036710D02*
X018657Y036747D01*
X018584Y036747D01*
X018547Y036710D01*
X018547Y036563D01*
X018584Y036526D01*
X018657Y036526D01*
X018694Y036563D01*
X018989Y036637D02*
X019136Y036637D01*
X019099Y036747D02*
X018989Y036637D01*
X019099Y036747D02*
X019099Y036526D01*
X020547Y036563D02*
X020584Y036526D01*
X020657Y036526D01*
X020694Y036563D01*
X020768Y036526D02*
X020915Y036673D01*
X020915Y036710D01*
X020878Y036747D01*
X020804Y036747D01*
X020768Y036710D01*
X020694Y036710D02*
X020657Y036747D01*
X020584Y036747D01*
X020547Y036710D01*
X020547Y036563D01*
X020768Y036526D02*
X020915Y036526D01*
X020989Y036563D02*
X021025Y036526D01*
X021099Y036526D01*
X021136Y036563D01*
X021136Y036600D01*
X021099Y036637D01*
X021062Y036637D01*
X021099Y036637D02*
X021136Y036673D01*
X021136Y036710D01*
X021099Y036747D01*
X021025Y036747D01*
X020989Y036710D01*
X017555Y034322D02*
X017371Y034101D01*
X017297Y034101D02*
X017150Y034101D01*
X017077Y034101D02*
X017040Y034101D01*
X017040Y034138D01*
X017077Y034138D01*
X017077Y034101D01*
X016966Y034138D02*
X016966Y034285D01*
X016819Y034138D01*
X016856Y034101D01*
X016929Y034101D01*
X016966Y034138D01*
X016966Y034285D02*
X016929Y034322D01*
X016856Y034322D01*
X016819Y034285D01*
X016819Y034138D01*
X016524Y034101D02*
X016414Y034175D01*
X016524Y034248D01*
X016414Y034322D02*
X016414Y034101D01*
X016340Y034138D02*
X016303Y034101D01*
X016229Y034101D01*
X016193Y034138D01*
X016340Y034285D01*
X016340Y034138D01*
X016340Y034285D02*
X016303Y034322D01*
X016229Y034322D01*
X016193Y034285D01*
X016193Y034138D01*
X016119Y034101D02*
X015972Y034101D01*
X016045Y034101D02*
X016045Y034322D01*
X015972Y034248D01*
X015555Y034322D02*
X015371Y034101D01*
X015297Y034101D02*
X015150Y034101D01*
X015077Y034101D02*
X015040Y034101D01*
X015040Y034138D01*
X015077Y034138D01*
X015077Y034101D01*
X014966Y034138D02*
X014966Y034285D01*
X014819Y034138D01*
X014856Y034101D01*
X014929Y034101D01*
X014966Y034138D01*
X014966Y034285D02*
X014929Y034322D01*
X014856Y034322D01*
X014819Y034285D01*
X014819Y034138D01*
X014524Y034101D02*
X014414Y034175D01*
X014524Y034248D01*
X014414Y034322D02*
X014414Y034101D01*
X014340Y034138D02*
X014303Y034101D01*
X014229Y034101D01*
X014193Y034138D01*
X014340Y034285D01*
X014340Y034138D01*
X014340Y034285D02*
X014303Y034322D01*
X014229Y034322D01*
X014193Y034285D01*
X014193Y034138D01*
X014119Y034101D02*
X013972Y034101D01*
X014045Y034101D02*
X014045Y034322D01*
X013972Y034248D01*
X013555Y034322D02*
X013371Y034101D01*
X013297Y034101D02*
X013150Y034101D01*
X013077Y034101D02*
X013040Y034101D01*
X013040Y034138D01*
X013077Y034138D01*
X013077Y034101D01*
X012966Y034138D02*
X012929Y034101D01*
X012856Y034101D01*
X012819Y034138D01*
X012966Y034285D01*
X012966Y034138D01*
X012966Y034285D02*
X012929Y034322D01*
X012856Y034322D01*
X012819Y034285D01*
X012819Y034138D01*
X012524Y034101D02*
X012414Y034175D01*
X012524Y034248D01*
X012414Y034322D02*
X012414Y034101D01*
X012340Y034138D02*
X012303Y034101D01*
X012229Y034101D01*
X012193Y034138D01*
X012340Y034285D01*
X012340Y034138D01*
X012340Y034285D02*
X012303Y034322D01*
X012229Y034322D01*
X012193Y034285D01*
X012193Y034138D01*
X012119Y034101D02*
X011972Y034101D01*
X012045Y034101D02*
X012045Y034322D01*
X011972Y034248D01*
X011555Y034322D02*
X011371Y034101D01*
X011297Y034101D02*
X011150Y034101D01*
X011077Y034101D02*
X011040Y034101D01*
X011040Y034138D01*
X011077Y034138D01*
X011077Y034101D01*
X010966Y034138D02*
X010929Y034101D01*
X010856Y034101D01*
X010819Y034138D01*
X010966Y034285D01*
X010966Y034138D01*
X010966Y034285D02*
X010929Y034322D01*
X010856Y034322D01*
X010819Y034285D01*
X010819Y034138D01*
X010524Y034101D02*
X010414Y034175D01*
X010524Y034248D01*
X010414Y034322D02*
X010414Y034101D01*
X010340Y034138D02*
X010303Y034101D01*
X010229Y034101D01*
X010193Y034138D01*
X010340Y034285D01*
X010340Y034138D01*
X010340Y034285D02*
X010303Y034322D01*
X010229Y034322D01*
X010193Y034285D01*
X010193Y034138D01*
X010119Y034101D02*
X009972Y034101D01*
X010045Y034101D02*
X010045Y034322D01*
X009972Y034248D01*
X009555Y034322D02*
X009371Y034101D01*
X009297Y034101D02*
X009150Y034101D01*
X009077Y034101D02*
X009040Y034101D01*
X009040Y034138D01*
X009077Y034138D01*
X009077Y034101D01*
X008966Y034138D02*
X008929Y034101D01*
X008856Y034101D01*
X008819Y034138D01*
X008966Y034285D01*
X008966Y034138D01*
X008966Y034285D02*
X008929Y034322D01*
X008856Y034322D01*
X008819Y034285D01*
X008819Y034138D01*
X008524Y034101D02*
X008414Y034175D01*
X008524Y034248D01*
X008414Y034322D02*
X008414Y034101D01*
X008340Y034138D02*
X008303Y034101D01*
X008229Y034101D01*
X008193Y034138D01*
X008340Y034285D01*
X008340Y034138D01*
X008340Y034285D02*
X008303Y034322D01*
X008229Y034322D01*
X008193Y034285D01*
X008193Y034138D01*
X008119Y034101D02*
X007972Y034101D01*
X008045Y034101D02*
X008045Y034322D01*
X007972Y034248D01*
X008022Y033772D02*
X008132Y033772D01*
X008169Y033735D01*
X008169Y033662D01*
X008132Y033625D01*
X008022Y033625D01*
X008095Y033625D02*
X008169Y033551D01*
X008243Y033551D02*
X008390Y033551D01*
X008316Y033551D02*
X008316Y033772D01*
X008243Y033698D01*
X008464Y033662D02*
X008611Y033662D01*
X008574Y033772D02*
X008464Y033662D01*
X008574Y033772D02*
X008574Y033551D01*
X009224Y034101D02*
X009224Y034322D01*
X009150Y034248D01*
X009371Y034285D02*
X009371Y034322D01*
X009408Y034322D01*
X009408Y034285D01*
X009371Y034285D01*
X009518Y034138D02*
X009555Y034138D01*
X009555Y034101D01*
X009518Y034101D01*
X009518Y034138D01*
X010022Y033772D02*
X010132Y033772D01*
X010169Y033735D01*
X010169Y033662D01*
X010132Y033625D01*
X010022Y033625D01*
X010095Y033625D02*
X010169Y033551D01*
X010243Y033551D02*
X010390Y033551D01*
X010464Y033551D02*
X010464Y033588D01*
X010611Y033735D01*
X010611Y033772D01*
X010464Y033772D01*
X010316Y033772D02*
X010316Y033551D01*
X010243Y033698D02*
X010316Y033772D01*
X010022Y033772D02*
X010022Y033551D01*
X010045Y032822D02*
X010045Y032601D01*
X009972Y032601D02*
X010119Y032601D01*
X010193Y032638D02*
X010340Y032785D01*
X010340Y032638D01*
X010303Y032601D01*
X010229Y032601D01*
X010193Y032638D01*
X010193Y032785D01*
X010229Y032822D01*
X010303Y032822D01*
X010340Y032785D01*
X010414Y032822D02*
X010414Y032601D01*
X010414Y032675D02*
X010524Y032748D01*
X010414Y032675D02*
X010524Y032601D01*
X010819Y032638D02*
X010819Y032785D01*
X010856Y032822D01*
X010929Y032822D01*
X010966Y032785D01*
X010819Y032638D01*
X010856Y032601D01*
X010929Y032601D01*
X010966Y032638D01*
X010966Y032785D01*
X011040Y032638D02*
X011077Y032638D01*
X011077Y032601D01*
X011040Y032601D01*
X011040Y032638D01*
X011150Y032601D02*
X011297Y032601D01*
X011224Y032601D02*
X011224Y032822D01*
X011150Y032748D01*
X011371Y032785D02*
X011371Y032822D01*
X011408Y032822D01*
X011408Y032785D01*
X011371Y032785D01*
X011371Y032601D02*
X011555Y032822D01*
X011555Y032638D02*
X011555Y032601D01*
X011518Y032601D01*
X011518Y032638D01*
X011555Y032638D01*
X011972Y032601D02*
X012119Y032601D01*
X012045Y032601D02*
X012045Y032822D01*
X011972Y032748D01*
X012193Y032785D02*
X012193Y032638D01*
X012340Y032785D01*
X012340Y032638D01*
X012303Y032601D01*
X012229Y032601D01*
X012193Y032638D01*
X012193Y032785D02*
X012229Y032822D01*
X012303Y032822D01*
X012340Y032785D01*
X012414Y032822D02*
X012414Y032601D01*
X012414Y032675D02*
X012524Y032748D01*
X012414Y032675D02*
X012524Y032601D01*
X012819Y032638D02*
X012819Y032785D01*
X012856Y032822D01*
X012929Y032822D01*
X012966Y032785D01*
X012819Y032638D01*
X012856Y032601D01*
X012929Y032601D01*
X012966Y032638D01*
X012966Y032785D01*
X013040Y032638D02*
X013077Y032638D01*
X013077Y032601D01*
X013040Y032601D01*
X013040Y032638D01*
X013150Y032601D02*
X013297Y032601D01*
X013224Y032601D02*
X013224Y032822D01*
X013150Y032748D01*
X013371Y032785D02*
X013371Y032822D01*
X013408Y032822D01*
X013408Y032785D01*
X013371Y032785D01*
X013371Y032601D02*
X013555Y032822D01*
X013555Y032638D02*
X013555Y032601D01*
X013518Y032601D01*
X013518Y032638D01*
X013555Y032638D01*
X013972Y032601D02*
X014119Y032601D01*
X014045Y032601D02*
X014045Y032822D01*
X013972Y032748D01*
X014193Y032785D02*
X014193Y032638D01*
X014340Y032785D01*
X014340Y032638D01*
X014303Y032601D01*
X014229Y032601D01*
X014193Y032638D01*
X014193Y032785D02*
X014229Y032822D01*
X014303Y032822D01*
X014340Y032785D01*
X014414Y032822D02*
X014414Y032601D01*
X014414Y032675D02*
X014524Y032748D01*
X014414Y032675D02*
X014524Y032601D01*
X014819Y032638D02*
X014966Y032785D01*
X014966Y032638D01*
X014929Y032601D01*
X014856Y032601D01*
X014819Y032638D01*
X014819Y032785D01*
X014856Y032822D01*
X014929Y032822D01*
X014966Y032785D01*
X015040Y032638D02*
X015077Y032638D01*
X015077Y032601D01*
X015040Y032601D01*
X015040Y032638D01*
X015150Y032601D02*
X015297Y032601D01*
X015224Y032601D02*
X015224Y032822D01*
X015150Y032748D01*
X015371Y032785D02*
X015371Y032822D01*
X015408Y032822D01*
X015408Y032785D01*
X015371Y032785D01*
X015371Y032601D02*
X015555Y032822D01*
X015555Y032638D02*
X015555Y032601D01*
X015518Y032601D01*
X015518Y032638D01*
X015555Y032638D01*
X015972Y032601D02*
X016119Y032601D01*
X016045Y032601D02*
X016045Y032822D01*
X015972Y032748D01*
X016193Y032785D02*
X016229Y032822D01*
X016303Y032822D01*
X016340Y032785D01*
X016193Y032638D01*
X016229Y032601D01*
X016303Y032601D01*
X016340Y032638D01*
X016340Y032785D01*
X016414Y032822D02*
X016414Y032601D01*
X016414Y032675D02*
X016524Y032748D01*
X016414Y032675D02*
X016524Y032601D01*
X016819Y032638D02*
X016966Y032785D01*
X016966Y032638D01*
X016929Y032601D01*
X016856Y032601D01*
X016819Y032638D01*
X016819Y032785D01*
X016856Y032822D01*
X016929Y032822D01*
X016966Y032785D01*
X017040Y032638D02*
X017077Y032638D01*
X017077Y032601D01*
X017040Y032601D01*
X017040Y032638D01*
X017150Y032601D02*
X017297Y032601D01*
X017224Y032601D02*
X017224Y032822D01*
X017150Y032748D01*
X017371Y032785D02*
X017371Y032822D01*
X017408Y032822D01*
X017408Y032785D01*
X017371Y032785D01*
X017371Y032601D02*
X017555Y032822D01*
X017555Y032638D02*
X017555Y032601D01*
X017518Y032601D01*
X017518Y032638D01*
X017555Y032638D01*
X016611Y033551D02*
X016464Y033551D01*
X016537Y033551D02*
X016537Y033772D01*
X016464Y033698D01*
X016390Y033698D02*
X016390Y033735D01*
X016353Y033772D01*
X016279Y033772D01*
X016243Y033735D01*
X016169Y033735D02*
X016169Y033662D01*
X016132Y033625D01*
X016022Y033625D01*
X016095Y033625D02*
X016169Y033551D01*
X016243Y033551D02*
X016390Y033698D01*
X016390Y033551D02*
X016243Y033551D01*
X016169Y033735D02*
X016132Y033772D01*
X016022Y033772D01*
X016022Y033551D01*
X015555Y034101D02*
X015518Y034101D01*
X015518Y034138D01*
X015555Y034138D01*
X015555Y034101D01*
X015408Y034285D02*
X015371Y034285D01*
X015371Y034322D01*
X015408Y034322D01*
X015408Y034285D01*
X015224Y034322D02*
X015224Y034101D01*
X015150Y034248D02*
X015224Y034322D01*
X014611Y033735D02*
X014574Y033772D01*
X014500Y033772D01*
X014464Y033735D01*
X014390Y033735D02*
X014353Y033772D01*
X014279Y033772D01*
X014243Y033735D01*
X014169Y033735D02*
X014169Y033662D01*
X014132Y033625D01*
X014022Y033625D01*
X014095Y033625D02*
X014169Y033551D01*
X014243Y033551D02*
X014390Y033698D01*
X014390Y033735D01*
X014390Y033551D02*
X014243Y033551D01*
X014169Y033735D02*
X014132Y033772D01*
X014022Y033772D01*
X014022Y033551D01*
X014464Y033551D02*
X014611Y033698D01*
X014611Y033735D01*
X014611Y033551D02*
X014464Y033551D01*
X013555Y034101D02*
X013518Y034101D01*
X013518Y034138D01*
X013555Y034138D01*
X013555Y034101D01*
X013408Y034285D02*
X013371Y034285D01*
X013371Y034322D01*
X013408Y034322D01*
X013408Y034285D01*
X013224Y034322D02*
X013224Y034101D01*
X013150Y034248D02*
X013224Y034322D01*
X012611Y033772D02*
X012537Y033735D01*
X012464Y033662D01*
X012574Y033662D01*
X012611Y033625D01*
X012611Y033588D01*
X012574Y033551D01*
X012500Y033551D01*
X012464Y033588D01*
X012464Y033662D01*
X012390Y033551D02*
X012243Y033551D01*
X012316Y033551D02*
X012316Y033772D01*
X012243Y033698D01*
X012169Y033662D02*
X012132Y033625D01*
X012022Y033625D01*
X012095Y033625D02*
X012169Y033551D01*
X012169Y033662D02*
X012169Y033735D01*
X012132Y033772D01*
X012022Y033772D01*
X012022Y033551D01*
X011555Y034101D02*
X011518Y034101D01*
X011518Y034138D01*
X011555Y034138D01*
X011555Y034101D01*
X011408Y034285D02*
X011371Y034285D01*
X011371Y034322D01*
X011408Y034322D01*
X011408Y034285D01*
X011224Y034322D02*
X011224Y034101D01*
X011150Y034248D02*
X011224Y034322D01*
X010574Y035051D02*
X010500Y035051D01*
X010464Y035088D01*
X010390Y035051D02*
X010243Y035051D01*
X010316Y035051D02*
X010316Y035272D01*
X010243Y035198D01*
X010169Y035162D02*
X010132Y035125D01*
X010022Y035125D01*
X010095Y035125D02*
X010169Y035051D01*
X010169Y035162D02*
X010169Y035235D01*
X010132Y035272D01*
X010022Y035272D01*
X010022Y035051D01*
X010464Y035235D02*
X010500Y035272D01*
X010574Y035272D01*
X010611Y035235D01*
X010611Y035198D01*
X010574Y035162D01*
X010611Y035125D01*
X010611Y035088D01*
X010574Y035051D01*
X010574Y035162D02*
X010537Y035162D01*
X010586Y035626D02*
X010696Y035626D01*
X010696Y035773D01*
X010770Y035737D02*
X010844Y035737D01*
X010770Y035847D02*
X010917Y035847D01*
X010770Y035847D02*
X010770Y035626D01*
X010586Y035626D02*
X010549Y035663D01*
X010549Y035773D01*
X010475Y035626D02*
X010328Y035626D01*
X010254Y035626D02*
X010218Y035626D01*
X010218Y035663D01*
X010254Y035663D01*
X010254Y035626D01*
X010144Y035663D02*
X010107Y035626D01*
X010034Y035626D01*
X009997Y035663D01*
X010144Y035810D01*
X010144Y035663D01*
X010144Y035810D02*
X010107Y035847D01*
X010034Y035847D01*
X009997Y035810D01*
X009997Y035663D01*
X010328Y035773D02*
X010402Y035847D01*
X010402Y035626D01*
X010415Y036526D02*
X010268Y036526D01*
X010341Y036526D02*
X010341Y036747D01*
X010268Y036673D01*
X010194Y036710D02*
X010157Y036747D01*
X010084Y036747D01*
X010047Y036710D01*
X010047Y036563D01*
X010084Y036526D01*
X010157Y036526D01*
X010194Y036563D01*
X010489Y036526D02*
X010636Y036673D01*
X010636Y036710D01*
X010599Y036747D01*
X010525Y036747D01*
X010489Y036710D01*
X010489Y036526D02*
X010636Y036526D01*
X012047Y036563D02*
X012084Y036526D01*
X012157Y036526D01*
X012194Y036563D01*
X012268Y036526D02*
X012415Y036526D01*
X012341Y036526D02*
X012341Y036747D01*
X012268Y036673D01*
X012194Y036710D02*
X012157Y036747D01*
X012084Y036747D01*
X012047Y036710D01*
X012047Y036563D01*
X012489Y036563D02*
X012525Y036526D01*
X012599Y036526D01*
X012636Y036563D01*
X012636Y036600D01*
X012599Y036637D01*
X012562Y036637D01*
X012599Y036637D02*
X012636Y036673D01*
X012636Y036710D01*
X012599Y036747D01*
X012525Y036747D01*
X012489Y036710D01*
X012402Y035847D02*
X012402Y035626D01*
X012475Y035626D02*
X012328Y035626D01*
X012254Y035626D02*
X012218Y035626D01*
X012218Y035663D01*
X012254Y035663D01*
X012254Y035626D01*
X012144Y035663D02*
X012144Y035810D01*
X011997Y035663D01*
X012034Y035626D01*
X012107Y035626D01*
X012144Y035663D01*
X012144Y035810D02*
X012107Y035847D01*
X012034Y035847D01*
X011997Y035810D01*
X011997Y035663D01*
X012328Y035773D02*
X012402Y035847D01*
X012549Y035773D02*
X012549Y035663D01*
X012586Y035626D01*
X012696Y035626D01*
X012696Y035773D01*
X012770Y035737D02*
X012844Y035737D01*
X012770Y035847D02*
X012917Y035847D01*
X012770Y035847D02*
X012770Y035626D01*
X012390Y035235D02*
X012353Y035272D01*
X012279Y035272D01*
X012243Y035235D01*
X012243Y035198D01*
X012279Y035162D01*
X012390Y035162D01*
X012390Y035235D02*
X012390Y035088D01*
X012353Y035051D01*
X012279Y035051D01*
X012243Y035088D01*
X012169Y035051D02*
X012095Y035125D01*
X012132Y035125D02*
X012022Y035125D01*
X012022Y035051D02*
X012022Y035272D01*
X012132Y035272D01*
X012169Y035235D01*
X012169Y035162D01*
X012132Y035125D01*
X014022Y035125D02*
X014132Y035125D01*
X014169Y035162D01*
X014169Y035235D01*
X014132Y035272D01*
X014022Y035272D01*
X014022Y035051D01*
X014095Y035125D02*
X014169Y035051D01*
X014243Y035051D02*
X014390Y035198D01*
X014390Y035235D01*
X014353Y035272D01*
X014279Y035272D01*
X014243Y035235D01*
X014243Y035051D02*
X014390Y035051D01*
X014464Y035162D02*
X014611Y035162D01*
X014574Y035272D02*
X014464Y035162D01*
X014574Y035272D02*
X014574Y035051D01*
X014586Y035626D02*
X014549Y035663D01*
X014549Y035773D01*
X014475Y035810D02*
X014328Y035663D01*
X014365Y035626D01*
X014438Y035626D01*
X014475Y035663D01*
X014475Y035810D01*
X014438Y035847D01*
X014365Y035847D01*
X014328Y035810D01*
X014328Y035663D01*
X014254Y035663D02*
X014254Y035626D01*
X014218Y035626D01*
X014218Y035663D01*
X014254Y035663D01*
X014144Y035626D02*
X013997Y035626D01*
X014070Y035626D02*
X014070Y035847D01*
X013997Y035773D01*
X014586Y035626D02*
X014696Y035626D01*
X014696Y035773D01*
X014770Y035737D02*
X014844Y035737D01*
X014770Y035847D02*
X014917Y035847D01*
X014770Y035847D02*
X014770Y035626D01*
X014599Y036526D02*
X014525Y036526D01*
X014489Y036563D01*
X014636Y036710D01*
X014636Y036563D01*
X014599Y036526D01*
X014489Y036563D02*
X014489Y036710D01*
X014525Y036747D01*
X014599Y036747D01*
X014636Y036710D01*
X014415Y036710D02*
X014378Y036747D01*
X014304Y036747D01*
X014268Y036710D01*
X014194Y036710D02*
X014157Y036747D01*
X014084Y036747D01*
X014047Y036710D01*
X014047Y036563D01*
X014084Y036526D01*
X014157Y036526D01*
X014194Y036563D01*
X014268Y036526D02*
X014415Y036673D01*
X014415Y036710D01*
X014415Y036526D02*
X014268Y036526D01*
X016047Y036563D02*
X016084Y036526D01*
X016157Y036526D01*
X016194Y036563D01*
X016268Y036526D02*
X016415Y036526D01*
X016341Y036526D02*
X016341Y036747D01*
X016268Y036673D01*
X016194Y036710D02*
X016157Y036747D01*
X016084Y036747D01*
X016047Y036710D01*
X016047Y036563D01*
X016489Y036563D02*
X016525Y036526D01*
X016599Y036526D01*
X016636Y036563D01*
X016636Y036710D01*
X016599Y036747D01*
X016525Y036747D01*
X016489Y036710D01*
X016489Y036673D01*
X016525Y036637D01*
X016636Y036637D01*
X016770Y035847D02*
X016917Y035847D01*
X016844Y035737D02*
X016770Y035737D01*
X016696Y035773D02*
X016696Y035626D01*
X016586Y035626D01*
X016549Y035663D01*
X016549Y035773D01*
X016475Y035810D02*
X016328Y035663D01*
X016365Y035626D01*
X016438Y035626D01*
X016475Y035663D01*
X016475Y035810D01*
X016438Y035847D01*
X016365Y035847D01*
X016328Y035810D01*
X016328Y035663D01*
X016254Y035663D02*
X016254Y035626D01*
X016218Y035626D01*
X016218Y035663D01*
X016254Y035663D01*
X016144Y035626D02*
X015997Y035626D01*
X016070Y035626D02*
X016070Y035847D01*
X015997Y035773D01*
X016022Y035272D02*
X016132Y035272D01*
X016169Y035235D01*
X016169Y035162D01*
X016132Y035125D01*
X016022Y035125D01*
X016095Y035125D02*
X016169Y035051D01*
X016243Y035051D02*
X016390Y035198D01*
X016390Y035235D01*
X016353Y035272D01*
X016279Y035272D01*
X016243Y035235D01*
X016243Y035051D02*
X016390Y035051D01*
X016464Y035088D02*
X016500Y035051D01*
X016574Y035051D01*
X016611Y035088D01*
X016611Y035125D01*
X016574Y035162D01*
X016537Y035162D01*
X016574Y035162D02*
X016611Y035198D01*
X016611Y035235D01*
X016574Y035272D01*
X016500Y035272D01*
X016464Y035235D01*
X016022Y035272D02*
X016022Y035051D01*
X016770Y035626D02*
X016770Y035847D01*
X017224Y034322D02*
X017224Y034101D01*
X017150Y034248D02*
X017224Y034322D01*
X017371Y034322D02*
X017371Y034285D01*
X017408Y034285D01*
X017408Y034322D01*
X017371Y034322D01*
X017518Y034138D02*
X017555Y034138D01*
X017555Y034101D01*
X017518Y034101D01*
X017518Y034138D01*
X016193Y032785D02*
X016193Y032638D01*
X016612Y028911D02*
X020612Y028911D01*
X015612Y028911D02*
X011612Y028911D01*
X008634Y031101D02*
X008524Y031175D01*
X008634Y031248D01*
X008524Y031322D02*
X008524Y031101D01*
X008450Y031285D02*
X008303Y031138D01*
X008303Y031101D01*
X008229Y031101D02*
X008193Y031101D01*
X008193Y031138D01*
X008229Y031138D01*
X008229Y031101D01*
X008082Y031101D02*
X008082Y031322D01*
X007972Y031212D01*
X008119Y031212D01*
X008303Y031322D02*
X008450Y031322D01*
X008450Y031285D01*
X008500Y032051D02*
X008464Y032088D01*
X008464Y032125D01*
X008500Y032162D01*
X008574Y032162D01*
X008611Y032125D01*
X008611Y032088D01*
X008574Y032051D01*
X008500Y032051D01*
X008390Y032051D02*
X008243Y032051D01*
X008390Y032198D01*
X008390Y032235D01*
X008353Y032272D01*
X008279Y032272D01*
X008243Y032235D01*
X008169Y032235D02*
X008169Y032162D01*
X008132Y032125D01*
X008022Y032125D01*
X008095Y032125D02*
X008169Y032051D01*
X008022Y032051D02*
X008022Y032272D01*
X008132Y032272D01*
X008169Y032235D01*
X008464Y032235D02*
X008464Y032198D01*
X008500Y032162D01*
X008574Y032162D02*
X008611Y032198D01*
X008611Y032235D01*
X008574Y032272D01*
X008500Y032272D01*
X008464Y032235D01*
X008414Y032601D02*
X008414Y032822D01*
X008340Y032785D02*
X008193Y032638D01*
X008229Y032601D01*
X008303Y032601D01*
X008340Y032638D01*
X008340Y032785D01*
X008303Y032822D01*
X008229Y032822D01*
X008193Y032785D01*
X008193Y032638D01*
X008119Y032601D02*
X007972Y032601D01*
X008045Y032601D02*
X008045Y032822D01*
X007972Y032748D01*
X008414Y032675D02*
X008524Y032748D01*
X008414Y032675D02*
X008524Y032601D01*
X008819Y032638D02*
X008966Y032785D01*
X008966Y032638D01*
X008929Y032601D01*
X008856Y032601D01*
X008819Y032638D01*
X008819Y032785D01*
X008856Y032822D01*
X008929Y032822D01*
X008966Y032785D01*
X009040Y032638D02*
X009077Y032638D01*
X009077Y032601D01*
X009040Y032601D01*
X009040Y032638D01*
X009150Y032601D02*
X009297Y032601D01*
X009224Y032601D02*
X009224Y032822D01*
X009150Y032748D01*
X009371Y032785D02*
X009371Y032822D01*
X009408Y032822D01*
X009408Y032785D01*
X009371Y032785D01*
X009371Y032601D02*
X009555Y032822D01*
X009555Y032638D02*
X009555Y032601D01*
X009518Y032601D01*
X009518Y032638D01*
X009555Y032638D01*
X009972Y032748D02*
X010045Y032822D01*
X008022Y033551D02*
X008022Y033772D01*
X006611Y033772D02*
X006537Y033735D01*
X006464Y033662D01*
X006574Y033662D01*
X006611Y033625D01*
X006611Y033588D01*
X006574Y033551D01*
X006500Y033551D01*
X006464Y033588D01*
X006464Y033662D01*
X006390Y033698D02*
X006390Y033735D01*
X006353Y033772D01*
X006279Y033772D01*
X006243Y033735D01*
X006169Y033735D02*
X006169Y033662D01*
X006132Y033625D01*
X006022Y033625D01*
X006095Y033625D02*
X006169Y033551D01*
X006243Y033551D02*
X006390Y033698D01*
X006390Y033551D02*
X006243Y033551D01*
X006169Y033735D02*
X006132Y033772D01*
X006022Y033772D01*
X006022Y033551D01*
X006082Y034101D02*
X006082Y034322D01*
X005972Y034212D01*
X006119Y034212D01*
X006193Y034138D02*
X006229Y034138D01*
X006229Y034101D01*
X006193Y034101D01*
X006193Y034138D01*
X006303Y034138D02*
X006303Y034101D01*
X006303Y034138D02*
X006450Y034285D01*
X006450Y034322D01*
X006303Y034322D01*
X006524Y034322D02*
X006524Y034101D01*
X006524Y034175D02*
X006634Y034248D01*
X006524Y034175D02*
X006634Y034101D01*
X006574Y035051D02*
X006500Y035051D01*
X006464Y035088D01*
X006464Y035162D02*
X006537Y035198D01*
X006574Y035198D01*
X006611Y035162D01*
X006611Y035088D01*
X006574Y035051D01*
X006464Y035162D02*
X006464Y035272D01*
X006611Y035272D01*
X006390Y035235D02*
X006353Y035272D01*
X006279Y035272D01*
X006243Y035235D01*
X006169Y035235D02*
X006169Y035162D01*
X006132Y035125D01*
X006022Y035125D01*
X006095Y035125D02*
X006169Y035051D01*
X006243Y035051D02*
X006390Y035198D01*
X006390Y035235D01*
X006390Y035051D02*
X006243Y035051D01*
X006169Y035235D02*
X006132Y035272D01*
X006022Y035272D01*
X006022Y035051D01*
X006082Y035601D02*
X006082Y035822D01*
X005972Y035712D01*
X006119Y035712D01*
X006193Y035638D02*
X006229Y035638D01*
X006229Y035601D01*
X006193Y035601D01*
X006193Y035638D01*
X006303Y035638D02*
X006303Y035601D01*
X006303Y035638D02*
X006450Y035785D01*
X006450Y035822D01*
X006303Y035822D01*
X006524Y035822D02*
X006524Y035601D01*
X006524Y035675D02*
X006634Y035748D01*
X006524Y035675D02*
X006634Y035601D01*
X006353Y036551D02*
X006279Y036551D01*
X006243Y036588D01*
X006243Y036662D02*
X006316Y036698D01*
X006353Y036698D01*
X006390Y036662D01*
X006390Y036588D01*
X006353Y036551D01*
X006243Y036662D02*
X006243Y036772D01*
X006390Y036772D01*
X006169Y036735D02*
X006169Y036662D01*
X006132Y036625D01*
X006022Y036625D01*
X006095Y036625D02*
X006169Y036551D01*
X006022Y036551D02*
X006022Y036772D01*
X006132Y036772D01*
X006169Y036735D01*
X008047Y036710D02*
X008047Y036563D01*
X008084Y036526D01*
X008157Y036526D01*
X008194Y036563D01*
X008268Y036526D02*
X008415Y036526D01*
X008489Y036526D02*
X008489Y036563D01*
X008636Y036710D01*
X008636Y036747D01*
X008489Y036747D01*
X008341Y036747D02*
X008341Y036526D01*
X008268Y036673D02*
X008341Y036747D01*
X008194Y036710D02*
X008157Y036747D01*
X008084Y036747D01*
X008047Y036710D01*
X008034Y035847D02*
X008107Y035847D01*
X008144Y035810D01*
X007997Y035663D01*
X008034Y035626D01*
X008107Y035626D01*
X008144Y035663D01*
X008144Y035810D01*
X008034Y035847D02*
X007997Y035810D01*
X007997Y035663D01*
X008218Y035663D02*
X008254Y035663D01*
X008254Y035626D01*
X008218Y035626D01*
X008218Y035663D01*
X008328Y035626D02*
X008475Y035626D01*
X008402Y035626D02*
X008402Y035847D01*
X008328Y035773D01*
X008549Y035773D02*
X008549Y035663D01*
X008586Y035626D01*
X008696Y035626D01*
X008696Y035773D01*
X008770Y035737D02*
X008844Y035737D01*
X008770Y035847D02*
X008917Y035847D01*
X008770Y035847D02*
X008770Y035626D01*
X008390Y035235D02*
X008353Y035272D01*
X008279Y035272D01*
X008243Y035235D01*
X008169Y035235D02*
X008169Y035162D01*
X008132Y035125D01*
X008022Y035125D01*
X008095Y035125D02*
X008169Y035051D01*
X008243Y035051D02*
X008390Y035198D01*
X008390Y035235D01*
X008390Y035051D02*
X008243Y035051D01*
X008169Y035235D02*
X008132Y035272D01*
X008022Y035272D01*
X008022Y035051D01*
X006524Y032822D02*
X006524Y032601D01*
X006524Y032675D02*
X006634Y032748D01*
X006524Y032675D02*
X006634Y032601D01*
X006450Y032785D02*
X006303Y032638D01*
X006303Y032601D01*
X006229Y032601D02*
X006193Y032601D01*
X006193Y032638D01*
X006229Y032638D01*
X006229Y032601D01*
X006082Y032601D02*
X006082Y032822D01*
X005972Y032712D01*
X006119Y032712D01*
X006303Y032822D02*
X006450Y032822D01*
X006450Y032785D01*
X006464Y032272D02*
X006611Y032272D01*
X006611Y032235D01*
X006464Y032088D01*
X006464Y032051D01*
X006390Y032051D02*
X006243Y032051D01*
X006390Y032198D01*
X006390Y032235D01*
X006353Y032272D01*
X006279Y032272D01*
X006243Y032235D01*
X006169Y032235D02*
X006169Y032162D01*
X006132Y032125D01*
X006022Y032125D01*
X006095Y032125D02*
X006169Y032051D01*
X006022Y032051D02*
X006022Y032272D01*
X006132Y032272D01*
X006169Y032235D01*
X006082Y031322D02*
X005972Y031212D01*
X006119Y031212D01*
X006193Y031138D02*
X006229Y031138D01*
X006229Y031101D01*
X006193Y031101D01*
X006193Y031138D01*
X006303Y031138D02*
X006303Y031101D01*
X006303Y031138D02*
X006450Y031285D01*
X006450Y031322D01*
X006303Y031322D01*
X006082Y031322D02*
X006082Y031101D01*
X006524Y031101D02*
X006524Y031322D01*
X006634Y031248D02*
X006524Y031175D01*
X006634Y031101D01*
X010845Y019127D02*
X010992Y019054D01*
X010845Y018981D01*
X010882Y018906D02*
X010955Y018906D01*
X010992Y018870D01*
X010992Y018796D01*
X010955Y018760D01*
X010882Y018760D02*
X010845Y018833D01*
X010845Y018870D01*
X010882Y018906D01*
X010772Y018906D02*
X010772Y018760D01*
X010882Y018760D01*
X010845Y018685D02*
X010808Y018685D01*
X010772Y018649D01*
X010772Y018575D01*
X010808Y018539D01*
X010845Y018685D02*
X010992Y018539D01*
X010992Y018685D01*
X010772Y018243D02*
X010772Y018097D01*
X010992Y018097D01*
X010992Y018022D02*
X010845Y018022D01*
X010882Y018097D02*
X010882Y018170D01*
X010992Y018022D02*
X010992Y017912D01*
X010955Y017876D01*
X010845Y017876D01*
X010808Y017801D02*
X010955Y017655D01*
X010992Y017691D01*
X010992Y017765D01*
X010955Y017801D01*
X010808Y017801D01*
X010772Y017765D01*
X010772Y017691D01*
X010808Y017655D01*
X010955Y017655D01*
X010992Y017580D02*
X010992Y017434D01*
X010992Y017507D02*
X010772Y017507D01*
X010845Y017434D01*
X012097Y017553D02*
X012317Y017553D01*
X012317Y017480D02*
X012317Y017626D01*
X012280Y017701D02*
X012133Y017847D01*
X012280Y017847D01*
X012317Y017811D01*
X012317Y017737D01*
X012280Y017701D01*
X012133Y017701D01*
X012097Y017737D01*
X012097Y017811D01*
X012133Y017847D01*
X012170Y017922D02*
X012280Y017922D01*
X012317Y017958D01*
X012317Y018068D01*
X012170Y018068D01*
X012207Y018143D02*
X012207Y018216D01*
X012317Y018143D02*
X012097Y018143D01*
X012097Y018289D01*
X012005Y018539D02*
X012042Y018575D01*
X012042Y018649D01*
X012005Y018685D01*
X012042Y018760D02*
X011895Y018906D01*
X011858Y018906D01*
X011822Y018870D01*
X011822Y018796D01*
X011858Y018760D01*
X011858Y018685D02*
X011822Y018649D01*
X011822Y018575D01*
X011858Y018539D01*
X012005Y018539D01*
X012133Y018658D02*
X012207Y018585D01*
X012207Y018695D01*
X012243Y018731D01*
X012280Y018731D01*
X012317Y018695D01*
X012317Y018621D01*
X012280Y018585D01*
X012207Y018585D01*
X012133Y018658D02*
X012097Y018731D01*
X012042Y018760D02*
X012042Y018906D01*
X012042Y018981D02*
X012042Y019127D01*
X012042Y019054D02*
X011822Y019054D01*
X011895Y018981D01*
X012170Y018952D02*
X012317Y018879D01*
X012170Y018806D01*
X012997Y018756D02*
X012997Y018902D01*
X013033Y018902D01*
X013180Y018756D01*
X013217Y018756D01*
X013217Y018681D02*
X013217Y018535D01*
X013217Y018608D02*
X012997Y018608D01*
X013070Y018535D01*
X013033Y018460D02*
X012997Y018424D01*
X012997Y018314D01*
X013217Y018314D01*
X013217Y018424D01*
X013180Y018460D01*
X013033Y018460D01*
X013033Y018239D02*
X012997Y018203D01*
X012997Y018129D01*
X013033Y018093D01*
X013180Y018093D01*
X013217Y018129D01*
X013217Y018203D01*
X013180Y018239D01*
X012170Y017480D02*
X012097Y017553D01*
X013842Y014241D02*
X013842Y009141D01*
X013642Y007441D02*
X013642Y003941D01*
X017822Y007301D02*
X017969Y007448D01*
X017969Y007485D01*
X017932Y007522D01*
X017859Y007522D01*
X017822Y007485D01*
X017822Y007301D02*
X017969Y007301D01*
X018043Y007338D02*
X018190Y007485D01*
X018190Y007338D01*
X018153Y007301D01*
X018079Y007301D01*
X018043Y007338D01*
X018043Y007485D01*
X018079Y007522D01*
X018153Y007522D01*
X018190Y007485D01*
X018264Y007522D02*
X018264Y007301D01*
X018264Y007375D02*
X018374Y007448D01*
X018264Y007375D02*
X018374Y007301D01*
X018669Y007301D02*
X018816Y007301D01*
X018742Y007301D02*
X018742Y007522D01*
X018669Y007448D01*
X018890Y007485D02*
X018890Y007522D01*
X018927Y007522D01*
X018927Y007485D01*
X018890Y007485D01*
X018890Y007301D02*
X019073Y007522D01*
X019073Y007338D02*
X019073Y007301D01*
X019037Y007301D01*
X019037Y007338D01*
X019073Y007338D01*
X018424Y008251D02*
X018350Y008251D01*
X018314Y008288D01*
X018461Y008435D01*
X018461Y008288D01*
X018424Y008251D01*
X018314Y008288D02*
X018314Y008435D01*
X018350Y008472D01*
X018424Y008472D01*
X018461Y008435D01*
X018240Y008435D02*
X018240Y008398D01*
X018203Y008362D01*
X018240Y008325D01*
X018240Y008288D01*
X018203Y008251D01*
X018129Y008251D01*
X018093Y008288D01*
X018019Y008251D02*
X017945Y008325D01*
X017982Y008325D02*
X017872Y008325D01*
X017872Y008251D02*
X017872Y008472D01*
X017982Y008472D01*
X018019Y008435D01*
X018019Y008362D01*
X017982Y008325D01*
X018093Y008435D02*
X018129Y008472D01*
X018203Y008472D01*
X018240Y008435D01*
X018203Y008362D02*
X018166Y008362D01*
X018142Y010441D02*
X018142Y013941D01*
X021193Y008539D02*
X021266Y008466D01*
X021266Y008319D01*
X021340Y008319D02*
X021451Y008319D01*
X021487Y008356D01*
X021487Y008503D01*
X021451Y008539D01*
X021340Y008539D01*
X021340Y008319D01*
X021266Y008429D02*
X021119Y008429D01*
X021119Y008466D02*
X021193Y008539D01*
X021119Y008466D02*
X021119Y008319D01*
X021561Y008319D02*
X021708Y008539D01*
X021782Y008539D02*
X021892Y008539D01*
X021929Y008503D01*
X021929Y008429D01*
X021892Y008393D01*
X021782Y008393D01*
X021856Y008393D02*
X021929Y008319D01*
X022003Y008356D02*
X022040Y008319D01*
X022113Y008319D01*
X022150Y008356D01*
X022150Y008393D01*
X022113Y008429D01*
X022040Y008429D01*
X022003Y008466D01*
X022003Y008503D01*
X022040Y008539D01*
X022113Y008539D01*
X022150Y008503D01*
X022224Y008466D02*
X022298Y008539D01*
X022298Y008319D01*
X022371Y008319D02*
X022224Y008319D01*
X022445Y008356D02*
X022482Y008319D01*
X022555Y008319D01*
X022592Y008356D01*
X022592Y008429D01*
X022555Y008466D01*
X022519Y008466D01*
X022445Y008429D01*
X022445Y008539D01*
X022592Y008539D01*
X022666Y008503D02*
X022703Y008539D01*
X022776Y008539D01*
X022813Y008503D01*
X022666Y008356D01*
X022703Y008319D01*
X022776Y008319D01*
X022813Y008356D01*
X022813Y008503D01*
X022887Y008466D02*
X022961Y008539D01*
X023034Y008466D01*
X023034Y008319D01*
X023108Y008319D02*
X023108Y008539D01*
X023218Y008539D01*
X023255Y008503D01*
X023255Y008466D01*
X023218Y008429D01*
X023108Y008429D01*
X023034Y008429D02*
X022887Y008429D01*
X022887Y008466D02*
X022887Y008319D01*
X023108Y008319D02*
X023218Y008319D01*
X023255Y008356D01*
X023255Y008393D01*
X023218Y008429D01*
X023329Y008356D02*
X023329Y008503D01*
X023366Y008539D01*
X023439Y008539D01*
X023476Y008503D01*
X023476Y008429D02*
X023403Y008429D01*
X023476Y008429D02*
X023476Y008356D01*
X023439Y008319D01*
X023366Y008319D01*
X023329Y008356D01*
X022666Y008356D02*
X022666Y008503D01*
X021782Y008539D02*
X021782Y008319D01*
X021708Y008319D02*
X021561Y008539D01*
X030962Y013061D02*
X035072Y013061D01*
X033915Y011447D02*
X033768Y011447D01*
X033768Y011337D01*
X033841Y011373D01*
X033878Y011373D01*
X033915Y011337D01*
X033915Y011263D01*
X033878Y011226D01*
X033804Y011226D01*
X033768Y011263D01*
X033694Y011263D02*
X033657Y011226D01*
X033584Y011226D01*
X033547Y011263D01*
X033547Y011410D01*
X033584Y011447D01*
X033657Y011447D01*
X033694Y011410D01*
X033570Y010547D02*
X033570Y010326D01*
X033497Y010326D02*
X033644Y010326D01*
X033718Y010326D02*
X033754Y010326D01*
X033754Y010363D01*
X033718Y010363D01*
X033718Y010326D01*
X033828Y010363D02*
X033975Y010510D01*
X033975Y010363D01*
X033938Y010326D01*
X033865Y010326D01*
X033828Y010363D01*
X033828Y010510D01*
X033865Y010547D01*
X033938Y010547D01*
X033975Y010510D01*
X034049Y010473D02*
X034049Y010363D01*
X034086Y010326D01*
X034196Y010326D01*
X034196Y010473D01*
X034270Y010437D02*
X034344Y010437D01*
X034270Y010547D02*
X034417Y010547D01*
X034270Y010547D02*
X034270Y010326D01*
X033915Y009897D02*
X033915Y009860D01*
X033768Y009713D01*
X033768Y009676D01*
X033694Y009713D02*
X033657Y009676D01*
X033584Y009676D01*
X033547Y009713D01*
X033547Y009860D01*
X033584Y009897D01*
X033657Y009897D01*
X033694Y009860D01*
X033768Y009897D02*
X033915Y009897D01*
X033497Y010473D02*
X033570Y010547D01*
X032417Y010547D02*
X032270Y010547D01*
X032270Y010326D01*
X032196Y010326D02*
X032196Y010473D01*
X032270Y010437D02*
X032344Y010437D01*
X032196Y010326D02*
X032086Y010326D01*
X032049Y010363D01*
X032049Y010473D01*
X031975Y010510D02*
X031828Y010363D01*
X031865Y010326D01*
X031938Y010326D01*
X031975Y010363D01*
X031975Y010510D01*
X031938Y010547D01*
X031865Y010547D01*
X031828Y010510D01*
X031828Y010363D01*
X031754Y010363D02*
X031754Y010326D01*
X031718Y010326D01*
X031718Y010363D01*
X031754Y010363D01*
X031644Y010326D02*
X031497Y010326D01*
X031570Y010326D02*
X031570Y010547D01*
X031497Y010473D01*
X031584Y009897D02*
X031547Y009860D01*
X031547Y009713D01*
X031584Y009676D01*
X031657Y009676D01*
X031694Y009713D01*
X031768Y009713D02*
X031804Y009676D01*
X031878Y009676D01*
X031915Y009713D01*
X031915Y009750D01*
X031878Y009787D01*
X031768Y009787D01*
X031768Y009713D01*
X031768Y009787D02*
X031841Y009860D01*
X031915Y009897D01*
X031694Y009860D02*
X031657Y009897D01*
X031584Y009897D01*
X031570Y008997D02*
X031570Y008776D01*
X031497Y008776D02*
X031644Y008776D01*
X031718Y008776D02*
X031754Y008776D01*
X031754Y008813D01*
X031718Y008813D01*
X031718Y008776D01*
X031828Y008813D02*
X031975Y008960D01*
X031975Y008813D01*
X031938Y008776D01*
X031865Y008776D01*
X031828Y008813D01*
X031828Y008960D01*
X031865Y008997D01*
X031938Y008997D01*
X031975Y008960D01*
X032049Y008923D02*
X032049Y008813D01*
X032086Y008776D01*
X032196Y008776D01*
X032196Y008923D01*
X032270Y008887D02*
X032344Y008887D01*
X032270Y008997D02*
X032417Y008997D01*
X032270Y008997D02*
X032270Y008776D01*
X031570Y008997D02*
X031497Y008923D01*
X033497Y008923D02*
X033570Y008997D01*
X033570Y008776D01*
X033497Y008776D02*
X033644Y008776D01*
X033718Y008776D02*
X033754Y008776D01*
X033754Y008813D01*
X033718Y008813D01*
X033718Y008776D01*
X033828Y008813D02*
X033975Y008960D01*
X033975Y008813D01*
X033938Y008776D01*
X033865Y008776D01*
X033828Y008813D01*
X033828Y008960D01*
X033865Y008997D01*
X033938Y008997D01*
X033975Y008960D01*
X034049Y008923D02*
X034049Y008813D01*
X034086Y008776D01*
X034196Y008776D01*
X034196Y008923D01*
X034270Y008887D02*
X034344Y008887D01*
X034270Y008997D02*
X034417Y008997D01*
X034270Y008997D02*
X034270Y008776D01*
X031878Y011226D02*
X031878Y011447D01*
X031768Y011337D01*
X031915Y011337D01*
X031694Y011410D02*
X031657Y011447D01*
X031584Y011447D01*
X031547Y011410D01*
X031547Y011263D01*
X031584Y011226D01*
X031657Y011226D01*
X031694Y011263D01*
X030073Y018186D02*
X029926Y018186D01*
X029999Y018186D02*
X029999Y018407D01*
X029926Y018333D01*
X029852Y018186D02*
X029705Y018186D01*
X029778Y018186D02*
X029778Y018407D01*
X029705Y018333D01*
X029631Y018370D02*
X029594Y018407D01*
X029521Y018407D01*
X029484Y018370D01*
X029484Y018223D01*
X029521Y018186D01*
X029594Y018186D01*
X029631Y018223D01*
X029607Y019086D02*
X029607Y019307D01*
X029534Y019233D01*
X029460Y019123D02*
X029460Y019086D01*
X029423Y019086D01*
X029423Y019123D01*
X029460Y019123D01*
X029534Y019086D02*
X029681Y019086D01*
X029755Y019123D02*
X029791Y019086D01*
X029902Y019086D01*
X029902Y019233D01*
X029976Y019197D02*
X030049Y019197D01*
X029976Y019307D02*
X030123Y019307D01*
X030036Y019386D02*
X029963Y019386D01*
X029926Y019423D01*
X029852Y019423D02*
X029815Y019386D01*
X029742Y019386D01*
X029705Y019423D01*
X029705Y019570D01*
X029742Y019607D01*
X029815Y019607D01*
X029852Y019570D01*
X029926Y019570D02*
X029963Y019607D01*
X030036Y019607D01*
X030073Y019570D01*
X030073Y019533D01*
X030036Y019497D01*
X030073Y019460D01*
X030073Y019423D01*
X030036Y019386D01*
X029976Y019307D02*
X029976Y019086D01*
X029755Y019123D02*
X029755Y019233D01*
X029999Y019497D02*
X030036Y019497D01*
X029349Y019270D02*
X029202Y019123D01*
X029239Y019086D01*
X029312Y019086D01*
X029349Y019123D01*
X029349Y019270D01*
X029312Y019307D01*
X029239Y019307D01*
X029202Y019270D01*
X029202Y019123D01*
X029239Y020286D02*
X029202Y020323D01*
X029349Y020470D01*
X029349Y020323D01*
X029312Y020286D01*
X029239Y020286D01*
X029202Y020323D02*
X029202Y020470D01*
X029239Y020507D01*
X029312Y020507D01*
X029349Y020470D01*
X029423Y020323D02*
X029460Y020323D01*
X029460Y020286D01*
X029423Y020286D01*
X029423Y020323D01*
X029534Y020286D02*
X029681Y020286D01*
X029607Y020286D02*
X029607Y020507D01*
X029534Y020433D01*
X029521Y020586D02*
X029594Y020586D01*
X029631Y020623D01*
X029705Y020586D02*
X029852Y020586D01*
X029778Y020586D02*
X029778Y020807D01*
X029705Y020733D01*
X029631Y020770D02*
X029594Y020807D01*
X029521Y020807D01*
X029484Y020770D01*
X029484Y020623D01*
X029521Y020586D01*
X029755Y020433D02*
X029755Y020323D01*
X029791Y020286D01*
X029902Y020286D01*
X029902Y020433D01*
X029976Y020397D02*
X030049Y020397D01*
X029976Y020507D02*
X030123Y020507D01*
X030036Y020586D02*
X030036Y020807D01*
X029926Y020697D01*
X030073Y020697D01*
X029976Y020507D02*
X029976Y020286D01*
X029976Y021486D02*
X029976Y021707D01*
X030123Y021707D01*
X030049Y021597D02*
X029976Y021597D01*
X029902Y021633D02*
X029902Y021486D01*
X029791Y021486D01*
X029755Y021523D01*
X029755Y021633D01*
X029681Y021486D02*
X029534Y021486D01*
X029607Y021486D02*
X029607Y021707D01*
X029534Y021633D01*
X029460Y021523D02*
X029460Y021486D01*
X029423Y021486D01*
X029423Y021523D01*
X029460Y021523D01*
X029349Y021523D02*
X029312Y021486D01*
X029239Y021486D01*
X029202Y021523D01*
X029349Y021670D01*
X029349Y021523D01*
X029202Y021523D02*
X029202Y021670D01*
X029239Y021707D01*
X029312Y021707D01*
X029349Y021670D01*
X029315Y022551D02*
X029168Y022551D01*
X029132Y022588D01*
X029132Y022662D01*
X029168Y022698D01*
X029168Y022772D02*
X029132Y022809D01*
X029132Y022883D01*
X029168Y022919D01*
X029205Y022919D01*
X029242Y022883D01*
X029278Y022919D01*
X029315Y022919D01*
X029352Y022883D01*
X029352Y022809D01*
X029315Y022772D01*
X029315Y022698D02*
X029352Y022662D01*
X029352Y022588D01*
X029315Y022551D01*
X029242Y022846D02*
X029242Y022883D01*
X029315Y022993D02*
X029352Y023030D01*
X029352Y023104D01*
X029315Y023140D01*
X029278Y023140D01*
X029242Y023104D01*
X029242Y023067D01*
X029242Y023104D02*
X029205Y023140D01*
X029168Y023140D01*
X029132Y023104D01*
X029132Y023030D01*
X029168Y022993D01*
X030182Y022883D02*
X030218Y022919D01*
X030365Y022772D01*
X030402Y022809D01*
X030402Y022883D01*
X030365Y022919D01*
X030218Y022919D01*
X030182Y022883D02*
X030182Y022809D01*
X030218Y022772D01*
X030365Y022772D01*
X030402Y022698D02*
X030402Y022551D01*
X030402Y022625D02*
X030182Y022625D01*
X030255Y022551D01*
X030255Y022993D02*
X030365Y022993D01*
X030402Y023030D01*
X030402Y023140D01*
X030255Y023140D01*
X030292Y023214D02*
X030292Y023288D01*
X030402Y023214D02*
X030182Y023214D01*
X030182Y023361D01*
X030218Y023656D02*
X030182Y023693D01*
X030182Y023766D01*
X030218Y023803D01*
X030255Y023803D01*
X030402Y023656D01*
X030402Y023803D01*
X030365Y023877D02*
X030402Y023914D01*
X030402Y023987D01*
X030365Y024024D01*
X030292Y024024D01*
X030255Y023987D01*
X030255Y023951D01*
X030292Y023877D01*
X030182Y023877D01*
X030182Y024024D01*
X030255Y024098D02*
X030402Y024172D01*
X030255Y024245D01*
X030255Y024551D02*
X030182Y024625D01*
X030402Y024625D01*
X030402Y024698D02*
X030402Y024551D01*
X030365Y024772D02*
X030218Y024919D01*
X030365Y024919D01*
X030402Y024883D01*
X030402Y024809D01*
X030365Y024772D01*
X030218Y024772D01*
X030182Y024809D01*
X030182Y024883D01*
X030218Y024919D01*
X030255Y024993D02*
X030365Y024993D01*
X030402Y025030D01*
X030402Y025140D01*
X030255Y025140D01*
X030292Y025214D02*
X030292Y025288D01*
X030402Y025214D02*
X030182Y025214D01*
X030182Y025361D01*
X030218Y025656D02*
X030182Y025693D01*
X030182Y025766D01*
X030218Y025803D01*
X030255Y025803D01*
X030402Y025656D01*
X030402Y025803D01*
X030365Y025877D02*
X030402Y025914D01*
X030402Y025987D01*
X030365Y026024D01*
X030292Y026024D01*
X030255Y025987D01*
X030255Y025951D01*
X030292Y025877D01*
X030182Y025877D01*
X030182Y026024D01*
X030255Y026098D02*
X030402Y026172D01*
X030255Y026245D01*
X029352Y025140D02*
X029352Y024993D01*
X029205Y025140D01*
X029168Y025140D01*
X029132Y025104D01*
X029132Y025030D01*
X029168Y024993D01*
X029168Y024919D02*
X029205Y024919D01*
X029242Y024883D01*
X029278Y024919D01*
X029315Y024919D01*
X029352Y024883D01*
X029352Y024809D01*
X029315Y024772D01*
X029315Y024698D02*
X029352Y024662D01*
X029352Y024588D01*
X029315Y024551D01*
X029168Y024551D01*
X029132Y024588D01*
X029132Y024662D01*
X029168Y024698D01*
X029168Y024772D02*
X029132Y024809D01*
X029132Y024883D01*
X029168Y024919D01*
X029242Y024883D02*
X029242Y024846D01*
X027902Y024854D02*
X027902Y024780D01*
X027865Y024743D01*
X027718Y024890D01*
X027865Y024890D01*
X027902Y024854D01*
X027865Y024743D02*
X027718Y024743D01*
X027682Y024780D01*
X027682Y024854D01*
X027718Y024890D01*
X027792Y024669D02*
X027792Y024522D01*
X027682Y024633D01*
X027902Y024633D01*
X027902Y024448D02*
X027902Y024301D01*
X027755Y024448D01*
X027718Y024448D01*
X027682Y024412D01*
X027682Y024338D01*
X027718Y024301D01*
X026952Y024351D02*
X026732Y024351D01*
X026732Y024462D01*
X026768Y024498D01*
X026842Y024498D01*
X026878Y024462D01*
X026878Y024351D01*
X026878Y024425D02*
X026952Y024498D01*
X026952Y024572D02*
X026952Y024719D01*
X026952Y024646D02*
X026732Y024646D01*
X026805Y024572D01*
X026805Y024793D02*
X026732Y024867D01*
X026952Y024867D01*
X026952Y024940D02*
X026952Y024793D01*
X026552Y024780D02*
X026515Y024743D01*
X026368Y024890D01*
X026515Y024890D01*
X026552Y024854D01*
X026552Y024780D01*
X026515Y024743D02*
X026368Y024743D01*
X026332Y024780D01*
X026332Y024854D01*
X026368Y024890D01*
X026442Y024669D02*
X026442Y024522D01*
X026332Y024633D01*
X026552Y024633D01*
X026552Y024448D02*
X026552Y024301D01*
X026405Y024448D01*
X026368Y024448D01*
X026332Y024412D01*
X026332Y024338D01*
X026368Y024301D01*
X025602Y024351D02*
X025382Y024351D01*
X025382Y024462D01*
X025418Y024498D01*
X025492Y024498D01*
X025528Y024462D01*
X025528Y024351D01*
X025528Y024425D02*
X025602Y024498D01*
X025602Y024572D02*
X025602Y024719D01*
X025602Y024646D02*
X025382Y024646D01*
X025455Y024572D01*
X025418Y024793D02*
X025382Y024830D01*
X025382Y024904D01*
X025418Y024940D01*
X025455Y024940D01*
X025602Y024793D01*
X025602Y024940D01*
X026762Y029151D02*
X026764Y029175D01*
X026770Y029198D01*
X026780Y029219D01*
X026793Y029239D01*
X026810Y029256D01*
X026829Y029270D01*
X026850Y029281D01*
X026873Y029288D01*
X026896Y029291D01*
X026920Y029290D01*
X026943Y029285D01*
X026965Y029276D01*
X026985Y029264D01*
X027003Y029248D01*
X027018Y029229D01*
X027030Y029209D01*
X027037Y029186D01*
X027041Y029163D01*
X027041Y029139D01*
X027037Y029116D01*
X027030Y029093D01*
X027018Y029073D01*
X027003Y029054D01*
X026985Y029038D01*
X026965Y029026D01*
X026943Y029017D01*
X026920Y029012D01*
X026896Y029011D01*
X026873Y029014D01*
X026850Y029021D01*
X026829Y029032D01*
X026810Y029046D01*
X026793Y029063D01*
X026780Y029083D01*
X026770Y029104D01*
X026764Y029127D01*
X026762Y029151D01*
D19*
X031262Y015886D03*
X031762Y015886D03*
X032262Y015886D03*
X032762Y015886D03*
X033262Y015886D03*
X033762Y015886D03*
X034262Y015886D03*
X034762Y015886D03*
X034762Y012896D03*
X034262Y012896D03*
X033762Y012896D03*
X033262Y012896D03*
X032762Y012896D03*
X032262Y012896D03*
X031762Y012896D03*
X031262Y012896D03*
D20*
X027548Y023251D03*
X027076Y023251D03*
X026198Y023251D03*
X025726Y023251D03*
D21*
X025962Y023251D03*
X027312Y023251D03*
D22*
X031762Y023188D03*
X032262Y023188D03*
X032762Y023188D03*
X033262Y023188D03*
X033262Y025195D03*
X032762Y025195D03*
X032262Y025195D03*
X031762Y025195D03*
D23*
X031567Y024940D02*
X033457Y024940D01*
X033457Y023640D01*
X031567Y023640D01*
X031567Y024940D01*
X031567Y023443D02*
X033457Y023443D01*
X035322Y021064D02*
X035322Y018819D01*
X031002Y018819D02*
X031002Y021064D01*
X025772Y028419D02*
X025772Y030664D01*
X021452Y030664D02*
X021452Y028419D01*
X013302Y023301D02*
X013302Y020941D01*
X010722Y020941D01*
X010722Y023301D01*
D24*
X021837Y028816D03*
X031387Y019216D03*
D25*
X012012Y020751D03*
D26*
X012017Y013941D03*
X012017Y013441D03*
X012017Y012941D03*
X012017Y012441D03*
X012017Y011941D03*
X012017Y011441D03*
X012017Y010941D03*
X012017Y010441D03*
X012017Y009941D03*
X012017Y009441D03*
X014007Y009441D03*
X014007Y009941D03*
X014007Y010441D03*
X014007Y010941D03*
X014007Y011441D03*
X014007Y011941D03*
X014007Y012441D03*
X014007Y012941D03*
X014007Y013441D03*
X014007Y013941D03*
M02*
