%
M48
M72
T01C0.1250
T02C0.0320
T03C0.0400
T04C0.0472
T05C0.0160
T06C0.0240
%
T01
X301Y169
X3751Y169
X3751Y3619
X301Y3619
T02
X2151Y1449
X2341Y1449
X2616Y1419
X2616Y1519
X2616Y1619
X2616Y1719
X2916Y1719
X2916Y1619
X2916Y1519
X2916Y1419
X2916Y1319
X2916Y1219
X2916Y1119
X2916Y1019
X2916Y919
X2916Y819
X2616Y819
X2616Y919
X2616Y1019
X2616Y1119
X2616Y1219
X2616Y1319
T03
X2601Y509
X2501Y509
X2401Y509
X1951Y509
X1851Y509
X1751Y509
X3051Y509
X3151Y509
X3251Y509
X3701Y834
X3801Y834
X3801Y934
X3701Y934
X3701Y1034
X3701Y1134
X3801Y1134
X3801Y1034
X3801Y1234
X3701Y1234
X766Y2739
X666Y2739
X666Y2839
X766Y2839
X766Y2939
X666Y2939
X351Y2919
X251Y2919
X251Y3019
X351Y3019
X351Y3119
X251Y3119
X251Y3219
X351Y3219
X351Y2519
X251Y2519
X251Y2419
X251Y2319
X351Y2319
X351Y2419
X351Y2219
X251Y2219
X251Y2119
X251Y2019
X351Y2019
X351Y2119
X351Y1919
X251Y1919
X251Y1819
X251Y1719
X351Y1719
X351Y1819
X351Y1619
X251Y1619
X251Y1119
X351Y1119
X351Y1019
X251Y1019
X251Y919
X351Y919
X351Y819
X251Y819
X251Y719
X351Y719
T04
X3751Y1619
X3751Y1719
X3751Y1819
X3751Y1919
X3751Y2019
X3751Y2119
X3751Y2219
X3751Y2469
X3751Y2569
X3751Y2669
X3751Y2769
X3751Y2969
X3751Y3069
X3751Y3169
X3751Y3269
T05
X3526Y3024
X3486Y3024
X3326Y2879
X3306Y2819
X3336Y2789
X3286Y2954
X3186Y2894
X3156Y2789
X3116Y2789
X2926Y2634
X2821Y2629
X2801Y2689
X2751Y2659
X2681Y2774
X2621Y2719
X2551Y2584
X2426Y2634
X2366Y2654
X2296Y2684
X2221Y2714
X2136Y2804
X2106Y2749
X2016Y2769
X1911Y2684
X1851Y2769
X1786Y2714
X1746Y2714
X1706Y2769
X1816Y2684
X1716Y2654
X1716Y2534
X1676Y2524
X1586Y2494
X1861Y2549
X2016Y2594
X2026Y2549
X2016Y2464
X2046Y2424
X2166Y2424
X2171Y2324
X2136Y2294
X2041Y2299
X2001Y2294
X1901Y2204
X1896Y2129
X1961Y2064
X1901Y2049
X1901Y1964
X1896Y1889
X1896Y1849
X1936Y1884
X1966Y1814
X2031Y1854
X2071Y1814
X2111Y1814
X2141Y1854
X2266Y1819
X2236Y1714
X2201Y1689
X2141Y1699
X2171Y1599
X2201Y1569
X2256Y1569
X2421Y1639
X2426Y1789
X2476Y1789
X2581Y1794
X2551Y1884
X2551Y1924
X2551Y1979
X2651Y1954
X2761Y1909
X2761Y1869
X2881Y1854
X3041Y1824
X3166Y1809
X3151Y1919
X3051Y1969
X2971Y2059
X2886Y2044
X2881Y2089
X2821Y2024
X2771Y2054
X2741Y2084
X2761Y2004
X2651Y2124
X2711Y2184
X2711Y2229
X2756Y2184
X2866Y2234
X2866Y2274
X2956Y2184
X2896Y2464
X2866Y2494
X2676Y2434
X2536Y2434
X2536Y2394
X2526Y2274
X2401Y2189
X2386Y2229
X2356Y2259
X2381Y2324
X2381Y2424
X2346Y2449
X2251Y2549
X2181Y2579
X2176Y2879
X2136Y2879
X2236Y2904
X2286Y2944
X2256Y3019
X2336Y3144
X2496Y3264
X2446Y3339
X2521Y3424
X2536Y3509
X2646Y3549
X2651Y3354
X2651Y3259
X2621Y3189
X2686Y3129
X2716Y3159
X2876Y3099
X2981Y3134
X3006Y3204
X3051Y3164
X3126Y3164
X3206Y3264
X3286Y3174
X3406Y3264
X3316Y3324
X3076Y3369
X3121Y3669
X2991Y3674
X3176Y3049
X2746Y2924
X2706Y2919
X2591Y3069
X2341Y3389
X2186Y3494
X2146Y3544
X2221Y3569
X1986Y3649
X1986Y3449
X1986Y3309
X1906Y3184
X1836Y3264
X1796Y3279
X1726Y3269
X1736Y3339
X1826Y3404
X1686Y3144
X1561Y3009
X1521Y3009
X1461Y3009
X1341Y3009
X1406Y3139
X1436Y3194
X1501Y3194
X1366Y3309
X1326Y3394
X1336Y3444
X1336Y3484
X1496Y3374
X1281Y3254
X1136Y3284
X1136Y3454
X971Y3514
X856Y3379
X946Y3339
X861Y3264
X856Y3114
X931Y2984
X1041Y2894
X1016Y2814
X1131Y2739
X1286Y2719
X1371Y2769
X1556Y2914
X1616Y2914
X1656Y2914
X1831Y3004
X1911Y2974
X1996Y2944
X1966Y2899
X2141Y3184
X1571Y3574
X1551Y3669
X1271Y3674
X1131Y3669
X766Y3454
X696Y3264
X566Y3264
X566Y3374
X506Y3454
X546Y3514
X296Y3364
X406Y3144
X476Y3084
X506Y3114
X566Y3054
X506Y2934
X446Y2784
X386Y2684
X506Y2684
X471Y2579
X701Y2524
X516Y2214
X616Y1909
X581Y1824
X711Y1634
X786Y1529
X816Y1499
X846Y1559
X841Y1604
X881Y1644
X1031Y1569
X1081Y1704
X1211Y1779
X1431Y1499
X1506Y1424
X1516Y1379
X1516Y1329
X1556Y1329
X1586Y1434
X1576Y1499
X1506Y1584
X1561Y1599
X1626Y1614
X1656Y1579
X1686Y1499
X1766Y1489
X1856Y1519
X1796Y1609
X1856Y1689
X1856Y1769
X1766Y1724
X1736Y1694
X1686Y1659
X1656Y1784
X1581Y1849
X1596Y1889
X1656Y2019
X1656Y2059
X1766Y2089
X1796Y2059
X1791Y2124
X1791Y2164
X1791Y2204
X1616Y2174
X1601Y2214
X1796Y1929
X2101Y2049
X2106Y2204
X2221Y2249
X2401Y2094
X2401Y2054
X2406Y1994
X2406Y1934
X2406Y1894
X2276Y2039
X2506Y2124
X2806Y1679
X2761Y1559
X2711Y1514
X2741Y1484
X2796Y1429
X2836Y1409
X2996Y1409
X2741Y1189
X2711Y1219
X2811Y1124
X2836Y1159
X2711Y929
X2841Y844
X3066Y844
X3226Y989
X3521Y974
X3606Y974
X3746Y774
X3566Y1199
X3411Y1314
X3506Y1369
X3396Y1699
X3456Y1744
X3466Y1784
X3426Y1774
X3556Y1714
X3391Y1919
X3261Y1919
X3201Y2019
X3286Y1699
X3651Y1949
X3606Y2164
X3566Y2164
X3821Y2519
X3611Y2744
X3786Y2909
X2651Y1669
X2681Y1579
X2506Y1489
X2551Y1384
X2276Y1329
X2301Y1244
X2231Y1159
X2176Y1169
X2086Y1169
X2026Y1244
X2026Y1294
X1971Y1339
X2126Y1309
X1936Y1154
X1786Y1174
X1696Y1134
X1566Y1169
X1541Y1134
X1541Y1084
X1541Y1044
X1646Y924
X1731Y969
X1821Y999
X2006Y904
X2056Y949
X2091Y1004
X2056Y1059
X2221Y799
X2386Y874
X2386Y969
X2351Y1044
X2391Y1069
X2366Y1129
X2496Y1129
X2536Y1129
X2071Y1569
X1806Y1324
X1696Y1279
X1381Y1084
X1381Y1044
X1341Y1124
X1221Y1114
X1221Y1154
X1221Y1234
X1341Y1329
X1086Y1239
X1051Y1299
X1051Y1384
X911Y1149
X826Y1134
X826Y1094
X766Y1089
X721Y1009
X691Y924
X721Y854
X646Y784
X551Y964
X551Y1084
X551Y1124
X526Y1159
X491Y1134
X741Y1204
X796Y1204
X916Y1019
X1076Y1094
X1241Y1034
X1241Y994
X1101Y909
X1086Y754
X1111Y629
X1051Y609
X916Y619
X816Y484
X846Y454
X796Y444
X781Y404
X751Y374
X906Y394
X906Y449
X1051Y449
X1051Y409
X1051Y309
X551Y304
X551Y264
X551Y354
X551Y404
X531Y514
X1356Y839
X1386Y809
X1481Y904
X546Y1424
X496Y1394
X566Y1484
X426Y1629
X1121Y3084
X2516Y634
T06
X2826Y654
X2826Y534
X3421Y549
X3516Y459
X2226Y544
X2226Y669
X1536Y354
X1536Y219
X1311Y344
X906Y494
X446Y594
X476Y784
X476Y944
X446Y1294
X426Y1384
X346Y1464
X701Y1894
X751Y1894
X801Y1894
X851Y1894
X901Y1894
X951Y1894
X1001Y1894
X1051Y1894
X1061Y1999
X1001Y2044
X1001Y2094
X1001Y2144
X1001Y2194
X1051Y2194
X1051Y2144
X1051Y2244
X1001Y2244
X1001Y2294
X1001Y2344
X1001Y2394
X1051Y2394
X1051Y2344
X1051Y2294
X1051Y2444
X1001Y2444
X1001Y2494
X951Y2494
X901Y2494
X876Y2619
X926Y2619
X926Y2669
X876Y2669
X976Y2669
X1026Y2669
X1076Y2669
X1076Y2619
X1026Y2619
X976Y2619
X1051Y2494
X1101Y2494
X1101Y2444
X1151Y2444
X1151Y2494
X1201Y2494
X1201Y2444
X1251Y2444
X1251Y2494
X1301Y2494
X1301Y2444
X1351Y2444
X1351Y2494
X1401Y2494
X1401Y2444
X1451Y2494
X1401Y2394
X1351Y2394
X1351Y2344
X1351Y2294
X1351Y2244
X1401Y2244
X1401Y2294
X1401Y2344
X1401Y2194
X1351Y2194
X1351Y2144
X1401Y2144
X1401Y2094
X1401Y2044
X1401Y1994
X1401Y1944
X1401Y1894
X1401Y1844
X1231Y1949
X1231Y2004
X1171Y2004
X851Y2044
X751Y2044
X651Y2044
X651Y2094
X651Y2144
X651Y2194
X651Y2244
X651Y2294
X651Y2344
X651Y2394
X651Y2444
X651Y2494
X626Y2619
X676Y2619
X1126Y2619
X1176Y2619
X1226Y2619
X1276Y2619
X1326Y2619
X1376Y2619
X1426Y2619
X1476Y2619
X1526Y2619
X1526Y2734
X1481Y2734
X1436Y2734
X1576Y2734
X1816Y2404
X1961Y1674
X1961Y1569
X2136Y1654
X1801Y1369
X1371Y1394
X906Y1194
X1306Y874
X491Y2069
X2691Y2619
X2791Y2769
X2931Y2694
X3076Y2649
X3071Y2539
X3126Y2444
X3186Y2419
X3226Y2394
X3276Y2394
X3316Y2419
X3276Y2444
X3226Y2444
X3126Y2394
X3121Y2284
X3066Y2194
X2886Y2189
X3326Y2194
X3361Y2394
X3361Y2444
X3411Y2444
X3411Y2394
X3561Y2404
X3561Y2314
X3666Y2334
X3741Y2374
X3541Y2599
X3626Y2639
X3501Y2709
X3326Y3009
X3251Y3009
X3026Y3009
X3221Y1714
M30
