G75*
G70*
%OFA0B0*%
%FSLAX24Y24*%
%IPPOS*%
%LPD*%
%AMOC8*
5,1,8,0,0,1.08239X$1,22.5*
%
%ADD10C,0.1330*%
%ADD11R,0.0300X0.0550*%
%ADD12R,0.0550X0.0300*%
%ADD13R,0.0434X0.0356*%
%ADD14C,0.0600*%
%ADD15R,0.0474X0.0474*%
%ADD16C,0.0680*%
%ADD17OC8,0.0680*%
%ADD18R,0.0880X0.0340*%
%ADD19O,0.0680X0.1280*%
%ADD20R,0.0356X0.0434*%
%ADD21R,0.0340X0.0880*%
%ADD22R,0.0592X0.0671*%
%ADD23R,0.0552X0.0552*%
%ADD24R,0.0671X0.0592*%
%ADD25R,0.0380X0.0680*%
%ADD26R,0.0316X0.0946*%
%ADD27R,0.0356X0.0671*%
%ADD28R,0.0297X0.0552*%
%ADD29R,0.0330X0.0580*%
%ADD30R,0.0580X0.0330*%
%ADD31R,0.0320X0.0950*%
%ADD32O,0.1497X0.0789*%
%ADD33C,0.0208*%
%ADD34R,0.0789X0.0710*%
%ADD35O,0.1120X0.0600*%
%ADD36R,0.2206X0.2521*%
%ADD37R,0.0474X0.0710*%
%ADD38R,0.0946X0.0316*%
%ADD39C,0.0400*%
%ADD40C,0.0480*%
D10*
X003012Y001691D03*
X037512Y001691D03*
X037512Y036191D03*
X003012Y036191D03*
D11*
X019150Y023762D03*
X019465Y023762D03*
X019780Y023762D03*
X020094Y023762D03*
X020409Y023762D03*
X020724Y023762D03*
X021039Y023762D03*
X021354Y023762D03*
X021669Y023762D03*
X021984Y023762D03*
X022299Y023762D03*
X022614Y023762D03*
X022929Y023762D03*
X023244Y023762D03*
X023559Y023762D03*
X023874Y023762D03*
X023874Y017621D03*
X023559Y017621D03*
X023244Y017621D03*
X022929Y017621D03*
X022614Y017621D03*
X022299Y017621D03*
X021984Y017621D03*
X021669Y017621D03*
X021354Y017621D03*
X021039Y017621D03*
X020724Y017621D03*
X020409Y017621D03*
X020094Y017621D03*
X019780Y017621D03*
X019465Y017621D03*
X019150Y017621D03*
D12*
X018441Y018329D03*
X018441Y018644D03*
X018441Y018959D03*
X018441Y019274D03*
X018441Y019589D03*
X018441Y019904D03*
X018441Y020219D03*
X018441Y020534D03*
X018441Y020849D03*
X018441Y021164D03*
X018441Y021479D03*
X018441Y021794D03*
X018441Y022109D03*
X018441Y022424D03*
X018441Y022739D03*
X018441Y023054D03*
X024583Y023054D03*
X024583Y022739D03*
X024583Y022424D03*
X024583Y022109D03*
X024583Y021794D03*
X024583Y021479D03*
X024583Y021164D03*
X024583Y020849D03*
X024583Y020534D03*
X024583Y020219D03*
X024583Y019904D03*
X024583Y019589D03*
X024583Y019274D03*
X024583Y018959D03*
X024583Y018644D03*
X024583Y018329D03*
D13*
X023762Y016497D03*
X023762Y015986D03*
X022962Y015986D03*
X022962Y016497D03*
X020112Y010897D03*
X020112Y010386D03*
X020112Y009947D03*
X020112Y009436D03*
X019812Y024986D03*
X019062Y024986D03*
X019062Y025497D03*
X019812Y025497D03*
X010912Y029436D03*
X010912Y029947D03*
X024662Y035086D03*
X024662Y035597D03*
X029862Y029647D03*
X029862Y029136D03*
D14*
X023412Y014491D03*
X021512Y014491D03*
D15*
X018062Y024898D03*
X018062Y025685D03*
D16*
X007662Y027391D03*
D17*
X006662Y027391D03*
X006662Y028391D03*
X007662Y028391D03*
X007662Y029391D03*
X006662Y029391D03*
X003512Y029191D03*
X002512Y029191D03*
X002512Y030191D03*
X003512Y030191D03*
X003512Y031191D03*
X002512Y031191D03*
X002512Y032191D03*
X003512Y032191D03*
X003512Y025191D03*
X002512Y025191D03*
X002512Y024191D03*
X002512Y023191D03*
X003512Y023191D03*
X003512Y024191D03*
X003512Y022191D03*
X002512Y022191D03*
X002512Y021191D03*
X002512Y020191D03*
X003512Y020191D03*
X003512Y021191D03*
X003512Y019191D03*
X002512Y019191D03*
X002512Y018191D03*
X002512Y017191D03*
X003512Y017191D03*
X003512Y018191D03*
X003512Y016191D03*
X002512Y016191D03*
X002512Y011191D03*
X003512Y011191D03*
X003512Y010191D03*
X003512Y009191D03*
X002512Y009191D03*
X002512Y010191D03*
X002512Y008191D03*
X003512Y008191D03*
X003512Y007191D03*
X002512Y007191D03*
X037012Y008341D03*
X038012Y008341D03*
X038012Y009341D03*
X037012Y009341D03*
X037012Y010341D03*
X038012Y010341D03*
X038012Y011341D03*
X037012Y011341D03*
X037012Y012341D03*
X038012Y012341D03*
D18*
X018722Y012191D03*
X018722Y012691D03*
X018722Y013191D03*
X018722Y013691D03*
X018722Y011691D03*
X018722Y011191D03*
X018722Y010691D03*
X016302Y010691D03*
X016302Y011191D03*
X016302Y011691D03*
X016302Y012191D03*
X016302Y012691D03*
X016302Y013191D03*
X016302Y013691D03*
X014492Y013441D03*
X014492Y012941D03*
X014492Y012441D03*
X014492Y011941D03*
X014492Y011441D03*
X014492Y010941D03*
X014492Y010441D03*
X014492Y009941D03*
X014492Y009441D03*
X014222Y007191D03*
X014222Y006691D03*
X014222Y006191D03*
X014222Y005691D03*
X014222Y005191D03*
X014222Y004691D03*
X014222Y004191D03*
X011802Y004191D03*
X011802Y004691D03*
X011802Y005191D03*
X011802Y005691D03*
X011802Y006191D03*
X011802Y006691D03*
X011802Y007191D03*
X011532Y009441D03*
X011532Y009941D03*
X011532Y010441D03*
X011532Y010941D03*
X011532Y011441D03*
X011532Y011941D03*
X011532Y012441D03*
X011532Y012941D03*
X011532Y013441D03*
X011532Y013941D03*
X014492Y013941D03*
D19*
X017512Y005091D03*
X018512Y005091D03*
X019512Y005091D03*
X024012Y005091D03*
X025012Y005091D03*
X026012Y005091D03*
X030512Y005091D03*
X031512Y005091D03*
X032512Y005091D03*
D20*
X031168Y006191D03*
X030656Y006191D03*
X024818Y009741D03*
X024306Y009741D03*
X024306Y010491D03*
X024818Y010491D03*
X024568Y011241D03*
X024056Y011241D03*
X022618Y012141D03*
X022106Y012141D03*
X020918Y016691D03*
X020406Y016691D03*
X016868Y009691D03*
X016356Y009691D03*
X017606Y006191D03*
X018118Y006191D03*
X012268Y003441D03*
X011756Y003441D03*
X011556Y008741D03*
X012068Y008741D03*
X005418Y005941D03*
X004906Y005941D03*
X004906Y012941D03*
X005418Y012941D03*
X019056Y026391D03*
X019568Y026391D03*
X022506Y024741D03*
X023018Y024741D03*
X031256Y017391D03*
X031768Y017391D03*
X024668Y006191D03*
X024156Y006191D03*
D21*
X031262Y012461D03*
X031762Y012461D03*
X032262Y012461D03*
X032762Y012461D03*
X033262Y012461D03*
X033762Y012461D03*
X034262Y012461D03*
X034762Y012461D03*
X034762Y016321D03*
X034262Y016321D03*
X033762Y016321D03*
X033262Y016321D03*
X032762Y016321D03*
X032262Y016321D03*
X031762Y016321D03*
X031262Y016321D03*
X020362Y028331D03*
X019862Y028331D03*
X019362Y028331D03*
X018862Y028331D03*
X018362Y028331D03*
X017862Y028331D03*
X017362Y028331D03*
X016862Y028331D03*
X015362Y028331D03*
X014862Y028331D03*
X014362Y028331D03*
X013862Y028331D03*
X013362Y028331D03*
X012862Y028331D03*
X012362Y028331D03*
X011862Y028331D03*
X011862Y030751D03*
X012362Y030751D03*
X012862Y030751D03*
X013362Y030751D03*
X013862Y030751D03*
X014362Y030751D03*
X014862Y030751D03*
X015362Y030751D03*
X016862Y030751D03*
X017362Y030751D03*
X017862Y030751D03*
X018362Y030751D03*
X018862Y030751D03*
X019362Y030751D03*
X019862Y030751D03*
X020362Y030751D03*
D22*
X020677Y033191D03*
X021346Y033191D03*
X022677Y033191D03*
X023346Y033191D03*
X023346Y034691D03*
X022677Y034691D03*
X021346Y034691D03*
X020677Y034691D03*
X019346Y034691D03*
X018677Y034691D03*
X018677Y033191D03*
X019346Y033191D03*
X016846Y033191D03*
X016177Y033191D03*
X014846Y033191D03*
X014177Y033191D03*
X012846Y033191D03*
X012177Y033191D03*
X010846Y033191D03*
X010177Y033191D03*
X008846Y033191D03*
X008177Y033191D03*
X006846Y033191D03*
X006177Y033191D03*
X006177Y031691D03*
X006846Y031691D03*
X008177Y031691D03*
X008846Y031691D03*
X008846Y034691D03*
X008177Y034691D03*
X006846Y034691D03*
X006177Y034691D03*
X006177Y036191D03*
X006846Y036191D03*
X008177Y036191D03*
X008846Y036191D03*
X010177Y036191D03*
X010846Y036191D03*
X012177Y036191D03*
X012846Y036191D03*
X014177Y036191D03*
X014846Y036191D03*
X016177Y036191D03*
X016846Y036191D03*
X016846Y034691D03*
X016177Y034691D03*
X014846Y034691D03*
X014177Y034691D03*
X012846Y034691D03*
X012177Y034691D03*
X010846Y034691D03*
X010177Y034691D03*
X018677Y036191D03*
X019346Y036191D03*
X020677Y036191D03*
X021346Y036191D03*
X022677Y036191D03*
X023346Y036191D03*
X025177Y033191D03*
X025846Y033191D03*
X027177Y033191D03*
X027846Y033191D03*
X029677Y033191D03*
X030346Y033191D03*
X031677Y033191D03*
X032346Y033191D03*
X033677Y033191D03*
X034346Y033191D03*
X034346Y034691D03*
X033677Y034691D03*
X032346Y034691D03*
X031677Y034691D03*
X030346Y034691D03*
X029677Y034691D03*
X029677Y036191D03*
X030346Y036191D03*
X031677Y036191D03*
X032346Y036191D03*
X029996Y021141D03*
X029327Y021141D03*
X029327Y019941D03*
X029996Y019941D03*
X029996Y018741D03*
X029327Y018741D03*
X031677Y010891D03*
X032346Y010891D03*
X033677Y010891D03*
X034346Y010891D03*
X034346Y009341D03*
X033677Y009341D03*
X032346Y009341D03*
X031677Y009341D03*
X018696Y007891D03*
X018027Y007891D03*
D23*
X025962Y022778D03*
X025962Y023605D03*
X027312Y023605D03*
X027312Y022778D03*
D24*
X027312Y024507D03*
X027312Y025176D03*
X025962Y025176D03*
X025962Y024507D03*
X012662Y018826D03*
X012662Y018157D03*
D25*
X030862Y027311D03*
X031362Y027311D03*
X031862Y027311D03*
X032362Y027311D03*
X032862Y027311D03*
X033362Y027311D03*
X033862Y027311D03*
X034362Y027311D03*
X034362Y031071D03*
X033862Y031071D03*
X033362Y031071D03*
X032862Y031071D03*
X032362Y031071D03*
X031862Y031071D03*
X031362Y031071D03*
X030862Y031071D03*
D26*
X031762Y025215D03*
X032262Y025215D03*
X032762Y025215D03*
X033262Y025215D03*
X033262Y023168D03*
X032762Y023168D03*
X032262Y023168D03*
X031762Y023168D03*
D27*
X031912Y021259D03*
X032412Y021259D03*
X032912Y021259D03*
X033412Y021259D03*
X033912Y021259D03*
X034412Y021259D03*
X034912Y021259D03*
X034912Y018624D03*
X034412Y018624D03*
X033912Y018624D03*
X033412Y018624D03*
X032912Y018624D03*
X032412Y018624D03*
X031912Y018624D03*
X031412Y018624D03*
X031412Y021259D03*
X025362Y028224D03*
X024862Y028224D03*
X024362Y028224D03*
X023862Y028224D03*
X023362Y028224D03*
X022862Y028224D03*
X022362Y028224D03*
X021862Y028224D03*
X021862Y030859D03*
X022362Y030859D03*
X022862Y030859D03*
X023362Y030859D03*
X023862Y030859D03*
X024362Y030859D03*
X024862Y030859D03*
X025362Y030859D03*
D28*
X017086Y008353D03*
X016338Y008353D03*
X016338Y007330D03*
X016712Y007330D03*
X017086Y007330D03*
D29*
X026362Y034741D03*
X026862Y034741D03*
X027362Y034741D03*
X027362Y036541D03*
X026862Y036541D03*
X026362Y036541D03*
D30*
X025962Y035641D03*
X027762Y035641D03*
D31*
X027862Y030571D03*
X027362Y030571D03*
X026862Y030571D03*
X028362Y030571D03*
X028362Y028511D03*
X027862Y028511D03*
X027362Y028511D03*
X026862Y028511D03*
D32*
X037512Y027691D03*
X037512Y026691D03*
X037512Y025691D03*
X037512Y024691D03*
X037512Y022191D03*
X037512Y021191D03*
X037512Y020191D03*
X037512Y019191D03*
X037512Y018191D03*
X037512Y017191D03*
X037512Y016191D03*
X037512Y029691D03*
X037512Y030691D03*
X037512Y031691D03*
X037512Y032691D03*
D33*
X022876Y010952D02*
X022808Y010952D01*
X022808Y011020D01*
X022876Y011020D01*
X022876Y010952D01*
X022561Y010952D02*
X022493Y010952D01*
X022493Y011020D01*
X022561Y011020D01*
X022561Y010952D01*
X022561Y010637D02*
X022493Y010637D01*
X022493Y010705D01*
X022561Y010705D01*
X022561Y010637D01*
X022246Y010637D02*
X022178Y010637D01*
X022178Y010705D01*
X022246Y010705D01*
X022246Y010637D01*
X021931Y010637D02*
X021863Y010637D01*
X021863Y010705D01*
X021931Y010705D01*
X021931Y010637D01*
X021931Y010952D02*
X021863Y010952D01*
X021863Y011020D01*
X021931Y011020D01*
X021931Y010952D01*
X022178Y010952D02*
X022246Y010952D01*
X022178Y010952D02*
X022178Y011020D01*
X022246Y011020D01*
X022246Y010952D01*
X021616Y010952D02*
X021548Y010952D01*
X021548Y011020D01*
X021616Y011020D01*
X021616Y010952D01*
X021301Y010637D02*
X021233Y010637D01*
X021233Y010705D01*
X021301Y010705D01*
X021301Y010637D01*
X021301Y010322D02*
X021233Y010322D01*
X021233Y010390D01*
X021301Y010390D01*
X021301Y010322D01*
X021301Y010007D02*
X021233Y010007D01*
X021233Y010075D01*
X021301Y010075D01*
X021301Y010007D01*
X021301Y009693D02*
X021233Y009693D01*
X021233Y009761D01*
X021301Y009761D01*
X021301Y009693D01*
X021548Y009693D02*
X021616Y009693D01*
X021548Y009693D02*
X021548Y009761D01*
X021616Y009761D01*
X021616Y009693D01*
X021616Y010007D02*
X021548Y010007D01*
X021548Y010075D01*
X021616Y010075D01*
X021616Y010007D01*
X021616Y010322D02*
X021548Y010322D01*
X021548Y010390D01*
X021616Y010390D01*
X021616Y010322D01*
X021863Y009378D02*
X021931Y009378D01*
X021863Y009378D02*
X021863Y009446D01*
X021931Y009446D01*
X021931Y009378D01*
X022178Y009378D02*
X022246Y009378D01*
X022178Y009378D02*
X022178Y009446D01*
X022246Y009446D01*
X022246Y009378D01*
X022493Y009378D02*
X022561Y009378D01*
X022493Y009378D02*
X022493Y009446D01*
X022561Y009446D01*
X022561Y009378D01*
X022561Y009063D02*
X022493Y009063D01*
X022493Y009131D01*
X022561Y009131D01*
X022561Y009063D01*
X022808Y009063D02*
X022876Y009063D01*
X022808Y009063D02*
X022808Y009131D01*
X022876Y009131D01*
X022876Y009063D01*
X023123Y009378D02*
X023191Y009378D01*
X023123Y009378D02*
X023123Y009446D01*
X023191Y009446D01*
X023191Y009378D01*
X023191Y009693D02*
X023123Y009693D01*
X023123Y009761D01*
X023191Y009761D01*
X023191Y009693D01*
X023191Y010007D02*
X023123Y010007D01*
X023123Y010075D01*
X023191Y010075D01*
X023191Y010007D01*
X022876Y010007D02*
X022808Y010007D01*
X022808Y010075D01*
X022876Y010075D01*
X022876Y010007D01*
X022876Y009693D02*
X022808Y009693D01*
X022808Y009761D01*
X022876Y009761D01*
X022876Y009693D01*
X022876Y010322D02*
X022808Y010322D01*
X022808Y010390D01*
X022876Y010390D01*
X022876Y010322D01*
X023123Y010322D02*
X023191Y010322D01*
X023123Y010322D02*
X023123Y010390D01*
X023191Y010390D01*
X023191Y010322D01*
X023191Y010637D02*
X023123Y010637D01*
X023123Y010705D01*
X023191Y010705D01*
X023191Y010637D01*
X022246Y009063D02*
X022178Y009063D01*
X022178Y009131D01*
X022246Y009131D01*
X022246Y009063D01*
X021931Y009063D02*
X021863Y009063D01*
X021863Y009131D01*
X021931Y009131D01*
X021931Y009063D01*
X021616Y009063D02*
X021548Y009063D01*
X021548Y009131D01*
X021616Y009131D01*
X021616Y009063D01*
X021301Y009378D02*
X021233Y009378D01*
X021233Y009446D01*
X021301Y009446D01*
X021301Y009378D01*
D34*
X011412Y017940D03*
X011412Y019043D03*
X029762Y022690D03*
X029762Y023793D03*
X029762Y024690D03*
X029762Y025793D03*
D35*
X029162Y017191D03*
X029162Y016191D03*
X029162Y015191D03*
X029162Y014191D03*
X029162Y013191D03*
X029162Y012191D03*
X029162Y011191D03*
X029162Y010191D03*
X029162Y009191D03*
X029162Y008191D03*
X026162Y008191D03*
X026162Y009191D03*
X026162Y010191D03*
X026162Y011191D03*
X026162Y012191D03*
X026162Y013191D03*
X026162Y014191D03*
X026162Y015191D03*
X026162Y016191D03*
X026162Y017191D03*
D36*
X012012Y022776D03*
D37*
X012909Y019902D03*
X011114Y019902D03*
D38*
X009823Y014441D03*
X009823Y013941D03*
X009823Y013441D03*
X009823Y012941D03*
X009823Y012441D03*
X009823Y011941D03*
X009823Y011441D03*
X009823Y010941D03*
X009823Y010441D03*
X009823Y009941D03*
X009823Y009441D03*
X009823Y008941D03*
X009823Y007441D03*
X009823Y006941D03*
X009823Y006441D03*
X009823Y005941D03*
X009823Y005441D03*
X009823Y004941D03*
X009823Y004441D03*
X009823Y003941D03*
X009823Y003441D03*
X009823Y002941D03*
X009823Y002441D03*
X009823Y001941D03*
X006201Y001941D03*
X006201Y002441D03*
X006201Y002941D03*
X006201Y003441D03*
X006201Y003941D03*
X006201Y004441D03*
X006201Y004941D03*
X006201Y005441D03*
X006201Y005941D03*
X006201Y006441D03*
X006201Y006941D03*
X006201Y007441D03*
X006201Y008941D03*
X006201Y009441D03*
X006201Y009941D03*
X006201Y010441D03*
X006201Y010941D03*
X006201Y011441D03*
X006201Y011941D03*
X006201Y012441D03*
X006201Y012941D03*
X006201Y013441D03*
X006201Y013941D03*
X006201Y014441D03*
D39*
X005662Y014841D03*
X005462Y014241D03*
X004962Y013941D03*
X005262Y011591D03*
X005512Y011241D03*
X005512Y010841D03*
X004912Y011341D03*
X005512Y009641D03*
X006912Y009241D03*
X007212Y008541D03*
X006462Y007841D03*
X007212Y010091D03*
X007662Y010891D03*
X008262Y010941D03*
X008262Y011341D03*
X007962Y012041D03*
X007412Y012041D03*
X009112Y011491D03*
X009162Y010191D03*
X010762Y010941D03*
X010862Y012391D03*
X010512Y012991D03*
X010512Y013841D03*
X010312Y015691D03*
X010812Y017041D03*
X012112Y017791D03*
X014312Y014991D03*
X015062Y014241D03*
X015162Y013791D03*
X015162Y013291D03*
X015562Y013291D03*
X015862Y014341D03*
X015762Y014991D03*
X015062Y015841D03*
X015612Y015991D03*
X016262Y016141D03*
X016562Y015791D03*
X016862Y014991D03*
X017662Y014891D03*
X018562Y015191D03*
X017962Y016091D03*
X018562Y016891D03*
X018562Y017691D03*
X018962Y018491D03*
X018962Y018891D03*
X019362Y018841D03*
X019662Y018141D03*
X020312Y018541D03*
X020712Y018141D03*
X021112Y018141D03*
X021412Y018541D03*
X022662Y018191D03*
X022362Y017141D03*
X022012Y016891D03*
X021412Y016991D03*
X021712Y015991D03*
X022012Y015691D03*
X022562Y015691D03*
X024212Y016391D03*
X024262Y017891D03*
X024762Y017891D03*
X025812Y017941D03*
X025512Y018841D03*
X025512Y019241D03*
X025512Y019791D03*
X026512Y019541D03*
X027612Y019091D03*
X027612Y018691D03*
X028812Y018541D03*
X030412Y018241D03*
X031662Y018091D03*
X031512Y019191D03*
X030512Y019691D03*
X029712Y020591D03*
X028862Y020441D03*
X028812Y020891D03*
X028212Y020241D03*
X027712Y020541D03*
X027412Y020841D03*
X027612Y020041D03*
X026512Y021241D03*
X027112Y021841D03*
X027112Y022291D03*
X027562Y021841D03*
X028662Y022341D03*
X028662Y022741D03*
X029562Y021841D03*
X028962Y024641D03*
X028662Y024941D03*
X028212Y026291D03*
X028012Y026891D03*
X027512Y026591D03*
X026812Y027741D03*
X026212Y027191D03*
X025512Y025841D03*
X024262Y026341D03*
X023662Y026541D03*
X022962Y026841D03*
X022212Y027141D03*
X021362Y028041D03*
X021062Y027491D03*
X020162Y027691D03*
X019112Y026841D03*
X018512Y027691D03*
X017862Y027141D03*
X017462Y027141D03*
X017062Y027691D03*
X018162Y026841D03*
X017162Y026541D03*
X017162Y025341D03*
X016762Y025241D03*
X015862Y024941D03*
X018612Y025491D03*
X020162Y025941D03*
X020262Y025491D03*
X020162Y024641D03*
X020462Y024241D03*
X021662Y024241D03*
X021712Y023241D03*
X021362Y022941D03*
X020412Y022991D03*
X020012Y022941D03*
X019012Y022041D03*
X018962Y021291D03*
X019612Y020641D03*
X019012Y020491D03*
X019012Y019641D03*
X017962Y019291D03*
X017962Y020591D03*
X017662Y020891D03*
X017912Y021241D03*
X017912Y021641D03*
X017912Y022041D03*
X016562Y020591D03*
X016562Y020191D03*
X015962Y018891D03*
X015812Y018491D03*
X016562Y017841D03*
X017362Y016941D03*
X017662Y017241D03*
X016862Y016591D03*
X019712Y013391D03*
X020262Y012941D03*
X020262Y012441D03*
X020862Y011691D03*
X021762Y011691D03*
X022312Y011591D03*
X023012Y012441D03*
X022762Y013291D03*
X021262Y013091D03*
X019362Y011541D03*
X017862Y011741D03*
X016962Y011341D03*
X015662Y011691D03*
X015412Y011341D03*
X015412Y010841D03*
X015412Y010441D03*
X016462Y009241D03*
X017312Y009691D03*
X018212Y009991D03*
X020062Y009041D03*
X020562Y009491D03*
X020912Y010041D03*
X020562Y010591D03*
X022212Y007991D03*
X023862Y008741D03*
X023862Y009691D03*
X023512Y010441D03*
X023912Y010691D03*
X023662Y011291D03*
X024962Y011291D03*
X025362Y011291D03*
X027112Y012191D03*
X027412Y011891D03*
X028112Y011241D03*
X028362Y011591D03*
X027112Y009291D03*
X028412Y008441D03*
X030662Y008441D03*
X032262Y009891D03*
X035212Y009741D03*
X036062Y009741D03*
X037462Y007741D03*
X035662Y011991D03*
X034112Y013141D03*
X035062Y013691D03*
X033962Y016991D03*
X034562Y017441D03*
X034662Y017841D03*
X034262Y017741D03*
X035562Y017141D03*
X033912Y019191D03*
X032612Y019191D03*
X032012Y020191D03*
X032862Y016991D03*
X029962Y014091D03*
X028362Y014091D03*
X027962Y014291D03*
X027412Y014841D03*
X027112Y015141D03*
X027612Y015591D03*
X026812Y015791D03*
X026512Y016691D03*
X028062Y016791D03*
X025062Y014891D03*
X025512Y013841D03*
X020712Y015691D03*
X018062Y013241D03*
X016962Y012791D03*
X013812Y010841D03*
X013812Y010441D03*
X013412Y011241D03*
X012212Y011141D03*
X012212Y011541D03*
X012212Y012341D03*
X013412Y013291D03*
X012412Y010341D03*
X012412Y009941D03*
X011012Y009091D03*
X010862Y007541D03*
X011112Y006291D03*
X010512Y006091D03*
X009162Y006191D03*
X008162Y004841D03*
X008462Y004541D03*
X007962Y004441D03*
X007812Y004041D03*
X007512Y003741D03*
X009062Y003941D03*
X009062Y004491D03*
X010512Y004491D03*
X010512Y004091D03*
X010512Y003091D03*
X005512Y003041D03*
X005512Y003541D03*
X005512Y004041D03*
X005312Y005141D03*
X005512Y002641D03*
X013562Y008391D03*
X013862Y008091D03*
X014812Y009041D03*
X008162Y014991D03*
X007862Y015291D03*
X008462Y015591D03*
X008412Y016041D03*
X008812Y016441D03*
X007112Y016341D03*
X005812Y018241D03*
X006162Y019091D03*
X005162Y022141D03*
X007012Y025241D03*
X005062Y026841D03*
X004712Y025791D03*
X003862Y026841D03*
X004462Y027841D03*
X005062Y029341D03*
X005662Y030541D03*
X005062Y031141D03*
X004762Y030841D03*
X004062Y031441D03*
X005662Y032641D03*
X005662Y033741D03*
X005062Y034541D03*
X005462Y035141D03*
X007662Y034541D03*
X008562Y033791D03*
X009462Y033391D03*
X008612Y032641D03*
X008562Y031141D03*
X009312Y029841D03*
X010412Y028941D03*
X010162Y028141D03*
X011312Y027391D03*
X012862Y027191D03*
X013712Y027691D03*
X015562Y029141D03*
X016162Y029141D03*
X016562Y029141D03*
X015612Y030091D03*
X015212Y030091D03*
X014612Y030091D03*
X013412Y030091D03*
X014062Y031391D03*
X014362Y031941D03*
X015012Y031941D03*
X013662Y033091D03*
X013262Y033941D03*
X013362Y034441D03*
X013362Y034841D03*
X014962Y033741D03*
X012812Y032541D03*
X011362Y032841D03*
X011362Y034541D03*
X009712Y035141D03*
X011312Y036691D03*
X012712Y036741D03*
X015512Y036691D03*
X015712Y035741D03*
X017362Y033391D03*
X017262Y032691D03*
X017962Y032791D03*
X018362Y032641D03*
X019062Y031841D03*
X019862Y033091D03*
X019862Y034491D03*
X021462Y035441D03*
X021862Y034941D03*
X022212Y035691D03*
X023412Y033891D03*
X024462Y033391D03*
X024962Y032641D03*
X026212Y031891D03*
X026512Y032591D03*
X027162Y031591D03*
X026862Y031291D03*
X025912Y030691D03*
X027062Y029191D03*
X027462Y029241D03*
X028762Y030991D03*
X029812Y031341D03*
X030062Y032041D03*
X030512Y031641D03*
X031262Y031641D03*
X032062Y032641D03*
X032862Y031741D03*
X034062Y032641D03*
X033162Y033241D03*
X030762Y033691D03*
X031212Y036691D03*
X029912Y036741D03*
X026462Y035491D03*
X025362Y035091D03*
X025212Y034241D03*
X026512Y033541D03*
X023362Y031441D03*
X022562Y030191D03*
X022862Y029441D03*
X022362Y029041D03*
X021762Y028791D03*
X021362Y028791D03*
X019962Y029441D03*
X019662Y028991D03*
X019112Y029741D03*
X018312Y030041D03*
X016862Y031441D03*
X018262Y034041D03*
X019862Y036491D03*
X021412Y031841D03*
X021812Y025791D03*
X022512Y025491D03*
X023462Y024491D03*
X023812Y024241D03*
X023812Y023241D03*
X023562Y022591D03*
X023862Y022291D03*
X024012Y021891D03*
X024012Y020941D03*
X024012Y020541D03*
X024062Y019941D03*
X024062Y019341D03*
X024062Y018941D03*
X022762Y020391D03*
X021012Y020491D03*
X021062Y022041D03*
X022212Y022491D03*
X025062Y021241D03*
X025262Y022741D03*
X025362Y023941D03*
X025362Y024341D03*
X026762Y024341D03*
X029262Y026341D03*
X031162Y027891D03*
X031562Y027891D03*
X031862Y028941D03*
X032862Y029541D03*
X033262Y028791D03*
X033062Y028191D03*
X033362Y027891D03*
X034862Y030241D03*
X035262Y030241D03*
X037862Y029091D03*
X036112Y027441D03*
X038212Y025191D03*
X036062Y021641D03*
X035662Y021641D03*
X036512Y019491D03*
X031762Y030491D03*
X016012Y022141D03*
X016162Y021741D03*
X011212Y030841D03*
X006962Y032641D03*
X002962Y033641D03*
X004262Y016291D03*
X025162Y006341D03*
D40*
X028262Y006541D03*
X028262Y005341D03*
X034212Y005491D03*
X035162Y004591D03*
X022262Y005441D03*
X022262Y006691D03*
X015362Y003541D03*
X015362Y002191D03*
X013112Y003441D03*
X009062Y004941D03*
X013062Y008741D03*
X009062Y011941D03*
X004462Y012941D03*
X004262Y013841D03*
X003462Y014641D03*
X007012Y018941D03*
X007512Y018941D03*
X008012Y018941D03*
X008512Y018941D03*
X009012Y018941D03*
X009512Y018941D03*
X010012Y018941D03*
X010512Y018941D03*
X010612Y019991D03*
X010012Y020441D03*
X010012Y020941D03*
X010012Y021441D03*
X010512Y021441D03*
X010512Y021941D03*
X010012Y021941D03*
X010012Y022441D03*
X010512Y022441D03*
X010512Y022941D03*
X010012Y022941D03*
X010012Y023441D03*
X010512Y023441D03*
X010512Y023941D03*
X010012Y023941D03*
X010012Y024441D03*
X010512Y024441D03*
X010512Y024941D03*
X010012Y024941D03*
X009512Y024941D03*
X009012Y024941D03*
X009262Y026191D03*
X008762Y026191D03*
X008762Y026691D03*
X009262Y026691D03*
X009762Y026691D03*
X010262Y026691D03*
X010762Y026691D03*
X010762Y026191D03*
X011262Y026191D03*
X011762Y026191D03*
X012262Y026191D03*
X012762Y026191D03*
X013262Y026191D03*
X013762Y026191D03*
X014262Y026191D03*
X014762Y026191D03*
X015262Y026191D03*
X015262Y027341D03*
X014812Y027341D03*
X014362Y027341D03*
X015762Y027341D03*
X014512Y024941D03*
X014012Y024941D03*
X014012Y024441D03*
X013512Y024441D03*
X013012Y024441D03*
X013012Y024941D03*
X013512Y024941D03*
X013512Y023941D03*
X013512Y023441D03*
X013512Y022941D03*
X013512Y022441D03*
X014012Y022441D03*
X014012Y022941D03*
X014012Y023441D03*
X014012Y023941D03*
X012512Y024441D03*
X012012Y024441D03*
X011512Y024441D03*
X011012Y024441D03*
X011012Y024941D03*
X011512Y024941D03*
X012012Y024941D03*
X012512Y024941D03*
X010262Y026191D03*
X009762Y026191D03*
X006762Y026191D03*
X006262Y026191D03*
X006512Y024941D03*
X006512Y024441D03*
X006512Y023941D03*
X006512Y023441D03*
X006512Y022941D03*
X006512Y022441D03*
X006512Y021941D03*
X006512Y021441D03*
X006512Y020941D03*
X006512Y020441D03*
X007512Y020441D03*
X008512Y020441D03*
X011712Y020041D03*
X012312Y020041D03*
X012312Y019491D03*
X014012Y019441D03*
X014012Y019941D03*
X014012Y020441D03*
X014012Y020941D03*
X014012Y021441D03*
X013512Y021441D03*
X013512Y021941D03*
X014012Y021941D03*
X014012Y018941D03*
X014012Y018441D03*
X013712Y013941D03*
X018012Y013691D03*
X019612Y015691D03*
X019612Y016741D03*
X021362Y016541D03*
X028862Y021891D03*
X030662Y021941D03*
X031212Y022841D03*
X031262Y023941D03*
X031862Y024191D03*
X032262Y023941D03*
X032762Y023941D03*
X033162Y024191D03*
X032762Y024441D03*
X032262Y024441D03*
X031262Y024441D03*
X030712Y025391D03*
X030762Y026491D03*
X029312Y026941D03*
X027912Y027691D03*
X026912Y026191D03*
X030262Y030091D03*
X032512Y030091D03*
X033262Y030091D03*
X035012Y027091D03*
X035412Y025991D03*
X036262Y026391D03*
X034112Y024441D03*
X034112Y023941D03*
X033612Y023941D03*
X033612Y024441D03*
X035612Y024041D03*
X035612Y023141D03*
X036662Y023341D03*
X037412Y023741D03*
X033262Y021941D03*
X032212Y017141D03*
X018162Y024041D03*
X004912Y020691D03*
X004762Y009441D03*
X004762Y007841D03*
X004462Y005941D03*
M02*
