G75*
G70*
%OFA0B0*%
%FSLAX24Y24*%
%IPPOS*%
%LPD*%
%AMOC8*
5,1,8,0,0,1.08239X$1,22.5*
%
%ADD10O,0.0965X0.1850*%
%ADD11O,0.1085X0.2090*%
%ADD12C,0.1080*%
%ADD13OC8,0.1080*%
%ADD14OC8,0.0680*%
%ADD15C,0.0830*%
%ADD16C,0.1480*%
%ADD17O,0.1580X0.0830*%
%ADD18O,0.1200X0.0640*%
%ADD19R,0.1419X0.0828*%
%ADD20C,0.0600*%
%ADD21C,0.0680*%
%ADD22O,0.1280X0.0680*%
%ADD23O,0.1497X0.0789*%
%ADD24O,0.0600X0.1120*%
%ADD25OC8,0.0930*%
%ADD26C,0.0480*%
D10*
X008592Y006011D03*
X010792Y006011D03*
X012992Y006011D03*
X015592Y006011D03*
X017792Y006011D03*
X019992Y006011D03*
X022592Y006011D03*
X024792Y006011D03*
X026992Y006011D03*
X029592Y006011D03*
X031792Y006011D03*
X033992Y006011D03*
X035892Y006211D03*
X035892Y012211D03*
X033992Y032711D03*
X031792Y032711D03*
X029592Y032711D03*
X026992Y032711D03*
X024792Y032711D03*
X022592Y032711D03*
X019992Y032711D03*
X017792Y032711D03*
X015592Y032711D03*
X012992Y032711D03*
X010792Y032711D03*
X008592Y032711D03*
D11*
X010792Y030861D03*
X012992Y030861D03*
X017792Y030861D03*
X019992Y030861D03*
X024792Y030861D03*
X026992Y030861D03*
X031792Y030861D03*
X033992Y030861D03*
X031792Y007861D03*
X029592Y007861D03*
X024792Y007861D03*
X022592Y007861D03*
X017792Y007861D03*
X015592Y007861D03*
X010792Y007861D03*
X008592Y007861D03*
D12*
X010292Y011861D03*
X014792Y011861D03*
X019292Y011861D03*
X023792Y011861D03*
X028292Y011861D03*
X032792Y011861D03*
X017342Y018461D03*
X015292Y026861D03*
X010792Y026861D03*
X019792Y026861D03*
X024292Y026861D03*
X028792Y026861D03*
X033292Y026861D03*
D13*
X033292Y028861D03*
X028792Y028861D03*
X024292Y028861D03*
X019792Y028861D03*
X015292Y028861D03*
X010792Y028861D03*
X017342Y020461D03*
X019292Y009861D03*
X014792Y009861D03*
X010292Y009861D03*
X023792Y009861D03*
X028292Y009861D03*
X032792Y009861D03*
D14*
X054742Y003511D03*
X055742Y003511D03*
X056742Y003511D03*
X057742Y003511D03*
X058742Y003511D03*
X058742Y002511D03*
X057742Y002511D03*
X056742Y002511D03*
X055742Y002511D03*
X054742Y002511D03*
X057792Y006361D03*
X057792Y007361D03*
X058792Y007361D03*
X058792Y008361D03*
X057792Y008361D03*
X007042Y011961D03*
X007042Y015961D03*
X007042Y022311D03*
X007042Y028311D03*
D15*
X005473Y002993D03*
X005473Y003977D03*
X005473Y004961D03*
X005473Y005945D03*
X005473Y006930D03*
X005473Y023493D03*
X005473Y024477D03*
X005473Y025461D03*
X005473Y026445D03*
X005473Y027430D03*
D16*
X003111Y025855D03*
X003111Y033335D03*
X003111Y012835D03*
X003111Y005355D03*
D17*
X026292Y017861D03*
X026292Y019861D03*
X034292Y018861D03*
X034292Y014861D03*
X034292Y022861D03*
D18*
X005042Y020161D03*
X004342Y018161D03*
D19*
X012292Y011628D03*
X012292Y010093D03*
X017292Y010093D03*
X017292Y011628D03*
X021792Y011628D03*
X021792Y010093D03*
X026292Y010093D03*
X026292Y011628D03*
X030792Y011628D03*
X030792Y010093D03*
X034392Y010093D03*
X034392Y011628D03*
X035292Y027093D03*
X035292Y028628D03*
X031292Y028628D03*
X031292Y027093D03*
X026792Y027093D03*
X026792Y028628D03*
X022292Y028628D03*
X022292Y027093D03*
X017792Y027093D03*
X017792Y028628D03*
X013292Y028628D03*
X013292Y027093D03*
D20*
X054992Y008511D03*
X054992Y006611D03*
D21*
X058792Y006361D03*
D22*
X057792Y032861D03*
X057792Y033861D03*
X057792Y034861D03*
D23*
X058792Y022361D03*
X058792Y021361D03*
X058792Y020361D03*
X058792Y019361D03*
X058792Y018361D03*
X058792Y017361D03*
X058792Y016361D03*
X001792Y018861D03*
X001792Y019861D03*
D24*
X046792Y032361D03*
X047792Y032361D03*
X048792Y032361D03*
X049792Y032361D03*
X050792Y032361D03*
X051792Y032361D03*
X052792Y032361D03*
X053792Y032361D03*
X054792Y032361D03*
X055792Y032361D03*
X055792Y035361D03*
X054792Y035361D03*
X053792Y035361D03*
X052792Y035361D03*
X051792Y035361D03*
X050792Y035361D03*
X049792Y035361D03*
X048792Y035361D03*
X047792Y035361D03*
X046792Y035361D03*
D25*
X051492Y031111D03*
X055192Y029861D03*
X055192Y028511D03*
X046442Y023811D03*
X042192Y028311D03*
X042192Y029661D03*
X045542Y004011D03*
X045542Y002561D03*
D26*
X046792Y002361D03*
X044292Y002161D03*
X042292Y004361D03*
X040292Y004361D03*
X039792Y004861D03*
X039292Y004361D03*
X039292Y005361D03*
X039792Y005861D03*
X039292Y006361D03*
X040292Y006361D03*
X039792Y006861D03*
X039292Y007361D03*
X039792Y007861D03*
X040292Y007361D03*
X040292Y008361D03*
X039792Y008861D03*
X039292Y009361D03*
X040292Y009361D03*
X040792Y008861D03*
X041292Y009361D03*
X041792Y008861D03*
X042292Y009361D03*
X042792Y008861D03*
X043292Y009361D03*
X043792Y008861D03*
X044292Y009361D03*
X044792Y008861D03*
X045292Y009361D03*
X044792Y009861D03*
X044292Y010361D03*
X043792Y010861D03*
X043292Y010361D03*
X042792Y010861D03*
X042292Y010361D03*
X041792Y010861D03*
X041292Y010361D03*
X040792Y010861D03*
X040292Y010361D03*
X039792Y010861D03*
X039292Y010361D03*
X039792Y009861D03*
X040792Y009861D03*
X041792Y009861D03*
X042792Y009861D03*
X043792Y009861D03*
X044792Y010861D03*
X045292Y010361D03*
X045292Y008361D03*
X044292Y008361D03*
X044792Y007861D03*
X044292Y007361D03*
X044792Y006861D03*
X045292Y007361D03*
X045292Y006361D03*
X044792Y005861D03*
X044292Y006361D03*
X044292Y005361D03*
X045292Y005361D03*
X044792Y004861D03*
X047942Y005811D03*
X049542Y005811D03*
X050492Y006261D03*
X050092Y007061D03*
X051042Y007411D03*
X052992Y008561D03*
X052992Y009461D03*
X051192Y010461D03*
X050892Y010961D03*
X050192Y010811D03*
X049842Y010461D03*
X048592Y010461D03*
X048642Y009361D03*
X048592Y008561D03*
X052692Y011361D03*
X054392Y011661D03*
X054192Y012811D03*
X055592Y012561D03*
X058392Y011861D03*
X056692Y008761D03*
X056242Y007261D03*
X050792Y011811D03*
X051992Y013011D03*
X050142Y015211D03*
X049292Y015561D03*
X050492Y016611D03*
X051392Y016611D03*
X051042Y017661D03*
X050142Y018061D03*
X049692Y018711D03*
X048892Y018361D03*
X047992Y019161D03*
X046892Y019161D03*
X046892Y019861D03*
X045842Y019861D03*
X046892Y021111D03*
X046192Y022011D03*
X044892Y022011D03*
X043292Y024461D03*
X042842Y024211D03*
X041542Y024061D03*
X040342Y024661D03*
X044392Y025811D03*
X047292Y025411D03*
X048192Y025061D03*
X048042Y024261D03*
X049942Y025711D03*
X050392Y026461D03*
X052442Y026561D03*
X052692Y027461D03*
X053442Y026561D03*
X055392Y025711D03*
X056092Y026411D03*
X055742Y023861D03*
X057342Y023811D03*
X056992Y022811D03*
X056342Y022011D03*
X055542Y022011D03*
X054142Y021361D03*
X053792Y022361D03*
X051042Y023911D03*
X050592Y025061D03*
X048542Y027461D03*
X049742Y028311D03*
X051342Y028811D03*
X050592Y030111D03*
X046492Y031161D03*
X045892Y030911D03*
X046242Y029911D03*
X044892Y029811D03*
X044292Y029961D03*
X042642Y031611D03*
X041492Y030861D03*
X040942Y028261D03*
X039042Y028261D03*
X045042Y028011D03*
X045492Y032711D03*
X043842Y033761D03*
X043092Y034111D03*
X043942Y034661D03*
X043942Y035961D03*
X044442Y035961D03*
X041092Y034511D03*
X039742Y033411D03*
X038092Y033411D03*
X038142Y034361D03*
X037592Y034361D03*
X037042Y033411D03*
X035992Y033411D03*
X038292Y035311D03*
X025092Y025061D03*
X020892Y024561D03*
X016192Y024611D03*
X014642Y025111D03*
X014092Y023961D03*
X014792Y023411D03*
X012042Y022961D03*
X010092Y021361D03*
X009042Y022111D03*
X008542Y020961D03*
X007992Y019711D03*
X006142Y019711D03*
X005342Y018911D03*
X008692Y015911D03*
X012242Y015961D03*
X012392Y014861D03*
X014742Y014961D03*
X017492Y015261D03*
X017692Y015811D03*
X019142Y015261D03*
X019642Y015011D03*
X019342Y015811D03*
X020942Y014511D03*
X021542Y014961D03*
X024942Y014111D03*
X028192Y016561D03*
X027892Y017111D03*
X027492Y019511D03*
X027292Y020711D03*
X031542Y023011D03*
X033042Y018111D03*
X039792Y018211D03*
X040292Y018211D03*
X040792Y018211D03*
X041292Y018211D03*
X042192Y019011D03*
X042792Y019011D03*
X043342Y019011D03*
X044392Y017461D03*
X044392Y016961D03*
X044742Y016261D03*
X046742Y014761D03*
X048242Y014561D03*
X047742Y016611D03*
X047242Y016611D03*
X048542Y016811D03*
X046542Y018261D03*
X049392Y019411D03*
X051542Y020411D03*
X052342Y019761D03*
X053892Y019411D03*
X054292Y019961D03*
X055192Y019761D03*
X057392Y018161D03*
X055292Y017711D03*
X055642Y016961D03*
X054542Y016411D03*
X054942Y015911D03*
X052892Y017661D03*
X049692Y021111D03*
X041292Y016511D03*
X040792Y016511D03*
X040292Y016511D03*
X039792Y016511D03*
X048242Y012211D03*
X039292Y008361D03*
X040292Y005361D03*
X040292Y002361D03*
X039292Y002361D03*
X016192Y016861D03*
X018142Y017661D03*
X013242Y018261D03*
X012142Y018461D03*
X011292Y025111D03*
X004692Y030111D03*
X005292Y007761D03*
M02*
