%
M48
M72
T01C0.0590
T02C0.0670
T03C0.0400
T04C0.0500
T05C0.1000
T06C0.0360
T07C0.0320
T08C0.0472
T09C0.0520
T10C0.0240
%
T01
X859Y601
X1079Y601
X1299Y601
X1559Y601
X1779Y601
X1999Y601
X2259Y601
X2479Y601
X2699Y601
X2959Y601
X3179Y601
X3399Y601
X3589Y621
X3589Y1221
X3399Y3271
X3179Y3271
X2959Y3271
X2699Y3271
X2479Y3271
X2259Y3271
X1999Y3271
X1779Y3271
X1559Y3271
X1299Y3271
X1079Y3271
X859Y3271
T02
X1079Y3086
X1299Y3086
X1779Y3086
X1999Y3086
X2479Y3086
X2699Y3086
X3179Y3086
X3399Y3086
X3179Y786
X2959Y786
X2479Y786
X2259Y786
X1779Y786
X1559Y786
X1079Y786
X859Y786
T03
X1029Y986
X1029Y1186
X704Y1196
X704Y1596
X1479Y1186
X1479Y986
X1929Y986
X1929Y1186
X2379Y1186
X2379Y986
X2829Y986
X2829Y1186
X3279Y1186
X3279Y986
X1734Y1846
X1734Y2046
X1529Y2686
X1529Y2886
X1079Y2886
X1079Y2686
X704Y2831
X704Y2231
X1979Y2686
X1979Y2886
X2429Y2886
X2429Y2686
X2879Y2686
X2879Y2886
X3329Y2886
X3329Y2686
X5779Y3286
X5779Y3386
X5779Y3486
X5779Y836
X5879Y836
X5879Y736
X5779Y736
X5779Y636
X5879Y636
X5874Y351
X5774Y351
X5674Y351
X5574Y351
X5474Y351
X5474Y251
X5574Y251
X5674Y251
X5774Y251
X5874Y251
T04
X547Y299
X547Y398
X547Y496
X547Y595
X547Y693
X2629Y1786
X2629Y1986
X3429Y1886
X3429Y1486
X3429Y2286
X547Y2349
X547Y2448
X547Y2546
X547Y2645
X547Y2743
T05
X311Y2585
X311Y3334
X311Y1284
X311Y535
T06
X434Y1816
X504Y2016
T07
X4679Y3236
X4779Y3236
X4879Y3236
X4979Y3236
X5079Y3236
X5179Y3236
X5279Y3236
X5379Y3236
X5479Y3236
X5579Y3236
X5579Y3536
X5479Y3536
X5379Y3536
X5279Y3536
X5179Y3536
X5079Y3536
X4979Y3536
X4879Y3536
X4779Y3536
X4679Y3536
X5499Y851
X5499Y661
T08
X5879Y1636
X5879Y1736
X5879Y1836
X5879Y1936
X5879Y2036
X5879Y2136
X5879Y2236
X179Y1986
X179Y1886
T09
X4219Y2831
X4219Y2966
X4644Y2381
X5519Y2851
X5519Y2986
X5149Y3111
X4554Y401
X4554Y256
T10
X4679Y236
X4429Y216
X4229Y436
X4029Y436
X3979Y486
X3929Y436
X3929Y536
X3979Y586
X3929Y636
X4029Y636
X3979Y686
X3929Y736
X3979Y786
X4029Y736
X4029Y836
X3979Y886
X3929Y836
X3929Y936
X4029Y936
X4079Y886
X4129Y936
X4179Y886
X4229Y936
X4279Y886
X4329Y936
X4379Y886
X4429Y836
X4479Y886
X4429Y936
X4529Y936
X4479Y986
X4429Y1036
X4379Y986
X4329Y1036
X4279Y986
X4229Y1036
X4179Y986
X4129Y1036
X4079Y986
X4029Y1036
X3979Y986
X3929Y1036
X3979Y1086
X4079Y1086
X4179Y1086
X4279Y1086
X4379Y1086
X4479Y1086
X4529Y1036
X4529Y836
X4479Y786
X4429Y736
X4479Y686
X4529Y736
X4529Y636
X4479Y586
X4429Y536
X4529Y536
X4479Y486
X4429Y636
X4794Y581
X4954Y581
X5049Y626
X5009Y706
X5104Y741
X5299Y856
X5299Y946
X5119Y1046
X5089Y1096
X5019Y1081
X4984Y1046
X4859Y1046
X4864Y936
X4859Y856
X5269Y1136
X5439Y1166
X5419Y1281
X5559Y1256
X5839Y1186
X5669Y876
X5624Y726
X5079Y1181
X5199Y1301
X5014Y1521
X4929Y1556
X5049Y1661
X5139Y1661
X5104Y1766
X5014Y1806
X4969Y1871
X4889Y1836
X4799Y1916
X4689Y1916
X4689Y1986
X4584Y1986
X4689Y2111
X4619Y2201
X4489Y2201
X4329Y2446
X4284Y2421
X4154Y2406
X4034Y2466
X4439Y2581
X4729Y2541
X4819Y2506
X4804Y2426
X4994Y2571
X5039Y2646
X5244Y2656
X5269Y2746
X5344Y2656
X5539Y2571
X5609Y2641
X5574Y2386
X5734Y2381
X5699Y2281
X5634Y2201
X5554Y2201
X5414Y2136
X5379Y2236
X5104Y2391
X5059Y2506
X4854Y2746
X4974Y2831
X5134Y2881
X5059Y3011
X4649Y3116
X4589Y3091
X4624Y2991
X4489Y2981
X4429Y2996
X4264Y3161
X4149Y3086
X4094Y2826
X3904Y2826
X4504Y2801
X4549Y3271
X4384Y3376
X4309Y3411
X4394Y3466
X4394Y3596
X4444Y3596
X4109Y3451
X3974Y3341
X3809Y3341
X3814Y3436
X3759Y3436
X3704Y3341
X3599Y3341
X3829Y3531
X2509Y2506
X2089Y2456
X1619Y2461
X1464Y2511
X1409Y2396
X1479Y2341
X1204Y2296
X1009Y2136
X904Y2211
X854Y2096
X799Y1971
X614Y1971
X534Y1891
X869Y1591
X1224Y1596
X1239Y1486
X1474Y1496
X1749Y1526
X1769Y1581
X1914Y1526
X1964Y1501
X1934Y1581
X2094Y1451
X2154Y1496
X2494Y1411
X2819Y1656
X2789Y1711
X2749Y1951
X2729Y2071
X3154Y2301
X3304Y1811
X3979Y1821
X4029Y1821
X4079Y1821
X4129Y1821
X4219Y1901
X4279Y1901
X4334Y1901
X4439Y1746
X4439Y1696
X4474Y1626
X4674Y1476
X4824Y1456
X4774Y1661
X4724Y1661
X4854Y1681
X4654Y1826
X4939Y1941
X5154Y2041
X5234Y1976
X5389Y1941
X5429Y1996
X5519Y1976
X5739Y1816
X5529Y1771
X5564Y1696
X5454Y1641
X5494Y1591
X5289Y1766
X4969Y2111
X4129Y1651
X4079Y1651
X4029Y1651
X3979Y1651
X4824Y1221
X4029Y536
X4029Y236
X3929Y236
X1619Y1686
X1814Y1766
X1324Y1826
X1214Y1846
X1129Y2511
X469Y3011
X529Y776
M30
