G75*
G70*
%OFA0B0*%
%FSLAX24Y24*%
%IPPOS*%
%LPD*%
%AMOC8*
5,1,8,0,0,1.08239X$1,22.5*
%
%ADD10R,0.0671X0.0592*%
%ADD11O,0.0965X0.1850*%
%ADD12O,0.1085X0.2090*%
%ADD13C,0.1080*%
%ADD14OC8,0.1080*%
%ADD15OC8,0.0680*%
%ADD16C,0.0830*%
%ADD17C,0.1480*%
%ADD18O,0.1580X0.0830*%
%ADD19R,0.0592X0.0671*%
%ADD20O,0.1200X0.0640*%
%ADD21R,0.0880X0.0340*%
%ADD22R,0.0540X0.0710*%
%ADD23R,0.0060X0.0720*%
%ADD24R,0.0474X0.0631*%
%ADD25R,0.0710X0.0789*%
%ADD26R,0.0789X0.0710*%
%ADD27R,0.0300X0.0550*%
%ADD28R,0.0550X0.0300*%
%ADD29R,0.0434X0.0356*%
%ADD30C,0.0600*%
%ADD31R,0.0474X0.0474*%
%ADD32C,0.0680*%
%ADD33O,0.1280X0.0680*%
%ADD34R,0.0356X0.0434*%
%ADD35R,0.0340X0.0880*%
%ADD36R,0.0671X0.0356*%
%ADD37O,0.1497X0.0789*%
%ADD38C,0.0208*%
%ADD39O,0.0600X0.1120*%
%ADD40R,0.2206X0.2521*%
%ADD41R,0.0474X0.0710*%
%ADD42OC8,0.0930*%
%ADD43R,0.0315X0.0433*%
%ADD44C,0.0218*%
%ADD45R,0.0848X0.0848*%
%ADD46C,0.0480*%
D10*
X012942Y008095D03*
X012942Y007426D03*
X020142Y007426D03*
X020142Y008095D03*
X027142Y008095D03*
X027142Y007426D03*
X033942Y007426D03*
X033942Y008095D03*
X043292Y003195D03*
X043292Y002526D03*
X047792Y002526D03*
X047792Y003195D03*
X049292Y003195D03*
X049292Y002526D03*
X050792Y002526D03*
X050792Y003195D03*
X052292Y003195D03*
X052292Y002526D03*
X053292Y018526D03*
X053292Y019195D03*
X051742Y019076D03*
X051742Y019745D03*
X051742Y021076D03*
X051742Y021745D03*
X050292Y021745D03*
X050292Y021076D03*
X048792Y021076D03*
X048792Y021745D03*
X050292Y023076D03*
X050292Y023745D03*
X051792Y023745D03*
X051792Y023076D03*
X050292Y019745D03*
X050292Y019076D03*
X048792Y019076D03*
X048792Y019745D03*
X043242Y020626D03*
X042392Y020626D03*
X042392Y021295D03*
X043242Y021295D03*
X041542Y021295D03*
X041542Y020626D03*
X054792Y019195D03*
X054792Y018526D03*
X056292Y018526D03*
X056292Y019195D03*
X029442Y030626D03*
X029442Y031295D03*
X022642Y031295D03*
X022642Y030626D03*
X015592Y030626D03*
X015592Y031295D03*
X008592Y031295D03*
X008592Y030626D03*
X005442Y030826D03*
X005442Y031495D03*
X005442Y029445D03*
X005442Y028776D03*
X017092Y022945D03*
X017092Y022276D03*
X016792Y014995D03*
X016792Y014326D03*
X005492Y010795D03*
X005492Y010126D03*
X005492Y009145D03*
X005492Y008476D03*
D11*
X008592Y006011D03*
X010792Y006011D03*
X012992Y006011D03*
X015592Y006011D03*
X017792Y006011D03*
X019992Y006011D03*
X022592Y006011D03*
X024792Y006011D03*
X026992Y006011D03*
X029592Y006011D03*
X031792Y006011D03*
X033992Y006011D03*
X035892Y006211D03*
X035892Y012211D03*
X033992Y032711D03*
X031792Y032711D03*
X029592Y032711D03*
X026992Y032711D03*
X024792Y032711D03*
X022592Y032711D03*
X019992Y032711D03*
X017792Y032711D03*
X015592Y032711D03*
X012992Y032711D03*
X010792Y032711D03*
X008592Y032711D03*
D12*
X010792Y030861D03*
X012992Y030861D03*
X017792Y030861D03*
X019992Y030861D03*
X024792Y030861D03*
X026992Y030861D03*
X031792Y030861D03*
X033992Y030861D03*
X031792Y007861D03*
X029592Y007861D03*
X024792Y007861D03*
X022592Y007861D03*
X017792Y007861D03*
X015592Y007861D03*
X010792Y007861D03*
X008592Y007861D03*
D13*
X010292Y011861D03*
X014792Y011861D03*
X019292Y011861D03*
X023792Y011861D03*
X028292Y011861D03*
X032792Y011861D03*
X017342Y018461D03*
X015292Y026861D03*
X010792Y026861D03*
X019792Y026861D03*
X024292Y026861D03*
X028792Y026861D03*
X033292Y026861D03*
D14*
X033292Y028861D03*
X028792Y028861D03*
X024292Y028861D03*
X019792Y028861D03*
X015292Y028861D03*
X010792Y028861D03*
X017342Y020461D03*
X019292Y009861D03*
X014792Y009861D03*
X010292Y009861D03*
X023792Y009861D03*
X028292Y009861D03*
X032792Y009861D03*
D15*
X054742Y003511D03*
X055742Y003511D03*
X056742Y003511D03*
X057742Y003511D03*
X058742Y003511D03*
X058742Y002511D03*
X057742Y002511D03*
X056742Y002511D03*
X055742Y002511D03*
X054742Y002511D03*
X057792Y006361D03*
X057792Y007361D03*
X058792Y007361D03*
X058792Y008361D03*
X057792Y008361D03*
X007042Y011961D03*
X007042Y015961D03*
X007042Y022311D03*
X007042Y028311D03*
D16*
X005473Y002993D03*
X005473Y003977D03*
X005473Y004961D03*
X005473Y005945D03*
X005473Y006930D03*
X005473Y023493D03*
X005473Y024477D03*
X005473Y025461D03*
X005473Y026445D03*
X005473Y027430D03*
D17*
X003111Y025855D03*
X003111Y033335D03*
X003111Y012835D03*
X003111Y005355D03*
D18*
X026292Y017861D03*
X026292Y019861D03*
X034292Y018861D03*
X034292Y014861D03*
X034292Y022861D03*
D19*
X041958Y026361D03*
X042627Y026361D03*
X053458Y028511D03*
X054127Y028511D03*
X054127Y029861D03*
X053458Y029861D03*
D20*
X005042Y020161D03*
X004342Y018161D03*
D21*
X013082Y016861D03*
X013082Y016361D03*
X013082Y015861D03*
X013082Y015361D03*
X013082Y014861D03*
X013082Y014361D03*
X013082Y013861D03*
X015502Y013861D03*
X015502Y014361D03*
X015502Y014861D03*
X015502Y015361D03*
X015502Y015861D03*
X015502Y016361D03*
X015502Y016861D03*
X015502Y021861D03*
X015502Y022361D03*
X015502Y022861D03*
X015502Y023361D03*
X015502Y023861D03*
X015502Y024361D03*
X015502Y024861D03*
X013082Y024861D03*
X013082Y024361D03*
X013082Y023861D03*
X013082Y023361D03*
X013082Y022861D03*
X013082Y022361D03*
X013082Y021861D03*
X042382Y032161D03*
X042382Y032661D03*
X042382Y033161D03*
X042382Y033661D03*
X042382Y034161D03*
X042382Y034661D03*
X042382Y035161D03*
X044802Y035161D03*
X044802Y034661D03*
X044802Y034161D03*
X044802Y033661D03*
X044802Y033161D03*
X044802Y032661D03*
X044802Y032161D03*
D22*
X032092Y018861D03*
X031492Y018861D03*
D23*
X031792Y018861D03*
D24*
X012016Y021428D03*
X011268Y021428D03*
X011642Y022294D03*
X011842Y014044D03*
X011468Y013178D03*
X012216Y013178D03*
D25*
X016891Y016961D03*
X017993Y016961D03*
X017943Y024861D03*
X016841Y024861D03*
X038441Y025111D03*
X039543Y025111D03*
D26*
X011142Y024412D03*
X011142Y023309D03*
X011492Y016012D03*
X011492Y014909D03*
X041542Y003412D03*
X041542Y002309D03*
D27*
X047980Y009940D03*
X048295Y009940D03*
X048610Y009940D03*
X048925Y009940D03*
X049240Y009940D03*
X049555Y009940D03*
X049870Y009940D03*
X050185Y009940D03*
X050500Y009940D03*
X050815Y009940D03*
X051130Y009940D03*
X051445Y009940D03*
X051760Y009940D03*
X052075Y009940D03*
X052390Y009940D03*
X052704Y009940D03*
X052704Y016081D03*
X052390Y016081D03*
X052075Y016081D03*
X051760Y016081D03*
X051445Y016081D03*
X051130Y016081D03*
X050815Y016081D03*
X050500Y016081D03*
X050185Y016081D03*
X049870Y016081D03*
X049555Y016081D03*
X049240Y016081D03*
X048925Y016081D03*
X048610Y016081D03*
X048295Y016081D03*
X047980Y016081D03*
D28*
X047271Y015373D03*
X047271Y015058D03*
X047271Y014743D03*
X047271Y014428D03*
X047271Y014113D03*
X047271Y013798D03*
X047271Y013483D03*
X047271Y013168D03*
X047271Y012853D03*
X047271Y012538D03*
X047271Y012223D03*
X047271Y011908D03*
X047271Y011593D03*
X047271Y011278D03*
X047271Y010963D03*
X047271Y010648D03*
X053413Y010648D03*
X053413Y010963D03*
X053413Y011278D03*
X053413Y011593D03*
X053413Y011908D03*
X053413Y012223D03*
X053413Y012538D03*
X053413Y012853D03*
X053413Y013168D03*
X053413Y013483D03*
X053413Y013798D03*
X053413Y014113D03*
X053413Y014428D03*
X053413Y014743D03*
X053413Y015058D03*
X053413Y015373D03*
D29*
X049342Y017355D03*
X049342Y017867D03*
X048342Y017867D03*
X048342Y017355D03*
X056692Y010267D03*
X057492Y010267D03*
X057492Y009755D03*
X056692Y009755D03*
X047942Y006867D03*
X047942Y006355D03*
X044292Y003167D03*
X044292Y002655D03*
X044492Y026755D03*
X044492Y027267D03*
X051192Y029255D03*
X051192Y029767D03*
D30*
X054992Y008511D03*
X054992Y006611D03*
D31*
X047342Y017117D03*
X047342Y017904D03*
D32*
X058792Y006361D03*
D33*
X057792Y032861D03*
X057792Y033861D03*
X057792Y034861D03*
D34*
X048498Y030411D03*
X047986Y030411D03*
X047298Y030411D03*
X046786Y030411D03*
X046098Y030411D03*
X045586Y030411D03*
X044398Y030461D03*
X043886Y030461D03*
X049036Y028861D03*
X049548Y028861D03*
X049548Y027861D03*
X049036Y027861D03*
X048986Y026911D03*
X049498Y026911D03*
X051436Y017211D03*
X051948Y017211D03*
X049598Y009111D03*
X049086Y009111D03*
D35*
X049042Y008091D03*
X049542Y008091D03*
X050042Y008091D03*
X050542Y008091D03*
X051042Y008091D03*
X051542Y008091D03*
X052042Y008091D03*
X052542Y008091D03*
X052542Y004231D03*
X052042Y004231D03*
X051542Y004231D03*
X051042Y004231D03*
X050542Y004231D03*
X050042Y004231D03*
X049542Y004231D03*
X049042Y004231D03*
X053042Y020651D03*
X053542Y020651D03*
X054042Y020651D03*
X054542Y020651D03*
X055042Y020651D03*
X055542Y020651D03*
X056042Y020651D03*
X056542Y020651D03*
X056542Y023071D03*
X056042Y023071D03*
X055542Y023071D03*
X055042Y023071D03*
X054542Y023071D03*
X054042Y023071D03*
X053542Y023071D03*
X053042Y023071D03*
D36*
X054975Y014611D03*
X054975Y014111D03*
X054975Y013611D03*
X054975Y013111D03*
X054975Y012611D03*
X054975Y012111D03*
X054975Y011611D03*
X054975Y011111D03*
X057610Y011111D03*
X057610Y011611D03*
X057610Y012111D03*
X057610Y012611D03*
X057610Y013111D03*
X057610Y013611D03*
X057610Y014111D03*
X057610Y014611D03*
D37*
X058792Y016361D03*
X058792Y017361D03*
X058792Y018361D03*
X058792Y019361D03*
X058792Y020361D03*
X058792Y021361D03*
X058792Y022361D03*
X001792Y019861D03*
X001792Y018861D03*
D38*
X045813Y027197D02*
X045881Y027197D01*
X045813Y027197D02*
X045813Y027265D01*
X045881Y027265D01*
X045881Y027197D01*
X045881Y027512D02*
X045813Y027512D01*
X045813Y027580D01*
X045881Y027580D01*
X045881Y027512D01*
X046128Y027512D02*
X046196Y027512D01*
X046128Y027512D02*
X046128Y027580D01*
X046196Y027580D01*
X046196Y027512D01*
X046196Y027827D02*
X046128Y027827D01*
X046128Y027895D01*
X046196Y027895D01*
X046196Y027827D01*
X046196Y028142D02*
X046128Y028142D01*
X046128Y028210D01*
X046196Y028210D01*
X046196Y028142D01*
X045881Y028142D02*
X045813Y028142D01*
X045813Y028210D01*
X045881Y028210D01*
X045881Y028142D01*
X045881Y027827D02*
X045813Y027827D01*
X045813Y027895D01*
X045881Y027895D01*
X045881Y027827D01*
X046443Y027197D02*
X046511Y027197D01*
X046443Y027197D02*
X046443Y027265D01*
X046511Y027265D01*
X046511Y027197D01*
X046511Y026882D02*
X046443Y026882D01*
X046443Y026950D01*
X046511Y026950D01*
X046511Y026882D01*
X046758Y026882D02*
X046826Y026882D01*
X046758Y026882D02*
X046758Y026950D01*
X046826Y026950D01*
X046826Y026882D01*
X047073Y026882D02*
X047141Y026882D01*
X047073Y026882D02*
X047073Y026950D01*
X047141Y026950D01*
X047141Y026882D01*
X047388Y026882D02*
X047456Y026882D01*
X047388Y026882D02*
X047388Y026950D01*
X047456Y026950D01*
X047456Y026882D01*
X047703Y027197D02*
X047771Y027197D01*
X047703Y027197D02*
X047703Y027265D01*
X047771Y027265D01*
X047771Y027197D01*
X047771Y027512D02*
X047703Y027512D01*
X047703Y027580D01*
X047771Y027580D01*
X047771Y027512D01*
X047771Y027827D02*
X047703Y027827D01*
X047703Y027895D01*
X047771Y027895D01*
X047771Y027827D01*
X047771Y028142D02*
X047703Y028142D01*
X047703Y028210D01*
X047771Y028210D01*
X047771Y028142D01*
X047771Y028457D02*
X047703Y028457D01*
X047703Y028525D01*
X047771Y028525D01*
X047771Y028457D01*
X047456Y028142D02*
X047388Y028142D01*
X047388Y028210D01*
X047456Y028210D01*
X047456Y028142D01*
X047456Y027827D02*
X047388Y027827D01*
X047388Y027895D01*
X047456Y027895D01*
X047456Y027827D01*
X047456Y027512D02*
X047388Y027512D01*
X047388Y027580D01*
X047456Y027580D01*
X047456Y027512D01*
X047141Y027197D02*
X047073Y027197D01*
X047073Y027265D01*
X047141Y027265D01*
X047141Y027197D01*
X046826Y027197D02*
X046758Y027197D01*
X046758Y027265D01*
X046826Y027265D01*
X046826Y027197D01*
X046196Y026882D02*
X046128Y026882D01*
X046128Y026950D01*
X046196Y026950D01*
X046196Y026882D01*
X046443Y028457D02*
X046511Y028457D01*
X046443Y028457D02*
X046443Y028525D01*
X046511Y028525D01*
X046511Y028457D01*
X046758Y028457D02*
X046826Y028457D01*
X046758Y028457D02*
X046758Y028525D01*
X046826Y028525D01*
X046826Y028457D01*
X047073Y028457D02*
X047141Y028457D01*
X047073Y028457D02*
X047073Y028525D01*
X047141Y028525D01*
X047141Y028457D01*
X047141Y028772D02*
X047073Y028772D01*
X047073Y028840D01*
X047141Y028840D01*
X047141Y028772D01*
X047388Y028772D02*
X047456Y028772D01*
X047388Y028772D02*
X047388Y028840D01*
X047456Y028840D01*
X047456Y028772D01*
X046826Y028772D02*
X046758Y028772D01*
X046758Y028840D01*
X046826Y028840D01*
X046826Y028772D01*
X046511Y028772D02*
X046443Y028772D01*
X046443Y028840D01*
X046511Y028840D01*
X046511Y028772D01*
X046196Y028772D02*
X046128Y028772D01*
X046128Y028840D01*
X046196Y028840D01*
X046196Y028772D01*
X045881Y028457D02*
X045813Y028457D01*
X045813Y028525D01*
X045881Y028525D01*
X045881Y028457D01*
D39*
X046792Y032361D03*
X047792Y032361D03*
X048792Y032361D03*
X049792Y032361D03*
X050792Y032361D03*
X051792Y032361D03*
X052792Y032361D03*
X053792Y032361D03*
X054792Y032361D03*
X055792Y032361D03*
X055792Y035361D03*
X054792Y035361D03*
X053792Y035361D03*
X052792Y035361D03*
X051792Y035361D03*
X050792Y035361D03*
X049792Y035361D03*
X048792Y035361D03*
X047792Y035361D03*
X046792Y035361D03*
D40*
X042292Y007345D03*
D41*
X041395Y004471D03*
X043190Y004471D03*
D42*
X045542Y004011D03*
X045542Y002561D03*
X046442Y023811D03*
X042192Y028311D03*
X042192Y029661D03*
X051492Y031111D03*
X055192Y029861D03*
X055192Y028511D03*
D43*
X040088Y030349D03*
X039497Y030349D03*
X039497Y031372D03*
X040088Y031372D03*
D44*
X050696Y027944D02*
X050872Y027944D01*
X050872Y027689D02*
X050696Y027689D01*
X050696Y027433D02*
X050872Y027433D01*
X050872Y027177D02*
X050696Y027177D01*
X051108Y026940D02*
X051108Y026764D01*
X051364Y026764D02*
X051364Y026940D01*
X051620Y026940D02*
X051620Y026764D01*
X051876Y026764D02*
X051876Y026940D01*
X052113Y027177D02*
X052289Y027177D01*
X052289Y027433D02*
X052113Y027433D01*
X052113Y027689D02*
X052289Y027689D01*
X052289Y027944D02*
X052113Y027944D01*
X051876Y028181D02*
X051876Y028357D01*
X051620Y028357D02*
X051620Y028181D01*
X051364Y028181D02*
X051364Y028357D01*
X051108Y028357D02*
X051108Y028181D01*
D45*
X051492Y027561D03*
D46*
X052692Y027461D03*
X052442Y026561D03*
X053442Y026561D03*
X055392Y025711D03*
X056092Y026411D03*
X055742Y023861D03*
X057342Y023811D03*
X056992Y022811D03*
X056342Y022011D03*
X055542Y022011D03*
X054142Y021361D03*
X053792Y022361D03*
X051042Y023911D03*
X050592Y025061D03*
X049942Y025711D03*
X050392Y026461D03*
X048542Y027461D03*
X049742Y028311D03*
X051342Y028811D03*
X050592Y030111D03*
X046492Y031161D03*
X045892Y030911D03*
X046242Y029911D03*
X044892Y029811D03*
X044292Y029961D03*
X042642Y031611D03*
X041492Y030861D03*
X040942Y028261D03*
X039042Y028261D03*
X040342Y024661D03*
X041542Y024061D03*
X042842Y024211D03*
X043292Y024461D03*
X044392Y025811D03*
X047292Y025411D03*
X048192Y025061D03*
X048042Y024261D03*
X046192Y022011D03*
X044892Y022011D03*
X046892Y021111D03*
X046892Y019861D03*
X046892Y019161D03*
X046542Y018261D03*
X047992Y019161D03*
X048892Y018361D03*
X049692Y018711D03*
X049392Y019411D03*
X051542Y020411D03*
X052342Y019761D03*
X053892Y019411D03*
X054292Y019961D03*
X055192Y019761D03*
X057392Y018161D03*
X055292Y017711D03*
X055642Y016961D03*
X054542Y016411D03*
X054942Y015911D03*
X052892Y017661D03*
X051392Y016611D03*
X050492Y016611D03*
X049292Y015561D03*
X050142Y015211D03*
X048242Y014561D03*
X046742Y014761D03*
X047242Y016611D03*
X047742Y016611D03*
X048542Y016811D03*
X050142Y018061D03*
X051042Y017661D03*
X049692Y021111D03*
X045842Y019861D03*
X043342Y019011D03*
X042792Y019011D03*
X042192Y019011D03*
X041292Y018211D03*
X040792Y018211D03*
X040292Y018211D03*
X039792Y018211D03*
X039792Y016511D03*
X040292Y016511D03*
X040792Y016511D03*
X041292Y016511D03*
X044392Y016961D03*
X044742Y016261D03*
X044392Y017461D03*
X051992Y013011D03*
X050792Y011811D03*
X050892Y010961D03*
X050192Y010811D03*
X049842Y010461D03*
X048592Y010461D03*
X048642Y009361D03*
X048592Y008561D03*
X050092Y007061D03*
X050492Y006261D03*
X049542Y005811D03*
X047942Y005811D03*
X045292Y005361D03*
X044792Y005861D03*
X044292Y006361D03*
X045292Y006361D03*
X044792Y006861D03*
X044292Y007361D03*
X044792Y007861D03*
X045292Y007361D03*
X045292Y008361D03*
X044792Y008861D03*
X044292Y009361D03*
X043792Y008861D03*
X043292Y009361D03*
X042792Y008861D03*
X042292Y009361D03*
X041792Y008861D03*
X041292Y009361D03*
X040792Y008861D03*
X040292Y009361D03*
X039792Y008861D03*
X039292Y009361D03*
X039792Y009861D03*
X039292Y010361D03*
X039792Y010861D03*
X040292Y010361D03*
X040792Y010861D03*
X041292Y010361D03*
X041792Y010861D03*
X042292Y010361D03*
X042792Y010861D03*
X043292Y010361D03*
X043792Y010861D03*
X044292Y010361D03*
X044792Y010861D03*
X045292Y010361D03*
X044792Y009861D03*
X043792Y009861D03*
X042792Y009861D03*
X041792Y009861D03*
X040792Y009861D03*
X040292Y008361D03*
X039292Y008361D03*
X039792Y007861D03*
X039292Y007361D03*
X039792Y006861D03*
X040292Y007361D03*
X040292Y006361D03*
X039792Y005861D03*
X039292Y006361D03*
X039292Y005361D03*
X040292Y005361D03*
X039792Y004861D03*
X039292Y004361D03*
X040292Y004361D03*
X042292Y004361D03*
X044292Y005361D03*
X044792Y004861D03*
X046792Y002361D03*
X044292Y002161D03*
X040292Y002361D03*
X039292Y002361D03*
X044292Y008361D03*
X045292Y009361D03*
X048242Y012211D03*
X051192Y010461D03*
X052692Y011361D03*
X054392Y011661D03*
X054192Y012811D03*
X055592Y012561D03*
X058392Y011861D03*
X056692Y008761D03*
X056242Y007261D03*
X052992Y008561D03*
X052992Y009461D03*
X051042Y007411D03*
X033042Y018111D03*
X028192Y016561D03*
X027892Y017111D03*
X027492Y019511D03*
X027292Y020711D03*
X031542Y023011D03*
X025092Y025061D03*
X020892Y024561D03*
X016192Y024611D03*
X014642Y025111D03*
X014092Y023961D03*
X014792Y023411D03*
X012042Y022961D03*
X010092Y021361D03*
X009042Y022111D03*
X008542Y020961D03*
X007992Y019711D03*
X006142Y019711D03*
X005342Y018911D03*
X008692Y015911D03*
X012242Y015961D03*
X012392Y014861D03*
X014742Y014961D03*
X017492Y015261D03*
X017692Y015811D03*
X019142Y015261D03*
X019642Y015011D03*
X019342Y015811D03*
X020942Y014511D03*
X021542Y014961D03*
X024942Y014111D03*
X018142Y017661D03*
X016192Y016861D03*
X013242Y018261D03*
X012142Y018461D03*
X011292Y025111D03*
X004692Y030111D03*
X035992Y033411D03*
X037042Y033411D03*
X038092Y033411D03*
X038142Y034361D03*
X037592Y034361D03*
X038292Y035311D03*
X041092Y034511D03*
X039742Y033411D03*
X043092Y034111D03*
X043842Y033761D03*
X043942Y034661D03*
X043942Y035961D03*
X044442Y035961D03*
X045492Y032711D03*
X045042Y028011D03*
X005292Y007761D03*
M02*
