G75*
G70*
%OFA0B0*%
%FSLAX24Y24*%
%IPPOS*%
%LPD*%
%AMOC8*
5,1,8,0,0,1.08239X$1,22.5*
%
%ADD10C,0.0000*%
D10*
X001512Y035191D02*
X001512Y000191D01*
X036512Y000191D01*
X036512Y035191D01*
X001512Y035191D01*
X002387Y033691D02*
X002390Y033748D01*
X002397Y033804D01*
X002410Y033860D01*
X002428Y033914D01*
X002451Y033966D01*
X002478Y034016D01*
X002510Y034063D01*
X002546Y034107D01*
X002585Y034148D01*
X002629Y034185D01*
X002675Y034217D01*
X002724Y034246D01*
X002776Y034270D01*
X002830Y034289D01*
X002885Y034303D01*
X002941Y034312D01*
X002998Y034316D01*
X003055Y034315D01*
X003111Y034308D01*
X003167Y034297D01*
X003221Y034280D01*
X003274Y034258D01*
X003324Y034232D01*
X003372Y034202D01*
X003417Y034167D01*
X003459Y034128D01*
X003497Y034085D01*
X003531Y034040D01*
X003560Y033991D01*
X003585Y033940D01*
X003606Y033887D01*
X003621Y033832D01*
X003631Y033776D01*
X003636Y033719D01*
X003636Y033663D01*
X003631Y033606D01*
X003621Y033550D01*
X003606Y033495D01*
X003585Y033442D01*
X003560Y033391D01*
X003531Y033342D01*
X003497Y033297D01*
X003459Y033254D01*
X003417Y033215D01*
X003372Y033180D01*
X003325Y033150D01*
X003274Y033124D01*
X003221Y033102D01*
X003167Y033085D01*
X003111Y033074D01*
X003055Y033067D01*
X002998Y033066D01*
X002941Y033070D01*
X002885Y033079D01*
X002830Y033093D01*
X002776Y033112D01*
X002724Y033136D01*
X002675Y033165D01*
X002629Y033197D01*
X002585Y033234D01*
X002546Y033275D01*
X002510Y033319D01*
X002478Y033366D01*
X002451Y033416D01*
X002428Y033468D01*
X002410Y033522D01*
X002397Y033578D01*
X002390Y033634D01*
X002387Y033691D01*
X034387Y033691D02*
X034390Y033748D01*
X034397Y033804D01*
X034410Y033860D01*
X034428Y033914D01*
X034451Y033966D01*
X034478Y034016D01*
X034510Y034063D01*
X034546Y034107D01*
X034585Y034148D01*
X034629Y034185D01*
X034675Y034217D01*
X034724Y034246D01*
X034776Y034270D01*
X034830Y034289D01*
X034885Y034303D01*
X034941Y034312D01*
X034998Y034316D01*
X035055Y034315D01*
X035111Y034308D01*
X035167Y034297D01*
X035221Y034280D01*
X035274Y034258D01*
X035324Y034232D01*
X035372Y034202D01*
X035417Y034167D01*
X035459Y034128D01*
X035497Y034085D01*
X035531Y034040D01*
X035560Y033991D01*
X035585Y033940D01*
X035606Y033887D01*
X035621Y033832D01*
X035631Y033776D01*
X035636Y033719D01*
X035636Y033663D01*
X035631Y033606D01*
X035621Y033550D01*
X035606Y033495D01*
X035585Y033442D01*
X035560Y033391D01*
X035531Y033342D01*
X035497Y033297D01*
X035459Y033254D01*
X035417Y033215D01*
X035372Y033180D01*
X035325Y033150D01*
X035274Y033124D01*
X035221Y033102D01*
X035167Y033085D01*
X035111Y033074D01*
X035055Y033067D01*
X034998Y033066D01*
X034941Y033070D01*
X034885Y033079D01*
X034830Y033093D01*
X034776Y033112D01*
X034724Y033136D01*
X034675Y033165D01*
X034629Y033197D01*
X034585Y033234D01*
X034546Y033275D01*
X034510Y033319D01*
X034478Y033366D01*
X034451Y033416D01*
X034428Y033468D01*
X034410Y033522D01*
X034397Y033578D01*
X034390Y033634D01*
X034387Y033691D01*
X034387Y001691D02*
X034390Y001748D01*
X034397Y001804D01*
X034410Y001860D01*
X034428Y001914D01*
X034451Y001966D01*
X034478Y002016D01*
X034510Y002063D01*
X034546Y002107D01*
X034585Y002148D01*
X034629Y002185D01*
X034675Y002217D01*
X034724Y002246D01*
X034776Y002270D01*
X034830Y002289D01*
X034885Y002303D01*
X034941Y002312D01*
X034998Y002316D01*
X035055Y002315D01*
X035111Y002308D01*
X035167Y002297D01*
X035221Y002280D01*
X035274Y002258D01*
X035324Y002232D01*
X035372Y002202D01*
X035417Y002167D01*
X035459Y002128D01*
X035497Y002085D01*
X035531Y002040D01*
X035560Y001991D01*
X035585Y001940D01*
X035606Y001887D01*
X035621Y001832D01*
X035631Y001776D01*
X035636Y001719D01*
X035636Y001663D01*
X035631Y001606D01*
X035621Y001550D01*
X035606Y001495D01*
X035585Y001442D01*
X035560Y001391D01*
X035531Y001342D01*
X035497Y001297D01*
X035459Y001254D01*
X035417Y001215D01*
X035372Y001180D01*
X035325Y001150D01*
X035274Y001124D01*
X035221Y001102D01*
X035167Y001085D01*
X035111Y001074D01*
X035055Y001067D01*
X034998Y001066D01*
X034941Y001070D01*
X034885Y001079D01*
X034830Y001093D01*
X034776Y001112D01*
X034724Y001136D01*
X034675Y001165D01*
X034629Y001197D01*
X034585Y001234D01*
X034546Y001275D01*
X034510Y001319D01*
X034478Y001366D01*
X034451Y001416D01*
X034428Y001468D01*
X034410Y001522D01*
X034397Y001578D01*
X034390Y001634D01*
X034387Y001691D01*
X002387Y001691D02*
X002390Y001748D01*
X002397Y001804D01*
X002410Y001860D01*
X002428Y001914D01*
X002451Y001966D01*
X002478Y002016D01*
X002510Y002063D01*
X002546Y002107D01*
X002585Y002148D01*
X002629Y002185D01*
X002675Y002217D01*
X002724Y002246D01*
X002776Y002270D01*
X002830Y002289D01*
X002885Y002303D01*
X002941Y002312D01*
X002998Y002316D01*
X003055Y002315D01*
X003111Y002308D01*
X003167Y002297D01*
X003221Y002280D01*
X003274Y002258D01*
X003324Y002232D01*
X003372Y002202D01*
X003417Y002167D01*
X003459Y002128D01*
X003497Y002085D01*
X003531Y002040D01*
X003560Y001991D01*
X003585Y001940D01*
X003606Y001887D01*
X003621Y001832D01*
X003631Y001776D01*
X003636Y001719D01*
X003636Y001663D01*
X003631Y001606D01*
X003621Y001550D01*
X003606Y001495D01*
X003585Y001442D01*
X003560Y001391D01*
X003531Y001342D01*
X003497Y001297D01*
X003459Y001254D01*
X003417Y001215D01*
X003372Y001180D01*
X003325Y001150D01*
X003274Y001124D01*
X003221Y001102D01*
X003167Y001085D01*
X003111Y001074D01*
X003055Y001067D01*
X002998Y001066D01*
X002941Y001070D01*
X002885Y001079D01*
X002830Y001093D01*
X002776Y001112D01*
X002724Y001136D01*
X002675Y001165D01*
X002629Y001197D01*
X002585Y001234D01*
X002546Y001275D01*
X002510Y001319D01*
X002478Y001366D01*
X002451Y001416D01*
X002428Y001468D01*
X002410Y001522D01*
X002397Y001578D01*
X002390Y001634D01*
X002387Y001691D01*
M02*
