%
M48
M72
T01C0.1250
T02C0.0320
T03C0.0400
T04C0.0472
T05C0.0160
T06C0.0240
%
T01
X301Y169
X3501Y169
X3501Y3369
X301Y3369
T02
X2366Y1469
X2366Y1369
X2366Y1269
X2366Y1169
X2366Y1069
X2366Y969
X2366Y869
X2366Y769
X2366Y669
X2366Y569
X2666Y569
X2666Y669
X2666Y769
X2666Y869
X2666Y969
X2666Y1069
X2666Y1169
X2666Y1269
X2666Y1369
X2666Y1469
X2091Y1199
X1901Y1199
T03
X2341Y1739
X2341Y1839
X2441Y1839
X2541Y1839
X2541Y1739
X2441Y1739
X3451Y984
X3451Y884
X3451Y784
X3451Y684
X3451Y584
X3551Y584
X3551Y684
X3551Y784
X3551Y884
X3551Y984
X3001Y369
X2901Y369
X2801Y369
X2351Y369
X2251Y369
X2151Y369
X1701Y369
X1601Y369
X1501Y369
X351Y569
X351Y669
X251Y669
X251Y569
X251Y769
X251Y869
X251Y969
X351Y969
X351Y869
X351Y769
X351Y1369
X251Y1369
X251Y1469
X251Y1569
X251Y1669
X251Y1769
X251Y1869
X251Y1969
X251Y2069
X251Y2169
X251Y2269
X351Y2269
X351Y2169
X351Y2069
X351Y1969
X351Y1869
X351Y1769
X351Y1669
X351Y1569
X351Y1469
X351Y2669
X351Y2769
X251Y2769
X251Y2669
X251Y2869
X251Y2969
X351Y2969
X351Y2869
T04
X3501Y2819
X3501Y2719
X3501Y2519
X3501Y2419
X3501Y2319
X3501Y2219
X3501Y1969
X3501Y1869
X3501Y1769
X3501Y1669
X3501Y1569
X3501Y1469
X3501Y1369
X3501Y2919
X3501Y3019
T05
X3451Y3174
X3096Y3014
X3036Y2974
X2976Y2944
X2926Y2944
X2876Y2914
X2816Y2914
X2756Y2984
X2626Y2849
X2436Y2879
X2436Y2924
X2396Y3014
X2336Y2924
X2221Y2964
X2086Y2894
X2006Y2769
X1986Y2654
X2036Y2654
X2116Y2684
X2306Y2694
X2316Y2624
X2356Y2624
X2406Y2539
X2496Y2669
X2576Y2529
X2606Y2499
X2676Y2384
X2851Y2424
X2906Y2539
X2846Y2639
X2926Y2799
X3036Y2704
X3076Y2629
X3056Y2569
X3151Y2584
X3286Y2499
X3571Y2269
X3381Y1979
X3346Y1699
X3376Y1589
X3196Y1489
X3156Y1489
X3151Y1319
X3121Y1229
X3161Y1064
X3256Y1054
X3316Y949
X3311Y874
X3271Y724
X2976Y739
X2816Y594
X2431Y819
X2246Y889
X2236Y979
X2151Y919
X2141Y824
X2136Y719
X2136Y624
X2271Y624
X2026Y919
X1976Y919
X1926Y919
X1861Y919
X1821Y979
X1781Y894
X1911Y1009
X1921Y1079
X1851Y1069
X1776Y1104
X1631Y989
X1501Y859
X1531Y829
X1536Y769
X1386Y809
X1356Y859
X1221Y984
X1251Y1014
X1161Y924
X1191Y894
X1191Y854
X1191Y744
X1281Y719
X1166Y644
X1071Y719
X916Y634
X896Y774
X741Y774
X656Y759
X656Y719
X686Y689
X656Y614
X726Y604
X611Y554
X521Y524
X481Y754
X421Y799
X401Y904
X611Y829
X651Y999
X646Y1044
X826Y969
X856Y1044
X986Y1044
X986Y994
X1046Y954
X1026Y894
X1061Y1089
X991Y1134
X891Y1189
X751Y1259
X691Y1259
X646Y1259
X571Y1254
X541Y1284
X406Y1339
X646Y1429
X711Y1434
X781Y1604
X1151Y1339
X1221Y1249
X1416Y1344
X1521Y1249
X1561Y1259
X1591Y1229
X1646Y1244
X1781Y1309
X1821Y1319
X1891Y1334
X1916Y1369
X1886Y1439
X1971Y1429
X2016Y1464
X2136Y1464
X2166Y1429
X2171Y1389
X2211Y1309
X2241Y1249
X2281Y1249
X2331Y1219
X2311Y1324
X2236Y1539
X2196Y1539
X2271Y1629
X2341Y1634
X2401Y1619
X2446Y1684
X2511Y1669
X2586Y1704
X2631Y1754
X2631Y1839
X2566Y1909
X2566Y1969
X2531Y2009
X2476Y1939
X2436Y1979
X2561Y2094
X2786Y1999
X2811Y2034
X2871Y1999
X2886Y2069
X2826Y1839
X2761Y1809
X2781Y1689
X2721Y1679
X2771Y1554
X2761Y1429
X2636Y1524
X2541Y1509
X2481Y1539
X2586Y1364
X2511Y1129
X2431Y1119
X2191Y1079
X1986Y1039
X2006Y1319
X1751Y1464
X1746Y1564
X1706Y1569
X1646Y1589
X1591Y1494
X1531Y1504
X1446Y1474
X1561Y1419
X1646Y1419
X1821Y1564
X1861Y1564
X1856Y1639
X1776Y1639
X1776Y1599
X1716Y1669
X1676Y1669
X1646Y1739
X1706Y1739
X1546Y1759
X1506Y1769
X1446Y1799
X1416Y1769
X1476Y1834
X1536Y1834
X1546Y1899
X1546Y1964
X1546Y2024
X1481Y2094
X1386Y2044
X1416Y2229
X1476Y2229
X1476Y2289
X1446Y2359
X1481Y2444
X1426Y2519
X1316Y2519
X1446Y2649
X1511Y2649
X1596Y2724
X1566Y2759
X1511Y2759
X1396Y2759
X1346Y2789
X1396Y2849
X1436Y2894
X1336Y2969
X1296Y2969
X1316Y3084
X1476Y3119
X1521Y3114
X1516Y3024
X1566Y2949
X1646Y3009
X1736Y3114
X1596Y3164
X1736Y3344
X1896Y3294
X1936Y3284
X2091Y3139
X1956Y3039
X1796Y2964
X1766Y2934
X1826Y2854
X1801Y2694
X1756Y2649
X1716Y2664
X1826Y2614
X1886Y2629
X1926Y2629
X1851Y2554
X1806Y2519
X1766Y2519
X1661Y2519
X1616Y2519
X1661Y2434
X1616Y2404
X1611Y2289
X1746Y2199
X1776Y2229
X1816Y2229
X1856Y2229
X1776Y2289
X1766Y2334
X1921Y2374
X2001Y2289
X1951Y2209
X1986Y2074
X2031Y2059
X2106Y2024
X2136Y2059
X2171Y2089
X2211Y2094
X2316Y2069
X2301Y2029
X2256Y1949
X2256Y1909
X2286Y1849
X2256Y1809
X2151Y1794
X2136Y1709
X2061Y1694
X2011Y1629
X2076Y1574
X2061Y1784
X2061Y1824
X2061Y1939
X2156Y1954
X1946Y1994
X1791Y2074
X1766Y2039
X1676Y2039
X1776Y1909
X1886Y1829
X1521Y1699
X1386Y1609
X1341Y1669
X1281Y1609
X1256Y1684
X1136Y2214
X1106Y2299
X981Y2259
X1066Y2449
X971Y2509
X941Y2479
X1001Y2649
X1106Y2649
X1146Y2649
X1176Y2759
X1046Y2759
X996Y2759
X1131Y2889
X1056Y2954
X1116Y2984
X986Y2924
X881Y3024
X806Y3124
X716Y3029
X686Y2954
X806Y2864
X731Y2629
X546Y2714
X471Y2774
X561Y2824
X561Y2864
X531Y2974
X516Y3069
X336Y3154
X881Y3419
X1021Y3424
X1006Y3164
X1141Y3149
X1301Y3419
X1406Y2664
X1891Y2504
X2046Y2434
X2086Y2404
X2311Y2374
X2301Y2179
X2901Y1669
X2951Y1769
X3031Y1669
X3071Y1739
X3141Y1669
X3071Y1819
X2916Y1554
X2961Y1524
X1756Y654
X1716Y674
X1676Y674
X1411Y1099
X1101Y494
X1061Y419
X1226Y419
X801Y329
X771Y269
X2241Y269
X381Y2219
X526Y2314
X496Y2429
X411Y2349
X306Y2479
X366Y2569
X486Y2569
X701Y2314
X741Y2274
X2286Y3259
X2361Y3174
X2426Y3174
X2401Y3104
X2381Y3354
X2741Y3424
X2871Y3419
X2956Y3014
X3251Y2774
T06
X3176Y2379
X3056Y2379
X2926Y2359
X2876Y2194
X2826Y2194
X2826Y2144
X2876Y2144
X2936Y2169
X2976Y2144
X2976Y2194
X3026Y2194
X3066Y2169
X3026Y2144
X3111Y2144
X3111Y2194
X3161Y2194
X3161Y2144
X3171Y2069
X3126Y2069
X3216Y2069
X3246Y2099
X3276Y2129
X3416Y2084
X2971Y1464
X1711Y1424
X1711Y1319
X1401Y1419
X1351Y1419
X1376Y1369
X1351Y1469
X1401Y1469
X1106Y1469
X1106Y1424
X1106Y1379
X1056Y1379
X1006Y1379
X1006Y1424
X1006Y1469
X1056Y1469
X1056Y1424
X926Y1394
X816Y1369
X741Y1354
X581Y1379
X581Y1424
X531Y1379
X481Y1379
X481Y1424
X716Y1704
X751Y1794
X726Y1844
X776Y1844
X826Y1844
X801Y1794
X851Y1794
X876Y1844
X851Y1894
X801Y1894
X801Y1944
X851Y1944
X901Y1944
X901Y1894
X951Y1894
X951Y1944
X1001Y1944
X1001Y1894
X1051Y1894
X1051Y1944
X1101Y1944
X1101Y1894
X1151Y1894
X1151Y1944
X1201Y1944
X1201Y1894
X1251Y1894
X1251Y1944
X1301Y1944
X1301Y1894
X1351Y1894
X1351Y1944
X1326Y1994
X1276Y1994
X1226Y1994
X1201Y2044
X1251Y2044
X1301Y2044
X1176Y1994
X1151Y2119
X1101Y2119
X1051Y2119
X1001Y2119
X876Y1994
X851Y2044
X801Y2044
X776Y1994
X726Y1994
X751Y2044
X826Y1994
X751Y1944
X701Y1944
X701Y1894
X751Y1894
X636Y2029
X636Y2074
X636Y2119
X636Y2164
X521Y2164
X501Y2124
X456Y2154
X536Y2054
X476Y2384
X696Y2469
X1176Y2294
X1226Y2294
X1276Y2294
X1326Y2294
X1376Y2294
X1351Y2194
X1301Y2194
X1251Y2194
X1201Y2194
X1176Y1844
X1201Y1794
X1251Y1794
X1226Y1844
X1276Y1844
X1326Y1844
X1301Y1794
X1666Y934
X736Y349
M30
