%
M48
M72
T01C0.0240
T02C0.0320
T03C0.0360
T04C0.0394
T05C0.0400
T06C0.0440
T07C0.0500
T08C0.0590
T09C0.0670
T10C0.1000
%
T01
X6797Y10955
X6147Y13055
X6547Y13505
X4947Y13205
X4247Y15005
X6147Y15005
X7147Y15005
X9597Y17355
X7547Y19405
X6347Y19405
X5497Y19005
X4947Y19805
X4447Y20205
X5547Y20105
X4247Y18405
X1397Y20155
X5097Y21805
X5347Y22805
X6147Y23905
X7147Y23855
X9397Y23605
X7197Y22255
X9447Y20705
X13297Y21105
X14147Y20355
X16647Y17705
X19597Y20655
X21547Y18055
X26397Y19055
X26797Y18755
X27347Y21055
X25547Y21055
X26097Y22605
X29247Y25355
X30647Y23255
X33447Y25805
X41347Y26705
X43247Y25255
X43797Y25205
X42297Y24305
X41497Y23255
X42897Y22905
X43547Y22705
X41547Y21255
X43297Y20355
X45947Y19405
X46497Y17655
X45397Y16105
X43747Y15205
X43147Y15205
X43497Y13755
X41497Y12505
X41997Y12105
X41997Y11255
X43897Y11255
X47947Y12855
X47997Y11555
X42797Y17805
X40647Y18955
X46147Y21305
X46447Y21755
X54847Y22955
X57397Y25305
X59447Y32105
X20397Y12355
X1897Y13405
X1347Y22905
X4747Y24655
X3797Y25005
X2597Y25305
X3197Y25705
X1647Y25855
X9497Y25705
X11447Y24855
X12397Y25805
T02
X11697Y25855
X11947Y28055
X11947Y28655
X12547Y28055
X13097Y28055
X11947Y29305
X9947Y29305
X9397Y29305
X9397Y28705
X9947Y28705
X9947Y28105
X9397Y28105
X4947Y30205
X4397Y30205
X3847Y30205
X3847Y30755
X3847Y31305
X4397Y31305
X4397Y30755
X4947Y30755
X4947Y31305
X18747Y30905
X18747Y30305
X19347Y30305
X19347Y30905
X19947Y30905
X19947Y30305
X21247Y31205
X21797Y31205
X21797Y31755
X21797Y32305
X22347Y32305
X22347Y31755
X23147Y31505
X21947Y30305
X19947Y31505
X19347Y31455
X19897Y27105
X31897Y28205
X32447Y28205
X32997Y28205
X33547Y28205
X34097Y28205
X34647Y28205
X34647Y28755
X34097Y28755
X34097Y29305
X34647Y29305
X31897Y29305
X31897Y28755
X35997Y27105
X37597Y27755
X38147Y27755
X38697Y27755
X39247Y27755
X39797Y27755
X40347Y27755
X40897Y27755
X41447Y27755
X41997Y27755
X41997Y28355
X41997Y28905
X41447Y28305
X40897Y28305
X40347Y28305
X39797Y28305
X39797Y28855
X39797Y29405
X41997Y29455
X37597Y28305
X45447Y25105
X47447Y27105
X52247Y25955
X52247Y25355
X52247Y24805
X52247Y24255
X50947Y23505
X50947Y22755
X50947Y22005
X54447Y22605
X55997Y22605
X56247Y21455
X57547Y21455
X59747Y21455
X60197Y21905
X53447Y18605
X57947Y14505
X55197Y14055
X55197Y12905
X52247Y12805
X52247Y13355
X52247Y13905
X50947Y13905
X50947Y13355
X50947Y12805
X50947Y12255
X52247Y12255
X48397Y11155
X48397Y9805
X48397Y9255
X48947Y9255
X48947Y9805
X48947Y8705
X48397Y8705
X46947Y8805
X46947Y9805
X45097Y9805
X44547Y9805
X43997Y9805
X43447Y9805
X42897Y9805
X42897Y9255
X42897Y8705
X45097Y8705
X45097Y9255
X45497Y12405
X51397Y9805
X51397Y9255
X51947Y9255
X51947Y9805
X51947Y8705
X51397Y8705
X49947Y5605
X49947Y4605
X42947Y4605
X42947Y5605
X58847Y9755
X37497Y16605
X25147Y9805
X24597Y9805
X24047Y9805
X23497Y9805
X22947Y9805
X22947Y9255
X22947Y8705
X20947Y8805
X20947Y9805
X21947Y10705
X19147Y10705
X17047Y9805
X16497Y9805
X15947Y9805
X15397Y9805
X14847Y9805
X14847Y9255
X17047Y9255
X18947Y8805
X15447Y6105
X15447Y5105
X15447Y4105
X25147Y8705
X25147Y9255
X12847Y14205
X14147Y17305
X7497Y15855
X5797Y15855
X49897Y31305
X52847Y30305
X53747Y30305
X56047Y30605
X54447Y26105
T03
X62047Y12855
X61347Y10855
T04
X58097Y22405
T05
X61947Y22105
X61947Y23105
X61947Y24105
X61947Y28105
X61947Y29105
X61947Y30105
X55147Y30755
X55147Y28755
X51047Y28805
X51047Y30805
X46947Y30805
X46947Y28805
X42847Y28805
X42847Y30805
X38747Y30805
X38747Y28805
X30897Y28805
X30897Y30805
X26747Y30805
X26747Y28805
X22597Y28805
X22597Y30805
X15047Y30805
X15047Y28805
X10947Y28805
X10947Y30805
X6847Y30805
X6847Y28805
X3247Y22905
X2247Y22905
X2247Y21905
X3247Y21905
X3247Y20905
X2247Y20905
X2247Y19905
X3247Y19905
X3247Y18905
X2247Y18905
X2247Y17905
X2247Y16905
X3247Y16905
X3247Y17905
X3247Y15905
X2247Y15905
X2247Y14905
X2247Y13905
X3247Y13905
X3247Y14905
X3247Y12905
X2247Y12905
X2247Y11905
X3247Y11905
X3247Y10905
X2247Y10905
X5747Y9305
X5747Y7305
X9847Y7305
X9847Y9305
X11997Y10705
X13947Y9305
X13947Y7305
X18047Y7305
X18047Y9305
X22147Y9305
X22147Y7305
X26247Y7305
X26247Y9305
X33747Y9305
X33747Y7305
X37847Y7305
X37847Y9305
X39947Y11205
X37297Y12605
X35297Y12605
X39947Y15205
X39947Y16105
X39947Y22105
X54047Y13955
X53947Y12055
X50147Y9305
X50147Y7305
X46047Y7305
X46047Y9305
X41947Y9305
X41947Y7305
X59947Y12055
X60047Y13955
X61947Y16105
X61947Y17105
X61947Y18105
X61947Y34105
X61947Y35105
X61947Y36105
X11997Y14705
X10606Y16254
X10606Y22254
T06
X55297Y19905
X56797Y19905
X57647Y19905
X59147Y19905
X59147Y15905
X57647Y15905
X56797Y15905
X55297Y15905
T07
X47066Y21186
X47066Y22170
X47066Y23154
X47066Y24139
X47066Y25123
X31766Y22124
X30782Y22124
X29798Y22124
X28814Y22124
X27829Y22124
X27497Y19805
X27497Y15805
X27497Y11805
X19497Y14805
X19497Y16805
X15766Y22124
X14782Y22124
X13798Y22124
X12814Y22124
X11829Y22124
X60497Y9205
X60497Y7705
X60497Y6205
X60497Y4705
X60497Y3205
T08
X2247Y4055
X4447Y4055
X6647Y4055
X9247Y4055
X11447Y4055
X13647Y4055
X16247Y4055
X18447Y4055
X20647Y4055
X23247Y4055
X25447Y4055
X27647Y4055
X30247Y4055
X32447Y4055
X34647Y4055
X37247Y4055
X39447Y4055
X41647Y4055
X44247Y4055
X46447Y4055
X48647Y4055
X51247Y4055
X53447Y4055
X55647Y4055
X53497Y15505
X53497Y21505
X53447Y33955
X51247Y33955
X48647Y33955
X46447Y33955
X44247Y33955
X41647Y33955
X39447Y33955
X37247Y33955
X34647Y33955
X32447Y33955
X30247Y33955
X27647Y33955
X25447Y33955
X23247Y33955
X20647Y33955
X18447Y33955
X16247Y33955
X13647Y33955
X11447Y33955
X9247Y33955
X6647Y33955
X4447Y33955
X2247Y33955
X55647Y33955
T09
X55647Y32705
X53447Y32705
X48647Y32705
X46447Y32705
X41647Y32705
X39447Y32705
X34647Y32705
X32447Y32705
X27647Y32705
X25447Y32705
X20647Y32705
X18447Y32705
X13647Y32705
X11447Y32705
X6647Y32705
X4447Y32705
X18447Y5405
X16247Y5305
X11447Y5305
X9247Y5305
X4447Y5305
X2247Y5305
X23247Y5305
X25447Y5405
X30247Y5305
X32447Y5305
X37247Y5305
X39447Y5305
X44247Y5305
X46447Y5305
X51247Y5305
X53447Y5305
X62147Y20105
X62247Y32105
T10
X49429Y22761
X37672Y24486
X30191Y24486
X21672Y24486
X14191Y24486
X49429Y15280
M30
