G75*
G70*
%OFA0B0*%
%FSLAX24Y24*%
%IPPOS*%
%LPD*%
%AMOC8*
5,1,8,0,0,1.08239X$1,22.5*
%
%ADD10R,0.0950X0.0450*%
%ADD11R,0.0512X0.0591*%
%ADD12O,0.0885X0.1770*%
%ADD13O,0.1005X0.2010*%
%ADD14C,0.1000*%
%ADD15OC8,0.1000*%
%ADD16OC8,0.0600*%
%ADD17C,0.0750*%
%ADD18C,0.1400*%
%ADD19O,0.1500X0.0750*%
%ADD20R,0.0591X0.0512*%
%ADD21C,0.0660*%
%ADD22O,0.1120X0.0560*%
%ADD23R,0.0260X0.0800*%
%ADD24R,0.0460X0.0630*%
%ADD25O,0.2010X0.1005*%
%ADD26R,0.0394X0.0551*%
%ADD27R,0.0630X0.0709*%
%ADD28R,0.0709X0.0630*%
%ADD29O,0.1200X0.0600*%
%ADD30R,0.0098X0.0240*%
%ADD31C,0.0240*%
%ADD32C,0.0500*%
%ADD33C,0.0100*%
%ADD34C,0.0400*%
%ADD35C,0.0480*%
%ADD36C,0.0160*%
%ADD37C,0.2000*%
%ADD38C,0.1500*%
%ADD39C,0.0860*%
%ADD40C,0.0400*%
%ADD41C,0.0320*%
%ADD42C,0.1000*%
%ADD43C,0.0591*%
%ADD44C,0.0560*%
D10*
X037672Y017980D03*
D11*
X053913Y023555D03*
X054582Y023555D03*
X057713Y023405D03*
X058382Y023405D03*
X060213Y020905D03*
X060882Y020905D03*
X060432Y019105D03*
X059763Y019105D03*
X055632Y005455D03*
X054963Y005455D03*
X048632Y005405D03*
X047963Y005405D03*
X041632Y005405D03*
X040963Y005405D03*
X034882Y005455D03*
X034213Y005455D03*
X027682Y005455D03*
X027013Y005455D03*
X020582Y005455D03*
X019913Y005455D03*
X013482Y005505D03*
X012813Y005505D03*
X007132Y005455D03*
X006463Y005455D03*
X008313Y032555D03*
X008982Y032555D03*
X002182Y032505D03*
X001513Y032505D03*
X016213Y032555D03*
X016882Y032555D03*
X023263Y032505D03*
X023932Y032505D03*
X029663Y032555D03*
X030332Y032555D03*
X036513Y032555D03*
X037182Y032555D03*
X044263Y032555D03*
X044932Y032555D03*
X051213Y032555D03*
X051882Y032555D03*
X060113Y036105D03*
X060782Y036105D03*
D12*
X055647Y033955D03*
X053447Y033955D03*
X051247Y033955D03*
X048647Y033955D03*
X046447Y033955D03*
X044247Y033955D03*
X041647Y033955D03*
X039447Y033955D03*
X037247Y033955D03*
X034647Y033955D03*
X032447Y033955D03*
X030247Y033955D03*
X027647Y033955D03*
X025447Y033955D03*
X023247Y033955D03*
X020647Y033955D03*
X018447Y033955D03*
X016247Y033955D03*
X013647Y033955D03*
X011447Y033955D03*
X009247Y033955D03*
X006647Y033955D03*
X004447Y033955D03*
X002247Y033955D03*
X002247Y004055D03*
X004447Y004055D03*
X006647Y004055D03*
X009247Y004055D03*
X011447Y004055D03*
X013647Y004055D03*
X016247Y004055D03*
X018447Y004055D03*
X020647Y004055D03*
X023247Y004055D03*
X025447Y004055D03*
X027647Y004055D03*
X030247Y004055D03*
X032447Y004055D03*
X034647Y004055D03*
X037247Y004055D03*
X039447Y004055D03*
X041647Y004055D03*
X044247Y004055D03*
X046447Y004055D03*
X048647Y004055D03*
X051247Y004055D03*
X053447Y004055D03*
X055647Y004055D03*
X053497Y015505D03*
X053497Y021505D03*
D13*
X053447Y032705D03*
X055647Y032705D03*
X048647Y032705D03*
X046447Y032705D03*
X041647Y032705D03*
X039447Y032705D03*
X034647Y032705D03*
X032447Y032705D03*
X027647Y032705D03*
X025447Y032705D03*
X020647Y032705D03*
X018447Y032705D03*
X013647Y032705D03*
X011447Y032705D03*
X006647Y032705D03*
X004447Y032705D03*
X018447Y005405D03*
X016247Y005305D03*
X011447Y005305D03*
X009247Y005305D03*
X004447Y005305D03*
X002247Y005305D03*
X023247Y005305D03*
X025447Y005405D03*
X030247Y005305D03*
X032447Y005305D03*
X037247Y005305D03*
X039447Y005305D03*
X044247Y005305D03*
X046447Y005305D03*
X051247Y005305D03*
X053447Y005305D03*
D14*
X050147Y007305D03*
X046047Y007305D03*
X041947Y007305D03*
X037847Y007305D03*
X033747Y007305D03*
X026247Y007305D03*
X022147Y007305D03*
X018047Y007305D03*
X013947Y007305D03*
X009847Y007305D03*
X005747Y007305D03*
X035297Y012605D03*
X038747Y028805D03*
X042847Y028805D03*
X046947Y028805D03*
X051047Y028805D03*
X055147Y028755D03*
X030897Y028805D03*
X026747Y028805D03*
X022597Y028805D03*
X015047Y028805D03*
X010947Y028805D03*
X006847Y028805D03*
D15*
X006847Y030805D03*
X010947Y030805D03*
X015047Y030805D03*
X022597Y030805D03*
X026747Y030805D03*
X030897Y030805D03*
X038747Y030805D03*
X042847Y030805D03*
X046947Y030805D03*
X051047Y030805D03*
X055147Y030755D03*
X037297Y012605D03*
X037847Y009305D03*
X033747Y009305D03*
X026247Y009305D03*
X022147Y009305D03*
X018047Y009305D03*
X013947Y009305D03*
X009847Y009305D03*
X005747Y009305D03*
X041947Y009305D03*
X046047Y009305D03*
X050147Y009305D03*
D16*
X053947Y012055D03*
X054047Y013955D03*
X060047Y013955D03*
X059947Y012055D03*
X039947Y011205D03*
X039947Y015205D03*
X039947Y016105D03*
X039947Y022105D03*
X011997Y014705D03*
X010606Y016254D03*
X003247Y015905D03*
X002247Y015905D03*
X002247Y016905D03*
X002247Y017905D03*
X003247Y017905D03*
X003247Y016905D03*
X003247Y018905D03*
X002247Y018905D03*
X002247Y019905D03*
X002247Y020905D03*
X003247Y020905D03*
X003247Y019905D03*
X003247Y021905D03*
X002247Y021905D03*
X002247Y022905D03*
X003247Y022905D03*
X010606Y022254D03*
X003247Y014905D03*
X002247Y014905D03*
X002247Y013905D03*
X003247Y013905D03*
X003247Y012905D03*
X002247Y012905D03*
X002247Y011905D03*
X003247Y011905D03*
X003247Y010905D03*
X002247Y010905D03*
X011997Y010705D03*
D17*
X011829Y022124D03*
X012814Y022124D03*
X013798Y022124D03*
X014782Y022124D03*
X015766Y022124D03*
X027829Y022124D03*
X028814Y022124D03*
X029798Y022124D03*
X030782Y022124D03*
X031766Y022124D03*
X047066Y022170D03*
X047066Y021186D03*
X047066Y023154D03*
X047066Y024139D03*
X047066Y025123D03*
D18*
X049429Y022761D03*
X037672Y024486D03*
X030191Y024486D03*
X021672Y024486D03*
X014191Y024486D03*
X049429Y015280D03*
D19*
X060497Y009205D03*
X060497Y007705D03*
X060497Y006205D03*
X060497Y004705D03*
X060497Y003205D03*
X027497Y011805D03*
X027497Y015805D03*
X027497Y019805D03*
X019497Y016805D03*
X019497Y014805D03*
D20*
X007897Y012039D03*
X007897Y011370D03*
X004697Y011170D03*
X004697Y011839D03*
X004347Y012520D03*
X004347Y013189D03*
X007397Y020170D03*
X007397Y020839D03*
X044047Y020770D03*
X044047Y021439D03*
X044497Y012489D03*
X044497Y011820D03*
X061897Y025770D03*
X061897Y026439D03*
D21*
X059147Y019905D03*
X057647Y019905D03*
X056797Y019905D03*
X055297Y019905D03*
X055297Y015905D03*
X056797Y015905D03*
X057647Y015905D03*
X059147Y015905D03*
D22*
X062047Y012855D03*
X061347Y010855D03*
D23*
X046147Y014495D03*
X045647Y014495D03*
X045147Y014495D03*
X044647Y014495D03*
X044147Y014495D03*
X043647Y014495D03*
X043147Y014495D03*
X043147Y016915D03*
X043647Y016915D03*
X044147Y016915D03*
X044647Y016915D03*
X045147Y016915D03*
X045647Y016915D03*
X046147Y016915D03*
X045747Y023595D03*
X045247Y023595D03*
X044747Y023595D03*
X044247Y023595D03*
X043747Y023595D03*
X043247Y023595D03*
X042747Y023595D03*
X042747Y026015D03*
X043247Y026015D03*
X043747Y026015D03*
X044247Y026015D03*
X044747Y026015D03*
X045247Y026015D03*
X045747Y026015D03*
X053447Y027015D03*
X053947Y027015D03*
X054447Y027015D03*
X054947Y027015D03*
X055447Y027015D03*
X055947Y027015D03*
X056447Y027015D03*
X057597Y027015D03*
X058097Y027015D03*
X058597Y027015D03*
X059097Y027015D03*
X059597Y027015D03*
X060097Y027015D03*
X060597Y027015D03*
X060597Y024595D03*
X060097Y024595D03*
X059597Y024595D03*
X059097Y024595D03*
X058597Y024595D03*
X058097Y024595D03*
X057597Y024595D03*
X056447Y024595D03*
X055947Y024595D03*
X055447Y024595D03*
X054947Y024595D03*
X054447Y024595D03*
X053947Y024595D03*
X053447Y024595D03*
X009077Y025395D03*
X008577Y025395D03*
X008077Y025395D03*
X007577Y025395D03*
X007077Y025395D03*
X006577Y025395D03*
X006077Y025395D03*
X006077Y022975D03*
X006577Y022975D03*
X007077Y022975D03*
X007577Y022975D03*
X008077Y022975D03*
X008577Y022975D03*
X009077Y022975D03*
X009147Y016615D03*
X008647Y016615D03*
X008147Y016615D03*
X007647Y016615D03*
X007147Y016615D03*
X006647Y016615D03*
X006147Y016615D03*
X006147Y014195D03*
X006647Y014195D03*
X007147Y014195D03*
X007647Y014195D03*
X008147Y014195D03*
X008647Y014195D03*
X009147Y014195D03*
D24*
X037397Y017955D03*
X037997Y017955D03*
D25*
X062147Y020105D03*
X062247Y032105D03*
D26*
X059821Y031538D03*
X059073Y031538D03*
X058321Y031538D03*
X057573Y031538D03*
X057947Y030672D03*
X059447Y030672D03*
X043121Y021222D03*
X042373Y021222D03*
X042747Y022088D03*
X043247Y012788D03*
X042873Y011922D03*
X043621Y011922D03*
X006871Y011572D03*
X006123Y011572D03*
X006497Y012438D03*
X006271Y020822D03*
X005523Y020822D03*
X005897Y021688D03*
D27*
X008146Y021605D03*
X009249Y021605D03*
X007749Y017955D03*
X006646Y017955D03*
X008246Y012955D03*
X009349Y012955D03*
X007849Y026805D03*
X006746Y026805D03*
X043246Y027155D03*
X044349Y027155D03*
X044746Y022255D03*
X045849Y022255D03*
X044749Y018205D03*
X043646Y018205D03*
X045146Y013305D03*
X046249Y013305D03*
X055446Y023305D03*
X056549Y023305D03*
X059096Y023255D03*
X060199Y023255D03*
X060349Y029105D03*
X059246Y029105D03*
X058499Y029105D03*
X057396Y029105D03*
D28*
X035847Y019306D03*
X035847Y018204D03*
X035847Y017256D03*
X035847Y016154D03*
D29*
X061947Y016105D03*
X061947Y017105D03*
X061947Y018105D03*
X061947Y022105D03*
X061947Y023105D03*
X061947Y024105D03*
X061947Y028105D03*
X061947Y029105D03*
X061947Y030105D03*
X061947Y034105D03*
X061947Y035105D03*
X061947Y036105D03*
D30*
X006200Y026920D03*
X005885Y026920D03*
X005570Y026920D03*
X005255Y026920D03*
X004940Y026920D03*
X004625Y026920D03*
X004310Y026920D03*
X003995Y026920D03*
X003550Y026920D03*
X003235Y026920D03*
X002920Y026920D03*
X002605Y026920D03*
X002290Y026920D03*
X001975Y026920D03*
X001660Y026920D03*
X001345Y026920D03*
X001345Y026290D03*
X001660Y026290D03*
X001975Y026290D03*
X002290Y026290D03*
X002605Y026290D03*
X002920Y026290D03*
X003235Y026290D03*
X003550Y026290D03*
X003995Y026290D03*
X004310Y026290D03*
X004625Y026290D03*
X004940Y026290D03*
X005255Y026290D03*
X005570Y026290D03*
X005885Y026290D03*
X006200Y026290D03*
D31*
X006547Y026405D02*
X006547Y025755D01*
X006577Y025395D01*
X006597Y024955D01*
X006497Y024955D01*
X005747Y024205D01*
X005747Y021755D01*
X005897Y021755D01*
X005897Y021705D01*
X005922Y021680D01*
X005897Y021655D01*
X005897Y021688D01*
X005922Y021680D02*
X005947Y021655D01*
X005523Y020822D02*
X005523Y020779D01*
X005547Y020755D01*
X005547Y020105D01*
X005497Y019955D01*
X005497Y019005D01*
X006347Y019405D02*
X007597Y019405D01*
X007397Y020170D02*
X006997Y020055D01*
X006347Y019405D01*
X006997Y020305D02*
X007397Y020170D01*
X006997Y020305D02*
X006747Y020305D01*
X006747Y022255D01*
X006972Y022480D01*
X007197Y022255D01*
X006972Y022480D02*
X007097Y022605D01*
X007077Y022975D01*
X007077Y023855D01*
X007147Y023855D01*
X008077Y023635D02*
X008947Y024505D01*
X010347Y024505D01*
X011697Y025855D01*
X012397Y025805D02*
X011447Y024855D01*
X011297Y024005D02*
X009047Y024005D01*
X008597Y023555D01*
X008597Y023055D01*
X008577Y022975D01*
X008077Y022975D02*
X008077Y023635D01*
X008077Y022975D02*
X008047Y022945D01*
X008047Y021905D01*
X008147Y021805D01*
X008146Y021605D01*
X009077Y021975D02*
X009247Y021805D01*
X009247Y020905D01*
X009447Y020705D01*
X009447Y020755D01*
X009249Y021605D02*
X009247Y021805D01*
X009077Y021975D02*
X009077Y022975D01*
X010606Y022254D02*
X010797Y022505D01*
X013797Y025505D01*
X022247Y025505D01*
X025447Y028705D01*
X025447Y032705D01*
X026557Y032808D02*
X028397Y032808D01*
X028397Y032570D02*
X026557Y032570D01*
X026557Y032331D02*
X028397Y032331D01*
X028397Y032092D02*
X026405Y032092D01*
X026310Y031997D02*
X026557Y032245D01*
X026557Y033141D01*
X026807Y033391D01*
X026807Y033455D01*
X028397Y033455D01*
X028397Y029855D01*
X025927Y029855D01*
X025927Y031462D01*
X026310Y031845D01*
X026310Y031997D01*
X026310Y031854D02*
X028397Y031854D01*
X028397Y031615D02*
X026080Y031615D01*
X025927Y031377D02*
X028397Y031377D01*
X028397Y031138D02*
X025927Y031138D01*
X025927Y030900D02*
X028397Y030900D01*
X028397Y030661D02*
X025927Y030661D01*
X025927Y030423D02*
X028397Y030423D01*
X028397Y030184D02*
X025927Y030184D01*
X025927Y029946D02*
X028397Y029946D01*
X023847Y030189D02*
X023832Y027689D01*
X022797Y026655D01*
X013947Y026655D01*
X011297Y024005D01*
X012814Y022124D02*
X012947Y021755D01*
X013297Y021405D01*
X013297Y021105D01*
X014147Y020355D02*
X014147Y017305D01*
X015147Y015705D02*
X020747Y010105D01*
X021647Y010105D01*
X018247Y013505D01*
X018247Y016805D01*
X019497Y016805D01*
X015147Y015705D02*
X008747Y015705D01*
X008147Y015105D01*
X008147Y014195D01*
X008147Y013255D01*
X008247Y013155D01*
X008246Y013154D01*
X008246Y012955D01*
X009147Y013305D02*
X009347Y013105D01*
X009349Y012955D01*
X009349Y012956D01*
X008547Y011905D01*
X008547Y010905D01*
X006947Y010905D01*
X006797Y010955D01*
X006597Y010955D01*
X006097Y011455D01*
X006123Y011481D01*
X006123Y011572D01*
X006497Y012438D02*
X006497Y012455D01*
X006147Y012805D01*
X006147Y013055D01*
X005347Y012905D02*
X005247Y012655D01*
X005247Y009855D01*
X004997Y009605D01*
X004997Y006805D01*
X005247Y006555D01*
X005247Y003405D01*
X005530Y003122D01*
X004447Y005305D02*
X004547Y006655D01*
X004547Y009655D01*
X004747Y009855D01*
X004747Y010905D01*
X004697Y011170D01*
X005347Y012905D02*
X005347Y015405D01*
X005797Y015855D01*
X004997Y016655D02*
X006097Y017755D01*
X006497Y017755D01*
X006647Y017905D01*
X006646Y017955D01*
X006647Y017555D01*
X006647Y017755D01*
X006647Y017555D02*
X006647Y016615D01*
X007497Y016205D02*
X007497Y015855D01*
X007497Y016205D02*
X007547Y016255D01*
X007647Y016615D01*
X007647Y017805D01*
X007747Y017905D01*
X007749Y017955D01*
X004997Y016655D02*
X004997Y013255D01*
X004947Y013205D01*
X007147Y014195D02*
X007147Y015005D01*
X008647Y014905D02*
X008647Y014195D01*
X009147Y014195D02*
X009187Y014195D01*
X012847Y014205D01*
X014797Y015305D02*
X009047Y015305D01*
X008647Y014905D01*
X009147Y014195D02*
X009147Y013305D01*
X011997Y010705D02*
X011997Y008055D01*
X013597Y006455D01*
X014247Y006455D01*
X014747Y005955D01*
X014747Y001905D01*
X019913Y005455D02*
X019897Y005955D01*
X019447Y006420D01*
X019447Y010705D01*
X019297Y010855D01*
X019147Y010705D01*
X019297Y010855D02*
X014797Y015305D01*
X014147Y020355D02*
X015747Y022005D01*
X015766Y022124D01*
X010347Y027155D02*
X009547Y026355D01*
X007797Y026355D01*
X007849Y026805D01*
X007647Y026805D01*
X006746Y026805D02*
X006546Y026754D01*
X006547Y026405D01*
X007067Y026105D02*
X007077Y025395D01*
X007577Y025395D02*
X007597Y025365D01*
X007597Y026055D01*
X007797Y026355D01*
X007297Y026355D02*
X007297Y027705D01*
X007847Y027905D01*
X007847Y032089D01*
X008313Y032555D01*
X004397Y029605D02*
X006297Y027705D01*
X007297Y027705D01*
X007297Y026355D02*
X007067Y026105D01*
X010347Y027155D02*
X013697Y027155D01*
X014197Y027655D01*
X014197Y032105D01*
X013597Y032705D01*
X013647Y032705D01*
X016047Y031105D02*
X016047Y028755D01*
X013947Y026655D01*
X018447Y029855D02*
X018447Y031340D01*
X018805Y031340D01*
X019310Y031845D01*
X019310Y031997D01*
X019557Y032245D01*
X019557Y033141D01*
X019807Y033391D01*
X019807Y033455D01*
X022445Y033455D01*
X022445Y033180D01*
X022661Y032963D01*
X022647Y032949D01*
X022647Y032060D01*
X022858Y031849D01*
X023367Y031849D01*
X023367Y030191D01*
X023365Y029855D01*
X018447Y029855D01*
X018447Y029946D02*
X023366Y029946D01*
X023367Y030184D02*
X018447Y030184D01*
X018447Y030423D02*
X023367Y030423D01*
X023367Y030661D02*
X018447Y030661D01*
X018447Y030900D02*
X023367Y030900D01*
X023367Y031138D02*
X018447Y031138D01*
X018842Y031377D02*
X023367Y031377D01*
X023367Y031615D02*
X019080Y031615D01*
X019310Y031854D02*
X022853Y031854D01*
X022647Y032092D02*
X019405Y032092D01*
X019557Y032331D02*
X022647Y032331D01*
X022647Y032570D02*
X019557Y032570D01*
X019557Y032808D02*
X022647Y032808D01*
X022578Y033047D02*
X019557Y033047D01*
X019701Y033285D02*
X022445Y033285D01*
X023932Y032505D02*
X023847Y032305D01*
X023847Y030189D01*
X019947Y030305D02*
X019897Y030255D01*
X019897Y027105D01*
X016047Y031105D02*
X016882Y031939D01*
X016882Y032555D01*
X026557Y033047D02*
X028397Y033047D01*
X028397Y033285D02*
X026701Y033285D01*
X034647Y032705D02*
X034797Y032255D01*
X035747Y031305D01*
X035747Y027355D01*
X035997Y027105D01*
X041947Y025805D02*
X029197Y025805D01*
X028747Y025805D01*
X028747Y022205D01*
X028814Y022124D01*
X028797Y022105D01*
X028197Y021505D01*
X027797Y021505D01*
X026397Y020105D01*
X026397Y020205D01*
X025547Y021055D01*
X026397Y020105D02*
X026397Y016705D01*
X026947Y016155D01*
X027497Y015805D01*
X030797Y019805D02*
X030797Y022105D01*
X030782Y022124D01*
X031766Y022124D02*
X032097Y022705D01*
X042147Y022705D01*
X042147Y021205D01*
X042356Y021205D01*
X042373Y021222D01*
X042147Y021205D02*
X042147Y020005D01*
X042222Y019930D01*
X042647Y020355D01*
X043297Y020355D01*
X043547Y020955D02*
X043547Y023005D01*
X043747Y023205D01*
X043747Y023595D01*
X043747Y024005D01*
X041947Y025805D01*
X043246Y026006D02*
X043247Y026005D01*
X043247Y026015D01*
X043246Y026006D02*
X043246Y027155D01*
X044247Y026955D02*
X044347Y027055D01*
X044347Y027705D01*
X043947Y028105D01*
X043947Y030855D01*
X043147Y031655D01*
X041697Y031655D01*
X041947Y031805D01*
X044897Y032255D02*
X044897Y029005D01*
X046247Y027655D01*
X046247Y026655D01*
X047947Y026655D01*
X049197Y027905D01*
X051247Y027905D01*
X051847Y028505D01*
X051847Y032005D01*
X051882Y032555D01*
X048447Y030805D02*
X048297Y030655D01*
X048297Y027955D01*
X047447Y027105D01*
X046247Y026655D02*
X046247Y024705D01*
X045997Y024455D01*
X045597Y024455D01*
X045247Y024105D01*
X045247Y023595D01*
X044747Y023605D02*
X044747Y023595D01*
X044747Y023605D02*
X044747Y022555D01*
X044746Y022255D01*
X044797Y022555D01*
X045747Y022605D02*
X045899Y022605D01*
X045849Y022255D01*
X045849Y021604D01*
X046147Y021305D01*
X047747Y020405D02*
X047747Y023405D01*
X047297Y023855D01*
X047066Y024139D01*
X045747Y023595D02*
X045747Y022605D01*
X044747Y023605D02*
X044747Y024405D01*
X045447Y025105D01*
X044247Y026005D02*
X044247Y026015D01*
X044247Y026955D01*
X044347Y027055D02*
X044349Y027155D01*
X043247Y026005D02*
X043247Y025255D01*
X042297Y024305D02*
X042297Y023155D01*
X042497Y022955D01*
X042497Y022155D01*
X042547Y022105D01*
X042747Y022105D01*
X042747Y022088D01*
X041547Y021255D02*
X040747Y020455D01*
X035997Y020455D01*
X035347Y019805D01*
X035847Y017955D02*
X037397Y017955D01*
X037997Y017955D02*
X037997Y017105D01*
X037497Y016605D01*
X038122Y015830D02*
X036172Y015830D01*
X035847Y016155D01*
X038122Y015830D02*
X041497Y012505D01*
X042247Y011705D02*
X042447Y011905D01*
X042447Y015605D01*
X043697Y015605D01*
X044647Y016555D01*
X044647Y016915D01*
X044647Y018005D01*
X044747Y018105D01*
X044749Y018205D01*
X043646Y018205D02*
X043346Y017805D01*
X042797Y017805D01*
X043647Y018105D02*
X043647Y016915D01*
X044647Y016915D02*
X044647Y016905D01*
X045497Y016205D02*
X046497Y016205D01*
X046497Y019405D01*
X045447Y019405D01*
X044297Y020555D01*
X044047Y020770D01*
X043797Y020955D01*
X043547Y020955D01*
X042222Y019930D02*
X038122Y015830D01*
X039947Y016105D02*
X039947Y015205D01*
X043247Y013505D02*
X043247Y012788D01*
X043247Y013505D02*
X043497Y013755D01*
X044147Y014495D02*
X044147Y015005D01*
X045497Y016205D01*
X045797Y015255D02*
X045647Y015105D01*
X045647Y014495D01*
X045147Y014495D02*
X045147Y013656D01*
X045146Y013305D01*
X045147Y013405D01*
X045497Y013055D01*
X045497Y012405D01*
X046097Y013254D02*
X046097Y011255D01*
X043897Y011255D01*
X042890Y011255D01*
X042873Y011922D01*
X042247Y011705D02*
X039597Y011705D01*
X038647Y010755D01*
X033397Y010755D01*
X032397Y009755D01*
X032397Y008505D01*
X030297Y006405D01*
X030297Y005405D01*
X030197Y005305D01*
X030247Y005305D01*
X030247Y005855D01*
X032747Y008355D01*
X032747Y009605D01*
X033547Y010405D01*
X039947Y010405D01*
X039947Y011205D01*
X039347Y008555D02*
X038314Y008555D01*
X038204Y008445D01*
X037491Y008445D01*
X037381Y008555D01*
X036487Y008555D01*
X036487Y007922D01*
X036230Y007665D01*
X035487Y006922D01*
X035487Y006672D01*
X035376Y006561D01*
X035015Y006110D01*
X035287Y006110D01*
X035498Y005899D01*
X035498Y005010D01*
X035407Y004920D01*
X035407Y004872D01*
X035450Y004830D01*
X035450Y004055D01*
X035887Y004055D01*
X035887Y004618D01*
X036137Y004868D01*
X036137Y005764D01*
X036385Y006012D01*
X036385Y006164D01*
X036890Y006670D01*
X037605Y006670D01*
X038110Y006164D01*
X038110Y006012D01*
X038357Y005764D01*
X038357Y004868D01*
X038607Y004618D01*
X038607Y004055D01*
X039447Y004055D01*
X039397Y004105D01*
X039397Y008205D01*
X039347Y008555D01*
X039359Y008477D02*
X038235Y008477D01*
X039393Y008238D02*
X036487Y008238D01*
X036487Y008000D02*
X039397Y008000D01*
X039397Y007761D02*
X036326Y007761D01*
X036087Y007522D02*
X039397Y007522D01*
X039397Y007284D02*
X035849Y007284D01*
X035610Y007045D02*
X039397Y007045D01*
X039397Y006807D02*
X035487Y006807D01*
X035383Y006568D02*
X036789Y006568D01*
X036550Y006330D02*
X035191Y006330D01*
X035306Y006091D02*
X036385Y006091D01*
X036226Y005853D02*
X035498Y005853D01*
X035498Y005614D02*
X036137Y005614D01*
X036137Y005376D02*
X035498Y005376D01*
X035498Y005137D02*
X036137Y005137D01*
X036137Y004899D02*
X035407Y004899D01*
X035450Y004660D02*
X035929Y004660D01*
X035887Y004421D02*
X035450Y004421D01*
X035450Y004183D02*
X035887Y004183D01*
X033845Y004183D02*
X031607Y004183D01*
X031607Y004055D02*
X031607Y004618D01*
X031447Y004778D01*
X031447Y006376D01*
X032946Y007875D01*
X033227Y008156D01*
X033227Y008555D01*
X033281Y008555D01*
X033391Y008445D01*
X034104Y008445D01*
X034214Y008555D01*
X035607Y008555D01*
X035607Y008287D01*
X034607Y007287D01*
X034607Y007009D01*
X033919Y006149D01*
X033880Y006110D01*
X033808Y006110D01*
X033597Y005899D01*
X033597Y005010D01*
X033808Y004799D01*
X033845Y004799D01*
X033845Y004055D01*
X031607Y004055D01*
X031607Y004421D02*
X033845Y004421D01*
X033845Y004660D02*
X031565Y004660D01*
X031447Y004899D02*
X033709Y004899D01*
X033597Y005137D02*
X031447Y005137D01*
X031447Y005376D02*
X033597Y005376D01*
X033597Y005614D02*
X031447Y005614D01*
X031447Y005853D02*
X033597Y005853D01*
X033789Y006091D02*
X031447Y006091D01*
X031447Y006330D02*
X034064Y006330D01*
X034255Y006568D02*
X031640Y006568D01*
X031878Y006807D02*
X034446Y006807D01*
X034607Y007045D02*
X032117Y007045D01*
X032355Y007284D02*
X034607Y007284D01*
X034843Y007522D02*
X032594Y007522D01*
X032832Y007761D02*
X035081Y007761D01*
X035320Y008000D02*
X033071Y008000D01*
X033227Y008238D02*
X035559Y008238D01*
X035607Y008477D02*
X034135Y008477D01*
X033359Y008477D02*
X033227Y008477D01*
X036487Y008477D02*
X037459Y008477D01*
X037706Y006568D02*
X039397Y006568D01*
X039397Y006330D02*
X037945Y006330D01*
X038110Y006091D02*
X039397Y006091D01*
X039397Y005853D02*
X038269Y005853D01*
X038357Y005614D02*
X039397Y005614D01*
X039397Y005376D02*
X038357Y005376D01*
X038357Y005137D02*
X039397Y005137D01*
X039397Y004899D02*
X038357Y004899D01*
X038565Y004660D02*
X039397Y004660D01*
X039397Y004421D02*
X038607Y004421D01*
X038607Y004183D02*
X039397Y004183D01*
X044247Y005305D02*
X044747Y005405D01*
X046447Y004055D02*
X046447Y004005D01*
X047963Y005405D02*
X047947Y005805D01*
X047547Y006405D01*
X047547Y010705D01*
X053247Y010705D01*
X053847Y010105D01*
X053847Y007405D01*
X054897Y006155D01*
X054897Y005505D01*
X054963Y005455D01*
X057097Y004505D02*
X057097Y015505D01*
X056797Y015905D01*
X057497Y015605D02*
X057797Y015905D01*
X057647Y015905D01*
X059147Y017355D01*
X059147Y019905D01*
X059247Y020455D02*
X059747Y020355D01*
X059763Y019105D01*
X058597Y019105D02*
X058597Y020555D01*
X057697Y021455D01*
X057547Y021455D01*
X058097Y022405D02*
X059647Y020855D01*
X060097Y020855D01*
X060213Y020905D01*
X059247Y020455D02*
X057097Y022605D01*
X057097Y023955D01*
X056997Y024055D01*
X056997Y025305D01*
X056847Y025455D01*
X056147Y025455D01*
X055947Y025255D01*
X055947Y024595D01*
X055447Y024595D02*
X055447Y023655D01*
X055446Y023654D01*
X055446Y023305D01*
X055997Y022605D02*
X056697Y023305D01*
X056549Y023305D01*
X056547Y023605D01*
X056447Y023705D01*
X056447Y024595D01*
X055447Y024595D02*
X055447Y025405D01*
X055847Y025805D01*
X059597Y025805D01*
X059947Y025805D01*
X060347Y026205D01*
X060997Y026205D01*
X061247Y026455D01*
X061247Y027405D01*
X061947Y028105D01*
X061947Y028965D02*
X061947Y029525D01*
X062488Y029525D01*
X062827Y029864D01*
X062827Y030345D01*
X062488Y030685D01*
X061947Y030685D01*
X061947Y034525D01*
X062488Y034525D01*
X062827Y034864D01*
X062827Y035105D01*
X064177Y035105D01*
X064177Y028105D01*
X063307Y028105D01*
X063307Y028456D01*
X063307Y028754D01*
X063096Y028965D01*
X061947Y028965D01*
X061947Y028991D02*
X064177Y028991D01*
X064177Y028753D02*
X063307Y028753D01*
X063307Y028514D02*
X064177Y028514D01*
X064177Y028276D02*
X063307Y028276D01*
X064177Y029230D02*
X061947Y029230D01*
X061947Y029468D02*
X064177Y029468D01*
X064177Y029707D02*
X062670Y029707D01*
X062827Y029946D02*
X064177Y029946D01*
X064177Y030184D02*
X062827Y030184D01*
X062750Y030423D02*
X064177Y030423D01*
X064177Y030661D02*
X062511Y030661D01*
X061947Y030900D02*
X064177Y030900D01*
X064177Y031138D02*
X061947Y031138D01*
X061947Y031377D02*
X064177Y031377D01*
X064177Y031615D02*
X061947Y031615D01*
X061947Y031854D02*
X064177Y031854D01*
X064177Y032092D02*
X061947Y032092D01*
X061947Y032331D02*
X064177Y032331D01*
X064177Y032570D02*
X061947Y032570D01*
X061947Y032808D02*
X064177Y032808D01*
X064177Y033047D02*
X061947Y033047D01*
X061947Y033285D02*
X064177Y033285D01*
X064177Y033524D02*
X061947Y033524D01*
X061947Y033762D02*
X064177Y033762D01*
X064177Y034001D02*
X061947Y034001D01*
X061947Y034239D02*
X064177Y034239D01*
X064177Y034478D02*
X061947Y034478D01*
X062679Y034716D02*
X064177Y034716D01*
X064177Y034955D02*
X062827Y034955D01*
X059797Y031905D02*
X059447Y032255D01*
X058597Y032255D01*
X058321Y031979D01*
X058321Y031538D01*
X057947Y030672D02*
X057947Y029655D01*
X057397Y029105D01*
X057396Y029105D01*
X057397Y029105D02*
X056297Y028005D01*
X053947Y028005D01*
X053947Y027015D01*
X054447Y027015D02*
X054447Y026105D01*
X054947Y027015D02*
X054947Y027655D01*
X056947Y027655D01*
X058397Y029105D01*
X058447Y029105D01*
X058397Y029105D02*
X058499Y029105D01*
X059097Y029255D02*
X059247Y029105D01*
X059246Y029105D01*
X059396Y029056D01*
X059397Y029055D01*
X059397Y028955D01*
X058097Y027655D01*
X058097Y027015D01*
X059097Y027015D02*
X059097Y027355D01*
X060447Y028705D01*
X060499Y029056D01*
X060349Y029105D01*
X059097Y029255D02*
X059097Y030305D01*
X059447Y030655D01*
X059447Y030672D01*
X059797Y031505D02*
X059797Y031905D01*
X059821Y031538D02*
X059821Y031529D01*
X059797Y031505D01*
X052522Y028030D02*
X052447Y028105D01*
X059597Y025805D02*
X059597Y024595D01*
X059597Y023255D01*
X059096Y023255D01*
X058347Y022905D02*
X058047Y022905D01*
X057747Y023205D01*
X057747Y023355D01*
X057697Y023405D01*
X057713Y023405D01*
X058347Y022905D02*
X059747Y021455D01*
X060197Y021905D02*
X060199Y022106D01*
X060199Y023255D01*
X060199Y023304D01*
X060597Y023405D01*
X060597Y024595D01*
X060097Y024595D02*
X060097Y025305D01*
X060563Y025770D01*
X061897Y025770D01*
X062827Y023105D02*
X064177Y023105D01*
X064177Y015605D01*
X062568Y015605D01*
X062827Y015864D01*
X062827Y016345D01*
X062488Y016685D01*
X061447Y016685D01*
X061447Y017525D01*
X062488Y017525D01*
X062827Y017864D01*
X062827Y018345D01*
X062488Y018685D01*
X062039Y018685D01*
X061452Y019259D01*
X061447Y019264D01*
X061447Y020746D01*
X061507Y020806D01*
X061507Y022525D01*
X062488Y022525D01*
X062827Y022864D01*
X062827Y023105D01*
X062827Y023028D02*
X064177Y023028D01*
X064177Y022789D02*
X062752Y022789D01*
X062514Y022551D02*
X064177Y022551D01*
X064177Y022312D02*
X061507Y022312D01*
X061507Y022074D02*
X064177Y022074D01*
X064177Y021835D02*
X061507Y021835D01*
X061507Y021597D02*
X064177Y021597D01*
X064177Y021358D02*
X061507Y021358D01*
X061507Y021119D02*
X064177Y021119D01*
X064177Y020881D02*
X061507Y020881D01*
X061447Y020642D02*
X064177Y020642D01*
X064177Y020404D02*
X061447Y020404D01*
X061447Y020165D02*
X064177Y020165D01*
X064177Y019927D02*
X061447Y019927D01*
X061447Y019688D02*
X064177Y019688D01*
X064177Y019450D02*
X061447Y019450D01*
X061501Y019211D02*
X064177Y019211D01*
X064177Y018973D02*
X061745Y018973D01*
X061988Y018734D02*
X064177Y018734D01*
X064177Y018495D02*
X062677Y018495D01*
X062827Y018257D02*
X064177Y018257D01*
X064177Y018018D02*
X062827Y018018D01*
X062743Y017780D02*
X064177Y017780D01*
X064177Y017541D02*
X062504Y017541D01*
X062585Y016587D02*
X064177Y016587D01*
X064177Y016349D02*
X062824Y016349D01*
X062827Y016110D02*
X064177Y016110D01*
X064177Y015871D02*
X062827Y015871D01*
X062596Y015633D02*
X064177Y015633D01*
X064177Y016826D02*
X061447Y016826D01*
X061447Y017064D02*
X064177Y017064D01*
X064177Y017303D02*
X061447Y017303D01*
X059147Y015905D02*
X058997Y015705D01*
X058697Y015405D01*
X058697Y014505D01*
X060497Y012705D01*
X060947Y012705D01*
X060997Y012655D01*
X060997Y011655D01*
X060497Y011155D01*
X060497Y009205D01*
X060747Y007705D02*
X062247Y009205D01*
X062247Y010855D01*
X061347Y010855D01*
X059947Y012055D02*
X058847Y010455D01*
X058847Y009755D01*
X060497Y007705D02*
X060747Y007705D01*
X060497Y006205D02*
X058597Y006205D01*
X057497Y007305D01*
X057497Y015605D01*
X057947Y014505D02*
X058697Y014505D01*
X060047Y013955D02*
X061297Y013955D01*
X062047Y013155D01*
X062047Y012855D01*
X056247Y012605D02*
X056247Y016755D01*
X058597Y019105D01*
X057647Y019905D02*
X054697Y016955D01*
X054697Y012805D01*
X053947Y012055D01*
X054697Y011055D02*
X056247Y012605D01*
X054697Y011055D02*
X048497Y011055D01*
X048397Y011155D01*
X047547Y010705D02*
X047547Y014605D01*
X046897Y015255D01*
X045797Y015255D01*
X046147Y014495D02*
X046247Y014395D01*
X046247Y013406D01*
X046249Y013305D01*
X046097Y013254D01*
X046047Y009905D02*
X046047Y009305D01*
X054047Y013955D02*
X054297Y014005D01*
X054297Y018905D01*
X055297Y019905D01*
X056797Y019905D01*
X056247Y021455D02*
X056097Y021605D01*
X055447Y021605D01*
X054447Y022605D01*
X053913Y023139D01*
X053913Y023555D01*
X053447Y021605D02*
X053497Y021505D01*
X053447Y021605D02*
X053447Y018605D01*
X047747Y020405D02*
X046747Y019405D01*
X046497Y019405D01*
X043646Y018205D02*
X043647Y018105D01*
X027147Y010105D02*
X026547Y010705D01*
X021947Y010705D01*
X021647Y010105D02*
X022647Y010105D01*
X022147Y009305D01*
X027147Y010105D02*
X027147Y005605D01*
X027013Y005455D01*
X004247Y018405D02*
X004447Y018805D01*
X004447Y020205D01*
X004397Y029605D02*
X001647Y029605D01*
X001513Y029739D01*
X001513Y032505D01*
X044897Y032255D02*
X044932Y032555D01*
X057097Y004505D02*
X058397Y003205D01*
X060497Y003205D01*
D32*
X053147Y007005D02*
X053147Y009942D01*
X052995Y010095D01*
X048157Y010095D01*
X048157Y007005D01*
X049200Y007005D01*
X049157Y007108D01*
X049157Y007502D01*
X049308Y007865D01*
X049587Y008144D01*
X049950Y008295D01*
X050344Y008295D01*
X050708Y008144D01*
X050987Y007865D01*
X051137Y007502D01*
X051137Y007108D01*
X051095Y007005D01*
X053147Y007005D01*
X053147Y007086D02*
X051128Y007086D01*
X051103Y007584D02*
X053147Y007584D01*
X053147Y008083D02*
X050769Y008083D01*
X049526Y008083D02*
X048157Y008083D01*
X048157Y008581D02*
X053147Y008581D01*
X053147Y009080D02*
X048157Y009080D01*
X048157Y009579D02*
X053147Y009579D01*
X053012Y010077D02*
X048157Y010077D01*
X046937Y010077D02*
X041326Y010077D01*
X041553Y010305D02*
X041017Y009769D01*
X040947Y009699D01*
X040947Y007005D01*
X041000Y007005D01*
X040957Y007108D01*
X040957Y007502D01*
X041108Y007865D01*
X041387Y008144D01*
X041750Y008295D01*
X042144Y008295D01*
X042508Y008144D01*
X042787Y007865D01*
X042937Y007502D01*
X042937Y007108D01*
X042895Y007005D01*
X045100Y007005D01*
X045057Y007108D01*
X045057Y007502D01*
X045208Y007865D01*
X045487Y008144D01*
X045850Y008295D01*
X046244Y008295D01*
X046608Y008144D01*
X046887Y007865D01*
X046937Y007743D01*
X046937Y010305D01*
X041553Y010305D01*
X040947Y009579D02*
X046937Y009579D01*
X046937Y009080D02*
X040947Y009080D01*
X040947Y008581D02*
X046937Y008581D01*
X046937Y008083D02*
X046669Y008083D01*
X045426Y008083D02*
X042569Y008083D01*
X042903Y007584D02*
X045092Y007584D01*
X045066Y007086D02*
X042928Y007086D01*
X041326Y008083D02*
X040947Y008083D01*
X040947Y007584D02*
X040992Y007584D01*
X040966Y007086D02*
X040947Y007086D01*
X048157Y007086D02*
X049166Y007086D01*
X049192Y007584D02*
X048157Y007584D01*
X035847Y016155D02*
X034403Y014711D01*
X030453Y014711D01*
X027497Y011755D01*
X027497Y011805D01*
X027497Y011755D02*
X027447Y011705D01*
X025847Y010005D02*
X022165Y010005D01*
X022093Y009975D01*
X021802Y009975D01*
X021730Y010005D01*
X020057Y010005D01*
X020057Y006905D01*
X021242Y006905D01*
X021157Y007108D01*
X021157Y007502D01*
X021308Y007865D01*
X021587Y008144D01*
X021950Y008295D01*
X022344Y008295D01*
X022708Y008144D01*
X022987Y007865D01*
X023137Y007502D01*
X023137Y007108D01*
X023053Y006905D01*
X025342Y006905D01*
X025257Y007108D01*
X025257Y007502D01*
X025408Y007865D01*
X025687Y008144D01*
X025847Y008211D01*
X025847Y010005D01*
X025847Y009579D02*
X020057Y009579D01*
X018837Y009579D02*
X014647Y009579D01*
X014647Y010005D02*
X018837Y010005D01*
X018837Y007915D01*
X018608Y008144D01*
X018244Y008295D01*
X017850Y008295D01*
X017487Y008144D01*
X017208Y007865D01*
X017057Y007502D01*
X017057Y007108D01*
X017142Y006905D01*
X014853Y006905D01*
X014937Y007108D01*
X014937Y007502D01*
X014787Y007865D01*
X014647Y008005D01*
X014647Y010005D01*
X014647Y009080D02*
X018837Y009080D01*
X018837Y008581D02*
X014647Y008581D01*
X014647Y008083D02*
X017426Y008083D01*
X017092Y007584D02*
X014903Y007584D01*
X014928Y007086D02*
X017066Y007086D01*
X018669Y008083D02*
X018837Y008083D01*
X020057Y008083D02*
X021526Y008083D01*
X021192Y007584D02*
X020057Y007584D01*
X020057Y007086D02*
X021166Y007086D01*
X022769Y008083D02*
X025626Y008083D01*
X025847Y008581D02*
X020057Y008581D01*
X020057Y009080D02*
X025847Y009080D01*
X025292Y007584D02*
X023103Y007584D01*
X023128Y007086D02*
X025266Y007086D01*
X027497Y015805D02*
X033897Y015805D01*
X035397Y017305D01*
X035847Y017305D01*
X035847Y018204D01*
X035847Y017955D01*
X035847Y018204D02*
X035847Y018205D01*
X035847Y017305D02*
X035847Y017256D01*
X035847Y016155D02*
X035847Y016154D01*
X035847Y019305D02*
X035347Y019805D01*
X030797Y019805D01*
X027497Y019805D01*
X035847Y019305D02*
X035847Y019306D01*
X005347Y029517D02*
X005347Y033148D01*
X005157Y033338D01*
X005157Y036005D01*
X002747Y036005D01*
X002747Y035216D01*
X003180Y034783D01*
X003180Y033126D01*
X002937Y032883D01*
X002937Y032369D01*
X002928Y032359D01*
X002928Y032006D01*
X002747Y031826D01*
X002747Y030215D01*
X004145Y030215D01*
X004650Y030215D01*
X005347Y029517D01*
X005347Y029520D02*
X005344Y029520D01*
X005347Y030019D02*
X004846Y030019D01*
X005347Y030517D02*
X002747Y030517D01*
X002747Y031016D02*
X005347Y031016D01*
X005347Y031514D02*
X002747Y031514D01*
X002928Y032013D02*
X005347Y032013D01*
X005347Y032511D02*
X002937Y032511D01*
X003064Y033010D02*
X005347Y033010D01*
X005157Y033509D02*
X003180Y033509D01*
X003180Y034007D02*
X005157Y034007D01*
X005157Y034506D02*
X003180Y034506D01*
X002959Y035004D02*
X005157Y035004D01*
X005157Y035503D02*
X002747Y035503D01*
X002747Y036001D02*
X005157Y036001D01*
D33*
X005247Y026955D02*
X004947Y026955D01*
X004940Y026920D01*
X004897Y026955D01*
X004647Y026955D01*
X004625Y026920D01*
X004597Y026955D01*
X004347Y026955D01*
X004310Y026920D01*
X004297Y026955D01*
X003997Y026955D01*
X003995Y026920D01*
X003947Y026805D01*
X003797Y026655D01*
X003797Y025005D01*
X003547Y025255D02*
X003447Y025155D01*
X003447Y023355D01*
X004747Y022055D01*
X004747Y020405D01*
X004947Y020205D01*
X004947Y019805D01*
X003897Y019905D02*
X003397Y020405D01*
X002797Y020405D01*
X002797Y021355D01*
X003097Y021655D01*
X003247Y021905D01*
X003147Y022355D02*
X003697Y022355D01*
X003697Y021455D01*
X003397Y021155D01*
X003247Y020905D01*
X002697Y020105D02*
X002347Y020455D01*
X001897Y020455D01*
X001897Y020605D01*
X001797Y020705D01*
X001797Y022405D01*
X001822Y022430D01*
X001797Y022455D01*
X001797Y023105D01*
X001997Y023305D01*
X001997Y026205D01*
X001975Y026290D01*
X002247Y026205D02*
X002247Y022905D01*
X002797Y022705D02*
X002797Y023105D01*
X002947Y023255D01*
X002947Y025455D01*
X002847Y025555D01*
X002847Y026155D01*
X002897Y026205D01*
X002920Y026290D01*
X003047Y026555D02*
X000997Y026555D01*
X000997Y021055D01*
X001997Y020055D01*
X002247Y019905D01*
X002697Y020105D02*
X002697Y019455D01*
X002147Y019455D01*
X001797Y019105D01*
X001797Y013505D01*
X001897Y013405D01*
X003247Y011905D02*
X003397Y011655D01*
X003697Y011355D01*
X003697Y010455D01*
X002047Y010455D01*
X001547Y010955D01*
X001547Y020005D01*
X001397Y020155D01*
X002247Y018905D02*
X002397Y018655D01*
X002697Y018355D01*
X002697Y016455D01*
X002672Y016430D01*
X002697Y016405D01*
X002697Y011455D01*
X002397Y011155D01*
X002247Y010905D01*
X003247Y010905D01*
X004447Y012055D02*
X004697Y011839D01*
X004447Y012055D02*
X004447Y012305D01*
X004347Y012520D01*
X004097Y012305D01*
X003897Y012105D01*
X003882Y012082D01*
X003997Y012005D01*
X003882Y012082D02*
X003697Y012205D01*
X003697Y015355D01*
X003397Y015655D01*
X003247Y015905D01*
X002672Y016430D02*
X002397Y016155D01*
X002247Y015905D01*
X003897Y015355D02*
X004247Y015005D01*
X003897Y015355D02*
X003897Y019905D01*
X004747Y017755D02*
X006247Y019255D01*
X006347Y019405D01*
X007397Y020839D02*
X007497Y021005D01*
X007547Y021055D01*
X007547Y022605D01*
X007577Y022975D01*
X006797Y023455D02*
X006797Y024005D01*
X007647Y024855D01*
X009497Y024855D01*
X009497Y025705D01*
X006200Y026920D02*
X006197Y026955D01*
X005897Y026955D01*
X005885Y026920D01*
X005847Y026955D01*
X005597Y026955D01*
X005570Y026920D01*
X005547Y026955D01*
X005297Y026955D01*
X005255Y026920D01*
X005247Y026955D01*
X004310Y026290D02*
X004347Y026205D01*
X004447Y026105D01*
X004447Y025455D01*
X005097Y024805D01*
X005097Y023055D01*
X004997Y022955D01*
X004997Y021905D01*
X005097Y021805D01*
X003247Y022905D02*
X003197Y023155D01*
X003197Y025705D01*
X003547Y025255D02*
X003547Y026205D01*
X003550Y026290D01*
X003235Y026290D02*
X003197Y026405D01*
X003047Y026555D01*
X002920Y026920D02*
X002947Y026955D01*
X003197Y026955D01*
X003235Y026920D01*
X003247Y026955D01*
X003547Y026955D01*
X003550Y026920D01*
X003597Y026955D01*
X003947Y026955D01*
X003995Y026920D01*
X003995Y026290D02*
X003997Y026205D01*
X004247Y025955D01*
X004247Y025155D01*
X004747Y024655D01*
X006147Y023905D02*
X006147Y023355D01*
X006077Y022975D01*
X006577Y022975D02*
X006697Y023355D01*
X006797Y023455D01*
X009397Y023605D02*
X010147Y022855D01*
X010147Y022055D01*
X010397Y021805D01*
X011297Y021805D01*
X011297Y022355D01*
X011597Y022655D01*
X020397Y022655D01*
X020397Y012355D01*
X026547Y011505D02*
X026547Y014855D01*
X027497Y015805D01*
X026797Y018755D02*
X036197Y018755D01*
X036347Y018905D01*
X036347Y018955D01*
X040647Y018955D01*
X044047Y021439D02*
X044247Y021655D01*
X044247Y023595D01*
X043247Y023595D02*
X043247Y023205D01*
X042897Y022955D01*
X042897Y022905D01*
X042747Y023595D02*
X042647Y023955D01*
X042647Y024555D01*
X041847Y025355D01*
X029247Y025355D01*
X029197Y025805D02*
X029197Y036855D01*
X028297Y036855D01*
X030647Y023255D02*
X041497Y023255D01*
X046497Y022455D02*
X046497Y021855D01*
X046447Y021755D01*
X046497Y022455D02*
X046897Y022855D01*
X047066Y023154D01*
X053447Y022905D02*
X053447Y024595D01*
X053447Y024605D01*
X054847Y022955D02*
X055547Y022205D01*
X056097Y022205D01*
X057247Y021055D01*
X057597Y021055D01*
X058347Y020305D01*
X058347Y019255D01*
X055997Y016905D01*
X055997Y012755D01*
X054547Y011305D01*
X048897Y011305D01*
X048647Y011555D01*
X047997Y011555D01*
X047947Y012855D02*
X049297Y011505D01*
X054447Y011505D01*
X055797Y012855D01*
X055797Y017005D01*
X058147Y019355D01*
X058147Y020205D01*
X057547Y020805D01*
X055697Y020805D01*
X054097Y022405D01*
X053947Y022405D01*
X053447Y022905D01*
X057597Y024595D02*
X057497Y024955D01*
X057397Y025055D01*
X057397Y025305D01*
X059447Y032105D02*
X059447Y032255D01*
X035847Y017256D02*
X035847Y017255D01*
X043147Y015205D02*
X043147Y014495D01*
X043647Y014495D02*
X043747Y014855D01*
X043747Y015205D01*
X044147Y014495D02*
X044147Y014105D01*
X044047Y013905D01*
X044047Y011955D01*
X044147Y011955D01*
X044497Y011820D01*
X044497Y012489D02*
X044647Y012705D01*
X044647Y014495D01*
X054457Y012098D02*
X054834Y012475D01*
X055027Y012668D01*
X055027Y015105D01*
X055537Y015105D01*
X055537Y012962D01*
X054457Y011882D01*
X054457Y012098D01*
X054494Y012134D02*
X054709Y012134D01*
X054611Y012036D02*
X054457Y012036D01*
X054457Y011937D02*
X054512Y011937D01*
X054592Y012233D02*
X054808Y012233D01*
X054906Y012331D02*
X054691Y012331D01*
X054789Y012430D02*
X055005Y012430D01*
X055104Y012528D02*
X054888Y012528D01*
X054986Y012627D02*
X055202Y012627D01*
X055301Y012726D02*
X055027Y012726D01*
X055027Y012824D02*
X055399Y012824D01*
X055498Y012923D02*
X055027Y012923D01*
X055027Y013021D02*
X055537Y013021D01*
X055537Y013120D02*
X055027Y013120D01*
X055027Y013218D02*
X055537Y013218D01*
X055537Y013317D02*
X055027Y013317D01*
X055027Y013415D02*
X055537Y013415D01*
X055537Y013514D02*
X055027Y013514D01*
X055027Y013612D02*
X055537Y013612D01*
X055537Y013711D02*
X055027Y013711D01*
X055027Y013810D02*
X055537Y013810D01*
X055537Y013908D02*
X055027Y013908D01*
X055027Y014007D02*
X055537Y014007D01*
X055537Y014105D02*
X055027Y014105D01*
X055027Y014204D02*
X055537Y014204D01*
X055537Y014302D02*
X055027Y014302D01*
X055027Y014401D02*
X055537Y014401D01*
X055537Y014499D02*
X055027Y014499D01*
X055027Y014598D02*
X055537Y014598D01*
X055537Y014696D02*
X055027Y014696D01*
X055027Y014795D02*
X055537Y014795D01*
X055537Y014894D02*
X055027Y014894D01*
X055027Y014992D02*
X055537Y014992D01*
X055537Y015091D02*
X055027Y015091D01*
X056257Y015091D02*
X056767Y015091D01*
X056767Y015105D02*
X056767Y011105D01*
X054715Y011105D01*
X054807Y011197D01*
X056257Y012647D01*
X056257Y012862D01*
X056257Y015105D01*
X056767Y015105D01*
X056767Y014992D02*
X056257Y014992D01*
X056257Y014894D02*
X056767Y014894D01*
X056767Y014795D02*
X056257Y014795D01*
X056257Y014696D02*
X056767Y014696D01*
X056767Y014598D02*
X056257Y014598D01*
X056257Y014499D02*
X056767Y014499D01*
X056767Y014401D02*
X056257Y014401D01*
X056257Y014302D02*
X056767Y014302D01*
X056767Y014204D02*
X056257Y014204D01*
X056257Y014105D02*
X056767Y014105D01*
X056767Y014007D02*
X056257Y014007D01*
X056257Y013908D02*
X056767Y013908D01*
X056767Y013810D02*
X056257Y013810D01*
X056257Y013711D02*
X056767Y013711D01*
X056767Y013612D02*
X056257Y013612D01*
X056257Y013514D02*
X056767Y013514D01*
X056767Y013415D02*
X056257Y013415D01*
X056257Y013317D02*
X056767Y013317D01*
X056767Y013218D02*
X056257Y013218D01*
X056257Y013120D02*
X056767Y013120D01*
X056767Y013021D02*
X056257Y013021D01*
X056257Y012923D02*
X056767Y012923D01*
X056767Y012824D02*
X056257Y012824D01*
X056257Y012726D02*
X056767Y012726D01*
X056767Y012627D02*
X056237Y012627D01*
X056139Y012528D02*
X056767Y012528D01*
X056767Y012430D02*
X056040Y012430D01*
X055942Y012331D02*
X056767Y012331D01*
X056767Y012233D02*
X055843Y012233D01*
X055745Y012134D02*
X056767Y012134D01*
X056767Y012036D02*
X055646Y012036D01*
X055548Y011937D02*
X056767Y011937D01*
X056767Y011839D02*
X055449Y011839D01*
X055350Y011740D02*
X056767Y011740D01*
X056767Y011642D02*
X055252Y011642D01*
X055153Y011543D02*
X056767Y011543D01*
X056767Y011444D02*
X055055Y011444D01*
X054956Y011346D02*
X056767Y011346D01*
X056767Y011247D02*
X054858Y011247D01*
X054759Y011149D02*
X056767Y011149D01*
X057827Y011149D02*
X058447Y011149D01*
X058447Y011105D02*
X057827Y011105D01*
X057827Y015105D01*
X058447Y015105D01*
X058447Y011105D01*
X058447Y011247D02*
X057827Y011247D01*
X057827Y011346D02*
X058447Y011346D01*
X058447Y011444D02*
X057827Y011444D01*
X057827Y011543D02*
X058447Y011543D01*
X058447Y011642D02*
X057827Y011642D01*
X057827Y011740D02*
X058447Y011740D01*
X058447Y011839D02*
X057827Y011839D01*
X057827Y011937D02*
X058447Y011937D01*
X058447Y012036D02*
X057827Y012036D01*
X057827Y012134D02*
X058447Y012134D01*
X058447Y012233D02*
X057827Y012233D01*
X057827Y012331D02*
X058447Y012331D01*
X058447Y012430D02*
X057827Y012430D01*
X057827Y012528D02*
X058447Y012528D01*
X058447Y012627D02*
X057827Y012627D01*
X057827Y012726D02*
X058447Y012726D01*
X058447Y012824D02*
X057827Y012824D01*
X057827Y012923D02*
X058447Y012923D01*
X058447Y013021D02*
X057827Y013021D01*
X057827Y013120D02*
X058447Y013120D01*
X058447Y013218D02*
X057827Y013218D01*
X057827Y013317D02*
X058447Y013317D01*
X058447Y013415D02*
X057827Y013415D01*
X057827Y013514D02*
X058447Y013514D01*
X058447Y013612D02*
X057827Y013612D01*
X057827Y013711D02*
X058447Y013711D01*
X058447Y013810D02*
X057827Y013810D01*
X057827Y013908D02*
X058447Y013908D01*
X058447Y014007D02*
X057827Y014007D01*
X057827Y014105D02*
X058447Y014105D01*
X058447Y014204D02*
X057827Y014204D01*
X057827Y014302D02*
X058447Y014302D01*
X058447Y014401D02*
X057827Y014401D01*
X057827Y014499D02*
X058447Y014499D01*
X058447Y014598D02*
X057827Y014598D01*
X057827Y014696D02*
X058447Y014696D01*
X058447Y014795D02*
X057827Y014795D01*
X057827Y014894D02*
X058447Y014894D01*
X058447Y014992D02*
X057827Y014992D01*
X057827Y015091D02*
X058447Y015091D01*
X028497Y009555D02*
X028497Y001655D01*
X027497Y001655D01*
X028497Y009555D02*
X026547Y011505D01*
X019597Y020655D02*
X016647Y017705D01*
X013647Y020205D02*
X013647Y021755D01*
X013798Y022124D01*
X013647Y020205D02*
X011297Y017855D01*
X009597Y017855D01*
X009597Y017355D01*
X006647Y014605D02*
X006247Y015005D01*
X006147Y015005D01*
X006647Y014605D02*
X006647Y014195D01*
X006147Y014195D02*
X006247Y013805D01*
X006547Y013505D01*
X007147Y013805D02*
X007297Y013655D01*
X007297Y011555D01*
X007897Y011370D01*
X007897Y012039D02*
X007647Y012155D01*
X007647Y014195D01*
X007147Y014195D02*
X007147Y013805D01*
X004747Y013555D02*
X004747Y017755D01*
X004747Y013555D02*
X004597Y013405D01*
X004347Y013189D01*
X002247Y021905D02*
X002097Y022155D01*
X001822Y022430D01*
X001347Y022905D02*
X001297Y023055D01*
X001297Y026205D01*
X001345Y026290D01*
X001647Y026205D02*
X001660Y026290D01*
X001647Y026205D02*
X001647Y025855D01*
X002247Y026205D02*
X002290Y026290D01*
X002605Y026290D02*
X002597Y026205D01*
X002597Y025305D01*
X002605Y026920D02*
X002597Y026955D01*
X002297Y026955D01*
X002290Y026920D01*
X002247Y026955D01*
X001997Y026955D01*
X001975Y026920D01*
X001947Y026955D01*
X001697Y026955D01*
X001660Y026920D01*
X001647Y026955D01*
X001347Y026955D01*
X001345Y026920D01*
X002605Y026920D02*
X002647Y026955D01*
X002897Y026955D01*
X002920Y026920D01*
X002797Y022705D02*
X003147Y022355D01*
X021547Y018055D02*
X026097Y022605D01*
D34*
X026097Y022605D03*
X025547Y021055D03*
X027347Y021055D03*
X030647Y023255D03*
X029247Y025355D03*
X033447Y025805D03*
X041347Y026705D03*
X043247Y025255D03*
X043797Y025205D03*
X042297Y024305D03*
X041497Y023255D03*
X042897Y022905D03*
X043547Y022705D03*
X041547Y021255D03*
X043297Y020355D03*
X045947Y019405D03*
X046497Y017655D03*
X045397Y016105D03*
X043747Y015205D03*
X043147Y015205D03*
X043497Y013755D03*
X041497Y012505D03*
X041997Y012105D03*
X041997Y011255D03*
X043897Y011255D03*
X047947Y012855D03*
X047997Y011555D03*
X042797Y017805D03*
X040647Y018955D03*
X046147Y021305D03*
X046447Y021755D03*
X054847Y022955D03*
X057397Y025305D03*
X059447Y032105D03*
X026797Y018755D03*
X026397Y019055D03*
X021547Y018055D03*
X019597Y020655D03*
X016647Y017705D03*
X014147Y020355D03*
X013297Y021105D03*
X009447Y020705D03*
X007547Y019405D03*
X006347Y019405D03*
X005497Y019005D03*
X004947Y019805D03*
X004447Y020205D03*
X005547Y020105D03*
X004247Y018405D03*
X001397Y020155D03*
X005097Y021805D03*
X005347Y022805D03*
X006147Y023905D03*
X007147Y023855D03*
X009397Y023605D03*
X007197Y022255D03*
X004747Y024655D03*
X003797Y025005D03*
X002597Y025305D03*
X003197Y025705D03*
X001647Y025855D03*
X001347Y022905D03*
X009497Y025705D03*
X011447Y024855D03*
X012397Y025805D03*
X009597Y017355D03*
X007147Y015005D03*
X006147Y015005D03*
X004247Y015005D03*
X006547Y013505D03*
X006147Y013055D03*
X004947Y013205D03*
X001897Y013405D03*
X006797Y010955D03*
X020397Y012355D03*
D35*
X019147Y010705D03*
X020947Y009805D03*
X020947Y008805D03*
X018947Y008805D03*
X017047Y009255D03*
X017047Y009805D03*
X016497Y009805D03*
X015947Y009805D03*
X015397Y009805D03*
X014847Y009805D03*
X014847Y009255D03*
X015447Y006105D03*
X015447Y005105D03*
X015447Y004105D03*
X022947Y008705D03*
X022947Y009255D03*
X022947Y009805D03*
X023497Y009805D03*
X024047Y009805D03*
X024597Y009805D03*
X025147Y009805D03*
X025147Y009255D03*
X025147Y008705D03*
X021947Y010705D03*
X012847Y014205D03*
X014147Y017305D03*
X007497Y015855D03*
X005797Y015855D03*
X011697Y025855D03*
X011947Y028055D03*
X011947Y028655D03*
X012547Y028055D03*
X013097Y028055D03*
X011947Y029305D03*
X009947Y029305D03*
X009397Y029305D03*
X009397Y028705D03*
X009947Y028705D03*
X009947Y028105D03*
X009397Y028105D03*
X004947Y030205D03*
X004397Y030205D03*
X003847Y030205D03*
X003847Y030755D03*
X003847Y031305D03*
X004397Y031305D03*
X004397Y030755D03*
X004947Y030755D03*
X004947Y031305D03*
X018747Y030905D03*
X018747Y030305D03*
X019347Y030305D03*
X019347Y030905D03*
X019947Y030905D03*
X019947Y030305D03*
X021247Y031205D03*
X021797Y031205D03*
X021797Y031755D03*
X021797Y032305D03*
X022347Y032305D03*
X022347Y031755D03*
X023147Y031505D03*
X021947Y030305D03*
X019947Y031505D03*
X019347Y031455D03*
X019897Y027105D03*
X031897Y028205D03*
X032447Y028205D03*
X032997Y028205D03*
X033547Y028205D03*
X034097Y028205D03*
X034647Y028205D03*
X034647Y028755D03*
X034097Y028755D03*
X034097Y029305D03*
X034647Y029305D03*
X031897Y029305D03*
X031897Y028755D03*
X035997Y027105D03*
X037597Y027755D03*
X038147Y027755D03*
X038697Y027755D03*
X039247Y027755D03*
X039797Y027755D03*
X040347Y027755D03*
X040897Y027755D03*
X041447Y027755D03*
X041997Y027755D03*
X041997Y028355D03*
X041997Y028905D03*
X041447Y028305D03*
X040897Y028305D03*
X040347Y028305D03*
X039797Y028305D03*
X039797Y028855D03*
X039797Y029405D03*
X041997Y029455D03*
X037597Y028305D03*
X045447Y025105D03*
X047447Y027105D03*
X052247Y025955D03*
X052247Y025355D03*
X052247Y024805D03*
X052247Y024255D03*
X050947Y023505D03*
X050947Y022755D03*
X050947Y022005D03*
X054447Y022605D03*
X055997Y022605D03*
X056247Y021455D03*
X057547Y021455D03*
X059747Y021455D03*
X060197Y021905D03*
X053447Y018605D03*
X057947Y014505D03*
X055197Y014055D03*
X055197Y012905D03*
X052247Y012805D03*
X052247Y013355D03*
X052247Y013905D03*
X050947Y013905D03*
X050947Y013355D03*
X050947Y012805D03*
X050947Y012255D03*
X052247Y012255D03*
X048397Y011155D03*
X048397Y009805D03*
X048397Y009255D03*
X048947Y009255D03*
X048947Y009805D03*
X048947Y008705D03*
X048397Y008705D03*
X046947Y008805D03*
X046947Y009805D03*
X045097Y009805D03*
X044547Y009805D03*
X043997Y009805D03*
X043447Y009805D03*
X042897Y009805D03*
X042897Y009255D03*
X042897Y008705D03*
X045097Y008705D03*
X045097Y009255D03*
X045497Y012405D03*
X051397Y009805D03*
X051397Y009255D03*
X051947Y009255D03*
X051947Y009805D03*
X051947Y008705D03*
X051397Y008705D03*
X049947Y005605D03*
X049947Y004605D03*
X042947Y004605D03*
X042947Y005605D03*
X058847Y009755D03*
X037497Y016605D03*
X054447Y026105D03*
X053747Y030305D03*
X052847Y030305D03*
X049897Y031305D03*
X056047Y030605D03*
D36*
X059797Y030205D02*
X059797Y028605D01*
X058597Y027405D01*
X058597Y027015D01*
X060897Y028605D02*
X060897Y029705D01*
X061297Y030105D01*
X061947Y030105D01*
X060247Y030655D02*
X059797Y030205D01*
X060247Y030655D02*
X060247Y035455D01*
X060097Y035605D01*
X060113Y036105D01*
X060782Y036105D02*
X061947Y036105D01*
X062947Y028605D02*
X060897Y028605D01*
X062647Y027205D02*
X062947Y027205D01*
X062947Y028605D01*
X062647Y027205D02*
X061897Y026439D01*
X059097Y024605D02*
X059097Y024595D01*
X059097Y024255D01*
X058397Y023555D01*
X058382Y023405D01*
X058297Y023955D02*
X058597Y024255D01*
X058597Y024595D01*
X058597Y024655D01*
X058297Y023955D02*
X058047Y023955D01*
X057713Y023620D01*
X057713Y023405D01*
X054947Y024155D02*
X054582Y023789D01*
X054582Y023555D01*
X053913Y023555D02*
X053913Y023770D01*
X054447Y024305D01*
X054447Y024595D01*
X054447Y024605D01*
X054947Y024595D02*
X054947Y024605D01*
X054947Y024595D02*
X054947Y024155D01*
X060882Y020905D02*
X061147Y020955D01*
X061147Y024089D01*
X061947Y024105D01*
X061097Y019105D02*
X060432Y019105D01*
X061097Y019105D02*
X061197Y019005D01*
X061947Y018270D01*
X061947Y018105D01*
X044147Y016915D02*
X044147Y016555D01*
X043497Y015905D01*
X041997Y015905D01*
X041997Y012105D01*
X041997Y011255D02*
X041697Y011255D01*
X040447Y010005D01*
X040347Y010005D01*
X040347Y006755D01*
X040947Y005955D01*
X040963Y005405D01*
X036047Y008105D02*
X036047Y009005D01*
X037047Y010005D01*
X040347Y010005D01*
X036047Y008105D02*
X035047Y007105D01*
X035047Y006855D01*
X034247Y005855D01*
X034213Y005455D01*
X012813Y005505D02*
X012797Y005955D01*
X011197Y007755D01*
X011197Y008005D01*
X008547Y008005D01*
X005747Y010805D01*
X005747Y015405D01*
X006247Y015405D01*
X006947Y016105D01*
X006947Y016155D01*
X007047Y016255D01*
X007147Y016615D01*
X008547Y008005D02*
X006447Y005705D01*
X006463Y005455D01*
X029547Y027605D02*
X030447Y026705D01*
X036447Y026705D01*
X041347Y026705D01*
X043747Y026015D02*
X043747Y026005D01*
X043797Y025205D01*
X036447Y026705D02*
X036447Y032455D01*
X036513Y032555D01*
X029663Y032555D02*
X029547Y032455D01*
X029547Y027605D01*
D37*
X025447Y033955D02*
X025447Y036605D01*
X018447Y036605D02*
X018447Y033955D01*
X013647Y033955D02*
X013647Y036605D01*
X006647Y036605D02*
X006647Y033955D01*
X034647Y033955D02*
X034647Y036605D01*
X041647Y036605D02*
X041647Y033955D01*
X046447Y033955D02*
X046447Y036605D01*
X053447Y036605D02*
X053447Y033955D01*
X025447Y005405D02*
X025447Y001905D01*
X030247Y001905D02*
X030247Y004055D01*
X037247Y004055D02*
X037247Y001905D01*
X046447Y001905D02*
X046447Y004005D01*
X053447Y004055D02*
X053447Y001905D01*
X018447Y001905D02*
X018447Y005405D01*
X009247Y005305D02*
X009247Y001905D01*
X002247Y001905D02*
X002247Y005305D01*
D38*
X002247Y001905D02*
X009247Y001905D01*
X014747Y001905D01*
X018447Y001905D01*
X025447Y001905D01*
X030247Y001905D02*
X037197Y001905D01*
X046447Y001905D01*
X053447Y001905D01*
X053447Y004055D02*
X053447Y005305D01*
X046447Y005305D02*
X046447Y004105D01*
X037247Y004055D02*
X037247Y005305D01*
X037197Y001905D02*
X037247Y001905D01*
X030247Y004055D02*
X030247Y005305D01*
X006697Y028805D02*
X004447Y031005D01*
X006647Y032705D02*
X006647Y033955D01*
X006647Y036605D02*
X013647Y036605D01*
X018447Y036605D01*
X025447Y036605D01*
X025447Y033955D02*
X025447Y032705D01*
X027647Y032705D02*
X027647Y033955D01*
X027647Y032705D02*
X027647Y032655D01*
X020647Y032655D02*
X020647Y034005D01*
X018447Y033955D02*
X018447Y032705D01*
X013647Y032705D02*
X013647Y033955D01*
X034647Y033955D02*
X034647Y032705D01*
X034647Y036605D02*
X053447Y036605D01*
X046447Y036605D01*
X046447Y033955D02*
X046447Y032705D01*
X041647Y032705D02*
X041647Y032305D01*
X041647Y033955D01*
X041647Y036605D02*
X034647Y036605D01*
X053447Y033955D02*
X053447Y032705D01*
D39*
X002047Y003305D02*
X002047Y000935D01*
X026447Y000935D01*
X026447Y003305D01*
X026203Y003305D01*
X025903Y003005D01*
X024213Y003005D01*
X023708Y002500D01*
X022787Y002500D01*
X022282Y003005D01*
X021613Y003005D01*
X021108Y002500D01*
X020187Y002500D01*
X019535Y003151D01*
X019535Y003305D01*
X019203Y003305D01*
X018903Y003005D01*
X017213Y003005D01*
X016708Y002500D01*
X015787Y002500D01*
X015282Y003005D01*
X014613Y003005D01*
X014108Y002500D01*
X013187Y002500D01*
X012547Y003139D01*
X011908Y002500D01*
X010987Y002500D01*
X010335Y003151D01*
X010335Y003305D01*
X007760Y003305D01*
X007760Y003151D01*
X007108Y002500D01*
X006187Y002500D01*
X005547Y003139D01*
X004908Y002500D01*
X003987Y002500D01*
X003335Y003151D01*
X003335Y003305D01*
X002047Y003305D01*
X002047Y003180D02*
X003335Y003180D01*
X002047Y002322D02*
X026447Y002322D01*
X026447Y003180D02*
X026079Y003180D01*
X023777Y004105D02*
X021947Y004105D01*
X021947Y006135D01*
X022380Y006135D01*
X022810Y006313D01*
X023139Y006642D01*
X023317Y007072D01*
X023317Y007537D01*
X023139Y007967D01*
X022810Y008297D01*
X022380Y008475D01*
X021947Y008475D01*
X021947Y009705D01*
X025447Y009705D01*
X025447Y008159D01*
X025256Y007967D01*
X025077Y007537D01*
X025077Y007080D01*
X024962Y007080D01*
X024957Y007075D01*
X024756Y007075D01*
X023777Y006096D01*
X023777Y004105D01*
X023777Y004897D02*
X021947Y004897D01*
X023247Y005305D02*
X023447Y005605D01*
X023447Y008805D01*
X022726Y008332D02*
X025447Y008332D01*
X025077Y007473D02*
X023317Y007473D01*
X023112Y006615D02*
X024296Y006615D01*
X023777Y005756D02*
X021947Y005756D01*
X018447Y008405D02*
X018280Y008475D01*
X017815Y008475D01*
X017385Y008297D01*
X017056Y007967D01*
X016877Y007537D01*
X016877Y007072D01*
X017056Y006642D01*
X017189Y006508D01*
X016777Y006096D01*
X016777Y004105D01*
X015537Y004105D01*
X015537Y006282D01*
X015075Y006745D01*
X015009Y006810D01*
X015117Y007072D01*
X015117Y007537D01*
X014947Y007948D01*
X014947Y009705D01*
X018447Y009705D01*
X018447Y008405D01*
X017469Y008332D02*
X014947Y008332D01*
X015947Y008305D02*
X016447Y008805D01*
X018047Y009305D01*
X018447Y009190D02*
X014947Y009190D01*
X015947Y008305D02*
X015947Y005605D01*
X016247Y005305D01*
X016777Y004897D02*
X015537Y004897D01*
X015537Y005756D02*
X016777Y005756D01*
X017083Y006615D02*
X015205Y006615D01*
X015117Y007473D02*
X016877Y007473D01*
X021947Y009190D02*
X025447Y009190D01*
X029447Y003205D02*
X029447Y000935D01*
X054447Y000935D01*
X054447Y003205D01*
X054047Y003205D01*
X054047Y003149D01*
X053403Y002505D01*
X051713Y002505D01*
X051708Y002500D01*
X050787Y002500D01*
X050782Y002505D01*
X049903Y002505D01*
X049113Y002505D01*
X049108Y002500D01*
X048187Y002500D01*
X047535Y003151D01*
X047535Y003205D01*
X047047Y003205D01*
X047047Y003149D01*
X046403Y002505D01*
X044713Y002505D01*
X044708Y002500D01*
X043787Y002500D01*
X043782Y002505D01*
X043403Y002505D01*
X042492Y002505D01*
X042303Y002694D01*
X042108Y002500D01*
X041187Y002500D01*
X040547Y003139D01*
X039908Y002500D01*
X038987Y002500D01*
X038335Y003151D01*
X038335Y003205D01*
X035760Y003205D01*
X035760Y003151D01*
X035108Y002500D01*
X034187Y002500D01*
X033547Y003139D01*
X032908Y002500D01*
X031987Y002500D01*
X031335Y003151D01*
X031335Y003205D01*
X029447Y003205D01*
X029447Y003180D02*
X031335Y003180D01*
X029447Y002322D02*
X054447Y002322D01*
X054447Y003180D02*
X054047Y003180D01*
X051777Y003605D02*
X051777Y004746D01*
X052027Y004996D01*
X052027Y005893D01*
X052275Y006140D01*
X052275Y006293D01*
X052947Y006965D01*
X052947Y009805D01*
X049447Y009805D01*
X049447Y008259D01*
X049485Y008297D01*
X049915Y008475D01*
X050380Y008475D01*
X050810Y008297D01*
X051139Y007967D01*
X051317Y007537D01*
X051317Y007072D01*
X051139Y006642D01*
X050810Y006313D01*
X050380Y006135D01*
X049915Y006135D01*
X049485Y006313D01*
X049447Y006350D01*
X049447Y006088D01*
X049558Y005978D01*
X049558Y005160D01*
X049760Y004958D01*
X049760Y003605D01*
X051777Y003605D01*
X051777Y004039D02*
X049760Y004039D01*
X049760Y004897D02*
X051928Y004897D01*
X051247Y005305D02*
X051347Y005655D01*
X051397Y009255D01*
X052947Y009190D02*
X049447Y009190D01*
X049447Y008332D02*
X049569Y008332D01*
X050726Y008332D02*
X052947Y008332D01*
X052947Y007473D02*
X051317Y007473D01*
X051112Y006615D02*
X052597Y006615D01*
X052027Y005756D02*
X049558Y005756D01*
X045815Y008475D02*
X045385Y008297D01*
X045056Y007967D01*
X044877Y007537D01*
X044877Y007072D01*
X045056Y006642D01*
X045340Y006358D01*
X045275Y006293D01*
X045275Y006140D01*
X045027Y005893D01*
X045027Y004946D01*
X044777Y004696D01*
X044777Y003605D01*
X042947Y003605D01*
X042947Y006662D01*
X043117Y007072D01*
X043117Y007537D01*
X042947Y007948D01*
X042947Y009705D01*
X045947Y009705D01*
X045947Y008475D01*
X045815Y008475D01*
X045469Y008332D02*
X042947Y008332D01*
X043117Y007473D02*
X044877Y007473D01*
X045083Y006615D02*
X042947Y006615D01*
X042947Y005756D02*
X045027Y005756D01*
X044247Y005305D02*
X043947Y005705D01*
X043947Y008805D01*
X046047Y009305D01*
X045947Y009190D02*
X042947Y009190D01*
X042947Y004897D02*
X044978Y004897D01*
X044777Y004039D02*
X042947Y004039D01*
X047047Y003180D02*
X047535Y003180D01*
X054447Y001463D02*
X029447Y001463D01*
X026447Y001463D02*
X002047Y001463D01*
X007760Y003180D02*
X010335Y003180D01*
X019079Y003180D02*
X019535Y003180D01*
X035760Y003180D02*
X038335Y003180D01*
X052247Y015505D02*
X052297Y016005D01*
X050947Y021305D02*
X050897Y021305D01*
X050947Y022005D01*
X041897Y027705D02*
X041915Y030195D01*
X041757Y030353D01*
X041757Y030945D01*
X041403Y030945D01*
X041383Y030965D01*
X041092Y030965D01*
X040307Y031750D01*
X040307Y033046D01*
X040057Y033296D01*
X040057Y034705D01*
X038280Y034705D01*
X038280Y033085D01*
X038082Y032887D01*
X038087Y032882D01*
X038087Y032569D01*
X038087Y032227D01*
X038028Y032168D01*
X038028Y032015D01*
X037682Y031669D01*
X037426Y031669D01*
X037397Y027705D01*
X041897Y027705D01*
X041900Y028078D02*
X037400Y028078D01*
X037406Y028937D02*
X041906Y028937D01*
X041912Y029795D02*
X039279Y029795D01*
X039199Y029715D02*
X039837Y030353D01*
X039837Y031256D01*
X039199Y031895D01*
X038296Y031895D01*
X037657Y031256D01*
X037657Y030353D01*
X038296Y029715D01*
X039199Y029715D01*
X040047Y029805D02*
X038747Y028805D01*
X038215Y029795D02*
X037412Y029795D01*
X037418Y030654D02*
X037657Y030654D01*
X037425Y031512D02*
X037914Y031512D01*
X038087Y032371D02*
X040307Y032371D01*
X040124Y033229D02*
X038280Y033229D01*
X039447Y032705D02*
X040047Y031305D01*
X040047Y029805D01*
X039837Y030654D02*
X041757Y030654D01*
X040545Y031512D02*
X039581Y031512D01*
X040057Y034088D02*
X038280Y034088D01*
X036992Y035805D02*
X036351Y035164D01*
X036347Y035160D01*
X036347Y035071D01*
X036135Y034858D01*
X036135Y034705D01*
X034297Y034705D01*
X034297Y037275D01*
X054947Y037275D01*
X054947Y035271D01*
X054535Y034858D01*
X054535Y034705D01*
X052360Y034705D01*
X052360Y034858D01*
X051708Y035510D01*
X050787Y035510D01*
X050135Y034858D01*
X050135Y034705D01*
X049760Y034705D01*
X049760Y034858D01*
X049108Y035510D01*
X048187Y035510D01*
X047535Y034858D01*
X047535Y034705D01*
X045360Y034705D01*
X045360Y034858D01*
X044708Y035510D01*
X043787Y035510D01*
X043135Y034858D01*
X043135Y034705D01*
X043047Y034705D01*
X043047Y035160D01*
X042403Y035805D01*
X041492Y035805D01*
X037903Y035805D01*
X036992Y035805D01*
X036223Y034946D02*
X034297Y034946D01*
X034297Y035805D02*
X054947Y035805D01*
X054947Y036664D02*
X034297Y036664D01*
X032977Y036664D02*
X030447Y036664D01*
X030447Y037275D02*
X032977Y037275D01*
X032977Y033263D01*
X033197Y033043D01*
X033197Y031705D01*
X034957Y030278D01*
X034957Y027805D01*
X030447Y027805D01*
X030447Y029635D01*
X031382Y029635D01*
X032067Y030320D01*
X032067Y031289D01*
X031382Y031975D01*
X031251Y031975D01*
X031258Y031982D01*
X031258Y032949D01*
X031360Y033051D01*
X031360Y034858D01*
X030708Y035510D01*
X030447Y035510D01*
X030447Y037275D01*
X030447Y035805D02*
X032977Y035805D01*
X032977Y034946D02*
X031271Y034946D01*
X031360Y034088D02*
X032977Y034088D01*
X033011Y033229D02*
X031360Y033229D01*
X031258Y032371D02*
X033197Y032371D01*
X032447Y032705D02*
X032447Y029805D01*
X031897Y029305D01*
X030897Y028805D01*
X030447Y028937D02*
X034957Y028937D01*
X034957Y029795D02*
X031542Y029795D01*
X032067Y030654D02*
X034494Y030654D01*
X033435Y031512D02*
X031844Y031512D01*
X030447Y028078D02*
X034957Y028078D01*
X045687Y029805D02*
X045687Y031304D01*
X045962Y031030D01*
X046933Y031030D01*
X047620Y031717D01*
X047620Y031869D01*
X047867Y032117D01*
X047867Y033013D01*
X048117Y033263D01*
X048117Y033605D01*
X050135Y033605D01*
X050135Y033051D01*
X050287Y032899D01*
X050287Y031982D01*
X050679Y031589D01*
X051057Y031589D01*
X051057Y029975D01*
X050815Y029975D01*
X050404Y029805D01*
X047590Y029805D01*
X047180Y029975D01*
X046715Y029975D01*
X046304Y029805D01*
X045687Y029805D01*
X045687Y030654D02*
X051057Y030654D01*
X051057Y031512D02*
X047416Y031512D01*
X047867Y032371D02*
X050287Y032371D01*
X050135Y033229D02*
X048084Y033229D01*
X047623Y034946D02*
X045271Y034946D01*
X043223Y034946D02*
X043047Y034946D01*
X049671Y034946D02*
X050223Y034946D01*
X052271Y034946D02*
X054623Y034946D01*
X056047Y034946D02*
X056097Y034946D01*
X056097Y035605D02*
X056047Y035605D01*
X056047Y034249D01*
X055403Y033605D01*
X055117Y033605D01*
X055117Y033263D01*
X054867Y033013D01*
X054867Y032117D01*
X054620Y031869D01*
X054620Y031717D01*
X053933Y031030D01*
X052962Y031030D01*
X052637Y031354D01*
X052637Y029805D01*
X054625Y029805D01*
X054915Y029925D01*
X055380Y029925D01*
X055670Y029805D01*
X056097Y029805D01*
X056097Y035605D01*
X056097Y034088D02*
X055886Y034088D01*
X056097Y033229D02*
X055084Y033229D01*
X054867Y032371D02*
X056097Y032371D01*
X056097Y031512D02*
X054416Y031512D01*
X056097Y030654D02*
X052637Y030654D01*
X013407Y030654D02*
X012117Y030654D01*
X012117Y030320D02*
X011432Y029635D01*
X010463Y029635D01*
X009777Y030320D01*
X009777Y031289D01*
X010463Y031975D01*
X011432Y031975D01*
X012117Y031289D01*
X012117Y030320D01*
X011592Y029795D02*
X013407Y029795D01*
X012347Y029305D02*
X010947Y028805D01*
X010302Y029795D02*
X009447Y029795D01*
X009447Y028937D02*
X013407Y028937D01*
X012347Y029305D02*
X012347Y031855D01*
X011947Y032705D01*
X011447Y032705D01*
X011977Y033263D02*
X012227Y033013D01*
X012227Y032117D01*
X012475Y031869D01*
X012475Y031717D01*
X013162Y031030D01*
X013407Y031030D01*
X013407Y028155D01*
X009447Y028155D01*
X009447Y031589D01*
X009515Y031589D01*
X009908Y031982D01*
X009908Y032599D01*
X010360Y033051D01*
X010360Y034705D01*
X011977Y034705D01*
X011977Y033263D01*
X012011Y033229D02*
X010360Y033229D01*
X009908Y032371D02*
X012227Y032371D01*
X011894Y031512D02*
X012679Y031512D01*
X010000Y031512D02*
X009447Y031512D01*
X009447Y030654D02*
X009777Y030654D01*
X006847Y028805D02*
X006697Y028805D01*
X004447Y031005D02*
X004447Y032705D01*
X010360Y034088D02*
X011977Y034088D01*
D40*
X009247Y033955D02*
X008997Y033955D01*
X008997Y032555D01*
X008982Y032555D01*
X002247Y032655D02*
X002247Y033955D01*
X002247Y032655D02*
X002182Y032505D01*
X016213Y032555D02*
X016247Y032605D01*
X016247Y033955D01*
X023247Y033955D02*
X023247Y032505D01*
X023263Y032505D01*
X030247Y032705D02*
X030247Y033955D01*
X030247Y032705D02*
X030332Y032555D01*
X037182Y032555D02*
X037297Y032555D01*
X037247Y033955D01*
X041447Y032305D02*
X041947Y031805D01*
X041647Y032305D02*
X041447Y032305D01*
X044247Y032555D02*
X044247Y033955D01*
X044263Y032555D02*
X044247Y032555D01*
X051213Y032555D02*
X051247Y032605D01*
X051247Y033955D01*
X048632Y005405D02*
X048647Y005355D01*
X048647Y004055D01*
X055647Y004055D02*
X055647Y005405D01*
X055632Y005455D01*
X041647Y005405D02*
X041647Y004055D01*
X041647Y005405D02*
X041632Y005405D01*
X034882Y005455D02*
X034847Y005405D01*
X034847Y004055D01*
X034647Y004055D01*
X027647Y004055D02*
X027647Y005305D01*
X027682Y005455D01*
X020647Y005555D02*
X020647Y004055D01*
X020582Y005455D02*
X020647Y005555D01*
X013647Y005505D02*
X013647Y004055D01*
X013647Y004005D01*
X013647Y005505D02*
X013482Y005505D01*
X007132Y005455D02*
X007097Y005455D01*
X007097Y004055D01*
X006647Y004055D01*
D41*
X006047Y034305D02*
X006047Y037545D01*
X026897Y037545D01*
X026897Y034839D01*
X026805Y034746D01*
X026805Y034739D01*
X026497Y034431D01*
X026497Y034305D01*
X024090Y034305D01*
X024090Y034746D01*
X023596Y035240D01*
X022898Y035240D01*
X022405Y034746D01*
X022405Y034305D01*
X021797Y034305D01*
X021797Y034481D01*
X021124Y035155D01*
X021081Y035155D01*
X020996Y035240D01*
X020298Y035240D01*
X020213Y035155D01*
X020171Y035155D01*
X019497Y034481D01*
X019497Y034305D01*
X017090Y034305D01*
X017090Y034746D01*
X016596Y035240D01*
X015898Y035240D01*
X015405Y034746D01*
X015405Y034305D01*
X014777Y034305D01*
X014777Y035049D01*
X014291Y035535D01*
X013604Y035535D01*
X009791Y035535D01*
X009104Y035535D01*
X008617Y035049D01*
X008617Y034959D01*
X008405Y034746D01*
X008405Y034305D01*
X006047Y034305D01*
X006047Y034370D02*
X008405Y034370D01*
X008405Y034689D02*
X006047Y034689D01*
X006047Y035007D02*
X008617Y035007D01*
X008895Y035326D02*
X006047Y035326D01*
X006047Y035644D02*
X026897Y035644D01*
X026897Y035326D02*
X014500Y035326D01*
X014777Y035007D02*
X015666Y035007D01*
X015405Y034689D02*
X014777Y034689D01*
X014777Y034370D02*
X015405Y034370D01*
X016829Y035007D02*
X020024Y035007D01*
X019705Y034689D02*
X017090Y034689D01*
X017090Y034370D02*
X019497Y034370D01*
X021271Y035007D02*
X022666Y035007D01*
X022405Y034689D02*
X021590Y034689D01*
X021797Y034370D02*
X022405Y034370D01*
X023829Y035007D02*
X026897Y035007D01*
X026755Y034689D02*
X024090Y034689D01*
X024090Y034370D02*
X026497Y034370D01*
X026897Y035963D02*
X006047Y035963D01*
X006047Y036282D02*
X026897Y036282D01*
X026897Y036600D02*
X006047Y036600D01*
X006047Y036919D02*
X026897Y036919D01*
X026897Y037237D02*
X006047Y037237D01*
D42*
X050947Y026455D02*
X050947Y022755D01*
X050947Y022705D01*
X050947Y022005D01*
X050947Y021305D02*
X050947Y022705D01*
X050947Y021305D02*
X050947Y012255D01*
X052247Y012255D02*
X052247Y015505D01*
X053497Y015505D01*
X052247Y015505D02*
X052247Y025955D01*
X050947Y026455D02*
X052522Y028030D01*
X052847Y028855D01*
X052847Y030305D01*
X061947Y032055D02*
X062247Y032105D01*
X061947Y032105D01*
X061947Y034105D01*
X061947Y022105D02*
X061947Y020105D01*
X062147Y020105D01*
X023447Y008805D02*
X022147Y009305D01*
D43*
X058097Y022405D03*
D44*
X061947Y020105D02*
X063447Y020105D01*
X063447Y017105D01*
X061947Y017105D01*
X061947Y029105D02*
X063697Y029105D01*
X063697Y032105D01*
X062247Y032105D01*
M02*
